<?xml version="1.0" encoding="UTF-8" standalone="no"?>
<!DOCTYPE svg PUBLIC "-//W3C//DTD SVG 1.1//EN"
 "http://www.w3.org/Graphics/SVG/1.1/DTD/svg11.dtd">
<!-- Generated by graphviz version 2.40.1 (20161225.0304)
 -->
<!-- Title: %3 Pages: 1 -->
<svg width="2531pt" height="475pt"
 viewBox="0.00 0.00 2530.57 475.44" xmlns="http://www.w3.org/2000/svg" xmlns:xlink="http://www.w3.org/1999/xlink">
<g id="graph0" class="graph" transform="scale(1 1) rotate(0) translate(4 471.4375)">
<title>%3</title>
<polygon fill="#ffffff" stroke="transparent" points="-4,4 -4,-471.4375 2526.5685,-471.4375 2526.5685,4 -4,4"/>
<!-- fake -->
<g id="node1" class="node">
<title>fake</title>
</g>
<!-- 0 -->
<g id="node2" class="node">
<title>0</title>
<ellipse fill="none" stroke="#000000" cx="1862.5685" cy="-376.4375" rx="27" ry="18"/>
<text text-anchor="middle" x="1862.5685" y="-372.7375" font-family="Times,serif" font-size="14.00" fill="#000000">0</text>
</g>
<!-- fake&#45;&gt;0 -->
<g id="edge1" class="edge">
<title>fake&#45;&gt;0</title>
<path fill="none" stroke="#000000" stroke-width="2" d="M1862.5685,-431.3926C1862.5685,-423.3203 1862.5685,-413.6139 1862.5685,-404.6192"/>
<polygon fill="#000000" stroke="#000000" stroke-width="2" points="1866.0686,-404.5278 1862.5685,-394.5279 1859.0686,-404.5279 1866.0686,-404.5278"/>
</g>
<!-- 0&#45;&gt;0 -->
<g id="edge73" class="edge">
<title>0&#45;&gt;0</title>
<path fill="none" stroke="#000000" d="M1888.012,-383.1282C1898.5963,-383.5896 1907.5685,-381.3594 1907.5685,-376.4375 1907.5685,-373.2075 1903.7045,-371.1367 1898.0566,-370.2252"/>
<polygon fill="#000000" stroke="#000000" points="1898.1672,-366.7266 1888.012,-369.7468 1897.8341,-373.7186 1898.1672,-366.7266"/>
<text text-anchor="middle" x="1914.5685" y="-372.7375" font-family="Times,serif" font-size="14.00" fill="#000000">{}</text>
</g>
<!-- 1 -->
<g id="node3" class="node">
<title>1</title>
<ellipse fill="none" stroke="#000000" cx="1463.5685" cy="-289.4375" rx="27" ry="18"/>
<text text-anchor="middle" x="1463.5685" y="-285.7375" font-family="Times,serif" font-size="14.00" fill="#000000">1</text>
</g>
<!-- 0&#45;&gt;1 -->
<g id="edge66" class="edge">
<title>0&#45;&gt;1</title>
<path fill="none" stroke="#000000" d="M1835.3259,-375.7428C1724.3526,-372.7829 1311.3594,-360.4527 1292.5685,-340.4375 1288.0054,-335.5772 1288.368,-330.6144 1292.5685,-325.4375 1309.1055,-305.0566 1381.4014,-295.7806 1426.5307,-291.9085"/>
<polygon fill="#000000" stroke="#000000" points="1426.8575,-295.3936 1436.543,-291.0994 1426.2935,-288.4164 1426.8575,-295.3936"/>
<text text-anchor="middle" x="1316.0685" y="-329.2375" font-family="Times,serif" font-size="14.00" fill="#000000">{c0, c1}</text>
</g>
<!-- 0&#45;&gt;1 -->
<g id="edge67" class="edge">
<title>0&#45;&gt;1</title>
<path fill="none" stroke="#000000" d="M1835.2708,-375.4918C1733.1735,-371.8248 1378.7988,-357.8784 1362.5685,-340.4375 1340.3064,-316.5149 1389.6296,-302.1471 1426.9011,-295.0183"/>
<polygon fill="#000000" stroke="#000000" points="1427.802,-298.4125 1437.0245,-293.1976 1426.5629,-291.523 1427.802,-298.4125"/>
<text text-anchor="middle" x="1396.0685" y="-329.2375" font-family="Times,serif" font-size="14.00" fill="#000000">{c0, c1, c3}</text>
</g>
<!-- 0&#45;&gt;1 -->
<g id="edge68" class="edge">
<title>0&#45;&gt;1</title>
<path fill="none" stroke="#000000" d="M1835.4738,-376.1292C1748.1751,-374.8579 1478.4208,-368.6592 1452.5685,-340.4375 1446.5229,-333.8378 1446.7831,-324.7346 1449.382,-316.0438"/>
<polygon fill="#000000" stroke="#000000" points="1452.7077,-317.15 1453.0985,-306.5623 1446.1904,-314.5954 1452.7077,-317.15"/>
<text text-anchor="middle" x="1486.0685" y="-329.2375" font-family="Times,serif" font-size="14.00" fill="#000000">{c0, c2, c3}</text>
</g>
<!-- 0&#45;&gt;1 -->
<g id="edge69" class="edge">
<title>0&#45;&gt;1</title>
<path fill="none" stroke="#000000" d="M1835.4591,-374.9999C1768.4135,-371.1877 1596.3647,-359.7683 1542.5685,-340.4375 1531.0834,-336.3105 1529.8125,-332.0706 1519.5685,-325.4375 1510.546,-319.5954 1500.6884,-313.2469 1491.7931,-307.5309"/>
<polygon fill="#000000" stroke="#000000" points="1493.5911,-304.526 1483.2853,-302.068 1489.8089,-310.4163 1493.5911,-304.526"/>
<text text-anchor="middle" x="1576.0685" y="-329.2375" font-family="Times,serif" font-size="14.00" fill="#000000">{c0, c1, c2}</text>
</g>
<!-- 0&#45;&gt;1 -->
<g id="edge70" class="edge">
<title>0&#45;&gt;1</title>
<path fill="none" stroke="#000000" d="M1835.8814,-373.6854C1783.5499,-368.0564 1669.3566,-354.5618 1632.5685,-340.4375 1621.1753,-336.0633 1620.7619,-330.3002 1609.5685,-325.4375 1573.9057,-309.9446 1530.3209,-300.2937 1500.1034,-294.9311"/>
<polygon fill="#000000" stroke="#000000" points="1500.4534,-291.4404 1490.0075,-293.2106 1499.2774,-298.3409 1500.4534,-291.4404"/>
<text text-anchor="middle" x="1646.0685" y="-329.2375" font-family="Times,serif" font-size="14.00" fill="#000000">{c0}</text>
</g>
<!-- 0&#45;&gt;1 -->
<g id="edge71" class="edge">
<title>0&#45;&gt;1</title>
<path fill="none" stroke="#000000" d="M1835.7266,-374.2688C1799.7286,-370.6531 1734.3484,-361.5797 1682.5685,-340.4375 1671.27,-335.8242 1670.903,-329.9617 1659.5685,-325.4375 1606.7705,-304.3631 1541.0013,-295.5109 1500.6643,-291.8733"/>
<polygon fill="#000000" stroke="#000000" points="1500.7453,-288.3679 1490.4872,-291.0181 1500.159,-295.3433 1500.7453,-288.3679"/>
<text text-anchor="middle" x="1706.0685" y="-329.2375" font-family="Times,serif" font-size="14.00" fill="#000000">{c0, c2}</text>
</g>
<!-- 0&#45;&gt;1 -->
<g id="edge72" class="edge">
<title>0&#45;&gt;1</title>
<path fill="none" stroke="#000000" d="M1836.9398,-370.099C1814.1671,-363.9923 1780.2903,-353.7295 1752.5685,-340.4375 1741.564,-335.1611 1741.0064,-329.6934 1729.5685,-325.4375 1688.4873,-310.1519 1564.1473,-297.8918 1501.094,-292.4646"/>
<polygon fill="#000000" stroke="#000000" points="1501.054,-288.9488 1490.7942,-291.592 1500.463,-295.9238 1501.054,-288.9488"/>
<text text-anchor="middle" x="1796.5685" y="-329.2375" font-family="Times,serif" font-size="14.00" fill="#000000">{c0, c1, c2, c3}</text>
</g>
<!-- 0&#45;&gt;1 -->
<g id="edge74" class="edge">
<title>0&#45;&gt;1</title>
<path fill="none" stroke="#000000" d="M1859.5867,-358.4136C1856.7164,-347.0681 1851.17,-333.1571 1840.5685,-325.4375 1813.4711,-305.7065 1590.32,-294.5666 1500.6566,-290.851"/>
<polygon fill="#000000" stroke="#000000" points="1500.7884,-287.3536 1490.6545,-290.4445 1500.5041,-294.3478 1500.7884,-287.3536"/>
<text text-anchor="middle" x="1876.0685" y="-329.2375" font-family="Times,serif" font-size="14.00" fill="#000000">{c0, c3}</text>
</g>
<!-- 2 -->
<g id="node4" class="node">
<title>2</title>
<ellipse fill="none" stroke="#000000" cx="1447.5685" cy="-24.4375" rx="27" ry="18"/>
<text text-anchor="middle" x="1447.5685" y="-20.7375" font-family="Times,serif" font-size="14.00" fill="#000000">2</text>
</g>
<!-- 0&#45;&gt;2 -->
<g id="edge75" class="edge">
<title>0&#45;&gt;2</title>
<path fill="none" stroke="#000000" d="M1882.7388,-364.2542C1890.7983,-358.2012 1899.1929,-350.1024 1903.5685,-340.4375 1906.318,-334.3643 1905.5752,-331.795 1903.5685,-325.4375 1865.7596,-205.6549 1835.9291,-174.2805 1736.5685,-97.4375 1709.3608,-76.3958 1699.3177,-74.9494 1666.5685,-64.4375 1604.2218,-44.4253 1528.4816,-33.3822 1484.3808,-28.2016"/>
<polygon fill="#000000" stroke="#000000" points="1484.7391,-24.7199 1474.4076,-27.067 1483.9478,-31.675 1484.7391,-24.7199"/>
<text text-anchor="middle" x="1882.0685" y="-198.7375" font-family="Times,serif" font-size="14.00" fill="#000000">{c1, c2}</text>
</g>
<!-- 0&#45;&gt;2 -->
<g id="edge76" class="edge">
<title>0&#45;&gt;2</title>
<path fill="none" stroke="#000000" d="M1885.5573,-366.9939C1913.0972,-353.9709 1955.5685,-327.6867 1955.5685,-289.4375 1955.5685,-289.4375 1955.5685,-289.4375 1955.5685,-115.4375 1955.5685,-67.596 1601.9669,-36.2414 1484.7874,-27.1643"/>
<polygon fill="#000000" stroke="#000000" points="1484.7599,-23.652 1474.5221,-26.3795 1484.2262,-30.6317 1484.7599,-23.652"/>
<text text-anchor="middle" x="1979.0685" y="-198.7375" font-family="Times,serif" font-size="14.00" fill="#000000">{c1, c3}</text>
</g>
<!-- 0&#45;&gt;2 -->
<g id="edge77" class="edge">
<title>0&#45;&gt;2</title>
<path fill="none" stroke="#000000" d="M1887.785,-369.6332C1936.4506,-355.7537 2038.5685,-322.6703 2038.5685,-289.4375 2038.5685,-289.4375 2038.5685,-289.4375 2038.5685,-115.4375 2038.5685,-59.2072 1615.2554,-32.9749 1485.15,-26.2404"/>
<polygon fill="#000000" stroke="#000000" points="1485.0533,-22.731 1474.8884,-25.7184 1484.6976,-29.722 1485.0533,-22.731"/>
<text text-anchor="middle" x="2052.0685" y="-198.7375" font-family="Times,serif" font-size="14.00" fill="#000000">{c2}</text>
</g>
<!-- 0&#45;&gt;2 -->
<g id="edge78" class="edge">
<title>0&#45;&gt;2</title>
<path fill="none" stroke="#000000" d="M1889.0588,-372.5577C1951.2854,-362.7009 2101.5685,-334.2565 2101.5685,-289.4375 2101.5685,-289.4375 2101.5685,-289.4375 2101.5685,-115.4375 2101.5685,-52.7319 1623.8284,-30.7391 1484.9845,-25.6714"/>
<polygon fill="#000000" stroke="#000000" points="1484.9559,-22.1683 1474.8374,-25.3094 1484.7062,-29.1638 1484.9559,-22.1683"/>
<text text-anchor="middle" x="2135.0685" y="-198.7375" font-family="Times,serif" font-size="14.00" fill="#000000">{c1, c2, c3}</text>
</g>
<!-- 0&#45;&gt;2 -->
<g id="edge79" class="edge">
<title>0&#45;&gt;2</title>
<path fill="none" stroke="#000000" d="M1889.6905,-375.3521C1970.5808,-371.3849 2204.5685,-354.3029 2204.5685,-289.4375 2204.5685,-289.4375 2204.5685,-289.4375 2204.5685,-115.4375 2204.5685,-42.1591 1638.185,-27.564 1485.2417,-24.9587"/>
<polygon fill="#000000" stroke="#000000" points="1485.0135,-21.4546 1474.9577,-24.7912 1484.8994,-28.4537 1485.0135,-21.4546"/>
<text text-anchor="middle" x="2228.0685" y="-198.7375" font-family="Times,serif" font-size="14.00" fill="#000000">{c2, c3}</text>
</g>
<!-- 0&#45;&gt;2 -->
<g id="edge80" class="edge">
<title>0&#45;&gt;2</title>
<path fill="none" stroke="#000000" d="M1889.5648,-375.8132C1943.3525,-374.0125 2067.3401,-367.0661 2167.5685,-340.4375 2223.5757,-325.5576 2287.5685,-347.3877 2287.5685,-289.4375 2287.5685,-289.4375 2287.5685,-289.4375 2287.5685,-115.4375 2287.5685,-42.0705 2202.6661,-78.0264 2130.5685,-64.4375 2005.099,-40.7892 1608.6891,-28.6504 1484.8857,-25.3677"/>
<polygon fill="#000000" stroke="#000000" points="1484.8569,-21.8659 1474.7688,-25.1032 1484.6739,-28.8635 1484.8569,-21.8659"/>
<text text-anchor="middle" x="2301.0685" y="-198.7375" font-family="Times,serif" font-size="14.00" fill="#000000">{c1}</text>
</g>
<!-- 0&#45;&gt;2 -->
<g id="edge81" class="edge">
<title>0&#45;&gt;2</title>
<path fill="none" stroke="#000000" d="M1889.5171,-374.8852C1963.1666,-370.4719 2166.6481,-357.0886 2231.5685,-340.4375 2287.3058,-326.1418 2350.5685,-346.9789 2350.5685,-289.4375 2350.5685,-289.4375 2350.5685,-289.4375 2350.5685,-115.4375 2350.5685,-51.2988 2278.343,-77.5958 2215.5685,-64.4375 2073.5495,-34.6687 1619.0258,-26.6147 1485.0639,-24.8616"/>
<polygon fill="#000000" stroke="#000000" points="1484.9418,-21.3599 1474.8982,-24.7328 1484.853,-28.3593 1484.9418,-21.3599"/>
<text text-anchor="middle" x="2364.0685" y="-198.7375" font-family="Times,serif" font-size="14.00" fill="#000000">{c3}</text>
</g>
<!-- 1&#45;&gt;1 -->
<g id="edge8" class="edge">
<title>1&#45;&gt;1</title>
<path fill="none" stroke="#000000" d="M1488.101,-297.1895C1499.0763,-297.9277 1508.5685,-295.3438 1508.5685,-289.4375 1508.5685,-285.4693 1504.2836,-283.0007 1498.1428,-282.0319"/>
<polygon fill="#000000" stroke="#000000" points="1498.2157,-278.5324 1488.101,-281.6856 1497.9743,-285.5283 1498.2157,-278.5324"/>
<text text-anchor="middle" x="1515.5685" y="-285.7375" font-family="Times,serif" font-size="14.00" fill="#000000">{}</text>
</g>
<!-- 1&#45;&gt;2 -->
<g id="edge11" class="edge">
<title>1&#45;&gt;2</title>
<path fill="none" stroke="#000000" d="M1458.9809,-271.6704C1453.1016,-247.8978 1443.2313,-204.3354 1439.5685,-166.4375 1438.9272,-159.8018 1436.7136,-157.462 1439.5685,-151.4375 1444.9785,-140.021 1456.1585,-144.854 1461.5685,-133.4375 1468.4202,-118.9788 1463.0821,-113.3658 1461.5685,-97.4375 1460.1429,-82.435 1457.1046,-65.929 1454.2216,-52.4131"/>
<polygon fill="#000000" stroke="#000000" points="1457.5607,-51.3044 1451.9766,-42.3007 1450.7271,-52.8216 1457.5607,-51.3044"/>
<text text-anchor="middle" x="1453.0685" y="-155.2375" font-family="Times,serif" font-size="14.00" fill="#000000">{c2}</text>
</g>
<!-- 1&#45;&gt;2 -->
<g id="edge12" class="edge">
<title>1&#45;&gt;2</title>
<path fill="none" stroke="#000000" d="M1466.6598,-271.4354C1472.1036,-237.4318 1482.3886,-161.4261 1477.5685,-97.4375 1476.4542,-82.6454 1477.7175,-78.3493 1472.5685,-64.4375 1470.6977,-59.3831 1468.1366,-54.2838 1465.3637,-49.4968"/>
<polygon fill="#000000" stroke="#000000" points="1468.1715,-47.386 1459.8962,-40.7701 1462.2395,-51.1026 1468.1715,-47.386"/>
<text text-anchor="middle" x="1501.0685" y="-155.2375" font-family="Times,serif" font-size="14.00" fill="#000000">{c0, c2}</text>
</g>
<!-- 1&#45;&gt;2 -->
<g id="edge13" class="edge">
<title>1&#45;&gt;2</title>
<path fill="none" stroke="#000000" d="M1478.6269,-274.114C1500.9763,-249.4766 1539.2119,-198.9896 1528.5685,-151.4375 1519.2319,-109.7243 1512.1573,-99.4025 1487.5685,-64.4375 1483.0631,-58.0309 1477.4829,-51.734 1471.9348,-46.1003"/>
<polygon fill="#000000" stroke="#000000" points="1474.1076,-43.3318 1464.493,-38.8809 1469.2335,-48.3561 1474.1076,-43.3318"/>
<text text-anchor="middle" x="1553.0685" y="-155.2375" font-family="Times,serif" font-size="14.00" fill="#000000">{c0, c3}</text>
</g>
<!-- 1&#45;&gt;2 -->
<g id="edge14" class="edge">
<title>1&#45;&gt;2</title>
<path fill="none" stroke="#000000" d="M1485.4456,-278.6522C1524.7664,-257.62 1601.4387,-208.1861 1580.5685,-151.4375 1562.0848,-101.1781 1510.7273,-62.2594 1477.5085,-41.3961"/>
<polygon fill="#000000" stroke="#000000" points="1479.0214,-38.2191 1468.6624,-35.9959 1475.3741,-44.1938 1479.0214,-38.2191"/>
<text text-anchor="middle" x="1607.0685" y="-155.2375" font-family="Times,serif" font-size="14.00" fill="#000000">{c2, c3}</text>
</g>
<!-- 1&#45;&gt;2 -->
<g id="edge15" class="edge">
<title>1&#45;&gt;2</title>
<path fill="none" stroke="#000000" d="M1488.6629,-282.6077C1543.4148,-266.2732 1666.2546,-221.0545 1634.5685,-151.4375 1605.791,-88.211 1527.4042,-51.7013 1481.7717,-35.1905"/>
<polygon fill="#000000" stroke="#000000" points="1482.8833,-31.8714 1472.2884,-31.8764 1480.5739,-38.4795 1482.8833,-31.8714"/>
<text text-anchor="middle" x="1672.0685" y="-155.2375" font-family="Times,serif" font-size="14.00" fill="#000000">{c0, c2, c3}</text>
</g>
<!-- 1&#45;&gt;2 -->
<g id="edge16" class="edge">
<title>1&#45;&gt;2</title>
<path fill="none" stroke="#000000" d="M1490.1505,-286.28C1563.3442,-276.3767 1759.213,-241.0769 1709.5685,-151.4375 1663.7303,-68.6709 1544.8641,-39.0424 1484.2609,-29.0934"/>
<polygon fill="#000000" stroke="#000000" points="1484.7715,-25.6308 1474.3534,-27.5578 1483.6993,-32.5482 1484.7715,-25.6308"/>
<text text-anchor="middle" x="1729.0685" y="-155.2375" font-family="Times,serif" font-size="14.00" fill="#000000">{c0}</text>
</g>
<!-- 1&#45;&gt;2 -->
<g id="edge17" class="edge">
<title>1&#45;&gt;2</title>
<path fill="none" stroke="#000000" d="M1490.493,-288.0598C1569.1352,-282.7777 1790.2594,-258.3267 1746.5685,-151.4375 1722.5868,-92.7667 1692.9476,-86.6075 1633.5685,-64.4375 1583.6467,-45.7985 1522.7756,-34.766 1484.5826,-29.1553"/>
<polygon fill="#000000" stroke="#000000" points="1484.8323,-25.6557 1474.4395,-27.7147 1483.8479,-32.5862 1484.8323,-25.6557"/>
<text text-anchor="middle" x="1764.0685" y="-155.2375" font-family="Times,serif" font-size="14.00" fill="#000000">{c3}</text>
</g>
<!-- 3 -->
<g id="node5" class="node">
<title>3</title>
<ellipse fill="none" stroke="#000000" cx="1007.5685" cy="-202.4375" rx="27" ry="18"/>
<text text-anchor="middle" x="1007.5685" y="-198.7375" font-family="Times,serif" font-size="14.00" fill="#000000">3</text>
</g>
<!-- 1&#45;&gt;3 -->
<g id="edge2" class="edge">
<title>1&#45;&gt;3</title>
<path fill="none" stroke="#000000" d="M1436.219,-288.9153C1317.5972,-286.52 852.6291,-275.7319 831.5685,-253.4375 826.9905,-248.5913 827.3532,-243.6023 831.5685,-238.4375 848.7563,-217.3781 924.1406,-208.3067 970.4973,-204.6619"/>
<polygon fill="#000000" stroke="#000000" points="970.7642,-208.1518 980.4794,-203.9252 970.2489,-201.1708 970.7642,-208.1518"/>
<text text-anchor="middle" x="855.0685" y="-242.2375" font-family="Times,serif" font-size="14.00" fill="#000000">{c1, c2}</text>
</g>
<!-- 1&#45;&gt;3 -->
<g id="edge3" class="edge">
<title>1&#45;&gt;3</title>
<path fill="none" stroke="#000000" d="M1436.3362,-288.7178C1326.3717,-285.6815 920.067,-273.1589 901.5685,-253.4375 877.97,-228.279 931.6558,-214.1177 970.9161,-207.394"/>
<polygon fill="#000000" stroke="#000000" points="971.713,-210.8109 981.0302,-205.7671 970.6012,-203.8997 971.713,-210.8109"/>
<text text-anchor="middle" x="935.0685" y="-242.2375" font-family="Times,serif" font-size="14.00" fill="#000000">{c0, c1, c3}</text>
</g>
<!-- 1&#45;&gt;3 -->
<g id="edge4" class="edge">
<title>1&#45;&gt;3</title>
<path fill="none" stroke="#000000" d="M1436.4624,-288.3792C1338.3623,-284.4199 1006.7899,-269.8641 991.5685,-253.4375 985.0148,-246.365 986.4171,-236.6319 990.3966,-227.5631"/>
<polygon fill="#000000" stroke="#000000" points="993.6183,-228.9606 995.2511,-218.4923 987.4466,-225.6576 993.6183,-228.9606"/>
<text text-anchor="middle" x="1025.0685" y="-242.2375" font-family="Times,serif" font-size="14.00" fill="#000000">{c1, c2, c3}</text>
</g>
<!-- 1&#45;&gt;3 -->
<g id="edge5" class="edge">
<title>1&#45;&gt;3</title>
<path fill="none" stroke="#000000" d="M1436.5564,-288.6567C1360.7111,-286.1869 1147.0683,-277.2503 1081.5685,-253.4375 1078.858,-252.4521 1054.5877,-235.5882 1034.5695,-221.5187"/>
<polygon fill="#000000" stroke="#000000" points="1036.5174,-218.6097 1026.3258,-215.7144 1032.4874,-224.3333 1036.5174,-218.6097"/>
<text text-anchor="middle" x="1125.5685" y="-242.2375" font-family="Times,serif" font-size="14.00" fill="#000000">{c0, c1, c2, c3}</text>
</g>
<!-- 1&#45;&gt;3 -->
<g id="edge6" class="edge">
<title>1&#45;&gt;3</title>
<path fill="none" stroke="#000000" d="M1436.7272,-287.3914C1377.4437,-282.6274 1237.0713,-269.9342 1192.5685,-253.4375 1181.1254,-249.1957 1180.8173,-243.1707 1169.5685,-238.4375 1128.5924,-221.1959 1078.1586,-211.6601 1044.5544,-206.8047"/>
<polygon fill="#000000" stroke="#000000" points="1044.6525,-203.2853 1034.2687,-205.3889 1043.698,-210.2199 1044.6525,-203.2853"/>
<text text-anchor="middle" x="1226.0685" y="-242.2375" font-family="Times,serif" font-size="14.00" fill="#000000">{c0, c1, c2}</text>
</g>
<!-- 1&#45;&gt;3 -->
<g id="edge7" class="edge">
<title>1&#45;&gt;3</title>
<path fill="none" stroke="#000000" d="M1436.5776,-287.2941C1400.3797,-283.7067 1334.6363,-274.665 1282.5685,-253.4375 1271.2676,-248.8302 1270.9906,-242.7355 1259.5685,-238.4375 1221.0363,-223.9383 1105.1127,-211.4755 1044.8562,-205.7648"/>
<polygon fill="#000000" stroke="#000000" points="1044.9155,-202.2552 1034.6333,-204.8102 1044.2646,-209.2249 1044.9155,-202.2552"/>
<text text-anchor="middle" x="1306.0685" y="-242.2375" font-family="Times,serif" font-size="14.00" fill="#000000">{c1, c3}</text>
</g>
<!-- 1&#45;&gt;3 -->
<g id="edge9" class="edge">
<title>1&#45;&gt;3</title>
<path fill="none" stroke="#000000" d="M1438.1528,-283.2527C1415.1691,-277.1841 1380.7187,-266.8888 1352.5685,-253.4375 1341.557,-248.1758 1341.055,-242.5605 1329.5685,-238.4375 1277.9711,-219.9169 1118.2797,-208.7295 1045.0075,-204.445"/>
<polygon fill="#000000" stroke="#000000" points="1045.0308,-200.9407 1034.847,-203.8629 1044.6304,-207.9293 1045.0308,-200.9407"/>
<text text-anchor="middle" x="1376.0685" y="-242.2375" font-family="Times,serif" font-size="14.00" fill="#000000">{c0, c1}</text>
</g>
<!-- 1&#45;&gt;3 -->
<g id="edge10" class="edge">
<title>1&#45;&gt;3</title>
<path fill="none" stroke="#000000" d="M1447.48,-274.8345C1432.1988,-261.3036 1410.0485,-242.6502 1399.5685,-238.4375 1335.7942,-212.802 1130.2288,-205.2263 1045.0639,-203.1568"/>
<polygon fill="#000000" stroke="#000000" points="1044.8958,-199.652 1034.8177,-202.9205 1044.7343,-206.6502 1044.8958,-199.652"/>
<text text-anchor="middle" x="1435.0685" y="-242.2375" font-family="Times,serif" font-size="14.00" fill="#000000">{c1}</text>
</g>
<!-- 2&#45;&gt;2 -->
<g id="edge50" class="edge">
<title>2&#45;&gt;2</title>
<path fill="none" stroke="#000000" d="M1474.8093,-25.936C1484.5924,-25.9683 1492.5685,-25.4688 1492.5685,-24.4375 1492.5685,-23.8091 1489.6067,-23.3781 1485.079,-23.1446"/>
<polygon fill="#000000" stroke="#000000" points="1484.8774,-19.64 1474.8093,-22.939 1484.7372,-26.6386 1484.8774,-19.64"/>
<text text-anchor="middle" x="1516.0685" y="-20.7375" font-family="Times,serif" font-size="14.00" fill="#000000">{c1, c2}</text>
</g>
<!-- 2&#45;&gt;2 -->
<g id="edge51" class="edge">
<title>2&#45;&gt;2</title>
<path fill="none" stroke="#000000" d="M1474.4606,-26.8633C1502.8898,-28.1211 1539.5685,-27.3125 1539.5685,-24.4375 1539.5685,-21.8994 1510.9827,-20.9718 1484.7228,-21.6547"/>
<polygon fill="#000000" stroke="#000000" points="1484.3328,-18.166 1474.4606,-22.0117 1484.5762,-25.1618 1484.3328,-18.166"/>
<text text-anchor="middle" x="1563.0685" y="-20.7375" font-family="Times,serif" font-size="14.00" fill="#000000">{c0, c1}</text>
</g>
<!-- 2&#45;&gt;2 -->
<g id="edge52" class="edge">
<title>2&#45;&gt;2</title>
<path fill="none" stroke="#000000" d="M1474.4691,-27.4537C1517.1799,-30.1656 1586.5685,-29.1602 1586.5685,-24.4375 1586.5685,-20.0746 1527.3482,-18.8842 1484.6511,-20.8663"/>
<polygon fill="#000000" stroke="#000000" points="1484.2637,-17.3821 1474.4691,-21.4213 1484.6448,-24.3717 1484.2637,-17.3821"/>
<text text-anchor="middle" x="1610.0685" y="-20.7375" font-family="Times,serif" font-size="14.00" fill="#000000">{c1, c3}</text>
</g>
<!-- 2&#45;&gt;2 -->
<g id="edge53" class="edge">
<title>2&#45;&gt;2</title>
<path fill="none" stroke="#000000" d="M1474.2214,-27.8842C1529.1368,-32.1958 1633.5685,-31.0469 1633.5685,-24.4375 1633.5685,-18.2154 1541.0164,-16.8326 1484.3535,-20.2892"/>
<polygon fill="#000000" stroke="#000000" points="1483.9557,-16.8082 1474.2214,-20.9908 1484.4393,-23.7915 1483.9557,-16.8082"/>
<text text-anchor="middle" x="1647.0685" y="-20.7375" font-family="Times,serif" font-size="14.00" fill="#000000">{c2}</text>
</g>
<!-- 2&#45;&gt;2 -->
<g id="edge54" class="edge">
<title>2&#45;&gt;2</title>
<path fill="none" stroke="#000000" d="M1474.1282,-28.3522C1536.1213,-34.1994 1660.5685,-32.8945 1660.5685,-24.4375 1660.5685,-16.4265 1548.9005,-14.8331 1484.4293,-19.6574"/>
<polygon fill="#000000" stroke="#000000" points="1483.8001,-16.1979 1474.1282,-20.5228 1484.3861,-23.1733 1483.8001,-16.1979"/>
<text text-anchor="middle" x="1694.0685" y="-20.7375" font-family="Times,serif" font-size="14.00" fill="#000000">{c1, c2, c3}</text>
</g>
<!-- 2&#45;&gt;2 -->
<g id="edge55" class="edge">
<title>2&#45;&gt;2</title>
<path fill="none" stroke="#000000" d="M1474.0429,-28.532C1550.0482,-36.232 1727.5685,-34.8672 1727.5685,-24.4375 1727.5685,-14.456 1564.9761,-12.777 1484.3806,-19.4007"/>
<polygon fill="#000000" stroke="#000000" points="1483.6839,-15.9496 1474.0429,-20.343 1484.3194,-22.9207 1483.6839,-15.9496"/>
<text text-anchor="middle" x="1751.0685" y="-20.7375" font-family="Times,serif" font-size="14.00" fill="#000000">{c0, c2}</text>
</g>
<!-- 2&#45;&gt;2 -->
<g id="edge56" class="edge">
<title>2&#45;&gt;2</title>
<path fill="none" stroke="#000000" d="M1473.9616,-28.7826C1559.4657,-38.2453 1774.5685,-36.7969 1774.5685,-24.4375 1774.5685,-12.5368 1575.1342,-10.7523 1483.9984,-19.084"/>
<polygon fill="#000000" stroke="#000000" points="1483.5616,-15.6102 1473.9616,-20.0924 1484.2614,-22.5751 1483.5616,-15.6102"/>
<text text-anchor="middle" x="1818.5685" y="-20.7375" font-family="Times,serif" font-size="14.00" fill="#000000">{c0, c1, c2, c3}</text>
</g>
<!-- 2&#45;&gt;2 -->
<g id="edge57" class="edge">
<title>2&#45;&gt;2</title>
<path fill="none" stroke="#000000" d="M1473.8866,-28.8547C1574.2224,-40.2693 1862.5685,-38.7969 1862.5685,-24.4375 1862.5685,-10.5409 1592.5077,-8.714 1484.1568,-18.9569"/>
<polygon fill="#000000" stroke="#000000" points="1483.4729,-15.5089 1473.8866,-20.0203 1484.1939,-22.4717 1483.4729,-15.5089"/>
<text text-anchor="middle" x="1886.0685" y="-20.7375" font-family="Times,serif" font-size="14.00" fill="#000000">{c0, c3}</text>
</g>
<!-- 2&#45;&gt;2 -->
<g id="edge58" class="edge">
<title>2&#45;&gt;2</title>
<path fill="none" stroke="#000000" d="M1473.892,-29.0682C1582.58,-42.276 1909.5685,-40.7324 1909.5685,-24.4375 1909.5685,-8.62 1601.4588,-6.7021 1483.993,-18.684"/>
<polygon fill="#000000" stroke="#000000" points="1483.444,-15.2233 1473.892,-19.8068 1484.2175,-22.1805 1483.444,-15.2233"/>
<text text-anchor="middle" x="1933.0685" y="-20.7375" font-family="Times,serif" font-size="14.00" fill="#000000">{c2, c3}</text>
</g>
<!-- 2&#45;&gt;2 -->
<g id="edge59" class="edge">
<title>2&#45;&gt;2</title>
<path fill="none" stroke="#000000" d="M1473.8089,-29.2475C1590.5134,-44.283 1956.5685,-42.6797 1956.5685,-24.4375 1956.5685,-6.6941 1610.2583,-4.6921 1483.929,-18.4315"/>
<polygon fill="#000000" stroke="#000000" points="1483.329,-14.978 1473.8089,-19.6276 1484.1506,-21.9296 1483.329,-14.978"/>
<text text-anchor="middle" x="1990.0685" y="-20.7375" font-family="Times,serif" font-size="14.00" fill="#000000">{c0, c2, c3}</text>
</g>
<!-- 2&#45;&gt;2 -->
<g id="edge60" class="edge">
<title>2&#45;&gt;2</title>
<path fill="none" stroke="#000000" d="M1473.7084,-29.3535C1600.4938,-46.293 2023.5685,-44.6543 2023.5685,-24.4375 2023.5685,-4.734 1621.7053,-2.6772 1483.9272,-18.2671"/>
<polygon fill="#000000" stroke="#000000" points="1483.2075,-14.8291 1473.7084,-19.5215 1484.0604,-21.777 1483.2075,-14.8291"/>
<text text-anchor="middle" x="2037.0685" y="-20.7375" font-family="Times,serif" font-size="14.00" fill="#000000">{c0}</text>
</g>
<!-- 2&#45;&gt;2 -->
<g id="edge61" class="edge">
<title>2&#45;&gt;2</title>
<path fill="none" stroke="#000000" d="M1473.7477,-29.5637C1606.0046,-48.2947 2050.5685,-46.586 2050.5685,-24.4375 2050.5685,-2.8298 1627.4468,-.676 1483.9819,-17.976"/>
<polygon fill="#000000" stroke="#000000" points="1483.2108,-14.5469 1473.7477,-19.3114 1484.1165,-21.488 1483.2108,-14.5469"/>
<text text-anchor="middle" x="2084.0685" y="-20.7375" font-family="Times,serif" font-size="14.00" fill="#000000">{c0, c1, c2}</text>
</g>
<!-- 2&#45;&gt;2 -->
<g id="edge62" class="edge">
<title>2&#45;&gt;2</title>
<path fill="none" stroke="#000000" d="M1473.7934,-29.6669C1615.7856,-50.3017 2117.5685,-48.5586 2117.5685,-24.4375 2117.5685,-.8582 1638.0735,1.3371 1483.896,-17.8516"/>
<polygon fill="#000000" stroke="#000000" points="1483.2387,-14.4083 1473.7934,-19.2081 1484.1703,-21.3461 1483.2387,-14.4083"/>
<text text-anchor="middle" x="2151.0685" y="-20.7375" font-family="Times,serif" font-size="14.00" fill="#000000">{c0, c1, c3}</text>
</g>
<!-- 2&#45;&gt;2 -->
<g id="edge63" class="edge">
<title>2&#45;&gt;2</title>
<path fill="none" stroke="#000000" d="M1473.508,-29.7163C1624.4335,-52.3104 2184.5685,-50.5508 2184.5685,-24.4375 2184.5685,1.1147 1648.2433,3.3485 1483.7927,-17.7362"/>
<polygon fill="#000000" stroke="#000000" points="1482.9342,-14.3216 1473.508,-19.1588 1483.8933,-21.2555 1482.9342,-14.3216"/>
<text text-anchor="middle" x="2198.0685" y="-20.7375" font-family="Times,serif" font-size="14.00" fill="#000000">{c1}</text>
</g>
<!-- 2&#45;&gt;2 -->
<g id="edge64" class="edge">
<title>2&#45;&gt;2</title>
<path fill="none" stroke="#000000" d="M1473.4353,-29.8644C1629.5286,-54.3129 2211.5685,-52.5039 2211.5685,-24.4375 2211.5685,3.0533 1653.1565,5.3526 1483.5674,-17.5396"/>
<polygon fill="#000000" stroke="#000000" points="1482.8287,-14.1101 1473.4353,-19.0106 1483.8345,-21.0374 1482.8287,-14.1101"/>
<text text-anchor="middle" x="2218.5685" y="-20.7375" font-family="Times,serif" font-size="14.00" fill="#000000">{}</text>
</g>
<!-- 2&#45;&gt;2 -->
<g id="edge65" class="edge">
<title>2&#45;&gt;2</title>
<path fill="none" stroke="#000000" d="M1473.6542,-30.0625C1634.549,-56.3125 2229.5685,-54.4375 2229.5685,-24.4375 2229.5685,4.9765 1657.5649,7.3535 1483.5708,-17.3066"/>
<polygon fill="#000000" stroke="#000000" points="1483.0153,-13.8507 1473.6542,-18.8125 1484.0663,-20.7714 1483.0153,-13.8507"/>
<text text-anchor="middle" x="2243.0685" y="-20.7375" font-family="Times,serif" font-size="14.00" fill="#000000">{c3}</text>
</g>
<!-- 3&#45;&gt;2 -->
<g id="edge91" class="edge">
<title>3&#45;&gt;2</title>
<path fill="none" stroke="#000000" d="M1005.9764,-184.4453C1004.2815,-173.9489 1000.784,-160.9459 993.5685,-151.4375 984.1689,-139.051 971.2296,-146.9684 963.5685,-133.4375 955.6853,-119.5143 953.2174,-109.6381 963.5685,-97.4375 995.3337,-59.9964 1026.0814,-95.2429 1072.5685,-79.4375 1085.9347,-74.893 1086.992,-68.3088 1100.5685,-64.4375 1221.3428,-29.9989 1259.3615,-70.7786 1382.5685,-46.4375 1393.2627,-44.3247 1404.616,-40.9118 1414.7911,-37.3979"/>
<polygon fill="#000000" stroke="#000000" points="1416.2856,-40.5797 1424.5053,-33.8949 1413.9109,-33.9947 1416.2856,-40.5797"/>
<text text-anchor="middle" x="987.0685" y="-111.7375" font-family="Times,serif" font-size="14.00" fill="#000000">{c0, c1}</text>
</g>
<!-- 3&#45;&gt;2 -->
<g id="edge92" class="edge">
<title>3&#45;&gt;2</title>
<path fill="none" stroke="#000000" d="M1009.585,-184.3239C1013.0993,-161.1465 1022.4481,-121.1669 1046.5685,-97.4375 1063.7035,-80.5802 1075.5772,-89.1411 1097.5685,-79.4375 1110.4847,-73.7383 1112.004,-68.3508 1125.5685,-64.4375 1235.5838,-32.6988 1270.3068,-68.977 1382.5685,-46.4375 1393.2561,-44.2917 1404.6075,-40.8693 1414.7829,-37.357"/>
<polygon fill="#000000" stroke="#000000" points="1416.2753,-40.5397 1424.4981,-33.8587 1413.9037,-33.9536 1416.2753,-40.5397"/>
<text text-anchor="middle" x="1070.0685" y="-111.7375" font-family="Times,serif" font-size="14.00" fill="#000000">{c1, c3}</text>
</g>
<!-- 3&#45;&gt;2 -->
<g id="edge93" class="edge">
<title>3&#45;&gt;2</title>
<path fill="none" stroke="#000000" d="M1025.8267,-188.7191C1043.5661,-175.1765 1071.0467,-153.6242 1093.5685,-133.4375 1110.4181,-118.3349 1111.7334,-111.3627 1129.5685,-97.4375 1152.0378,-79.894 1157.469,-73.284 1184.5685,-64.4375 1268.5688,-37.0159 1296.1195,-64.7288 1382.5685,-46.4375 1393.1459,-44.1995 1404.3923,-40.7836 1414.5042,-37.3061"/>
<polygon fill="#000000" stroke="#000000" points="1415.9334,-40.5122 1424.1711,-33.8495 1413.5765,-33.9209 1415.9334,-40.5122"/>
<text text-anchor="middle" x="1153.0685" y="-111.7375" font-family="Times,serif" font-size="14.00" fill="#000000">{c0, c3}</text>
</g>
<!-- 3&#45;&gt;2 -->
<g id="edge94" class="edge">
<title>3&#45;&gt;2</title>
<path fill="none" stroke="#000000" d="M1032.8619,-195.5643C1067.3,-185.4642 1129.9811,-164.3956 1176.5685,-133.4375 1213.2169,-109.084 1207.8378,-83.3498 1247.5685,-64.4375 1302.2233,-38.4212 1323.624,-60.2051 1382.5685,-46.4375 1393.0967,-43.9785 1404.3288,-40.4982 1414.4427,-37.0298"/>
<polygon fill="#000000" stroke="#000000" points="1415.8586,-40.2414 1424.1163,-33.6036 1413.5216,-33.643 1415.8586,-40.2414"/>
<text text-anchor="middle" x="1224.0685" y="-111.7375" font-family="Times,serif" font-size="14.00" fill="#000000">{c0}</text>
</g>
<!-- 3&#45;&gt;2 -->
<g id="edge95" class="edge">
<title>3&#45;&gt;2</title>
<path fill="none" stroke="#000000" d="M1033.2368,-196.3223C1060.8899,-189.5879 1106.1047,-178.1525 1144.5685,-166.4375 1187.3263,-153.4147 1201.6954,-157.1748 1239.5685,-133.4375 1258.7413,-121.4208 1256.8927,-110.213 1275.5685,-97.4375 1305.626,-76.8762 1317.066,-78.7135 1350.5685,-64.4375 1371.9742,-55.3162 1396.168,-45.3387 1415.0385,-37.6304"/>
<polygon fill="#000000" stroke="#000000" points="1416.4395,-40.8389 1424.3783,-33.8228 1413.7969,-34.3569 1416.4395,-40.8389"/>
<text text-anchor="middle" x="1309.0685" y="-111.7375" font-family="Times,serif" font-size="14.00" fill="#000000">{c0, c1, c3}</text>
</g>
<!-- 3&#45;&gt;2 -->
<g id="edge96" class="edge">
<title>3&#45;&gt;2</title>
<path fill="none" stroke="#000000" d="M1034.2877,-199.0345C1103.8662,-189.8447 1288.9685,-163.2034 1342.5685,-133.4375 1345.1494,-132.0043 1395.8809,-78.8362 1425.8668,-47.2974"/>
<polygon fill="#000000" stroke="#000000" points="1428.6498,-49.4497 1433.0014,-39.7897 1423.5756,-44.6276 1428.6498,-49.4497"/>
<text text-anchor="middle" x="1392.0685" y="-111.7375" font-family="Times,serif" font-size="14.00" fill="#000000">{c1}</text>
</g>
<!-- 3&#45;&gt;2 -->
<g id="edge97" class="edge">
<title>3&#45;&gt;2</title>
<path fill="none" stroke="#000000" d="M1034.7309,-201.3658C1115.2138,-197.6473 1350.2562,-182.7052 1405.5685,-133.4375 1428.8896,-112.665 1439.3514,-77.4398 1443.9858,-52.6674"/>
<polygon fill="#000000" stroke="#000000" points="1447.4448,-53.2024 1445.6357,-42.7632 1440.54,-52.0521 1447.4448,-53.2024"/>
<text text-anchor="middle" x="1444.0685" y="-111.7375" font-family="Times,serif" font-size="14.00" fill="#000000">{c3}</text>
</g>
<!-- 3&#45;&gt;3 -->
<g id="edge87" class="edge">
<title>3&#45;&gt;3</title>
<path fill="none" stroke="#000000" d="M1032.101,-210.1895C1043.0763,-210.9277 1052.5685,-208.3438 1052.5685,-202.4375 1052.5685,-198.4693 1048.2836,-196.0007 1042.1428,-195.0319"/>
<polygon fill="#000000" stroke="#000000" points="1042.2157,-191.5324 1032.101,-194.6856 1041.9743,-198.5283 1042.2157,-191.5324"/>
<text text-anchor="middle" x="1059.5685" y="-198.7375" font-family="Times,serif" font-size="14.00" fill="#000000">{}</text>
</g>
<!-- 4 -->
<g id="node6" class="node">
<title>4</title>
<ellipse fill="none" stroke="#000000" cx="644.5685" cy="-115.4375" rx="27" ry="18"/>
<text text-anchor="middle" x="644.5685" y="-111.7375" font-family="Times,serif" font-size="14.00" fill="#000000">4</text>
</g>
<!-- 3&#45;&gt;4 -->
<g id="edge82" class="edge">
<title>3&#45;&gt;4</title>
<path fill="none" stroke="#000000" d="M980.219,-201.9153C861.5972,-199.52 396.6291,-188.7319 375.5685,-166.4375 342.8848,-131.8392 525.9452,-120.1621 607.2136,-116.7174"/>
<polygon fill="#000000" stroke="#000000" points="607.6648,-120.2021 617.5156,-116.3018 607.3826,-113.2078 607.6648,-120.2021"/>
<text text-anchor="middle" x="409.0685" y="-155.2375" font-family="Times,serif" font-size="14.00" fill="#000000">{c0, c1, c2}</text>
</g>
<!-- 3&#45;&gt;4 -->
<g id="edge83" class="edge">
<title>3&#45;&gt;4</title>
<path fill="none" stroke="#000000" d="M980.5809,-201.6585C873.4796,-198.4385 483.3488,-185.4379 465.5685,-166.4375 461.0133,-161.5698 461.3447,-156.5954 465.5685,-151.4375 483.1195,-130.0052 560.1428,-121.0575 607.2491,-117.5372"/>
<polygon fill="#000000" stroke="#000000" points="607.6536,-121.0176 617.3851,-116.8286 607.1653,-114.0346 607.6536,-121.0176"/>
<text text-anchor="middle" x="499.0685" y="-155.2375" font-family="Times,serif" font-size="14.00" fill="#000000">{c1, c2, c3}</text>
</g>
<!-- 3&#45;&gt;4 -->
<g id="edge84" class="edge">
<title>3&#45;&gt;4</title>
<path fill="none" stroke="#000000" d="M980.3025,-201.2778C884.7541,-197.0838 570.0556,-182.1243 555.5685,-166.4375 536.133,-145.3926 576.2625,-130.6586 608.7745,-122.6138"/>
<polygon fill="#000000" stroke="#000000" points="609.6033,-126.0145 618.5455,-120.3323 608.0116,-119.1979 609.6033,-126.0145"/>
<text text-anchor="middle" x="599.5685" y="-155.2375" font-family="Times,serif" font-size="14.00" fill="#000000">{c0, c1, c2, c3}</text>
</g>
<!-- 3&#45;&gt;4 -->
<g id="edge85" class="edge">
<title>3&#45;&gt;4</title>
<path fill="none" stroke="#000000" d="M980.3892,-201.1347C904.0635,-197.2601 691.6817,-184.9162 666.5685,-166.4375 658.8939,-160.7904 653.8662,-151.9045 650.5855,-143.1213"/>
<polygon fill="#000000" stroke="#000000" points="653.8834,-141.9392 647.5757,-133.4266 647.1981,-144.0147 653.8834,-141.9392"/>
<text text-anchor="middle" x="690.0685" y="-155.2375" font-family="Times,serif" font-size="14.00" fill="#000000">{c0, c2}</text>
</g>
<!-- 3&#45;&gt;4 -->
<g id="edge86" class="edge">
<title>3&#45;&gt;4</title>
<path fill="none" stroke="#000000" d="M980.7272,-200.3914C921.4437,-195.6274 781.0713,-182.9342 736.5685,-166.4375 725.1254,-162.1957 724.1019,-157.6007 713.5685,-151.4375 701.4218,-144.3304 687.7371,-137.0472 675.7768,-130.9077"/>
<polygon fill="#000000" stroke="#000000" points="677.1175,-127.6631 666.6167,-126.2544 673.9471,-133.904 677.1175,-127.6631"/>
<text text-anchor="middle" x="760.0685" y="-155.2375" font-family="Times,serif" font-size="14.00" fill="#000000">{c1, c2}</text>
</g>
<!-- 3&#45;&gt;4 -->
<g id="edge88" class="edge">
<title>3&#45;&gt;4</title>
<path fill="none" stroke="#000000" d="M980.6254,-201.0229C941.1596,-198.2032 865.8859,-189.9622 806.5685,-166.4375 795.2241,-161.9384 794.7333,-156.3655 783.5685,-151.4375 750.2582,-136.735 709.7094,-127.0905 681.0257,-121.5184"/>
<polygon fill="#000000" stroke="#000000" points="681.5034,-118.0471 671.0302,-119.6479 680.2158,-124.9276 681.5034,-118.0471"/>
<text text-anchor="middle" x="830.0685" y="-155.2375" font-family="Times,serif" font-size="14.00" fill="#000000">{c2, c3}</text>
</g>
<!-- 3&#45;&gt;4 -->
<g id="edge89" class="edge">
<title>3&#45;&gt;4</title>
<path fill="none" stroke="#000000" d="M981.3942,-197.7354C954.3476,-192.3103 911.3022,-182.0757 876.5685,-166.4375 865.4403,-161.4273 864.9278,-155.8989 853.5685,-151.4375 796.2267,-128.9167 724.5596,-120.4561 681.7887,-117.297"/>
<polygon fill="#000000" stroke="#000000" points="681.7778,-113.7883 671.5636,-116.6027 681.3035,-120.7722 681.7778,-113.7883"/>
<text text-anchor="middle" x="890.0685" y="-155.2375" font-family="Times,serif" font-size="14.00" fill="#000000">{c2}</text>
</g>
<!-- 3&#45;&gt;4 -->
<g id="edge90" class="edge">
<title>3&#45;&gt;4</title>
<path fill="none" stroke="#000000" d="M984.0519,-193.1555C967.6253,-186.3914 945.3602,-176.6563 926.5685,-166.4375 915.8471,-160.6073 914.9988,-155.7139 903.5685,-151.4375 863.676,-136.5126 743.1121,-124.1255 681.5719,-118.5746"/>
<polygon fill="#000000" stroke="#000000" points="681.7816,-115.0795 671.5111,-117.6806 681.162,-122.052 681.7816,-115.0795"/>
<text text-anchor="middle" x="960.0685" y="-155.2375" font-family="Times,serif" font-size="14.00" fill="#000000">{c0, c2, c3}</text>
</g>
<!-- 4&#45;&gt;2 -->
<g id="edge43" class="edge">
<title>4&#45;&gt;2</title>
<path fill="none" stroke="#000000" d="M639.33,-97.4601C637.316,-86.4279 637.1976,-72.8488 645.5685,-64.4375 674.4594,-35.4072 1342.2402,-53.5841 1382.5685,-46.4375 1393.3022,-44.5354 1404.6667,-41.1825 1414.8399,-37.6589"/>
<polygon fill="#000000" stroke="#000000" points="1416.3484,-40.8346 1424.5486,-34.1258 1413.9545,-34.2566 1416.3484,-40.8346"/>
<text text-anchor="middle" x="669.0685" y="-68.2375" font-family="Times,serif" font-size="14.00" fill="#000000">{c1, c2}</text>
</g>
<!-- 4&#45;&gt;2 -->
<g id="edge44" class="edge">
<title>4&#45;&gt;2</title>
<path fill="none" stroke="#000000" d="M662.8989,-101.8622C682.9149,-87.1009 712.5481,-65.455 715.5685,-64.4375 785.8268,-40.7685 1309.5844,-59.4674 1382.5685,-46.4375 1393.2997,-44.5217 1404.6636,-41.1648 1414.8369,-37.6419"/>
<polygon fill="#000000" stroke="#000000" points="1416.3444,-40.8179 1424.5459,-34.1107 1413.9518,-34.2395 1416.3444,-40.8179"/>
<text text-anchor="middle" x="739.0685" y="-68.2375" font-family="Times,serif" font-size="14.00" fill="#000000">{c0, c1}</text>
</g>
<!-- 4&#45;&gt;2 -->
<g id="edge45" class="edge">
<title>4&#45;&gt;2</title>
<path fill="none" stroke="#000000" d="M670.6603,-109.7229C695.1002,-103.8535 732.296,-93.5787 762.5685,-79.4375 773.6256,-74.2724 773.9241,-68.0909 785.5685,-64.4375 912.2086,-24.7044 1251.9445,-69.971 1382.5685,-46.4375 1393.2967,-44.5047 1404.6597,-41.143 1414.8332,-37.6208"/>
<polygon fill="#000000" stroke="#000000" points="1416.3395,-40.7974 1424.5425,-34.0921 1413.9485,-34.2184 1416.3395,-40.7974"/>
<text text-anchor="middle" x="799.0685" y="-68.2375" font-family="Times,serif" font-size="14.00" fill="#000000">{c2}</text>
</g>
<!-- 4&#45;&gt;2 -->
<g id="edge46" class="edge">
<title>4&#45;&gt;2</title>
<path fill="none" stroke="#000000" d="M671.3675,-112.758C705.3011,-108.6841 765.0661,-99.2138 812.5685,-79.4375 823.8351,-74.747 823.9292,-68.1069 835.5685,-64.4375 951.5621,-27.8692 1262.904,-68.1667 1382.5685,-46.4375 1393.294,-44.4899 1404.6562,-41.1241 1414.8298,-37.6026"/>
<polygon fill="#000000" stroke="#000000" points="1416.3352,-40.7796 1424.5396,-34.0759 1413.9455,-34.2001 1416.3352,-40.7796"/>
<text text-anchor="middle" x="859.0685" y="-68.2375" font-family="Times,serif" font-size="14.00" fill="#000000">{c0, c2}</text>
</g>
<!-- 4&#45;&gt;2 -->
<g id="edge47" class="edge">
<title>4&#45;&gt;2</title>
<path fill="none" stroke="#000000" d="M671.3546,-112.8347C725.1181,-107.3747 844.2983,-94.0181 882.5685,-79.4375 893.9729,-75.0926 893.9381,-68.135 905.5685,-64.4375 1006.6583,-32.2996 1278.2458,-65.6408 1382.5685,-46.4375 1393.2893,-44.4641 1404.6502,-41.0908 1414.824,-37.5705"/>
<polygon fill="#000000" stroke="#000000" points="1416.3277,-40.7483 1424.5344,-34.0476 1413.9403,-34.168 1416.3277,-40.7483"/>
<text text-anchor="middle" x="919.0685" y="-68.2375" font-family="Times,serif" font-size="14.00" fill="#000000">{c0}</text>
</g>
<!-- 4&#45;&gt;2 -->
<g id="edge48" class="edge">
<title>4&#45;&gt;2</title>
<path fill="none" stroke="#000000" d="M671.6879,-113.6116C733.8439,-109.1759 884.899,-96.8992 932.5685,-79.4375 944.0279,-75.2398 943.9463,-68.1606 955.5685,-64.4375 1046.0142,-35.4637 1289.2028,-63.8369 1382.5685,-46.4375 1393.2849,-44.4404 1404.6445,-41.0604 1414.8186,-37.5412"/>
<polygon fill="#000000" stroke="#000000" points="1416.3207,-40.7197 1424.5296,-34.0217 1413.9354,-34.1386 1416.3207,-40.7197"/>
<text text-anchor="middle" x="989.0685" y="-68.2375" font-family="Times,serif" font-size="14.00" fill="#000000">{c0, c1, c2}</text>
</g>
<!-- 4&#45;&gt;2 -->
<g id="edge49" class="edge">
<title>4&#45;&gt;2</title>
<path fill="none" stroke="#000000" d="M671.538,-114.5423C746.7473,-111.7825 957.5419,-102.1787 1022.5685,-79.4375 1034.0884,-75.4088 1033.9673,-68.2259 1045.5685,-64.4375 1116.8594,-41.1576 1308.9205,-60.5908 1382.5685,-46.4375 1393.2735,-44.3803 1404.6299,-40.9831 1414.8045,-37.4667"/>
<polygon fill="#000000" stroke="#000000" points="1416.3026,-40.6469 1424.5172,-33.9558 1413.9229,-34.0638 1416.3026,-40.6469"/>
<text text-anchor="middle" x="1059.0685" y="-68.2375" font-family="Times,serif" font-size="14.00" fill="#000000">{c1}</text>
</g>
<!-- 4&#45;&gt;4 -->
<g id="edge38" class="edge">
<title>4&#45;&gt;4</title>
<path fill="none" stroke="#000000" d="M669.101,-123.1895C680.0763,-123.9277 689.5685,-121.3438 689.5685,-115.4375 689.5685,-111.4693 685.2836,-109.0007 679.1428,-108.0319"/>
<polygon fill="#000000" stroke="#000000" points="679.2157,-104.5324 669.101,-107.6856 678.9743,-111.5283 679.2157,-104.5324"/>
<text text-anchor="middle" x="696.5685" y="-111.7375" font-family="Times,serif" font-size="14.00" fill="#000000">{}</text>
</g>
<!-- 5 -->
<g id="node7" class="node">
<title>5</title>
<ellipse fill="none" stroke="#000000" cx="303.5685" cy="-24.4375" rx="18" ry="18"/>
<ellipse fill="none" stroke="#000000" cx="303.5685" cy="-24.4375" rx="22" ry="22"/>
<text text-anchor="middle" x="303.5685" y="-20.7375" font-family="Times,serif" font-size="14.00" fill="#000000">5</text>
</g>
<!-- 4&#45;&gt;5 -->
<g id="edge34" class="edge">
<title>4&#45;&gt;5</title>
<path fill="none" stroke="#000000" d="M617.2754,-114.9366C497.8064,-112.6137 25.9267,-102.0309 4.5685,-79.4375 -33.0279,-39.6669 186.5003,-28.2384 271.2422,-25.3319"/>
<polygon fill="#000000" stroke="#000000" points="271.4638,-28.8267 281.345,-25.0042 271.2368,-21.8304 271.4638,-28.8267"/>
<text text-anchor="middle" x="28.0685" y="-68.2375" font-family="Times,serif" font-size="14.00" fill="#000000">{c1, c3}</text>
</g>
<!-- 4&#45;&gt;5 -->
<g id="edge35" class="edge">
<title>4&#45;&gt;5</title>
<path fill="none" stroke="#000000" d="M617.3259,-114.7428C506.3526,-111.7829 93.3594,-99.4527 74.5685,-79.4375 70.0054,-74.5772 70.2791,-69.541 74.5685,-64.4375 99.2682,-35.0495 213.7189,-27.25 270.8888,-25.1822"/>
<polygon fill="#000000" stroke="#000000" points="271.3075,-28.6706 281.1892,-24.8496 271.0815,-21.6743 271.3075,-28.6706"/>
<text text-anchor="middle" x="108.0685" y="-68.2375" font-family="Times,serif" font-size="14.00" fill="#000000">{c1, c2, c3}</text>
</g>
<!-- 4&#45;&gt;5 -->
<g id="edge36" class="edge">
<title>4&#45;&gt;5</title>
<path fill="none" stroke="#000000" d="M617.3459,-114.4102C518.0166,-110.5321 180.0747,-96.1503 164.5685,-79.4375 131.6098,-43.9143 220.6746,-30.9513 271.2957,-26.5367"/>
<polygon fill="#000000" stroke="#000000" points="271.7693,-30.01 281.4564,-25.7193 271.208,-23.0325 271.7693,-30.01"/>
<text text-anchor="middle" x="208.5685" y="-68.2375" font-family="Times,serif" font-size="14.00" fill="#000000">{c0, c1, c2, c3}</text>
</g>
<!-- 4&#45;&gt;5 -->
<g id="edge37" class="edge">
<title>4&#45;&gt;5</title>
<path fill="none" stroke="#000000" d="M617.3573,-114.8446C535.9436,-112.7922 298.4629,-104.6742 275.5685,-79.4375 267.0779,-70.0782 272.3531,-57.6693 280.5125,-47.0071"/>
<polygon fill="#000000" stroke="#000000" points="283.2888,-49.146 287.134,-39.2736 277.9715,-44.5933 283.2888,-49.146"/>
<text text-anchor="middle" x="299.0685" y="-68.2375" font-family="Times,serif" font-size="14.00" fill="#000000">{c0, c3}</text>
</g>
<!-- 4&#45;&gt;5 -->
<g id="edge39" class="edge">
<title>4&#45;&gt;5</title>
<path fill="none" stroke="#000000" d="M617.3524,-114.8334C552.6573,-112.9779 391.6431,-105.7707 345.5685,-79.4375 334.6772,-73.2128 325.6833,-62.9162 318.851,-52.9048"/>
<polygon fill="#000000" stroke="#000000" points="321.7091,-50.8757 313.4098,-44.2899 315.7907,-54.6138 321.7091,-50.8757"/>
<text text-anchor="middle" x="379.0685" y="-68.2375" font-family="Times,serif" font-size="14.00" fill="#000000">{c0, c1, c3}</text>
</g>
<!-- 4&#45;&gt;5 -->
<g id="edge40" class="edge">
<title>4&#45;&gt;5</title>
<path fill="none" stroke="#000000" d="M617.5734,-114.2723C576.8273,-111.7519 497.7698,-103.8669 435.5685,-79.4375 424.2092,-74.9762 423.4778,-69.908 412.5685,-64.4375 387.2546,-51.7438 356.8987,-40.9361 334.6578,-33.767"/>
<polygon fill="#000000" stroke="#000000" points="335.6471,-30.4091 325.0573,-30.7355 333.5392,-37.0843 335.6471,-30.4091"/>
<text text-anchor="middle" x="449.0685" y="-68.2375" font-family="Times,serif" font-size="14.00" fill="#000000">{c3}</text>
</g>
<!-- 4&#45;&gt;5 -->
<g id="edge41" class="edge">
<title>4&#45;&gt;5</title>
<path fill="none" stroke="#000000" d="M617.7953,-112.3267C585.4559,-107.9099 529.88,-98.1868 485.5685,-79.4375 474.3292,-74.6819 473.7504,-69.3265 462.5685,-64.4375 420.4436,-46.0194 368.1802,-34.9194 335.3409,-29.2349"/>
<polygon fill="#000000" stroke="#000000" points="335.8382,-25.7695 325.3987,-27.5771 334.6869,-32.6742 335.8382,-25.7695"/>
<text text-anchor="middle" x="509.0685" y="-68.2375" font-family="Times,serif" font-size="14.00" fill="#000000">{c2, c3}</text>
</g>
<!-- 4&#45;&gt;5 -->
<g id="edge42" class="edge">
<title>4&#45;&gt;5</title>
<path fill="none" stroke="#000000" d="M620.205,-107.0346C601.9915,-100.4083 576.6971,-90.4679 555.5685,-79.4375 544.75,-73.7896 543.9226,-68.9122 532.5685,-64.4375 465.8267,-38.1342 381.3659,-29.0735 335.9684,-25.9919"/>
<polygon fill="#000000" stroke="#000000" points="336.0308,-22.4891 325.8324,-25.3603 335.5953,-29.4755 336.0308,-22.4891"/>
<text text-anchor="middle" x="589.0685" y="-68.2375" font-family="Times,serif" font-size="14.00" fill="#000000">{c0, c2, c3}</text>
</g>
<!-- 5&#45;&gt;5 -->
<g id="edge18" class="edge">
<title>5&#45;&gt;5</title>
<path fill="none" stroke="#000000" d="M325.7808,-25.9196C335.3637,-26.0409 343.5685,-25.5469 343.5685,-24.4375 343.5685,-23.7615 340.5218,-23.314 335.973,-23.095"/>
<polygon fill="#000000" stroke="#000000" points="335.8278,-19.5927 325.7808,-22.9555 335.732,-26.5921 335.8278,-19.5927"/>
<text text-anchor="middle" x="387.5685" y="-20.7375" font-family="Times,serif" font-size="14.00" fill="#000000">{c0, c1, c2, c3}</text>
</g>
<!-- 5&#45;&gt;5 -->
<g id="edge19" class="edge">
<title>5&#45;&gt;5</title>
<path fill="none" stroke="#000000" d="M325.5871,-26.4212C363.5751,-28.2628 431.5685,-27.6016 431.5685,-24.4375 431.5685,-21.5454 374.7594,-20.7443 335.9835,-22.0345"/>
<polygon fill="#000000" stroke="#000000" points="335.4379,-18.5535 325.5871,-22.4538 335.7201,-25.5478 335.4379,-18.5535"/>
<text text-anchor="middle" x="455.0685" y="-20.7375" font-family="Times,serif" font-size="14.00" fill="#000000">{c0, c2}</text>
</g>
<!-- 5&#45;&gt;5 -->
<g id="edge20" class="edge">
<title>5&#45;&gt;5</title>
<path fill="none" stroke="#000000" d="M325.5593,-26.9531C374.9579,-30.2682 478.5685,-29.4297 478.5685,-24.4375 478.5685,-19.7671 387.8835,-18.7321 335.7443,-21.3327"/>
<polygon fill="#000000" stroke="#000000" points="335.3404,-17.8501 325.5593,-21.9219 335.7448,-24.8384 335.3404,-17.8501"/>
<text text-anchor="middle" x="512.0685" y="-20.7375" font-family="Times,serif" font-size="14.00" fill="#000000">{c0, c1, c2}</text>
</g>
<!-- 5&#45;&gt;5 -->
<g id="edge21" class="edge">
<title>5&#45;&gt;5</title>
<path fill="none" stroke="#000000" d="M325.4797,-27.2702C388.5682,-32.288 545.5685,-31.3438 545.5685,-24.4375 545.5685,-17.882 404.1087,-16.6983 335.7845,-20.8866"/>
<polygon fill="#000000" stroke="#000000" points="335.2121,-17.4179 325.4797,-21.6049 335.6989,-24.4009 335.2121,-17.4179"/>
<text text-anchor="middle" x="559.0685" y="-20.7375" font-family="Times,serif" font-size="14.00" fill="#000000">{c0}</text>
</g>
<!-- 5&#45;&gt;5 -->
<g id="edge22" class="edge">
<title>5&#45;&gt;5</title>
<path fill="none" stroke="#000000" d="M325.383,-27.6747C394.406,-34.2861 572.5685,-33.207 572.5685,-24.4375 572.5685,-16.0791 410.7173,-14.707 335.7792,-20.3213"/>
<polygon fill="#000000" stroke="#000000" points="335.0526,-16.8702 325.383,-21.2003 335.6424,-23.8453 335.0526,-16.8702"/>
<text text-anchor="middle" x="579.5685" y="-20.7375" font-family="Times,serif" font-size="14.00" fill="#000000">{}</text>
</g>
<!-- 5&#45;&gt;5 -->
<g id="edge23" class="edge">
<title>5&#45;&gt;5</title>
<path fill="none" stroke="#000000" d="M325.362,-28.0537C398.9807,-36.2835 590.5685,-35.0781 590.5685,-24.4375 590.5685,-14.2541 415.0915,-12.7125 335.4808,-19.8127"/>
<polygon fill="#000000" stroke="#000000" points="334.9655,-16.3467 325.362,-20.8214 335.6599,-23.3122 334.9655,-16.3467"/>
<text text-anchor="middle" x="604.0685" y="-20.7375" font-family="Times,serif" font-size="14.00" fill="#000000">{c1}</text>
</g>
<!-- 5&#45;&gt;5 -->
<g id="edge24" class="edge">
<title>5&#45;&gt;5</title>
<path fill="none" stroke="#000000" d="M325.2786,-28.3351C404.8601,-38.2875 617.5685,-36.9883 617.5685,-24.4375 617.5685,-12.3893 421.5524,-10.7096 335.4557,-19.3986"/>
<polygon fill="#000000" stroke="#000000" points="334.8262,-15.9471 325.2786,-20.5399 335.6064,-22.9035 334.8262,-15.9471"/>
<text text-anchor="middle" x="651.0685" y="-20.7375" font-family="Times,serif" font-size="14.00" fill="#000000">{c1, c2, c3}</text>
</g>
<!-- 5&#45;&gt;5 -->
<g id="edge25" class="edge">
<title>5&#45;&gt;5</title>
<path fill="none" stroke="#000000" d="M325.4732,-28.4775C416.5253,-40.2998 684.5685,-38.9531 684.5685,-24.4375 684.5685,-10.418 434.5354,-8.6827 335.4121,-19.2314"/>
<polygon fill="#000000" stroke="#000000" points="334.9972,-15.756 325.4732,-20.3975 335.8129,-22.7083 334.9972,-15.756"/>
<text text-anchor="middle" x="708.0685" y="-20.7375" font-family="Times,serif" font-size="14.00" fill="#000000">{c0, c1}</text>
</g>
<!-- 5&#45;&gt;5 -->
<g id="edge26" class="edge">
<title>5&#45;&gt;5</title>
<path fill="none" stroke="#000000" d="M325.4012,-28.6356C424.5598,-42.3076 731.5685,-40.9082 731.5685,-24.4375 731.5685,-8.4976 444.0286,-6.6733 335.6182,-18.9646"/>
<polygon fill="#000000" stroke="#000000" points="334.8909,-15.5281 325.4012,-20.2394 335.7576,-22.4742 334.8909,-15.5281"/>
<text text-anchor="middle" x="755.0685" y="-20.7375" font-family="Times,serif" font-size="14.00" fill="#000000">{c0, c3}</text>
</g>
<!-- 5&#45;&gt;5 -->
<g id="edge27" class="edge">
<title>5&#45;&gt;5</title>
<path fill="none" stroke="#000000" d="M325.2248,-28.7588C432.1115,-44.3154 778.5685,-42.875 778.5685,-24.4375 778.5685,-6.5402 452.1144,-4.6586 335.2212,-18.7927"/>
<polygon fill="#000000" stroke="#000000" points="334.6788,-15.3339 325.2248,-20.1162 335.5977,-22.2733 334.6788,-15.3339"/>
<text text-anchor="middle" x="812.0685" y="-20.7375" font-family="Times,serif" font-size="14.00" fill="#000000">{c0, c1, c3}</text>
</g>
<!-- 5&#45;&gt;5 -->
<g id="edge28" class="edge">
<title>5&#45;&gt;5</title>
<path fill="none" stroke="#000000" d="M325.3345,-28.8624C442.1913,-46.3226 845.5685,-44.8477 845.5685,-24.4375 845.5685,-4.5854 463.9494,-2.6472 335.549,-18.6228"/>
<polygon fill="#000000" stroke="#000000" points="334.7713,-15.1963 325.3345,-20.0127 335.7151,-22.1324 334.7713,-15.1963"/>
<text text-anchor="middle" x="879.0685" y="-20.7375" font-family="Times,serif" font-size="14.00" fill="#000000">{c0, c2, c3}</text>
</g>
<!-- 5&#45;&gt;5 -->
<g id="edge29" class="edge">
<title>5&#45;&gt;5</title>
<path fill="none" stroke="#000000" d="M325.4399,-28.9622C451.8778,-48.3285 912.5685,-46.8203 912.5685,-24.4375 912.5685,-2.623 474.9752,-.6365 335.7044,-18.4781"/>
<polygon fill="#000000" stroke="#000000" points="334.8591,-15.0621 325.4399,-19.9129 335.8282,-21.9947 334.8591,-15.0621"/>
<text text-anchor="middle" x="936.0685" y="-20.7375" font-family="Times,serif" font-size="14.00" fill="#000000">{c1, c2}</text>
</g>
<!-- 5&#45;&gt;5 -->
<g id="edge30" class="edge">
<title>5&#45;&gt;5</title>
<path fill="none" stroke="#000000" d="M325.415,-29.0744C459.0504,-50.3328 959.5685,-48.7871 959.5685,-24.4375 959.5685,-.6586 482.2372,1.3727 335.4047,-18.3435"/>
<polygon fill="#000000" stroke="#000000" points="334.8051,-14.8938 325.415,-19.8006 335.8155,-21.8205 334.8051,-14.8938"/>
<text text-anchor="middle" x="973.0685" y="-20.7375" font-family="Times,serif" font-size="14.00" fill="#000000">{c3}</text>
</g>
<!-- 5&#45;&gt;5 -->
<g id="edge31" class="edge">
<title>5&#45;&gt;5</title>
<path fill="none" stroke="#000000" d="M325.4185,-29.2155C464.38,-52.3349 986.5685,-50.7422 986.5685,-24.4375 986.5685,1.2763 487.5742,3.3758 335.3519,-18.1391"/>
<polygon fill="#000000" stroke="#000000" points="334.7738,-14.6867 325.4185,-19.6595 335.833,-21.6061 334.7738,-14.6867"/>
<text text-anchor="middle" x="1000.0685" y="-20.7375" font-family="Times,serif" font-size="14.00" fill="#000000">{c2}</text>
</g>
<!-- 5&#45;&gt;5 -->
<g id="edge32" class="edge">
<title>5&#45;&gt;5</title>
<path fill="none" stroke="#000000" d="M325.3093,-29.3243C469.4682,-54.3379 1013.5685,-52.709 1013.5685,-24.4375 1013.5685,3.199 493.6357,5.3763 335.6177,-17.9056"/>
<polygon fill="#000000" stroke="#000000" points="334.6327,-14.5184 325.3093,-19.5507 335.7359,-21.4309 334.6327,-14.5184"/>
<text text-anchor="middle" x="1037.0685" y="-20.7375" font-family="Times,serif" font-size="14.00" fill="#000000">{c1, c3}</text>
</g>
<!-- 5&#45;&gt;5 -->
<g id="edge33" class="edge">
<title>5&#45;&gt;5</title>
<path fill="none" stroke="#000000" d="M325.2624,-29.4004C476.4417,-56.3418 1060.5685,-54.6875 1060.5685,-24.4375 1060.5685,5.1626 501.2713,7.3825 335.5958,-17.7778"/>
<polygon fill="#000000" stroke="#000000" points="334.5631,-14.4004 325.2624,-19.4746 335.6974,-21.3079 334.5631,-14.4004"/>
<text text-anchor="middle" x="1084.0685" y="-20.7375" font-family="Times,serif" font-size="14.00" fill="#000000">{c2, c3}</text>
</g>
</g>
</svg>
