<?xml version="1.0" encoding="UTF-8" standalone="no"?>
<!DOCTYPE svg PUBLIC "-//W3C//DTD SVG 1.1//EN"
 "http://www.w3.org/Graphics/SVG/1.1/DTD/svg11.dtd">
<!-- Generated by graphviz version 2.43.0 (0)
 -->
<!-- Title: %3 Pages: 1 -->
<svg width="1245pt" height="386pt"
 viewBox="0.00 0.00 1244.52 386.00" xmlns="http://www.w3.org/2000/svg" xmlns:xlink="http://www.w3.org/1999/xlink">
<g id="graph0" class="graph" transform="scale(1 1) rotate(0) translate(4 382)">
<title>%3</title>
<polygon fill="white" stroke="transparent" points="-4,4 -4,-382 1240.52,-382 1240.52,4 -4,4"/>
<!-- fake -->
<g id="node1" class="node">
<title>fake</title>
</g>
<!-- 0 -->
<g id="node2" class="node">
<title>0</title>
<ellipse fill="none" stroke="black" cx="685.52" cy="-287" rx="27" ry="18"/>
<text text-anchor="middle" x="685.52" y="-283.3" font-family="Times,serif" font-size="14.00">0</text>
</g>
<!-- fake&#45;&gt;0 -->
<g id="edge1" class="edge">
<title>fake&#45;&gt;0</title>
<path fill="none" stroke="black" stroke-width="2" d="M685.52,-341.81C685.52,-333.79 685.52,-324.05 685.52,-315.07"/>
<polygon fill="black" stroke="black" stroke-width="2" points="689.03,-315.03 685.52,-305.03 682.03,-315.03 689.03,-315.03"/>
</g>
<!-- 0&#45;&gt;0 -->
<g id="edge18" class="edge">
<title>0&#45;&gt;0</title>
<path fill="none" stroke="black" d="M710.97,-293.69C721.55,-294.15 730.52,-291.92 730.52,-287 730.52,-283.77 726.66,-281.7 721.01,-280.79"/>
<polygon fill="black" stroke="black" points="721.12,-277.29 710.97,-280.31 720.79,-284.28 721.12,-277.29"/>
<text text-anchor="middle" x="740.02" y="-283.3" font-family="Times,serif" font-size="14.00">{}</text>
</g>
<!-- 1 -->
<g id="node3" class="node">
<title>1</title>
<ellipse fill="none" stroke="black" cx="518.52" cy="-200" rx="27" ry="18"/>
<text text-anchor="middle" x="518.52" y="-196.3" font-family="Times,serif" font-size="14.00">1</text>
</g>
<!-- 0&#45;&gt;1 -->
<g id="edge19" class="edge">
<title>0&#45;&gt;1</title>
<path fill="none" stroke="black" d="M658.12,-286.46C599.33,-286.8 464.14,-283.9 435.52,-251 418.17,-231.04 453.44,-216.74 483.24,-208.67"/>
<polygon fill="black" stroke="black" points="484.22,-212.03 493.05,-206.18 482.5,-205.25 484.22,-212.03"/>
<text text-anchor="middle" x="466.02" y="-239.8" font-family="Times,serif" font-size="14.00">{c0, c1}</text>
</g>
<!-- 0&#45;&gt;1 -->
<g id="edge20" class="edge">
<title>0&#45;&gt;1</title>
<path fill="none" stroke="black" d="M658.65,-284.29C616.28,-280.97 536.95,-272.04 519.52,-251 514.31,-244.7 512.8,-236.26 512.97,-228.12"/>
<polygon fill="black" stroke="black" points="516.45,-228.43 513.93,-218.14 509.49,-227.75 516.45,-228.43"/>
<text text-anchor="middle" x="537.02" y="-239.8" font-family="Times,serif" font-size="14.00">{c0}</text>
</g>
<!-- 0&#45;&gt;1 -->
<g id="edge21" class="edge">
<title>0&#45;&gt;1</title>
<path fill="none" stroke="black" d="M659.94,-280.69C637.3,-275.31 603.87,-265.67 577.52,-251 563.88,-243.4 550.45,-232.38 539.86,-222.62"/>
<polygon fill="black" stroke="black" points="542.01,-219.84 532.36,-215.48 537.19,-224.91 542.01,-219.84"/>
<text text-anchor="middle" x="620.52" y="-239.8" font-family="Times,serif" font-size="14.00">{c0, c1, c2}</text>
</g>
<!-- 0&#45;&gt;1 -->
<g id="edge22" class="edge">
<title>0&#45;&gt;1</title>
<path fill="none" stroke="black" d="M682.08,-268.8C679.01,-257.87 673.42,-244.28 663.52,-236 633.36,-210.77 587.97,-203.16 556.03,-201.14"/>
<polygon fill="black" stroke="black" points="555.91,-197.63 545.75,-200.65 555.57,-204.62 555.91,-197.63"/>
<text text-anchor="middle" x="704.02" y="-239.8" font-family="Times,serif" font-size="14.00">{c0, c2}</text>
</g>
<!-- 2 -->
<g id="node4" class="node">
<title>2</title>
<ellipse fill="none" stroke="black" cx="672.52" cy="-22" rx="27" ry="18"/>
<text text-anchor="middle" x="672.52" y="-18.3" font-family="Times,serif" font-size="14.00">2</text>
</g>
<!-- 0&#45;&gt;2 -->
<g id="edge23" class="edge">
<title>0&#45;&gt;2</title>
<path fill="none" stroke="black" d="M708.37,-277.15C719.61,-271.49 732.1,-262.94 738.52,-251 753.14,-223.83 857.09,-423.84 730.52,-95 723.05,-75.59 708.29,-57.38 695.53,-44.14"/>
<polygon fill="black" stroke="black" points="697.86,-41.52 688.31,-36.94 692.92,-46.48 697.86,-41.52"/>
<text text-anchor="middle" x="786.02" y="-152.8" font-family="Times,serif" font-size="14.00">{c1, c2}</text>
</g>
<!-- 0&#45;&gt;2 -->
<g id="edge24" class="edge">
<title>0&#45;&gt;2</title>
<path fill="none" stroke="black" d="M711.42,-281.13C730.97,-276.32 757.45,-267.25 775.52,-251 812.38,-217.88 840,-194.56 820.52,-149 797.88,-96.02 739.61,-57.66 703.3,-37.99"/>
<polygon fill="black" stroke="black" points="704.62,-34.73 694.14,-33.16 701.36,-40.92 704.62,-34.73"/>
<text text-anchor="middle" x="842.02" y="-152.8" font-family="Times,serif" font-size="14.00">{c2}</text>
</g>
<!-- 0&#45;&gt;2 -->
<g id="edge25" class="edge">
<title>0&#45;&gt;2</title>
<path fill="none" stroke="black" d="M711.4,-281.49C735.05,-276.57 770.39,-267.14 797.52,-251 843.93,-223.39 884.19,-198.89 863.52,-149 836.4,-83.52 754.32,-48.11 707.05,-32.66"/>
<polygon fill="black" stroke="black" points="707.83,-29.24 697.25,-29.58 705.74,-35.92 707.83,-29.24"/>
<text text-anchor="middle" x="885.02" y="-152.8" font-family="Times,serif" font-size="14.00">{c1}</text>
</g>
<!-- 1&#45;&gt;1 -->
<g id="edge3" class="edge">
<title>1&#45;&gt;1</title>
<path fill="none" stroke="black" d="M543.06,-207.75C554.03,-208.49 563.52,-205.91 563.52,-200 563.52,-196.03 559.24,-193.56 553.1,-192.59"/>
<polygon fill="black" stroke="black" points="553.17,-189.09 543.06,-192.25 552.93,-196.09 553.17,-189.09"/>
<text text-anchor="middle" x="573.02" y="-196.3" font-family="Times,serif" font-size="14.00">{}</text>
</g>
<!-- 1&#45;&gt;2 -->
<g id="edge7" class="edge">
<title>1&#45;&gt;2</title>
<path fill="none" stroke="black" d="M519.38,-181.78C521.2,-159.95 526.86,-121.92 544.52,-95 570.17,-55.91 594.23,-63.92 636.52,-44 639.16,-42.76 641.86,-41.39 644.54,-39.96"/>
<polygon fill="black" stroke="black" points="646.42,-42.92 653.43,-34.98 643,-36.81 646.42,-42.92"/>
<text text-anchor="middle" x="562.02" y="-109.3" font-family="Times,serif" font-size="14.00">{c2}</text>
</g>
<!-- 1&#45;&gt;2 -->
<g id="edge8" class="edge">
<title>1&#45;&gt;2</title>
<path fill="none" stroke="black" d="M531.94,-184.22C544.36,-170.5 563.3,-149.46 579.52,-131 605.16,-101.83 634.32,-67.83 653.05,-45.89"/>
<polygon fill="black" stroke="black" points="655.86,-47.99 659.68,-38.11 650.53,-43.45 655.86,-47.99"/>
<text text-anchor="middle" x="627.02" y="-109.3" font-family="Times,serif" font-size="14.00">{c0}</text>
</g>
<!-- 1&#45;&gt;2 -->
<g id="edge9" class="edge">
<title>1&#45;&gt;2</title>
<path fill="none" stroke="black" d="M543.5,-192.85C573.22,-184.19 622.11,-165.47 648.52,-131 666.35,-107.73 671.45,-73.82 672.67,-50.23"/>
<polygon fill="black" stroke="black" points="676.17,-50.29 672.98,-40.19 669.17,-50.07 676.17,-50.29"/>
<text text-anchor="middle" x="696.02" y="-109.3" font-family="Times,serif" font-size="14.00">{c0, c2}</text>
</g>
<!-- 3 -->
<g id="node5" class="node">
<title>3</title>
<ellipse fill="none" stroke="black" cx="312.52" cy="-113" rx="27" ry="18"/>
<text text-anchor="middle" x="312.52" y="-109.3" font-family="Times,serif" font-size="14.00">3</text>
</g>
<!-- 1&#45;&gt;3 -->
<g id="edge2" class="edge">
<title>1&#45;&gt;3</title>
<path fill="none" stroke="black" d="M491.55,-198.01C418.95,-195.08 223.54,-185.26 204.52,-164 181.14,-137.87 236.24,-124.41 276.03,-118.3"/>
<polygon fill="black" stroke="black" points="276.61,-121.76 286.01,-116.87 275.61,-114.83 276.61,-121.76"/>
<text text-anchor="middle" x="247.52" y="-152.8" font-family="Times,serif" font-size="14.00">{c0, c1, c2}</text>
</g>
<!-- 1&#45;&gt;3 -->
<g id="edge4" class="edge">
<title>1&#45;&gt;3</title>
<path fill="none" stroke="black" d="M491.52,-198.48C441.23,-196.89 336.26,-190.4 313.52,-164 308.11,-157.71 306.6,-149.14 306.83,-140.87"/>
<polygon fill="black" stroke="black" points="310.33,-141.07 307.9,-130.76 303.37,-140.34 310.33,-141.07"/>
<text text-anchor="middle" x="344.02" y="-152.8" font-family="Times,serif" font-size="14.00">{c0, c1}</text>
</g>
<!-- 1&#45;&gt;3 -->
<g id="edge5" class="edge">
<title>1&#45;&gt;3</title>
<path fill="none" stroke="black" d="M492.71,-193.87C467.66,-188.35 428.94,-178.4 397.52,-164 386.43,-158.92 384.96,-155.34 374.52,-149 363.9,-142.55 352.06,-135.76 341.6,-129.91"/>
<polygon fill="black" stroke="black" points="343.26,-126.83 332.82,-125.03 339.86,-132.94 343.26,-126.83"/>
<text text-anchor="middle" x="428.02" y="-152.8" font-family="Times,serif" font-size="14.00">{c1, c2}</text>
</g>
<!-- 1&#45;&gt;3 -->
<g id="edge6" class="edge">
<title>1&#45;&gt;3</title>
<path fill="none" stroke="black" d="M503.36,-184.99C488.97,-171.95 468.16,-153.83 458.52,-149 423.72,-131.54 379.82,-122.54 349.29,-118.07"/>
<polygon fill="black" stroke="black" points="349.47,-114.56 339.09,-116.67 348.52,-121.5 349.47,-114.56"/>
<text text-anchor="middle" x="496.02" y="-152.8" font-family="Times,serif" font-size="14.00">{c1}</text>
</g>
<!-- 2&#45;&gt;2 -->
<g id="edge34" class="edge">
<title>2&#45;&gt;2</title>
<path fill="none" stroke="black" d="M699.77,-23.5C709.55,-23.53 717.52,-23.03 717.52,-22 717.52,-21.37 714.56,-20.94 710.04,-20.71"/>
<polygon fill="black" stroke="black" points="709.83,-17.2 699.77,-20.5 709.69,-24.2 709.83,-17.2"/>
<text text-anchor="middle" x="760.52" y="-18.3" font-family="Times,serif" font-size="14.00">{c0, c1, c2}</text>
</g>
<!-- 2&#45;&gt;2 -->
<g id="edge35" class="edge">
<title>2&#45;&gt;2</title>
<path fill="none" stroke="black" d="M699.4,-24.15C739.05,-25.78 803.52,-25.06 803.52,-22 803.52,-19.19 749.19,-18.35 709.6,-19.49"/>
<polygon fill="black" stroke="black" points="709.27,-16 699.4,-19.85 709.51,-23 709.27,-16"/>
<text text-anchor="middle" x="834.02" y="-18.3" font-family="Times,serif" font-size="14.00">{c1, c2}</text>
</g>
<!-- 2&#45;&gt;2 -->
<g id="edge36" class="edge">
<title>2&#45;&gt;2</title>
<path fill="none" stroke="black" d="M699.48,-24.7C754.55,-27.8 864.52,-26.9 864.52,-22 864.52,-17.39 767.06,-16.32 709.69,-18.8"/>
<polygon fill="black" stroke="black" points="709.29,-15.31 699.48,-19.3 709.64,-22.31 709.29,-15.31"/>
<text text-anchor="middle" x="882.02" y="-18.3" font-family="Times,serif" font-size="14.00">{c2}</text>
</g>
<!-- 2&#45;&gt;2 -->
<g id="edge37" class="edge">
<title>2&#45;&gt;2</title>
<path fill="none" stroke="black" d="M699.31,-25.23C762.69,-29.79 899.52,-28.72 899.52,-22 899.52,-15.62 776.23,-14.33 709.51,-18.12"/>
<polygon fill="black" stroke="black" points="709.07,-14.64 699.31,-18.77 709.51,-21.63 709.07,-14.64"/>
<text text-anchor="middle" x="909.02" y="-18.3" font-family="Times,serif" font-size="14.00">{}</text>
</g>
<!-- 2&#45;&gt;2 -->
<g id="edge38" class="edge">
<title>2&#45;&gt;2</title>
<path fill="none" stroke="black" d="M699.3,-25.75C767.73,-31.79 918.52,-30.54 918.52,-22 918.52,-13.86 781.53,-12.35 709.44,-17.45"/>
<polygon fill="black" stroke="black" points="708.99,-13.97 699.3,-18.25 709.54,-20.95 708.99,-13.97"/>
<text text-anchor="middle" x="936.02" y="-18.3" font-family="Times,serif" font-size="14.00">{c1}</text>
</g>
<!-- 2&#45;&gt;2 -->
<g id="edge39" class="edge">
<title>2&#45;&gt;2</title>
<path fill="none" stroke="black" d="M699.05,-26.09C775.25,-33.79 953.52,-32.43 953.52,-22 953.52,-12.02 790.24,-10.34 709.41,-16.96"/>
<polygon fill="black" stroke="black" points="708.69,-13.51 699.05,-17.91 709.32,-20.49 708.69,-13.51"/>
<text text-anchor="middle" x="971.02" y="-18.3" font-family="Times,serif" font-size="14.00">{c0}</text>
</g>
<!-- 2&#45;&gt;2 -->
<g id="edge40" class="edge">
<title>2&#45;&gt;2</title>
<path fill="none" stroke="black" d="M698.78,-26.38C782.45,-35.8 988.52,-34.35 988.52,-22 988.52,-10.12 797.85,-8.32 708.85,-16.59"/>
<polygon fill="black" stroke="black" points="708.37,-13.12 698.78,-17.62 709.08,-20.09 708.37,-13.12"/>
<text text-anchor="middle" x="1019.02" y="-18.3" font-family="Times,serif" font-size="14.00">{c0, c1}</text>
</g>
<!-- 2&#45;&gt;2 -->
<g id="edge41" class="edge">
<title>2&#45;&gt;2</title>
<path fill="none" stroke="black" d="M698.96,-26.57C794.02,-37.82 1049.52,-36.3 1049.52,-22 1049.52,-8.18 810.71,-6.3 708.95,-16.36"/>
<polygon fill="black" stroke="black" points="708.53,-12.88 698.96,-17.43 709.28,-19.84 708.53,-12.88"/>
<text text-anchor="middle" x="1080.02" y="-18.3" font-family="Times,serif" font-size="14.00">{c0, c2}</text>
</g>
<!-- 3&#45;&gt;2 -->
<g id="edge31" class="edge">
<title>3&#45;&gt;2</title>
<path fill="none" stroke="black" d="M316.96,-95.08C320.9,-83.69 327.88,-69.43 339.52,-62 395.26,-26.42 573.25,-63.18 636.52,-44 639.54,-43.09 642.58,-41.87 645.54,-40.49"/>
<polygon fill="black" stroke="black" points="647.43,-43.45 654.61,-35.66 644.14,-37.27 647.43,-43.45"/>
<text text-anchor="middle" x="357.02" y="-65.8" font-family="Times,serif" font-size="14.00">{c1}</text>
</g>
<!-- 3&#45;&gt;2 -->
<g id="edge32" class="edge">
<title>3&#45;&gt;2</title>
<path fill="none" stroke="black" d="M332.82,-100.97C345.02,-94.24 360.79,-85.34 374.52,-77 384.96,-70.66 385.97,-65.91 397.52,-62 498.42,-27.83 534.81,-75.64 636.52,-44 639.54,-43.06 642.57,-41.84 645.52,-40.45"/>
<polygon fill="black" stroke="black" points="647.42,-43.4 654.59,-35.6 644.12,-37.23 647.42,-43.4"/>
<text text-anchor="middle" x="415.02" y="-65.8" font-family="Times,serif" font-size="14.00">{c0}</text>
</g>
<!-- 3&#45;&gt;2 -->
<g id="edge33" class="edge">
<title>3&#45;&gt;2</title>
<path fill="none" stroke="black" d="M338.12,-106.84C362.96,-101.3 401.37,-91.32 432.52,-77 443.61,-71.9 444.01,-66.05 455.52,-62 531.78,-35.15 559.63,-68.94 636.52,-44 639.53,-43.03 642.55,-41.78 645.5,-40.37"/>
<polygon fill="black" stroke="black" points="647.41,-43.32 654.56,-35.5 644.09,-37.15 647.41,-43.32"/>
<text text-anchor="middle" x="486.02" y="-65.8" font-family="Times,serif" font-size="14.00">{c0, c1}</text>
</g>
<!-- 3&#45;&gt;3 -->
<g id="edge26" class="edge">
<title>3&#45;&gt;3</title>
<path fill="none" stroke="black" d="M337.06,-120.75C348.03,-121.49 357.52,-118.91 357.52,-113 357.52,-109.03 353.24,-106.56 347.1,-105.59"/>
<polygon fill="black" stroke="black" points="347.17,-102.09 337.06,-105.25 346.93,-109.09 347.17,-102.09"/>
<text text-anchor="middle" x="367.02" y="-109.3" font-family="Times,serif" font-size="14.00">{}</text>
</g>
<!-- 4 -->
<g id="node6" class="node">
<title>4</title>
<ellipse fill="none" stroke="black" cx="68.52" cy="-22" rx="18" ry="18"/>
<ellipse fill="none" stroke="black" cx="68.52" cy="-22" rx="22" ry="22"/>
<text text-anchor="middle" x="68.52" y="-18.3" font-family="Times,serif" font-size="14.00">4</text>
</g>
<!-- 3&#45;&gt;4 -->
<g id="edge27" class="edge">
<title>3&#45;&gt;4</title>
<path fill="none" stroke="black" d="M285.55,-110.95C213.92,-107.89 23.12,-97.83 4.52,-77 -10.28,-60.42 15.44,-44.37 38.55,-34.15"/>
<polygon fill="black" stroke="black" points="39.97,-37.35 47.85,-30.26 37.27,-30.89 39.97,-37.35"/>
<text text-anchor="middle" x="35.02" y="-65.8" font-family="Times,serif" font-size="14.00">{c1, c2}</text>
</g>
<!-- 3&#45;&gt;4 -->
<g id="edge28" class="edge">
<title>3&#45;&gt;4</title>
<path fill="none" stroke="black" d="M285.49,-111.12C232.65,-108.89 118.23,-101.3 88.52,-77 81.33,-71.11 76.72,-62.38 73.77,-53.64"/>
<polygon fill="black" stroke="black" points="77.13,-52.64 71.1,-43.92 70.38,-54.49 77.13,-52.64"/>
<text text-anchor="middle" x="119.02" y="-65.8" font-family="Times,serif" font-size="14.00">{c0, c2}</text>
</g>
<!-- 3&#45;&gt;4 -->
<g id="edge29" class="edge">
<title>3&#45;&gt;4</title>
<path fill="none" stroke="black" d="M286.39,-108.14C257.62,-103.29 210.41,-93.53 172.52,-77 161.34,-72.12 160.16,-67.99 149.52,-62 132.75,-52.54 113.33,-43.14 97.71,-35.94"/>
<polygon fill="black" stroke="black" points="99.08,-32.72 88.53,-31.76 96.18,-39.09 99.08,-32.72"/>
<text text-anchor="middle" x="215.52" y="-65.8" font-family="Times,serif" font-size="14.00">{c0, c1, c2}</text>
</g>
<!-- 3&#45;&gt;4 -->
<g id="edge30" class="edge">
<title>3&#45;&gt;4</title>
<path fill="none" stroke="black" d="M299.96,-96.49C289.93,-85.18 274.89,-70.41 258.52,-62 207.36,-35.71 139.87,-27.14 100.63,-24.35"/>
<polygon fill="black" stroke="black" points="100.78,-20.85 90.58,-23.72 100.34,-27.84 100.78,-20.85"/>
<text text-anchor="middle" x="298.02" y="-65.8" font-family="Times,serif" font-size="14.00">{c2}</text>
</g>
<!-- 4&#45;&gt;4 -->
<g id="edge10" class="edge">
<title>4&#45;&gt;4</title>
<path fill="none" stroke="black" d="M90.74,-23.48C100.32,-23.6 108.52,-23.11 108.52,-22 108.52,-21.32 105.48,-20.88 100.93,-20.66"/>
<polygon fill="black" stroke="black" points="100.78,-17.16 90.74,-20.52 100.69,-24.15 100.78,-17.16"/>
<text text-anchor="middle" x="139.02" y="-18.3" font-family="Times,serif" font-size="14.00">{c0, c2}</text>
</g>
<!-- 4&#45;&gt;4 -->
<g id="edge11" class="edge">
<title>4&#45;&gt;4</title>
<path fill="none" stroke="black" d="M90.54,-24.15C121.65,-25.78 169.52,-25.06 169.52,-22 169.52,-19.26 131.22,-18.4 100.87,-19.41"/>
<polygon fill="black" stroke="black" points="100.38,-15.93 90.54,-19.85 100.68,-22.92 100.38,-15.93"/>
<text text-anchor="middle" x="200.02" y="-18.3" font-family="Times,serif" font-size="14.00">{c1, c2}</text>
</g>
<!-- 4&#45;&gt;4 -->
<g id="edge12" class="edge">
<title>4&#45;&gt;4</title>
<path fill="none" stroke="black" d="M90.53,-24.59C137.24,-27.82 230.52,-26.96 230.52,-22 230.52,-17.38 149.56,-16.32 100.71,-18.81"/>
<polygon fill="black" stroke="black" points="100.3,-15.33 90.53,-19.41 100.72,-22.32 100.3,-15.33"/>
<text text-anchor="middle" x="240.02" y="-18.3" font-family="Times,serif" font-size="14.00">{}</text>
</g>
<!-- 4&#45;&gt;4 -->
<g id="edge13" class="edge">
<title>4&#45;&gt;4</title>
<path fill="none" stroke="black" d="M90.5,-25.13C142.48,-29.81 249.52,-28.77 249.52,-22 249.52,-15.64 155.05,-14.34 100.51,-18.08"/>
<polygon fill="black" stroke="black" points="100.19,-14.6 90.5,-18.87 100.74,-21.57 100.19,-14.6"/>
<text text-anchor="middle" x="280.02" y="-18.3" font-family="Times,serif" font-size="14.00">{c0, c1}</text>
</g>
<!-- 4&#45;&gt;4 -->
<g id="edge14" class="edge">
<title>4&#45;&gt;4</title>
<path fill="none" stroke="black" d="M90.51,-25.37C155.22,-31.83 310.52,-30.71 310.52,-22 310.52,-13.71 170.02,-12.29 100.61,-17.74"/>
<polygon fill="black" stroke="black" points="100.16,-14.26 90.51,-18.63 100.78,-21.24 100.16,-14.26"/>
<text text-anchor="middle" x="328.02" y="-18.3" font-family="Times,serif" font-size="14.00">{c2}</text>
</g>
<!-- 4&#45;&gt;4 -->
<g id="edge15" class="edge">
<title>4&#45;&gt;4</title>
<path fill="none" stroke="black" d="M90.44,-25.67C162.61,-33.84 345.52,-32.62 345.52,-22 345.52,-11.86 178.67,-10.29 100.81,-17.29"/>
<polygon fill="black" stroke="black" points="100.04,-13.85 90.44,-18.33 100.74,-20.81 100.04,-13.85"/>
<text text-anchor="middle" x="363.02" y="-18.3" font-family="Times,serif" font-size="14.00">{c1}</text>
</g>
<!-- 4&#45;&gt;4 -->
<g id="edge16" class="edge">
<title>4&#45;&gt;4</title>
<path fill="none" stroke="black" d="M90.43,-25.93C169.88,-35.85 380.52,-34.54 380.52,-22 380.52,-9.96 186.41,-8.28 100.59,-16.93"/>
<polygon fill="black" stroke="black" points="99.98,-13.48 90.43,-18.07 100.76,-20.43 99.98,-13.48"/>
<text text-anchor="middle" x="423.52" y="-18.3" font-family="Times,serif" font-size="14.00">{c0, c1, c2}</text>
</g>
<!-- 4&#45;&gt;4 -->
<g id="edge17" class="edge">
<title>4&#45;&gt;4</title>
<path fill="none" stroke="black" d="M90.24,-25.96C183.27,-37.87 466.52,-36.55 466.52,-22 466.52,-7.95 202.31,-6.24 100.43,-16.86"/>
<polygon fill="black" stroke="black" points="99.77,-13.41 90.24,-18.04 100.57,-20.37 99.77,-13.41"/>
<text text-anchor="middle" x="484.02" y="-18.3" font-family="Times,serif" font-size="14.00">{c0}</text>
</g>
</g>
</svg>
