<?xml version="1.0" encoding="UTF-8" standalone="no"?>
<!DOCTYPE svg PUBLIC "-//W3C//DTD SVG 1.1//EN"
 "http://www.w3.org/Graphics/SVG/1.1/DTD/svg11.dtd">
<!-- Generated by graphviz version 2.43.0 (0)
 -->
<!-- Title: %3 Pages: 1 -->
<svg width="1264pt" height="386pt"
 viewBox="0.00 0.00 1264.06 386.00" xmlns="http://www.w3.org/2000/svg" xmlns:xlink="http://www.w3.org/1999/xlink">
<g id="graph0" class="graph" transform="scale(1 1) rotate(0) translate(4 382)">
<title>%3</title>
<polygon fill="white" stroke="transparent" points="-4,4 -4,-382 1260.06,-382 1260.06,4 -4,4"/>
<!-- fake -->
<g id="node1" class="node">
<title>fake</title>
</g>
<!-- 0 -->
<g id="node2" class="node">
<title>0</title>
<ellipse fill="none" stroke="black" cx="682.06" cy="-287" rx="27" ry="18"/>
<text text-anchor="middle" x="682.06" y="-283.3" font-family="Times,serif" font-size="14.00">0</text>
</g>
<!-- fake&#45;&gt;0 -->
<g id="edge1" class="edge">
<title>fake&#45;&gt;0</title>
<path fill="none" stroke="black" stroke-width="2" d="M682.06,-341.81C682.06,-333.79 682.06,-324.05 682.06,-315.07"/>
<polygon fill="black" stroke="black" stroke-width="2" points="685.56,-315.03 682.06,-305.03 678.56,-315.03 685.56,-315.03"/>
</g>
<!-- 0&#45;&gt;0 -->
<g id="edge21" class="edge">
<title>0&#45;&gt;0</title>
<path fill="none" stroke="black" d="M707.51,-293.69C718.09,-294.15 727.06,-291.92 727.06,-287 727.06,-283.77 723.2,-281.7 717.55,-280.79"/>
<polygon fill="black" stroke="black" points="717.66,-277.29 707.51,-280.31 717.33,-284.28 717.66,-277.29"/>
<text text-anchor="middle" x="736.56" y="-283.3" font-family="Times,serif" font-size="14.00">{}</text>
</g>
<!-- 1 -->
<g id="node3" class="node">
<title>1</title>
<ellipse fill="none" stroke="black" cx="489.06" cy="-200" rx="27" ry="18"/>
<text text-anchor="middle" x="489.06" y="-196.3" font-family="Times,serif" font-size="14.00">1</text>
</g>
<!-- 0&#45;&gt;1 -->
<g id="edge18" class="edge">
<title>0&#45;&gt;1</title>
<path fill="none" stroke="black" d="M654.66,-286.46C595.87,-286.8 460.68,-283.9 432.06,-251 420.04,-237.17 437.95,-223.6 456.79,-214.09"/>
<polygon fill="black" stroke="black" points="458.43,-217.19 465.99,-209.77 455.45,-210.85 458.43,-217.19"/>
<text text-anchor="middle" x="449.56" y="-239.8" font-family="Times,serif" font-size="14.00">{c0}</text>
</g>
<!-- 0&#45;&gt;1 -->
<g id="edge19" class="edge">
<title>0&#45;&gt;1</title>
<path fill="none" stroke="black" d="M654.9,-285.13C607.09,-282.96 510.98,-275.57 490.06,-251 484.76,-244.77 483.23,-236.35 483.4,-228.2"/>
<polygon fill="black" stroke="black" points="486.89,-228.5 484.39,-218.21 479.93,-227.82 486.89,-228.5"/>
<text text-anchor="middle" x="520.56" y="-239.8" font-family="Times,serif" font-size="14.00">{c0, c1}</text>
</g>
<!-- 0&#45;&gt;1 -->
<g id="edge20" class="edge">
<title>0&#45;&gt;1</title>
<path fill="none" stroke="black" d="M656.9,-279.87C634.54,-273.96 601.28,-264 574.06,-251 563.05,-245.74 561.49,-242.34 551.06,-236 540.44,-229.55 528.6,-222.76 518.13,-216.91"/>
<polygon fill="black" stroke="black" points="519.8,-213.83 509.36,-212.03 516.4,-219.94 519.8,-213.83"/>
<text text-anchor="middle" x="617.06" y="-239.8" font-family="Times,serif" font-size="14.00">{c0, c1, c2}</text>
</g>
<!-- 0&#45;&gt;1 -->
<g id="edge22" class="edge">
<title>0&#45;&gt;1</title>
<path fill="none" stroke="black" d="M678.71,-268.68C675.68,-257.71 670.1,-244.1 660.06,-236 639.82,-219.66 569.78,-209.49 525.87,-204.57"/>
<polygon fill="black" stroke="black" points="526.17,-201.08 515.85,-203.48 525.42,-208.04 526.17,-201.08"/>
<text text-anchor="middle" x="701.56" y="-239.8" font-family="Times,serif" font-size="14.00">{c0, c2}</text>
</g>
<!-- 2 -->
<g id="node4" class="node">
<title>2</title>
<ellipse fill="none" stroke="black" cx="692.06" cy="-22" rx="27" ry="18"/>
<text text-anchor="middle" x="692.06" y="-18.3" font-family="Times,serif" font-size="14.00">2</text>
</g>
<!-- 0&#45;&gt;2 -->
<g id="edge23" class="edge">
<title>0&#45;&gt;2</title>
<path fill="none" stroke="black" d="M705.05,-277.39C716.57,-271.76 729.45,-263.17 736.06,-251 772.47,-184.01 731.07,-91.57 706.96,-47.84"/>
<polygon fill="black" stroke="black" points="709.94,-46 701.97,-39.03 703.85,-49.45 709.94,-46"/>
<text text-anchor="middle" x="778.56" y="-152.8" font-family="Times,serif" font-size="14.00">{c1, c2}</text>
</g>
<!-- 0&#45;&gt;2 -->
<g id="edge24" class="edge">
<title>0&#45;&gt;2</title>
<path fill="none" stroke="black" d="M705.54,-277.7C720.02,-271.79 738.38,-262.8 752.06,-251 787.83,-220.16 798.85,-209.03 813.06,-164 830.58,-108.52 763.35,-61.23 722.1,-38.12"/>
<polygon fill="black" stroke="black" points="723.69,-35.01 713.23,-33.3 720.35,-41.16 723.69,-35.01"/>
<text text-anchor="middle" x="832.56" y="-152.8" font-family="Times,serif" font-size="14.00">{c1}</text>
</g>
<!-- 0&#45;&gt;2 -->
<g id="edge25" class="edge">
<title>0&#45;&gt;2</title>
<path fill="none" stroke="black" d="M706.66,-279.42C725.89,-273.64 752.83,-264.1 774.06,-251 818.77,-223.42 836.45,-213.49 854.06,-164 877.48,-98.19 779.87,-53.19 725.83,-33.79"/>
<polygon fill="black" stroke="black" points="726.88,-30.44 716.28,-30.46 724.57,-37.06 726.88,-30.44"/>
<text text-anchor="middle" x="874.56" y="-152.8" font-family="Times,serif" font-size="14.00">{c2}</text>
</g>
<!-- 1&#45;&gt;1 -->
<g id="edge11" class="edge">
<title>1&#45;&gt;1</title>
<path fill="none" stroke="black" d="M513.6,-207.75C524.57,-208.49 534.06,-205.91 534.06,-200 534.06,-196.03 529.78,-193.56 523.64,-192.59"/>
<polygon fill="black" stroke="black" points="523.71,-189.09 513.6,-192.25 523.47,-196.09 523.71,-189.09"/>
<text text-anchor="middle" x="543.56" y="-196.3" font-family="Times,serif" font-size="14.00">{}</text>
</g>
<!-- 1&#45;&gt;2 -->
<g id="edge15" class="edge">
<title>1&#45;&gt;2</title>
<path fill="none" stroke="black" d="M500.81,-183.43C504.97,-177.52 509.51,-170.62 513.06,-164 528.74,-134.85 518.38,-119.1 541.06,-95 579.38,-54.28 605.73,-68.35 656.06,-44 658.69,-42.73 661.38,-41.34 664.05,-39.9"/>
<polygon fill="black" stroke="black" points="665.94,-42.85 672.93,-34.9 662.5,-36.75 665.94,-42.85"/>
<text text-anchor="middle" x="571.56" y="-109.3" font-family="Times,serif" font-size="14.00">{c0, c2}</text>
</g>
<!-- 1&#45;&gt;2 -->
<g id="edge16" class="edge">
<title>1&#45;&gt;2</title>
<path fill="none" stroke="black" d="M510.45,-188.87C534.26,-176.99 573.21,-155.74 602.06,-131 631.47,-105.78 659.01,-70.32 675.69,-47.01"/>
<polygon fill="black" stroke="black" points="678.64,-48.91 681.54,-38.72 672.91,-44.87 678.64,-48.91"/>
<text text-anchor="middle" x="653.56" y="-109.3" font-family="Times,serif" font-size="14.00">{c0}</text>
</g>
<!-- 1&#45;&gt;2 -->
<g id="edge17" class="edge">
<title>1&#45;&gt;2</title>
<path fill="none" stroke="black" d="M516.01,-197.2C556.69,-192.96 633.24,-178.72 673.06,-131 691.79,-108.56 694.89,-74.21 694.37,-50.29"/>
<polygon fill="black" stroke="black" points="697.86,-49.95 693.92,-40.12 690.87,-50.26 697.86,-49.95"/>
<text text-anchor="middle" x="706.56" y="-109.3" font-family="Times,serif" font-size="14.00">{c2}</text>
</g>
<!-- 3 -->
<g id="node5" class="node">
<title>3</title>
<ellipse fill="none" stroke="black" cx="284.06" cy="-113" rx="27" ry="18"/>
<text text-anchor="middle" x="284.06" y="-109.3" font-family="Times,serif" font-size="14.00">3</text>
</g>
<!-- 1&#45;&gt;3 -->
<g id="edge10" class="edge">
<title>1&#45;&gt;3</title>
<path fill="none" stroke="black" d="M462.12,-197.73C393.84,-194.22 218.24,-183.39 201.06,-164 183.53,-144.2 218.84,-129.86 248.7,-121.74"/>
<polygon fill="black" stroke="black" points="249.71,-125.1 258.53,-119.23 247.98,-118.32 249.71,-125.1"/>
<text text-anchor="middle" x="231.56" y="-152.8" font-family="Times,serif" font-size="14.00">{c1, c2}</text>
</g>
<!-- 1&#45;&gt;3 -->
<g id="edge12" class="edge">
<title>1&#45;&gt;3</title>
<path fill="none" stroke="black" d="M461.8,-198.45C411.6,-196.8 307.62,-190.22 285.06,-164 279.65,-157.71 278.14,-149.14 278.37,-140.87"/>
<polygon fill="black" stroke="black" points="281.87,-141.07 279.44,-130.76 274.91,-140.34 281.87,-141.07"/>
<text text-anchor="middle" x="315.56" y="-152.8" font-family="Times,serif" font-size="14.00">{c0, c1}</text>
</g>
<!-- 1&#45;&gt;3 -->
<g id="edge13" class="edge">
<title>1&#45;&gt;3</title>
<path fill="none" stroke="black" d="M463.47,-193.84C438.63,-188.3 400.22,-178.32 369.06,-164 357.98,-158.9 356.49,-155.34 346.06,-149 335.44,-142.55 323.6,-135.76 313.13,-129.91"/>
<polygon fill="black" stroke="black" points="314.8,-126.83 304.36,-125.03 311.4,-132.94 314.8,-126.83"/>
<text text-anchor="middle" x="386.56" y="-152.8" font-family="Times,serif" font-size="14.00">{c1}</text>
</g>
<!-- 1&#45;&gt;3 -->
<g id="edge14" class="edge">
<title>1&#45;&gt;3</title>
<path fill="none" stroke="black" d="M468.77,-187.97C456.57,-181.24 440.8,-172.34 427.06,-164 416.63,-157.66 415.15,-154.1 404.06,-149 376.8,-136.47 343.99,-127.27 319.57,-121.45"/>
<polygon fill="black" stroke="black" points="320.19,-118 309.66,-119.16 318.62,-124.82 320.19,-118"/>
<text text-anchor="middle" x="470.06" y="-152.8" font-family="Times,serif" font-size="14.00">{c0, c1, c2}</text>
</g>
<!-- 2&#45;&gt;2 -->
<g id="edge26" class="edge">
<title>2&#45;&gt;2</title>
<path fill="none" stroke="black" d="M719.3,-23.5C729.09,-23.53 737.06,-23.03 737.06,-22 737.06,-21.37 734.1,-20.94 729.57,-20.71"/>
<polygon fill="black" stroke="black" points="729.37,-17.2 719.3,-20.5 729.23,-24.2 729.37,-17.2"/>
<text text-anchor="middle" x="767.56" y="-18.3" font-family="Times,serif" font-size="14.00">{c1, c2}</text>
</g>
<!-- 2&#45;&gt;2 -->
<g id="edge27" class="edge">
<title>2&#45;&gt;2</title>
<path fill="none" stroke="black" d="M719.03,-24.32C751.73,-25.73 798.06,-24.95 798.06,-22 798.06,-19.35 760.67,-18.45 729.36,-19.32"/>
<polygon fill="black" stroke="black" points="728.9,-15.83 719.03,-19.68 729.15,-22.83 728.9,-15.83"/>
<text text-anchor="middle" x="815.56" y="-18.3" font-family="Times,serif" font-size="14.00">{c1}</text>
</g>
<!-- 2&#45;&gt;2 -->
<g id="edge28" class="edge">
<title>2&#45;&gt;2</title>
<path fill="none" stroke="black" d="M718.88,-25C762.09,-27.73 833.06,-26.73 833.06,-22 833.06,-17.62 772.23,-16.44 728.92,-18.46"/>
<polygon fill="black" stroke="black" points="728.67,-14.96 718.88,-19 729.05,-21.95 728.67,-14.96"/>
<text text-anchor="middle" x="863.56" y="-18.3" font-family="Times,serif" font-size="14.00">{c0, c1}</text>
</g>
<!-- 2&#45;&gt;2 -->
<g id="edge29" class="edge">
<title>2&#45;&gt;2</title>
<path fill="none" stroke="black" d="M718.76,-25.35C777.07,-29.77 894.06,-28.66 894.06,-22 894.06,-15.71 789.52,-14.36 728.82,-17.97"/>
<polygon fill="black" stroke="black" points="728.5,-14.48 718.76,-18.65 728.97,-21.47 728.5,-14.48"/>
<text text-anchor="middle" x="903.56" y="-18.3" font-family="Times,serif" font-size="14.00">{}</text>
</g>
<!-- 2&#45;&gt;2 -->
<g id="edge30" class="edge">
<title>2&#45;&gt;2</title>
<path fill="none" stroke="black" d="M718.7,-25.87C782.29,-31.77 913.06,-30.48 913.06,-22 913.06,-13.95 795.24,-12.38 728.88,-17.28"/>
<polygon fill="black" stroke="black" points="728.37,-13.81 718.7,-18.13 728.95,-20.79 728.37,-13.81"/>
<text text-anchor="middle" x="956.06" y="-18.3" font-family="Times,serif" font-size="14.00">{c0, c1, c2}</text>
</g>
<!-- 2&#45;&gt;2 -->
<g id="edge31" class="edge">
<title>2&#45;&gt;2</title>
<path fill="none" stroke="black" d="M718.44,-25.96C798.92,-33.81 999.06,-32.49 999.06,-22 999.06,-11.93 814.62,-10.31 728.67,-17.14"/>
<polygon fill="black" stroke="black" points="728.1,-13.67 718.44,-18.04 728.71,-20.65 728.1,-13.67"/>
<text text-anchor="middle" x="1029.56" y="-18.3" font-family="Times,serif" font-size="14.00">{c0, c2}</text>
</g>
<!-- 2&#45;&gt;2 -->
<g id="edge32" class="edge">
<title>2&#45;&gt;2</title>
<path fill="none" stroke="black" d="M718.49,-26.19C810.27,-35.82 1060.06,-34.43 1060.06,-22 1060.06,-10.01 827.52,-8.29 728.73,-16.84"/>
<polygon fill="black" stroke="black" points="728.11,-13.38 718.49,-17.81 728.77,-20.35 728.11,-13.38"/>
<text text-anchor="middle" x="1077.56" y="-18.3" font-family="Times,serif" font-size="14.00">{c0}</text>
</g>
<!-- 2&#45;&gt;2 -->
<g id="edge33" class="edge">
<title>2&#45;&gt;2</title>
<path fill="none" stroke="black" d="M718.35,-26.45C816.99,-37.83 1095.06,-36.34 1095.06,-22 1095.06,-8.12 834.62,-6.28 728.43,-16.49"/>
<polygon fill="black" stroke="black" points="727.93,-13.02 718.35,-17.55 728.66,-19.98 727.93,-13.02"/>
<text text-anchor="middle" x="1112.56" y="-18.3" font-family="Times,serif" font-size="14.00">{c2}</text>
</g>
<!-- 3&#45;&gt;2 -->
<g id="edge39" class="edge">
<title>3&#45;&gt;2</title>
<path fill="none" stroke="black" d="M298.22,-97.36C311.45,-84.06 330.55,-65.94 340.06,-62 405.04,-35.07 588.72,-64.28 656.06,-44 659.08,-43.09 662.12,-41.88 665.08,-40.5"/>
<polygon fill="black" stroke="black" points="666.97,-43.46 674.15,-35.67 663.68,-37.28 666.97,-43.46"/>
<text text-anchor="middle" x="357.56" y="-65.8" font-family="Times,serif" font-size="14.00">{c1}</text>
</g>
<!-- 3&#45;&gt;2 -->
<g id="edge40" class="edge">
<title>3&#45;&gt;2</title>
<path fill="none" stroke="black" d="M307.84,-104.4C326.56,-98.05 353.06,-88.25 375.06,-77 385.93,-71.45 386.49,-65.88 398.06,-62 507.04,-25.43 546.21,-77.84 656.06,-44 659.08,-43.07 662.11,-41.85 665.07,-40.46"/>
<polygon fill="black" stroke="black" points="666.96,-43.42 674.13,-35.62 663.66,-37.24 666.96,-43.42"/>
<text text-anchor="middle" x="428.56" y="-65.8" font-family="Times,serif" font-size="14.00">{c0, c1}</text>
</g>
<!-- 3&#45;&gt;2 -->
<g id="edge41" class="edge">
<title>3&#45;&gt;2</title>
<path fill="none" stroke="black" d="M310.76,-109.83C345.88,-106.28 409.01,-97.44 459.06,-77 470.36,-72.39 470.56,-66.08 482.06,-62 555.35,-36.04 582.16,-68.13 656.06,-44 659.06,-43.02 662.08,-41.77 665.03,-40.36"/>
<polygon fill="black" stroke="black" points="666.94,-43.31 674.09,-35.49 663.63,-37.14 666.94,-43.31"/>
<text text-anchor="middle" x="499.56" y="-65.8" font-family="Times,serif" font-size="14.00">{c0}</text>
</g>
<!-- 3&#45;&gt;3 -->
<g id="edge36" class="edge">
<title>3&#45;&gt;3</title>
<path fill="none" stroke="black" d="M308.6,-120.75C319.57,-121.49 329.06,-118.91 329.06,-113 329.06,-109.03 324.78,-106.56 318.64,-105.59"/>
<polygon fill="black" stroke="black" points="318.71,-102.09 308.6,-105.25 318.47,-109.09 318.71,-102.09"/>
<text text-anchor="middle" x="338.56" y="-109.3" font-family="Times,serif" font-size="14.00">{}</text>
</g>
<!-- 4 -->
<g id="node6" class="node">
<title>4</title>
<ellipse fill="none" stroke="black" cx="88.06" cy="-22" rx="18" ry="18"/>
<ellipse fill="none" stroke="black" cx="88.06" cy="-22" rx="22" ry="22"/>
<text text-anchor="middle" x="88.06" y="-18.3" font-family="Times,serif" font-size="14.00">4</text>
</g>
<!-- 3&#45;&gt;4 -->
<g id="edge34" class="edge">
<title>3&#45;&gt;4</title>
<path fill="none" stroke="black" d="M257.23,-110.62C190.57,-106.92 21.62,-95.76 5.06,-77 -13.69,-55.75 26.14,-39.47 56.87,-30.58"/>
<polygon fill="black" stroke="black" points="58.12,-33.86 66.84,-27.85 56.27,-27.11 58.12,-33.86"/>
<text text-anchor="middle" x="35.56" y="-65.8" font-family="Times,serif" font-size="14.00">{c1, c2}</text>
</g>
<!-- 3&#45;&gt;4 -->
<g id="edge35" class="edge">
<title>3&#45;&gt;4</title>
<path fill="none" stroke="black" d="M256.85,-111.21C208.43,-109.18 110.37,-102 89.06,-77 83.57,-70.56 81.83,-61.94 81.88,-53.49"/>
<polygon fill="black" stroke="black" points="85.37,-53.66 82.69,-43.41 78.4,-53.1 85.37,-53.66"/>
<text text-anchor="middle" x="106.56" y="-65.8" font-family="Times,serif" font-size="14.00">{c2}</text>
</g>
<!-- 3&#45;&gt;4 -->
<g id="edge37" class="edge">
<title>3&#45;&gt;4</title>
<path fill="none" stroke="black" d="M257.68,-109.14C229.03,-105.18 182.59,-96.21 147.06,-77 132.91,-69.35 119.48,-57.56 109.02,-46.95"/>
<polygon fill="black" stroke="black" points="111.38,-44.35 101.96,-39.5 106.3,-49.17 111.38,-44.35"/>
<text text-anchor="middle" x="177.56" y="-65.8" font-family="Times,serif" font-size="14.00">{c0, c2}</text>
</g>
<!-- 3&#45;&gt;4 -->
<g id="edge38" class="edge">
<title>3&#45;&gt;4</title>
<path fill="none" stroke="black" d="M265.52,-99.76C243.27,-85.07 208.83,-62.37 208.06,-62 179.21,-48.13 144.2,-37.39 119.46,-30.72"/>
<polygon fill="black" stroke="black" points="120.1,-27.27 109.54,-28.12 118.32,-34.04 120.1,-27.27"/>
<text text-anchor="middle" x="272.06" y="-65.8" font-family="Times,serif" font-size="14.00">{c0, c1, c2}</text>
</g>
<!-- 4&#45;&gt;4 -->
<g id="edge2" class="edge">
<title>4&#45;&gt;4</title>
<path fill="none" stroke="black" d="M110.28,-23.48C119.86,-23.6 128.06,-23.11 128.06,-22 128.06,-21.32 125.02,-20.88 120.47,-20.66"/>
<polygon fill="black" stroke="black" points="120.32,-17.16 110.28,-20.52 120.23,-24.15 120.32,-17.16"/>
<text text-anchor="middle" x="145.56" y="-18.3" font-family="Times,serif" font-size="14.00">{c1}</text>
</g>
<!-- 4&#45;&gt;4 -->
<g id="edge3" class="edge">
<title>4&#45;&gt;4</title>
<path fill="none" stroke="black" d="M110.19,-24.38C133.68,-25.7 163.06,-24.91 163.06,-22 163.06,-19.5 141.36,-18.56 120.35,-19.19"/>
<polygon fill="black" stroke="black" points="120.04,-15.7 110.19,-19.62 120.33,-22.69 120.04,-15.7"/>
<text text-anchor="middle" x="172.56" y="-18.3" font-family="Times,serif" font-size="14.00">{}</text>
</g>
<!-- 4&#45;&gt;4 -->
<g id="edge4" class="edge">
<title>4&#45;&gt;4</title>
<path fill="none" stroke="black" d="M110.19,-25.12C140.57,-27.7 182.06,-26.66 182.06,-22 182.06,-17.85 149.15,-16.57 120.49,-18.17"/>
<polygon fill="black" stroke="black" points="119.93,-14.7 110.19,-18.88 120.41,-21.68 119.93,-14.7"/>
<text text-anchor="middle" x="199.56" y="-18.3" font-family="Times,serif" font-size="14.00">{c0}</text>
</g>
<!-- 4&#45;&gt;4 -->
<g id="edge5" class="edge">
<title>4&#45;&gt;4</title>
<path fill="none" stroke="black" d="M109.85,-25.48C150.72,-29.75 217.06,-28.59 217.06,-22 217.06,-15.92 160.68,-14.46 119.85,-17.62"/>
<polygon fill="black" stroke="black" points="119.49,-14.14 109.85,-18.52 120.12,-21.11 119.49,-14.14"/>
<text text-anchor="middle" x="247.56" y="-18.3" font-family="Times,serif" font-size="14.00">{c0, c1}</text>
</g>
<!-- 4&#45;&gt;4 -->
<g id="edge6" class="edge">
<title>4&#45;&gt;4</title>
<path fill="none" stroke="black" d="M109.91,-25.63C165.32,-31.8 278.06,-30.59 278.06,-22 278.06,-13.91 178.14,-12.36 120.21,-17.36"/>
<polygon fill="black" stroke="black" points="119.52,-13.92 109.91,-18.37 120.2,-20.88 119.52,-13.92"/>
<text text-anchor="middle" x="321.06" y="-18.3" font-family="Times,serif" font-size="14.00">{c0, c1, c2}</text>
</g>
<!-- 4&#45;&gt;4 -->
<g id="edge7" class="edge">
<title>4&#45;&gt;4</title>
<path fill="none" stroke="black" d="M109.94,-25.67C181.93,-33.84 364.06,-32.62 364.06,-22 364.06,-11.86 197.93,-10.29 120.28,-17.29"/>
<polygon fill="black" stroke="black" points="119.54,-13.84 109.94,-18.33 120.24,-20.81 119.54,-13.84"/>
<text text-anchor="middle" x="394.56" y="-18.3" font-family="Times,serif" font-size="14.00">{c0, c2}</text>
</g>
<!-- 4&#45;&gt;4 -->
<g id="edge8" class="edge">
<title>4&#45;&gt;4</title>
<path fill="none" stroke="black" d="M109.92,-25.83C192.86,-35.86 425.06,-34.58 425.06,-22 425.06,-9.9 210.21,-8.26 120.02,-17.07"/>
<polygon fill="black" stroke="black" points="119.48,-13.61 109.92,-18.17 120.24,-20.57 119.48,-13.61"/>
<text text-anchor="middle" x="455.56" y="-18.3" font-family="Times,serif" font-size="14.00">{c1, c2}</text>
</g>
<!-- 4&#45;&gt;4 -->
<g id="edge9" class="edge">
<title>4&#45;&gt;4</title>
<path fill="none" stroke="black" d="M109.78,-25.96C202.81,-37.87 486.06,-36.55 486.06,-22 486.06,-7.95 221.85,-6.24 119.97,-16.86"/>
<polygon fill="black" stroke="black" points="119.31,-13.41 109.78,-18.04 120.11,-20.37 119.31,-13.41"/>
<text text-anchor="middle" x="503.56" y="-18.3" font-family="Times,serif" font-size="14.00">{c2}</text>
</g>
</g>
</svg>
