<?xml version="1.0" encoding="UTF-8" standalone="no"?>
<!DOCTYPE svg PUBLIC "-//W3C//DTD SVG 1.1//EN"
 "http://www.w3.org/Graphics/SVG/1.1/DTD/svg11.dtd">
<!-- Generated by graphviz version 2.40.1 (20161225.0304)
 -->
<!-- Title: %3 Pages: 1 -->
<svg width="2589pt" height="475pt"
 viewBox="0.00 0.00 2588.65 475.44" xmlns="http://www.w3.org/2000/svg" xmlns:xlink="http://www.w3.org/1999/xlink">
<g id="graph0" class="graph" transform="scale(1 1) rotate(0) translate(4 471.4388)">
<title>%3</title>
<polygon fill="#ffffff" stroke="transparent" points="-4,4 -4,-471.4388 2584.6546,-471.4388 2584.6546,4 -4,4"/>
<!-- fake -->
<g id="node1" class="node">
<title>fake</title>
</g>
<!-- 0 -->
<g id="node2" class="node">
<title>0</title>
<ellipse fill="none" stroke="#000000" cx="1863.6546" cy="-376.4388" rx="27" ry="18"/>
<text text-anchor="middle" x="1863.6546" y="-372.7388" font-family="Times,serif" font-size="14.00" fill="#000000">0</text>
</g>
<!-- fake&#45;&gt;0 -->
<g id="edge1" class="edge">
<title>fake&#45;&gt;0</title>
<path fill="none" stroke="#000000" stroke-width="2" d="M1863.6546,-431.3939C1863.6546,-423.3216 1863.6546,-413.6152 1863.6546,-404.6205"/>
<polygon fill="#000000" stroke="#000000" stroke-width="2" points="1867.1547,-404.5291 1863.6546,-394.5292 1860.1547,-404.5292 1867.1547,-404.5291"/>
</g>
<!-- 0&#45;&gt;0 -->
<g id="edge20" class="edge">
<title>0&#45;&gt;0</title>
<path fill="none" stroke="#000000" d="M1889.0981,-383.1295C1899.6824,-383.5909 1908.6546,-381.3607 1908.6546,-376.4388 1908.6546,-373.2088 1904.7906,-371.138 1899.1427,-370.2265"/>
<polygon fill="#000000" stroke="#000000" points="1899.2533,-366.7278 1889.0981,-369.7481 1898.9203,-373.7199 1899.2533,-366.7278"/>
<text text-anchor="middle" x="1915.6546" y="-372.7388" font-family="Times,serif" font-size="14.00" fill="#000000">{}</text>
</g>
<!-- 1 -->
<g id="node3" class="node">
<title>1</title>
<ellipse fill="none" stroke="#000000" cx="1506.6546" cy="-289.4388" rx="27" ry="18"/>
<text text-anchor="middle" x="1506.6546" y="-285.7388" font-family="Times,serif" font-size="14.00" fill="#000000">1</text>
</g>
<!-- 0&#45;&gt;1 -->
<g id="edge18" class="edge">
<title>0&#45;&gt;1</title>
<path fill="none" stroke="#000000" d="M1836.6372,-375.6859C1728.486,-372.5433 1331.7259,-359.7316 1313.6546,-340.4388 1309.0971,-335.5732 1309.3946,-330.5669 1313.6546,-325.4388 1333.0734,-302.063 1419.0796,-293.7855 1469.4889,-290.9143"/>
<polygon fill="#000000" stroke="#000000" points="1469.8658,-294.3995 1479.6686,-290.3802 1469.499,-287.4091 1469.8658,-294.3995"/>
<text text-anchor="middle" x="1337.1546" y="-329.2388" font-family="Times,serif" font-size="14.00" fill="#000000">{c0, c3}</text>
</g>
<!-- 0&#45;&gt;1 -->
<g id="edge19" class="edge">
<title>0&#45;&gt;1</title>
<path fill="none" stroke="#000000" d="M1836.432,-375.4115C1737.1027,-371.5334 1399.1608,-357.1515 1383.6546,-340.4388 1356.0855,-310.7246 1423.9848,-297.7891 1469.5079,-292.5877"/>
<polygon fill="#000000" stroke="#000000" points="1470.1077,-296.0438 1479.6829,-291.5087 1469.3695,-289.0828 1470.1077,-296.0438"/>
<text text-anchor="middle" x="1427.6546" y="-329.2388" font-family="Times,serif" font-size="14.00" fill="#000000">{c0, c1, c2, c3}</text>
</g>
<!-- 0&#45;&gt;1 -->
<g id="edge21" class="edge">
<title>0&#45;&gt;1</title>
<path fill="none" stroke="#000000" d="M1836.4435,-375.8459C1755.0297,-373.7935 1517.549,-365.6755 1494.6546,-340.4388 1488.4609,-333.6114 1489.0516,-324.1971 1492.0259,-315.314"/>
<polygon fill="#000000" stroke="#000000" points="1495.2813,-316.6026 1495.9806,-306.0309 1488.8413,-313.8591 1495.2813,-316.6026"/>
<text text-anchor="middle" x="1528.1546" y="-329.2388" font-family="Times,serif" font-size="14.00" fill="#000000">{c0, c2, c3}</text>
</g>
<!-- 0&#45;&gt;1 -->
<g id="edge22" class="edge">
<title>0&#45;&gt;1</title>
<path fill="none" stroke="#000000" d="M1836.477,-374.4876C1775.7103,-369.8746 1630.585,-357.3975 1584.6546,-340.4388 1584.4746,-340.3723 1557.0666,-322.4422 1534.7939,-307.863"/>
<polygon fill="#000000" stroke="#000000" points="1536.5551,-304.8327 1526.2714,-302.2839 1532.7211,-310.6894 1536.5551,-304.8327"/>
<text text-anchor="middle" x="1598.1546" y="-329.2388" font-family="Times,serif" font-size="14.00" fill="#000000">{c0}</text>
</g>
<!-- 0&#45;&gt;1 -->
<g id="edge23" class="edge">
<title>0&#45;&gt;1</title>
<path fill="none" stroke="#000000" d="M1836.6813,-373.635C1784.3966,-367.9656 1671.188,-354.4793 1634.6546,-340.4388 1623.2629,-336.0608 1622.6218,-330.7921 1611.6546,-325.4388 1589.182,-314.4694 1562.5128,-305.3707 1541.6757,-299.0648"/>
<polygon fill="#000000" stroke="#000000" points="1542.5408,-295.6709 1531.959,-296.1975 1540.5596,-302.3847 1542.5408,-295.6709"/>
<text text-anchor="middle" x="1658.1546" y="-329.2388" font-family="Times,serif" font-size="14.00" fill="#000000">{c0, c1}</text>
</g>
<!-- 0&#45;&gt;1 -->
<g id="edge24" class="edge">
<title>0&#45;&gt;1</title>
<path fill="none" stroke="#000000" d="M1836.8814,-373.328C1804.542,-368.9112 1748.9661,-359.1881 1704.6546,-340.4388 1693.4153,-335.6832 1692.9404,-330.0831 1681.6546,-325.4388 1636.2281,-306.7451 1580.0339,-297.4031 1543.7788,-292.9965"/>
<polygon fill="#000000" stroke="#000000" points="1543.9893,-289.4977 1533.6547,-291.8315 1543.189,-296.4518 1543.9893,-289.4977"/>
<text text-anchor="middle" x="1738.1546" y="-329.2388" font-family="Times,serif" font-size="14.00" fill="#000000">{c0, c1, c2}</text>
</g>
<!-- 0&#45;&gt;1 -->
<g id="edge25" class="edge">
<title>0&#45;&gt;1</title>
<path fill="none" stroke="#000000" d="M1841.6064,-365.6219C1827.9124,-358.7356 1810.0485,-349.4458 1794.6546,-340.4388 1784.1212,-334.2756 1783.0915,-329.6975 1771.6546,-325.4388 1730.7289,-310.1993 1606.8558,-297.9175 1544.0393,-292.4756"/>
<polygon fill="#000000" stroke="#000000" points="1544.0394,-288.963 1533.7781,-291.6006 1543.4446,-295.9377 1544.0394,-288.963"/>
<text text-anchor="middle" x="1818.1546" y="-329.2388" font-family="Times,serif" font-size="14.00" fill="#000000">{c0, c2}</text>
</g>
<!-- 0&#45;&gt;1 -->
<g id="edge26" class="edge">
<title>0&#45;&gt;1</title>
<path fill="none" stroke="#000000" d="M1860.6426,-358.4562C1857.7595,-347.1282 1852.2102,-333.221 1841.6546,-325.4388 1818.0591,-308.0428 1626.0011,-295.8165 1543.7811,-291.3304"/>
<polygon fill="#000000" stroke="#000000" points="1543.7991,-287.8264 1533.6259,-290.7853 1543.4239,-294.8163 1543.7991,-287.8264"/>
<text text-anchor="middle" x="1887.1546" y="-329.2388" font-family="Times,serif" font-size="14.00" fill="#000000">{c0, c1, c3}</text>
</g>
<!-- 2 -->
<g id="node4" class="node">
<title>2</title>
<ellipse fill="none" stroke="#000000" cx="1505.6546" cy="-24.4388" rx="27" ry="18"/>
<text text-anchor="middle" x="1505.6546" y="-20.7388" font-family="Times,serif" font-size="14.00" fill="#000000">2</text>
</g>
<!-- 0&#45;&gt;2 -->
<g id="edge27" class="edge">
<title>0&#45;&gt;2</title>
<path fill="none" stroke="#000000" d="M1888.301,-368.6904C1901.5997,-363.1076 1916.8497,-354.1076 1924.6546,-340.4388 1927.9603,-334.6494 1926.08,-331.9513 1924.6546,-325.4388 1900.0367,-212.9628 1889.136,-172.298 1801.6546,-97.4388 1779.1206,-78.1561 1771.5961,-74.3825 1743.6546,-64.4388 1675.3957,-40.1472 1590.7596,-30.4216 1543.0154,-26.6676"/>
<polygon fill="#000000" stroke="#000000" points="1543.0698,-23.1622 1532.8388,-25.9146 1542.5532,-30.1431 1543.0698,-23.1622"/>
<text text-anchor="middle" x="1909.1546" y="-198.7388" font-family="Times,serif" font-size="14.00" fill="#000000">{c1}</text>
</g>
<!-- 0&#45;&gt;2 -->
<g id="edge28" class="edge">
<title>0&#45;&gt;2</title>
<path fill="none" stroke="#000000" d="M1888.733,-369.4046C1922.0237,-358.3555 1976.6546,-333.5097 1976.6546,-289.4388 1976.6546,-289.4388 1976.6546,-289.4388 1976.6546,-115.4388 1976.6546,-71.3167 1653.9089,-37.8858 1542.7483,-27.68"/>
<polygon fill="#000000" stroke="#000000" points="1542.9447,-24.1835 1532.6693,-26.7653 1542.312,-31.1549 1542.9447,-24.1835"/>
<text text-anchor="middle" x="2010.1546" y="-198.7388" font-family="Times,serif" font-size="14.00" fill="#000000">{c1, c2, c3}</text>
</g>
<!-- 0&#45;&gt;2 -->
<g id="edge29" class="edge">
<title>0&#45;&gt;2</title>
<path fill="none" stroke="#000000" d="M1889.7093,-371.6592C1947.1587,-360.3782 2079.6546,-329.9674 2079.6546,-289.4388 2079.6546,-289.4388 2079.6546,-289.4388 2079.6546,-115.4388 2079.6546,-60.9106 1670.3617,-33.5845 1543.0103,-26.4017"/>
<polygon fill="#000000" stroke="#000000" points="1543.1323,-22.9032 1532.9537,-25.8436 1542.7443,-29.8924 1543.1323,-22.9032"/>
<text text-anchor="middle" x="2103.1546" y="-198.7388" font-family="Times,serif" font-size="14.00" fill="#000000">{c1, c3}</text>
</g>
<!-- 0&#45;&gt;2 -->
<g id="edge30" class="edge">
<title>0&#45;&gt;2</title>
<path fill="none" stroke="#000000" d="M1890.7162,-374.3857C1964.3178,-368.0638 2162.6546,-345.799 2162.6546,-289.4388 2162.6546,-289.4388 2162.6546,-289.4388 2162.6546,-115.4388 2162.6546,-52.3809 1681.6536,-30.6099 1542.7775,-25.6382"/>
<polygon fill="#000000" stroke="#000000" points="1542.7509,-22.1352 1532.6346,-25.2834 1542.5061,-29.131 1542.7509,-22.1352"/>
<text text-anchor="middle" x="2186.1546" y="-198.7388" font-family="Times,serif" font-size="14.00" fill="#000000">{c1, c2}</text>
</g>
<!-- 0&#45;&gt;2 -->
<g id="edge31" class="edge">
<title>0&#45;&gt;2</title>
<path fill="none" stroke="#000000" d="M1890.9099,-375.0746C1939.0631,-372.1418 2042.0037,-363.5188 2125.6546,-340.4388 2181.5175,-325.0258 2245.6546,-347.389 2245.6546,-289.4388 2245.6546,-289.4388 2245.6546,-289.4388 2245.6546,-115.4388 2245.6546,-43.8613 1693.2106,-28.0382 1542.9778,-25.0585"/>
<polygon fill="#000000" stroke="#000000" points="1542.9342,-21.5572 1532.8692,-24.8656 1542.8006,-28.5559 1542.9342,-21.5572"/>
<text text-anchor="middle" x="2259.1546" y="-198.7388" font-family="Times,serif" font-size="14.00" fill="#000000">{c2}</text>
</g>
<!-- 0&#45;&gt;2 -->
<g id="edge32" class="edge">
<title>0&#45;&gt;2</title>
<path fill="none" stroke="#000000" d="M1890.5091,-374.4767C1957.82,-369.3965 2132.3644,-355.1781 2188.6546,-340.4388 2244.7148,-325.7597 2308.6546,-347.389 2308.6546,-289.4388 2308.6546,-289.4388 2308.6546,-289.4388 2308.6546,-115.4388 2308.6546,-37.3486 1701.3303,-26.2582 1543.0205,-24.6938"/>
<polygon fill="#000000" stroke="#000000" points="1542.8637,-21.1923 1532.832,-24.6003 1542.7994,-28.192 1542.8637,-21.1923"/>
<text text-anchor="middle" x="2332.1546" y="-198.7388" font-family="Times,serif" font-size="14.00" fill="#000000">{c2, c3}</text>
</g>
<!-- 0&#45;&gt;2 -->
<g id="edge33" class="edge">
<title>0&#45;&gt;2</title>
<path fill="none" stroke="#000000" d="M1890.6358,-374.8551C1966.9605,-370.2304 2183.3527,-356.0794 2252.6546,-340.4388 2316.8449,-325.9518 2391.6546,-355.2436 2391.6546,-289.4388 2391.6546,-289.4388 2391.6546,-289.4388 2391.6546,-115.4388 2391.6546,-42.9167 2307.9222,-77.8695 2236.6546,-64.4388 2101.5017,-38.9686 1672.4429,-27.9758 1542.9878,-25.1852"/>
<polygon fill="#000000" stroke="#000000" points="1542.8654,-21.6819 1532.7935,-24.9692 1542.717,-28.6804 1542.8654,-21.6819"/>
<text text-anchor="middle" x="2405.1546" y="-198.7388" font-family="Times,serif" font-size="14.00" fill="#000000">{c3}</text>
</g>
<!-- 1&#45;&gt;1 -->
<g id="edge52" class="edge">
<title>1&#45;&gt;1</title>
<path fill="none" stroke="#000000" d="M1531.1871,-297.1908C1542.1624,-297.929 1551.6546,-295.3451 1551.6546,-289.4388 1551.6546,-285.4705 1547.3697,-283.002 1541.2289,-282.0332"/>
<polygon fill="#000000" stroke="#000000" points="1541.3018,-278.5337 1531.1871,-281.6868 1541.0605,-285.5296 1541.3018,-278.5337"/>
<text text-anchor="middle" x="1558.6546" y="-285.7388" font-family="Times,serif" font-size="14.00" fill="#000000">{}</text>
</g>
<!-- 1&#45;&gt;2 -->
<g id="edge59" class="edge">
<title>1&#45;&gt;2</title>
<path fill="none" stroke="#000000" d="M1503.0715,-271.382C1496.9832,-238.7406 1486.328,-171.4437 1497.6546,-151.4388 1505.3157,-137.9079 1519.9935,-146.9697 1527.6546,-133.4388 1535.5378,-119.5156 1529.988,-113.2677 1527.6546,-97.4388 1525.378,-81.9947 1520.5298,-65.2872 1515.9626,-51.7582"/>
<polygon fill="#000000" stroke="#000000" points="1519.1884,-50.3806 1512.572,-42.1056 1512.584,-52.7005 1519.1884,-50.3806"/>
<text text-anchor="middle" x="1511.1546" y="-155.2388" font-family="Times,serif" font-size="14.00" fill="#000000">{c0}</text>
</g>
<!-- 1&#45;&gt;2 -->
<g id="edge60" class="edge">
<title>1&#45;&gt;2</title>
<path fill="none" stroke="#000000" d="M1513.7858,-271.8363C1526.5796,-238.1915 1551.4073,-162.3246 1543.6546,-97.4388 1541.8642,-82.4539 1542.0918,-78.0886 1535.6546,-64.4388 1533.0454,-58.9061 1529.5995,-53.3885 1525.9752,-48.2968"/>
<polygon fill="#000000" stroke="#000000" points="1528.661,-46.0464 1519.8236,-40.2026 1523.0879,-50.2821 1528.661,-46.0464"/>
<text text-anchor="middle" x="1566.1546" y="-155.2388" font-family="Times,serif" font-size="14.00" fill="#000000">{c0, c3}</text>
</g>
<!-- 1&#45;&gt;2 -->
<g id="edge61" class="edge">
<title>1&#45;&gt;2</title>
<path fill="none" stroke="#000000" d="M1522.2549,-274.5662C1543.4808,-253.0907 1580.3413,-211.0524 1593.6546,-166.4388 1607.9674,-118.4761 1562.9906,-70.6472 1532.1579,-44.5686"/>
<polygon fill="#000000" stroke="#000000" points="1534.236,-41.7465 1524.2833,-38.1138 1529.7984,-47.1601 1534.236,-41.7465"/>
<text text-anchor="middle" x="1619.1546" y="-155.2388" font-family="Times,serif" font-size="14.00" fill="#000000">{c0, c2}</text>
</g>
<!-- 1&#45;&gt;2 -->
<g id="edge62" class="edge">
<title>1&#45;&gt;2</title>
<path fill="none" stroke="#000000" d="M1530.222,-280.4711C1575.7431,-261.5724 1669.3683,-214.1751 1646.6546,-151.4388 1627.6598,-98.9742 1572.0837,-60.3421 1536.6433,-40.2031"/>
<polygon fill="#000000" stroke="#000000" points="1538.1118,-37.016 1527.6651,-35.2505 1534.7307,-43.1453 1538.1118,-37.016"/>
<text text-anchor="middle" x="1683.1546" y="-155.2388" font-family="Times,serif" font-size="14.00" fill="#000000">{c0, c2, c3}</text>
</g>
<!-- 1&#45;&gt;2 -->
<g id="edge63" class="edge">
<title>1&#45;&gt;2</title>
<path fill="none" stroke="#000000" d="M1533.2444,-284.8568C1599.2918,-272.1636 1762.5651,-232.0409 1720.6546,-151.4388 1684.5432,-81.9895 1592.4158,-47.3289 1541.2545,-32.9319"/>
<polygon fill="#000000" stroke="#000000" points="1541.8624,-29.4706 1531.2955,-30.2401 1540.0358,-36.2282 1541.8624,-29.4706"/>
<text text-anchor="middle" x="1739.1546" y="-155.2388" font-family="Times,serif" font-size="14.00" fill="#000000">{c2}</text>
</g>
<!-- 1&#45;&gt;2 -->
<g id="edge64" class="edge">
<title>1&#45;&gt;2</title>
<path fill="none" stroke="#000000" d="M1533.338,-286.474C1567.1509,-282.1024 1626.7899,-272.3214 1674.6546,-253.4388 1724.0822,-233.9396 1744.4467,-218.1522 1756.6546,-166.4388 1779.3686,-70.2208 1617.7069,-37.9514 1542.5874,-28.2247"/>
<polygon fill="#000000" stroke="#000000" points="1542.9422,-24.742 1532.5902,-26.9975 1542.0893,-31.6899 1542.9422,-24.742"/>
<text text-anchor="middle" x="1782.1546" y="-155.2388" font-family="Times,serif" font-size="14.00" fill="#000000">{c2, c3}</text>
</g>
<!-- 1&#45;&gt;2 -->
<g id="edge65" class="edge">
<title>1&#45;&gt;2</title>
<path fill="none" stroke="#000000" d="M1533.8648,-287.9487C1572.9356,-285.0505 1646.6134,-276.7298 1704.6546,-253.4388 1765.0351,-229.209 1833.0873,-212.1331 1809.6546,-151.4388 1788.9159,-97.7223 1766.6661,-86.9186 1713.6546,-64.4388 1657.0089,-40.4179 1585.5551,-30.7094 1542.8485,-26.8657"/>
<polygon fill="#000000" stroke="#000000" points="1542.8942,-23.3574 1532.6368,-26.0097 1542.3094,-30.3329 1542.8942,-23.3574"/>
<text text-anchor="middle" x="1827.1546" y="-155.2388" font-family="Times,serif" font-size="14.00" fill="#000000">{c3}</text>
</g>
<!-- 3 -->
<g id="node5" class="node">
<title>3</title>
<ellipse fill="none" stroke="#000000" cx="1073.6546" cy="-202.4388" rx="27" ry="18"/>
<text text-anchor="middle" x="1073.6546" y="-198.7388" font-family="Times,serif" font-size="14.00" fill="#000000">3</text>
</g>
<!-- 1&#45;&gt;3 -->
<g id="edge50" class="edge">
<title>1&#45;&gt;3</title>
<path fill="none" stroke="#000000" d="M1479.3051,-288.9166C1360.6833,-286.5213 895.7152,-275.7332 874.6546,-253.4388 870.0766,-248.5926 870.3807,-243.5553 874.6546,-238.4388 894.8698,-214.2385 984.6896,-206.2752 1036.4841,-203.6777"/>
<polygon fill="#000000" stroke="#000000" points="1036.783,-207.1677 1046.6123,-203.2136 1036.4626,-200.1751 1036.783,-207.1677"/>
<text text-anchor="middle" x="918.6546" y="-242.2388" font-family="Times,serif" font-size="14.00" fill="#000000">{c0, c1, c2, c3}</text>
</g>
<!-- 1&#45;&gt;3 -->
<g id="edge51" class="edge">
<title>1&#45;&gt;3</title>
<path fill="none" stroke="#000000" d="M1479.6526,-288.5847C1375.211,-285.1524 1002.6667,-271.667 985.6546,-253.4388 966.412,-232.8207 1005.4324,-218.0784 1037.5067,-209.9054"/>
<polygon fill="#000000" stroke="#000000" points="1038.6871,-213.2216 1047.5937,-207.4836 1037.0529,-206.415 1038.6871,-213.2216"/>
<text text-anchor="middle" x="1019.1546" y="-242.2388" font-family="Times,serif" font-size="14.00" fill="#000000">{c1, c2, c3}</text>
</g>
<!-- 1&#45;&gt;3 -->
<g id="edge53" class="edge">
<title>1&#45;&gt;3</title>
<path fill="none" stroke="#000000" d="M1479.4925,-289.2119C1389.2555,-288.1845 1103.5886,-282.6338 1075.6546,-253.4388 1069.8188,-247.3395 1068.0494,-238.7171 1068.128,-230.2941"/>
<polygon fill="#000000" stroke="#000000" points="1071.6175,-230.5661 1068.9915,-220.3018 1064.6435,-229.9634 1071.6175,-230.5661"/>
<text text-anchor="middle" x="1089.1546" y="-242.2388" font-family="Times,serif" font-size="14.00" fill="#000000">{c1}</text>
</g>
<!-- 1&#45;&gt;3 -->
<g id="edge54" class="edge">
<title>1&#45;&gt;3</title>
<path fill="none" stroke="#000000" d="M1479.4844,-289.206C1403.231,-288.1888 1188.6956,-282.7292 1125.6546,-253.4388 1112.6245,-247.3847 1100.9171,-236.6577 1091.9252,-226.5987"/>
<polygon fill="#000000" stroke="#000000" points="1094.4475,-224.1607 1085.3227,-218.7767 1089.0984,-228.6759 1094.4475,-224.1607"/>
<text text-anchor="middle" x="1149.1546" y="-242.2388" font-family="Times,serif" font-size="14.00" fill="#000000">{c1, c2}</text>
</g>
<!-- 1&#45;&gt;3 -->
<g id="edge55" class="edge">
<title>1&#45;&gt;3</title>
<path fill="none" stroke="#000000" d="M1479.3431,-287.8879C1413.5106,-283.8923 1247.6711,-272.2245 1195.6546,-253.4388 1184.1762,-249.2934 1183.5719,-243.8932 1172.6546,-238.4388 1152.0354,-228.1372 1127.7238,-219.2535 1108.3528,-212.8884"/>
<polygon fill="#000000" stroke="#000000" points="1109.3104,-209.5199 1098.7191,-209.7952 1107.1704,-216.1848 1109.3104,-209.5199"/>
<text text-anchor="middle" x="1229.1546" y="-242.2388" font-family="Times,serif" font-size="14.00" fill="#000000">{c0, c1, c3}</text>
</g>
<!-- 1&#45;&gt;3 -->
<g id="edge56" class="edge">
<title>1&#45;&gt;3</title>
<path fill="none" stroke="#000000" d="M1479.523,-288.6139C1436.8779,-286.5344 1352.1687,-279.2134 1285.6546,-253.4388 1274.2751,-249.0292 1273.9741,-243.0002 1262.6546,-238.4388 1212.3882,-218.1831 1149.9214,-209.1424 1110.9092,-205.2372"/>
<polygon fill="#000000" stroke="#000000" points="1110.8404,-201.7155 1100.5574,-204.2669 1110.1871,-208.6849 1110.8404,-201.7155"/>
<text text-anchor="middle" x="1309.1546" y="-242.2388" font-family="Times,serif" font-size="14.00" fill="#000000">{c0, c1}</text>
</g>
<!-- 1&#45;&gt;3 -->
<g id="edge57" class="edge">
<title>1&#45;&gt;3</title>
<path fill="none" stroke="#000000" d="M1480.1386,-285.94C1449.2821,-281.2352 1397.2506,-271.3188 1355.6546,-253.4388 1344.4425,-248.6193 1344.0849,-242.7152 1332.6546,-238.4388 1292.7621,-223.5139 1172.1982,-211.1268 1110.658,-205.5759"/>
<polygon fill="#000000" stroke="#000000" points="1110.8677,-202.0808 1100.5972,-204.6819 1110.2481,-209.0533 1110.8677,-202.0808"/>
<text text-anchor="middle" x="1389.1546" y="-242.2388" font-family="Times,serif" font-size="14.00" fill="#000000">{c0, c1, c2}</text>
</g>
<!-- 1&#45;&gt;3 -->
<g id="edge58" class="edge">
<title>1&#45;&gt;3</title>
<path fill="none" stroke="#000000" d="M1486.1845,-277.6647C1474.2778,-270.7401 1459.0278,-261.7401 1445.6546,-253.4388 1435.2858,-247.0025 1434.1586,-242.5127 1422.6546,-238.4388 1365.9653,-218.3637 1189.0876,-207.8393 1111.1611,-204.0759"/>
<polygon fill="#000000" stroke="#000000" points="1110.9986,-200.5645 1100.8448,-203.5895 1110.6688,-207.5567 1110.9986,-200.5645"/>
<text text-anchor="middle" x="1469.1546" y="-242.2388" font-family="Times,serif" font-size="14.00" fill="#000000">{c1, c3}</text>
</g>
<!-- 2&#45;&gt;2 -->
<g id="edge82" class="edge">
<title>2&#45;&gt;2</title>
<path fill="none" stroke="#000000" d="M1532.8954,-25.9373C1542.6785,-25.9696 1550.6546,-25.4701 1550.6546,-24.4388 1550.6546,-23.8104 1547.6928,-23.3794 1543.1651,-23.1459"/>
<polygon fill="#000000" stroke="#000000" points="1542.9635,-19.6413 1532.8954,-22.9403 1542.8233,-26.6399 1542.9635,-19.6413"/>
<text text-anchor="middle" x="1564.1546" y="-20.7388" font-family="Times,serif" font-size="14.00" fill="#000000">{c0}</text>
</g>
<!-- 2&#45;&gt;2 -->
<g id="edge83" class="edge">
<title>2&#45;&gt;2</title>
<path fill="none" stroke="#000000" d="M1532.4063,-27.0514C1554.0939,-28.0284 1577.6546,-27.1576 1577.6546,-24.4388 1577.6546,-22.1449 1560.8814,-21.1665 1542.6125,-21.5036"/>
<polygon fill="#000000" stroke="#000000" points="1542.2907,-18.0119 1532.4063,-21.8263 1542.5119,-25.0084 1542.2907,-18.0119"/>
<text text-anchor="middle" x="1591.1546" y="-20.7388" font-family="Times,serif" font-size="14.00" fill="#000000">{c1}</text>
</g>
<!-- 2&#45;&gt;2 -->
<g id="edge84" class="edge">
<title>2&#45;&gt;2</title>
<path fill="none" stroke="#000000" d="M1532.514,-27.8138C1564.1546,-30.0638 1604.6546,-28.9388 1604.6546,-24.4388 1604.6546,-20.4134 1572.2471,-19.0886 1542.763,-20.4645"/>
<polygon fill="#000000" stroke="#000000" points="1542.2926,-16.9859 1532.514,-21.0638 1542.7013,-23.974 1542.2926,-16.9859"/>
<text text-anchor="middle" x="1628.1546" y="-20.7388" font-family="Times,serif" font-size="14.00" fill="#000000">{c0, c3}</text>
</g>
<!-- 2&#45;&gt;2 -->
<g id="edge85" class="edge">
<title>2&#45;&gt;2</title>
<path fill="none" stroke="#000000" d="M1532.375,-28.1821C1578.129,-32.1397 1651.6546,-30.8919 1651.6546,-24.4388 1651.6546,-18.4394 1588.105,-16.9391 1542.4029,-19.9379"/>
<polygon fill="#000000" stroke="#000000" points="1542.0829,-16.452 1532.375,-20.6955 1542.6103,-23.4321 1542.0829,-16.452"/>
<text text-anchor="middle" x="1675.1546" y="-20.7388" font-family="Times,serif" font-size="14.00" fill="#000000">{c0, c2}</text>
</g>
<!-- 2&#45;&gt;2 -->
<g id="edge86" class="edge">
<title>2&#45;&gt;2</title>
<path fill="none" stroke="#000000" d="M1532.1371,-28.474C1590.0326,-34.1823 1698.6546,-32.8372 1698.6546,-24.4388 1698.6546,-16.5161 1601.989,-14.8703 1542.4341,-19.5015"/>
<polygon fill="#000000" stroke="#000000" points="1541.7935,-16.0442 1532.1371,-20.4036 1542.4044,-23.0174 1541.7935,-16.0442"/>
<text text-anchor="middle" x="1732.1546" y="-20.7388" font-family="Times,serif" font-size="14.00" fill="#000000">{c1, c2, c3}</text>
</g>
<!-- 2&#45;&gt;2 -->
<g id="edge87" class="edge">
<title>2&#45;&gt;2</title>
<path fill="none" stroke="#000000" d="M1532.1682,-28.6365C1604.699,-36.2209 1765.6546,-34.8216 1765.6546,-24.4388 1765.6546,-14.5224 1618.8351,-12.8006 1542.4555,-19.2733"/>
<polygon fill="#000000" stroke="#000000" points="1541.7964,-15.8198 1532.1682,-20.2411 1542.452,-22.789 1541.7964,-15.8198"/>
<text text-anchor="middle" x="1799.1546" y="-20.7388" font-family="Times,serif" font-size="14.00" fill="#000000">{c0, c2, c3}</text>
</g>
<!-- 2&#45;&gt;2 -->
<g id="edge88" class="edge">
<title>2&#45;&gt;2</title>
<path fill="none" stroke="#000000" d="M1532.0477,-28.7839C1617.5518,-38.2465 1832.6546,-36.7982 1832.6546,-24.4388 1832.6546,-12.5381 1633.2203,-10.7536 1542.0845,-19.0853"/>
<polygon fill="#000000" stroke="#000000" points="1541.6477,-15.6115 1532.0477,-20.0937 1542.3476,-22.5764 1541.6477,-15.6115"/>
<text text-anchor="middle" x="1856.1546" y="-20.7388" font-family="Times,serif" font-size="14.00" fill="#000000">{c1, c3}</text>
</g>
<!-- 2&#45;&gt;2 -->
<g id="edge89" class="edge">
<title>2&#45;&gt;2</title>
<path fill="none" stroke="#000000" d="M1531.9987,-29.0043C1626.5491,-40.2575 1879.6546,-38.7357 1879.6546,-24.4388 1879.6546,-10.6306 1643.5556,-8.739 1542.2331,-18.7642"/>
<polygon fill="#000000" stroke="#000000" points="1541.5634,-15.3162 1531.9987,-19.8733 1542.3176,-22.2754 1541.5634,-15.3162"/>
<text text-anchor="middle" x="1903.1546" y="-20.7388" font-family="Times,serif" font-size="14.00" fill="#000000">{c1, c2}</text>
</g>
<!-- 2&#45;&gt;2 -->
<g id="edge90" class="edge">
<title>2&#45;&gt;2</title>
<path fill="none" stroke="#000000" d="M1531.9435,-29.1973C1635.1623,-42.2671 1926.6546,-40.681 1926.6546,-24.4388 1926.6546,-8.7042 1653.0959,-6.7239 1542.1572,-18.498"/>
<polygon fill="#000000" stroke="#000000" points="1541.4747,-15.0535 1531.9435,-19.6803 1542.2797,-22.0071 1541.4747,-15.0535"/>
<text text-anchor="middle" x="1960.1546" y="-20.7388" font-family="Times,serif" font-size="14.00" fill="#000000">{c0, c1, c2}</text>
</g>
<!-- 2&#45;&gt;2 -->
<g id="edge91" class="edge">
<title>2&#45;&gt;2</title>
<path fill="none" stroke="#000000" d="M1531.8027,-29.297C1645.8163,-44.2809 1993.6546,-42.6615 1993.6546,-24.4388 1993.6546,-6.7322 1665.2391,-4.7018 1542.0388,-18.3475"/>
<polygon fill="#000000" stroke="#000000" points="1541.3123,-14.9096 1531.8027,-19.5806 1542.1495,-21.8594 1541.3123,-14.9096"/>
<text text-anchor="middle" x="2027.1546" y="-20.7388" font-family="Times,serif" font-size="14.00" fill="#000000">{c0, c1, c3}</text>
</g>
<!-- 2&#45;&gt;2 -->
<g id="edge92" class="edge">
<title>2&#45;&gt;2</title>
<path fill="none" stroke="#000000" d="M1531.799,-29.4087C1656.1746,-46.2908 2060.6546,-44.6341 2060.6546,-24.4388 2060.6546,-4.7563 1676.4539,-2.6829 1541.8035,-18.2188"/>
<polygon fill="#000000" stroke="#000000" points="1541.2879,-14.7559 1531.799,-19.4689 1542.1558,-21.7019 1541.2879,-14.7559"/>
<text text-anchor="middle" x="2074.1546" y="-20.7388" font-family="Times,serif" font-size="14.00" fill="#000000">{c2}</text>
</g>
<!-- 2&#45;&gt;2 -->
<g id="edge93" class="edge">
<title>2&#45;&gt;2</title>
<path fill="none" stroke="#000000" d="M1531.8902,-29.6243C1661.878,-48.2923 2087.6546,-46.5638 2087.6546,-24.4388 2087.6546,-2.854 1682.4141,-.6818 1541.9292,-17.9224"/>
<polygon fill="#000000" stroke="#000000" points="1541.3435,-14.4694 1531.8902,-19.2533 1542.2635,-21.4087 1541.3435,-14.4694"/>
<text text-anchor="middle" x="2131.6546" y="-20.7388" font-family="Times,serif" font-size="14.00" fill="#000000">{c0, c1, c2, c3}</text>
</g>
<!-- 2&#45;&gt;2 -->
<g id="edge94" class="edge">
<title>2&#45;&gt;2</title>
<path fill="none" stroke="#000000" d="M1531.8795,-29.6682C1673.8717,-50.303 2175.6546,-48.5599 2175.6546,-24.4388 2175.6546,-.8595 1696.1596,1.3358 1541.9821,-17.8529"/>
<polygon fill="#000000" stroke="#000000" points="1541.3248,-14.4096 1531.8795,-19.2094 1542.2564,-21.3474 1541.3248,-14.4096"/>
<text text-anchor="middle" x="2182.6546" y="-20.7388" font-family="Times,serif" font-size="14.00" fill="#000000">{}</text>
</g>
<!-- 2&#45;&gt;2 -->
<g id="edge95" class="edge">
<title>2&#45;&gt;2</title>
<path fill="none" stroke="#000000" d="M1531.8737,-29.8592C1678.3039,-52.3042 2193.6546,-50.4974 2193.6546,-24.4388 2193.6546,1.0599 1700.21,3.3378 1541.8137,-17.6053"/>
<polygon fill="#000000" stroke="#000000" points="1541.2815,-14.1457 1531.8737,-19.0184 1542.2668,-21.076 1541.2815,-14.1457"/>
<text text-anchor="middle" x="2217.1546" y="-20.7388" font-family="Times,serif" font-size="14.00" fill="#000000">{c2, c3}</text>
</g>
<!-- 2&#45;&gt;2 -->
<g id="edge96" class="edge">
<title>2&#45;&gt;2</title>
<path fill="none" stroke="#000000" d="M1531.6554,-29.9422C1685.1584,-54.3104 2240.6546,-52.4759 2240.6546,-24.4388 2240.6546,3.0233 1707.7088,5.3465 1541.5984,-17.4693"/>
<polygon fill="#000000" stroke="#000000" points="1541.0378,-14.014 1531.6554,-18.9354 1542.0591,-20.9391 1541.0378,-14.014"/>
<text text-anchor="middle" x="2254.1546" y="-20.7388" font-family="Times,serif" font-size="14.00" fill="#000000">{c3}</text>
</g>
<!-- 2&#45;&gt;2 -->
<g id="edge97" class="edge">
<title>2&#45;&gt;2</title>
<path fill="none" stroke="#000000" d="M1531.5157,-30.0638C1690.2132,-56.3138 2267.6546,-54.4388 2267.6546,-24.4388 2267.6546,4.9606 1713.102,7.3499 1541.5423,-17.2711"/>
<polygon fill="#000000" stroke="#000000" points="1540.8671,-13.8337 1531.5157,-18.8138 1541.9317,-20.7523 1540.8671,-13.8337"/>
<text text-anchor="middle" x="2291.1546" y="-20.7388" font-family="Times,serif" font-size="14.00" fill="#000000">{c0, c1}</text>
</g>
<!-- 3&#45;&gt;2 -->
<g id="edge75" class="edge">
<title>3&#45;&gt;2</title>
<path fill="none" stroke="#000000" d="M1061.4228,-186.324C1047.5374,-167.8634 1026.5521,-139.3878 1024.6546,-133.4388 1019.7927,-118.1954 1015.5411,-110.5896 1024.6546,-97.4388 1037.6323,-78.712 1051.9002,-88.8391 1072.6546,-79.4388 1085.5147,-73.6141 1087.0755,-68.3011 1100.6546,-64.4388 1224.0115,-29.3521 1261.3918,-62.319 1388.6546,-46.4388 1416.0443,-43.021 1446.6974,-37.1821 1469.7553,-32.3782"/>
<polygon fill="#000000" stroke="#000000" points="1470.7181,-35.7521 1479.776,-30.2563 1469.2679,-28.9039 1470.7181,-35.7521"/>
<text text-anchor="middle" x="1038.1546" y="-111.7388" font-family="Times,serif" font-size="14.00" fill="#000000">{c0}</text>
</g>
<!-- 3&#45;&gt;2 -->
<g id="edge76" class="edge">
<title>3&#45;&gt;2</title>
<path fill="none" stroke="#000000" d="M1072.313,-184.1699C1071.5188,-162.2344 1072.8273,-124.9629 1087.6546,-97.4388 1098.2631,-77.746 1104.9805,-72.9784 1125.6546,-64.4388 1179.7986,-42.0741 1330.546,-53.8644 1388.6546,-46.4388 1416.0341,-42.94 1446.6876,-37.1046 1469.7483,-32.3226"/>
<polygon fill="#000000" stroke="#000000" points="1470.7065,-35.6977 1479.7704,-30.2118 1469.2637,-28.848 1470.7065,-35.6977"/>
<text text-anchor="middle" x="1101.1546" y="-111.7388" font-family="Times,serif" font-size="14.00" fill="#000000">{c1}</text>
</g>
<!-- 3&#45;&gt;2 -->
<g id="edge77" class="edge">
<title>3&#45;&gt;2</title>
<path fill="none" stroke="#000000" d="M1083.1224,-185.5599C1096.1729,-163.3712 1121.4207,-124.0909 1150.6546,-97.4388 1171.7208,-78.2331 1178.588,-73.3853 1205.6546,-64.4388 1283.2514,-38.7901 1307.7508,-58.0012 1388.6546,-46.4388 1415.9791,-42.5337 1446.635,-36.7159 1469.7105,-32.0437"/>
<polygon fill="#000000" stroke="#000000" points="1470.6463,-35.4248 1479.7402,-29.9887 1469.2412,-28.5673 1470.6463,-35.4248"/>
<text text-anchor="middle" x="1174.1546" y="-111.7388" font-family="Times,serif" font-size="14.00" fill="#000000">{c0, c3}</text>
</g>
<!-- 3&#45;&gt;2 -->
<g id="edge78" class="edge">
<title>3&#45;&gt;2</title>
<path fill="none" stroke="#000000" d="M1096.2888,-192.2061C1122.0537,-180.0367 1164.817,-158.2259 1197.6546,-133.4388 1215.7145,-119.8065 1215.8196,-111.364 1233.6546,-97.4388 1256.1239,-79.8953 1261.9676,-74.4612 1288.6546,-64.4388 1330.9303,-48.562 1344.2416,-54.6114 1388.6546,-46.4388 1415.8009,-41.4435 1446.4646,-35.673 1469.5883,-31.2954"/>
<polygon fill="#000000" stroke="#000000" points="1470.469,-34.6909 1479.6424,-29.3899 1469.1655,-27.8133 1470.469,-34.6909"/>
<text text-anchor="middle" x="1257.1546" y="-111.7388" font-family="Times,serif" font-size="14.00" fill="#000000">{c1, c3}</text>
</g>
<!-- 3&#45;&gt;2 -->
<g id="edge79" class="edge">
<title>3&#45;&gt;2</title>
<path fill="none" stroke="#000000" d="M1099.8301,-197.7642C1140.8064,-189.5901 1221.5238,-169.9837 1280.6546,-133.4388 1299.9026,-121.5429 1297.9788,-110.2143 1316.6546,-97.4388 1346.7121,-76.8775 1357.7811,-77.8107 1391.6546,-64.4388 1418.1662,-53.9731 1448.654,-43.3473 1471.4264,-35.6804"/>
<polygon fill="#000000" stroke="#000000" points="1472.618,-38.9725 1480.9914,-32.4812 1470.3976,-32.334 1472.618,-38.9725"/>
<text text-anchor="middle" x="1350.1546" y="-111.7388" font-family="Times,serif" font-size="14.00" fill="#000000">{c0, c1, c3}</text>
</g>
<!-- 3&#45;&gt;2 -->
<g id="edge80" class="edge">
<title>3&#45;&gt;2</title>
<path fill="none" stroke="#000000" d="M1100.7717,-201.5369C1157.018,-198.6094 1289.0165,-186.1822 1383.6546,-133.4388 1403.4197,-122.4234 1403.4211,-113.2019 1419.6546,-97.4388 1434.9929,-82.545 1438.4488,-78.3836 1454.6546,-64.4388 1462.5044,-57.6841 1471.3014,-50.6165 1479.3501,-44.3339"/>
<polygon fill="#000000" stroke="#000000" points="1481.6228,-47.0009 1487.3957,-38.117 1477.3427,-41.4619 1481.6228,-47.0009"/>
<text text-anchor="middle" x="1433.1546" y="-111.7388" font-family="Times,serif" font-size="14.00" fill="#000000">{c3}</text>
</g>
<!-- 3&#45;&gt;2 -->
<g id="edge81" class="edge">
<title>3&#45;&gt;2</title>
<path fill="none" stroke="#000000" d="M1100.5616,-200.7988C1177.0021,-195.6365 1393.3696,-177.3801 1446.6546,-133.4388 1472.4806,-112.1415 1488.706,-76.477 1497.462,-51.7712"/>
<polygon fill="#000000" stroke="#000000" points="1500.7938,-52.8439 1500.6614,-42.2498 1494.1584,-50.6142 1500.7938,-52.8439"/>
<text text-anchor="middle" x="1500.1546" y="-111.7388" font-family="Times,serif" font-size="14.00" fill="#000000">{c0, c1}</text>
</g>
<!-- 3&#45;&gt;3 -->
<g id="edge70" class="edge">
<title>3&#45;&gt;3</title>
<path fill="none" stroke="#000000" d="M1098.1871,-210.1908C1109.1624,-210.929 1118.6546,-208.3451 1118.6546,-202.4388 1118.6546,-198.4705 1114.3697,-196.002 1108.2289,-195.0332"/>
<polygon fill="#000000" stroke="#000000" points="1108.3018,-191.5337 1098.1871,-194.6868 1108.0605,-198.5296 1108.3018,-191.5337"/>
<text text-anchor="middle" x="1125.6546" y="-198.7388" font-family="Times,serif" font-size="14.00" fill="#000000">{}</text>
</g>
<!-- 4 -->
<g id="node6" class="node">
<title>4</title>
<ellipse fill="none" stroke="#000000" cx="644.6546" cy="-115.4388" rx="27" ry="18"/>
<text text-anchor="middle" x="644.6546" y="-111.7388" font-family="Times,serif" font-size="14.00" fill="#000000">4</text>
</g>
<!-- 3&#45;&gt;4 -->
<g id="edge66" class="edge">
<title>3&#45;&gt;4</title>
<path fill="none" stroke="#000000" d="M1046.4549,-201.9807C925.1677,-199.8082 438.6443,-189.6664 416.6546,-166.4388 412.0713,-161.5975 412.3237,-156.5071 416.6546,-151.4388 428.8978,-137.1108 546.2628,-124.4009 607.6447,-118.6679"/>
<polygon fill="#000000" stroke="#000000" points="608.0665,-122.144 617.7045,-117.744 607.4263,-115.1733 608.0665,-122.144"/>
<text text-anchor="middle" x="440.1546" y="-155.2388" font-family="Times,serif" font-size="14.00" fill="#000000">{c0, c2}</text>
</g>
<!-- 3&#45;&gt;4 -->
<g id="edge67" class="edge">
<title>3&#45;&gt;4</title>
<path fill="none" stroke="#000000" d="M1046.3696,-201.7946C933.2431,-198.9934 506.0662,-187.0774 486.6546,-166.4388 482.0871,-161.5826 482.497,-156.6502 486.6546,-151.4388 501.4946,-132.8372 565.7133,-123.0998 607.5722,-118.6343"/>
<polygon fill="#000000" stroke="#000000" points="608.0921,-122.0996 617.6888,-117.6103 607.3872,-115.1352 608.0921,-122.0996"/>
<text text-anchor="middle" x="510.1546" y="-155.2388" font-family="Times,serif" font-size="14.00" fill="#000000">{c2, c3}</text>
</g>
<!-- 3&#45;&gt;4 -->
<g id="edge68" class="edge">
<title>3&#45;&gt;4</title>
<path fill="none" stroke="#000000" d="M1046.5054,-201.5649C942.3792,-198.0836 573.5127,-184.5116 556.6546,-166.4388 537.4175,-145.8156 576.4365,-131.0745 608.509,-122.9033"/>
<polygon fill="#000000" stroke="#000000" points="609.6886,-126.2196 618.5954,-120.482 608.0546,-119.413 609.6886,-126.2196"/>
<text text-anchor="middle" x="590.1546" y="-155.2388" font-family="Times,serif" font-size="14.00" fill="#000000">{c0, c1, c2}</text>
</g>
<!-- 3&#45;&gt;4 -->
<g id="edge69" class="edge">
<title>3&#45;&gt;4</title>
<path fill="none" stroke="#000000" d="M1046.4315,-202.1885C956.685,-201.089 674.2878,-195.3419 646.6546,-166.4388 640.8211,-160.3373 639.0523,-151.7143 639.1309,-143.2915"/>
<polygon fill="#000000" stroke="#000000" points="642.6203,-143.5638 639.9938,-133.2997 635.6462,-142.9614 642.6203,-143.5638"/>
<text text-anchor="middle" x="690.6546" y="-155.2388" font-family="Times,serif" font-size="14.00" fill="#000000">{c0, c1, c2, c3}</text>
</g>
<!-- 3&#45;&gt;4 -->
<g id="edge71" class="edge">
<title>3&#45;&gt;4</title>
<path fill="none" stroke="#000000" d="M1046.396,-200.9482C979.8444,-197.0515 810.6435,-185.5216 757.6546,-166.4388 746.1725,-162.3038 745.484,-157.0658 734.6546,-151.4388 716.6789,-142.0986 695.7089,-133.5826 678.535,-127.1807"/>
<polygon fill="#000000" stroke="#000000" points="679.5071,-123.8096 668.9132,-123.6655 677.1049,-130.3846 679.5071,-123.8096"/>
<text text-anchor="middle" x="791.1546" y="-155.2388" font-family="Times,serif" font-size="14.00" fill="#000000">{c1, c2, c3}</text>
</g>
<!-- 3&#45;&gt;4 -->
<g id="edge72" class="edge">
<title>3&#45;&gt;4</title>
<path fill="none" stroke="#000000" d="M1046.6351,-199.5661C994.8597,-193.8273 883.6142,-180.3008 847.6546,-166.4388 836.2674,-162.0492 835.9531,-156.0521 824.6546,-151.4388 777.5268,-132.1961 719.1327,-122.951 681.8794,-118.719"/>
<polygon fill="#000000" stroke="#000000" points="681.8123,-115.1919 671.4965,-117.6075 681.0671,-122.1522 681.8123,-115.1919"/>
<text text-anchor="middle" x="881.1546" y="-155.2388" font-family="Times,serif" font-size="14.00" fill="#000000">{c0, c2, c3}</text>
</g>
<!-- 3&#45;&gt;4 -->
<g id="edge73" class="edge">
<title>3&#45;&gt;4</title>
<path fill="none" stroke="#000000" d="M1047.2531,-198.0409C1019.2217,-192.7844 974.0331,-182.6119 937.6546,-166.4388 926.503,-161.481 926.0967,-155.6834 914.6546,-151.4388 872.7603,-135.8976 745.5848,-123.6836 681.8674,-118.3535"/>
<polygon fill="#000000" stroke="#000000" points="682.0951,-114.8605 671.8416,-117.528 681.5206,-121.8369 682.0951,-114.8605"/>
<text text-anchor="middle" x="961.1546" y="-155.2388" font-family="Times,serif" font-size="14.00" fill="#000000">{c1, c2}</text>
</g>
<!-- 3&#45;&gt;4 -->
<g id="edge74" class="edge">
<title>3&#45;&gt;4</title>
<path fill="none" stroke="#000000" d="M1052.3126,-191.3447C1039.2704,-184.4307 1022.3319,-175.2094 1007.6546,-166.4388 997.1785,-160.1787 996.1531,-155.5282 984.6546,-151.4388 929.5716,-131.8488 757.9486,-121.0916 681.7481,-117.173"/>
<polygon fill="#000000" stroke="#000000" points="681.8144,-113.672 671.6512,-116.6652 681.4628,-120.6631 681.8144,-113.672"/>
<text text-anchor="middle" x="1021.1546" y="-155.2388" font-family="Times,serif" font-size="14.00" fill="#000000">{c2}</text>
</g>
<!-- 4&#45;&gt;2 -->
<g id="edge11" class="edge">
<title>4&#45;&gt;2</title>
<path fill="none" stroke="#000000" d="M639.4155,-97.4608C637.4013,-86.4284 637.2829,-72.8493 645.6546,-64.4388 660.2191,-49.807 1368.1235,-48.6034 1388.6546,-46.4388 1416.1046,-43.5447 1446.755,-37.6831 1469.7967,-32.7377"/>
<polygon fill="#000000" stroke="#000000" points="1470.79,-36.1032 1479.8091,-30.5439 1469.2917,-29.2654 1470.79,-36.1032"/>
<text text-anchor="middle" x="659.1546" y="-68.2388" font-family="Times,serif" font-size="14.00" fill="#000000">{c0}</text>
</g>
<!-- 4&#45;&gt;2 -->
<g id="edge12" class="edge">
<title>4&#45;&gt;2</title>
<path fill="none" stroke="#000000" d="M655.8848,-98.7813C665.0212,-86.802 679.0869,-71.5548 695.6546,-64.4388 766.4286,-34.0408 1312.0603,-54.5818 1388.6546,-46.4388 1416.102,-43.5208 1446.7526,-37.6602 1469.7949,-32.7213"/>
<polygon fill="#000000" stroke="#000000" points="1470.7868,-36.0871 1479.8077,-30.5308 1469.2907,-29.2489 1470.7868,-36.0871"/>
<text text-anchor="middle" x="709.1546" y="-68.2388" font-family="Times,serif" font-size="14.00" fill="#000000">{c1}</text>
</g>
<!-- 4&#45;&gt;2 -->
<g id="edge13" class="edge">
<title>4&#45;&gt;2</title>
<path fill="none" stroke="#000000" d="M667.6134,-105.8926C683.3847,-99.0823 704.6434,-89.3993 722.6546,-79.4388 733.3343,-73.5327 734.0063,-68.0796 745.6546,-64.4388 813.8723,-43.1163 1317.5904,-54.0665 1388.6546,-46.4388 1416.0991,-43.4931 1446.7498,-37.6337 1469.7929,-32.7022"/>
<polygon fill="#000000" stroke="#000000" points="1470.7831,-36.0686 1479.8061,-30.5155 1469.2896,-29.2297 1470.7831,-36.0686"/>
<text text-anchor="middle" x="769.1546" y="-68.2388" font-family="Times,serif" font-size="14.00" fill="#000000">{c0, c2}</text>
</g>
<!-- 4&#45;&gt;2 -->
<g id="edge14" class="edge">
<title>4&#45;&gt;2</title>
<path fill="none" stroke="#000000" d="M671.1843,-111.7679C701.4908,-106.9491 752.1231,-96.9711 792.6546,-79.4388 803.8556,-74.5937 804.0126,-68.0995 815.6546,-64.4388 876.4195,-45.3318 1325.332,-53.345 1388.6546,-46.4388 1416.094,-43.4462 1446.7449,-37.5889 1469.7894,-32.6701"/>
<polygon fill="#000000" stroke="#000000" points="1470.7769,-36.0372 1479.8033,-30.4898 1469.2876,-29.1974 1470.7769,-36.0372"/>
<text text-anchor="middle" x="839.1546" y="-68.2388" font-family="Times,serif" font-size="14.00" fill="#000000">{c1, c2}</text>
</g>
<!-- 4&#45;&gt;2 -->
<g id="edge15" class="edge">
<title>4&#45;&gt;2</title>
<path fill="none" stroke="#000000" d="M671.7637,-114.5313C713.9418,-112.3413 797.2265,-104.8748 862.6546,-79.4388 874.0293,-75.0167 874.0206,-68.125 885.6546,-64.4388 992.2799,-30.6554 1277.4914,-58.8083 1388.6546,-46.4388 1416.0874,-43.3863 1446.7386,-37.5315 1469.7849,-32.629"/>
<polygon fill="#000000" stroke="#000000" points="1470.7688,-35.997 1479.7997,-30.4569 1469.285,-29.1561 1470.7688,-35.997"/>
<text text-anchor="middle" x="919.1546" y="-68.2388" font-family="Times,serif" font-size="14.00" fill="#000000">{c0, c1, c2}</text>
</g>
<!-- 4&#45;&gt;2 -->
<g id="edge16" class="edge">
<title>4&#45;&gt;2</title>
<path fill="none" stroke="#000000" d="M671.7031,-113.8689C736.9016,-109.8307 901.1436,-98.0744 952.6546,-79.4388 964.1307,-75.287 964.035,-68.1702 975.6546,-64.4388 1063.1202,-36.3509 1297.3934,-56.9535 1388.6546,-46.4388 1416.0753,-43.2795 1446.7271,-37.4294 1469.7766,-32.5557"/>
<polygon fill="#000000" stroke="#000000" points="1470.7542,-35.9254 1479.7931,-30.3983 1469.2803,-29.0824 1470.7542,-35.9254"/>
<text text-anchor="middle" x="989.1546" y="-68.2388" font-family="Times,serif" font-size="14.00" fill="#000000">{c2}</text>
</g>
<!-- 4&#45;&gt;2 -->
<g id="edge17" class="edge">
<title>4&#45;&gt;2</title>
<path fill="none" stroke="#000000" d="M671.7532,-114.3731C744.2952,-111.2578 941.5356,-100.9943 1002.6546,-79.4388 1014.1638,-75.3797 1014.0462,-68.205 1025.6546,-64.4388 1102.4783,-39.5142 1308.4477,-55.9234 1388.6546,-46.4388 1416.0657,-43.1974 1446.7179,-37.3508 1469.77,-32.4993"/>
<polygon fill="#000000" stroke="#000000" points="1470.7429,-35.8704 1479.7878,-30.3532 1469.2765,-29.0257 1470.7429,-35.8704"/>
<text text-anchor="middle" x="1049.1546" y="-68.2388" font-family="Times,serif" font-size="14.00" fill="#000000">{c0, c1}</text>
</g>
<!-- 4&#45;&gt;4 -->
<g id="edge2" class="edge">
<title>4&#45;&gt;4</title>
<path fill="none" stroke="#000000" d="M669.1871,-123.1908C680.1624,-123.929 689.6546,-121.3451 689.6546,-115.4388 689.6546,-111.4705 685.3697,-109.002 679.2289,-108.0332"/>
<polygon fill="#000000" stroke="#000000" points="679.3018,-104.5337 669.1871,-107.6868 679.0605,-111.5296 679.3018,-104.5337"/>
<text text-anchor="middle" x="696.6546" y="-111.7388" font-family="Times,serif" font-size="14.00" fill="#000000">{}</text>
</g>
<!-- 5 -->
<g id="node7" class="node">
<title>5</title>
<ellipse fill="none" stroke="#000000" cx="309.6546" cy="-24.4388" rx="18" ry="18"/>
<ellipse fill="none" stroke="#000000" cx="309.6546" cy="-24.4388" rx="22" ry="22"/>
<text text-anchor="middle" x="309.6546" y="-20.7388" font-family="Times,serif" font-size="14.00" fill="#000000">5</text>
</g>
<!-- 4&#45;&gt;5 -->
<g id="edge3" class="edge">
<title>4&#45;&gt;5</title>
<path fill="none" stroke="#000000" d="M617.3615,-114.9379C497.8925,-112.615 26.0128,-102.0322 4.6546,-79.4388 -33.7604,-38.8022 191.2834,-27.8959 277.2796,-25.2311"/>
<polygon fill="#000000" stroke="#000000" points="277.6254,-28.7226 287.5192,-24.9327 277.4214,-21.7256 277.6254,-28.7226"/>
<text text-anchor="middle" x="38.1546" y="-68.2388" font-family="Times,serif" font-size="14.00" fill="#000000">{c0, c1, c3}</text>
</g>
<!-- 4&#45;&gt;5 -->
<g id="edge4" class="edge">
<title>4&#45;&gt;5</title>
<path fill="none" stroke="#000000" d="M617.6372,-114.6859C509.486,-111.5433 112.7259,-98.7316 94.6546,-79.4388 90.0971,-74.5732 90.3934,-69.5659 94.6546,-64.4388 117.5192,-36.928 223.2145,-28.2449 277.4113,-25.5779"/>
<polygon fill="#000000" stroke="#000000" points="277.6924,-29.0689 287.5242,-25.1209 277.3764,-22.076 277.6924,-29.0689"/>
<text text-anchor="middle" x="118.1546" y="-68.2388" font-family="Times,serif" font-size="14.00" fill="#000000">{c1, c3}</text>
</g>
<!-- 4&#45;&gt;5 -->
<g id="edge5" class="edge">
<title>4&#45;&gt;5</title>
<path fill="none" stroke="#000000" d="M617.432,-114.4115C518.1027,-110.5334 180.1608,-96.1515 164.6546,-79.4388 130.2195,-42.3243 224.6099,-30.0587 277.1481,-26.1621"/>
<polygon fill="#000000" stroke="#000000" points="277.6144,-29.6386 287.3549,-25.4706 277.1412,-22.6547 277.6144,-29.6386"/>
<text text-anchor="middle" x="208.6546" y="-68.2388" font-family="Times,serif" font-size="14.00" fill="#000000">{c0, c1, c2, c3}</text>
</g>
<!-- 4&#45;&gt;5 -->
<g id="edge6" class="edge">
<title>4&#45;&gt;5</title>
<path fill="none" stroke="#000000" d="M617.4435,-114.8459C536.0297,-112.7935 298.549,-104.6755 275.6546,-79.4388 266.2782,-69.1031 274.0254,-55.8362 284.4769,-44.922"/>
<polygon fill="#000000" stroke="#000000" points="287.1274,-47.2316 291.9673,-37.8068 282.3064,-42.1563 287.1274,-47.2316"/>
<text text-anchor="middle" x="299.1546" y="-68.2388" font-family="Times,serif" font-size="14.00" fill="#000000">{c0, c3}</text>
</g>
<!-- 4&#45;&gt;5 -->
<g id="edge7" class="edge">
<title>4&#45;&gt;5</title>
<path fill="none" stroke="#000000" d="M617.3117,-115.0475C552.3351,-113.6644 390.7431,-107.4269 345.6546,-79.4388 335.9555,-73.4182 328.3396,-63.7051 322.6598,-54.1044"/>
<polygon fill="#000000" stroke="#000000" points="325.6168,-52.2129 317.8026,-45.0582 319.4496,-55.5243 325.6168,-52.2129"/>
<text text-anchor="middle" x="359.1546" y="-68.2388" font-family="Times,serif" font-size="14.00" fill="#000000">{c3}</text>
</g>
<!-- 4&#45;&gt;5 -->
<g id="edge8" class="edge">
<title>4&#45;&gt;5</title>
<path fill="none" stroke="#000000" d="M617.4878,-113.0035C561.6617,-107.757 435.9089,-94.6248 395.6546,-79.4388 384.2361,-75.1312 382.9173,-71.043 372.6546,-64.4388 360.963,-56.9151 348.003,-48.6703 336.8925,-41.631"/>
<polygon fill="#000000" stroke="#000000" points="338.76,-38.6709 328.4382,-36.281 335.0167,-44.586 338.76,-38.6709"/>
<text text-anchor="middle" x="429.1546" y="-68.2388" font-family="Times,serif" font-size="14.00" fill="#000000">{c0, c2, c3}</text>
</g>
<!-- 4&#45;&gt;5 -->
<g id="edge9" class="edge">
<title>4&#45;&gt;5</title>
<path fill="none" stroke="#000000" d="M617.8814,-112.328C585.542,-107.9112 529.9661,-98.1881 485.6546,-79.4388 474.4153,-74.6832 473.8138,-69.3795 462.6546,-64.4388 422.6195,-46.7133 373.091,-35.5494 341.4326,-29.6507"/>
<polygon fill="#000000" stroke="#000000" points="341.8825,-26.1755 331.4208,-27.8502 340.6434,-33.065 341.8825,-26.1755"/>
<text text-anchor="middle" x="509.1546" y="-68.2388" font-family="Times,serif" font-size="14.00" fill="#000000">{c2, c3}</text>
</g>
<!-- 4&#45;&gt;5 -->
<g id="edge10" class="edge">
<title>4&#45;&gt;5</title>
<path fill="none" stroke="#000000" d="M620.2911,-107.0358C602.0776,-100.4095 576.7833,-90.4692 555.6546,-79.4388 544.8361,-73.7909 543.9985,-68.9394 532.6546,-64.4388 467.9736,-38.7772 386.1916,-29.4804 341.8343,-26.1854"/>
<polygon fill="#000000" stroke="#000000" points="341.8722,-22.6799 331.6561,-25.487 341.3929,-29.6634 341.8722,-22.6799"/>
<text text-anchor="middle" x="589.1546" y="-68.2388" font-family="Times,serif" font-size="14.00" fill="#000000">{c1, c2, c3}</text>
</g>
<!-- 5&#45;&gt;5 -->
<g id="edge34" class="edge">
<title>5&#45;&gt;5</title>
<path fill="none" stroke="#000000" d="M331.867,-25.9209C341.4499,-26.0422 349.6546,-25.5482 349.6546,-24.4388 349.6546,-23.7628 346.6079,-23.3153 342.0592,-23.0962"/>
<polygon fill="#000000" stroke="#000000" points="341.914,-19.594 331.867,-22.9567 341.8181,-26.5934 341.914,-19.594"/>
<text text-anchor="middle" x="373.1546" y="-20.7388" font-family="Times,serif" font-size="14.00" fill="#000000">{c1, c2}</text>
</g>
<!-- 5&#45;&gt;5 -->
<g id="edge35" class="edge">
<title>5&#45;&gt;5</title>
<path fill="none" stroke="#000000" d="M331.8303,-26.7121C358.9876,-28.1809 396.6546,-27.4232 396.6546,-24.4388 396.6546,-21.8158 367.5577,-20.9128 342.0728,-21.7299"/>
<polygon fill="#000000" stroke="#000000" points="341.6725,-18.2437 331.8303,-22.1655 341.97,-25.2373 341.6725,-18.2437"/>
<text text-anchor="middle" x="430.1546" y="-20.7388" font-family="Times,serif" font-size="14.00" fill="#000000">{c0, c1, c2}</text>
</g>
<!-- 5&#45;&gt;5 -->
<g id="edge36" class="edge">
<title>5&#45;&gt;5</title>
<path fill="none" stroke="#000000" d="M331.6526,-27.0694C376.6604,-30.2493 463.6546,-29.3724 463.6546,-24.4388 463.6546,-19.8521 388.4639,-18.7717 341.7243,-21.1976"/>
<polygon fill="#000000" stroke="#000000" points="341.4224,-17.7094 331.6526,-21.8082 341.8461,-24.6966 341.4224,-17.7094"/>
<text text-anchor="middle" x="477.1546" y="-20.7388" font-family="Times,serif" font-size="14.00" fill="#000000">{c1}</text>
</g>
<!-- 5&#45;&gt;5 -->
<g id="edge37" class="edge">
<title>5&#45;&gt;5</title>
<path fill="none" stroke="#000000" d="M331.6257,-27.5705C383.6109,-32.2483 490.6546,-31.2044 490.6546,-24.4388 490.6546,-18.0828 396.1808,-16.7766 341.6379,-20.5203"/>
<polygon fill="#000000" stroke="#000000" points="341.3208,-17.0343 331.6257,-21.3071 341.8692,-24.0128 341.3208,-17.0343"/>
<text text-anchor="middle" x="514.1546" y="-20.7388" font-family="Times,serif" font-size="14.00" fill="#000000">{c0, c2}</text>
</g>
<!-- 5&#45;&gt;5 -->
<g id="edge38" class="edge">
<title>5&#45;&gt;5</title>
<path fill="none" stroke="#000000" d="M331.4171,-27.8509C393.624,-34.2676 537.6546,-33.1302 537.6546,-24.4388 537.6546,-16.1888 407.8807,-14.745 341.4974,-20.1076"/>
<polygon fill="#000000" stroke="#000000" points="341.058,-16.6331 331.4171,-21.0267 341.6936,-23.6042 341.058,-16.6331"/>
<text text-anchor="middle" x="561.1546" y="-20.7388" font-family="Times,serif" font-size="14.00" fill="#000000">{c2, c3}</text>
</g>
<!-- 5&#45;&gt;5 -->
<g id="edge39" class="edge">
<title>5&#45;&gt;5</title>
<path fill="none" stroke="#000000" d="M331.495,-28.1092C403.3036,-36.2795 584.6546,-35.056 584.6546,-24.4388 584.6546,-14.2986 419.2309,-12.727 341.8091,-19.7242"/>
<polygon fill="#000000" stroke="#000000" points="341.0916,-16.2789 331.495,-20.7684 341.7967,-23.2433 341.0916,-16.2789"/>
<text text-anchor="middle" x="608.1546" y="-20.7388" font-family="Times,serif" font-size="14.00" fill="#000000">{c0, c1}</text>
</g>
<!-- 5&#45;&gt;5 -->
<g id="edge40" class="edge">
<title>5&#45;&gt;5</title>
<path fill="none" stroke="#000000" d="M331.3402,-28.3038C412.039,-38.2916 631.6546,-37.0033 631.6546,-24.4388 631.6546,-12.3651 428.8614,-10.7039 341.4116,-19.4549"/>
<polygon fill="#000000" stroke="#000000" points="340.8926,-15.991 331.3402,-20.5738 341.6655,-22.9482 340.8926,-15.991"/>
<text text-anchor="middle" x="665.1546" y="-20.7388" font-family="Times,serif" font-size="14.00" fill="#000000">{c0, c1, c3}</text>
</g>
<!-- 5&#45;&gt;5 -->
<g id="edge41" class="edge">
<title>5&#45;&gt;5</title>
<path fill="none" stroke="#000000" d="M331.4557,-28.4406C423.4354,-40.304 698.6546,-38.9701 698.6546,-24.4388 698.6546,-10.4042 441.9276,-8.6802 341.5112,-19.2668"/>
<polygon fill="#000000" stroke="#000000" points="340.9841,-15.8044 331.4557,-20.437 341.7933,-22.7575 340.9841,-15.8044"/>
<text text-anchor="middle" x="742.6546" y="-20.7388" font-family="Times,serif" font-size="14.00" fill="#000000">{c0, c1, c2, c3}</text>
</g>
<!-- 5&#45;&gt;5 -->
<g id="edge42" class="edge">
<title>5&#45;&gt;5</title>
<path fill="none" stroke="#000000" d="M331.4764,-28.5051C436.3862,-42.3177 786.6546,-40.9622 786.6546,-24.4388 786.6546,-8.4156 457.2728,-6.6559 341.6624,-19.1597"/>
<polygon fill="#000000" stroke="#000000" points="340.9924,-15.7147 331.4764,-20.3725 341.8201,-22.6656 340.9924,-15.7147"/>
<text text-anchor="middle" x="810.1546" y="-20.7388" font-family="Times,serif" font-size="14.00" fill="#000000">{c1, c3}</text>
</g>
<!-- 5&#45;&gt;5 -->
<g id="edge43" class="edge">
<title>5&#45;&gt;5</title>
<path fill="none" stroke="#000000" d="M331.4443,-28.661C443.9086,-44.3228 833.6546,-42.9154 833.6546,-24.4388 833.6546,-6.4855 465.6715,-4.6483 341.6514,-18.927"/>
<polygon fill="#000000" stroke="#000000" points="340.9267,-15.4907 331.4443,-20.2166 341.8042,-22.4355 340.9267,-15.4907"/>
<text text-anchor="middle" x="857.1546" y="-20.7388" font-family="Times,serif" font-size="14.00" fill="#000000">{c0, c3}</text>
</g>
<!-- 5&#45;&gt;5 -->
<g id="edge44" class="edge">
<title>5&#45;&gt;5</title>
<path fill="none" stroke="#000000" d="M331.4737,-28.8085C451.4151,-46.327 880.6546,-44.8704 880.6546,-24.4388 880.6546,-4.5459 473.7524,-2.6406 341.5928,-18.723"/>
<polygon fill="#000000" stroke="#000000" points="340.9248,-15.2809 331.4737,-20.0691 341.848,-22.2198 340.9248,-15.2809"/>
<text text-anchor="middle" x="914.1546" y="-20.7388" font-family="Times,serif" font-size="14.00" fill="#000000">{c1, c2, c3}</text>
</g>
<!-- 5&#45;&gt;5 -->
<g id="edge45" class="edge">
<title>5&#45;&gt;5</title>
<path fill="none" stroke="#000000" d="M331.4966,-28.9025C460.7223,-48.333 947.6546,-46.8451 947.6546,-24.4388 947.6546,-2.5796 484.208,-.6298 341.5887,-18.5893"/>
<polygon fill="#000000" stroke="#000000" points="340.9275,-15.1472 331.4966,-19.9751 341.8798,-22.0821 340.9275,-15.1472"/>
<text text-anchor="middle" x="961.1546" y="-20.7388" font-family="Times,serif" font-size="14.00" fill="#000000">{c3}</text>
</g>
<!-- 5&#45;&gt;5 -->
<g id="edge46" class="edge">
<title>5&#45;&gt;5</title>
<path fill="none" stroke="#000000" d="M331.1854,-29.0091C465.1819,-50.3372 974.6546,-48.8138 974.6546,-24.4388 974.6546,-.6351 488.7836,1.3757 341.2144,-18.4065"/>
<polygon fill="#000000" stroke="#000000" points="340.5759,-14.9625 331.1854,-19.8685 341.5857,-21.8893 340.5759,-14.9625"/>
<text text-anchor="middle" x="988.1546" y="-20.7388" font-family="Times,serif" font-size="14.00" fill="#000000">{c0}</text>
</g>
<!-- 5&#45;&gt;5 -->
<g id="edge47" class="edge">
<title>5&#45;&gt;5</title>
<path fill="none" stroke="#000000" d="M331.1645,-29.1446C470.4202,-52.3394 1001.6546,-50.7708 1001.6546,-24.4388 1001.6546,1.3018 494.0162,3.3789 341.1308,-18.2075"/>
<polygon fill="#000000" stroke="#000000" points="340.5198,-14.7602 331.1645,-19.733 341.579,-21.6796 340.5198,-14.7602"/>
<text text-anchor="middle" x="1015.1546" y="-20.7388" font-family="Times,serif" font-size="14.00" fill="#000000">{c2}</text>
</g>
<!-- 5&#45;&gt;5 -->
<g id="edge48" class="edge">
<title>5&#45;&gt;5</title>
<path fill="none" stroke="#000000" d="M331.4816,-29.3256C476.5615,-54.3392 1028.6546,-52.7103 1028.6546,-24.4388 1028.6546,3.2253 500.0295,5.3793 341.3865,-17.9767"/>
<polygon fill="#000000" stroke="#000000" points="340.8077,-14.5247 331.4816,-19.552 341.9072,-21.4378 340.8077,-14.5247"/>
<text text-anchor="middle" x="1035.6546" y="-20.7388" font-family="Times,serif" font-size="14.00" fill="#000000">{}</text>
</g>
<!-- 5&#45;&gt;5 -->
<g id="edge49" class="edge">
<title>5&#45;&gt;5</title>
<path fill="none" stroke="#000000" d="M331.1756,-29.4017C480.4001,-56.3431 1046.6546,-54.6888 1046.6546,-24.4388 1046.6546,5.1613 504.47,7.3812 341.3613,-17.7791"/>
<polygon fill="#000000" stroke="#000000" points="340.4645,-14.3801 331.1756,-19.4759 341.6148,-21.285 340.4645,-14.3801"/>
<text text-anchor="middle" x="1080.1546" y="-20.7388" font-family="Times,serif" font-size="14.00" fill="#000000">{c0, c2, c3}</text>
</g>
</g>
</svg>
