<?xml version="1.0" encoding="UTF-8" standalone="no"?>
<!DOCTYPE svg PUBLIC "-//W3C//DTD SVG 1.1//EN"
 "http://www.w3.org/Graphics/SVG/1.1/DTD/svg11.dtd">
<!-- Generated by graphviz version 2.43.0 (0)
 -->
<!-- Title: %3 Pages: 1 -->
<svg width="1264pt" height="386pt"
 viewBox="0.00 0.00 1264.11 386.00" xmlns="http://www.w3.org/2000/svg" xmlns:xlink="http://www.w3.org/1999/xlink">
<g id="graph0" class="graph" transform="scale(1 1) rotate(0) translate(4 382)">
<title>%3</title>
<polygon fill="white" stroke="transparent" points="-4,4 -4,-382 1260.11,-382 1260.11,4 -4,4"/>
<!-- fake -->
<g id="node1" class="node">
<title>fake</title>
</g>
<!-- 0 -->
<g id="node2" class="node">
<title>0</title>
<ellipse fill="none" stroke="black" cx="675.11" cy="-287" rx="27" ry="18"/>
<text text-anchor="middle" x="675.11" y="-283.3" font-family="Times,serif" font-size="14.00">0</text>
</g>
<!-- fake&#45;&gt;0 -->
<g id="edge1" class="edge">
<title>fake&#45;&gt;0</title>
<path fill="none" stroke="black" stroke-width="2" d="M675.11,-341.81C675.11,-333.79 675.11,-324.05 675.11,-315.07"/>
<polygon fill="black" stroke="black" stroke-width="2" points="678.61,-315.03 675.11,-305.03 671.61,-315.03 678.61,-315.03"/>
</g>
<!-- 0&#45;&gt;0 -->
<g id="edge11" class="edge">
<title>0&#45;&gt;0</title>
<path fill="none" stroke="black" d="M700.55,-293.69C711.14,-294.15 720.11,-291.92 720.11,-287 720.11,-283.77 716.24,-281.7 710.6,-280.79"/>
<polygon fill="black" stroke="black" points="710.71,-277.29 700.55,-280.31 710.37,-284.28 710.71,-277.29"/>
<text text-anchor="middle" x="729.61" y="-283.3" font-family="Times,serif" font-size="14.00">{}</text>
</g>
<!-- 1 -->
<g id="node3" class="node">
<title>1</title>
<ellipse fill="none" stroke="black" cx="527.11" cy="-200" rx="27" ry="18"/>
<text text-anchor="middle" x="527.11" y="-196.3" font-family="Times,serif" font-size="14.00">1</text>
</g>
<!-- 0&#45;&gt;1 -->
<g id="edge10" class="edge">
<title>0&#45;&gt;1</title>
<path fill="none" stroke="black" d="M647.7,-286.46C588.92,-286.8 453.73,-283.9 425.11,-251 403.52,-226.18 453.38,-212.47 490.73,-205.94"/>
<polygon fill="black" stroke="black" points="491.57,-209.35 500.87,-204.28 490.44,-202.44 491.57,-209.35"/>
<text text-anchor="middle" x="468.11" y="-239.8" font-family="Times,serif" font-size="14.00">{c0, c1, c2}</text>
</g>
<!-- 0&#45;&gt;1 -->
<g id="edge12" class="edge">
<title>0&#45;&gt;1</title>
<path fill="none" stroke="black" d="M648.61,-282.96C612.13,-278.2 549.22,-267.77 534.11,-251 528.58,-244.86 526.17,-236.47 525.34,-228.32"/>
<polygon fill="black" stroke="black" points="528.84,-228.18 525.01,-218.3 521.84,-228.41 528.84,-228.18"/>
<text text-anchor="middle" x="551.61" y="-239.8" font-family="Times,serif" font-size="14.00">{c0}</text>
</g>
<!-- 0&#45;&gt;1 -->
<g id="edge13" class="edge">
<title>0&#45;&gt;1</title>
<path fill="none" stroke="black" d="M651.44,-277.88C634.41,-271.59 611.16,-262.1 592.11,-251 577.51,-242.5 562.49,-231.14 550.56,-221.4"/>
<polygon fill="black" stroke="black" points="552.77,-218.68 542.85,-214.97 548.29,-224.06 552.77,-218.68"/>
<text text-anchor="middle" x="622.61" y="-239.8" font-family="Times,serif" font-size="14.00">{c0, c2}</text>
</g>
<!-- 0&#45;&gt;1 -->
<g id="edge14" class="edge">
<title>0&#45;&gt;1</title>
<path fill="none" stroke="black" d="M671.57,-268.91C668.46,-258.03 662.86,-244.44 653.11,-236 628.38,-214.59 591.57,-206.19 564.11,-202.94"/>
<polygon fill="black" stroke="black" points="564.39,-199.45 554.09,-201.93 563.69,-206.42 564.39,-199.45"/>
<text text-anchor="middle" x="693.61" y="-239.8" font-family="Times,serif" font-size="14.00">{c0, c1}</text>
</g>
<!-- 2 -->
<g id="node4" class="node">
<title>2</title>
<ellipse fill="none" stroke="black" cx="692.11" cy="-22" rx="27" ry="18"/>
<text text-anchor="middle" x="692.11" y="-18.3" font-family="Times,serif" font-size="14.00">2</text>
</g>
<!-- 0&#45;&gt;2 -->
<g id="edge15" class="edge">
<title>0&#45;&gt;2</title>
<path fill="none" stroke="black" d="M697.96,-277.15C709.2,-271.49 721.68,-262.94 728.11,-251 760.96,-189.94 744.04,-162.48 728.11,-95 724.14,-78.2 715.62,-60.85 707.87,-47.4"/>
<polygon fill="black" stroke="black" points="710.83,-45.53 702.69,-38.76 704.83,-49.13 710.83,-45.53"/>
<text text-anchor="middle" x="761.61" y="-152.8" font-family="Times,serif" font-size="14.00">{c2}</text>
</g>
<!-- 0&#45;&gt;2 -->
<g id="edge16" class="edge">
<title>0&#45;&gt;2</title>
<path fill="none" stroke="black" d="M699.11,-278.73C713.98,-273.17 732.57,-264.2 745.11,-251 774.16,-220.4 774.48,-205.3 783.11,-164 793.4,-114.73 748.36,-67.75 717.98,-42.4"/>
<polygon fill="black" stroke="black" points="719.84,-39.4 709.86,-35.84 715.44,-44.85 719.84,-39.4"/>
<text text-anchor="middle" x="814.61" y="-152.8" font-family="Times,serif" font-size="14.00">{c1, c2}</text>
</g>
<!-- 0&#45;&gt;2 -->
<g id="edge17" class="edge">
<title>0&#45;&gt;2</title>
<path fill="none" stroke="black" d="M699.78,-279.56C718.68,-273.9 744.87,-264.46 765.11,-251 809.86,-221.23 828.98,-213.84 849.11,-164 874.82,-100.36 778.82,-54.36 725.48,-34.25"/>
<polygon fill="black" stroke="black" points="726.65,-30.96 716.05,-30.8 724.24,-37.53 726.65,-30.96"/>
<text text-anchor="middle" x="869.61" y="-152.8" font-family="Times,serif" font-size="14.00">{c1}</text>
</g>
<!-- 1&#45;&gt;1 -->
<g id="edge20" class="edge">
<title>1&#45;&gt;1</title>
<path fill="none" stroke="black" d="M551.64,-207.75C562.62,-208.49 572.11,-205.91 572.11,-200 572.11,-196.03 567.82,-193.56 561.68,-192.59"/>
<polygon fill="black" stroke="black" points="561.75,-189.09 551.64,-192.25 561.51,-196.09 561.75,-189.09"/>
<text text-anchor="middle" x="581.61" y="-196.3" font-family="Times,serif" font-size="14.00">{}</text>
</g>
<!-- 1&#45;&gt;2 -->
<g id="edge23" class="edge">
<title>1&#45;&gt;2</title>
<path fill="none" stroke="black" d="M525.59,-181.89C524.47,-160.18 525.31,-122.27 541.11,-95 569.13,-46.62 604.32,-65.08 656.11,-44 658.96,-42.84 661.87,-41.48 664.72,-40.02"/>
<polygon fill="black" stroke="black" points="666.49,-43.05 673.56,-35.16 663.12,-36.91 666.49,-43.05"/>
<text text-anchor="middle" x="558.61" y="-109.3" font-family="Times,serif" font-size="14.00">{c2}</text>
</g>
<!-- 1&#45;&gt;2 -->
<g id="edge24" class="edge">
<title>1&#45;&gt;2</title>
<path fill="none" stroke="black" d="M538.52,-183.58C554.23,-162.72 583.79,-124.7 612.11,-95 629.79,-76.46 651.47,-57.13 667.81,-43.17"/>
<polygon fill="black" stroke="black" points="670.44,-45.52 675.81,-36.39 665.92,-40.18 670.44,-45.52"/>
<text text-anchor="middle" x="642.61" y="-109.3" font-family="Times,serif" font-size="14.00">{c0, c2}</text>
</g>
<!-- 1&#45;&gt;2 -->
<g id="edge25" class="edge">
<title>1&#45;&gt;2</title>
<path fill="none" stroke="black" d="M553.05,-194.48C586.36,-187.24 643.4,-169.71 673.11,-131 690.8,-107.95 694.15,-74 693.97,-50.33"/>
<polygon fill="black" stroke="black" points="697.47,-50.16 693.68,-40.26 690.47,-50.36 697.47,-50.16"/>
<text text-anchor="middle" x="706.61" y="-109.3" font-family="Times,serif" font-size="14.00">{c0}</text>
</g>
<!-- 3 -->
<g id="node5" class="node">
<title>3</title>
<ellipse fill="none" stroke="black" cx="309.11" cy="-113" rx="27" ry="18"/>
<text text-anchor="middle" x="309.11" y="-109.3" font-family="Times,serif" font-size="14.00">3</text>
</g>
<!-- 1&#45;&gt;3 -->
<g id="edge18" class="edge">
<title>1&#45;&gt;3</title>
<path fill="none" stroke="black" d="M500.19,-198.13C425.69,-195.45 220.98,-186.12 201.11,-164 177.67,-137.91 232.78,-124.44 272.59,-118.32"/>
<polygon fill="black" stroke="black" points="273.18,-121.77 282.58,-116.89 272.18,-114.84 273.18,-121.77"/>
<text text-anchor="middle" x="244.11" y="-152.8" font-family="Times,serif" font-size="14.00">{c0, c1, c2}</text>
</g>
<!-- 1&#45;&gt;3 -->
<g id="edge19" class="edge">
<title>1&#45;&gt;3</title>
<path fill="none" stroke="black" d="M499.77,-198.76C447.07,-197.66 334.45,-192.01 310.11,-164 304.66,-157.73 303.14,-149.17 303.38,-140.9"/>
<polygon fill="black" stroke="black" points="306.88,-141.1 304.46,-130.78 299.92,-140.36 306.88,-141.1"/>
<text text-anchor="middle" x="327.61" y="-152.8" font-family="Times,serif" font-size="14.00">{c1}</text>
</g>
<!-- 1&#45;&gt;3 -->
<g id="edge21" class="edge">
<title>1&#45;&gt;3</title>
<path fill="none" stroke="black" d="M500.2,-197.05C467.48,-193.81 411.29,-185.39 368.11,-164 360.11,-160.04 344.51,-146.71 331.36,-134.81"/>
<polygon fill="black" stroke="black" points="333.72,-132.23 323.98,-128.06 328.99,-137.39 333.72,-132.23"/>
<text text-anchor="middle" x="398.61" y="-152.8" font-family="Times,serif" font-size="14.00">{c1, c2}</text>
</g>
<!-- 1&#45;&gt;3 -->
<g id="edge22" class="edge">
<title>1&#45;&gt;3</title>
<path fill="none" stroke="black" d="M504.71,-189.54C489.58,-182.91 469.31,-173.56 452.11,-164 441.44,-158.07 440.2,-154.1 429.11,-149 401.85,-136.47 369.03,-127.27 344.61,-121.45"/>
<polygon fill="black" stroke="black" points="345.23,-118 334.7,-119.16 343.66,-124.82 345.23,-118"/>
<text text-anchor="middle" x="482.61" y="-152.8" font-family="Times,serif" font-size="14.00">{c0, c1}</text>
</g>
<!-- 2&#45;&gt;2 -->
<g id="edge26" class="edge">
<title>2&#45;&gt;2</title>
<path fill="none" stroke="black" d="M719.35,-23.5C729.13,-23.53 737.11,-23.03 737.11,-22 737.11,-21.37 734.15,-20.94 729.62,-20.71"/>
<polygon fill="black" stroke="black" points="729.42,-17.2 719.35,-20.5 729.28,-24.2 729.42,-17.2"/>
<text text-anchor="middle" x="754.61" y="-18.3" font-family="Times,serif" font-size="14.00">{c2}</text>
</g>
<!-- 2&#45;&gt;2 -->
<g id="edge27" class="edge">
<title>2&#45;&gt;2</title>
<path fill="none" stroke="black" d="M719.14,-24.54C743.58,-25.63 772.11,-24.78 772.11,-22 772.11,-19.6 750.85,-18.64 729.31,-19.12"/>
<polygon fill="black" stroke="black" points="729.02,-15.63 719.14,-19.46 729.25,-22.62 729.02,-15.63"/>
<text text-anchor="middle" x="802.61" y="-18.3" font-family="Times,serif" font-size="14.00">{c0, c1}</text>
</g>
<!-- 2&#45;&gt;2 -->
<g id="edge28" class="edge">
<title>2&#45;&gt;2</title>
<path fill="none" stroke="black" d="M718.92,-25C762.13,-27.73 833.11,-26.73 833.11,-22 833.11,-17.62 772.27,-16.44 728.96,-18.46"/>
<polygon fill="black" stroke="black" points="728.71,-14.96 718.92,-19 729.1,-21.95 728.71,-14.96"/>
<text text-anchor="middle" x="863.61" y="-18.3" font-family="Times,serif" font-size="14.00">{c1, c2}</text>
</g>
<!-- 2&#45;&gt;2 -->
<g id="edge29" class="edge">
<title>2&#45;&gt;2</title>
<path fill="none" stroke="black" d="M718.8,-25.35C777.11,-29.77 894.11,-28.66 894.11,-22 894.11,-15.71 789.56,-14.36 728.87,-17.97"/>
<polygon fill="black" stroke="black" points="728.55,-14.48 718.8,-18.65 729.01,-21.47 728.55,-14.48"/>
<text text-anchor="middle" x="911.61" y="-18.3" font-family="Times,serif" font-size="14.00">{c1}</text>
</g>
<!-- 2&#45;&gt;2 -->
<g id="edge30" class="edge">
<title>2&#45;&gt;2</title>
<path fill="none" stroke="black" d="M718.82,-25.79C785.53,-31.78 929.11,-30.52 929.11,-22 929.11,-13.9 799.21,-12.36 729.11,-17.38"/>
<polygon fill="black" stroke="black" points="728.51,-13.92 718.82,-18.21 729.07,-20.9 728.51,-13.92"/>
<text text-anchor="middle" x="959.61" y="-18.3" font-family="Times,serif" font-size="14.00">{c0, c2}</text>
</g>
<!-- 2&#45;&gt;2 -->
<g id="edge31" class="edge">
<title>2&#45;&gt;2</title>
<path fill="none" stroke="black" d="M718.63,-26.02C797.7,-33.8 990.11,-32.46 990.11,-22 990.11,-11.95 812.8,-10.32 728.65,-17.09"/>
<polygon fill="black" stroke="black" points="728.28,-13.61 718.63,-17.98 728.9,-20.58 728.28,-13.61"/>
<text text-anchor="middle" x="1007.61" y="-18.3" font-family="Times,serif" font-size="14.00">{c0}</text>
</g>
<!-- 2&#45;&gt;2 -->
<g id="edge32" class="edge">
<title>2&#45;&gt;2</title>
<path fill="none" stroke="black" d="M718.44,-26.31C804.84,-35.81 1025.11,-34.37 1025.11,-22 1025.11,-10.09 820.89,-8.31 728.6,-16.67"/>
<polygon fill="black" stroke="black" points="728.05,-13.21 718.44,-17.69 728.74,-20.18 728.05,-13.21"/>
<text text-anchor="middle" x="1034.61" y="-18.3" font-family="Times,serif" font-size="14.00">{}</text>
</g>
<!-- 2&#45;&gt;2 -->
<g id="edge33" class="edge">
<title>2&#45;&gt;2</title>
<path fill="none" stroke="black" d="M718.35,-26.64C809.6,-37.81 1044.11,-36.27 1044.11,-22 1044.11,-8.24 825.8,-6.31 728.49,-16.23"/>
<polygon fill="black" stroke="black" points="727.9,-12.77 718.35,-17.36 728.68,-19.73 727.9,-12.77"/>
<text text-anchor="middle" x="1087.11" y="-18.3" font-family="Times,serif" font-size="14.00">{c0, c1, c2}</text>
</g>
<!-- 3&#45;&gt;2 -->
<g id="edge39" class="edge">
<title>3&#45;&gt;2</title>
<path fill="none" stroke="black" d="M314.86,-95.01C319.7,-83.58 327.82,-69.31 340.11,-62 400.57,-26.06 588.76,-64.28 656.11,-44 659.13,-43.09 662.16,-41.88 665.12,-40.5"/>
<polygon fill="black" stroke="black" points="667.01,-43.46 674.19,-35.67 663.72,-37.28 667.01,-43.46"/>
<text text-anchor="middle" x="370.61" y="-65.8" font-family="Times,serif" font-size="14.00">{c0, c1}</text>
</g>
<!-- 3&#45;&gt;2 -->
<g id="edge40" class="edge">
<title>3&#45;&gt;2</title>
<path fill="none" stroke="black" d="M333.15,-104.43C352.07,-98.11 378.87,-88.32 401.11,-77 411.98,-71.47 412.55,-65.93 424.11,-62 522.03,-28.72 557.39,-74.83 656.11,-44 659.12,-43.06 662.15,-41.83 665.1,-40.44"/>
<polygon fill="black" stroke="black" points="667,-43.39 674.17,-35.59 663.7,-37.22 667,-43.39"/>
<text text-anchor="middle" x="441.61" y="-65.8" font-family="Times,serif" font-size="14.00">{c1}</text>
</g>
<!-- 3&#45;&gt;2 -->
<g id="edge41" class="edge">
<title>3&#45;&gt;2</title>
<path fill="none" stroke="black" d="M335.45,-108.69C366.1,-104.2 417.79,-94.64 459.11,-77 470.33,-72.21 470.6,-66.08 482.11,-62 555.39,-36.04 582.2,-68.13 656.11,-44 659.11,-43.02 662.13,-41.77 665.08,-40.36"/>
<polygon fill="black" stroke="black" points="666.99,-43.31 674.14,-35.49 663.67,-37.14 666.99,-43.31"/>
<text text-anchor="middle" x="499.61" y="-65.8" font-family="Times,serif" font-size="14.00">{c0}</text>
</g>
<!-- 3&#45;&gt;3 -->
<g id="edge37" class="edge">
<title>3&#45;&gt;3</title>
<path fill="none" stroke="black" d="M333.64,-120.75C344.62,-121.49 354.11,-118.91 354.11,-113 354.11,-109.03 349.82,-106.56 343.68,-105.59"/>
<polygon fill="black" stroke="black" points="343.75,-102.09 333.64,-105.25 343.51,-109.09 343.75,-102.09"/>
<text text-anchor="middle" x="363.61" y="-109.3" font-family="Times,serif" font-size="14.00">{}</text>
</g>
<!-- 4 -->
<g id="node6" class="node">
<title>4</title>
<ellipse fill="none" stroke="black" cx="88.11" cy="-22" rx="18" ry="18"/>
<ellipse fill="none" stroke="black" cx="88.11" cy="-22" rx="22" ry="22"/>
<text text-anchor="middle" x="88.11" y="-18.3" font-family="Times,serif" font-size="14.00">4</text>
</g>
<!-- 3&#45;&gt;4 -->
<g id="edge34" class="edge">
<title>3&#45;&gt;4</title>
<path fill="none" stroke="black" d="M282.23,-110.91C211.33,-107.76 23.42,-97.55 5.11,-77 -13.75,-55.84 26.1,-39.54 56.87,-30.62"/>
<polygon fill="black" stroke="black" points="58.14,-33.9 66.86,-27.87 56.29,-27.15 58.14,-33.9"/>
<text text-anchor="middle" x="35.61" y="-65.8" font-family="Times,serif" font-size="14.00">{c1, c2}</text>
</g>
<!-- 3&#45;&gt;4 -->
<g id="edge35" class="edge">
<title>3&#45;&gt;4</title>
<path fill="none" stroke="black" d="M281.8,-111.83C228.55,-110.87 113.85,-105.45 89.11,-77 83.55,-70.61 81.79,-62.01 81.84,-53.56"/>
<polygon fill="black" stroke="black" points="85.34,-53.72 82.66,-43.47 78.36,-53.15 85.34,-53.72"/>
<text text-anchor="middle" x="119.61" y="-65.8" font-family="Times,serif" font-size="14.00">{c0, c2}</text>
</g>
<!-- 3&#45;&gt;4 -->
<g id="edge36" class="edge">
<title>3&#45;&gt;4</title>
<path fill="none" stroke="black" d="M282.96,-107.89C254.94,-102.89 209.59,-93.07 173.11,-77 161.94,-72.08 160.38,-68.58 150.11,-62 138.65,-54.66 125.93,-46.64 115.01,-39.79"/>
<polygon fill="black" stroke="black" points="116.67,-36.7 106.33,-34.36 112.95,-42.63 116.67,-36.7"/>
<text text-anchor="middle" x="216.11" y="-65.8" font-family="Times,serif" font-size="14.00">{c0, c1, c2}</text>
</g>
<!-- 3&#45;&gt;4 -->
<g id="edge38" class="edge">
<title>3&#45;&gt;4</title>
<path fill="none" stroke="black" d="M297.66,-96.57C288.47,-85.3 274.58,-70.55 259.11,-62 215.03,-37.64 156.53,-28.48 120.64,-25.04"/>
<polygon fill="black" stroke="black" points="120.54,-21.52 110.27,-24.15 119.94,-28.5 120.54,-21.52"/>
<text text-anchor="middle" x="297.61" y="-65.8" font-family="Times,serif" font-size="14.00">{c2}</text>
</g>
<!-- 4&#45;&gt;4 -->
<g id="edge2" class="edge">
<title>4&#45;&gt;4</title>
<path fill="none" stroke="black" d="M110.32,-23.48C119.9,-23.6 128.11,-23.11 128.11,-22 128.11,-21.32 125.06,-20.88 120.51,-20.66"/>
<polygon fill="black" stroke="black" points="120.37,-17.16 110.32,-20.52 120.27,-24.15 120.37,-17.16"/>
<text text-anchor="middle" x="171.11" y="-18.3" font-family="Times,serif" font-size="14.00">{c0, c1, c2}</text>
</g>
<!-- 4&#45;&gt;4 -->
<g id="edge3" class="edge">
<title>4&#45;&gt;4</title>
<path fill="none" stroke="black" d="M110.18,-24C147.69,-25.82 214.11,-25.16 214.11,-22 214.11,-19.11 158.62,-18.31 120.43,-19.59"/>
<polygon fill="black" stroke="black" points="120.03,-16.1 110.18,-20 120.31,-23.1 120.03,-16.1"/>
<text text-anchor="middle" x="244.61" y="-18.3" font-family="Times,serif" font-size="14.00">{c0, c1}</text>
</g>
<!-- 4&#45;&gt;4 -->
<g id="edge4" class="edge">
<title>4&#45;&gt;4</title>
<path fill="none" stroke="black" d="M110.27,-24.47C162.14,-27.84 275.11,-27.02 275.11,-22 275.11,-17.29 175.4,-16.28 120.32,-18.97"/>
<polygon fill="black" stroke="black" points="120.06,-15.47 110.27,-19.53 120.45,-22.46 120.06,-15.47"/>
<text text-anchor="middle" x="292.61" y="-18.3" font-family="Times,serif" font-size="14.00">{c1}</text>
</g>
<!-- 4&#45;&gt;4 -->
<g id="edge5" class="edge">
<title>4&#45;&gt;4</title>
<path fill="none" stroke="black" d="M110.21,-24.93C169.93,-29.84 310.11,-28.86 310.11,-22 310.11,-15.5 184.33,-14.28 120.3,-18.34"/>
<polygon fill="black" stroke="black" points="119.94,-14.86 110.21,-19.07 120.44,-21.84 119.94,-14.86"/>
<text text-anchor="middle" x="319.61" y="-18.3" font-family="Times,serif" font-size="14.00">{}</text>
</g>
<!-- 4&#45;&gt;4 -->
<g id="edge6" class="edge">
<title>4&#45;&gt;4</title>
<path fill="none" stroke="black" d="M110.04,-25.37C174.56,-31.83 329.11,-30.71 329.11,-22 329.11,-13.71 189.29,-12.29 120.11,-17.74"/>
<polygon fill="black" stroke="black" points="119.7,-14.26 110.04,-18.63 120.31,-21.23 119.7,-14.26"/>
<text text-anchor="middle" x="359.61" y="-18.3" font-family="Times,serif" font-size="14.00">{c1, c2}</text>
</g>
<!-- 4&#45;&gt;4 -->
<g id="edge7" class="edge">
<title>4&#45;&gt;4</title>
<path fill="none" stroke="black" d="M109.93,-25.56C185.83,-33.85 390.11,-32.66 390.11,-22 390.11,-11.77 202.24,-10.26 119.9,-17.47"/>
<polygon fill="black" stroke="black" points="119.55,-13.98 109.93,-18.44 120.23,-20.95 119.55,-13.98"/>
<text text-anchor="middle" x="420.61" y="-18.3" font-family="Times,serif" font-size="14.00">{c0, c2}</text>
</g>
<!-- 4&#45;&gt;4 -->
<g id="edge8" class="edge">
<title>4&#45;&gt;4</title>
<path fill="none" stroke="black" d="M109.87,-25.73C196.27,-35.86 451.11,-34.62 451.11,-22 451.11,-9.84 214.35,-8.24 119.87,-17.21"/>
<polygon fill="black" stroke="black" points="119.44,-13.74 109.87,-18.27 120.18,-20.7 119.44,-13.74"/>
<text text-anchor="middle" x="468.61" y="-18.3" font-family="Times,serif" font-size="14.00">{c2}</text>
</g>
<!-- 4&#45;&gt;4 -->
<g id="edge9" class="edge">
<title>4&#45;&gt;4</title>
<path fill="none" stroke="black" d="M109.82,-25.96C202.86,-37.87 486.11,-36.55 486.11,-22 486.11,-7.95 221.89,-6.24 120.01,-16.86"/>
<polygon fill="black" stroke="black" points="119.36,-13.41 109.82,-18.04 120.16,-20.37 119.36,-13.41"/>
<text text-anchor="middle" x="503.61" y="-18.3" font-family="Times,serif" font-size="14.00">{c0}</text>
</g>
</g>
</svg>
