<?xml version="1.0" encoding="UTF-8" standalone="no"?>
<!DOCTYPE svg PUBLIC "-//W3C//DTD SVG 1.1//EN"
 "http://www.w3.org/Graphics/SVG/1.1/DTD/svg11.dtd">
<!-- Generated by graphviz version 2.40.1 (20161225.0304)
 -->
<!-- Title: %3 Pages: 1 -->
<svg width="600pt" height="386pt"
 viewBox="0.00 0.00 600.48 386.00" xmlns="http://www.w3.org/2000/svg" xmlns:xlink="http://www.w3.org/1999/xlink">
<g id="graph0" class="graph" transform="scale(1 1) rotate(0) translate(4 382)">
<title>%3</title>
<polygon fill="#ffffff" stroke="transparent" points="-4,4 -4,-382 596.4807,-382 596.4807,4 -4,4"/>
<!-- fake -->
<g id="node1" class="node">
<title>fake</title>
</g>
<!-- 0 -->
<g id="node2" class="node">
<title>0</title>
<ellipse fill="none" stroke="#000000" cx="332.4807" cy="-287" rx="27" ry="18"/>
<text text-anchor="middle" x="332.4807" y="-283.3" font-family="Times,serif" font-size="14.00" fill="#000000">0</text>
</g>
<!-- fake&#45;&gt;0 -->
<g id="edge1" class="edge">
<title>fake&#45;&gt;0</title>
<path fill="none" stroke="#000000" stroke-width="2" d="M332.4807,-341.9551C332.4807,-333.8828 332.4807,-324.1764 332.4807,-315.1817"/>
<polygon fill="#000000" stroke="#000000" stroke-width="2" points="335.9808,-315.0903 332.4807,-305.0904 328.9808,-315.0904 335.9808,-315.0903"/>
</g>
<!-- 0&#45;&gt;0 -->
<g id="edge2" class="edge">
<title>0&#45;&gt;0</title>
<path fill="none" stroke="#000000" d="M359.7215,-288.6859C369.5047,-288.7221 377.4807,-288.1602 377.4807,-287 377.4807,-286.293 374.5189,-285.8082 369.9912,-285.5455"/>
<polygon fill="#000000" stroke="#000000" points="369.7978,-282.0403 359.7215,-285.3141 369.6401,-289.0386 369.7978,-282.0403"/>
<text text-anchor="middle" x="395.9807" y="-283.3" font-family="Times,serif" font-size="14.00" fill="#000000">{blue}</text>
</g>
<!-- 0&#45;&gt;0 -->
<g id="edge4" class="edge">
<title>0&#45;&gt;0</title>
<path fill="none" stroke="#000000" d="M359.5379,-289.8392C384.6574,-291.0929 414.4807,-290.1465 414.4807,-287 414.4807,-284.2714 392.0532,-283.1973 369.7145,-283.7777"/>
<polygon fill="#000000" stroke="#000000" points="369.3991,-280.287 359.5379,-284.1608 369.6625,-287.282 369.3991,-280.287"/>
<text text-anchor="middle" x="447.4807" y="-283.3" font-family="Times,serif" font-size="14.00" fill="#000000">{bad_beep}</text>
</g>
<!-- 0&#45;&gt;0 -->
<g id="edge5" class="edge">
<title>0&#45;&gt;0</title>
<path fill="none" stroke="#000000" d="M359.0978,-290.3012C404.0207,-293.4661 480.4807,-292.3657 480.4807,-287 480.4807,-282.022 414.6723,-280.7152 369.2903,-283.0795"/>
<polygon fill="#000000" stroke="#000000" points="368.867,-279.5987 359.0978,-283.6988 369.2917,-286.5858 368.867,-279.5987"/>
<text text-anchor="middle" x="502.4807" y="-283.3" font-family="Times,serif" font-size="14.00" fill="#000000">{green}</text>
</g>
<!-- 0&#45;&gt;0 -->
<g id="edge6" class="edge">
<title>0&#45;&gt;0</title>
<path fill="none" stroke="#000000" d="M359.2158,-290.843C415.44,-295.7341 524.4807,-294.4531 524.4807,-287 524.4807,-279.969 427.4424,-278.4308 369.2484,-282.3853"/>
<polygon fill="#000000" stroke="#000000" points="368.9179,-278.9003 359.2158,-283.157 369.4548,-285.8797 368.9179,-278.9003"/>
<text text-anchor="middle" x="531.4807" y="-283.3" font-family="Times,serif" font-size="14.00" fill="#000000">{}</text>
</g>
<!-- 1 -->
<g id="node5" class="node">
<title>1</title>
<ellipse fill="none" stroke="#000000" cx="234.4807" cy="-200" rx="27" ry="18"/>
<text text-anchor="middle" x="234.4807" y="-196.3" font-family="Times,serif" font-size="14.00" fill="#000000">1</text>
</g>
<!-- 0&#45;&gt;1 -->
<g id="edge3" class="edge">
<title>0&#45;&gt;1</title>
<path fill="none" stroke="#000000" d="M306.2878,-282.325C276.2501,-276.3683 229.8082,-265.1291 219.4807,-251 214.0413,-243.5583 215.1293,-234.1607 218.4793,-225.4659"/>
<polygon fill="#000000" stroke="#000000" points="221.6424,-226.9642 222.8005,-216.4328 215.3277,-223.9434 221.6424,-226.9642"/>
<text text-anchor="middle" x="234.9807" y="-239.8" font-family="Times,serif" font-size="14.00" fill="#000000">{red}</text>
</g>
<!-- 2 -->
<g id="node3" class="node">
<title>2</title>
<ellipse fill="none" stroke="#000000" cx="234.4807" cy="-113" rx="27" ry="18"/>
<text text-anchor="middle" x="234.4807" y="-109.3" font-family="Times,serif" font-size="14.00" fill="#000000">2</text>
</g>
<!-- 2&#45;&gt;0 -->
<g id="edge8" class="edge">
<title>2&#45;&gt;0</title>
<path fill="none" stroke="#000000" d="M254.7772,-125.3668C284.1283,-144.6604 336.9373,-185.0514 355.4807,-236 358.701,-244.8477 356.1846,-254.3074 351.8143,-262.6471"/>
<polygon fill="#000000" stroke="#000000" points="348.822,-260.8313 346.5282,-271.1749 354.7717,-264.5193 348.822,-260.8313"/>
<text text-anchor="middle" x="361.9807" y="-196.3" font-family="Times,serif" font-size="14.00" fill="#000000">{red}</text>
</g>
<!-- 2&#45;&gt;0 -->
<g id="edge9" class="edge">
<title>2&#45;&gt;0</title>
<path fill="none" stroke="#000000" d="M207.4524,-114.8111C137.5815,-120.5905 -40.2728,-142.877 8.4807,-218 39.5041,-265.8032 216.6635,-280.9448 295.1089,-285.346"/>
<polygon fill="#000000" stroke="#000000" points="295.3256,-288.8624 305.4972,-285.8981 295.6971,-281.8723 295.3256,-288.8624"/>
<text text-anchor="middle" x="41.4807" y="-196.3" font-family="Times,serif" font-size="14.00" fill="#000000">{bad_beep}</text>
</g>
<!-- 2&#45;&gt;0 -->
<g id="edge10" class="edge">
<title>2&#45;&gt;0</title>
<path fill="none" stroke="#000000" d="M214.1926,-125.273C175.8636,-149.9493 99.805,-206.9744 136.4807,-251 156.3171,-274.8116 244.3833,-282.9265 295.4652,-285.6527"/>
<polygon fill="#000000" stroke="#000000" points="295.3024,-289.1488 305.4619,-286.1428 295.6453,-282.1572 295.3024,-289.1488"/>
<text text-anchor="middle" x="166.4807" y="-196.3" font-family="Times,serif" font-size="14.00" fill="#000000">{green}</text>
</g>
<!-- 2&#45;&gt;2 -->
<g id="edge11" class="edge">
<title>2&#45;&gt;2</title>
<path fill="none" stroke="#000000" d="M259.0132,-120.752C269.9885,-121.4902 279.4807,-118.9063 279.4807,-113 279.4807,-109.0317 275.1958,-106.5632 269.055,-105.5944"/>
<polygon fill="#000000" stroke="#000000" points="269.1279,-102.0949 259.0132,-105.248 268.8866,-109.0908 269.1279,-102.0949"/>
<text text-anchor="middle" x="286.4807" y="-109.3" font-family="Times,serif" font-size="14.00" fill="#000000">{}</text>
</g>
<!-- 3 -->
<g id="node4" class="node">
<title>3</title>
<ellipse fill="none" stroke="#000000" cx="452.4807" cy="-22" rx="18" ry="18"/>
<ellipse fill="none" stroke="#000000" cx="452.4807" cy="-22" rx="22" ry="22"/>
<text text-anchor="middle" x="452.4807" y="-18.3" font-family="Times,serif" font-size="14.00" fill="#000000">3</text>
</g>
<!-- 2&#45;&gt;3 -->
<g id="edge7" class="edge">
<title>2&#45;&gt;3</title>
<path fill="none" stroke="#000000" d="M255.9193,-102.0099C277.3216,-91.2227 311.2844,-74.6008 341.4807,-62 368.2018,-50.8494 399.2556,-39.8175 421.7109,-32.1728"/>
<polygon fill="#000000" stroke="#000000" points="423.0211,-35.4246 431.3767,-28.9104 420.7826,-28.7922 423.0211,-35.4246"/>
<text text-anchor="middle" x="359.9807" y="-65.8" font-family="Times,serif" font-size="14.00" fill="#000000">{blue}</text>
</g>
<!-- 3&#45;&gt;0 -->
<g id="edge12" class="edge">
<title>3&#45;&gt;0</title>
<path fill="none" stroke="#000000" d="M441.6297,-41.1584C428.3168,-65.4828 405.9798,-109.0955 393.4807,-149 379.5603,-193.4422 394.7661,-211.8907 369.4807,-251 366.114,-256.2073 361.8645,-261.2295 357.4554,-265.7862"/>
<polygon fill="#000000" stroke="#000000" points="354.7795,-263.5044 350.0119,-272.9659 359.6392,-268.5426 354.7795,-263.5044"/>
<text text-anchor="middle" x="411.9807" y="-152.8" font-family="Times,serif" font-size="14.00" fill="#000000">{blue}</text>
</g>
<!-- 3&#45;&gt;0 -->
<g id="edge13" class="edge">
<title>3&#45;&gt;0</title>
<path fill="none" stroke="#000000" d="M452.1573,-44.1845C450.3396,-88.8445 440.1519,-190.4826 386.4807,-251 379.7668,-258.5703 371.1181,-265.2595 362.7183,-270.7541"/>
<polygon fill="#000000" stroke="#000000" points="360.8249,-267.8096 354.1464,-276.0345 364.4964,-273.7696 360.8249,-267.8096"/>
<text text-anchor="middle" x="451.9807" y="-152.8" font-family="Times,serif" font-size="14.00" fill="#000000">{red}</text>
</g>
<!-- 3&#45;&gt;0 -->
<g id="edge14" class="edge">
<title>3&#45;&gt;0</title>
<path fill="none" stroke="#000000" d="M460.9068,-42.7558C471.0749,-70.9015 485.2001,-122.4298 471.4807,-164 469.5703,-169.7885 417.1467,-241.5503 405.4807,-251 393.6406,-260.5907 378.8236,-268.489 365.638,-274.419"/>
<polygon fill="#000000" stroke="#000000" points="364.2017,-271.2267 356.3911,-278.3852 366.9611,-277.6599 364.2017,-271.2267"/>
<text text-anchor="middle" x="507.4807" y="-152.8" font-family="Times,serif" font-size="14.00" fill="#000000">{bad_beep}</text>
</g>
<!-- 3&#45;&gt;0 -->
<g id="edge15" class="edge">
<title>3&#45;&gt;0</title>
<path fill="none" stroke="#000000" d="M470.8549,-34.196C504.4822,-58.1245 570.2103,-113.3169 544.4807,-164 509.7917,-232.3317 418.9916,-265.3945 368.1947,-278.9938"/>
<polygon fill="#000000" stroke="#000000" points="367.1139,-275.6577 358.297,-281.5325 368.8531,-282.4382 367.1139,-275.6577"/>
<text text-anchor="middle" x="570.4807" y="-152.8" font-family="Times,serif" font-size="14.00" fill="#000000">{green}</text>
</g>
<!-- 3&#45;&gt;3 -->
<g id="edge16" class="edge">
<title>3&#45;&gt;3</title>
<path fill="none" stroke="#000000" d="M473.0615,-30.3702C483.3255,-31.5284 492.4807,-28.7383 492.4807,-22 492.4807,-17.6833 488.7234,-14.9869 483.3243,-13.9109"/>
<polygon fill="#000000" stroke="#000000" points="483.1537,-10.405 473.0615,-13.6298 482.9619,-17.4024 483.1537,-10.405"/>
<text text-anchor="middle" x="499.4807" y="-18.3" font-family="Times,serif" font-size="14.00" fill="#000000">{}</text>
</g>
<!-- 1&#45;&gt;0 -->
<g id="edge17" class="edge">
<title>1&#45;&gt;0</title>
<path fill="none" stroke="#000000" d="M245.0471,-216.9C252.2146,-227.5024 262.3797,-241.0073 273.4807,-251 281.9287,-258.6046 292.2029,-265.5104 301.7953,-271.1935"/>
<polygon fill="#000000" stroke="#000000" points="300.277,-274.3563 310.7012,-276.2504 303.7334,-268.2691 300.277,-274.3563"/>
<text text-anchor="middle" x="291.9807" y="-239.8" font-family="Times,serif" font-size="14.00" fill="#000000">{blue}</text>
</g>
<!-- 1&#45;&gt;0 -->
<g id="edge18" class="edge">
<title>1&#45;&gt;0</title>
<path fill="none" stroke="#000000" d="M259.8318,-206.8986C276.102,-212.4481 296.6892,-221.7155 310.4807,-236 316.8352,-242.5817 321.5013,-251.2897 324.8578,-259.644"/>
<polygon fill="#000000" stroke="#000000" points="321.5828,-260.8812 328.219,-269.1402 328.1817,-258.5454 321.5828,-260.8812"/>
<text text-anchor="middle" x="335.9807" y="-239.8" font-family="Times,serif" font-size="14.00" fill="#000000">{red}</text>
</g>
<!-- 1&#45;&gt;0 -->
<g id="edge19" class="edge">
<title>1&#45;&gt;0</title>
<path fill="none" stroke="#000000" d="M208.2716,-204.6886C175.3553,-211.7048 125.4657,-226.7643 145.4807,-251 164.0645,-273.5026 245.9522,-282.0895 294.9926,-285.2521"/>
<polygon fill="#000000" stroke="#000000" points="295.0279,-288.7603 305.2192,-285.864 295.4461,-281.7728 295.0279,-288.7603"/>
<text text-anchor="middle" x="178.4807" y="-239.8" font-family="Times,serif" font-size="14.00" fill="#000000">{bad_beep}</text>
</g>
<!-- 1&#45;&gt;2 -->
<g id="edge20" class="edge">
<title>1&#45;&gt;2</title>
<path fill="none" stroke="#000000" d="M234.4807,-181.9735C234.4807,-170.1918 234.4807,-154.5607 234.4807,-141.1581"/>
<polygon fill="#000000" stroke="#000000" points="237.9808,-141.0033 234.4807,-131.0034 230.9808,-141.0034 237.9808,-141.0033"/>
<text text-anchor="middle" x="256.4807" y="-152.8" font-family="Times,serif" font-size="14.00" fill="#000000">{green}</text>
</g>
<!-- 1&#45;&gt;1 -->
<g id="edge21" class="edge">
<title>1&#45;&gt;1</title>
<path fill="none" stroke="#000000" d="M259.0132,-207.752C269.9885,-208.4902 279.4807,-205.9063 279.4807,-200 279.4807,-196.0317 275.1958,-193.5632 269.055,-192.5944"/>
<polygon fill="#000000" stroke="#000000" points="269.1279,-189.0949 259.0132,-192.248 268.8866,-196.0908 269.1279,-189.0949"/>
<text text-anchor="middle" x="286.4807" y="-196.3" font-family="Times,serif" font-size="14.00" fill="#000000">{}</text>
</g>
</g>
</svg>
