<?xml version="1.0" encoding="UTF-8" standalone="no"?>
<!DOCTYPE svg PUBLIC "-//W3C//DTD SVG 1.1//EN"
 "http://www.w3.org/Graphics/SVG/1.1/DTD/svg11.dtd">
<!-- Generated by graphviz version 2.40.1 (20161225.0304)
 -->
<!-- Title: %3 Pages: 1 -->
<svg width="3591pt" height="388pt"
 viewBox="0.00 0.00 3591.39 388.39" xmlns="http://www.w3.org/2000/svg" xmlns:xlink="http://www.w3.org/1999/xlink">
<g id="graph0" class="graph" transform="scale(1 1) rotate(0) translate(4 384.3944)">
<title>%3</title>
<polygon fill="#ffffff" stroke="transparent" points="-4,4 -4,-384.3944 3587.3934,-384.3944 3587.3934,4 -4,4"/>
<!-- fake -->
<g id="node1" class="node">
<title>fake</title>
</g>
<!-- 0 -->
<g id="node2" class="node">
<title>0</title>
<ellipse fill="none" stroke="#000000" cx="2123.3934" cy="-289.3944" rx="27" ry="18"/>
<text text-anchor="middle" x="2123.3934" y="-285.6944" font-family="Times,serif" font-size="14.00" fill="#000000">0</text>
</g>
<!-- fake&#45;&gt;0 -->
<g id="edge1" class="edge">
<title>fake&#45;&gt;0</title>
<path fill="none" stroke="#000000" stroke-width="2" d="M2123.3934,-344.3494C2123.3934,-336.2772 2123.3934,-326.5708 2123.3934,-317.5761"/>
<polygon fill="#000000" stroke="#000000" stroke-width="2" points="2126.8935,-317.4847 2123.3934,-307.4848 2119.8935,-317.4848 2126.8935,-317.4847"/>
</g>
<!-- 0&#45;&gt;0 -->
<g id="edge4" class="edge">
<title>0&#45;&gt;0</title>
<path fill="none" stroke="#000000" d="M2148.8369,-296.0851C2159.4213,-296.5465 2168.3934,-294.3163 2168.3934,-289.3944 2168.3934,-286.1644 2164.5294,-284.0936 2158.8816,-283.182"/>
<polygon fill="#000000" stroke="#000000" points="2158.9921,-279.6834 2148.8369,-282.7037 2158.6591,-286.6755 2158.9921,-279.6834"/>
<text text-anchor="middle" x="2175.3934" y="-285.6944" font-family="Times,serif" font-size="14.00" fill="#000000">{}</text>
</g>
<!-- 1 -->
<g id="node3" class="node">
<title>1</title>
<ellipse fill="none" stroke="#000000" cx="1608.3934" cy="-202.3944" rx="27" ry="18"/>
<text text-anchor="middle" x="1608.3934" y="-198.6944" font-family="Times,serif" font-size="14.00" fill="#000000">1</text>
</g>
<!-- 0&#45;&gt;1 -->
<g id="edge2" class="edge">
<title>0&#45;&gt;1</title>
<path fill="none" stroke="#000000" d="M2096.3404,-289.3006C1953.6487,-288.6765 1293.8695,-284.1316 1264.3934,-253.3944 1259.7791,-248.5827 1259.9314,-243.3477 1264.3934,-238.3944 1284.6519,-215.9052 1486.3889,-206.5096 1571.1714,-203.533"/>
<polygon fill="#000000" stroke="#000000" points="1571.5094,-207.0236 1581.3847,-203.1858 1571.2715,-200.0277 1571.5094,-207.0236"/>
<text text-anchor="middle" x="1343.8934" y="-242.1944" font-family="Times,serif" font-size="14.00" fill="#000000">{bad_beep, blue, green, red}</text>
</g>
<!-- 0&#45;&gt;1 -->
<g id="edge3" class="edge">
<title>0&#45;&gt;1</title>
<path fill="none" stroke="#000000" d="M2096.1978,-288.982C1972.6311,-286.9784 1469.1205,-277.3621 1446.3934,-253.3944 1441.8062,-248.5568 1442.2219,-243.5947 1446.3934,-238.3944 1461.7574,-219.2415 1528.4767,-209.6341 1571.3552,-205.3518"/>
<polygon fill="#000000" stroke="#000000" points="1571.807,-208.8247 1581.4331,-204.3987 1571.1479,-201.8558 1571.807,-208.8247"/>
<text text-anchor="middle" x="1510.3934" y="-242.1944" font-family="Times,serif" font-size="14.00" fill="#000000">{bad_beep, green, red}</text>
</g>
<!-- 0&#45;&gt;1 -->
<g id="edge5" class="edge">
<title>0&#45;&gt;1</title>
<path fill="none" stroke="#000000" d="M2096.1326,-288.5503C1990.6898,-285.1554 1614.574,-271.791 1597.3934,-253.3944 1591.1281,-246.6856 1591.5472,-237.2959 1594.3402,-228.3994"/>
<polygon fill="#000000" stroke="#000000" points="1597.6006,-229.6725 1598.0987,-219.0894 1591.1096,-227.052 1597.6006,-229.6725"/>
<text text-anchor="middle" x="1647.3934" y="-242.1944" font-family="Times,serif" font-size="14.00" fill="#000000">{blue, green, red}</text>
</g>
<!-- 0&#45;&gt;1 -->
<g id="edge6" class="edge">
<title>0&#45;&gt;1</title>
<path fill="none" stroke="#000000" d="M2096.3474,-288.6805C2017.7025,-286.3376 1790.2517,-277.5959 1720.3934,-253.3944 1708.8618,-249.3994 1708.2119,-244.0423 1697.3934,-238.3944 1679.7312,-229.1737 1659.158,-220.7147 1642.2435,-214.3165"/>
<polygon fill="#000000" stroke="#000000" points="1643.3499,-210.994 1632.7569,-210.7974 1640.9152,-217.5569 1643.3499,-210.994"/>
<text text-anchor="middle" x="1765.8934" y="-242.1944" font-family="Times,serif" font-size="14.00" fill="#000000">{bad_beep, red}</text>
</g>
<!-- 0&#45;&gt;1 -->
<g id="edge7" class="edge">
<title>0&#45;&gt;1</title>
<path fill="none" stroke="#000000" d="M2096.18,-287.5752C2033.8086,-283.1538 1882.2296,-270.9056 1834.3934,-253.3944 1822.9331,-249.1992 1822.7417,-242.8838 1811.3934,-238.3944 1756.1642,-216.5456 1687.242,-207.8958 1645.5831,-204.5138"/>
<polygon fill="#000000" stroke="#000000" points="1645.8387,-201.0232 1635.6041,-203.7626 1645.3132,-208.0034 1645.8387,-201.0232"/>
<text text-anchor="middle" x="1849.8934" y="-242.1944" font-family="Times,serif" font-size="14.00" fill="#000000">{red}</text>
</g>
<!-- 0&#45;&gt;1 -->
<g id="edge8" class="edge">
<title>0&#45;&gt;1</title>
<path fill="none" stroke="#000000" d="M2096.5369,-286.7256C2043.258,-281.1955 1926.0821,-267.7942 1888.3934,-253.3944 1876.9932,-249.0387 1876.8214,-242.6768 1865.3934,-238.3944 1825.9107,-223.5989 1706.7793,-211.1942 1645.5741,-205.5934"/>
<polygon fill="#000000" stroke="#000000" points="1645.8339,-202.1027 1635.5599,-204.6906 1645.2052,-209.0745 1645.8339,-202.1027"/>
<text text-anchor="middle" x="1922.8934" y="-242.1944" font-family="Times,serif" font-size="14.00" fill="#000000">{green, red}</text>
</g>
<!-- 0&#45;&gt;1 -->
<g id="edge9" class="edge">
<title>0&#45;&gt;1</title>
<path fill="none" stroke="#000000" d="M2096.9697,-285.4432C2067.606,-280.4435 2019.2132,-270.3712 1980.3934,-253.3944 1969.2119,-248.5044 1968.8974,-242.4683 1957.3934,-238.3944 1900.7041,-218.3193 1723.8264,-207.7949 1645.8999,-204.0315"/>
<polygon fill="#000000" stroke="#000000" points="1645.7374,-200.5201 1635.5837,-203.5451 1645.4077,-207.5123 1645.7374,-200.5201"/>
<text text-anchor="middle" x="2040.8934" y="-242.1944" font-family="Times,serif" font-size="14.00" fill="#000000">{bad_beep, blue, red}</text>
</g>
<!-- 0&#45;&gt;1 -->
<g id="edge10" class="edge">
<title>0&#45;&gt;1</title>
<path fill="none" stroke="#000000" d="M2120.468,-271.2922C2117.6215,-259.9137 2112.0804,-245.9952 2101.3934,-238.3944 2064.5498,-212.1905 1754.2988,-204.7332 1645.7303,-202.9152"/>
<polygon fill="#000000" stroke="#000000" points="1645.6278,-199.4132 1635.5728,-202.7519 1645.5152,-206.4123 1645.6278,-199.4132"/>
<text text-anchor="middle" x="2144.3934" y="-242.1944" font-family="Times,serif" font-size="14.00" fill="#000000">{blue, red}</text>
</g>
<!-- 2 -->
<g id="node4" class="node">
<title>2</title>
<ellipse fill="none" stroke="#000000" cx="1937.3934" cy="-24.3944" rx="27" ry="18"/>
<text text-anchor="middle" x="1937.3934" y="-20.6944" font-family="Times,serif" font-size="14.00" fill="#000000">2</text>
</g>
<!-- 0&#45;&gt;2 -->
<g id="edge11" class="edge">
<title>0&#45;&gt;2</title>
<path fill="none" stroke="#000000" d="M2147.2278,-280.5841C2159.1725,-274.8129 2172.5258,-265.9735 2179.3934,-253.3944 2182.588,-247.543 2180.0909,-245.0245 2179.3934,-238.3944 2178.5555,-230.4297 2154.0468,-103.9124 2149.3934,-97.3944 2132.8297,-74.1934 2120.7058,-75.3626 2094.3934,-64.3944 2054.5676,-47.7931 2006.0983,-36.725 1973.6438,-30.5198"/>
<polygon fill="#000000" stroke="#000000" points="1974.1712,-27.058 1963.7006,-28.6751 1972.8943,-33.9405 1974.1712,-27.058"/>
<text text-anchor="middle" x="2202.8934" y="-155.1944" font-family="Times,serif" font-size="14.00" fill="#000000">{blue, green}</text>
</g>
<!-- 0&#45;&gt;2 -->
<g id="edge12" class="edge">
<title>0&#45;&gt;2</title>
<path fill="none" stroke="#000000" d="M2147.6455,-281.084C2162.247,-275.141 2180.4535,-265.9625 2193.3934,-253.3944 2229.3336,-218.487 2263.7065,-196.2536 2241.3934,-151.3944 2212.8511,-94.0116 2184.6989,-91.0014 2126.3934,-64.3944 2076.7824,-41.755 2013.9498,-31.7379 1974.7029,-27.4421"/>
<polygon fill="#000000" stroke="#000000" points="1974.8359,-23.9374 1964.5311,-26.3994 1974.1221,-30.9009 1974.8359,-23.9374"/>
<text text-anchor="middle" x="2264.8934" y="-155.1944" font-family="Times,serif" font-size="14.00" fill="#000000">{blue}</text>
</g>
<!-- 0&#45;&gt;2 -->
<g id="edge13" class="edge">
<title>0&#45;&gt;2</title>
<path fill="none" stroke="#000000" d="M2148.246,-282.1054C2201.1271,-265.1362 2317.5956,-219.2092 2287.3934,-151.3944 2272.7976,-118.6214 2257.3248,-117.1739 2227.3934,-97.3944 2198.3622,-78.2097 2189.5548,-74.9391 2156.3934,-64.3944 2093.9925,-44.5521 2018.2698,-33.454 1974.1871,-28.2168"/>
<polygon fill="#000000" stroke="#000000" points="1974.553,-24.7358 1964.2182,-27.0687 1973.7521,-31.6899 1974.553,-24.7358"/>
<text text-anchor="middle" x="2339.8934" y="-155.1944" font-family="Times,serif" font-size="14.00" fill="#000000">{bad_beep, blue}</text>
</g>
<!-- 0&#45;&gt;2 -->
<g id="edge14" class="edge">
<title>0&#45;&gt;2</title>
<path fill="none" stroke="#000000" d="M2150.2029,-286.7722C2229.4732,-277.9064 2453.4941,-244.2367 2392.3934,-151.3944 2338.6558,-69.7401 2284.2898,-91.5721 2190.3934,-64.3944 2115.4204,-42.694 2024.3269,-31.9472 1974.4592,-27.3347"/>
<polygon fill="#000000" stroke="#000000" points="1974.7361,-23.8456 1964.4643,-26.4418 1974.1132,-30.8178 1974.7361,-23.8456"/>
<text text-anchor="middle" x="2466.3934" y="-155.1944" font-family="Times,serif" font-size="14.00" fill="#000000">{bad_beep, blue, green}</text>
</g>
<!-- 0&#45;&gt;2 -->
<g id="edge15" class="edge">
<title>0&#45;&gt;2</title>
<path fill="none" stroke="#000000" d="M2150.472,-287.4135C2193.1257,-283.769 2278.2257,-274.365 2347.3934,-253.3944 2439.1141,-225.5861 2593.7838,-228.8935 2537.3934,-151.3944 2470.2745,-59.1507 2095.1348,-32.3495 1974.6531,-26.0641"/>
<polygon fill="#000000" stroke="#000000" points="1974.6193,-22.5581 1964.4556,-25.5499 1974.2666,-29.5492 1974.6193,-22.5581"/>
<text text-anchor="middle" x="2567.3934" y="-155.1944" font-family="Times,serif" font-size="14.00" fill="#000000">{green}</text>
</g>
<!-- 0&#45;&gt;2 -->
<g id="edge16" class="edge">
<title>0&#45;&gt;2</title>
<path fill="none" stroke="#000000" d="M2150.2999,-287.2766C2231.3112,-280.5392 2471.5154,-257.8159 2539.3934,-220.3944 2573.4958,-201.5936 2613.0529,-185.0091 2593.3934,-151.3944 2568.6795,-109.1373 2542.8459,-115.5746 2497.3934,-97.3944 2442.0464,-75.2565 2426.1376,-74.5191 2367.3934,-64.3944 2223.7319,-39.634 2050.2431,-29.4108 1975.1103,-25.9258"/>
<polygon fill="#000000" stroke="#000000" points="1974.9014,-22.4129 1964.7541,-25.4595 1974.5865,-29.4058 1974.9014,-22.4129"/>
<text text-anchor="middle" x="2649.8934" y="-155.1944" font-family="Times,serif" font-size="14.00" fill="#000000">{bad_beep, green}</text>
</g>
<!-- 0&#45;&gt;2 -->
<g id="edge17" class="edge">
<title>0&#45;&gt;2</title>
<path fill="none" stroke="#000000" d="M2150.7182,-287.9625C2274.3763,-280.9401 2772.7176,-246.5502 2705.3934,-151.3944 2663.7441,-92.5273 2621.4492,-118.1622 2552.3934,-97.3944 2494.4834,-79.9785 2480.0562,-74.2557 2420.3934,-64.3944 2255.7377,-37.1795 2056.287,-28.1243 1974.7997,-25.426"/>
<polygon fill="#000000" stroke="#000000" points="1974.6574,-21.9198 1964.5511,-25.0999 1974.4347,-28.9162 1974.6574,-21.9198"/>
<text text-anchor="middle" x="2744.3934" y="-155.1944" font-family="Times,serif" font-size="14.00" fill="#000000">{bad_beep}</text>
</g>
<!-- 1&#45;&gt;1 -->
<g id="edge39" class="edge">
<title>1&#45;&gt;1</title>
<path fill="none" stroke="#000000" d="M1632.9259,-210.1464C1643.9012,-210.8846 1653.3934,-208.3006 1653.3934,-202.3944 1653.3934,-198.4261 1649.1085,-195.9576 1642.9678,-194.9888"/>
<polygon fill="#000000" stroke="#000000" points="1643.0406,-191.4893 1632.9259,-194.6424 1642.7993,-198.4852 1643.0406,-191.4893"/>
<text text-anchor="middle" x="1660.3934" y="-198.6944" font-family="Times,serif" font-size="14.00" fill="#000000">{}</text>
</g>
<!-- 1&#45;&gt;2 -->
<g id="edge43" class="edge">
<title>1&#45;&gt;2</title>
<path fill="none" stroke="#000000" d="M1608.0919,-184.3207C1606.9117,-173.2501 1603.5029,-159.6644 1594.3934,-151.3944 1559.6617,-119.8634 1520.6028,-169.2815 1490.3934,-133.3944 1480.0895,-121.1539 1479.7658,-109.3549 1490.3934,-97.3944 1512.9864,-71.9681 1609.9478,-89.6033 1642.3934,-79.3944 1655.8602,-75.1571 1656.8444,-68.3608 1670.3934,-64.3944 1769.2235,-35.4624 1803.4238,-78.1182 1901.3934,-46.3944 1904.3637,-45.4326 1907.3429,-44.1811 1910.2457,-42.7632"/>
<polygon fill="#000000" stroke="#000000" points="1912.1096,-45.7316 1919.1534,-37.8173 1908.7116,-39.6117 1912.1096,-45.7316"/>
<text text-anchor="middle" x="1550.8934" y="-111.6944" font-family="Times,serif" font-size="14.00" fill="#000000">{bad_beep, blue, red}</text>
</g>
<!-- 1&#45;&gt;2 -->
<g id="edge44" class="edge">
<title>1&#45;&gt;2</title>
<path fill="none" stroke="#000000" d="M1611.5934,-184.4193C1616.2946,-162.1052 1626.8317,-123.7748 1647.3934,-97.3944 1655.351,-87.185 1683.2106,-68.7687 1695.3934,-64.3944 1781.891,-33.3367 1814.0927,-75.1171 1901.3934,-46.3944 1904.3592,-45.4186 1907.3353,-44.1579 1910.2363,-42.7341"/>
<polygon fill="#000000" stroke="#000000" points="1912.104,-45.7003 1919.1412,-37.7801 1908.7009,-39.5831 1912.104,-45.7003"/>
<text text-anchor="middle" x="1665.8934" y="-111.6944" font-family="Times,serif" font-size="14.00" fill="#000000">{blue}</text>
</g>
<!-- 1&#45;&gt;2 -->
<g id="edge45" class="edge">
<title>1&#45;&gt;2</title>
<path fill="none" stroke="#000000" d="M1624.9103,-187.8134C1640.4478,-173.9999 1664.2668,-152.5729 1684.3934,-133.3944 1700.7746,-117.7849 1701.0436,-109.124 1720.3934,-97.3944 1762.225,-72.0368 1778.2294,-77.373 1825.3934,-64.3944 1858.8616,-55.1846 1869.2951,-59.6093 1901.3934,-46.3944 1904.1238,-45.2703 1906.887,-43.9547 1909.6049,-42.5357"/>
<polygon fill="#000000" stroke="#000000" points="1911.5973,-45.4291 1918.5579,-37.4416 1908.1355,-39.345 1911.5973,-45.4291"/>
<text text-anchor="middle" x="1768.8934" y="-111.6944" font-family="Times,serif" font-size="14.00" fill="#000000">{bad_beep, blue}</text>
</g>
<!-- 1&#45;&gt;2 -->
<g id="edge46" class="edge">
<title>1&#45;&gt;2</title>
<path fill="none" stroke="#000000" d="M1634.8228,-197.7757C1676.1963,-189.6772 1757.6953,-170.1715 1817.3934,-133.3944 1836.6585,-121.5261 1836.8437,-112.8251 1853.3934,-97.3944 1872.8239,-79.2777 1895.6147,-59.5628 1912.5506,-45.1929"/>
<polygon fill="#000000" stroke="#000000" points="1914.9752,-47.7264 1920.3539,-38.5984 1910.4569,-42.3799 1914.9752,-47.7264"/>
<text text-anchor="middle" x="1884.3934" y="-111.6944" font-family="Times,serif" font-size="14.00" fill="#000000">{blue, red}</text>
</g>
<!-- 1&#45;&gt;2 -->
<g id="edge47" class="edge">
<title>1&#45;&gt;2</title>
<path fill="none" stroke="#000000" d="M1635.4739,-200.079C1703.0772,-193.7331 1876.6113,-173.7833 1915.3934,-133.3944 1935.8929,-112.0456 1939.7294,-77.1742 1939.5089,-52.6337"/>
<polygon fill="#000000" stroke="#000000" points="1943.0026,-52.3783 1939.1853,-42.4951 1936.0062,-52.6017 1943.0026,-52.3783"/>
<text text-anchor="middle" x="1966.3934" y="-111.6944" font-family="Times,serif" font-size="14.00" fill="#000000">{bad_beep}</text>
</g>
<!-- 1&#45;&gt;2 -->
<g id="edge48" class="edge">
<title>1&#45;&gt;2</title>
<path fill="none" stroke="#000000" d="M1635.2665,-199.7866C1720.532,-191.2337 1980.7222,-162.8882 2003.3934,-133.3944 2025.8748,-104.1475 1991.0665,-66.7551 1964.0634,-44.2375"/>
<polygon fill="#000000" stroke="#000000" points="1965.9905,-41.2957 1956.0057,-37.7523 1961.6015,-46.7489 1965.9905,-41.2957"/>
<text text-anchor="middle" x="2055.8934" y="-111.6944" font-family="Times,serif" font-size="14.00" fill="#000000">{bad_beep, red}</text>
</g>
<!-- 1&#45;&gt;2 -->
<g id="edge49" class="edge">
<title>1&#45;&gt;2</title>
<path fill="none" stroke="#000000" d="M1635.3218,-200.7565C1734.5023,-194.4464 2075.2466,-170.2116 2105.3934,-133.3944 2147.2457,-82.2817 2034.4218,-46.9958 1973.4728,-32.2002"/>
<polygon fill="#000000" stroke="#000000" points="1973.9919,-28.7267 1963.4557,-29.839 1972.3859,-35.54 1973.9919,-28.7267"/>
<text text-anchor="middle" x="2129.8934" y="-111.6944" font-family="Times,serif" font-size="14.00" fill="#000000">{red}</text>
</g>
<!-- 3 -->
<g id="node5" class="node">
<title>3</title>
<ellipse fill="none" stroke="#000000" cx="971.3934" cy="-115.3944" rx="27" ry="18"/>
<text text-anchor="middle" x="971.3934" y="-111.6944" font-family="Times,serif" font-size="14.00" fill="#000000">3</text>
</g>
<!-- 1&#45;&gt;3 -->
<g id="edge34" class="edge">
<title>1&#45;&gt;3</title>
<path fill="none" stroke="#000000" d="M1581.2205,-201.9187C1424.1206,-199.1061 638.5299,-184.1673 621.3934,-166.3944 616.7661,-161.5952 616.9271,-156.3437 621.3934,-151.3944 642.0674,-128.4849 848.1754,-119.3121 934.0942,-116.4641"/>
<polygon fill="#000000" stroke="#000000" points="934.3129,-119.9589 944.1956,-116.1402 934.0885,-112.9625 934.3129,-119.9589"/>
<text text-anchor="middle" x="658.8934" y="-155.1944" font-family="Times,serif" font-size="14.00" fill="#000000">{blue, green}</text>
</g>
<!-- 1&#45;&gt;3 -->
<g id="edge35" class="edge">
<title>1&#45;&gt;3</title>
<path fill="none" stroke="#000000" d="M1581.359,-202.3404C1435.7195,-201.9203 749.9864,-198.2514 719.3934,-166.3944 714.7757,-161.5859 715.0254,-156.4308 719.3934,-151.3944 733.2737,-135.3903 867.7311,-123.1645 934.3561,-118.0352"/>
<polygon fill="#000000" stroke="#000000" points="934.7299,-121.5171 944.4377,-117.2735 934.2024,-114.537 934.7299,-121.5171"/>
<text text-anchor="middle" x="786.3934" y="-155.1944" font-family="Times,serif" font-size="14.00" fill="#000000">{bad_beep, blue, green}</text>
</g>
<!-- 1&#45;&gt;3 -->
<g id="edge36" class="edge">
<title>1&#45;&gt;3</title>
<path fill="none" stroke="#000000" d="M1581.1837,-202.0945C1451.4728,-200.5348 901.1505,-192.3989 876.3934,-166.3944 855.2474,-144.1828 900.0727,-129.5134 935.0923,-121.8295"/>
<polygon fill="#000000" stroke="#000000" points="936.0202,-125.2117 945.1034,-119.7576 934.6015,-118.3569 936.0202,-125.2117"/>
<text text-anchor="middle" x="926.3934" y="-155.1944" font-family="Times,serif" font-size="14.00" fill="#000000">{blue, green, red}</text>
</g>
<!-- 1&#45;&gt;3 -->
<g id="edge37" class="edge">
<title>1&#45;&gt;3</title>
<path fill="none" stroke="#000000" d="M1581.1159,-201.5151C1465.9513,-197.7095 1024.2904,-182.1383 999.3934,-166.3944 990.6495,-160.8651 984.4204,-151.5967 980.0933,-142.4662"/>
<polygon fill="#000000" stroke="#000000" points="983.3024,-141.0675 976.2469,-133.1636 976.8336,-143.7422 983.3024,-141.0675"/>
<text text-anchor="middle" x="1021.3934" y="-155.1944" font-family="Times,serif" font-size="14.00" fill="#000000">{green}</text>
</g>
<!-- 1&#45;&gt;3 -->
<g id="edge38" class="edge">
<title>1&#45;&gt;3</title>
<path fill="none" stroke="#000000" d="M1581.1231,-201.3934C1478.0272,-197.4985 1115.4256,-182.7582 1066.3934,-166.3944 1054.8171,-162.531 1053.9796,-157.4665 1043.3934,-151.3944 1030.4486,-143.9694 1015.7758,-136.4751 1003.0688,-130.2611"/>
<polygon fill="#000000" stroke="#000000" points="1004.3229,-126.98 993.7961,-125.7812 1001.2777,-133.2829 1004.3229,-126.98"/>
<text text-anchor="middle" x="1130.3934" y="-155.1944" font-family="Times,serif" font-size="14.00" fill="#000000">{bad_beep, green, red}</text>
</g>
<!-- 1&#45;&gt;3 -->
<g id="edge40" class="edge">
<title>1&#45;&gt;3</title>
<path fill="none" stroke="#000000" d="M1581.3302,-201.5945C1504.2736,-199.051 1284.9148,-189.8892 1217.3934,-166.3944 1205.8672,-162.3837 1205.7761,-155.7959 1194.3934,-151.3944 1161.1311,-138.5323 1062.5746,-125.7753 1008.289,-119.4662"/>
<polygon fill="#000000" stroke="#000000" points="1008.3884,-115.9547 998.0547,-118.2922 1007.5906,-122.9091 1008.3884,-115.9547"/>
<text text-anchor="middle" x="1296.8934" y="-155.1944" font-family="Times,serif" font-size="14.00" fill="#000000">{bad_beep, blue, green, red}</text>
</g>
<!-- 1&#45;&gt;3 -->
<g id="edge41" class="edge">
<title>1&#45;&gt;3</title>
<path fill="none" stroke="#000000" d="M1581.3983,-201.2292C1540.6522,-198.7088 1461.5947,-190.8238 1399.3934,-166.3944 1388.0341,-161.933 1387.9259,-155.3869 1376.3934,-151.3944 1308.9969,-128.0622 1095.6581,-119.134 1008.7663,-116.4078"/>
<polygon fill="#000000" stroke="#000000" points="1008.675,-112.9035 998.5734,-116.0984 1008.4626,-119.9003 1008.675,-112.9035"/>
<text text-anchor="middle" x="1450.8934" y="-155.1944" font-family="Times,serif" font-size="14.00" fill="#000000">{bad_beep, green}</text>
</g>
<!-- 1&#45;&gt;3 -->
<g id="edge42" class="edge">
<title>1&#45;&gt;3</title>
<path fill="none" stroke="#000000" d="M1584.6404,-193.3354C1567.7659,-186.6024 1544.7584,-176.8125 1525.3934,-166.3944 1514.646,-160.6124 1513.9671,-155.2658 1502.3934,-151.3944 1455.917,-135.8482 1121.7819,-121.3445 1008.694,-116.8325"/>
<polygon fill="#000000" stroke="#000000" points="1008.5878,-113.3257 998.4572,-116.4274 1008.3109,-120.3202 1008.5878,-113.3257"/>
<text text-anchor="middle" x="1559.8934" y="-155.1944" font-family="Times,serif" font-size="14.00" fill="#000000">{green, red}</text>
</g>
<!-- 2&#45;&gt;2 -->
<g id="edge66" class="edge">
<title>2&#45;&gt;2</title>
<path fill="none" stroke="#000000" d="M1964.6342,-25.8929C1974.4174,-25.9252 1982.3934,-25.4256 1982.3934,-24.3944 1982.3934,-23.766 1979.4316,-23.335 1974.9039,-23.1015"/>
<polygon fill="#000000" stroke="#000000" points="1974.7023,-19.5969 1964.6342,-22.8959 1974.5621,-26.5955 1974.7023,-19.5969"/>
<text text-anchor="middle" x="2019.8934" y="-20.6944" font-family="Times,serif" font-size="14.00" fill="#000000">{blue, green}</text>
</g>
<!-- 2&#45;&gt;2 -->
<g id="edge67" class="edge">
<title>2&#45;&gt;2</title>
<path fill="none" stroke="#000000" d="M1964.4309,-26.6208C2001.1243,-28.1521 2057.3934,-27.41 2057.3934,-24.3944 2057.3934,-21.6497 2010.781,-20.7883 1974.7399,-21.8103"/>
<polygon fill="#000000" stroke="#000000" points="1974.3035,-18.3233 1964.4309,-22.168 1974.5463,-25.3191 1974.3035,-18.3233"/>
<text text-anchor="middle" x="2091.8934" y="-20.6944" font-family="Times,serif" font-size="14.00" fill="#000000">{green, red}</text>
</g>
<!-- 2&#45;&gt;2 -->
<g id="edge68" class="edge">
<title>2&#45;&gt;2</title>
<path fill="none" stroke="#000000" d="M1964.4687,-27.1145C2018.9333,-30.1878 2126.3934,-29.2811 2126.3934,-24.3944 2126.3934,-19.794 2031.1574,-18.7209 1974.5561,-21.175"/>
<polygon fill="#000000" stroke="#000000" points="1974.2834,-17.6841 1964.4687,-21.6743 1974.6295,-24.6756 1974.2834,-17.6841"/>
<text text-anchor="middle" x="2205.8934" y="-20.6944" font-family="Times,serif" font-size="14.00" fill="#000000">{bad_beep, blue, green, red}</text>
</g>
<!-- 2&#45;&gt;2 -->
<g id="edge69" class="edge">
<title>2&#45;&gt;2</title>
<path fill="none" stroke="#000000" d="M1964.3519,-27.1757C2049.0422,-32.2512 2285.3934,-31.3241 2285.3934,-24.3944 2285.3934,-17.7219 2066.2584,-16.6147 1974.387,-21.0728"/>
<polygon fill="#000000" stroke="#000000" points="1974.1492,-17.5804 1964.3519,-21.613 1974.5256,-24.5703 1974.1492,-17.5804"/>
<text text-anchor="middle" x="2345.8934" y="-20.6944" font-family="Times,serif" font-size="14.00" fill="#000000">{bad_beep, blue, red}</text>
</g>
<!-- 2&#45;&gt;2 -->
<g id="edge70" class="edge">
<title>2&#45;&gt;2</title>
<path fill="none" stroke="#000000" d="M1964.1645,-27.3852C2067.5521,-34.2683 2406.3934,-33.2714 2406.3934,-24.3944 2406.3934,-15.7862 2087.7574,-14.5881 1974.1856,-20.8002"/>
<polygon fill="#000000" stroke="#000000" points="1973.936,-17.3088 1964.1645,-21.4036 1974.3568,-24.2961 1973.936,-17.3088"/>
<text text-anchor="middle" x="2424.8934" y="-20.6944" font-family="Times,serif" font-size="14.00" fill="#000000">{blue}</text>
</g>
<!-- 2&#45;&gt;2 -->
<g id="edge71" class="edge">
<title>2&#45;&gt;2</title>
<path fill="none" stroke="#000000" d="M1964.1257,-27.763C2073.7017,-36.2634 2443.3934,-35.1405 2443.3934,-24.3944 2443.3934,-13.9631 2095.0461,-12.5995 1974.4104,-20.3034"/>
<polygon fill="#000000" stroke="#000000" points="1973.8559,-16.8337 1964.1257,-21.0257 1974.3464,-23.8165 1973.8559,-16.8337"/>
<text text-anchor="middle" x="2491.8934" y="-20.6944" font-family="Times,serif" font-size="14.00" fill="#000000">{bad_beep, blue}</text>
</g>
<!-- 2&#45;&gt;2 -->
<g id="edge72" class="edge">
<title>2&#45;&gt;2</title>
<path fill="none" stroke="#000000" d="M1964.0795,-27.9628C2087.0419,-38.2714 2540.3934,-37.0819 2540.3934,-24.3944 2540.3934,-12.029 2109.7714,-10.5853 1974.0719,-20.0631"/>
<polygon fill="#000000" stroke="#000000" points="1973.784,-16.5748 1964.0795,-20.826 1974.317,-23.5544 1973.784,-16.5748"/>
<text text-anchor="middle" x="2604.3934" y="-20.6944" font-family="Times,serif" font-size="14.00" fill="#000000">{bad_beep, green, red}</text>
</g>
<!-- 2&#45;&gt;2 -->
<g id="edge73" class="edge">
<title>2&#45;&gt;2</title>
<path fill="none" stroke="#000000" d="M1964.0458,-28.0871C2102.8504,-40.2815 2668.3934,-39.0506 2668.3934,-24.3944 2668.3934,-10.0673 2127.9703,-8.5693 1974.0335,-19.9003"/>
<polygon fill="#000000" stroke="#000000" points="1973.7338,-16.413 1964.0458,-20.7017 1974.2937,-23.3906 1973.7338,-16.413"/>
<text text-anchor="middle" x="2735.3934" y="-20.6944" font-family="Times,serif" font-size="14.00" fill="#000000">{bad_beep, blue, green}</text>
</g>
<!-- 2&#45;&gt;2 -->
<g id="edge74" class="edge">
<title>2&#45;&gt;2</title>
<path fill="none" stroke="#000000" d="M1963.9722,-28.1944C2117.9198,-42.29 2802.3934,-41.0233 2802.3934,-24.3944 2802.3934,-8.1065 2145.706,-6.5573 1974.1025,-19.7466"/>
<polygon fill="#000000" stroke="#000000" points="1973.6455,-16.2725 1963.9722,-20.5944 1974.2293,-23.2481 1973.6455,-16.2725"/>
<text text-anchor="middle" x="2824.3934" y="-20.6944" font-family="Times,serif" font-size="14.00" fill="#000000">{green}</text>
</g>
<!-- 2&#45;&gt;2 -->
<g id="edge75" class="edge">
<title>2&#45;&gt;2</title>
<path fill="none" stroke="#000000" d="M1963.8237,-28.417C2123.4129,-44.29 2846.3934,-42.9491 2846.3934,-24.3944 2846.3934,-6.2021 2151.3786,-4.5578 1973.8098,-19.4614"/>
<polygon fill="#000000" stroke="#000000" points="1973.4646,-15.9783 1963.8237,-20.3718 1974.1001,-22.9494 1973.4646,-15.9783"/>
<text text-anchor="middle" x="2877.3934" y="-20.6944" font-family="Times,serif" font-size="14.00" fill="#000000">{blue, red}</text>
</g>
<!-- 2&#45;&gt;2 -->
<g id="edge76" class="edge">
<title>2&#45;&gt;2</title>
<path fill="none" stroke="#000000" d="M1963.7354,-28.5977C2130.7064,-46.2916 2908.3934,-44.8905 2908.3934,-24.3944 2908.3934,-4.2886 2160.0433,-2.5575 1973.9291,-19.201"/>
<polygon fill="#000000" stroke="#000000" points="1973.3502,-15.7407 1963.7354,-20.1911 1974.027,-22.7079 1973.3502,-15.7407"/>
<text text-anchor="middle" x="2959.8934" y="-20.6944" font-family="Times,serif" font-size="14.00" fill="#000000">{bad_beep, green}</text>
</g>
<!-- 2&#45;&gt;2 -->
<g id="edge77" class="edge">
<title>2&#45;&gt;2</title>
<path fill="none" stroke="#000000" d="M1963.6327,-28.7053C2141.3647,-48.2962 3011.3934,-46.8592 3011.3934,-24.3944 3011.3934,-2.3244 2171.6829,-.5496 1973.6385,-19.0699"/>
<polygon fill="#000000" stroke="#000000" points="1973.229,-15.5934 1963.6327,-20.0835 1973.9345,-22.5577 1973.229,-15.5934"/>
<text text-anchor="middle" x="3044.3934" y="-20.6944" font-family="Times,serif" font-size="14.00" fill="#000000">{bad_beep}</text>
</g>
<!-- 2&#45;&gt;2 -->
<g id="edge78" class="edge">
<title>2&#45;&gt;2</title>
<path fill="none" stroke="#000000" d="M1963.6604,-28.8646C2149.0107,-50.2975 3077.3934,-48.8075 3077.3934,-24.3944 3077.3934,-.3985 2180.4714,1.4511 1973.8059,-18.8455"/>
<polygon fill="#000000" stroke="#000000" points="1973.2343,-15.3864 1963.6604,-19.9242 1973.9745,-22.3472 1973.2343,-15.3864"/>
<text text-anchor="middle" x="3127.3934" y="-20.6944" font-family="Times,serif" font-size="14.00" fill="#000000">{blue, green, red}</text>
</g>
<!-- 2&#45;&gt;2 -->
<g id="edge79" class="edge">
<title>2&#45;&gt;2</title>
<path fill="none" stroke="#000000" d="M1963.5446,-28.9554C2158.7595,-52.3014 3177.3934,-50.7811 3177.3934,-24.3944 3177.3934,1.5671 2191.3221,3.4572 1973.615,-18.7242"/>
<polygon fill="#000000" stroke="#000000" points="1973.1013,-15.2596 1963.5446,-19.8334 1973.8677,-22.2175 1973.1013,-15.2596"/>
<text text-anchor="middle" x="3184.3934" y="-20.6944" font-family="Times,serif" font-size="14.00" fill="#000000">{}</text>
</g>
<!-- 2&#45;&gt;2 -->
<g id="edge80" class="edge">
<title>2&#45;&gt;2</title>
<path fill="none" stroke="#000000" d="M1963.7046,-29.1643C2162.9001,-54.2998 3195.3934,-52.7098 3195.3934,-24.3944 3195.3934,3.4786 2194.9135,5.4548 1973.6451,-18.4658"/>
<polygon fill="#000000" stroke="#000000" points="1973.2321,-14.9902 1963.7046,-19.6245 1974.0426,-21.9431 1973.2321,-14.9902"/>
<text text-anchor="middle" x="3240.8934" y="-20.6944" font-family="Times,serif" font-size="14.00" fill="#000000">{bad_beep, red}</text>
</g>
<!-- 2&#45;&gt;2 -->
<g id="edge81" class="edge">
<title>2&#45;&gt;2</title>
<path fill="none" stroke="#000000" d="M1963.4785,-29.2318C2171.2876,-56.3038 3286.3934,-54.6913 3286.3934,-24.3944 3286.3934,5.4439 2204.7902,7.4596 1973.5317,-18.3473"/>
<polygon fill="#000000" stroke="#000000" points="1972.9887,-14.8873 1963.4785,-19.557 1973.825,-21.8372 1972.9887,-14.8873"/>
<text text-anchor="middle" x="3301.8934" y="-20.6944" font-family="Times,serif" font-size="14.00" fill="#000000">{red}</text>
</g>
<!-- 3&#45;&gt;2 -->
<g id="edge59" class="edge">
<title>3&#45;&gt;2</title>
<path fill="none" stroke="#000000" d="M966.1405,-97.4026C964.1207,-86.3646 964.0013,-72.7846 972.3934,-64.3944 1008.8991,-27.8972 1851.8399,-60.8565 1901.3934,-46.3944 1904.3905,-45.5197 1907.3876,-44.3264 1910.3016,-42.9447"/>
<polygon fill="#000000" stroke="#000000" points="1912.1408,-45.9279 1919.2249,-38.0497 1908.7741,-39.7907 1912.1408,-45.9279"/>
<text text-anchor="middle" x="1006.8934" y="-68.1944" font-family="Times,serif" font-size="14.00" fill="#000000">{green, red}</text>
</g>
<!-- 3&#45;&gt;2 -->
<g id="edge60" class="edge">
<title>3&#45;&gt;2</title>
<path fill="none" stroke="#000000" d="M993.4607,-104.7734C1007.399,-97.8872 1025.6791,-88.5271 1041.3934,-79.3944 1051.9449,-73.2622 1052.7334,-67.9975 1064.3934,-64.3944 1153.2685,-36.9311 1812.1249,-72.5504 1901.3934,-46.3944 1904.3896,-45.5165 1907.3861,-44.321 1910.2997,-42.9381"/>
<polygon fill="#000000" stroke="#000000" points="1912.1398,-45.9207 1919.2224,-38.0412 1908.7719,-39.7841 1912.1398,-45.9207"/>
<text text-anchor="middle" x="1128.3934" y="-68.1944" font-family="Times,serif" font-size="14.00" fill="#000000">{bad_beep, green, red}</text>
</g>
<!-- 3&#45;&gt;2 -->
<g id="edge61" class="edge">
<title>3&#45;&gt;2</title>
<path fill="none" stroke="#000000" d="M998.525,-114.5695C1041.1701,-112.49 1125.8794,-105.169 1192.3934,-79.3944 1203.7729,-74.9848 1203.742,-68.025 1215.3934,-64.3944 1360.9858,-19.0274 1755.1509,-89.6199 1901.3934,-46.3944 1904.3875,-45.5094 1907.3826,-44.3092 1910.2953,-42.9233"/>
<polygon fill="#000000" stroke="#000000" points="1912.1375,-45.9048 1919.2168,-38.0223 1908.7671,-39.7696 1912.1375,-45.9048"/>
<text text-anchor="middle" x="1237.3934" y="-68.1944" font-family="Times,serif" font-size="14.00" fill="#000000">{green}</text>
</g>
<!-- 3&#45;&gt;2 -->
<g id="edge62" class="edge">
<title>3&#45;&gt;2</title>
<path fill="none" stroke="#000000" d="M998.5128,-113.5685C1060.6688,-109.1327 1211.7239,-96.8561 1259.3934,-79.3944 1270.8528,-75.1967 1270.7471,-68.0416 1282.3934,-64.3944 1413.7182,-23.2687 1769.4792,-85.5884 1901.3934,-46.3944 1904.3863,-45.5052 1907.3805,-44.3022 1910.2927,-42.9145"/>
<polygon fill="#000000" stroke="#000000" points="1912.1361,-45.8952 1919.2135,-38.0109 1908.7641,-39.7608 1912.1361,-45.8952"/>
<text text-anchor="middle" x="1333.8934" y="-68.1944" font-family="Times,serif" font-size="14.00" fill="#000000">{bad_beep, green}</text>
</g>
<!-- 3&#45;&gt;2 -->
<g id="edge63" class="edge">
<title>3&#45;&gt;2</title>
<path fill="none" stroke="#000000" d="M998.6032,-114.7502C1078.8532,-112.5803 1313.4435,-104.2257 1385.3934,-79.3944 1396.9297,-75.413 1396.7607,-68.0848 1408.3934,-64.3944 1512.8897,-31.2439 1796.4219,-78.0078 1901.3934,-46.3944 1904.3829,-45.4941 1907.375,-44.2836 1910.2858,-42.8913"/>
<polygon fill="#000000" stroke="#000000" points="1912.1323,-45.8702 1919.2046,-37.9813 1908.7564,-39.738 1912.1323,-45.8702"/>
<text text-anchor="middle" x="1441.3934" y="-68.1944" font-family="Times,serif" font-size="14.00" fill="#000000">{bad_beep}</text>
</g>
<!-- 3&#45;&gt;2 -->
<g id="edge64" class="edge">
<title>3&#45;&gt;2</title>
<path fill="none" stroke="#000000" d="M998.4647,-115.236C1089.6679,-114.4264 1384.9871,-109.4873 1474.3934,-79.3944 1485.9598,-75.5013 1485.7756,-68.1314 1497.3934,-64.3944 1582.9433,-36.8759 1815.4489,-72.6544 1901.3934,-46.3944 1904.3793,-45.4821 1907.3689,-44.2636 1910.2782,-42.8663"/>
<polygon fill="#000000" stroke="#000000" points="1912.1282,-45.8431 1919.1949,-37.9493 1908.7479,-39.7133 1912.1282,-45.8431"/>
<text text-anchor="middle" x="1542.8934" y="-68.1944" font-family="Times,serif" font-size="14.00" fill="#000000">{bad_beep, red}</text>
</g>
<!-- 3&#45;&gt;2 -->
<g id="edge65" class="edge">
<title>3&#45;&gt;2</title>
<path fill="none" stroke="#000000" d="M998.5363,-114.6327C1110.3268,-111.384 1531.893,-97.9984 1588.3934,-79.3944 1599.9852,-75.5775 1599.8087,-68.2327 1611.3934,-64.3944 1733.977,-23.7789 1778.227,-85.2065 1901.3934,-46.3944 1904.3712,-45.456 1907.3554,-44.2202 1910.2614,-42.8121"/>
<polygon fill="#000000" stroke="#000000" points="1912.1187,-45.7845 1919.1734,-37.8799 1908.7291,-39.6599 1912.1187,-45.7845"/>
<text text-anchor="middle" x="1626.8934" y="-68.1944" font-family="Times,serif" font-size="14.00" fill="#000000">{red}</text>
</g>
<!-- 3&#45;&gt;3 -->
<g id="edge57" class="edge">
<title>3&#45;&gt;3</title>
<path fill="none" stroke="#000000" d="M995.9259,-123.1464C1006.9012,-123.8846 1016.3934,-121.3006 1016.3934,-115.3944 1016.3934,-111.4261 1012.1085,-108.9576 1005.9678,-107.9888"/>
<polygon fill="#000000" stroke="#000000" points="1006.0406,-104.4893 995.9259,-107.6424 1005.7993,-111.4852 1006.0406,-104.4893"/>
<text text-anchor="middle" x="1023.3934" y="-111.6944" font-family="Times,serif" font-size="14.00" fill="#000000">{}</text>
</g>
<!-- 4 -->
<g id="node6" class="node">
<title>4</title>
<ellipse fill="none" stroke="#000000" cx="251.3934" cy="-24.3944" rx="18" ry="18"/>
<ellipse fill="none" stroke="#000000" cx="251.3934" cy="-24.3944" rx="22" ry="22"/>
<text text-anchor="middle" x="251.3934" y="-20.6944" font-family="Times,serif" font-size="14.00" fill="#000000">4</text>
</g>
<!-- 3&#45;&gt;4 -->
<g id="edge50" class="edge">
<title>3&#45;&gt;4</title>
<path fill="none" stroke="#000000" d="M944.2396,-114.8993C788.9954,-112.0059 20.176,-96.8127 3.3934,-79.3944 -1.2322,-74.5936 -.929,-69.4699 3.3934,-64.3944 17.2264,-48.1516 154.8105,-33.3692 218.8794,-27.3048"/>
<polygon fill="#000000" stroke="#000000" points="219.5903,-30.7538 229.2225,-26.3413 218.9409,-23.784 219.5903,-30.7538"/>
<text text-anchor="middle" x="51.8934" y="-68.1944" font-family="Times,serif" font-size="14.00" fill="#000000">{bad_beep, blue}</text>
</g>
<!-- 3&#45;&gt;4 -->
<g id="edge51" class="edge">
<title>3&#45;&gt;4</title>
<path fill="none" stroke="#000000" d="M944.2218,-115.2847C802.3946,-114.5823 152.4526,-109.7134 123.3934,-79.3944 92.6638,-47.3326 171.8625,-32.969 219.108,-27.4095"/>
<polygon fill="#000000" stroke="#000000" points="219.6615,-30.8698 229.2179,-26.2954 218.8946,-23.9119 219.6615,-30.8698"/>
<text text-anchor="middle" x="141.8934" y="-68.1944" font-family="Times,serif" font-size="14.00" fill="#000000">{blue}</text>
</g>
<!-- 3&#45;&gt;4 -->
<g id="edge52" class="edge">
<title>3&#45;&gt;4</title>
<path fill="none" stroke="#000000" d="M944.3815,-115.1948C809.056,-114.066 210.2366,-107.4919 183.3934,-79.3944 167.0245,-62.2606 195.8844,-45.577 220.9117,-35.1623"/>
<polygon fill="#000000" stroke="#000000" points="222.1977,-38.4175 230.2137,-31.4898 219.6271,-31.9066 222.1977,-38.4175"/>
<text text-anchor="middle" x="233.3934" y="-68.1944" font-family="Times,serif" font-size="14.00" fill="#000000">{blue, green, red}</text>
</g>
<!-- 3&#45;&gt;4 -->
<g id="edge53" class="edge">
<title>3&#45;&gt;4</title>
<path fill="none" stroke="#000000" d="M944.0261,-115.0635C826.1739,-113.4836 365.2565,-105.6627 306.3934,-79.3944 292.3027,-73.1062 279.8332,-61.474 270.3449,-50.521"/>
<polygon fill="#000000" stroke="#000000" points="273.0261,-48.2709 263.9823,-42.7518 267.6104,-52.7061 273.0261,-48.2709"/>
<text text-anchor="middle" x="373.3934" y="-68.1944" font-family="Times,serif" font-size="14.00" fill="#000000">{bad_beep, blue, green}</text>
</g>
<!-- 3&#45;&gt;4 -->
<g id="edge54" class="edge">
<title>3&#45;&gt;4</title>
<path fill="none" stroke="#000000" d="M944.1562,-114.2653C845.3336,-110.0588 509.0678,-94.7499 463.3934,-79.3944 451.8256,-75.5054 451.666,-69.0707 440.3934,-64.3944 387.8651,-42.6036 322.0071,-32.1309 283.5206,-27.5429"/>
<polygon fill="#000000" stroke="#000000" points="283.7553,-24.0472 273.4251,-26.4004 282.968,-31.0028 283.7553,-24.0472"/>
<text text-anchor="middle" x="500.8934" y="-68.1944" font-family="Times,serif" font-size="14.00" fill="#000000">{blue, green}</text>
</g>
<!-- 3&#45;&gt;4 -->
<g id="edge55" class="edge">
<title>3&#45;&gt;4</title>
<path fill="none" stroke="#000000" d="M944.1629,-114.7229C864.4198,-112.487 632.5586,-103.9884 561.3934,-79.3944 549.8588,-75.4081 549.8229,-68.6729 538.3934,-64.3944 492.2009,-47.1027 348.3926,-32.8329 283.6072,-27.1005"/>
<polygon fill="#000000" stroke="#000000" points="283.8189,-23.6058 273.5526,-26.2235 283.2106,-30.5793 283.8189,-23.6058"/>
<text text-anchor="middle" x="592.3934" y="-68.1944" font-family="Times,serif" font-size="14.00" fill="#000000">{blue, red}</text>
</g>
<!-- 3&#45;&gt;4 -->
<g id="edge56" class="edge">
<title>3&#45;&gt;4</title>
<path fill="none" stroke="#000000" d="M944.3588,-114.0146C876.625,-110.3009 701.1701,-99.0247 646.3934,-79.3944 634.9049,-75.2773 634.8886,-68.4931 623.3934,-64.3944 561.161,-42.2047 362.926,-30.0222 284.1369,-25.9547"/>
<polygon fill="#000000" stroke="#000000" points="284.0026,-22.4435 273.8388,-25.4344 283.6494,-29.4346 284.0026,-22.4435"/>
<text text-anchor="middle" x="725.8934" y="-68.1944" font-family="Times,serif" font-size="14.00" fill="#000000">{bad_beep, blue, green, red}</text>
</g>
<!-- 3&#45;&gt;4 -->
<g id="edge58" class="edge">
<title>3&#45;&gt;4</title>
<path fill="none" stroke="#000000" d="M944.9697,-111.4432C915.606,-106.4435 867.2132,-96.3712 828.3934,-79.3944 817.2119,-74.5044 816.9586,-68.2911 805.3934,-64.3944 707.7561,-31.4969 387.1164,-25.6495 283.7916,-24.6153"/>
<polygon fill="#000000" stroke="#000000" points="283.6895,-21.1143 273.6579,-24.5226 283.6254,-28.114 283.6895,-21.1143"/>
<text text-anchor="middle" x="888.8934" y="-68.1944" font-family="Times,serif" font-size="14.00" fill="#000000">{bad_beep, blue, red}</text>
</g>
<!-- 4&#45;&gt;4 -->
<g id="edge18" class="edge">
<title>4&#45;&gt;4</title>
<path fill="none" stroke="#000000" d="M273.6058,-25.8765C283.1887,-25.9978 291.3934,-25.5038 291.3934,-24.3944 291.3934,-23.7184 288.3467,-23.2709 283.798,-23.0518"/>
<polygon fill="#000000" stroke="#000000" points="283.6528,-19.5496 273.6058,-22.9123 283.5569,-26.549 283.6528,-19.5496"/>
<text text-anchor="middle" x="325.8934" y="-20.6944" font-family="Times,serif" font-size="14.00" fill="#000000">{green, red}</text>
</g>
<!-- 4&#45;&gt;4 -->
<g id="edge19" class="edge">
<title>4&#45;&gt;4</title>
<path fill="none" stroke="#000000" d="M273.5041,-26.4972C306.7543,-28.1891 360.3934,-27.4881 360.3934,-24.3944 360.3934,-21.6028 316.7192,-20.7594 283.7597,-21.8644"/>
<polygon fill="#000000" stroke="#000000" points="283.3497,-18.3784 273.5041,-22.2916 283.6411,-25.3723 283.3497,-18.3784"/>
<text text-anchor="middle" x="410.3934" y="-20.6944" font-family="Times,serif" font-size="14.00" fill="#000000">{blue, green, red}</text>
</g>
<!-- 4&#45;&gt;4 -->
<g id="edge20" class="edge">
<title>4&#45;&gt;4</title>
<path fill="none" stroke="#000000" d="M273.5605,-26.7674C329.6385,-30.2479 460.3934,-29.4569 460.3934,-24.3944 460.3934,-19.6186 344.0311,-18.6442 283.7708,-21.4711"/>
<polygon fill="#000000" stroke="#000000" points="283.3576,-17.9881 273.5605,-22.0214 283.7344,-24.978 283.3576,-17.9881"/>
<text text-anchor="middle" x="520.8934" y="-20.6944" font-family="Times,serif" font-size="14.00" fill="#000000">{bad_beep, blue, red}</text>
</g>
<!-- 4&#45;&gt;4 -->
<g id="edge21" class="edge">
<title>4&#45;&gt;4</title>
<path fill="none" stroke="#000000" d="M273.2749,-26.9309C350.1676,-32.279 581.3934,-31.4335 581.3934,-24.3944 581.3934,-17.644 368.7463,-16.5896 283.4886,-21.2311"/>
<polygon fill="#000000" stroke="#000000" points="283.0417,-17.7518 273.2749,-21.8579 283.4705,-24.7387 283.0417,-17.7518"/>
<text text-anchor="middle" x="588.3934" y="-20.6944" font-family="Times,serif" font-size="14.00" fill="#000000">{}</text>
</g>
<!-- 4&#45;&gt;4 -->
<g id="edge22" class="edge">
<title>4&#45;&gt;4</title>
<path fill="none" stroke="#000000" d="M273.2194,-27.3624C354.0482,-34.2705 599.3934,-33.2811 599.3934,-24.3944 599.3934,-15.8548 372.8415,-14.6077 283.4202,-20.653"/>
<polygon fill="#000000" stroke="#000000" points="282.9262,-17.1803 273.2194,-21.4264 283.4554,-24.1603 282.9262,-17.1803"/>
<text text-anchor="middle" x="621.3934" y="-20.6944" font-family="Times,serif" font-size="14.00" fill="#000000">{green}</text>
</g>
<!-- 4&#45;&gt;4 -->
<g id="edge23" class="edge">
<title>4&#45;&gt;4</title>
<path fill="none" stroke="#000000" d="M273.3599,-27.6793C361.9532,-36.2706 643.3934,-35.1756 643.3934,-24.3944 643.3934,-13.9922 381.3941,-12.6071 283.3982,-20.2393"/>
<polygon fill="#000000" stroke="#000000" points="283.0202,-16.7588 273.3599,-21.1095 283.6248,-23.7327 283.0202,-16.7588"/>
<text text-anchor="middle" x="658.8934" y="-20.6944" font-family="Times,serif" font-size="14.00" fill="#000000">{red}</text>
</g>
<!-- 4&#45;&gt;4 -->
<g id="edge24" class="edge">
<title>4&#45;&gt;4</title>
<path fill="none" stroke="#000000" d="M273.245,-27.9628C367.5051,-38.2714 674.3934,-37.0819 674.3934,-24.3944 674.3934,-12.1282 387.5461,-10.6091 283.3185,-19.8372"/>
<polygon fill="#000000" stroke="#000000" points="282.8553,-16.3658 273.245,-20.826 283.5392,-23.3323 282.8553,-16.3658"/>
<text text-anchor="middle" x="705.3934" y="-20.6944" font-family="Times,serif" font-size="14.00" fill="#000000">{blue, red}</text>
</g>
<!-- 4&#45;&gt;4 -->
<g id="edge25" class="edge">
<title>4&#45;&gt;4</title>
<path fill="none" stroke="#000000" d="M273.1101,-28.126C376.635,-40.2789 736.3934,-39.035 736.3934,-24.3944 736.3934,-10.197 398.0876,-8.5975 283.1997,-19.5959"/>
<polygon fill="#000000" stroke="#000000" points="282.6866,-16.1305 273.1101,-20.6628 283.4227,-23.0917 282.6866,-16.1305"/>
<text text-anchor="middle" x="769.3934" y="-20.6944" font-family="Times,serif" font-size="14.00" fill="#000000">{bad_beep}</text>
</g>
<!-- 4&#45;&gt;4 -->
<g id="edge26" class="edge">
<title>4&#45;&gt;4</title>
<path fill="none" stroke="#000000" d="M273.1737,-28.2836C386.2485,-42.2845 802.3934,-40.9881 802.3934,-24.3944 802.3934,-8.2544 408.6953,-6.5866 283.1145,-19.391"/>
<polygon fill="#000000" stroke="#000000" points="282.7216,-15.9131 273.1737,-20.5052 283.5014,-22.8695 282.7216,-15.9131"/>
<text text-anchor="middle" x="866.3934" y="-20.6944" font-family="Times,serif" font-size="14.00" fill="#000000">{bad_beep, green, red}</text>
</g>
<!-- 4&#45;&gt;4 -->
<g id="edge27" class="edge">
<title>4&#45;&gt;4</title>
<path fill="none" stroke="#000000" d="M273.268,-28.3165C401.7184,-44.2955 930.3934,-42.9881 930.3934,-24.3944 930.3934,-6.2546 427.2175,-4.5674 283.3781,-19.3329"/>
<polygon fill="#000000" stroke="#000000" points="282.8131,-15.8743 273.268,-20.4723 283.5971,-22.8302 282.8131,-15.8743"/>
<text text-anchor="middle" x="1009.8934" y="-20.6944" font-family="Times,serif" font-size="14.00" fill="#000000">{bad_beep, blue, green, red}</text>
</g>
<!-- 4&#45;&gt;4 -->
<g id="edge28" class="edge">
<title>4&#45;&gt;4</title>
<path fill="none" stroke="#000000" d="M273.3426,-28.3179C418.7225,-46.3058 1089.3934,-44.9979 1089.3934,-24.3944 1089.3934,-4.2335 447.2309,-2.5481 283.4283,-19.3382"/>
<polygon fill="#000000" stroke="#000000" points="282.8895,-15.8766 273.3426,-20.4709 283.6708,-22.8329 282.8895,-15.8766"/>
<text text-anchor="middle" x="1107.8934" y="-20.6944" font-family="Times,serif" font-size="14.00" fill="#000000">{blue}</text>
</g>
<!-- 4&#45;&gt;4 -->
<g id="edge29" class="edge">
<title>4&#45;&gt;4</title>
<path fill="none" stroke="#000000" d="M273.346,-28.4898C424.1602,-48.3064 1126.3934,-46.9413 1126.3934,-24.3944 1126.3934,-2.3099 452.6674,-.5473 283.3096,-19.1065"/>
<polygon fill="#000000" stroke="#000000" points="282.8592,-15.6353 273.346,-20.299 283.6911,-22.5857 282.8592,-15.6353"/>
<text text-anchor="middle" x="1171.8934" y="-20.6944" font-family="Times,serif" font-size="14.00" fill="#000000">{bad_beep, red}</text>
</g>
<!-- 4&#45;&gt;4 -->
<g id="edge30" class="edge">
<title>4&#45;&gt;4</title>
<path fill="none" stroke="#000000" d="M273.2435,-28.5621C433.6645,-50.311 1217.3934,-48.9217 1217.3934,-24.3944 1217.3934,-.3461 463.9799,1.4591 283.346,-18.9788"/>
<polygon fill="#000000" stroke="#000000" points="282.739,-15.5271 273.2435,-20.2267 283.5972,-22.4743 282.739,-15.5271"/>
<text text-anchor="middle" x="1265.8934" y="-20.6944" font-family="Times,serif" font-size="14.00" fill="#000000">{bad_beep, blue}</text>
</g>
<!-- 4&#45;&gt;4 -->
<g id="edge31" class="edge">
<title>4&#45;&gt;4</title>
<path fill="none" stroke="#000000" d="M273.1783,-28.6272C443.4037,-52.3151 1314.3934,-50.9042 1314.3934,-24.3944 1314.3934,1.6235 475.4258,3.4653 283.3674,-18.869"/>
<polygon fill="#000000" stroke="#000000" points="282.6582,-15.4308 273.1783,-20.1616 283.5393,-22.3752 282.6582,-15.4308"/>
<text text-anchor="middle" x="1351.8934" y="-20.6944" font-family="Times,serif" font-size="14.00" fill="#000000">{blue, green}</text>
</g>
<!-- 4&#45;&gt;4 -->
<g id="edge32" class="edge">
<title>4&#45;&gt;4</title>
<path fill="none" stroke="#000000" d="M272.9847,-28.6931C450.7709,-54.3185 1389.3934,-52.8856 1389.3934,-24.3944 1389.3934,3.596 483.4794,5.471 283.0562,-18.7694"/>
<polygon fill="#000000" stroke="#000000" points="282.4422,-15.32 272.9847,-20.0957 283.3561,-22.2601 282.4422,-15.32"/>
<text text-anchor="middle" x="1456.3934" y="-20.6944" font-family="Times,serif" font-size="14.00" fill="#000000">{bad_beep, blue, green}</text>
</g>
<!-- 4&#45;&gt;4 -->
<g id="edge33" class="edge">
<title>4&#45;&gt;4</title>
<path fill="none" stroke="#000000" d="M273.0082,-28.7259C462.8089,-56.3226 1523.3934,-54.8788 1523.3934,-24.3944 1523.3934,5.5839 497.7313,7.4779 283.1723,-18.7124"/>
<polygon fill="#000000" stroke="#000000" points="282.4601,-15.2762 273.0082,-20.0629 283.3821,-22.2153 282.4601,-15.2762"/>
<text text-anchor="middle" x="1574.8934" y="-20.6944" font-family="Times,serif" font-size="14.00" fill="#000000">{bad_beep, green}</text>
</g>
</g>
</svg>
