<?xml version="1.0" encoding="UTF-8" standalone="no"?>
<!DOCTYPE svg PUBLIC "-//W3C//DTD SVG 1.1//EN"
 "http://www.w3.org/Graphics/SVG/1.1/DTD/svg11.dtd">
<!-- Generated by graphviz version 2.43.0 (0)
 -->
<!-- Title: %3 Pages: 1 -->
<svg width="1245pt" height="386pt"
 viewBox="0.00 0.00 1244.52 386.00" xmlns="http://www.w3.org/2000/svg" xmlns:xlink="http://www.w3.org/1999/xlink">
<g id="graph0" class="graph" transform="scale(1 1) rotate(0) translate(4 382)">
<title>%3</title>
<polygon fill="white" stroke="transparent" points="-4,4 -4,-382 1240.52,-382 1240.52,4 -4,4"/>
<!-- fake -->
<g id="node1" class="node">
<title>fake</title>
</g>
<!-- 0 -->
<g id="node2" class="node">
<title>0</title>
<ellipse fill="none" stroke="black" cx="660.52" cy="-287" rx="27" ry="18"/>
<text text-anchor="middle" x="660.52" y="-283.3" font-family="Times,serif" font-size="14.00">0</text>
</g>
<!-- fake&#45;&gt;0 -->
<g id="edge1" class="edge">
<title>fake&#45;&gt;0</title>
<path fill="none" stroke="black" stroke-width="2" d="M660.52,-341.81C660.52,-333.79 660.52,-324.05 660.52,-315.07"/>
<polygon fill="black" stroke="black" stroke-width="2" points="664.03,-315.03 660.52,-305.03 657.03,-315.03 664.03,-315.03"/>
</g>
<!-- 0&#45;&gt;0 -->
<g id="edge14" class="edge">
<title>0&#45;&gt;0</title>
<path fill="none" stroke="black" d="M685.97,-293.69C696.55,-294.15 705.52,-291.92 705.52,-287 705.52,-283.77 701.66,-281.7 696.01,-280.79"/>
<polygon fill="black" stroke="black" points="696.12,-277.29 685.97,-280.31 695.79,-284.28 696.12,-277.29"/>
<text text-anchor="middle" x="715.02" y="-283.3" font-family="Times,serif" font-size="14.00">{}</text>
</g>
<!-- 1 -->
<g id="node3" class="node">
<title>1</title>
<ellipse fill="none" stroke="black" cx="492.52" cy="-200" rx="27" ry="18"/>
<text text-anchor="middle" x="492.52" y="-196.3" font-family="Times,serif" font-size="14.00">1</text>
</g>
<!-- 0&#45;&gt;1 -->
<g id="edge10" class="edge">
<title>0&#45;&gt;1</title>
<path fill="none" stroke="black" d="M633.39,-285.98C579.23,-285.31 460.73,-280.42 435.52,-251 423.6,-237.08 441.51,-223.51 460.32,-214.03"/>
<polygon fill="black" stroke="black" points="461.94,-217.14 469.5,-209.72 458.96,-210.8 461.94,-217.14"/>
<text text-anchor="middle" x="453.02" y="-239.8" font-family="Times,serif" font-size="14.00">{c0}</text>
</g>
<!-- 0&#45;&gt;1 -->
<g id="edge11" class="edge">
<title>0&#45;&gt;1</title>
<path fill="none" stroke="black" d="M633.49,-284.31C590.87,-281.03 511.06,-272.15 493.52,-251 488.3,-244.7 486.79,-236.27 486.96,-228.12"/>
<polygon fill="black" stroke="black" points="490.45,-228.43 487.93,-218.14 483.48,-227.76 490.45,-228.43"/>
<text text-anchor="middle" x="524.02" y="-239.8" font-family="Times,serif" font-size="14.00">{c0, c2}</text>
</g>
<!-- 0&#45;&gt;1 -->
<g id="edge12" class="edge">
<title>0&#45;&gt;1</title>
<path fill="none" stroke="black" d="M637.47,-277.56C620.53,-271.05 597.13,-261.42 577.52,-251 566.75,-245.27 564.96,-242.34 554.52,-236 543.9,-229.55 532.06,-222.76 521.6,-216.91"/>
<polygon fill="black" stroke="black" points="523.26,-213.83 512.82,-212.03 519.86,-219.94 523.26,-213.83"/>
<text text-anchor="middle" x="608.02" y="-239.8" font-family="Times,serif" font-size="14.00">{c0, c1}</text>
</g>
<!-- 0&#45;&gt;1 -->
<g id="edge13" class="edge">
<title>0&#45;&gt;1</title>
<path fill="none" stroke="black" d="M657.08,-268.79C654.01,-257.86 648.42,-244.27 638.52,-236 608.06,-210.56 562.17,-203 530,-201.05"/>
<polygon fill="black" stroke="black" points="529.8,-197.54 519.65,-200.59 529.49,-204.53 529.8,-197.54"/>
<text text-anchor="middle" x="691.52" y="-239.8" font-family="Times,serif" font-size="14.00">{c0, c1, c2}</text>
</g>
<!-- 2 -->
<g id="node4" class="node">
<title>2</title>
<ellipse fill="none" stroke="black" cx="672.52" cy="-22" rx="27" ry="18"/>
<text text-anchor="middle" x="672.52" y="-18.3" font-family="Times,serif" font-size="14.00">2</text>
</g>
<!-- 0&#45;&gt;2 -->
<g id="edge15" class="edge">
<title>0&#45;&gt;2</title>
<path fill="none" stroke="black" d="M686.72,-281.79C704.65,-277.4 727.15,-268.57 738.52,-251 746.3,-238.98 801.58,-273.75 732.52,-95 724.88,-75.21 709.45,-56.9 696.16,-43.69"/>
<polygon fill="black" stroke="black" points="698.3,-40.9 688.65,-36.54 693.47,-45.97 698.3,-40.9"/>
<text text-anchor="middle" x="773.02" y="-152.8" font-family="Times,serif" font-size="14.00">{c1}</text>
</g>
<!-- 0&#45;&gt;2 -->
<g id="edge16" class="edge">
<title>0&#45;&gt;2</title>
<path fill="none" stroke="black" d="M687.22,-283.31C710.38,-279.66 743.4,-271.08 764.52,-251 773.2,-242.75 793.39,-171.39 794.52,-164 803.27,-107.13 741.05,-61.26 702.2,-38.53"/>
<polygon fill="black" stroke="black" points="703.78,-35.4 693.36,-33.51 700.33,-41.49 703.78,-35.4"/>
<text text-anchor="middle" x="812.02" y="-152.8" font-family="Times,serif" font-size="14.00">{c2}</text>
</g>
<!-- 0&#45;&gt;2 -->
<g id="edge17" class="edge">
<title>0&#45;&gt;2</title>
<path fill="none" stroke="black" d="M687.62,-283.88C713.98,-280.59 753.99,-272.23 781.52,-251 817.2,-223.49 821.54,-207.42 833.52,-164 851.92,-97.38 758.58,-53.13 706.17,-33.92"/>
<polygon fill="black" stroke="black" points="707.18,-30.56 696.59,-30.51 704.84,-37.16 707.18,-30.56"/>
<text text-anchor="middle" x="866.02" y="-152.8" font-family="Times,serif" font-size="14.00">{c1, c2}</text>
</g>
<!-- 1&#45;&gt;1 -->
<g id="edge27" class="edge">
<title>1&#45;&gt;1</title>
<path fill="none" stroke="black" d="M517.06,-207.75C528.03,-208.49 537.52,-205.91 537.52,-200 537.52,-196.03 533.24,-193.56 527.1,-192.59"/>
<polygon fill="black" stroke="black" points="527.17,-189.09 517.06,-192.25 526.93,-196.09 527.17,-189.09"/>
<text text-anchor="middle" x="547.02" y="-196.3" font-family="Times,serif" font-size="14.00">{}</text>
</g>
<!-- 1&#45;&gt;2 -->
<g id="edge31" class="edge">
<title>1&#45;&gt;2</title>
<path fill="none" stroke="black" d="M504.27,-183.43C508.43,-177.52 512.97,-170.62 516.52,-164 532.2,-134.85 524.47,-121.33 544.52,-95 559.12,-75.83 566.42,-73.62 587.52,-62 607.85,-50.81 615.53,-53.88 636.52,-44 639.16,-42.76 641.86,-41.39 644.54,-39.96"/>
<polygon fill="black" stroke="black" points="646.42,-42.92 653.43,-34.98 643,-36.81 646.42,-42.92"/>
<text text-anchor="middle" x="562.02" y="-109.3" font-family="Times,serif" font-size="14.00">{c2}</text>
</g>
<!-- 1&#45;&gt;2 -->
<g id="edge32" class="edge">
<title>1&#45;&gt;2</title>
<path fill="none" stroke="black" d="M510.69,-186.41C528.89,-173.44 557.33,-152.17 579.52,-131 607.79,-104.05 636.55,-69.28 654.46,-46.57"/>
<polygon fill="black" stroke="black" points="657.36,-48.54 660.76,-38.5 651.85,-44.23 657.36,-48.54"/>
<text text-anchor="middle" x="630.02" y="-109.3" font-family="Times,serif" font-size="14.00">{c0}</text>
</g>
<!-- 1&#45;&gt;2 -->
<g id="edge33" class="edge">
<title>1&#45;&gt;2</title>
<path fill="none" stroke="black" d="M518.85,-195.29C554.41,-188.82 617.18,-172.01 650.52,-131 669.05,-108.21 673.27,-73.92 673.68,-50.12"/>
<polygon fill="black" stroke="black" points="677.18,-49.98 673.64,-40 670.18,-50.01 677.18,-49.98"/>
<text text-anchor="middle" x="698.02" y="-109.3" font-family="Times,serif" font-size="14.00">{c0, c2}</text>
</g>
<!-- 3 -->
<g id="node5" class="node">
<title>3</title>
<ellipse fill="none" stroke="black" cx="312.52" cy="-113" rx="27" ry="18"/>
<text text-anchor="middle" x="312.52" y="-109.3" font-family="Times,serif" font-size="14.00">3</text>
</g>
<!-- 1&#45;&gt;3 -->
<g id="edge26" class="edge">
<title>1&#45;&gt;3</title>
<path fill="none" stroke="black" d="M465.58,-197.73C397.3,-194.22 221.7,-183.39 204.52,-164 181.27,-137.75 236.32,-124.33 276.07,-118.26"/>
<polygon fill="black" stroke="black" points="276.63,-121.72 286.04,-116.84 275.65,-114.79 276.63,-121.72"/>
<text text-anchor="middle" x="247.52" y="-152.8" font-family="Times,serif" font-size="14.00">{c0, c1, c2}</text>
</g>
<!-- 1&#45;&gt;3 -->
<g id="edge28" class="edge">
<title>1&#45;&gt;3</title>
<path fill="none" stroke="black" d="M465.4,-197.73C420.23,-194.98 332.67,-186.79 313.52,-164 308.26,-157.74 306.74,-149.31 306.91,-141.16"/>
<polygon fill="black" stroke="black" points="310.4,-141.47 307.89,-131.17 303.43,-140.79 310.4,-141.47"/>
<text text-anchor="middle" x="331.02" y="-152.8" font-family="Times,serif" font-size="14.00">{c1}</text>
</g>
<!-- 1&#45;&gt;3 -->
<g id="edge29" class="edge">
<title>1&#45;&gt;3</title>
<path fill="none" stroke="black" d="M466.29,-194.72C440.93,-189.84 401.97,-180.33 371.52,-164 357.76,-156.62 344.32,-145.62 333.75,-135.81"/>
<polygon fill="black" stroke="black" points="335.91,-133.03 326.27,-128.63 331.06,-138.08 335.91,-133.03"/>
<text text-anchor="middle" x="402.02" y="-152.8" font-family="Times,serif" font-size="14.00">{c1, c2}</text>
</g>
<!-- 1&#45;&gt;3 -->
<g id="edge30" class="edge">
<title>1&#45;&gt;3</title>
<path fill="none" stroke="black" d="M478.49,-184.39C467.06,-173.26 450,-158.3 432.52,-149 406.04,-134.9 373.17,-125.82 348.53,-120.45"/>
<polygon fill="black" stroke="black" points="349.01,-116.98 338.51,-118.38 347.59,-123.83 349.01,-116.98"/>
<text text-anchor="middle" x="485.02" y="-152.8" font-family="Times,serif" font-size="14.00">{c0, c1}</text>
</g>
<!-- 2&#45;&gt;2 -->
<g id="edge34" class="edge">
<title>2&#45;&gt;2</title>
<path fill="none" stroke="black" d="M699.77,-23.5C709.55,-23.53 717.52,-23.03 717.52,-22 717.52,-21.37 714.56,-20.94 710.04,-20.71"/>
<polygon fill="black" stroke="black" points="709.83,-17.2 699.77,-20.5 709.69,-24.2 709.83,-17.2"/>
<text text-anchor="middle" x="748.02" y="-18.3" font-family="Times,serif" font-size="14.00">{c0, c1}</text>
</g>
<!-- 2&#45;&gt;2 -->
<g id="edge35" class="edge">
<title>2&#45;&gt;2</title>
<path fill="none" stroke="black" d="M699.49,-24.32C732.19,-25.73 778.52,-24.95 778.52,-22 778.52,-19.35 741.13,-18.45 709.82,-19.32"/>
<polygon fill="black" stroke="black" points="709.36,-15.83 699.49,-19.68 709.61,-22.83 709.36,-15.83"/>
<text text-anchor="middle" x="821.52" y="-18.3" font-family="Times,serif" font-size="14.00">{c0, c1, c2}</text>
</g>
<!-- 2&#45;&gt;2 -->
<g id="edge36" class="edge">
<title>2&#45;&gt;2</title>
<path fill="none" stroke="black" d="M699.48,-24.7C754.55,-27.8 864.52,-26.9 864.52,-22 864.52,-17.39 767.06,-16.32 709.69,-18.8"/>
<polygon fill="black" stroke="black" points="709.29,-15.31 699.48,-19.3 709.64,-22.31 709.29,-15.31"/>
<text text-anchor="middle" x="882.02" y="-18.3" font-family="Times,serif" font-size="14.00">{c1}</text>
</g>
<!-- 2&#45;&gt;2 -->
<g id="edge37" class="edge">
<title>2&#45;&gt;2</title>
<path fill="none" stroke="black" d="M699.31,-25.23C762.69,-29.79 899.52,-28.72 899.52,-22 899.52,-15.62 776.23,-14.33 709.51,-18.12"/>
<polygon fill="black" stroke="black" points="709.07,-14.64 699.31,-18.77 709.51,-21.63 709.07,-14.64"/>
<text text-anchor="middle" x="917.02" y="-18.3" font-family="Times,serif" font-size="14.00">{c2}</text>
</g>
<!-- 2&#45;&gt;2 -->
<g id="edge38" class="edge">
<title>2&#45;&gt;2</title>
<path fill="none" stroke="black" d="M699.25,-25.67C770.58,-31.8 934.52,-30.57 934.52,-22 934.52,-13.81 784.98,-12.33 709.4,-17.55"/>
<polygon fill="black" stroke="black" points="708.95,-14.08 699.25,-18.33 709.49,-21.05 708.95,-14.08"/>
<text text-anchor="middle" x="965.02" y="-18.3" font-family="Times,serif" font-size="14.00">{c1, c2}</text>
</g>
<!-- 2&#45;&gt;2 -->
<g id="edge39" class="edge">
<title>2&#45;&gt;2</title>
<path fill="none" stroke="black" d="M699.05,-25.91C782.21,-33.82 995.52,-32.51 995.52,-22 995.52,-11.89 798.15,-10.3 709.09,-17.23"/>
<polygon fill="black" stroke="black" points="708.71,-13.75 699.05,-18.09 709.31,-20.72 708.71,-13.75"/>
<text text-anchor="middle" x="1005.02" y="-18.3" font-family="Times,serif" font-size="14.00">{}</text>
</g>
<!-- 2&#45;&gt;2 -->
<g id="edge40" class="edge">
<title>2&#45;&gt;2</title>
<path fill="none" stroke="black" d="M698.9,-26.28C786.73,-35.81 1014.52,-34.39 1014.52,-22 1014.52,-10.06 802.89,-8.3 708.95,-16.73"/>
<polygon fill="black" stroke="black" points="708.51,-13.25 698.9,-17.72 709.2,-20.22 708.51,-13.25"/>
<text text-anchor="middle" x="1032.02" y="-18.3" font-family="Times,serif" font-size="14.00">{c0}</text>
</g>
<!-- 2&#45;&gt;2 -->
<g id="edge41" class="edge">
<title>2&#45;&gt;2</title>
<path fill="none" stroke="black" d="M698.96,-26.57C794.02,-37.82 1049.52,-36.3 1049.52,-22 1049.52,-8.18 810.71,-6.3 708.95,-16.36"/>
<polygon fill="black" stroke="black" points="708.53,-12.88 698.96,-17.43 709.28,-19.84 708.53,-12.88"/>
<text text-anchor="middle" x="1080.02" y="-18.3" font-family="Times,serif" font-size="14.00">{c0, c2}</text>
</g>
<!-- 3&#45;&gt;2 -->
<g id="edge23" class="edge">
<title>3&#45;&gt;2</title>
<path fill="none" stroke="black" d="M316.96,-95.08C320.9,-83.69 327.88,-69.43 339.52,-62 395.26,-26.42 573.25,-63.18 636.52,-44 639.54,-43.09 642.58,-41.87 645.54,-40.49"/>
<polygon fill="black" stroke="black" points="647.43,-43.45 654.61,-35.66 644.14,-37.27 647.43,-43.45"/>
<text text-anchor="middle" x="370.02" y="-65.8" font-family="Times,serif" font-size="14.00">{c0, c1}</text>
</g>
<!-- 3&#45;&gt;2 -->
<g id="edge24" class="edge">
<title>3&#45;&gt;2</title>
<path fill="none" stroke="black" d="M336.25,-104.02C354.29,-97.61 379.5,-87.9 400.52,-77 411.36,-71.38 411.98,-65.97 423.52,-62 513.37,-31.12 545.94,-72.64 636.52,-44 639.53,-43.05 642.56,-41.81 645.51,-40.42"/>
<polygon fill="black" stroke="black" points="647.41,-43.37 654.58,-35.56 644.11,-37.2 647.41,-43.37"/>
<text text-anchor="middle" x="441.02" y="-65.8" font-family="Times,serif" font-size="14.00">{c1}</text>
</g>
<!-- 3&#45;&gt;2 -->
<g id="edge25" class="edge">
<title>3&#45;&gt;2</title>
<path fill="none" stroke="black" d="M338.7,-108.49C368.6,-103.86 418.54,-94.22 458.52,-77 469.73,-72.17 470.05,-66.15 481.52,-62 546.75,-38.43 570.73,-65.94 636.52,-44 639.52,-43 642.53,-41.74 645.48,-40.32"/>
<polygon fill="black" stroke="black" points="647.39,-43.26 654.54,-35.44 644.07,-37.1 647.39,-43.26"/>
<text text-anchor="middle" x="499.02" y="-65.8" font-family="Times,serif" font-size="14.00">{c0}</text>
</g>
<!-- 3&#45;&gt;3 -->
<g id="edge22" class="edge">
<title>3&#45;&gt;3</title>
<path fill="none" stroke="black" d="M337.06,-120.75C348.03,-121.49 357.52,-118.91 357.52,-113 357.52,-109.03 353.24,-106.56 347.1,-105.59"/>
<polygon fill="black" stroke="black" points="347.17,-102.09 337.06,-105.25 346.93,-109.09 347.17,-102.09"/>
<text text-anchor="middle" x="367.02" y="-109.3" font-family="Times,serif" font-size="14.00">{}</text>
</g>
<!-- 4 -->
<g id="node6" class="node">
<title>4</title>
<ellipse fill="none" stroke="black" cx="68.52" cy="-22" rx="18" ry="18"/>
<ellipse fill="none" stroke="black" cx="68.52" cy="-22" rx="22" ry="22"/>
<text text-anchor="middle" x="68.52" y="-18.3" font-family="Times,serif" font-size="14.00">4</text>
</g>
<!-- 3&#45;&gt;4 -->
<g id="edge18" class="edge">
<title>3&#45;&gt;4</title>
<path fill="none" stroke="black" d="M285.55,-110.95C213.92,-107.89 23.12,-97.83 4.52,-77 -10.28,-60.42 15.44,-44.37 38.55,-34.15"/>
<polygon fill="black" stroke="black" points="39.97,-37.35 47.85,-30.26 37.27,-30.89 39.97,-37.35"/>
<text text-anchor="middle" x="35.02" y="-65.8" font-family="Times,serif" font-size="14.00">{c0, c2}</text>
</g>
<!-- 3&#45;&gt;4 -->
<g id="edge19" class="edge">
<title>3&#45;&gt;4</title>
<path fill="none" stroke="black" d="M285.49,-111.12C232.65,-108.89 118.23,-101.3 88.52,-77 81.33,-71.11 76.72,-62.38 73.77,-53.64"/>
<polygon fill="black" stroke="black" points="77.13,-52.64 71.1,-43.92 70.38,-54.49 77.13,-52.64"/>
<text text-anchor="middle" x="106.02" y="-65.8" font-family="Times,serif" font-size="14.00">{c2}</text>
</g>
<!-- 3&#45;&gt;4 -->
<g id="edge20" class="edge">
<title>3&#45;&gt;4</title>
<path fill="none" stroke="black" d="M285.96,-109.67C252.34,-106 193.19,-97.1 146.52,-77 143.6,-75.74 115.8,-56.34 94.21,-41.14"/>
<polygon fill="black" stroke="black" points="96.21,-38.27 86.02,-35.37 92.17,-43.99 96.21,-38.27"/>
<text text-anchor="middle" x="177.02" y="-65.8" font-family="Times,serif" font-size="14.00">{c1, c2}</text>
</g>
<!-- 3&#45;&gt;4 -->
<g id="edge21" class="edge">
<title>3&#45;&gt;4</title>
<path fill="none" stroke="black" d="M289.4,-103.38C272.7,-96.86 249.78,-87.28 230.52,-77 219.76,-71.25 218.64,-67.04 207.52,-62 172.35,-46.05 129.17,-35.17 100.35,-29.04"/>
<polygon fill="black" stroke="black" points="100.93,-25.58 90.43,-26.99 99.52,-32.44 100.93,-25.58"/>
<text text-anchor="middle" x="273.52" y="-65.8" font-family="Times,serif" font-size="14.00">{c0, c1, c2}</text>
</g>
<!-- 4&#45;&gt;4 -->
<g id="edge2" class="edge">
<title>4&#45;&gt;4</title>
<path fill="none" stroke="black" d="M90.74,-23.48C100.32,-23.6 108.52,-23.11 108.52,-22 108.52,-21.32 105.48,-20.88 100.93,-20.66"/>
<polygon fill="black" stroke="black" points="100.78,-17.16 90.74,-20.52 100.69,-24.15 100.78,-17.16"/>
<text text-anchor="middle" x="151.52" y="-18.3" font-family="Times,serif" font-size="14.00">{c0, c1, c2}</text>
</g>
<!-- 4&#45;&gt;4 -->
<g id="edge3" class="edge">
<title>4&#45;&gt;4</title>
<path fill="none" stroke="black" d="M90.6,-24C128.11,-25.82 194.52,-25.16 194.52,-22 194.52,-19.11 139.04,-18.31 100.85,-19.59"/>
<polygon fill="black" stroke="black" points="100.45,-16.1 90.6,-20 100.73,-23.1 100.45,-16.1"/>
<text text-anchor="middle" x="212.02" y="-18.3" font-family="Times,serif" font-size="14.00">{c2}</text>
</g>
<!-- 4&#45;&gt;4 -->
<g id="edge4" class="edge">
<title>4&#45;&gt;4</title>
<path fill="none" stroke="black" d="M90.45,-24.59C136.92,-27.82 229.52,-26.96 229.52,-22 229.52,-17.38 149.15,-16.32 100.58,-18.81"/>
<polygon fill="black" stroke="black" points="100.22,-15.32 90.45,-19.41 100.64,-22.31 100.22,-15.32"/>
<text text-anchor="middle" x="247.02" y="-18.3" font-family="Times,serif" font-size="14.00">{c0}</text>
</g>
<!-- 4&#45;&gt;4 -->
<g id="edge5" class="edge">
<title>4&#45;&gt;4</title>
<path fill="none" stroke="black" d="M90.32,-25.03C145.12,-29.82 264.52,-28.81 264.52,-22 264.52,-15.59 158.7,-14.31 100.58,-18.18"/>
<polygon fill="black" stroke="black" points="100.02,-14.72 90.32,-18.97 100.55,-21.7 100.02,-14.72"/>
<text text-anchor="middle" x="282.02" y="-18.3" font-family="Times,serif" font-size="14.00">{c1}</text>
</g>
<!-- 4&#45;&gt;4 -->
<g id="edge6" class="edge">
<title>4&#45;&gt;4</title>
<path fill="none" stroke="black" d="M90.43,-25.41C153.23,-31.83 299.52,-30.69 299.52,-22 299.52,-13.75 167.71,-12.31 100.61,-17.67"/>
<polygon fill="black" stroke="black" points="100.07,-14.2 90.43,-18.59 100.7,-21.17 100.07,-14.2"/>
<text text-anchor="middle" x="330.02" y="-18.3" font-family="Times,serif" font-size="14.00">{c1, c2}</text>
</g>
<!-- 4&#45;&gt;4 -->
<g id="edge7" class="edge">
<title>4&#45;&gt;4</title>
<path fill="none" stroke="black" d="M90.5,-25.62C165.01,-33.85 360.52,-32.64 360.52,-22 360.52,-11.82 181.45,-10.27 100.75,-17.38"/>
<polygon fill="black" stroke="black" points="100.11,-13.92 90.5,-18.38 100.79,-20.89 100.11,-13.92"/>
<text text-anchor="middle" x="370.02" y="-18.3" font-family="Times,serif" font-size="14.00">{}</text>
</g>
<!-- 4&#45;&gt;4 -->
<g id="edge8" class="edge">
<title>4&#45;&gt;4</title>
<path fill="none" stroke="black" d="M90.4,-25.93C169.69,-35.85 379.52,-34.54 379.52,-22 379.52,-9.96 186.15,-8.28 100.53,-16.93"/>
<polygon fill="black" stroke="black" points="99.95,-13.48 90.4,-18.07 100.73,-20.43 99.95,-13.48"/>
<text text-anchor="middle" x="410.02" y="-18.3" font-family="Times,serif" font-size="14.00">{c0, c1}</text>
</g>
<!-- 4&#45;&gt;4 -->
<g id="edge9" class="edge">
<title>4&#45;&gt;4</title>
<path fill="none" stroke="black" d="M90.21,-26.04C179.89,-37.86 440.52,-36.52 440.52,-22 440.52,-7.99 197.89,-6.25 100.29,-16.76"/>
<polygon fill="black" stroke="black" points="99.73,-13.3 90.21,-17.96 100.56,-20.25 99.73,-13.3"/>
<text text-anchor="middle" x="471.02" y="-18.3" font-family="Times,serif" font-size="14.00">{c0, c2}</text>
</g>
</g>
</svg>
