<?xml version="1.0" encoding="UTF-8" standalone="no"?>
<!DOCTYPE svg PUBLIC "-//W3C//DTD SVG 1.1//EN"
 "http://www.w3.org/Graphics/SVG/1.1/DTD/svg11.dtd">
<!-- Generated by graphviz version 2.38.0 (20140413.2041)
 -->
<!-- Title: %3 Pages: 1 -->
<svg width="348pt" height="386pt"
 viewBox="0.00 0.00 348.25 386.00" xmlns="http://www.w3.org/2000/svg" xmlns:xlink="http://www.w3.org/1999/xlink">
<g id="graph0" class="graph" transform="scale(1 1) rotate(0) translate(4 382)">
<title>%3</title>
<polygon fill="white" stroke="none" points="-4,4 -4,-382 344.245,-382 344.245,4 -4,4"/>
<!-- fake -->
<g id="node1" class="node"><title>fake</title>
</g>
<!-- 0 -->
<g id="node5" class="node"><title>0</title>
<ellipse fill="none" stroke="black" cx="172.245" cy="-287" rx="27" ry="18"/>
<text text-anchor="middle" x="172.245" y="-283.3" font-family="Times,serif" font-size="14.00">0</text>
</g>
<!-- fake&#45;&gt;0 -->
<g id="edge1" class="edge"><title>fake&#45;&gt;0</title>
<path fill="none" stroke="black" stroke-width="2" d="M172.245,-341.813C172.245,-333.789 172.245,-324.047 172.245,-315.069"/>
<polygon fill="black" stroke="black" stroke-width="2" points="175.745,-315.029 172.245,-305.029 168.745,-315.029 175.745,-315.029"/>
</g>
<!-- 3 -->
<g id="node2" class="node"><title>3</title>
<ellipse fill="none" stroke="black" cx="75.2453" cy="-22" rx="18" ry="18"/>
<ellipse fill="none" stroke="black" cx="75.2453" cy="-22" rx="22" ry="22"/>
<text text-anchor="middle" x="75.2453" y="-18.3" font-family="Times,serif" font-size="14.00">3</text>
</g>
<!-- 3&#45;&gt;3 -->
<g id="edge5" class="edge"><title>3&#45;&gt;3</title>
<path fill="none" stroke="black" d="M95.8261,-30.3702C106.09,-31.5284 115.245,-28.7383 115.245,-22 115.245,-17.6833 111.488,-14.9869 106.089,-13.9109"/>
<polygon fill="black" stroke="black" points="105.918,-10.405 95.8261,-13.6298 105.726,-17.4024 105.918,-10.405"/>
<text text-anchor="middle" x="122.245" y="-18.3" font-family="Times,serif" font-size="14.00">{}</text>
</g>
<!-- 3&#45;&gt;0 -->
<g id="edge2" class="edge"><title>3&#45;&gt;0</title>
<path fill="none" stroke="black" d="M58.5054,-36.9197C50.9507,-43.8567 42.369,-52.7331 36.2453,-62 34.8188,-64.1586 -6.84548,-122.211 1.24526,-164 9.16747,-204.919 4.91393,-223.515 36.2453,-251 63.5426,-274.946 105.111,-282.876 135.105,-285.32"/>
<polygon fill="black" stroke="black" points="134.984,-288.82 145.189,-285.973 135.436,-281.834 134.984,-288.82"/>
<text text-anchor="middle" x="14.7453" y="-152.8" font-family="Times,serif" font-size="14.00">{c0}</text>
</g>
<!-- 3&#45;&gt;0 -->
<g id="edge3" class="edge"><title>3&#45;&gt;0</title>
<path fill="none" stroke="black" d="M67.4126,-42.6675C57.5621,-69.9643 42.891,-120.85 51.2453,-164 59.1675,-204.919 56.8335,-221.47 86.2453,-251 99.9384,-264.748 119.769,-273.306 136.937,-278.514"/>
<polygon fill="black" stroke="black" points="136.101,-281.914 146.672,-281.208 137.967,-275.168 136.101,-281.914"/>
<text text-anchor="middle" x="64.7453" y="-152.8" font-family="Times,serif" font-size="14.00">{c1}</text>
</g>
<!-- 3&#45;&gt;0 -->
<g id="edge4" class="edge"><title>3&#45;&gt;0</title>
<path fill="none" stroke="black" d="M81.7098,-43.043C94.7431,-83.0069 125.556,-175.279 156.245,-251 157.5,-254.096 158.875,-257.318 160.275,-260.498"/>
<polygon fill="black" stroke="black" points="157.148,-262.078 164.458,-269.747 163.527,-259.193 157.148,-262.078"/>
<text text-anchor="middle" x="135.745" y="-152.8" font-family="Times,serif" font-size="14.00">{c2}</text>
</g>
<!-- 2 -->
<g id="node3" class="node"><title>2</title>
<ellipse fill="none" stroke="black" cx="182.245" cy="-113" rx="27" ry="18"/>
<text text-anchor="middle" x="182.245" y="-109.3" font-family="Times,serif" font-size="14.00">2</text>
</g>
<!-- 2&#45;&gt;3 -->
<g id="edge6" class="edge"><title>2&#45;&gt;3</title>
<path fill="none" stroke="black" d="M165.994,-98.4828C148.421,-83.866 120.204,-60.3954 99.897,-43.5047"/>
<polygon fill="black" stroke="black" points="101.929,-40.6423 92.0026,-36.9383 97.4525,-46.024 101.929,-40.6423"/>
<text text-anchor="middle" x="151.745" y="-65.8" font-family="Times,serif" font-size="14.00">{c0}</text>
</g>
<!-- 2&#45;&gt;2 -->
<g id="edge9" class="edge"><title>2&#45;&gt;2</title>
<path fill="none" stroke="black" d="M206.778,-120.752C217.753,-121.49 227.245,-118.906 227.245,-113 227.245,-109.032 222.96,-106.563 216.82,-105.594"/>
<polygon fill="black" stroke="black" points="216.892,-102.095 206.778,-105.248 216.651,-109.091 216.892,-102.095"/>
<text text-anchor="middle" x="234.245" y="-109.3" font-family="Times,serif" font-size="14.00">{}</text>
</g>
<!-- 2&#45;&gt;0 -->
<g id="edge7" class="edge"><title>2&#45;&gt;0</title>
<path fill="none" stroke="black" d="M175.33,-130.411C170.013,-143.967 163.107,-163.86 160.245,-182 156.127,-208.11 160.56,-238.117 165.158,-259.168"/>
<polygon fill="black" stroke="black" points="161.775,-260.07 167.462,-269.008 168.59,-258.474 161.775,-260.07"/>
<text text-anchor="middle" x="173.745" y="-196.3" font-family="Times,serif" font-size="14.00">{c1}</text>
</g>
<!-- 2&#45;&gt;0 -->
<g id="edge8" class="edge"><title>2&#45;&gt;0</title>
<path fill="none" stroke="black" d="M184.686,-130.982C187.277,-151.613 190.575,-187.451 187.245,-218 185.741,-231.802 182.568,-246.906 179.526,-259.365"/>
<polygon fill="black" stroke="black" points="176.117,-258.569 177.04,-269.123 182.9,-260.296 176.117,-258.569"/>
<text text-anchor="middle" x="201.745" y="-196.3" font-family="Times,serif" font-size="14.00">{c2}</text>
</g>
<!-- 1 -->
<g id="node4" class="node"><title>1</title>
<ellipse fill="none" stroke="black" cx="281.245" cy="-200" rx="27" ry="18"/>
<text text-anchor="middle" x="281.245" y="-196.3" font-family="Times,serif" font-size="14.00">1</text>
</g>
<!-- 1&#45;&gt;2 -->
<g id="edge11" class="edge"><title>1&#45;&gt;2</title>
<path fill="none" stroke="black" d="M265.013,-184.97C253.394,-174.936 237.372,-161.119 223.245,-149 217.709,-144.251 211.744,-139.149 206.124,-134.35"/>
<polygon fill="black" stroke="black" points="208.106,-131.44 198.227,-127.612 203.562,-136.765 208.106,-131.44"/>
<text text-anchor="middle" x="251.745" y="-152.8" font-family="Times,serif" font-size="14.00">{c1}</text>
</g>
<!-- 1&#45;&gt;1 -->
<g id="edge13" class="edge"><title>1&#45;&gt;1</title>
<path fill="none" stroke="black" d="M305.778,-207.752C316.753,-208.49 326.245,-205.906 326.245,-200 326.245,-196.032 321.96,-193.563 315.82,-192.594"/>
<polygon fill="black" stroke="black" points="315.892,-189.095 305.778,-192.248 315.651,-196.091 315.892,-189.095"/>
<text text-anchor="middle" x="333.245" y="-196.3" font-family="Times,serif" font-size="14.00">{}</text>
</g>
<!-- 1&#45;&gt;0 -->
<g id="edge10" class="edge"><title>1&#45;&gt;0</title>
<path fill="none" stroke="black" d="M277.238,-218.22C273.974,-228.874 268.374,-242.159 259.245,-251 245.167,-264.634 225.093,-273.185 207.774,-278.418"/>
<polygon fill="black" stroke="black" points="206.668,-275.093 197.961,-281.13 208.532,-281.84 206.668,-275.093"/>
<text text-anchor="middle" x="282.745" y="-239.8" font-family="Times,serif" font-size="14.00">{c0}</text>
</g>
<!-- 1&#45;&gt;0 -->
<g id="edge12" class="edge"><title>1&#45;&gt;0</title>
<path fill="none" stroke="black" d="M294.272,-216.129C301.711,-226.681 308.133,-240.666 300.245,-251 289.13,-265.563 242.42,-275.54 208.634,-281.009"/>
<polygon fill="black" stroke="black" points="207.963,-277.571 198.617,-282.561 209.035,-284.488 207.963,-277.571"/>
<text text-anchor="middle" x="316.745" y="-239.8" font-family="Times,serif" font-size="14.00">{c2}</text>
</g>
<!-- 0&#45;&gt;1 -->
<g id="edge16" class="edge"><title>0&#45;&gt;1</title>
<path fill="none" stroke="black" d="M186.946,-271.803C197.956,-261.441 213.582,-247.292 228.245,-236 236.072,-229.972 244.913,-223.877 253.098,-218.499"/>
<polygon fill="black" stroke="black" points="255.14,-221.347 261.644,-212.983 251.344,-215.465 255.14,-221.347"/>
<text text-anchor="middle" x="241.745" y="-239.8" font-family="Times,serif" font-size="14.00">{c2}</text>
</g>
<!-- 0&#45;&gt;0 -->
<g id="edge14" class="edge"><title>0&#45;&gt;0</title>
<path fill="none" stroke="black" d="M199.04,-289.245C209.026,-289.319 217.245,-288.57 217.245,-287 217.245,-286.019 214.034,-285.358 209.189,-285.019"/>
<polygon fill="black" stroke="black" points="209.128,-281.516 199.04,-284.755 208.946,-288.514 209.128,-281.516"/>
<text text-anchor="middle" x="230.745" y="-283.3" font-family="Times,serif" font-size="14.00">{c0}</text>
</g>
<!-- 0&#45;&gt;0 -->
<g id="edge15" class="edge"><title>0&#45;&gt;0</title>
<path fill="none" stroke="black" d="M198.623,-290.893C220.413,-292.399 244.245,-291.102 244.245,-287 244.245,-283.523 227.121,-282.061 208.633,-282.614"/>
<polygon fill="black" stroke="black" points="208.439,-279.119 198.623,-283.107 208.783,-286.11 208.439,-279.119"/>
<text text-anchor="middle" x="257.745" y="-283.3" font-family="Times,serif" font-size="14.00">{c1}</text>
</g>
<!-- 0&#45;&gt;0 -->
<g id="edge17" class="edge"><title>0&#45;&gt;0</title>
<path fill="none" stroke="black" d="M198.611,-292.009C230.322,-295.455 271.245,-293.785 271.245,-287 271.245,-280.93 238.499,-278.954 208.893,-281.071"/>
<polygon fill="black" stroke="black" points="208.259,-277.614 198.611,-281.991 208.883,-284.586 208.259,-277.614"/>
<text text-anchor="middle" x="278.245" y="-283.3" font-family="Times,serif" font-size="14.00">{}</text>
</g>
</g>
</svg>
