<?xml version="1.0" encoding="UTF-8" standalone="no"?>
<!DOCTYPE svg PUBLIC "-//W3C//DTD SVG 1.1//EN"
 "http://www.w3.org/Graphics/SVG/1.1/DTD/svg11.dtd">
<!-- Generated by graphviz version 2.38.0 (20140413.2041)
 -->
<!-- Title: %3 Pages: 1 -->
<svg width="1049pt" height="386pt"
 viewBox="0.00 0.00 1049.07 386.00" xmlns="http://www.w3.org/2000/svg" xmlns:xlink="http://www.w3.org/1999/xlink">
<g id="graph0" class="graph" transform="scale(1 1) rotate(0) translate(4 382)">
<title>%3</title>
<polygon fill="white" stroke="none" points="-4,4 -4,-382 1045.07,-382 1045.07,4 -4,4"/>
<!-- fake -->
<g id="node1" class="node"><title>fake</title>
</g>
<!-- 0 -->
<g id="node2" class="node"><title>0</title>
<ellipse fill="none" stroke="black" cx="572.073" cy="-287" rx="27" ry="18"/>
<text text-anchor="middle" x="572.073" y="-283.3" font-family="Times,serif" font-size="14.00">0</text>
</g>
<!-- fake&#45;&gt;0 -->
<g id="edge1" class="edge"><title>fake&#45;&gt;0</title>
<path fill="none" stroke="black" stroke-width="2" d="M572.073,-341.813C572.073,-333.789 572.073,-324.047 572.073,-315.069"/>
<polygon fill="black" stroke="black" stroke-width="2" points="575.573,-315.029 572.073,-305.029 568.573,-315.029 575.573,-315.029"/>
</g>
<!-- 0&#45;&gt;0 -->
<g id="edge14" class="edge"><title>0&#45;&gt;0</title>
<path fill="none" stroke="black" d="M597.516,-293.691C608.101,-294.152 617.073,-291.922 617.073,-287 617.073,-283.77 613.209,-281.699 607.561,-280.788"/>
<polygon fill="black" stroke="black" points="607.671,-277.289 597.516,-280.309 607.338,-284.281 607.671,-277.289"/>
<text text-anchor="middle" x="624.073" y="-283.3" font-family="Times,serif" font-size="14.00">{}</text>
</g>
<!-- 1 -->
<g id="node3" class="node"><title>1</title>
<ellipse fill="none" stroke="black" cx="432.073" cy="-200" rx="27" ry="18"/>
<text text-anchor="middle" x="432.073" y="-196.3" font-family="Times,serif" font-size="14.00">1</text>
</g>
<!-- 0&#45;&gt;1 -->
<g id="edge10" class="edge"><title>0&#45;&gt;1</title>
<path fill="none" stroke="black" d="M544.896,-285.618C493.708,-284.262 386.07,-278.168 363.073,-251 348.96,-234.327 374.082,-220.254 397.874,-211.328"/>
<polygon fill="black" stroke="black" points="399.251,-214.554 407.526,-207.938 396.931,-207.949 399.251,-214.554"/>
<text text-anchor="middle" x="386.573" y="-239.8" font-family="Times,serif" font-size="14.00">{c1, c2}</text>
</g>
<!-- 0&#45;&gt;1 -->
<g id="edge11" class="edge"><title>0&#45;&gt;1</title>
<path fill="none" stroke="black" d="M545.675,-283.136C509.373,-278.596 446.94,-268.429 433.073,-251 427.98,-244.599 426.5,-236.136 426.664,-227.997"/>
<polygon fill="black" stroke="black" points="430.149,-228.325 427.602,-218.04 423.18,-227.668 430.149,-228.325"/>
<text text-anchor="middle" x="466.573" y="-239.8" font-family="Times,serif" font-size="14.00">{c0, c1, c2}</text>
</g>
<!-- 0&#45;&gt;1 -->
<g id="edge12" class="edge"><title>0&#45;&gt;1</title>
<path fill="none" stroke="black" d="M554.353,-273.295C536.664,-260.686 510.638,-242.35 500.073,-236 488.13,-228.822 474.551,-221.647 462.685,-215.679"/>
<polygon fill="black" stroke="black" points="464.113,-212.481 453.599,-211.175 461.004,-218.753 464.113,-212.481"/>
<text text-anchor="middle" x="534.573" y="-239.8" font-family="Times,serif" font-size="14.00">{c2}</text>
</g>
<!-- 0&#45;&gt;1 -->
<g id="edge13" class="edge"><title>0&#45;&gt;1</title>
<path fill="none" stroke="black" d="M568.482,-268.962C565.354,-258.105 559.75,-244.527 550.073,-236 527.669,-216.258 494.562,-207.64 469.114,-203.884"/>
<polygon fill="black" stroke="black" points="469.444,-200.398 459.079,-202.592 468.55,-207.341 469.444,-200.398"/>
<text text-anchor="middle" x="583.573" y="-239.8" font-family="Times,serif" font-size="14.00">{c0, c2}</text>
</g>
<!-- 2 -->
<g id="node4" class="node"><title>2</title>
<ellipse fill="none" stroke="black" cx="567.073" cy="-22" rx="27" ry="18"/>
<text text-anchor="middle" x="567.073" y="-18.3" font-family="Times,serif" font-size="14.00">2</text>
</g>
<!-- 0&#45;&gt;2 -->
<g id="edge15" class="edge"><title>0&#45;&gt;2</title>
<path fill="none" stroke="black" d="M591.269,-274.068C598.937,-268.167 606.921,-260.305 611.073,-251 613.789,-244.912 611.449,-242.656 611.073,-236 607.512,-173.032 610.183,-156.232 595.073,-95 591.206,-79.3317 584.788,-62.4856 579.072,-49.0306"/>
<polygon fill="black" stroke="black" points="582.107,-47.2358 574.891,-39.4781 575.694,-50.0425 582.107,-47.2358"/>
<text text-anchor="middle" x="620.573" y="-152.8" font-family="Times,serif" font-size="14.00">{c1}</text>
</g>
<!-- 0&#45;&gt;2 -->
<g id="edge16" class="edge"><title>0&#45;&gt;2</title>
<path fill="none" stroke="black" d="M594.489,-276.593C605.463,-270.823 617.839,-262.342 625.073,-251 649.647,-212.47 647.416,-193.735 638.073,-149 629.446,-107.697 622.38,-97.8156 600.073,-62 596.565,-56.3676 592.289,-50.6965 587.993,-45.4904"/>
<polygon fill="black" stroke="black" points="590.515,-43.0545 581.335,-37.7644 585.212,-47.6243 590.515,-43.0545"/>
<text text-anchor="middle" x="663.573" y="-152.8" font-family="Times,serif" font-size="14.00">{c0, c1}</text>
</g>
<!-- 0&#45;&gt;2 -->
<g id="edge17" class="edge"><title>0&#45;&gt;2</title>
<path fill="none" stroke="black" d="M596.004,-278.394C610.925,-272.711 629.754,-263.718 643.073,-251 679.309,-216.4 708.208,-196.081 691.073,-149 673.494,-100.701 625.849,-61.673 594.998,-40.4556"/>
<polygon fill="black" stroke="black" points="596.655,-37.3533 586.398,-34.7011 592.763,-43.1711 596.655,-37.3533"/>
<text text-anchor="middle" x="707.573" y="-152.8" font-family="Times,serif" font-size="14.00">{c0}</text>
</g>
<!-- 1&#45;&gt;1 -->
<g id="edge38" class="edge"><title>1&#45;&gt;1</title>
<path fill="none" stroke="black" d="M456.605,-207.752C467.581,-208.49 477.073,-205.906 477.073,-200 477.073,-196.032 472.788,-193.563 466.647,-192.594"/>
<polygon fill="black" stroke="black" points="466.72,-189.095 456.605,-192.248 466.479,-196.091 466.72,-189.095"/>
<text text-anchor="middle" x="484.073" y="-196.3" font-family="Times,serif" font-size="14.00">{}</text>
</g>
<!-- 1&#45;&gt;2 -->
<g id="edge39" class="edge"><title>1&#45;&gt;2</title>
<path fill="none" stroke="black" d="M430.294,-181.96C428.884,-159.978 429.497,-121.432 447.073,-95 448.535,-92.8004 503.419,-60.3451 538.447,-39.7679"/>
<polygon fill="black" stroke="black" points="540.457,-42.6465 547.31,-34.5661 536.914,-36.6095 540.457,-42.6465"/>
<text text-anchor="middle" x="470.573" y="-109.3" font-family="Times,serif" font-size="14.00">{c0, c2}</text>
</g>
<!-- 1&#45;&gt;2 -->
<g id="edge40" class="edge"><title>1&#45;&gt;2</title>
<path fill="none" stroke="black" d="M446.51,-184.424C459.51,-171.013 478.856,-150.333 494.073,-131 515.725,-103.491 537.864,-69.7942 551.996,-47.4313"/>
<polygon fill="black" stroke="black" points="555.012,-49.2107 557.359,-38.8792 549.081,-45.4917 555.012,-49.2107"/>
<text text-anchor="middle" x="532.573" y="-109.3" font-family="Times,serif" font-size="14.00">{c2}</text>
</g>
<!-- 1&#45;&gt;2 -->
<g id="edge41" class="edge"><title>1&#45;&gt;2</title>
<path fill="none" stroke="black" d="M456.342,-192.024C483.788,-182.792 527.576,-163.738 550.073,-131 566.406,-107.232 569.34,-73.6338 569.026,-50.2465"/>
<polygon fill="black" stroke="black" points="572.515,-49.8564 568.673,-39.9827 565.519,-50.0971 572.515,-49.8564"/>
<text text-anchor="middle" x="577.573" y="-109.3" font-family="Times,serif" font-size="14.00">{c0}</text>
</g>
<!-- 3 -->
<g id="node5" class="node"><title>3</title>
<ellipse fill="none" stroke="black" cx="231.073" cy="-113" rx="27" ry="18"/>
<text text-anchor="middle" x="231.073" y="-109.3" font-family="Times,serif" font-size="14.00">3</text>
</g>
<!-- 1&#45;&gt;3 -->
<g id="edge34" class="edge"><title>1&#45;&gt;3</title>
<path fill="none" stroke="black" d="M405.148,-197.496C339.99,-193.582 177.985,-182.108 162.073,-164 147.654,-147.591 172.823,-133.477 196.709,-124.47"/>
<polygon fill="black" stroke="black" points="198.14,-127.676 206.403,-121.045 195.808,-121.076 198.14,-127.676"/>
<text text-anchor="middle" x="185.573" y="-152.8" font-family="Times,serif" font-size="14.00">{c0, c1}</text>
</g>
<!-- 1&#45;&gt;3 -->
<g id="edge35" class="edge"><title>1&#45;&gt;3</title>
<path fill="none" stroke="black" d="M404.953,-198.348C355.586,-196.532 254.099,-189.69 232.073,-164 226.669,-157.697 225.162,-149.127 225.396,-140.862"/>
<polygon fill="black" stroke="black" points="228.894,-141.062 226.46,-130.75 221.932,-140.329 228.894,-141.062"/>
<text text-anchor="middle" x="255.573" y="-152.8" font-family="Times,serif" font-size="14.00">{c1, c2}</text>
</g>
<!-- 1&#45;&gt;3 -->
<g id="edge36" class="edge"><title>1&#45;&gt;3</title>
<path fill="none" stroke="black" d="M405.98,-194.762C379.045,-189.756 336.253,-180.019 302.073,-164 297.175,-161.704 275.455,-146.269 257.313,-133.147"/>
<polygon fill="black" stroke="black" points="258.933,-129.999 248.784,-126.959 254.823,-135.665 258.933,-129.999"/>
<text text-anchor="middle" x="315.573" y="-152.8" font-family="Times,serif" font-size="14.00">{c1}</text>
</g>
<!-- 1&#45;&gt;3 -->
<g id="edge37" class="edge"><title>1&#45;&gt;3</title>
<path fill="none" stroke="black" d="M409.184,-190.166C392.923,-183.607 370.748,-174.085 352.073,-164 341.335,-158.201 340.006,-154.423 329.073,-149 308.537,-138.814 284.284,-130.127 265.043,-123.956"/>
<polygon fill="black" stroke="black" points="266.073,-120.611 255.484,-120.963 263.981,-127.291 266.073,-120.611"/>
<text text-anchor="middle" x="385.573" y="-152.8" font-family="Times,serif" font-size="14.00">{c0, c1, c2}</text>
</g>
<!-- 2&#45;&gt;2 -->
<g id="edge26" class="edge"><title>2&#45;&gt;2</title>
<path fill="none" stroke="black" d="M594.314,-23.4985C604.097,-23.5308 612.073,-23.0312 612.073,-22 612.073,-21.3716 609.111,-20.9406 604.583,-20.7071"/>
<polygon fill="black" stroke="black" points="604.382,-17.2025 594.314,-20.5015 604.241,-24.2011 604.382,-17.2025"/>
<text text-anchor="middle" x="635.573" y="-18.3" font-family="Times,serif" font-size="14.00">{c1, c2}</text>
</g>
<!-- 2&#45;&gt;2 -->
<g id="edge27" class="edge"><title>2&#45;&gt;2</title>
<path fill="none" stroke="black" d="M593.965,-24.4258C622.394,-25.6836 659.073,-24.875 659.073,-22 659.073,-19.4619 630.487,-18.5343 604.227,-19.2172"/>
<polygon fill="black" stroke="black" points="603.837,-15.7285 593.965,-19.5742 604.081,-22.7243 603.837,-15.7285"/>
<text text-anchor="middle" x="672.573" y="-18.3" font-family="Times,serif" font-size="14.00">{c1}</text>
</g>
<!-- 2&#45;&gt;2 -->
<g id="edge28" class="edge"><title>2&#45;&gt;2</title>
<path fill="none" stroke="black" d="M593.892,-25.1733C631.316,-27.6867 686.073,-26.6289 686.073,-22 686.073,-17.7689 640.323,-16.5215 603.878,-18.2578"/>
<polygon fill="black" stroke="black" points="603.677,-14.7635 593.892,-18.8267 604.075,-21.7522 603.677,-14.7635"/>
<text text-anchor="middle" x="709.573" y="-18.3" font-family="Times,serif" font-size="14.00">{c0, c2}</text>
</g>
<!-- 2&#45;&gt;2 -->
<g id="edge29" class="edge"><title>2&#45;&gt;2</title>
<path fill="none" stroke="black" d="M593.557,-25.5675C644.001,-29.7361 733.073,-28.5469 733.073,-22 733.073,-15.8751 655.113,-14.4395 603.758,-17.6932"/>
<polygon fill="black" stroke="black" points="603.278,-14.2187 593.557,-18.4325 603.784,-21.2004 603.278,-14.2187"/>
<text text-anchor="middle" x="766.573" y="-18.3" font-family="Times,serif" font-size="14.00">{c0, c1, c2}</text>
</g>
<!-- 2&#45;&gt;2 -->
<g id="edge30" class="edge"><title>2&#45;&gt;2</title>
<path fill="none" stroke="black" d="M593.544,-25.7921C659.392,-31.7797 800.073,-30.5156 800.073,-22 800.073,-13.9002 672.795,-12.3611 603.7,-17.3827"/>
<polygon fill="black" stroke="black" points="603.228,-13.9094 593.544,-18.2079 603.795,-20.8864 603.228,-13.9094"/>
<text text-anchor="middle" x="823.573" y="-18.3" font-family="Times,serif" font-size="14.00">{c0, c1}</text>
</g>
<!-- 2&#45;&gt;2 -->
<g id="edge31" class="edge"><title>2&#45;&gt;2</title>
<path fill="none" stroke="black" d="M593.547,-26.0945C669.553,-33.7945 847.073,-32.4297 847.073,-22 847.073,-12.0185 684.48,-10.3395 603.885,-16.9632"/>
<polygon fill="black" stroke="black" points="603.188,-13.5121 593.547,-17.9055 603.824,-20.4832 603.188,-13.5121"/>
<text text-anchor="middle" x="854.073" y="-18.3" font-family="Times,serif" font-size="14.00">{}</text>
</g>
<!-- 2&#45;&gt;2 -->
<g id="edge32" class="edge"><title>2&#45;&gt;2</title>
<path fill="none" stroke="black" d="M593.436,-26.4701C674.271,-35.7947 865.073,-34.3047 865.073,-22 865.073,-10.176 688.886,-8.3382 603.394,-16.4867"/>
<polygon fill="black" stroke="black" points="603.017,-13.007 593.436,-17.5299 603.746,-19.9689 603.017,-13.007"/>
<text text-anchor="middle" x="878.573" y="-18.3" font-family="Times,serif" font-size="14.00">{c2}</text>
</g>
<!-- 2&#45;&gt;2 -->
<g id="edge33" class="edge"><title>2&#45;&gt;2</title>
<path fill="none" stroke="black" d="M593.294,-26.7488C680.423,-37.8017 892.073,-36.2188 892.073,-22 892.073,-8.3089 695.84,-6.33319 603.492,-16.0729"/>
<polygon fill="black" stroke="black" points="602.826,-12.6263 593.294,-17.2512 603.63,-19.5801 602.826,-12.6263"/>
<text text-anchor="middle" x="905.573" y="-18.3" font-family="Times,serif" font-size="14.00">{c0}</text>
</g>
<!-- 3&#45;&gt;2 -->
<g id="edge23" class="edge"><title>3&#45;&gt;2</title>
<path fill="none" stroke="black" d="M242.656,-96.3586C252.307,-84.655 267.168,-69.4382 284.073,-62 384.82,-17.6704 425.933,-76.5707 531.073,-44 534.086,-43.0666 537.117,-41.8421 540.072,-40.4528"/>
<polygon fill="black" stroke="black" points="541.969,-43.4075 549.139,-35.6077 538.67,-37.2336 541.969,-43.4075"/>
<text text-anchor="middle" x="307.573" y="-65.8" font-family="Times,serif" font-size="14.00">{c1, c2}</text>
</g>
<!-- 3&#45;&gt;2 -->
<g id="edge24" class="edge"><title>3&#45;&gt;2</title>
<path fill="none" stroke="black" d="M255.576,-105.233C276.24,-99.1043 306.317,-89.1817 331.073,-77 342.023,-71.6117 342.566,-66.0656 354.073,-62 428.629,-35.6584 455.884,-68.4762 531.073,-44 534.072,-43.0236 537.094,-41.7708 540.044,-40.364"/>
<polygon fill="black" stroke="black" points="541.951,-43.3122 549.104,-35.4957 538.638,-37.146 541.951,-43.3122"/>
<text text-anchor="middle" x="367.573" y="-65.8" font-family="Times,serif" font-size="14.00">{c1}</text>
</g>
<!-- 3&#45;&gt;2 -->
<g id="edge25" class="edge"><title>3&#45;&gt;2</title>
<path fill="none" stroke="black" d="M257.415,-108.69C288.068,-104.202 339.757,-94.6422 381.073,-77 392.296,-72.2075 392.648,-66.2917 404.073,-62 457.44,-41.9521 477.223,-62.7122 531.073,-44 533.986,-42.9877 536.927,-41.7302 539.806,-40.3374"/>
<polygon fill="black" stroke="black" points="541.534,-43.3825 548.681,-35.5614 538.216,-37.2185 541.534,-43.3825"/>
<text text-anchor="middle" x="417.573" y="-65.8" font-family="Times,serif" font-size="14.00">{c2}</text>
</g>
<!-- 3&#45;&gt;3 -->
<g id="edge20" class="edge"><title>3&#45;&gt;3</title>
<path fill="none" stroke="black" d="M255.605,-120.752C266.581,-121.49 276.073,-118.906 276.073,-113 276.073,-109.032 271.788,-106.563 265.647,-105.594"/>
<polygon fill="black" stroke="black" points="265.72,-102.095 255.605,-105.248 265.479,-109.091 265.72,-102.095"/>
<text text-anchor="middle" x="283.073" y="-109.3" font-family="Times,serif" font-size="14.00">{}</text>
</g>
<!-- 4 -->
<g id="node6" class="node"><title>4</title>
<ellipse fill="none" stroke="black" cx="53.0728" cy="-22" rx="18" ry="18"/>
<ellipse fill="none" stroke="black" cx="53.0728" cy="-22" rx="22" ry="22"/>
<text text-anchor="middle" x="53.0728" y="-18.3" font-family="Times,serif" font-size="14.00">4</text>
</g>
<!-- 3&#45;&gt;4 -->
<g id="edge18" class="edge"><title>3&#45;&gt;4</title>
<path fill="none" stroke="black" d="M203.702,-112.022C149.061,-111.421 29.5127,-106.663 4.07282,-77 -7.50684,-63.4981 8.38573,-48.5502 25.0821,-37.811"/>
<polygon fill="black" stroke="black" points="26.9742,-40.7574 33.7453,-32.6086 23.3704,-34.7563 26.9742,-40.7574"/>
<text text-anchor="middle" x="17.5728" y="-65.8" font-family="Times,serif" font-size="14.00">{c0}</text>
</g>
<!-- 3&#45;&gt;4 -->
<g id="edge19" class="edge"><title>3&#45;&gt;4</title>
<path fill="none" stroke="black" d="M204.243,-110.682C159.572,-107.87 72.975,-99.5765 54.0728,-77 48.638,-70.5087 46.9124,-61.8791 46.9557,-53.4271"/>
<polygon fill="black" stroke="black" points="50.4523,-53.6068 47.7553,-43.361 43.4743,-53.0524 50.4523,-53.6068"/>
<text text-anchor="middle" x="87.5728" y="-65.8" font-family="Times,serif" font-size="14.00">{c0, c1, c2}</text>
</g>
<!-- 3&#45;&gt;4 -->
<g id="edge21" class="edge"><title>3&#45;&gt;4</title>
<path fill="none" stroke="black" d="M207.626,-103.983C189.794,-97.5505 164.865,-87.83 144.073,-77 133.249,-71.3623 131.481,-68.3718 121.073,-62 108.031,-54.0163 93.3381,-45.5279 80.9558,-38.5158"/>
<polygon fill="black" stroke="black" points="82.4338,-35.3314 72.003,-33.4742 78.999,-41.4308 82.4338,-35.3314"/>
<text text-anchor="middle" x="167.573" y="-65.8" font-family="Times,serif" font-size="14.00">{c0, c2}</text>
</g>
<!-- 3&#45;&gt;4 -->
<g id="edge22" class="edge"><title>3&#45;&gt;4</title>
<path fill="none" stroke="black" d="M221.865,-95.8048C214.789,-84.7506 204.042,-70.6036 191.073,-62 158.737,-40.5486 114.623,-30.7614 85.058,-26.3869"/>
<polygon fill="black" stroke="black" points="85.2517,-22.8813 74.8727,-25.0086 84.313,-29.8181 85.2517,-22.8813"/>
<text text-anchor="middle" x="230.573" y="-65.8" font-family="Times,serif" font-size="14.00">{c0, c1}</text>
</g>
<!-- 4&#45;&gt;4 -->
<g id="edge2" class="edge"><title>4&#45;&gt;4</title>
<path fill="none" stroke="black" d="M75.2852,-23.4821C84.8681,-23.6034 93.0728,-23.1094 93.0728,-22 93.0728,-21.324 90.0261,-20.8765 85.4774,-20.6574"/>
<polygon fill="black" stroke="black" points="85.3322,-17.1552 75.2852,-20.5179 85.2363,-24.1546 85.3322,-17.1552"/>
<text text-anchor="middle" x="106.573" y="-18.3" font-family="Times,serif" font-size="14.00">{c2}</text>
</g>
<!-- 4&#45;&gt;4 -->
<g id="edge3" class="edge"><title>4&#45;&gt;4</title>
<path fill="none" stroke="black" d="M75.1052,-24.4661C95.9806,-25.6658 120.073,-24.8437 120.073,-22 120.073,-19.6228 103.237,-18.6584 85.5189,-19.1067"/>
<polygon fill="black" stroke="black" points="84.9532,-15.6269 75.1052,-19.5339 85.2402,-22.621 84.9532,-15.6269"/>
<text text-anchor="middle" x="127.073" y="-18.3" font-family="Times,serif" font-size="14.00">{}</text>
</g>
<!-- 4&#45;&gt;4 -->
<g id="edge4" class="edge"><title>4&#45;&gt;4</title>
<path fill="none" stroke="black" d="M74.9087,-25.1924C102.74,-27.6813 138.073,-26.6172 138.073,-22 138.073,-17.9239 110.536,-16.6169 84.9331,-18.079"/>
<polygon fill="black" stroke="black" points="84.6286,-14.5918 74.9087,-18.8076 85.1361,-21.5734 84.6286,-14.5918"/>
<text text-anchor="middle" x="161.573" y="-18.3" font-family="Times,serif" font-size="14.00">{c0, c1}</text>
</g>
<!-- 4&#45;&gt;4 -->
<g id="edge5" class="edge"><title>4&#45;&gt;4</title>
<path fill="none" stroke="black" d="M74.8047,-25.4467C116.362,-29.7583 185.073,-28.6094 185.073,-22 185.073,-15.907 126.678,-14.4546 84.9961,-17.6428"/>
<polygon fill="black" stroke="black" points="84.4536,-14.1772 74.8047,-18.5533 85.0765,-21.1494 84.4536,-14.1772"/>
<text text-anchor="middle" x="198.573" y="-18.3" font-family="Times,serif" font-size="14.00">{c1}</text>
</g>
<!-- 4&#45;&gt;4 -->
<g id="edge6" class="edge"><title>4&#45;&gt;4</title>
<path fill="none" stroke="black" d="M74.9381,-25.8332C124.249,-31.7738 212.073,-30.4961 212.073,-22 212.073,-14.0515 135.206,-12.4209 84.919,-17.1081"/>
<polygon fill="black" stroke="black" points="84.5131,-13.6314 74.9381,-18.1668 85.2515,-20.5924 84.5131,-13.6314"/>
<text text-anchor="middle" x="225.573" y="-18.3" font-family="Times,serif" font-size="14.00">{c0}</text>
</g>
<!-- 4&#45;&gt;4 -->
<g id="edge7" class="edge"><title>4&#45;&gt;4</title>
<path fill="none" stroke="black" d="M75.028,-26.1462C131.785,-33.7883 239.073,-32.4062 239.073,-22 239.073,-12.1832 143.595,-10.3972 85.13,-16.6421"/>
<polygon fill="black" stroke="black" points="84.5399,-13.1876 75.028,-17.8538 85.3737,-20.1378 84.5399,-13.1876"/>
<text text-anchor="middle" x="262.573" y="-18.3" font-family="Times,serif" font-size="14.00">{c1, c2}</text>
</g>
<!-- 4&#45;&gt;4 -->
<g id="edge8" class="edge"><title>4&#45;&gt;4</title>
<path fill="none" stroke="black" d="M74.9923,-26.2821C142.297,-35.8141 286.073,-34.3867 286.073,-22 286.073,-10.1939 155.46,-8.3438 84.9384,-16.4497"/>
<polygon fill="black" stroke="black" points="84.4693,-12.9811 74.9923,-17.7179 85.3547,-19.9249 84.4693,-12.9811"/>
<text text-anchor="middle" x="319.573" y="-18.3" font-family="Times,serif" font-size="14.00">{c0, c1, c2}</text>
</g>
<!-- 4&#45;&gt;4 -->
<g id="edge9" class="edge"><title>4&#45;&gt;4</title>
<path fill="none" stroke="black" d="M74.8147,-26.305C154.721,-37.8412 353.073,-36.4062 353.073,-22 353.073,-8.17056 170.286,-6.29446 84.9622,-16.3717"/>
<polygon fill="black" stroke="black" points="84.2782,-12.9312 74.8147,-17.695 85.1834,-19.8724 84.2782,-12.9312"/>
<text text-anchor="middle" x="376.573" y="-18.3" font-family="Times,serif" font-size="14.00">{c0, c2}</text>
</g>
</g>
</svg>
