<?xml version="1.0" encoding="UTF-8" standalone="no"?>
<!DOCTYPE svg PUBLIC "-//W3C//DTD SVG 1.1//EN"
 "http://www.w3.org/Graphics/SVG/1.1/DTD/svg11.dtd">
<!-- Generated by graphviz version 2.40.1 (20161225.0304)
 -->
<!-- Title: %3 Pages: 1 -->
<svg width="586pt" height="473pt"
 viewBox="0.00 0.00 586.00 473.00" xmlns="http://www.w3.org/2000/svg" xmlns:xlink="http://www.w3.org/1999/xlink">
<g id="graph0" class="graph" transform="scale(1 1) rotate(0) translate(4 469)">
<title>%3</title>
<polygon fill="#ffffff" stroke="transparent" points="-4,4 -4,-469 582,-469 582,4 -4,4"/>
<!-- fake -->
<g id="node1" class="node">
<title>fake</title>
</g>
<!-- 0 -->
<g id="node5" class="node">
<title>0</title>
<ellipse fill="none" stroke="#000000" cx="304" cy="-374" rx="27" ry="18"/>
<text text-anchor="middle" x="304" y="-370.3" font-family="Times,serif" font-size="14.00" fill="#000000">0</text>
</g>
<!-- fake&#45;&gt;0 -->
<g id="edge1" class="edge">
<title>fake&#45;&gt;0</title>
<path fill="none" stroke="#000000" stroke-width="2" d="M304,-428.9551C304,-420.8828 304,-411.1764 304,-402.1817"/>
<polygon fill="#000000" stroke="#000000" stroke-width="2" points="307.5001,-402.0903 304,-392.0904 300.5001,-402.0904 307.5001,-402.0903"/>
</g>
<!-- 1 -->
<g id="node2" class="node">
<title>1</title>
<ellipse fill="none" stroke="#000000" cx="289" cy="-287" rx="27" ry="18"/>
<text text-anchor="middle" x="289" y="-283.3" font-family="Times,serif" font-size="14.00" fill="#000000">1</text>
</g>
<!-- 1&#45;&gt;1 -->
<g id="edge21" class="edge">
<title>1&#45;&gt;1</title>
<path fill="none" stroke="#000000" d="M313.5325,-294.752C324.5078,-295.4902 334,-292.9063 334,-287 334,-283.0317 329.7151,-280.5632 323.5743,-279.5944"/>
<polygon fill="#000000" stroke="#000000" points="323.6472,-276.0949 313.5325,-279.248 323.4059,-283.0908 323.6472,-276.0949"/>
<text text-anchor="middle" x="341" y="-283.3" font-family="Times,serif" font-size="14.00" fill="#000000">{}</text>
</g>
<!-- 2 -->
<g id="node4" class="node">
<title>2</title>
<ellipse fill="none" stroke="#000000" cx="384" cy="-200" rx="27" ry="18"/>
<text text-anchor="middle" x="384" y="-196.3" font-family="Times,serif" font-size="14.00" fill="#000000">2</text>
</g>
<!-- 1&#45;&gt;2 -->
<g id="edge18" class="edge">
<title>1&#45;&gt;2</title>
<path fill="none" stroke="#000000" d="M304.4562,-272.1195C315.1791,-261.866 329.843,-247.9821 343,-236 348.2701,-231.2005 353.9846,-226.112 359.4267,-221.3192"/>
<polygon fill="#000000" stroke="#000000" points="361.9071,-223.7994 367.1219,-214.5767 357.294,-218.5344 361.9071,-223.7994"/>
<text text-anchor="middle" x="356.5" y="-239.8" font-family="Times,serif" font-size="14.00" fill="#000000">{c1}</text>
</g>
<!-- 1&#45;&gt;0 -->
<g id="edge17" class="edge">
<title>1&#45;&gt;0</title>
<path fill="none" stroke="#000000" d="M314.3205,-293.2872C329.569,-298.5206 347.7673,-307.6653 357,-323 365.6141,-337.3071 351.5948,-350.3064 335.8193,-359.6001"/>
<polygon fill="#000000" stroke="#000000" points="334.1374,-356.5306 327.007,-364.3668 337.4679,-362.6875 334.1374,-356.5306"/>
<text text-anchor="middle" x="372.5" y="-326.8" font-family="Times,serif" font-size="14.00" fill="#000000">{c2}</text>
</g>
<!-- 1&#45;&gt;0 -->
<g id="edge19" class="edge">
<title>1&#45;&gt;0</title>
<path fill="none" stroke="#000000" d="M266.8013,-297.6389C251.8668,-305.3069 234.1699,-315.5708 230,-323 226.737,-328.8135 226.4644,-332.3481 230,-338 238.4957,-351.5807 253.745,-360.171 268.2023,-365.5372"/>
<polygon fill="#000000" stroke="#000000" points="267.3988,-368.9574 277.9918,-368.7589 269.5871,-362.3082 267.3988,-368.9574"/>
<text text-anchor="middle" x="243.5" y="-326.8" font-family="Times,serif" font-size="14.00" fill="#000000">{c3}</text>
</g>
<!-- 1&#45;&gt;0 -->
<g id="edge20" class="edge">
<title>1&#45;&gt;0</title>
<path fill="none" stroke="#000000" d="M281.8549,-304.7096C278.8461,-314.6334 276.7171,-327.1575 280,-338 281.1904,-341.9316 282.9674,-345.8263 285.0262,-349.5205"/>
<polygon fill="#000000" stroke="#000000" points="282.2271,-351.6412 290.5502,-358.1969 288.132,-347.8817 282.2271,-351.6412"/>
<text text-anchor="middle" x="293.5" y="-326.8" font-family="Times,serif" font-size="14.00" fill="#000000">{c0}</text>
</g>
<!-- 4 -->
<g id="node3" class="node">
<title>4</title>
<ellipse fill="none" stroke="#000000" cx="126" cy="-22" rx="18" ry="18"/>
<ellipse fill="none" stroke="#000000" cx="126" cy="-22" rx="22" ry="22"/>
<text text-anchor="middle" x="126" y="-18.3" font-family="Times,serif" font-size="14.00" fill="#000000">4</text>
</g>
<!-- 4&#45;&gt;4 -->
<g id="edge6" class="edge">
<title>4&#45;&gt;4</title>
<path fill="none" stroke="#000000" d="M146.5808,-30.3702C156.8447,-31.5284 166,-28.7383 166,-22 166,-17.6833 162.2427,-14.9869 156.8436,-13.9109"/>
<polygon fill="#000000" stroke="#000000" points="156.6729,-10.405 146.5808,-13.6298 156.4812,-17.4024 156.6729,-10.405"/>
<text text-anchor="middle" x="173" y="-18.3" font-family="Times,serif" font-size="14.00" fill="#000000">{}</text>
</g>
<!-- 4&#45;&gt;0 -->
<g id="edge2" class="edge">
<title>4&#45;&gt;0</title>
<path fill="none" stroke="#000000" d="M104.3398,-27.0348C68.3146,-36.8389 0,-62.136 0,-113 0,-287 0,-287 0,-287 0,-318.4333 21.0154,-323.6853 49,-338 86.2515,-357.0549 205.3452,-367.4906 266.6914,-371.7246"/>
<polygon fill="#000000" stroke="#000000" points="266.5197,-375.2209 276.7315,-372.3977 266.988,-368.2366 266.5197,-375.2209"/>
<text text-anchor="middle" x="13.5" y="-196.3" font-family="Times,serif" font-size="14.00" fill="#000000">{c2}</text>
</g>
<!-- 4&#45;&gt;0 -->
<g id="edge3" class="edge">
<title>4&#45;&gt;0</title>
<path fill="none" stroke="#000000" d="M108.451,-35.7131C89.8098,-51.9626 63,-80.9106 63,-113 63,-287 63,-287 63,-287 63,-318.4333 84.3453,-323.0579 112,-338 138.2689,-352.1933 219.2342,-363.893 267.2267,-369.8148"/>
<polygon fill="#000000" stroke="#000000" points="266.876,-373.2978 277.2239,-371.0237 267.7164,-366.3484 266.876,-373.2978"/>
<text text-anchor="middle" x="76.5" y="-196.3" font-family="Times,serif" font-size="14.00" fill="#000000">{c1}</text>
</g>
<!-- 4&#45;&gt;0 -->
<g id="edge4" class="edge">
<title>4&#45;&gt;0</title>
<path fill="none" stroke="#000000" d="M126,-44.0661C126,-62.4949 126,-89.4601 126,-113 126,-287 126,-287 126,-287 126,-313.5256 135.6042,-322.3212 157,-338 174.3867,-350.7409 229.8701,-361.9379 267.4747,-368.3365"/>
<polygon fill="#000000" stroke="#000000" points="267.1223,-371.8258 277.5605,-370.0112 268.269,-364.9203 267.1223,-371.8258"/>
<text text-anchor="middle" x="139.5" y="-196.3" font-family="Times,serif" font-size="14.00" fill="#000000">{c3}</text>
</g>
<!-- 4&#45;&gt;0 -->
<g id="edge5" class="edge">
<title>4&#45;&gt;0</title>
<path fill="none" stroke="#000000" d="M133.6169,-42.6467C135.7932,-48.8334 138.0904,-55.6596 140,-62 158.2471,-122.5871 167.9587,-290.7107 210,-338 224.6334,-354.4601 247.6412,-363.4386 267.231,-368.3125"/>
<polygon fill="#000000" stroke="#000000" points="266.5802,-371.7532 277.1012,-370.505 268.0982,-364.9197 266.5802,-371.7532"/>
<text text-anchor="middle" x="181.5" y="-196.3" font-family="Times,serif" font-size="14.00" fill="#000000">{c0}</text>
</g>
<!-- 2&#45;&gt;2 -->
<g id="edge11" class="edge">
<title>2&#45;&gt;2</title>
<path fill="none" stroke="#000000" d="M408.5325,-207.752C419.5078,-208.4902 429,-205.9063 429,-200 429,-196.0317 424.7151,-193.5632 418.5743,-192.5944"/>
<polygon fill="#000000" stroke="#000000" points="418.6472,-189.0949 408.5325,-192.248 418.4059,-196.0908 418.6472,-189.0949"/>
<text text-anchor="middle" x="436" y="-196.3" font-family="Times,serif" font-size="14.00" fill="#000000">{}</text>
</g>
<!-- 2&#45;&gt;0 -->
<g id="edge8" class="edge">
<title>2&#45;&gt;0</title>
<path fill="none" stroke="#000000" d="M387.3289,-217.9689C393.0022,-250.7921 402.7543,-318.8342 390,-338 378.9535,-354.5994 358.6245,-363.5595 340.5043,-368.3886"/>
<polygon fill="#000000" stroke="#000000" points="339.6802,-364.9868 330.7378,-370.6688 341.2717,-371.8035 339.6802,-364.9868"/>
<text text-anchor="middle" x="409.5" y="-283.3" font-family="Times,serif" font-size="14.00" fill="#000000">{c1}</text>
</g>
<!-- 2&#45;&gt;0 -->
<g id="edge9" class="edge">
<title>2&#45;&gt;0</title>
<path fill="none" stroke="#000000" d="M396.8178,-215.8619C406.6877,-229.1592 419.5375,-249.1137 425,-269 429.238,-284.4285 429.1319,-289.5427 425,-305 420.6295,-321.3499 419.011,-327.1772 406,-338 387.2656,-353.5836 361.3157,-362.6187 340.279,-367.7399"/>
<polygon fill="#000000" stroke="#000000" points="339.3938,-364.3514 330.3997,-369.9511 340.9227,-371.1823 339.3938,-364.3514"/>
<text text-anchor="middle" x="441.5" y="-283.3" font-family="Times,serif" font-size="14.00" fill="#000000">{c3}</text>
</g>
<!-- 2&#45;&gt;0 -->
<g id="edge10" class="edge">
<title>2&#45;&gt;0</title>
<path fill="none" stroke="#000000" d="M357.402,-203.1279C320.9133,-208.9791 256.4028,-225.2467 226,-269 201.3525,-304.4706 214.9521,-325.6161 223,-338 232.9304,-353.2805 251.0063,-362.1274 267.5667,-367.223"/>
<polygon fill="#000000" stroke="#000000" points="267.0288,-370.7032 277.5957,-369.9351 268.8561,-363.9459 267.0288,-370.7032"/>
<text text-anchor="middle" x="239.5" y="-283.3" font-family="Times,serif" font-size="14.00" fill="#000000">{c0}</text>
</g>
<!-- 3 -->
<g id="node6" class="node">
<title>3</title>
<ellipse fill="none" stroke="#000000" cx="496" cy="-113" rx="27" ry="18"/>
<text text-anchor="middle" x="496" y="-109.3" font-family="Times,serif" font-size="14.00" fill="#000000">3</text>
</g>
<!-- 2&#45;&gt;3 -->
<g id="edge7" class="edge">
<title>2&#45;&gt;3</title>
<path fill="none" stroke="#000000" d="M401.9947,-186.0219C420.3642,-171.7528 449.0641,-149.4592 469.9225,-133.2566"/>
<polygon fill="#000000" stroke="#000000" points="472.2997,-135.842 478.0499,-126.9434 468.0055,-130.3139 472.2997,-135.842"/>
<text text-anchor="middle" x="459.5" y="-152.8" font-family="Times,serif" font-size="14.00" fill="#000000">{c2}</text>
</g>
<!-- 0&#45;&gt;1 -->
<g id="edge25" class="edge">
<title>0&#45;&gt;1</title>
<path fill="none" stroke="#000000" d="M307.5857,-355.8426C308.902,-346.004 309.5269,-333.7039 307,-323 306.2294,-319.7356 305.1149,-316.4298 303.8127,-313.2127"/>
<polygon fill="#000000" stroke="#000000" points="306.8961,-311.5432 299.4986,-303.9585 300.5516,-314.5009 306.8961,-311.5432"/>
<text text-anchor="middle" x="321.5" y="-326.8" font-family="Times,serif" font-size="14.00" fill="#000000">{c0}</text>
</g>
<!-- 0&#45;&gt;0 -->
<g id="edge22" class="edge">
<title>0&#45;&gt;0</title>
<path fill="none" stroke="#000000" d="M331.2408,-375.6859C341.0239,-375.7221 349,-375.1602 349,-374 349,-373.293 346.0382,-372.8082 341.5105,-372.5455"/>
<polygon fill="#000000" stroke="#000000" points="341.3171,-369.0403 331.2408,-372.3141 341.1594,-376.0386 341.3171,-369.0403"/>
<text text-anchor="middle" x="362.5" y="-370.3" font-family="Times,serif" font-size="14.00" fill="#000000">{c2}</text>
</g>
<!-- 0&#45;&gt;0 -->
<g id="edge23" class="edge">
<title>0&#45;&gt;0</title>
<path fill="none" stroke="#000000" d="M330.7517,-376.9391C352.4393,-378.0383 376,-377.0586 376,-374 376,-371.4193 359.2268,-370.3186 340.9579,-370.6979"/>
<polygon fill="#000000" stroke="#000000" points="340.621,-367.2076 330.7517,-371.0609 340.8698,-374.2032 340.621,-367.2076"/>
<text text-anchor="middle" x="389.5" y="-370.3" font-family="Times,serif" font-size="14.00" fill="#000000">{c1}</text>
</g>
<!-- 0&#45;&gt;0 -->
<g id="edge24" class="edge">
<title>0&#45;&gt;0</title>
<path fill="none" stroke="#000000" d="M330.8594,-377.7969C362.5,-380.3281 403,-379.0625 403,-374 403,-369.4714 370.5925,-367.9811 341.1084,-369.5289"/>
<polygon fill="#000000" stroke="#000000" points="340.608,-366.0542 330.8594,-370.2031 341.0676,-373.0391 340.608,-366.0542"/>
<text text-anchor="middle" x="416.5" y="-370.3" font-family="Times,serif" font-size="14.00" fill="#000000">{c3}</text>
</g>
<!-- 0&#45;&gt;0 -->
<g id="edge26" class="edge">
<title>0&#45;&gt;0</title>
<path fill="none" stroke="#000000" d="M330.2539,-378.3704C370.9441,-382.6287 430,-381.1719 430,-374 430,-367.4024 380.0236,-365.6413 340.3426,-368.7166"/>
<polygon fill="#000000" stroke="#000000" points="339.8977,-365.2425 330.2539,-369.6296 340.5287,-372.214 339.8977,-365.2425"/>
<text text-anchor="middle" x="437" y="-370.3" font-family="Times,serif" font-size="14.00" fill="#000000">{}</text>
</g>
<!-- 3&#45;&gt;4 -->
<g id="edge14" class="edge">
<title>3&#45;&gt;4</title>
<path fill="none" stroke="#000000" d="M470.5684,-106.7452C404.8987,-90.594 229.7596,-47.5193 157.6733,-29.7899"/>
<polygon fill="#000000" stroke="#000000" points="158.3573,-26.3539 147.8107,-27.3643 156.6854,-33.1513 158.3573,-26.3539"/>
<text text-anchor="middle" x="357.5" y="-65.8" font-family="Times,serif" font-size="14.00" fill="#000000">{c3}</text>
</g>
<!-- 3&#45;&gt;0 -->
<g id="edge12" class="edge">
<title>3&#45;&gt;0</title>
<path fill="none" stroke="#000000" d="M495.9727,-131.0939C495.2014,-166.5609 489.8709,-246.8273 459,-305 436.4084,-347.5714 379.3793,-363.9111 341.1611,-370.1602"/>
<polygon fill="#000000" stroke="#000000" points="340.3076,-366.748 330.9247,-371.6685 341.3281,-373.6733 340.3076,-366.748"/>
<text text-anchor="middle" x="496.5" y="-239.8" font-family="Times,serif" font-size="14.00" fill="#000000">{c2}</text>
</g>
<!-- 3&#45;&gt;0 -->
<g id="edge13" class="edge">
<title>3&#45;&gt;0</title>
<path fill="none" stroke="#000000" d="M502.8519,-130.7746C512.107,-157.3953 526.1259,-208.9828 514,-251 506.1361,-278.2489 496.9699,-282.2763 480,-305 468.317,-320.6442 467.6966,-327.8778 451,-338 417.1876,-358.4986 372.3305,-367.3374 341.0982,-371.1412"/>
<polygon fill="#000000" stroke="#000000" points="340.6203,-367.6726 331.0643,-372.2477 341.3877,-374.6304 340.6203,-367.6726"/>
<text text-anchor="middle" x="530.5" y="-239.8" font-family="Times,serif" font-size="14.00" fill="#000000">{c1}</text>
</g>
<!-- 3&#45;&gt;0 -->
<g id="edge15" class="edge">
<title>3&#45;&gt;0</title>
<path fill="none" stroke="#000000" d="M510.2744,-128.5725C515.1968,-134.6003 520.3777,-141.7817 524,-149 551.986,-204.7687 558.2647,-220.5061 548,-251 531.7134,-299.3836 518.0399,-313.966 473,-338 450.4447,-350.0359 383.007,-362.0034 340.4516,-368.658"/>
<polygon fill="#000000" stroke="#000000" points="339.8235,-365.2134 330.4718,-370.1928 340.8876,-372.132 339.8235,-365.2134"/>
<text text-anchor="middle" x="564.5" y="-239.8" font-family="Times,serif" font-size="14.00" fill="#000000">{c0}</text>
</g>
<!-- 3&#45;&gt;3 -->
<g id="edge16" class="edge">
<title>3&#45;&gt;3</title>
<path fill="none" stroke="#000000" d="M520.5325,-120.752C531.5078,-121.4902 541,-118.9063 541,-113 541,-109.0317 536.7151,-106.5632 530.5743,-105.5944"/>
<polygon fill="#000000" stroke="#000000" points="530.6472,-102.0949 520.5325,-105.248 530.4059,-109.0908 530.6472,-102.0949"/>
<text text-anchor="middle" x="548" y="-109.3" font-family="Times,serif" font-size="14.00" fill="#000000">{}</text>
</g>
</g>
</svg>
