<?xml version="1.0" encoding="UTF-8" standalone="no"?>
<!DOCTYPE svg PUBLIC "-//W3C//DTD SVG 1.1//EN"
 "http://www.w3.org/Graphics/SVG/1.1/DTD/svg11.dtd">
<!-- Generated by graphviz version 2.43.0 (0)
 -->
<!-- Title: %3 Pages: 1 -->
<svg width="397pt" height="386pt"
 viewBox="0.00 0.00 396.63 386.00" xmlns="http://www.w3.org/2000/svg" xmlns:xlink="http://www.w3.org/1999/xlink">
<g id="graph0" class="graph" transform="scale(1 1) rotate(0) translate(4 382)">
<title>%3</title>
<polygon fill="white" stroke="transparent" points="-4,4 -4,-382 392.63,-382 392.63,4 -4,4"/>
<!-- fake -->
<g id="node1" class="node">
<title>fake</title>
</g>
<!-- 0 -->
<g id="node4" class="node">
<title>0</title>
<ellipse fill="none" stroke="black" cx="185.63" cy="-287" rx="27" ry="18"/>
<text text-anchor="middle" x="185.63" y="-283.3" font-family="Times,serif" font-size="14.00">0</text>
</g>
<!-- fake&#45;&gt;0 -->
<g id="edge1" class="edge">
<title>fake&#45;&gt;0</title>
<path fill="none" stroke="black" stroke-width="2" d="M185.63,-341.81C185.63,-333.79 185.63,-324.05 185.63,-315.07"/>
<polygon fill="black" stroke="black" stroke-width="2" points="189.13,-315.03 185.63,-305.03 182.13,-315.03 189.13,-315.03"/>
</g>
<!-- 1 -->
<g id="node2" class="node">
<title>1</title>
<ellipse fill="none" stroke="black" cx="46.63" cy="-200" rx="27" ry="18"/>
<text text-anchor="middle" x="46.63" y="-196.3" font-family="Times,serif" font-size="14.00">1</text>
</g>
<!-- 1&#45;&gt;1 -->
<g id="edge5" class="edge">
<title>1&#45;&gt;1</title>
<path fill="none" stroke="black" d="M71.16,-207.75C82.14,-208.49 91.63,-205.91 91.63,-200 91.63,-196.03 87.35,-193.56 81.21,-192.59"/>
<polygon fill="black" stroke="black" points="81.28,-189.09 71.16,-192.25 81.04,-196.09 81.28,-189.09"/>
<text text-anchor="middle" x="101.13" y="-196.3" font-family="Times,serif" font-size="14.00">{}</text>
</g>
<!-- 2 -->
<g id="node3" class="node">
<title>2</title>
<ellipse fill="none" stroke="black" cx="167.63" cy="-113" rx="27" ry="18"/>
<text text-anchor="middle" x="167.63" y="-109.3" font-family="Times,serif" font-size="14.00">2</text>
</g>
<!-- 1&#45;&gt;2 -->
<g id="edge2" class="edge">
<title>1&#45;&gt;2</title>
<path fill="none" stroke="black" d="M59.85,-183.71C69.57,-173.09 83.5,-159.08 97.63,-149 109.44,-140.58 123.58,-133.09 136.05,-127.22"/>
<polygon fill="black" stroke="black" points="137.54,-130.39 145.19,-123.07 134.64,-124.02 137.54,-130.39"/>
<text text-anchor="middle" x="115.13" y="-152.8" font-family="Times,serif" font-size="14.00">{c1}</text>
</g>
<!-- 1&#45;&gt;0 -->
<g id="edge3" class="edge">
<title>1&#45;&gt;0</title>
<path fill="none" stroke="black" d="M42.17,-218.04C40.46,-228.62 40.4,-241.89 47.63,-251 60.12,-266.72 112.33,-276.59 148.83,-281.69"/>
<polygon fill="black" stroke="black" points="148.74,-285.21 159.12,-283.07 149.67,-278.28 148.74,-285.21"/>
<text text-anchor="middle" x="65.13" y="-239.8" font-family="Times,serif" font-size="14.00">{c2}</text>
</g>
<!-- 1&#45;&gt;0 -->
<g id="edge4" class="edge">
<title>1&#45;&gt;0</title>
<path fill="none" stroke="black" d="M61.21,-215.46C72.61,-226.23 89.23,-240.77 105.63,-251 120.4,-260.21 138.02,-268.21 152.96,-274.22"/>
<polygon fill="black" stroke="black" points="151.74,-277.5 162.33,-277.87 154.29,-270.98 151.74,-277.5"/>
<text text-anchor="middle" x="123.13" y="-239.8" font-family="Times,serif" font-size="14.00">{c0}</text>
</g>
<!-- 2&#45;&gt;2 -->
<g id="edge9" class="edge">
<title>2&#45;&gt;2</title>
<path fill="none" stroke="black" d="M192.16,-120.75C203.14,-121.49 212.63,-118.91 212.63,-113 212.63,-109.03 208.35,-106.56 202.21,-105.59"/>
<polygon fill="black" stroke="black" points="202.28,-102.09 192.16,-105.25 202.04,-109.09 202.28,-102.09"/>
<text text-anchor="middle" x="222.13" y="-109.3" font-family="Times,serif" font-size="14.00">{}</text>
</g>
<!-- 2&#45;&gt;0 -->
<g id="edge6" class="edge">
<title>2&#45;&gt;0</title>
<path fill="none" stroke="black" d="M163.97,-131.07C160.1,-151.79 155.24,-187.71 160.63,-218 163.21,-232.46 168.63,-247.88 173.78,-260.37"/>
<polygon fill="black" stroke="black" points="170.62,-261.88 177.78,-269.69 177.05,-259.12 170.62,-261.88"/>
<text text-anchor="middle" x="178.13" y="-196.3" font-family="Times,serif" font-size="14.00">{c1}</text>
</g>
<!-- 2&#45;&gt;0 -->
<g id="edge8" class="edge">
<title>2&#45;&gt;0</title>
<path fill="none" stroke="black" d="M176.42,-130.2C183.18,-143.63 191.96,-163.46 195.63,-182 200.75,-207.88 196.83,-237.92 192.48,-259.04"/>
<polygon fill="black" stroke="black" points="189.04,-258.4 190.28,-268.92 195.87,-259.91 189.04,-258.4"/>
<text text-anchor="middle" x="215.13" y="-196.3" font-family="Times,serif" font-size="14.00">{c0}</text>
</g>
<!-- 3 -->
<g id="node5" class="node">
<title>3</title>
<ellipse fill="none" stroke="black" cx="309.63" cy="-22" rx="18" ry="18"/>
<ellipse fill="none" stroke="black" cx="309.63" cy="-22" rx="22" ry="22"/>
<text text-anchor="middle" x="309.63" y="-18.3" font-family="Times,serif" font-size="14.00">3</text>
</g>
<!-- 2&#45;&gt;3 -->
<g id="edge7" class="edge">
<title>2&#45;&gt;3</title>
<path fill="none" stroke="black" d="M183.29,-98.33C195.86,-87.71 214.23,-72.99 231.63,-62 247.17,-52.18 265.51,-42.91 280.51,-35.86"/>
<polygon fill="black" stroke="black" points="282.19,-38.94 289.81,-31.58 279.27,-32.58 282.19,-38.94"/>
<text text-anchor="middle" x="249.13" y="-65.8" font-family="Times,serif" font-size="14.00">{c2}</text>
</g>
<!-- 0&#45;&gt;1 -->
<g id="edge16" class="edge">
<title>0&#45;&gt;1</title>
<path fill="none" stroke="black" d="M158.74,-284.88C112.97,-282.35 23,-274.44 3.63,-251 -5.58,-239.85 4.77,-227.53 17.62,-217.91"/>
<polygon fill="black" stroke="black" points="19.96,-220.55 26.24,-212.01 16.01,-214.77 19.96,-220.55"/>
<text text-anchor="middle" x="21.13" y="-239.8" font-family="Times,serif" font-size="14.00">{c0}</text>
</g>
<!-- 0&#45;&gt;0 -->
<g id="edge14" class="edge">
<title>0&#45;&gt;0</title>
<path fill="none" stroke="black" d="M212.43,-289.25C222.41,-289.32 230.63,-288.57 230.63,-287 230.63,-286.02 227.42,-285.36 222.57,-285.02"/>
<polygon fill="black" stroke="black" points="222.51,-281.52 212.43,-284.75 222.33,-288.51 222.51,-281.52"/>
<text text-anchor="middle" x="248.13" y="-283.3" font-family="Times,serif" font-size="14.00">{c1}</text>
</g>
<!-- 0&#45;&gt;0 -->
<g id="edge15" class="edge">
<title>0&#45;&gt;0</title>
<path fill="none" stroke="black" d="M212.25,-290.79C236.79,-292.46 265.63,-291.2 265.63,-287 265.63,-283.38 244.13,-281.94 222.47,-282.69"/>
<polygon fill="black" stroke="black" points="222.06,-279.21 212.25,-283.21 222.42,-286.2 222.06,-279.21"/>
<text text-anchor="middle" x="283.13" y="-283.3" font-family="Times,serif" font-size="14.00">{c2}</text>
</g>
<!-- 0&#45;&gt;0 -->
<g id="edge17" class="edge">
<title>0&#45;&gt;0</title>
<path fill="none" stroke="black" d="M211.92,-291.76C248.25,-295.53 300.63,-293.94 300.63,-287 300.63,-280.68 257.24,-278.8 222.05,-281.35"/>
<polygon fill="black" stroke="black" points="221.58,-277.88 211.92,-282.24 222.19,-284.86 221.58,-277.88"/>
<text text-anchor="middle" x="310.13" y="-283.3" font-family="Times,serif" font-size="14.00">{}</text>
</g>
<!-- 3&#45;&gt;0 -->
<g id="edge10" class="edge">
<title>3&#45;&gt;0</title>
<path fill="none" stroke="black" d="M304.07,-43.47C293.72,-79.93 269.52,-157.91 236.63,-218 227.8,-234.14 215.47,-250.69 205.15,-263.42"/>
<polygon fill="black" stroke="black" points="202.39,-261.26 198.71,-271.19 207.78,-265.72 202.39,-261.26"/>
<text text-anchor="middle" x="285.13" y="-152.8" font-family="Times,serif" font-size="14.00">{c1}</text>
</g>
<!-- 3&#45;&gt;0 -->
<g id="edge11" class="edge">
<title>3&#45;&gt;0</title>
<path fill="none" stroke="black" d="M313.46,-43.92C317.7,-72.21 322.07,-123.77 306.63,-164 288.93,-210.14 243.48,-247.65 213.6,-268.38"/>
<polygon fill="black" stroke="black" points="211.57,-265.52 205.24,-274.02 215.49,-271.32 211.57,-265.52"/>
<text text-anchor="middle" x="328.13" y="-152.8" font-family="Times,serif" font-size="14.00">{c2}</text>
</g>
<!-- 3&#45;&gt;0 -->
<g id="edge12" class="edge">
<title>3&#45;&gt;0</title>
<path fill="none" stroke="black" d="M322.01,-40.75C339.31,-67.86 366.74,-120.97 349.63,-164 326.81,-221.39 259.22,-257.14 218.28,-274.14"/>
<polygon fill="black" stroke="black" points="216.96,-270.9 208.98,-277.87 219.56,-277.4 216.96,-270.9"/>
<text text-anchor="middle" x="371.13" y="-152.8" font-family="Times,serif" font-size="14.00">{c0}</text>
</g>
<!-- 3&#45;&gt;3 -->
<g id="edge13" class="edge">
<title>3&#45;&gt;3</title>
<path fill="none" stroke="black" d="M330.21,-30.37C340.48,-31.53 349.63,-28.74 349.63,-22 349.63,-17.68 345.87,-14.99 340.47,-13.91"/>
<polygon fill="black" stroke="black" points="340.3,-10.41 330.21,-13.63 340.11,-17.4 340.3,-10.41"/>
<text text-anchor="middle" x="359.13" y="-18.3" font-family="Times,serif" font-size="14.00">{}</text>
</g>
</g>
</svg>
