<?xml version="1.0" encoding="UTF-8" standalone="no"?>
<!DOCTYPE svg PUBLIC "-//W3C//DTD SVG 1.1//EN"
 "http://www.w3.org/Graphics/SVG/1.1/DTD/svg11.dtd">
<!-- Generated by graphviz version 2.38.0 (20140413.2041)
 -->
<!-- Title: %3 Pages: 1 -->
<svg width="300pt" height="386pt"
 viewBox="0.00 0.00 299.80 386.00" xmlns="http://www.w3.org/2000/svg" xmlns:xlink="http://www.w3.org/1999/xlink">
<g id="graph0" class="graph" transform="scale(1 1) rotate(0) translate(4 382)">
<title>%3</title>
<polygon fill="white" stroke="none" points="-4,4 -4,-382 295.801,-382 295.801,4 -4,4"/>
<!-- fake -->
<g id="node1" class="node"><title>fake</title>
</g>
<!-- 0 -->
<g id="node4" class="node"><title>0</title>
<ellipse fill="none" stroke="black" cx="134.801" cy="-287" rx="27" ry="18"/>
<text text-anchor="middle" x="134.801" y="-283.3" font-family="Times,serif" font-size="14.00">0</text>
</g>
<!-- fake&#45;&gt;0 -->
<g id="edge1" class="edge"><title>fake&#45;&gt;0</title>
<path fill="none" stroke="black" stroke-width="2" d="M134.801,-341.813C134.801,-333.789 134.801,-324.047 134.801,-315.069"/>
<polygon fill="black" stroke="black" stroke-width="2" points="138.301,-315.029 134.801,-305.029 131.301,-315.029 138.301,-315.029"/>
</g>
<!-- 2 -->
<g id="node2" class="node"><title>2</title>
<ellipse fill="none" stroke="black" cx="45.8012" cy="-113" rx="27" ry="18"/>
<text text-anchor="middle" x="45.8012" y="-109.3" font-family="Times,serif" font-size="14.00">2</text>
</g>
<!-- 2&#45;&gt;2 -->
<g id="edge5" class="edge"><title>2&#45;&gt;2</title>
<path fill="none" stroke="black" d="M70.3337,-120.752C81.309,-121.49 90.8012,-118.906 90.8012,-113 90.8012,-109.032 86.5163,-106.563 80.3756,-105.594"/>
<polygon fill="black" stroke="black" points="80.4484,-102.095 70.3337,-105.248 80.2071,-109.091 80.4484,-102.095"/>
<text text-anchor="middle" x="97.8012" y="-109.3" font-family="Times,serif" font-size="14.00">{}</text>
</g>
<!-- 3 -->
<g id="node3" class="node"><title>3</title>
<ellipse fill="none" stroke="black" cx="226.801" cy="-22" rx="18" ry="18"/>
<ellipse fill="none" stroke="black" cx="226.801" cy="-22" rx="22" ry="22"/>
<text text-anchor="middle" x="226.801" y="-18.3" font-family="Times,serif" font-size="14.00">3</text>
</g>
<!-- 2&#45;&gt;3 -->
<g id="edge2" class="edge"><title>2&#45;&gt;3</title>
<path fill="none" stroke="black" d="M66.9185,-101.616C99.4479,-85.6212 161.866,-54.9294 198.347,-36.9912"/>
<polygon fill="black" stroke="black" points="200.036,-40.0609 207.466,-32.5074 196.948,-33.7792 200.036,-40.0609"/>
<text text-anchor="middle" x="160.301" y="-65.8" font-family="Times,serif" font-size="14.00">{c1}</text>
</g>
<!-- 2&#45;&gt;0 -->
<g id="edge3" class="edge"><title>2&#45;&gt;0</title>
<path fill="none" stroke="black" d="M41.4171,-130.79C36.7503,-151.845 31.3531,-188.73 41.8012,-218 51.3917,-244.867 79.1624,-262.904 101.879,-273.61"/>
<polygon fill="black" stroke="black" points="100.677,-276.906 111.238,-277.754 103.511,-270.505 100.677,-276.906"/>
<text text-anchor="middle" x="55.3012" y="-196.3" font-family="Times,serif" font-size="14.00">{c0}</text>
</g>
<!-- 2&#45;&gt;0 -->
<g id="edge4" class="edge"><title>2&#45;&gt;0</title>
<path fill="none" stroke="black" d="M32.1574,-128.797C15.0244,-149.268 -10.3912,-187.19 4.80123,-218 22.3858,-253.661 66.8639,-271.116 98.8982,-279.308"/>
<polygon fill="black" stroke="black" points="98.2747,-282.757 108.812,-281.654 99.8865,-275.945 98.2747,-282.757"/>
<text text-anchor="middle" x="18.3012" y="-196.3" font-family="Times,serif" font-size="14.00">{c2}</text>
</g>
<!-- 3&#45;&gt;3 -->
<g id="edge9" class="edge"><title>3&#45;&gt;3</title>
<path fill="none" stroke="black" d="M247.382,-30.3702C257.646,-31.5284 266.801,-28.7383 266.801,-22 266.801,-17.6833 263.044,-14.9869 257.645,-13.9109"/>
<polygon fill="black" stroke="black" points="257.474,-10.405 247.382,-13.6298 257.282,-17.4024 257.474,-10.405"/>
<text text-anchor="middle" x="273.801" y="-18.3" font-family="Times,serif" font-size="14.00">{}</text>
</g>
<!-- 3&#45;&gt;0 -->
<g id="edge6" class="edge"><title>3&#45;&gt;0</title>
<path fill="none" stroke="black" d="M223.174,-44.0192C214.414,-93.3712 191.313,-215.189 170.801,-251 167.748,-256.33 163.648,-261.378 159.309,-265.895"/>
<polygon fill="black" stroke="black" points="156.735,-263.513 151.923,-272.952 161.571,-268.574 156.735,-263.513"/>
<text text-anchor="middle" x="214.301" y="-152.8" font-family="Times,serif" font-size="14.00">{c1}</text>
</g>
<!-- 3&#45;&gt;0 -->
<g id="edge7" class="edge"><title>3&#45;&gt;0</title>
<path fill="none" stroke="black" d="M230.526,-43.9039C234.749,-71.7497 239.835,-122.343 229.801,-164 219.746,-205.743 216.063,-218.676 187.801,-251 181.298,-258.437 172.856,-264.956 164.627,-270.288"/>
<polygon fill="black" stroke="black" points="162.617,-267.414 155.885,-275.595 166.249,-273.397 162.617,-267.414"/>
<text text-anchor="middle" x="245.301" y="-152.8" font-family="Times,serif" font-size="14.00">{c0}</text>
</g>
<!-- 3&#45;&gt;0 -->
<g id="edge8" class="edge"><title>3&#45;&gt;0</title>
<path fill="none" stroke="black" d="M237.534,-41.2843C251.96,-68.2018 274.517,-120.059 262.801,-164 251.016,-208.201 242.95,-221.722 207.801,-251 196.07,-260.772 181.15,-268.553 167.859,-274.273"/>
<polygon fill="black" stroke="black" points="166.478,-271.057 158.539,-278.073 169.121,-277.539 166.478,-271.057"/>
<text text-anchor="middle" x="278.301" y="-152.8" font-family="Times,serif" font-size="14.00">{c2}</text>
</g>
<!-- 0&#45;&gt;0 -->
<g id="edge10" class="edge"><title>0&#45;&gt;0</title>
<path fill="none" stroke="black" d="M161.596,-289.245C171.582,-289.319 179.801,-288.57 179.801,-287 179.801,-286.019 176.59,-285.358 171.744,-285.019"/>
<polygon fill="black" stroke="black" points="171.684,-281.516 161.596,-284.755 171.502,-288.514 171.684,-281.516"/>
<text text-anchor="middle" x="193.301" y="-283.3" font-family="Times,serif" font-size="14.00">{c1}</text>
</g>
<!-- 0&#45;&gt;0 -->
<g id="edge12" class="edge"><title>0&#45;&gt;0</title>
<path fill="none" stroke="black" d="M161.179,-290.893C182.969,-292.399 206.801,-291.102 206.801,-287 206.801,-283.523 189.677,-282.061 171.189,-282.614"/>
<polygon fill="black" stroke="black" points="170.995,-279.119 161.179,-283.107 171.339,-286.11 170.995,-279.119"/>
<text text-anchor="middle" x="220.301" y="-283.3" font-family="Times,serif" font-size="14.00">{c2}</text>
</g>
<!-- 0&#45;&gt;0 -->
<g id="edge13" class="edge"><title>0&#45;&gt;0</title>
<path fill="none" stroke="black" d="M161.167,-292.009C192.878,-295.455 233.801,-293.785 233.801,-287 233.801,-280.93 201.055,-278.954 171.449,-281.071"/>
<polygon fill="black" stroke="black" points="170.815,-277.614 161.167,-281.991 171.439,-284.586 170.815,-277.614"/>
<text text-anchor="middle" x="240.801" y="-283.3" font-family="Times,serif" font-size="14.00">{}</text>
</g>
<!-- 1 -->
<g id="node5" class="node"><title>1</title>
<ellipse fill="none" stroke="black" cx="104.801" cy="-200" rx="27" ry="18"/>
<text text-anchor="middle" x="104.801" y="-196.3" font-family="Times,serif" font-size="14.00">1</text>
</g>
<!-- 0&#45;&gt;1 -->
<g id="edge11" class="edge"><title>0&#45;&gt;1</title>
<path fill="none" stroke="black" d="M122.071,-270.876C117.799,-265.018 113.45,-258.033 110.801,-251 108.12,-243.882 106.568,-235.827 105.688,-228.295"/>
<polygon fill="black" stroke="black" points="109.161,-227.821 104.843,-218.146 102.185,-228.402 109.161,-227.821"/>
<text text-anchor="middle" x="124.301" y="-239.8" font-family="Times,serif" font-size="14.00">{c0}</text>
</g>
<!-- 1&#45;&gt;2 -->
<g id="edge16" class="edge"><title>1&#45;&gt;2</title>
<path fill="none" stroke="black" d="M93.9797,-183.41C85.219,-170.788 72.7248,-152.788 62.6552,-138.281"/>
<polygon fill="black" stroke="black" points="65.3314,-135.999 56.7539,-129.779 59.5809,-139.99 65.3314,-135.999"/>
<text text-anchor="middle" x="92.3012" y="-152.8" font-family="Times,serif" font-size="14.00">{c2}</text>
</g>
<!-- 1&#45;&gt;0 -->
<g id="edge14" class="edge"><title>1&#45;&gt;0</title>
<path fill="none" stroke="black" d="M121.799,-214.163C128.079,-220.078 134.472,-227.617 137.801,-236 140.67,-243.224 141.17,-251.498 140.605,-259.208"/>
<polygon fill="black" stroke="black" points="137.122,-258.853 139.298,-269.222 144.063,-259.759 137.122,-258.853"/>
<text text-anchor="middle" x="153.301" y="-239.8" font-family="Times,serif" font-size="14.00">{c1}</text>
</g>
<!-- 1&#45;&gt;0 -->
<g id="edge15" class="edge"><title>1&#45;&gt;0</title>
<path fill="none" stroke="black" d="M88.4755,-214.548C78.4434,-224.588 68.7495,-238.618 75.8012,-251 81.5772,-261.142 91.5771,-268.648 101.721,-274.05"/>
<polygon fill="black" stroke="black" points="100.424,-277.309 110.959,-278.435 103.426,-270.986 100.424,-277.309"/>
<text text-anchor="middle" x="89.3012" y="-239.8" font-family="Times,serif" font-size="14.00">{c0}</text>
</g>
<!-- 1&#45;&gt;1 -->
<g id="edge17" class="edge"><title>1&#45;&gt;1</title>
<path fill="none" stroke="black" d="M129.334,-207.752C140.309,-208.49 149.801,-205.906 149.801,-200 149.801,-196.032 145.516,-193.563 139.376,-192.594"/>
<polygon fill="black" stroke="black" points="139.448,-189.095 129.334,-192.248 139.207,-196.091 139.448,-189.095"/>
<text text-anchor="middle" x="156.801" y="-196.3" font-family="Times,serif" font-size="14.00">{}</text>
</g>
</g>
</svg>
