<?xml version="1.0" encoding="UTF-8" standalone="no"?>
<!DOCTYPE svg PUBLIC "-//W3C//DTD SVG 1.1//EN"
 "http://www.w3.org/Graphics/SVG/1.1/DTD/svg11.dtd">
<!-- Generated by graphviz version 2.38.0 (20140413.2041)
 -->
<!-- Title: %3 Pages: 1 -->
<svg width="1070pt" height="386pt"
 viewBox="0.00 0.00 1069.51 386.00" xmlns="http://www.w3.org/2000/svg" xmlns:xlink="http://www.w3.org/1999/xlink">
<g id="graph0" class="graph" transform="scale(1 1) rotate(0) translate(4 382)">
<title>%3</title>
<polygon fill="white" stroke="none" points="-4,4 -4,-382 1065.51,-382 1065.51,4 -4,4"/>
<!-- fake -->
<g id="node1" class="node"><title>fake</title>
</g>
<!-- 0 -->
<g id="node2" class="node"><title>0</title>
<ellipse fill="none" stroke="black" cx="582.506" cy="-287" rx="27" ry="18"/>
<text text-anchor="middle" x="582.506" y="-283.3" font-family="Times,serif" font-size="14.00">0</text>
</g>
<!-- fake&#45;&gt;0 -->
<g id="edge1" class="edge"><title>fake&#45;&gt;0</title>
<path fill="none" stroke="black" stroke-width="2" d="M582.506,-341.813C582.506,-333.789 582.506,-324.047 582.506,-315.069"/>
<polygon fill="black" stroke="black" stroke-width="2" points="586.006,-315.029 582.506,-305.029 579.006,-315.029 586.006,-315.029"/>
</g>
<!-- 0&#45;&gt;0 -->
<g id="edge6" class="edge"><title>0&#45;&gt;0</title>
<path fill="none" stroke="black" d="M607.95,-293.691C618.534,-294.152 627.506,-291.922 627.506,-287 627.506,-283.77 623.642,-281.699 617.994,-280.788"/>
<polygon fill="black" stroke="black" points="618.105,-277.289 607.95,-280.309 617.772,-284.281 618.105,-277.289"/>
<text text-anchor="middle" x="634.506" y="-283.3" font-family="Times,serif" font-size="14.00">{}</text>
</g>
<!-- 1 -->
<g id="node3" class="node"><title>1</title>
<ellipse fill="none" stroke="black" cx="442.506" cy="-200" rx="27" ry="18"/>
<text text-anchor="middle" x="442.506" y="-196.3" font-family="Times,serif" font-size="14.00">1</text>
</g>
<!-- 0&#45;&gt;1 -->
<g id="edge2" class="edge"><title>0&#45;&gt;1</title>
<path fill="none" stroke="black" d="M555.329,-285.618C504.142,-284.262 396.503,-278.168 373.506,-251 359.393,-234.327 384.515,-220.254 408.307,-211.328"/>
<polygon fill="black" stroke="black" points="409.684,-214.554 417.959,-207.938 407.365,-207.949 409.684,-214.554"/>
<text text-anchor="middle" x="397.006" y="-239.8" font-family="Times,serif" font-size="14.00">{c0, c1}</text>
</g>
<!-- 0&#45;&gt;1 -->
<g id="edge3" class="edge"><title>0&#45;&gt;1</title>
<path fill="none" stroke="black" d="M556.109,-283.136C519.806,-278.596 457.373,-268.429 443.506,-251 438.413,-244.599 436.933,-236.136 437.097,-227.997"/>
<polygon fill="black" stroke="black" points="440.582,-228.325 438.036,-218.04 433.613,-227.668 440.582,-228.325"/>
<text text-anchor="middle" x="457.006" y="-239.8" font-family="Times,serif" font-size="14.00">{c0}</text>
</g>
<!-- 0&#45;&gt;1 -->
<g id="edge4" class="edge"><title>0&#45;&gt;1</title>
<path fill="none" stroke="black" d="M557.827,-279.231C539.221,-273.453 513.569,-264.004 493.506,-251 481.963,-243.518 470.847,-233.131 461.955,-223.762"/>
<polygon fill="black" stroke="black" points="464.383,-221.231 455.049,-216.217 459.22,-225.957 464.383,-221.231"/>
<text text-anchor="middle" x="527.006" y="-239.8" font-family="Times,serif" font-size="14.00">{c0, c1, c2}</text>
</g>
<!-- 0&#45;&gt;1 -->
<g id="edge5" class="edge"><title>0&#45;&gt;1</title>
<path fill="none" stroke="black" d="M578.915,-268.962C575.787,-258.105 570.183,-244.527 560.506,-236 538.102,-216.258 504.995,-207.64 479.547,-203.884"/>
<polygon fill="black" stroke="black" points="479.877,-200.398 469.512,-202.592 478.983,-207.341 479.877,-200.398"/>
<text text-anchor="middle" x="594.006" y="-239.8" font-family="Times,serif" font-size="14.00">{c0, c2}</text>
</g>
<!-- 2 -->
<g id="node4" class="node"><title>2</title>
<ellipse fill="none" stroke="black" cx="587.506" cy="-22" rx="27" ry="18"/>
<text text-anchor="middle" x="587.506" y="-18.3" font-family="Times,serif" font-size="14.00">2</text>
</g>
<!-- 0&#45;&gt;2 -->
<g id="edge7" class="edge"><title>0&#45;&gt;2</title>
<path fill="none" stroke="black" d="M601.702,-274.068C609.37,-268.167 617.354,-260.305 621.506,-251 624.223,-244.912 621.695,-242.664 621.506,-236 619.728,-173.258 626.075,-156.496 613.506,-95 610.304,-79.3322 604.368,-62.4862 598.975,-49.0311"/>
<polygon fill="black" stroke="black" points="602.077,-47.3737 595.012,-39.4785 595.611,-50.0563 602.077,-47.3737"/>
<text text-anchor="middle" x="645.006" y="-152.8" font-family="Times,serif" font-size="14.00">{c1, c2}</text>
</g>
<!-- 0&#45;&gt;2 -->
<g id="edge8" class="edge"><title>0&#45;&gt;2</title>
<path fill="none" stroke="black" d="M603.79,-275.766C614.454,-269.769 626.895,-261.335 635.506,-251 662.402,-218.718 664.115,-205.172 672.506,-164 682.315,-115.871 640.655,-68.8226 612.204,-43.0907"/>
<polygon fill="black" stroke="black" points="614.412,-40.3717 604.583,-36.4151 609.799,-45.6372 614.412,-40.3717"/>
<text text-anchor="middle" x="687.006" y="-152.8" font-family="Times,serif" font-size="14.00">{c2}</text>
</g>
<!-- 0&#45;&gt;2 -->
<g id="edge9" class="edge"><title>0&#45;&gt;2</title>
<path fill="none" stroke="black" d="M606.082,-278.204C621.121,-272.397 640.371,-263.339 654.506,-251 688.104,-221.672 693.941,-207.328 704.506,-164 716.609,-114.366 689.732,-95.893 651.506,-62 641.39,-53.0306 628.942,-44.9173 617.722,-38.4429"/>
<polygon fill="black" stroke="black" points="619.105,-35.2072 608.664,-33.4069 615.704,-41.3252 619.105,-35.2072"/>
<text text-anchor="middle" x="720.006" y="-152.8" font-family="Times,serif" font-size="14.00">{c1}</text>
</g>
<!-- 1&#45;&gt;1 -->
<g id="edge28" class="edge"><title>1&#45;&gt;1</title>
<path fill="none" stroke="black" d="M467.039,-207.752C478.014,-208.49 487.506,-205.906 487.506,-200 487.506,-196.032 483.221,-193.563 477.08,-192.594"/>
<polygon fill="black" stroke="black" points="477.153,-189.095 467.039,-192.248 476.912,-196.091 477.153,-189.095"/>
<text text-anchor="middle" x="494.506" y="-196.3" font-family="Times,serif" font-size="14.00">{}</text>
</g>
<!-- 1&#45;&gt;2 -->
<g id="edge31" class="edge"><title>1&#45;&gt;2</title>
<path fill="none" stroke="black" d="M441.62,-181.75C441.244,-160.221 443.044,-122.845 457.506,-95 467.36,-76.0268 474.017,-72.7352 492.506,-62 516.215,-48.234 526.386,-54.9807 551.506,-44 554.179,-42.8317 556.902,-41.5106 559.595,-40.1138"/>
<polygon fill="black" stroke="black" points="561.45,-43.0873 568.508,-35.1853 558.063,-36.9615 561.45,-43.0873"/>
<text text-anchor="middle" x="471.006" y="-109.3" font-family="Times,serif" font-size="14.00">{c1}</text>
</g>
<!-- 1&#45;&gt;2 -->
<g id="edge32" class="edge"><title>1&#45;&gt;2</title>
<path fill="none" stroke="black" d="M453.381,-183.453C468.023,-162.772 495.168,-125.298 520.506,-95 535.109,-77.5383 552.672,-58.7379 566.152,-44.7283"/>
<polygon fill="black" stroke="black" points="568.733,-47.0949 573.177,-37.4771 563.705,-42.2245 568.733,-47.0949"/>
<text text-anchor="middle" x="544.006" y="-109.3" font-family="Times,serif" font-size="14.00">{c0, c1}</text>
</g>
<!-- 1&#45;&gt;2 -->
<g id="edge33" class="edge"><title>1&#45;&gt;2</title>
<path fill="none" stroke="black" d="M467.251,-192.563C496.085,-183.712 542.909,-164.889 567.506,-131 584.525,-107.553 588.387,-73.8946 588.715,-50.4054"/>
<polygon fill="black" stroke="black" points="592.213,-50.0669 588.643,-40.0915 585.213,-50.1157 592.213,-50.0669"/>
<text text-anchor="middle" x="596.006" y="-109.3" font-family="Times,serif" font-size="14.00">{c0}</text>
</g>
<!-- 3 -->
<g id="node5" class="node"><title>3</title>
<ellipse fill="none" stroke="black" cx="241.506" cy="-113" rx="27" ry="18"/>
<text text-anchor="middle" x="241.506" y="-109.3" font-family="Times,serif" font-size="14.00">3</text>
</g>
<!-- 1&#45;&gt;3 -->
<g id="edge26" class="edge"><title>1&#45;&gt;3</title>
<path fill="none" stroke="black" d="M415.581,-197.496C350.423,-193.582 188.418,-182.108 172.506,-164 158.087,-147.591 183.256,-133.477 207.143,-124.47"/>
<polygon fill="black" stroke="black" points="208.573,-127.676 216.836,-121.045 206.241,-121.076 208.573,-127.676"/>
<text text-anchor="middle" x="196.006" y="-152.8" font-family="Times,serif" font-size="14.00">{c1, c2}</text>
</g>
<!-- 1&#45;&gt;3 -->
<g id="edge27" class="edge"><title>1&#45;&gt;3</title>
<path fill="none" stroke="black" d="M415.386,-198.348C366.019,-196.532 264.533,-189.69 242.506,-164 237.102,-157.697 235.596,-149.127 235.829,-140.862"/>
<polygon fill="black" stroke="black" points="239.327,-141.062 236.893,-130.75 232.366,-140.329 239.327,-141.062"/>
<text text-anchor="middle" x="256.006" y="-152.8" font-family="Times,serif" font-size="14.00">{c2}</text>
</g>
<!-- 1&#45;&gt;3 -->
<g id="edge29" class="edge"><title>1&#45;&gt;3</title>
<path fill="none" stroke="black" d="M415.755,-197.132C384.487,-193.994 331.998,-185.696 292.506,-164 280.28,-157.283 268.951,-146.814 260.091,-137.187"/>
<polygon fill="black" stroke="black" points="262.488,-134.612 253.264,-129.4 257.224,-139.227 262.488,-134.612"/>
<text text-anchor="middle" x="316.006" y="-152.8" font-family="Times,serif" font-size="14.00">{c0, c2}</text>
</g>
<!-- 1&#45;&gt;3 -->
<g id="edge30" class="edge"><title>1&#45;&gt;3</title>
<path fill="none" stroke="black" d="M419.618,-190.166C403.356,-183.607 381.181,-174.085 362.506,-164 351.768,-158.201 350.439,-154.423 339.506,-149 318.97,-138.814 294.717,-130.127 275.476,-123.956"/>
<polygon fill="black" stroke="black" points="276.506,-120.611 265.917,-120.963 274.415,-127.291 276.506,-120.611"/>
<text text-anchor="middle" x="396.006" y="-152.8" font-family="Times,serif" font-size="14.00">{c0, c1, c2}</text>
</g>
<!-- 2&#45;&gt;2 -->
<g id="edge34" class="edge"><title>2&#45;&gt;2</title>
<path fill="none" stroke="black" d="M614.747,-23.4985C624.53,-23.5308 632.506,-23.0312 632.506,-22 632.506,-21.3716 629.544,-20.9406 625.017,-20.7071"/>
<polygon fill="black" stroke="black" points="624.815,-17.2025 614.747,-20.5015 624.675,-24.2011 624.815,-17.2025"/>
<text text-anchor="middle" x="666.006" y="-18.3" font-family="Times,serif" font-size="14.00">{c0, c1, c2}</text>
</g>
<!-- 2&#45;&gt;2 -->
<g id="edge35" class="edge"><title>2&#45;&gt;2</title>
<path fill="none" stroke="black" d="M614.405,-24.2733C648.85,-25.7421 699.506,-24.9844 699.506,-22 699.506,-19.2954 657.903,-18.4195 624.465,-19.3723"/>
<polygon fill="black" stroke="black" points="624.276,-15.8767 614.405,-19.7267 624.522,-22.8724 624.276,-15.8767"/>
<text text-anchor="middle" x="723.006" y="-18.3" font-family="Times,serif" font-size="14.00">{c1, c2}</text>
</g>
<!-- 2&#45;&gt;2 -->
<g id="edge36" class="edge"><title>2&#45;&gt;2</title>
<path fill="none" stroke="black" d="M614.271,-24.8716C661.861,-27.7619 746.506,-26.8047 746.506,-22 746.506,-17.5238 673.038,-16.387 624.511,-18.5896"/>
<polygon fill="black" stroke="black" points="624.073,-15.1078 614.271,-19.1284 624.441,-22.0981 624.073,-15.1078"/>
<text text-anchor="middle" x="770.006" y="-18.3" font-family="Times,serif" font-size="14.00">{c0, c2}</text>
</g>
<!-- 2&#45;&gt;2 -->
<g id="edge37" class="edge"><title>2&#45;&gt;2</title>
<path fill="none" stroke="black" d="M614.085,-25.3229C673.179,-29.7795 793.506,-28.6719 793.506,-22 793.506,-15.693 685.98,-14.3583 624.3,-17.9959"/>
<polygon fill="black" stroke="black" points="623.83,-14.5193 614.085,-18.6771 624.296,-21.5038 623.83,-14.5193"/>
<text text-anchor="middle" x="807.006" y="-18.3" font-family="Times,serif" font-size="14.00">{c2}</text>
</g>
<!-- 2&#45;&gt;2 -->
<g id="edge38" class="edge"><title>2&#45;&gt;2</title>
<path fill="none" stroke="black" d="M613.977,-25.7921C679.825,-31.7797 820.506,-30.5156 820.506,-22 820.506,-13.9002 693.228,-12.3611 624.133,-17.3827"/>
<polygon fill="black" stroke="black" points="623.661,-13.9094 613.977,-18.2079 624.228,-20.8864 623.661,-13.9094"/>
<text text-anchor="middle" x="827.506" y="-18.3" font-family="Times,serif" font-size="14.00">{}</text>
</g>
<!-- 2&#45;&gt;2 -->
<g id="edge39" class="edge"><title>2&#45;&gt;2</title>
<path fill="none" stroke="black" d="M614.053,-26.249C684.984,-33.7757 838.506,-32.3594 838.506,-22 838.506,-12.106 698.467,-10.3696 624.091,-16.7908"/>
<polygon fill="black" stroke="black" points="623.675,-13.3146 614.053,-17.751 624.341,-20.2828 623.675,-13.3146"/>
<text text-anchor="middle" x="852.006" y="-18.3" font-family="Times,serif" font-size="14.00">{c1}</text>
</g>
<!-- 2&#45;&gt;2 -->
<g id="edge40" class="edge"><title>2&#45;&gt;2</title>
<path fill="none" stroke="black" d="M613.834,-26.5629C691.321,-35.7847 865.506,-34.2637 865.506,-22 865.506,-10.2393 705.317,-8.35819 623.838,-16.3566"/>
<polygon fill="black" stroke="black" points="623.401,-12.8834 613.834,-17.4371 624.152,-19.8429 623.401,-12.8834"/>
<text text-anchor="middle" x="889.006" y="-18.3" font-family="Times,serif" font-size="14.00">{c0, c1}</text>
</g>
<!-- 2&#45;&gt;2 -->
<g id="edge41" class="edge"><title>2&#45;&gt;2</title>
<path fill="none" stroke="black" d="M613.728,-26.7488C700.856,-37.8017 912.506,-36.2188 912.506,-22 912.506,-8.3089 716.273,-6.33319 623.925,-16.0729"/>
<polygon fill="black" stroke="black" points="623.26,-12.6263 613.728,-17.2512 624.063,-19.5801 623.26,-12.6263"/>
<text text-anchor="middle" x="926.006" y="-18.3" font-family="Times,serif" font-size="14.00">{c0}</text>
</g>
<!-- 3&#45;&gt;2 -->
<g id="edge23" class="edge"><title>3&#45;&gt;2</title>
<path fill="none" stroke="black" d="M250.529,-95.8992C257.999,-84.2753 269.762,-69.3771 284.506,-62 337.689,-35.3906 494.654,-61.443 551.506,-44 554.522,-43.0748 557.554,-41.8557 560.51,-40.4697"/>
<polygon fill="black" stroke="black" points="562.405,-43.4256 569.579,-35.629 559.109,-37.2503 562.405,-43.4256"/>
<text text-anchor="middle" x="308.006" y="-65.8" font-family="Times,serif" font-size="14.00">{c0, c2}</text>
</g>
<!-- 3&#45;&gt;2 -->
<g id="edge24" class="edge"><title>3&#45;&gt;2</title>
<path fill="none" stroke="black" d="M265.397,-104.229C283.88,-97.8582 309.881,-88.1045 331.506,-77 342.362,-71.4252 342.978,-66.0067 354.506,-62 437.553,-33.1352 467.766,-70.787 551.506,-44 554.51,-43.039 557.535,-41.7963 560.487,-40.3957"/>
<polygon fill="black" stroke="black" points="562.391,-43.3462 569.55,-35.5357 559.083,-37.1773 562.391,-43.3462"/>
<text text-anchor="middle" x="368.006" y="-65.8" font-family="Times,serif" font-size="14.00">{c2}</text>
</g>
<!-- 3&#45;&gt;2 -->
<g id="edge25" class="edge"><title>3&#45;&gt;2</title>
<path fill="none" stroke="black" d="M267.637,-108.144C296.411,-103.293 343.618,-93.5325 381.506,-77 392.692,-72.1192 393.041,-66.1833 404.506,-62 466.34,-39.4379 489.13,-65.0147 551.506,-44 554.429,-43.0153 557.376,-41.7763 560.259,-40.3951"/>
<polygon fill="black" stroke="black" points="561.979,-43.4444 569.139,-35.6352 558.672,-37.2748 561.979,-43.4444"/>
<text text-anchor="middle" x="418.006" y="-65.8" font-family="Times,serif" font-size="14.00">{c0}</text>
</g>
<!-- 3&#45;&gt;3 -->
<g id="edge22" class="edge"><title>3&#45;&gt;3</title>
<path fill="none" stroke="black" d="M266.039,-120.752C277.014,-121.49 286.506,-118.906 286.506,-113 286.506,-109.032 282.221,-106.563 276.08,-105.594"/>
<polygon fill="black" stroke="black" points="276.153,-102.095 266.039,-105.248 275.912,-109.091 276.153,-102.095"/>
<text text-anchor="middle" x="293.506" y="-109.3" font-family="Times,serif" font-size="14.00">{}</text>
</g>
<!-- 4 -->
<g id="node6" class="node"><title>4</title>
<ellipse fill="none" stroke="black" cx="73.5061" cy="-22" rx="18" ry="18"/>
<ellipse fill="none" stroke="black" cx="73.5061" cy="-22" rx="22" ry="22"/>
<text text-anchor="middle" x="73.5061" y="-18.3" font-family="Times,serif" font-size="14.00">4</text>
</g>
<!-- 3&#45;&gt;4 -->
<g id="edge18" class="edge"><title>3&#45;&gt;4</title>
<path fill="none" stroke="black" d="M214.239,-112.223C157.831,-112.041 31.3433,-108.092 4.50607,-77 -10.9374,-59.1084 17.7829,-43.0429 42.7469,-33.1776"/>
<polygon fill="black" stroke="black" points="44.2304,-36.3599 52.3776,-29.5869 41.7849,-29.8009 44.2304,-36.3599"/>
<text text-anchor="middle" x="28.0061" y="-65.8" font-family="Times,serif" font-size="14.00">{c0, c1}</text>
</g>
<!-- 3&#45;&gt;4 -->
<g id="edge19" class="edge"><title>3&#45;&gt;4</title>
<path fill="none" stroke="black" d="M214.472,-110.315C171.839,-107.035 92.0239,-98.1664 74.5061,-77 69.1507,-70.5293 67.4208,-61.9752 67.4348,-53.588"/>
<polygon fill="black" stroke="black" points="70.9266,-53.8269 68.1903,-43.5915 63.9465,-53.2993 70.9266,-53.8269"/>
<text text-anchor="middle" x="88.0061" y="-65.8" font-family="Times,serif" font-size="14.00">{c1}</text>
</g>
<!-- 3&#45;&gt;4 -->
<g id="edge20" class="edge"><title>3&#45;&gt;4</title>
<path fill="none" stroke="black" d="M215.261,-108.181C190.429,-103.672 152.844,-94.4644 124.506,-77 112.379,-69.5261 101.221,-58.4472 92.4548,-48.2663"/>
<polygon fill="black" stroke="black" points="95.0212,-45.8768 85.9638,-40.3799 89.6164,-50.3252 95.0212,-45.8768"/>
<text text-anchor="middle" x="158.006" y="-65.8" font-family="Times,serif" font-size="14.00">{c0, c1, c2}</text>
</g>
<!-- 3&#45;&gt;4 -->
<g id="edge21" class="edge"><title>3&#45;&gt;4</title>
<path fill="none" stroke="black" d="M229.42,-96.5261C220.107,-85.5293 206.346,-71.1457 191.506,-62 164.666,-45.4589 130.02,-35.0944 105.225,-29.2446"/>
<polygon fill="black" stroke="black" points="105.777,-25.7815 95.2532,-27.0091 104.245,-32.6119 105.777,-25.7815"/>
<text text-anchor="middle" x="234.006" y="-65.8" font-family="Times,serif" font-size="14.00">{c1, c2}</text>
</g>
<!-- 4&#45;&gt;4 -->
<g id="edge10" class="edge"><title>4&#45;&gt;4</title>
<path fill="none" stroke="black" d="M95.7184,-23.4821C105.301,-23.6034 113.506,-23.1094 113.506,-22 113.506,-21.324 110.459,-20.8765 105.911,-20.6574"/>
<polygon fill="black" stroke="black" points="105.765,-17.1552 95.7184,-20.5179 105.67,-24.1546 105.765,-17.1552"/>
<text text-anchor="middle" x="147.006" y="-18.3" font-family="Times,serif" font-size="14.00">{c0, c1, c2}</text>
</g>
<!-- 4&#45;&gt;4 -->
<g id="edge11" class="edge"><title>4&#45;&gt;4</title>
<path fill="none" stroke="black" d="M95.8523,-24.1282C128.592,-25.7875 180.506,-25.0781 180.506,-22 180.506,-19.2225 138.236,-18.3736 105.926,-19.4534"/>
<polygon fill="black" stroke="black" points="105.698,-15.9598 95.8523,-19.8718 105.989,-22.9537 105.698,-15.9598"/>
<text text-anchor="middle" x="194.006" y="-18.3" font-family="Times,serif" font-size="14.00">{c0}</text>
</g>
<!-- 4&#45;&gt;4 -->
<g id="edge12" class="edge"><title>4&#45;&gt;4</title>
<path fill="none" stroke="black" d="M95.572,-24.7641C136.114,-27.7846 207.506,-26.8633 207.506,-22 207.506,-17.5167 146.833,-16.3834 105.59,-18.6001"/>
<polygon fill="black" stroke="black" points="105.33,-15.1095 95.572,-19.2359 105.774,-22.0954 105.33,-15.1095"/>
<text text-anchor="middle" x="231.006" y="-18.3" font-family="Times,serif" font-size="14.00">{c0, c1}</text>
</g>
<!-- 4&#45;&gt;4 -->
<g id="edge13" class="edge"><title>4&#45;&gt;4</title>
<path fill="none" stroke="black" d="M95.4772,-25.1317C147.462,-29.8095 254.506,-28.7656 254.506,-22 254.506,-15.644 160.032,-14.3378 105.489,-18.0815"/>
<polygon fill="black" stroke="black" points="105.172,-14.5955 95.4772,-18.8683 105.721,-21.574 105.172,-14.5955"/>
<text text-anchor="middle" x="268.006" y="-18.3" font-family="Times,serif" font-size="14.00">{c2}</text>
</g>
<!-- 4&#45;&gt;4 -->
<g id="edge14" class="edge"><title>4&#45;&gt;4</title>
<path fill="none" stroke="black" d="M95.5185,-25.5408C154.316,-31.8131 281.506,-30.6328 281.506,-22 281.506,-13.8393 167.847,-12.3383 105.747,-17.497"/>
<polygon fill="black" stroke="black" points="105.147,-14.0379 95.5185,-18.4592 105.802,-21.0071 105.147,-14.0379"/>
<text text-anchor="middle" x="305.006" y="-18.3" font-family="Times,serif" font-size="14.00">{c0, c2}</text>
</g>
<!-- 4&#45;&gt;4 -->
<g id="edge15" class="edge"><title>4&#45;&gt;4</title>
<path fill="none" stroke="black" d="M95.5199,-25.7781C164.271,-33.8297 328.506,-32.5703 328.506,-22 328.506,-11.9252 179.307,-10.3089 105.791,-17.1511"/>
<polygon fill="black" stroke="black" points="105.103,-13.7037 95.5199,-18.2219 105.829,-20.666 105.103,-13.7037"/>
<text text-anchor="middle" x="342.006" y="-18.3" font-family="Times,serif" font-size="14.00">{c1}</text>
</g>
<!-- 4&#45;&gt;4 -->
<g id="edge16" class="edge"><title>4&#45;&gt;4</title>
<path fill="none" stroke="black" d="M95.2355,-26.0271C170.142,-35.8384 355.506,-34.4961 355.506,-22 355.506,-10.0408 185.729,-8.2975 105.48,-16.77"/>
<polygon fill="black" stroke="black" points="104.759,-13.3305 95.2355,-17.9729 105.576,-20.2827 104.759,-13.3305"/>
<text text-anchor="middle" x="362.506" y="-18.3" font-family="Times,serif" font-size="14.00">{}</text>
</g>
<!-- 4&#45;&gt;4 -->
<g id="edge17" class="edge"><title>4&#45;&gt;4</title>
<path fill="none" stroke="black" d="M95.248,-26.305C175.154,-37.8412 373.506,-36.4062 373.506,-22 373.506,-8.17056 190.72,-6.29446 105.395,-16.3717"/>
<polygon fill="black" stroke="black" points="104.711,-12.9312 95.248,-17.695 105.617,-19.8724 104.711,-12.9312"/>
<text text-anchor="middle" x="397.006" y="-18.3" font-family="Times,serif" font-size="14.00">{c1, c2}</text>
</g>
</g>
</svg>
