<?xml version="1.0" encoding="UTF-8" standalone="no"?>
<!DOCTYPE svg PUBLIC "-//W3C//DTD SVG 1.1//EN"
 "http://www.w3.org/Graphics/SVG/1.1/DTD/svg11.dtd">
<!-- Generated by graphviz version 2.43.0 (0)
 -->
<!-- Title: %3 Pages: 1 -->
<svg width="1264pt" height="386pt"
 viewBox="0.00 0.00 1264.01 386.00" xmlns="http://www.w3.org/2000/svg" xmlns:xlink="http://www.w3.org/1999/xlink">
<g id="graph0" class="graph" transform="scale(1 1) rotate(0) translate(4 382)">
<title>%3</title>
<polygon fill="white" stroke="transparent" points="-4,4 -4,-382 1260.01,-382 1260.01,4 -4,4"/>
<!-- fake -->
<g id="node1" class="node">
<title>fake</title>
</g>
<!-- 0 -->
<g id="node2" class="node">
<title>0</title>
<ellipse fill="none" stroke="black" cx="682.01" cy="-287" rx="27" ry="18"/>
<text text-anchor="middle" x="682.01" y="-283.3" font-family="Times,serif" font-size="14.00">0</text>
</g>
<!-- fake&#45;&gt;0 -->
<g id="edge1" class="edge">
<title>fake&#45;&gt;0</title>
<path fill="none" stroke="black" stroke-width="2" d="M682.01,-341.81C682.01,-333.79 682.01,-324.05 682.01,-315.07"/>
<polygon fill="black" stroke="black" stroke-width="2" points="685.51,-315.03 682.01,-305.03 678.51,-315.03 685.51,-315.03"/>
</g>
<!-- 0&#45;&gt;0 -->
<g id="edge12" class="edge">
<title>0&#45;&gt;0</title>
<path fill="none" stroke="black" d="M707.45,-293.69C718.03,-294.15 727.01,-291.92 727.01,-287 727.01,-283.77 723.14,-281.7 717.49,-280.79"/>
<polygon fill="black" stroke="black" points="717.61,-277.29 707.45,-280.31 717.27,-284.28 717.61,-277.29"/>
<text text-anchor="middle" x="736.51" y="-283.3" font-family="Times,serif" font-size="14.00">{}</text>
</g>
<!-- 1 -->
<g id="node3" class="node">
<title>1</title>
<ellipse fill="none" stroke="black" cx="515.01" cy="-200" rx="27" ry="18"/>
<text text-anchor="middle" x="515.01" y="-196.3" font-family="Times,serif" font-size="14.00">1</text>
</g>
<!-- 0&#45;&gt;1 -->
<g id="edge10" class="edge">
<title>0&#45;&gt;1</title>
<path fill="none" stroke="black" d="M654.6,-286.46C595.82,-286.8 460.62,-283.9 432.01,-251 414.65,-231.04 449.92,-216.74 479.72,-208.67"/>
<polygon fill="black" stroke="black" points="480.71,-212.03 489.53,-206.18 478.98,-205.25 480.71,-212.03"/>
<text text-anchor="middle" x="462.51" y="-239.8" font-family="Times,serif" font-size="14.00">{c0, c2}</text>
</g>
<!-- 0&#45;&gt;1 -->
<g id="edge11" class="edge">
<title>0&#45;&gt;1</title>
<path fill="none" stroke="black" d="M655.14,-284.29C612.76,-280.97 533.43,-272.04 516.01,-251 510.79,-244.7 509.28,-236.26 509.45,-228.12"/>
<polygon fill="black" stroke="black" points="512.94,-228.43 510.42,-218.14 505.97,-227.75 512.94,-228.43"/>
<text text-anchor="middle" x="533.51" y="-239.8" font-family="Times,serif" font-size="14.00">{c0}</text>
</g>
<!-- 0&#45;&gt;1 -->
<g id="edge13" class="edge">
<title>0&#45;&gt;1</title>
<path fill="none" stroke="black" d="M656.42,-280.69C633.78,-275.31 600.35,-265.67 574.01,-251 560.36,-243.4 546.93,-232.38 536.34,-222.62"/>
<polygon fill="black" stroke="black" points="538.5,-219.84 528.84,-215.48 533.67,-224.91 538.5,-219.84"/>
<text text-anchor="middle" x="617.01" y="-239.8" font-family="Times,serif" font-size="14.00">{c0, c1, c2}</text>
</g>
<!-- 0&#45;&gt;1 -->
<g id="edge14" class="edge">
<title>0&#45;&gt;1</title>
<path fill="none" stroke="black" d="M678.56,-268.8C675.49,-257.87 669.9,-244.28 660.01,-236 629.85,-210.77 584.45,-203.16 552.51,-201.14"/>
<polygon fill="black" stroke="black" points="552.39,-197.63 542.23,-200.65 552.06,-204.62 552.39,-197.63"/>
<text text-anchor="middle" x="700.51" y="-239.8" font-family="Times,serif" font-size="14.00">{c0, c1}</text>
</g>
<!-- 2 -->
<g id="node4" class="node">
<title>2</title>
<ellipse fill="none" stroke="black" cx="692.01" cy="-22" rx="27" ry="18"/>
<text text-anchor="middle" x="692.01" y="-18.3" font-family="Times,serif" font-size="14.00">2</text>
</g>
<!-- 0&#45;&gt;2 -->
<g id="edge15" class="edge">
<title>0&#45;&gt;2</title>
<path fill="none" stroke="black" d="M704.86,-277.15C716.09,-271.49 728.58,-262.94 735.01,-251 771.1,-183.91 730.4,-91.51 706.67,-47.81"/>
<polygon fill="black" stroke="black" points="709.68,-46.04 701.75,-39.01 703.57,-49.45 709.68,-46.04"/>
<text text-anchor="middle" x="764.51" y="-152.8" font-family="Times,serif" font-size="14.00">{c2}</text>
</g>
<!-- 0&#45;&gt;2 -->
<g id="edge16" class="edge">
<title>0&#45;&gt;2</title>
<path fill="none" stroke="black" d="M706.13,-278.65C720.78,-273.1 738.94,-264.17 751.01,-251 779.17,-220.28 778.08,-204.92 786.01,-164 795.71,-113.89 749.09,-66.94 718.03,-41.88"/>
<polygon fill="black" stroke="black" points="720.16,-39.1 710.12,-35.7 715.85,-44.62 720.16,-39.1"/>
<text text-anchor="middle" x="817.51" y="-152.8" font-family="Times,serif" font-size="14.00">{c1, c2}</text>
</g>
<!-- 0&#45;&gt;2 -->
<g id="edge17" class="edge">
<title>0&#45;&gt;2</title>
<path fill="none" stroke="black" d="M706.55,-279.4C725.03,-273.72 750.42,-264.31 770.01,-251 813.96,-221.14 832.4,-213.39 852.01,-164 877.66,-99.37 779.56,-53.68 725.48,-33.93"/>
<polygon fill="black" stroke="black" points="726.52,-30.58 715.93,-30.54 724.19,-37.18 726.52,-30.58"/>
<text text-anchor="middle" x="872.51" y="-152.8" font-family="Times,serif" font-size="14.00">{c1}</text>
</g>
<!-- 1&#45;&gt;1 -->
<g id="edge19" class="edge">
<title>1&#45;&gt;1</title>
<path fill="none" stroke="black" d="M539.54,-207.75C550.51,-208.49 560.01,-205.91 560.01,-200 560.01,-196.03 555.72,-193.56 549.58,-192.59"/>
<polygon fill="black" stroke="black" points="549.65,-189.09 539.54,-192.25 549.41,-196.09 549.65,-189.09"/>
<text text-anchor="middle" x="569.51" y="-196.3" font-family="Times,serif" font-size="14.00">{}</text>
</g>
<!-- 1&#45;&gt;2 -->
<g id="edge23" class="edge">
<title>1&#45;&gt;2</title>
<path fill="none" stroke="black" d="M515.86,-181.78C517.68,-159.95 523.35,-121.92 541.01,-95 571.68,-48.25 604.22,-65.08 656.01,-44 658.86,-42.84 661.77,-41.48 664.62,-40.02"/>
<polygon fill="black" stroke="black" points="666.39,-43.05 673.46,-35.16 663.01,-36.91 666.39,-43.05"/>
<text text-anchor="middle" x="558.51" y="-109.3" font-family="Times,serif" font-size="14.00">{c2}</text>
</g>
<!-- 1&#45;&gt;2 -->
<g id="edge24" class="edge">
<title>1&#45;&gt;2</title>
<path fill="none" stroke="black" d="M528.11,-184.15C546.4,-163.62 580.83,-125.63 612.01,-95 630.28,-77.05 651.93,-57.67 668.09,-43.55"/>
<polygon fill="black" stroke="black" points="670.75,-45.88 676,-36.68 666.16,-40.6 670.75,-45.88"/>
<text text-anchor="middle" x="642.51" y="-109.3" font-family="Times,serif" font-size="14.00">{c0, c2}</text>
</g>
<!-- 1&#45;&gt;2 -->
<g id="edge25" class="edge">
<title>1&#45;&gt;2</title>
<path fill="none" stroke="black" d="M541.19,-195.47C576.88,-189.19 640.12,-172.57 673.01,-131 691.03,-108.21 694.32,-74.21 694.03,-50.46"/>
<polygon fill="black" stroke="black" points="697.53,-50.23 693.69,-40.35 690.53,-50.46 697.53,-50.23"/>
<text text-anchor="middle" x="706.51" y="-109.3" font-family="Times,serif" font-size="14.00">{c0}</text>
</g>
<!-- 3 -->
<g id="node5" class="node">
<title>3</title>
<ellipse fill="none" stroke="black" cx="258.01" cy="-113" rx="27" ry="18"/>
<text text-anchor="middle" x="258.01" y="-109.3" font-family="Times,serif" font-size="14.00">3</text>
</g>
<!-- 1&#45;&gt;3 -->
<g id="edge18" class="edge">
<title>1&#45;&gt;3</title>
<path fill="none" stroke="black" d="M488.04,-198.01C415.43,-195.08 220.03,-185.26 201.01,-164 188.79,-150.34 206.72,-136.75 225.62,-127.2"/>
<polygon fill="black" stroke="black" points="227.29,-130.28 234.84,-122.85 224.31,-123.94 227.29,-130.28"/>
<text text-anchor="middle" x="218.51" y="-152.8" font-family="Times,serif" font-size="14.00">{c1}</text>
</g>
<!-- 1&#45;&gt;3 -->
<g id="edge20" class="edge">
<title>1&#45;&gt;3</title>
<path fill="none" stroke="black" d="M487.9,-199.52C428.31,-200.02 288.84,-197.5 259.01,-164 253.49,-157.8 251.95,-149.25 252.19,-140.98"/>
<polygon fill="black" stroke="black" points="255.69,-141.16 253.28,-130.85 248.73,-140.41 255.69,-141.16"/>
<text text-anchor="middle" x="289.51" y="-152.8" font-family="Times,serif" font-size="14.00">{c0, c1}</text>
</g>
<!-- 1&#45;&gt;3 -->
<g id="edge21" class="edge">
<title>1&#45;&gt;3</title>
<path fill="none" stroke="black" d="M488.17,-196.69C453.54,-193.01 391.92,-184.07 343.01,-164 331.72,-159.37 330.44,-155.34 320.01,-149 309.39,-142.55 297.54,-135.76 287.08,-129.91"/>
<polygon fill="black" stroke="black" points="288.74,-126.83 278.3,-125.03 285.34,-132.94 288.74,-126.83"/>
<text text-anchor="middle" x="386.01" y="-152.8" font-family="Times,serif" font-size="14.00">{c0, c1, c2}</text>
</g>
<!-- 1&#45;&gt;3 -->
<g id="edge22" class="edge">
<title>1&#45;&gt;3</title>
<path fill="none" stroke="black" d="M494.65,-188.17C482.21,-181.43 466.04,-172.46 452.01,-164 441.56,-157.7 440.29,-153.64 429.01,-149 384.94,-130.89 330.49,-121.82 295.05,-117.52"/>
<polygon fill="black" stroke="black" points="295.02,-114 284.69,-116.34 294.22,-120.95 295.02,-114"/>
<text text-anchor="middle" x="482.51" y="-152.8" font-family="Times,serif" font-size="14.00">{c1, c2}</text>
</g>
<!-- 2&#45;&gt;2 -->
<g id="edge34" class="edge">
<title>2&#45;&gt;2</title>
<path fill="none" stroke="black" d="M719.25,-23.5C729.03,-23.53 737.01,-23.03 737.01,-22 737.01,-21.37 734.05,-20.94 729.52,-20.71"/>
<polygon fill="black" stroke="black" points="729.32,-17.2 719.25,-20.5 729.18,-24.2 729.32,-17.2"/>
<text text-anchor="middle" x="780.01" y="-18.3" font-family="Times,serif" font-size="14.00">{c0, c1, c2}</text>
</g>
<!-- 2&#45;&gt;2 -->
<g id="edge35" class="edge">
<title>2&#45;&gt;2</title>
<path fill="none" stroke="black" d="M718.88,-24.15C758.53,-25.78 823.01,-25.06 823.01,-22 823.01,-19.19 768.67,-18.35 729.09,-19.49"/>
<polygon fill="black" stroke="black" points="728.75,-16 718.88,-19.85 728.99,-23 728.75,-16"/>
<text text-anchor="middle" x="853.51" y="-18.3" font-family="Times,serif" font-size="14.00">{c0, c1}</text>
</g>
<!-- 2&#45;&gt;2 -->
<g id="edge36" class="edge">
<title>2&#45;&gt;2</title>
<path fill="none" stroke="black" d="M718.96,-24.7C774.03,-27.8 884.01,-26.9 884.01,-22 884.01,-17.39 786.54,-16.32 729.17,-18.8"/>
<polygon fill="black" stroke="black" points="728.77,-15.31 718.96,-19.3 729.12,-22.31 728.77,-15.31"/>
<text text-anchor="middle" x="901.51" y="-18.3" font-family="Times,serif" font-size="14.00">{c2}</text>
</g>
<!-- 2&#45;&gt;2 -->
<g id="edge37" class="edge">
<title>2&#45;&gt;2</title>
<path fill="none" stroke="black" d="M718.79,-25.23C782.17,-29.79 919.01,-28.72 919.01,-22 919.01,-15.62 795.72,-14.33 728.99,-18.12"/>
<polygon fill="black" stroke="black" points="728.55,-14.64 718.79,-18.77 729,-21.63 728.55,-14.64"/>
<text text-anchor="middle" x="949.51" y="-18.3" font-family="Times,serif" font-size="14.00">{c1, c2}</text>
</g>
<!-- 2&#45;&gt;2 -->
<g id="edge38" class="edge">
<title>2&#45;&gt;2</title>
<path fill="none" stroke="black" d="M718.61,-25.54C794.44,-31.81 980.01,-30.63 980.01,-22 980.01,-13.74 810.04,-12.3 728.97,-17.69"/>
<polygon fill="black" stroke="black" points="728.32,-14.23 718.61,-18.46 728.84,-21.21 728.32,-14.23"/>
<text text-anchor="middle" x="1010.51" y="-18.3" font-family="Times,serif" font-size="14.00">{c0, c2}</text>
</g>
<!-- 2&#45;&gt;2 -->
<g id="edge39" class="edge">
<title>2&#45;&gt;2</title>
<path fill="none" stroke="black" d="M718.46,-25.8C805.65,-33.83 1041.01,-32.56 1041.01,-22 1041.01,-11.82 822.35,-10.28 728.47,-17.36"/>
<polygon fill="black" stroke="black" points="728.13,-13.88 718.46,-18.2 728.71,-20.85 728.13,-13.88"/>
<text text-anchor="middle" x="1058.51" y="-18.3" font-family="Times,serif" font-size="14.00">{c1}</text>
</g>
<!-- 2&#45;&gt;2 -->
<g id="edge40" class="edge">
<title>2&#45;&gt;2</title>
<path fill="none" stroke="black" d="M718.37,-26.12C812.45,-35.83 1076.01,-34.46 1076.01,-22 1076.01,-9.97 830.15,-8.28 728.59,-16.92"/>
<polygon fill="black" stroke="black" points="728,-13.46 718.37,-17.88 728.65,-20.43 728,-13.46"/>
<text text-anchor="middle" x="1085.51" y="-18.3" font-family="Times,serif" font-size="14.00">{}</text>
</g>
<!-- 2&#45;&gt;2 -->
<g id="edge41" class="edge">
<title>2&#45;&gt;2</title>
<path fill="none" stroke="black" d="M718.29,-26.45C816.93,-37.83 1095.01,-36.34 1095.01,-22 1095.01,-8.12 834.57,-6.28 728.37,-16.49"/>
<polygon fill="black" stroke="black" points="727.87,-13.02 718.29,-17.55 728.61,-19.98 727.87,-13.02"/>
<text text-anchor="middle" x="1112.51" y="-18.3" font-family="Times,serif" font-size="14.00">{c0}</text>
</g>
<!-- 3&#45;&gt;2 -->
<g id="edge31" class="edge">
<title>3&#45;&gt;2</title>
<path fill="none" stroke="black" d="M277.8,-100.54C289.31,-93.8 304.06,-85.05 317.01,-77 327.37,-70.55 328.41,-65.81 340.01,-62 473.65,-18.1 521.31,-84.56 656.01,-44 659.03,-43.09 662.06,-41.88 665.02,-40.5"/>
<polygon fill="black" stroke="black" points="666.91,-43.46 674.09,-35.67 663.62,-37.28 666.91,-43.46"/>
<text text-anchor="middle" x="370.51" y="-65.8" font-family="Times,serif" font-size="14.00">{c0, c1}</text>
</g>
<!-- 3&#45;&gt;2 -->
<g id="edge32" class="edge">
<title>3&#45;&gt;2</title>
<path fill="none" stroke="black" d="M284.17,-108.32C313.51,-103.58 362.08,-93.87 401.01,-77 412.2,-72.15 412.45,-65.93 424.01,-62 521.93,-28.72 557.29,-74.83 656.01,-44 659.02,-43.06 662.05,-41.83 665,-40.44"/>
<polygon fill="black" stroke="black" points="666.9,-43.39 674.07,-35.59 663.6,-37.22 666.9,-43.39"/>
<text text-anchor="middle" x="441.51" y="-65.8" font-family="Times,serif" font-size="14.00">{c1}</text>
</g>
<!-- 3&#45;&gt;2 -->
<g id="edge33" class="edge">
<title>3&#45;&gt;2</title>
<path fill="none" stroke="black" d="M284.95,-110.75C324.41,-108.17 399.68,-100.36 459.01,-77 470.36,-72.53 470.5,-66.08 482.01,-62 555.29,-36.04 582.1,-68.13 656.01,-44 659.01,-43.02 662.03,-41.77 664.98,-40.36"/>
<polygon fill="black" stroke="black" points="666.88,-43.31 674.04,-35.49 663.57,-37.14 666.88,-43.31"/>
<text text-anchor="middle" x="499.51" y="-65.8" font-family="Times,serif" font-size="14.00">{c0}</text>
</g>
<!-- 3&#45;&gt;3 -->
<g id="edge26" class="edge">
<title>3&#45;&gt;3</title>
<path fill="none" stroke="black" d="M282.54,-120.75C293.51,-121.49 303.01,-118.91 303.01,-113 303.01,-109.03 298.72,-106.56 292.58,-105.59"/>
<polygon fill="black" stroke="black" points="292.65,-102.09 282.54,-105.25 292.41,-109.09 292.65,-102.09"/>
<text text-anchor="middle" x="312.51" y="-109.3" font-family="Times,serif" font-size="14.00">{}</text>
</g>
<!-- 4 -->
<g id="node6" class="node">
<title>4</title>
<ellipse fill="none" stroke="black" cx="88.01" cy="-22" rx="18" ry="18"/>
<ellipse fill="none" stroke="black" cx="88.01" cy="-22" rx="22" ry="22"/>
<text text-anchor="middle" x="88.01" y="-18.3" font-family="Times,serif" font-size="14.00">4</text>
</g>
<!-- 3&#45;&gt;4 -->
<g id="edge27" class="edge">
<title>3&#45;&gt;4</title>
<path fill="none" stroke="black" d="M230.72,-112.51C171.48,-112.98 34.06,-110.35 5.01,-77 -13.56,-55.69 25.96,-39.48 56.61,-30.61"/>
<polygon fill="black" stroke="black" points="57.85,-33.9 66.57,-27.88 56,-27.14 57.85,-33.9"/>
<text text-anchor="middle" x="35.51" y="-65.8" font-family="Times,serif" font-size="14.00">{c1, c2}</text>
</g>
<!-- 3&#45;&gt;4 -->
<g id="edge28" class="edge">
<title>3&#45;&gt;4</title>
<path fill="none" stroke="black" d="M231,-110.39C187.95,-107.2 106.8,-98.45 89.01,-77 83.64,-70.54 81.91,-61.98 81.93,-53.6"/>
<polygon fill="black" stroke="black" points="85.42,-53.83 82.68,-43.6 78.44,-53.31 85.42,-53.83"/>
<text text-anchor="middle" x="106.51" y="-65.8" font-family="Times,serif" font-size="14.00">{c2}</text>
</g>
<!-- 3&#45;&gt;4 -->
<g id="edge29" class="edge">
<title>3&#45;&gt;4</title>
<path fill="none" stroke="black" d="M232.02,-107.16C208.65,-102.06 173.96,-92.55 147.01,-77 133.07,-68.96 119.66,-57.13 109.16,-46.6"/>
<polygon fill="black" stroke="black" points="111.52,-44 102.06,-39.23 106.48,-48.86 111.52,-44"/>
<text text-anchor="middle" x="177.51" y="-65.8" font-family="Times,serif" font-size="14.00">{c0, c2}</text>
</g>
<!-- 3&#45;&gt;4 -->
<g id="edge30" class="edge">
<title>3&#45;&gt;4</title>
<path fill="none" stroke="black" d="M245.93,-96.5C236.63,-85.5 222.87,-71.11 208.01,-62 180.43,-45.1 144.74,-34.72 119.48,-28.96"/>
<polygon fill="black" stroke="black" points="120.19,-25.53 109.67,-26.84 118.71,-32.38 120.19,-25.53"/>
<text text-anchor="middle" x="270.01" y="-65.8" font-family="Times,serif" font-size="14.00">{c0, c1, c2}</text>
</g>
<!-- 4&#45;&gt;4 -->
<g id="edge2" class="edge">
<title>4&#45;&gt;4</title>
<path fill="none" stroke="black" d="M110.22,-23.48C119.8,-23.6 128.01,-23.11 128.01,-22 128.01,-21.32 124.96,-20.88 120.41,-20.66"/>
<polygon fill="black" stroke="black" points="120.27,-17.16 110.22,-20.52 120.17,-24.15 120.27,-17.16"/>
<text text-anchor="middle" x="145.51" y="-18.3" font-family="Times,serif" font-size="14.00">{c0}</text>
</g>
<!-- 4&#45;&gt;4 -->
<g id="edge3" class="edge">
<title>4&#45;&gt;4</title>
<path fill="none" stroke="black" d="M110.14,-24.38C133.62,-25.7 163.01,-24.91 163.01,-22 163.01,-19.5 141.3,-18.56 120.3,-19.19"/>
<polygon fill="black" stroke="black" points="119.98,-15.7 110.14,-19.62 120.27,-22.69 119.98,-15.7"/>
<text text-anchor="middle" x="193.51" y="-18.3" font-family="Times,serif" font-size="14.00">{c0, c1}</text>
</g>
<!-- 4&#45;&gt;4 -->
<g id="edge4" class="edge">
<title>4&#45;&gt;4</title>
<path fill="none" stroke="black" d="M109.96,-24.74C150.95,-27.79 224.01,-26.87 224.01,-22 224.01,-17.51 161.92,-16.38 120.11,-18.62"/>
<polygon fill="black" stroke="black" points="119.72,-15.13 109.96,-19.26 120.17,-22.12 119.72,-15.13"/>
<text text-anchor="middle" x="254.51" y="-18.3" font-family="Times,serif" font-size="14.00">{c1, c2}</text>
</g>
<!-- 4&#45;&gt;4 -->
<g id="edge5" class="edge">
<title>4&#45;&gt;4</title>
<path fill="none" stroke="black" d="M109.86,-25.03C164.87,-29.82 285.01,-28.81 285.01,-22 285.01,-15.59 178.54,-14.31 120.16,-18.18"/>
<polygon fill="black" stroke="black" points="119.56,-14.72 109.86,-18.97 120.09,-21.7 119.56,-14.72"/>
<text text-anchor="middle" x="294.51" y="-18.3" font-family="Times,serif" font-size="14.00">{}</text>
</g>
<!-- 4&#45;&gt;4 -->
<g id="edge6" class="edge">
<title>4&#45;&gt;4</title>
<path fill="none" stroke="black" d="M110.02,-25.5C170.25,-31.82 304.01,-30.65 304.01,-22 304.01,-13.8 183.99,-12.33 120.13,-17.56"/>
<polygon fill="black" stroke="black" points="119.65,-14.09 110.02,-18.5 120.3,-21.06 119.65,-14.09"/>
<text text-anchor="middle" x="321.51" y="-18.3" font-family="Times,serif" font-size="14.00">{c2}</text>
</g>
<!-- 4&#45;&gt;4 -->
<g id="edge7" class="edge">
<title>4&#45;&gt;4</title>
<path fill="none" stroke="black" d="M109.86,-25.78C177.88,-33.83 339.01,-32.57 339.01,-22 339.01,-11.93 192.63,-10.31 120.02,-17.15"/>
<polygon fill="black" stroke="black" points="119.44,-13.69 109.86,-18.22 120.18,-20.65 119.44,-13.69"/>
<text text-anchor="middle" x="369.51" y="-18.3" font-family="Times,serif" font-size="14.00">{c0, c2}</text>
</g>
<!-- 4&#45;&gt;4 -->
<g id="edge8" class="edge">
<title>4&#45;&gt;4</title>
<path fill="none" stroke="black" d="M109.92,-25.93C189.37,-35.85 400.01,-34.54 400.01,-22 400.01,-9.96 205.9,-8.28 120.07,-16.93"/>
<polygon fill="black" stroke="black" points="119.46,-13.48 109.92,-18.07 120.24,-20.43 119.46,-13.48"/>
<text text-anchor="middle" x="443.01" y="-18.3" font-family="Times,serif" font-size="14.00">{c0, c1, c2}</text>
</g>
<!-- 4&#45;&gt;4 -->
<g id="edge9" class="edge">
<title>4&#45;&gt;4</title>
<path fill="none" stroke="black" d="M109.72,-25.96C202.76,-37.87 486.01,-36.55 486.01,-22 486.01,-7.95 221.79,-6.24 119.91,-16.86"/>
<polygon fill="black" stroke="black" points="119.25,-13.41 109.72,-18.04 120.06,-20.37 119.25,-13.41"/>
<text text-anchor="middle" x="503.51" y="-18.3" font-family="Times,serif" font-size="14.00">{c1}</text>
</g>
</g>
</svg>
