<?xml version="1.0" encoding="UTF-8" standalone="no"?>
<!DOCTYPE svg PUBLIC "-//W3C//DTD SVG 1.1//EN"
 "http://www.w3.org/Graphics/SVG/1.1/DTD/svg11.dtd">
<!-- Generated by graphviz version 2.40.1 (20161225.0304)
 -->
<!-- Title: %3 Pages: 1 -->
<svg width="1063pt" height="386pt"
 viewBox="0.00 0.00 1063.07 386.00" xmlns="http://www.w3.org/2000/svg" xmlns:xlink="http://www.w3.org/1999/xlink">
<g id="graph0" class="graph" transform="scale(1 1) rotate(0) translate(4 382)">
<title>%3</title>
<polygon fill="#ffffff" stroke="transparent" points="-4,4 -4,-382 1059.068,-382 1059.068,4 -4,4"/>
<!-- fake -->
<g id="node1" class="node">
<title>fake</title>
</g>
<!-- 0 -->
<g id="node2" class="node">
<title>0</title>
<ellipse fill="none" stroke="#000000" cx="564.068" cy="-287" rx="27" ry="18"/>
<text text-anchor="middle" x="564.068" y="-283.3" font-family="Times,serif" font-size="14.00" fill="#000000">0</text>
</g>
<!-- fake&#45;&gt;0 -->
<g id="edge1" class="edge">
<title>fake&#45;&gt;0</title>
<path fill="none" stroke="#000000" stroke-width="2" d="M564.068,-341.9551C564.068,-333.8828 564.068,-324.1764 564.068,-315.1817"/>
<polygon fill="#000000" stroke="#000000" stroke-width="2" points="567.5681,-315.0903 564.068,-305.0904 560.5681,-315.0904 567.5681,-315.0903"/>
</g>
<!-- 0&#45;&gt;0 -->
<g id="edge2" class="edge">
<title>0&#45;&gt;0</title>
<path fill="none" stroke="#000000" d="M591.3087,-288.4985C601.0919,-288.5308 609.068,-288.0313 609.068,-287 609.068,-286.3716 606.1061,-285.9406 601.5785,-285.7071"/>
<polygon fill="#000000" stroke="#000000" points="601.3768,-282.2025 591.3087,-285.5015 601.2366,-289.2011 601.3768,-282.2025"/>
<text text-anchor="middle" x="646.068" y="-283.3" font-family="Times,serif" font-size="14.00" fill="#000000">{workbench}</text>
</g>
<!-- 0&#45;&gt;0 -->
<g id="edge4" class="edge">
<title>0&#45;&gt;0</title>
<path fill="none" stroke="#000000" d="M590.9535,-289.2264C627.3672,-290.7578 683.068,-290.0156 683.068,-287 683.068,-284.2553 636.9264,-283.394 601.1808,-284.4159"/>
<polygon fill="#000000" stroke="#000000" points="600.825,-280.9261 590.9535,-284.7736 601.0698,-287.9219 600.825,-280.9261"/>
<text text-anchor="middle" x="709.068" y="-283.3" font-family="Times,serif" font-size="14.00" fill="#000000">{factory}</text>
</g>
<!-- 0&#45;&gt;0 -->
<g id="edge5" class="edge">
<title>0&#45;&gt;0</title>
<path fill="none" stroke="#000000" d="M590.9664,-289.8075C641.3716,-292.7757 735.068,-291.8398 735.068,-287 735.068,-282.4721 653.0604,-281.3612 601.2155,-283.6672"/>
<polygon fill="#000000" stroke="#000000" points="600.7741,-280.1852 590.9664,-284.1925 601.1324,-287.176 600.7741,-280.1852"/>
<text text-anchor="middle" x="756.068" y="-283.3" font-family="Times,serif" font-size="14.00" fill="#000000">{grass}</text>
</g>
<!-- 0&#45;&gt;0 -->
<g id="edge6" class="edge">
<title>0&#45;&gt;0</title>
<path fill="none" stroke="#000000" d="M590.7363,-290.2915C651.2855,-294.7847 777.068,-293.6875 777.068,-287 777.068,-280.6652 664.2018,-279.3466 600.8316,-283.0443"/>
<polygon fill="#000000" stroke="#000000" points="600.4849,-279.5594 590.7363,-283.7085 600.9445,-286.5443 600.4849,-279.5594"/>
<text text-anchor="middle" x="807.068" y="-283.3" font-family="Times,serif" font-size="14.00" fill="#000000">{toolshed}</text>
</g>
<!-- 0&#45;&gt;0 -->
<g id="edge7" class="edge">
<title>0&#45;&gt;0</title>
<path fill="none" stroke="#000000" d="M590.8967,-290.6255C664.253,-296.8022 837.068,-295.5938 837.068,-287 837.068,-278.7755 678.7852,-277.3152 600.8821,-282.6192"/>
<polygon fill="#000000" stroke="#000000" points="600.6042,-279.1301 590.8967,-283.3745 601.1322,-286.1102 600.6042,-279.1301"/>
<text text-anchor="middle" x="859.068" y="-283.3" font-family="Times,serif" font-size="14.00" fill="#000000">{wood}</text>
</g>
<!-- 0&#45;&gt;0 -->
<g id="edge8" class="edge">
<title>0&#45;&gt;0</title>
<path fill="none" stroke="#000000" d="M590.609,-290.9375C672.818,-298.8125 881.068,-297.5 881.068,-287 881.068,-276.9102 688.7697,-275.3041 600.7999,-282.1817"/>
<polygon fill="#000000" stroke="#000000" points="600.2704,-278.7143 590.609,-283.0625 600.8732,-285.6883 600.2704,-278.7143"/>
<text text-anchor="middle" x="888.068" y="-283.3" font-family="Times,serif" font-size="14.00" fill="#000000">{}</text>
</g>
<!-- 1 -->
<g id="node5" class="node">
<title>1</title>
<ellipse fill="none" stroke="#000000" cx="794.068" cy="-200" rx="27" ry="18"/>
<text text-anchor="middle" x="794.068" y="-196.3" font-family="Times,serif" font-size="14.00" fill="#000000">1</text>
</g>
<!-- 0&#45;&gt;1 -->
<g id="edge3" class="edge">
<title>0&#45;&gt;1</title>
<path fill="none" stroke="#000000" d="M579.3702,-271.9847C593.3887,-258.5727 613.3859,-240.3842 623.068,-236 676.2033,-211.9395 696.9408,-233.8749 753.068,-218 756.2845,-217.0902 759.5773,-215.9783 762.8299,-214.7577"/>
<polygon fill="#000000" stroke="#000000" points="764.42,-217.8888 772.3508,-210.8636 761.7701,-211.4097 764.42,-217.8888"/>
<text text-anchor="middle" x="641.068" y="-239.8" font-family="Times,serif" font-size="14.00" fill="#000000">{iron}</text>
</g>
<!-- 3 -->
<g id="node3" class="node">
<title>3</title>
<ellipse fill="none" stroke="#000000" cx="235.068" cy="-22" rx="18" ry="18"/>
<ellipse fill="none" stroke="#000000" cx="235.068" cy="-22" rx="22" ry="22"/>
<text text-anchor="middle" x="235.068" y="-18.3" font-family="Times,serif" font-size="14.00" fill="#000000">3</text>
</g>
<!-- 3&#45;&gt;0 -->
<g id="edge16" class="edge">
<title>3&#45;&gt;0</title>
<path fill="none" stroke="#000000" d="M212.8594,-25.0895C148.4709,-35.1797 -31.4674,-71.9695 5.068,-164 24.6736,-213.3855 39.1114,-228.1204 87.068,-251 126.3807,-269.7557 421.6117,-281.9479 526.9026,-285.7381"/>
<polygon fill="#000000" stroke="#000000" points="526.9427,-289.2416 537.0607,-286.0988 527.1912,-282.246 526.9427,-289.2416"/>
<text text-anchor="middle" x="42.068" y="-152.8" font-family="Times,serif" font-size="14.00" fill="#000000">{workbench}</text>
</g>
<!-- 3&#45;&gt;0 -->
<g id="edge17" class="edge">
<title>3&#45;&gt;0</title>
<path fill="none" stroke="#000000" d="M213.6845,-27.1865C194.0467,-32.8861 165.1779,-43.7467 146.068,-62 114.7344,-91.9289 112.12,-106.8516 102.068,-149 90.6146,-197.0245 105.16,-223.3581 146.068,-251 177.2259,-272.0537 430.1174,-282.5665 526.7339,-285.8444"/>
<polygon fill="#000000" stroke="#000000" points="526.8102,-289.3488 536.9209,-286.1827 527.0426,-282.3526 526.8102,-289.3488"/>
<text text-anchor="middle" x="120.068" y="-152.8" font-family="Times,serif" font-size="14.00" fill="#000000">{iron}</text>
</g>
<!-- 3&#45;&gt;0 -->
<g id="edge18" class="edge">
<title>3&#45;&gt;0</title>
<path fill="none" stroke="#000000" d="M221.0282,-39.1489C203.0167,-62.3707 172.7121,-105.8875 161.068,-149 147.3542,-199.7755 175.844,-224.1483 221.068,-251 246.927,-266.3537 443.4522,-279.7809 526.8414,-284.849"/>
<polygon fill="#000000" stroke="#000000" points="526.7061,-288.3471 536.898,-285.4529 527.1258,-281.3597 526.7061,-288.3471"/>
<text text-anchor="middle" x="187.068" y="-152.8" font-family="Times,serif" font-size="14.00" fill="#000000">{factory}</text>
</g>
<!-- 3&#45;&gt;0 -->
<g id="edge19" class="edge">
<title>3&#45;&gt;0</title>
<path fill="none" stroke="#000000" d="M231.5505,-43.9437C225.271,-92.0024 218.501,-205.86 286.068,-251 324.672,-276.7905 460.149,-284.1346 526.6605,-286.2027"/>
<polygon fill="#000000" stroke="#000000" points="526.6213,-289.7029 536.7176,-286.4913 526.8222,-282.7058 526.6213,-289.7029"/>
<text text-anchor="middle" x="254.068" y="-152.8" font-family="Times,serif" font-size="14.00" fill="#000000">{grass}</text>
</g>
<!-- 3&#45;&gt;0 -->
<g id="edge20" class="edge">
<title>3&#45;&gt;0</title>
<path fill="none" stroke="#000000" d="M240.2847,-43.5787C253.0015,-90.8998 290.4834,-203.3621 369.068,-251 395.055,-266.7533 477.9397,-277.9 526.8858,-283.3016"/>
<polygon fill="#000000" stroke="#000000" points="526.7591,-286.8081 537.076,-284.3974 527.5076,-279.8482 526.7591,-286.8081"/>
<text text-anchor="middle" x="318.068" y="-152.8" font-family="Times,serif" font-size="14.00" fill="#000000">{toolshed}</text>
</g>
<!-- 3&#45;&gt;0 -->
<g id="edge21" class="edge">
<title>3&#45;&gt;0</title>
<path fill="none" stroke="#000000" d="M250.1444,-38.1921C297.6221,-89.1261 441.645,-243.1768 454.068,-251 476.6279,-265.2069 505.3507,-274.3576 527.7882,-279.877"/>
<polygon fill="#000000" stroke="#000000" points="527.0773,-283.305 537.6103,-282.1625 528.6638,-276.4871 527.0773,-283.305"/>
<text text-anchor="middle" x="390.068" y="-152.8" font-family="Times,serif" font-size="14.00" fill="#000000">{wood}</text>
</g>
<!-- 3&#45;&gt;3 -->
<g id="edge22" class="edge">
<title>3&#45;&gt;3</title>
<path fill="none" stroke="#000000" d="M255.6488,-30.3702C265.9127,-31.5284 275.068,-28.7383 275.068,-22 275.068,-17.6833 271.3106,-14.9869 265.9115,-13.9109"/>
<polygon fill="#000000" stroke="#000000" points="265.7409,-10.405 255.6488,-13.6298 265.5492,-17.4024 265.7409,-10.405"/>
<text text-anchor="middle" x="282.068" y="-18.3" font-family="Times,serif" font-size="14.00" fill="#000000">{}</text>
</g>
<!-- 2 -->
<g id="node4" class="node">
<title>2</title>
<ellipse fill="none" stroke="#000000" cx="611.068" cy="-113" rx="27" ry="18"/>
<text text-anchor="middle" x="611.068" y="-109.3" font-family="Times,serif" font-size="14.00" fill="#000000">2</text>
</g>
<!-- 2&#45;&gt;0 -->
<g id="edge9" class="edge">
<title>2&#45;&gt;0</title>
<path fill="none" stroke="#000000" d="M584.1187,-115.1291C545.2788,-119.8132 474.758,-134.7257 443.068,-182 415.3657,-223.3255 485.4514,-258.1638 530.1951,-275.4044"/>
<polygon fill="#000000" stroke="#000000" points="528.9938,-278.6918 539.5864,-278.9108 531.4424,-272.134 528.9938,-278.6918"/>
<text text-anchor="middle" x="480.068" y="-196.3" font-family="Times,serif" font-size="14.00" fill="#000000">{workbench}</text>
</g>
<!-- 2&#45;&gt;0 -->
<g id="edge10" class="edge">
<title>2&#45;&gt;0</title>
<path fill="none" stroke="#000000" d="M593.884,-127.0965C579.8847,-139.7816 561.1596,-159.7984 553.068,-182 543.8986,-207.1586 548.7772,-237.798 554.6562,-259.4692"/>
<polygon fill="#000000" stroke="#000000" points="551.3773,-260.7242 557.5655,-269.324 558.0909,-258.7422 551.3773,-260.7242"/>
<text text-anchor="middle" x="571.068" y="-196.3" font-family="Times,serif" font-size="14.00" fill="#000000">{iron}</text>
</g>
<!-- 2&#45;&gt;0 -->
<g id="edge12" class="edge">
<title>2&#45;&gt;0</title>
<path fill="none" stroke="#000000" d="M609.1927,-131.0002C606.5423,-152.353 600.6713,-188.7405 589.068,-218 585.6118,-226.7153 581.7899,-227.3949 578.068,-236 574.8746,-243.383 572.2273,-251.6857 570.1263,-259.414"/>
<polygon fill="#000000" stroke="#000000" points="566.731,-258.5646 567.679,-269.1169 573.5184,-260.2766 566.731,-258.5646"/>
<text text-anchor="middle" x="621.068" y="-196.3" font-family="Times,serif" font-size="14.00" fill="#000000">{grass}</text>
</g>
<!-- 2&#45;&gt;0 -->
<g id="edge13" class="edge">
<title>2&#45;&gt;0</title>
<path fill="none" stroke="#000000" d="M624.3931,-128.737C640.9658,-150.3302 664.9105,-189.6856 646.068,-218 634.5899,-235.2479 619.4706,-223.3434 603.068,-236 593.9731,-243.0178 585.8802,-252.651 579.4565,-261.6563"/>
<polygon fill="#000000" stroke="#000000" points="576.5239,-259.745 573.8311,-269.9919 582.3262,-263.6608 576.5239,-259.745"/>
<text text-anchor="middle" x="682.068" y="-196.3" font-family="Times,serif" font-size="14.00" fill="#000000">{toolshed}</text>
</g>
<!-- 2&#45;&gt;0 -->
<g id="edge14" class="edge">
<title>2&#45;&gt;0</title>
<path fill="none" stroke="#000000" d="M638.1168,-113.6718C740.9618,-117.085 1096.7027,-137.1947 992.068,-251 965.8639,-279.5007 700.4912,-285.4516 601.2519,-286.6826"/>
<polygon fill="#000000" stroke="#000000" points="601.0443,-283.1847 591.0852,-286.7993 601.1247,-290.1842 601.0443,-283.1847"/>
<text text-anchor="middle" x="1033.068" y="-196.3" font-family="Times,serif" font-size="14.00" fill="#000000">{wood}</text>
</g>
<!-- 2&#45;&gt;3 -->
<g id="edge11" class="edge">
<title>2&#45;&gt;3</title>
<path fill="none" stroke="#000000" d="M585.5196,-106.8167C518.88,-90.6886 339.886,-47.3682 266.8046,-29.6809"/>
<polygon fill="#000000" stroke="#000000" points="267.3593,-26.2142 256.8166,-27.2636 265.7127,-33.0178 267.3593,-26.2142"/>
<text text-anchor="middle" x="482.068" y="-65.8" font-family="Times,serif" font-size="14.00" fill="#000000">{factory}</text>
</g>
<!-- 2&#45;&gt;2 -->
<g id="edge15" class="edge">
<title>2&#45;&gt;2</title>
<path fill="none" stroke="#000000" d="M635.6004,-120.752C646.5758,-121.4902 656.068,-118.9063 656.068,-113 656.068,-109.0317 651.783,-106.5632 645.6423,-105.5944"/>
<polygon fill="#000000" stroke="#000000" points="645.7152,-102.0949 635.6004,-105.248 645.4738,-109.0908 645.7152,-102.0949"/>
<text text-anchor="middle" x="663.068" y="-109.3" font-family="Times,serif" font-size="14.00" fill="#000000">{}</text>
</g>
<!-- 1&#45;&gt;0 -->
<g id="edge23" class="edge">
<title>1&#45;&gt;0</title>
<path fill="none" stroke="#000000" d="M771.7772,-210.584C765.7807,-213.2104 759.2435,-215.8779 753.068,-218 722.2811,-228.5793 711.8835,-222.9314 682.068,-236 670.8905,-240.8993 669.9483,-245.4723 659.068,-251 639.6973,-260.8412 616.9713,-269.5472 598.6045,-275.9317"/>
<polygon fill="#000000" stroke="#000000" points="597.239,-272.6991 588.8982,-279.2323 599.4927,-279.3265 597.239,-272.6991"/>
<text text-anchor="middle" x="719.068" y="-239.8" font-family="Times,serif" font-size="14.00" fill="#000000">{workbench}</text>
</g>
<!-- 1&#45;&gt;0 -->
<g id="edge24" class="edge">
<title>1&#45;&gt;0</title>
<path fill="none" stroke="#000000" d="M785.5296,-217.3761C779.0275,-228.7434 768.9951,-242.9332 756.068,-251 730.7372,-266.8069 649.4195,-277.9005 601.1155,-283.2866"/>
<polygon fill="#000000" stroke="#000000" points="600.6146,-279.8203 591.051,-284.3796 601.3705,-286.7794 600.6146,-279.8203"/>
<text text-anchor="middle" x="790.068" y="-239.8" font-family="Times,serif" font-size="14.00" fill="#000000">{iron}</text>
</g>
<!-- 1&#45;&gt;0 -->
<g id="edge25" class="edge">
<title>1&#45;&gt;0</title>
<path fill="none" stroke="#000000" d="M807.1043,-215.8017C814.4798,-226.7389 820.6695,-241.0597 812.068,-251 798.4832,-266.6992 667.2874,-279.0009 601.4147,-284.2439"/>
<polygon fill="#000000" stroke="#000000" points="600.7492,-280.7851 591.0522,-285.0533 601.2944,-287.7639 600.7492,-280.7851"/>
<text text-anchor="middle" x="842.068" y="-239.8" font-family="Times,serif" font-size="14.00" fill="#000000">{factory}</text>
</g>
<!-- 1&#45;&gt;0 -->
<g id="edge26" class="edge">
<title>1&#45;&gt;0</title>
<path fill="none" stroke="#000000" d="M819.7262,-206.1548C848.9983,-214.3352 890.5683,-230.2114 872.068,-251 854.3359,-270.9254 679.4778,-281.5752 601.394,-285.3695"/>
<polygon fill="#000000" stroke="#000000" points="600.8679,-281.8904 591.0447,-285.8596 601.1991,-288.8825 600.8679,-281.8904"/>
<text text-anchor="middle" x="897.068" y="-239.8" font-family="Times,serif" font-size="14.00" fill="#000000">{grass}</text>
</g>
<!-- 1&#45;&gt;0 -->
<g id="edge27" class="edge">
<title>1&#45;&gt;0</title>
<path fill="none" stroke="#000000" d="M821.2839,-201.7002C867.2806,-205.5265 952.556,-217.2924 922.068,-251 900.8279,-274.4831 688.6597,-283.3507 601.3261,-286.0235"/>
<polygon fill="#000000" stroke="#000000" points="601.2079,-282.5253 591.3157,-286.3193 601.4147,-289.5223 601.2079,-282.5253"/>
<text text-anchor="middle" x="958.068" y="-239.8" font-family="Times,serif" font-size="14.00" fill="#000000">{toolshed}</text>
</g>
<!-- 1&#45;&gt;2 -->
<g id="edge28" class="edge">
<title>1&#45;&gt;2</title>
<path fill="none" stroke="#000000" d="M773.8926,-187.6306C755.7278,-176.7525 728.1153,-160.8502 703.068,-149 684.2755,-140.1091 662.6539,-131.5669 645.0952,-125.0364"/>
<polygon fill="#000000" stroke="#000000" points="645.8721,-121.5935 635.2784,-121.4364 643.462,-128.1655 645.8721,-121.5935"/>
<text text-anchor="middle" x="753.068" y="-152.8" font-family="Times,serif" font-size="14.00" fill="#000000">{wood}</text>
</g>
<!-- 1&#45;&gt;1 -->
<g id="edge29" class="edge">
<title>1&#45;&gt;1</title>
<path fill="none" stroke="#000000" d="M818.6004,-207.752C829.5758,-208.4902 839.068,-205.9063 839.068,-200 839.068,-196.0317 834.783,-193.5632 828.6423,-192.5944"/>
<polygon fill="#000000" stroke="#000000" points="828.7152,-189.0949 818.6004,-192.248 828.4738,-196.0908 828.7152,-189.0949"/>
<text text-anchor="middle" x="846.068" y="-196.3" font-family="Times,serif" font-size="14.00" fill="#000000">{}</text>
</g>
</g>
</svg>
