<?xml version="1.0" encoding="UTF-8" standalone="no"?>
<!DOCTYPE svg PUBLIC "-//W3C//DTD SVG 1.1//EN"
 "http://www.w3.org/Graphics/SVG/1.1/DTD/svg11.dtd">
<!-- Generated by graphviz version 2.40.1 (20161225.0304)
 -->
<!-- Title: %3 Pages: 1 -->
<svg width="1502pt" height="386pt"
 viewBox="0.00 0.00 1502.33 386.00" xmlns="http://www.w3.org/2000/svg" xmlns:xlink="http://www.w3.org/1999/xlink">
<g id="graph0" class="graph" transform="scale(1 1) rotate(0) translate(4 382)">
<title>%3</title>
<polygon fill="#ffffff" stroke="transparent" points="-4,4 -4,-382 1498.3296,-382 1498.3296,4 -4,4"/>
<!-- fake -->
<g id="node1" class="node">
<title>fake</title>
</g>
<!-- 0 -->
<g id="node2" class="node">
<title>0</title>
<ellipse fill="none" stroke="#000000" cx="872.3296" cy="-287" rx="27" ry="18"/>
<text text-anchor="middle" x="872.3296" y="-283.3" font-family="Times,serif" font-size="14.00" fill="#000000">0</text>
</g>
<!-- fake&#45;&gt;0 -->
<g id="edge1" class="edge">
<title>fake&#45;&gt;0</title>
<path fill="none" stroke="#000000" stroke-width="2" d="M872.3296,-341.9551C872.3296,-333.8828 872.3296,-324.1764 872.3296,-315.1817"/>
<polygon fill="#000000" stroke="#000000" stroke-width="2" points="875.8297,-315.0903 872.3296,-305.0904 868.8297,-315.0904 875.8297,-315.0903"/>
</g>
<!-- 0&#45;&gt;0 -->
<g id="edge19" class="edge">
<title>0&#45;&gt;0</title>
<path fill="none" stroke="#000000" d="M897.7731,-293.6907C908.3574,-294.1521 917.3296,-291.9219 917.3296,-287 917.3296,-283.77 913.4656,-281.6992 907.8177,-280.7876"/>
<polygon fill="#000000" stroke="#000000" points="907.9283,-277.289 897.7731,-280.3093 907.5952,-284.2811 907.9283,-277.289"/>
<text text-anchor="middle" x="924.3296" y="-283.3" font-family="Times,serif" font-size="14.00" fill="#000000">{}</text>
</g>
<!-- 1 -->
<g id="node3" class="node">
<title>1</title>
<ellipse fill="none" stroke="#000000" cx="625.3296" cy="-200" rx="27" ry="18"/>
<text text-anchor="middle" x="625.3296" y="-196.3" font-family="Times,serif" font-size="14.00" fill="#000000">1</text>
</g>
<!-- 0&#45;&gt;1 -->
<g id="edge18" class="edge">
<title>0&#45;&gt;1</title>
<path fill="none" stroke="#000000" d="M845.2022,-286.1871C768.0023,-283.5964 551.3011,-274.2949 530.3296,-251 509.8677,-228.2712 554.2129,-213.7816 588.982,-206.2719"/>
<polygon fill="#000000" stroke="#000000" points="589.8244,-209.6723 598.927,-204.2508 588.4302,-202.8125 589.8244,-209.6723"/>
<text text-anchor="middle" x="566.8296" y="-239.8" font-family="Times,serif" font-size="14.00" fill="#000000">{iron, wood}</text>
</g>
<!-- 0&#45;&gt;1 -->
<g id="edge20" class="edge">
<title>0&#45;&gt;1</title>
<path fill="none" stroke="#000000" d="M845.1303,-284.9819C784.1444,-280.1839 640.6728,-267.2698 626.3296,-251 620.8942,-244.8345 619.2685,-236.436 619.4046,-228.2341"/>
<polygon fill="#000000" stroke="#000000" points="622.9027,-228.4195 620.3651,-218.1331 615.9341,-227.7569 622.9027,-228.4195"/>
<text text-anchor="middle" x="667.3296" y="-239.8" font-family="Times,serif" font-size="14.00" fill="#000000">{factory, iron}</text>
</g>
<!-- 0&#45;&gt;1 -->
<g id="edge21" class="edge">
<title>0&#45;&gt;1</title>
<path fill="none" stroke="#000000" d="M846.0142,-282.9433C817.0373,-277.8755 769.4952,-267.7671 731.3296,-251 720.1563,-246.0913 719.077,-241.782 708.3296,-236 692.4443,-227.4539 674.1078,-219.3305 658.7164,-212.9705"/>
<polygon fill="#000000" stroke="#000000" points="659.6647,-209.5781 649.0826,-209.059 657.0313,-216.0639 659.6647,-209.5781"/>
<text text-anchor="middle" x="790.8296" y="-239.8" font-family="Times,serif" font-size="14.00" fill="#000000">{factory, iron, wood}</text>
</g>
<!-- 0&#45;&gt;1 -->
<g id="edge22" class="edge">
<title>0&#45;&gt;1</title>
<path fill="none" stroke="#000000" d="M869.1176,-268.9465C866.1609,-257.7383 860.6048,-243.9927 850.3296,-236 821.7286,-213.7523 718.8428,-204.9105 662.6346,-201.6808"/>
<polygon fill="#000000" stroke="#000000" points="662.556,-198.1714 652.3809,-201.1241 662.1765,-205.1611 662.556,-198.1714"/>
<text text-anchor="middle" x="879.3296" y="-239.8" font-family="Times,serif" font-size="14.00" fill="#000000">{iron}</text>
</g>
<!-- 2 -->
<g id="node4" class="node">
<title>2</title>
<ellipse fill="none" stroke="#000000" cx="813.3296" cy="-22" rx="27" ry="18"/>
<text text-anchor="middle" x="813.3296" y="-18.3" font-family="Times,serif" font-size="14.00" fill="#000000">2</text>
</g>
<!-- 0&#45;&gt;2 -->
<g id="edge23" class="edge">
<title>0&#45;&gt;2</title>
<path fill="none" stroke="#000000" d="M888.2309,-271.9722C893.45,-266.0033 898.6069,-258.7201 901.3296,-251 907.829,-232.5714 950.667,-213.6039 894.3296,-95 883.1806,-71.5286 860.7008,-52.2404 842.2461,-39.3972"/>
<polygon fill="#000000" stroke="#000000" points="844.1027,-36.4284 833.8419,-33.7891 840.2173,-42.2511 844.1027,-36.4284"/>
<text text-anchor="middle" x="944.3296" y="-152.8" font-family="Times,serif" font-size="14.00" fill="#000000">{factory}</text>
</g>
<!-- 0&#45;&gt;2 -->
<g id="edge24" class="edge">
<title>0&#45;&gt;2</title>
<path fill="none" stroke="#000000" d="M892.8399,-275.0321C928.3742,-252.6112 995.6437,-201.7609 974.3296,-149 951.2929,-91.9748 886.0296,-54.0791 846.0218,-35.4636"/>
<polygon fill="#000000" stroke="#000000" points="847.2335,-32.1706 836.6785,-31.2522 844.357,-38.5523 847.2335,-32.1706"/>
<text text-anchor="middle" x="1022.3296" y="-152.8" font-family="Times,serif" font-size="14.00" fill="#000000">{factory, wood}</text>
</g>
<!-- 0&#45;&gt;2 -->
<g id="edge25" class="edge">
<title>0&#45;&gt;2</title>
<path fill="none" stroke="#000000" d="M898.4989,-281.5153C961.737,-266.9626 1114.5627,-223.3174 1071.3296,-149 1024.5575,-68.5992 909.2098,-37.9591 849.8773,-27.2356"/>
<polygon fill="#000000" stroke="#000000" points="850.2703,-23.752 839.8228,-25.5129 849.0881,-30.6514 850.2703,-23.752"/>
<text text-anchor="middle" x="1099.3296" y="-152.8" font-family="Times,serif" font-size="14.00" fill="#000000">{wood}</text>
</g>
<!-- 1&#45;&gt;1 -->
<g id="edge34" class="edge">
<title>1&#45;&gt;1</title>
<path fill="none" stroke="#000000" d="M649.8621,-207.752C660.8374,-208.4902 670.3296,-205.9063 670.3296,-200 670.3296,-196.0317 666.0447,-193.5632 659.9039,-192.5944"/>
<polygon fill="#000000" stroke="#000000" points="659.9768,-189.0949 649.8621,-192.248 659.7354,-196.0908 659.9768,-189.0949"/>
<text text-anchor="middle" x="677.3296" y="-196.3" font-family="Times,serif" font-size="14.00" fill="#000000">{}</text>
</g>
<!-- 1&#45;&gt;2 -->
<g id="edge39" class="edge">
<title>1&#45;&gt;2</title>
<path fill="none" stroke="#000000" d="M632.1386,-182.5451C643.6328,-153.1405 665.793,-96.7371 667.3296,-95 703.0335,-54.6375 728.7375,-67.2962 777.3296,-44 779.9302,-42.7532 782.5825,-41.3695 785.2091,-39.9204"/>
<polygon fill="#000000" stroke="#000000" points="787.0451,-42.9015 793.9274,-34.8463 783.524,-36.8516 787.0451,-42.9015"/>
<text text-anchor="middle" x="693.3296" y="-109.3" font-family="Times,serif" font-size="14.00" fill="#000000">{factory}</text>
</g>
<!-- 1&#45;&gt;2 -->
<g id="edge40" class="edge">
<title>1&#45;&gt;2</title>
<path fill="none" stroke="#000000" d="M645.0379,-187.4442C664.7729,-174.4442 695.5456,-152.9881 719.3296,-131 748.1278,-104.3763 776.9464,-69.4278 794.9361,-46.3691"/>
<polygon fill="#000000" stroke="#000000" points="797.9365,-48.2101 801.278,-38.156 792.396,-43.9319 797.9365,-48.2101"/>
<text text-anchor="middle" x="770.3296" y="-109.3" font-family="Times,serif" font-size="14.00" fill="#000000">{iron}</text>
</g>
<!-- 1&#45;&gt;2 -->
<g id="edge41" class="edge">
<title>1&#45;&gt;2</title>
<path fill="none" stroke="#000000" d="M652.0326,-196.6903C689.2049,-190.6036 755.9538,-174.0364 791.3296,-131 809.9333,-108.3676 814.2115,-74.264 814.6109,-50.2429"/>
<polygon fill="#000000" stroke="#000000" points="818.1097,-49.9752 814.5591,-39.9931 811.1098,-50.0107 818.1097,-49.9752"/>
<text text-anchor="middle" x="849.3296" y="-109.3" font-family="Times,serif" font-size="14.00" fill="#000000">{factory, iron}</text>
</g>
<!-- 3 -->
<g id="node5" class="node">
<title>3</title>
<ellipse fill="none" stroke="#000000" cx="339.3296" cy="-113" rx="27" ry="18"/>
<text text-anchor="middle" x="339.3296" y="-109.3" font-family="Times,serif" font-size="14.00" fill="#000000">3</text>
</g>
<!-- 1&#45;&gt;3 -->
<g id="edge35" class="edge">
<title>1&#45;&gt;3</title>
<path fill="none" stroke="#000000" d="M598.1235,-199.4962C514.9231,-197.677 268.0851,-190.1059 244.3296,-164 223.7467,-141.3806 268.1254,-126.8608 302.9345,-119.3149"/>
<polygon fill="#000000" stroke="#000000" points="303.7931,-122.7119 312.8914,-117.283 302.3935,-115.8532 303.7931,-122.7119"/>
<text text-anchor="middle" x="280.8296" y="-152.8" font-family="Times,serif" font-size="14.00" fill="#000000">{iron, wood}</text>
</g>
<!-- 1&#45;&gt;3 -->
<g id="edge36" class="edge">
<title>1&#45;&gt;3</title>
<path fill="none" stroke="#000000" d="M597.9378,-198.5459C529.8954,-194.6576 357.4197,-183.0058 340.3296,-164 334.6886,-157.7266 333.1075,-149.0597 333.3458,-140.6495"/>
<polygon fill="#000000" stroke="#000000" points="336.8275,-141.0064 334.3883,-130.6962 329.8656,-140.2772 336.8275,-141.0064"/>
<text text-anchor="middle" x="362.3296" y="-152.8" font-family="Times,serif" font-size="14.00" fill="#000000">{wood}</text>
</g>
<!-- 1&#45;&gt;3 -->
<g id="edge37" class="edge">
<title>1&#45;&gt;3</title>
<path fill="none" stroke="#000000" d="M598.4053,-197.1736C547.9909,-191.6165 441.3729,-178.5372 407.3296,-164 402.5186,-161.9456 382.1749,-146.5203 364.9814,-133.1665"/>
<polygon fill="#000000" stroke="#000000" points="366.9138,-130.235 356.8759,-126.8451 362.6089,-135.7549 366.9138,-130.235"/>
<text text-anchor="middle" x="452.3296" y="-152.8" font-family="Times,serif" font-size="14.00" fill="#000000">{factory, wood}</text>
</g>
<!-- 1&#45;&gt;3 -->
<g id="edge38" class="edge">
<title>1&#45;&gt;3</title>
<path fill="none" stroke="#000000" d="M600.0252,-193.2413C578.3119,-186.9957 546.4796,-176.7644 520.3296,-164 509.3624,-158.6467 508.5657,-153.7633 497.3296,-149 457.5961,-132.1558 408.7494,-122.5721 375.9775,-117.5958"/>
<polygon fill="#000000" stroke="#000000" points="376.333,-114.1108 365.9341,-116.1386 375.3279,-121.0382 376.333,-114.1108"/>
<text text-anchor="middle" x="579.8296" y="-152.8" font-family="Times,serif" font-size="14.00" fill="#000000">{factory, iron, wood}</text>
</g>
<!-- 2&#45;&gt;2 -->
<g id="edge26" class="edge">
<title>2&#45;&gt;2</title>
<path fill="none" stroke="#000000" d="M840.5704,-23.4985C850.3535,-23.5308 858.3296,-23.0312 858.3296,-22 858.3296,-21.3716 855.3678,-20.9406 850.8401,-20.7071"/>
<polygon fill="#000000" stroke="#000000" points="850.6385,-17.2025 840.5704,-20.5015 850.4983,-24.2011 850.6385,-17.2025"/>
<text text-anchor="middle" x="884.3296" y="-18.3" font-family="Times,serif" font-size="14.00" fill="#000000">{factory}</text>
</g>
<!-- 2&#45;&gt;2 -->
<g id="edge27" class="edge">
<title>2&#45;&gt;2</title>
<path fill="none" stroke="#000000" d="M840.2147,-24.384C870.2097,-25.7009 910.3296,-24.9062 910.3296,-22 910.3296,-19.4116 878.506,-18.4982 850.3544,-19.2596"/>
<polygon fill="#000000" stroke="#000000" points="850.0855,-15.7668 840.2147,-19.616 850.3315,-22.7625 850.0855,-15.7668"/>
<text text-anchor="middle" x="969.8296" y="-18.3" font-family="Times,serif" font-size="14.00" fill="#000000">{factory, iron, wood}</text>
</g>
<!-- 2&#45;&gt;2 -->
<g id="edge28" class="edge">
<title>2&#45;&gt;2</title>
<path fill="none" stroke="#000000" d="M840.2511,-24.585C900.3258,-27.8187 1029.3296,-26.957 1029.3296,-22 1029.3296,-17.3044 913.5729,-16.2836 850.3012,-18.9376"/>
<polygon fill="#000000" stroke="#000000" points="850.0738,-15.4443 840.2511,-19.415 850.406,-22.4364 850.0738,-15.4443"/>
<text text-anchor="middle" x="1074.3296" y="-18.3" font-family="Times,serif" font-size="14.00" fill="#000000">{factory, wood}</text>
</g>
<!-- 2&#45;&gt;2 -->
<g id="edge29" class="edge">
<title>2&#45;&gt;2</title>
<path fill="none" stroke="#000000" d="M840.0631,-24.9004C917.7122,-29.8418 1119.3296,-28.875 1119.3296,-22 1119.3296,-15.407 933.9119,-14.2474 850.2208,-18.5214"/>
<polygon fill="#000000" stroke="#000000" points="849.848,-15.0369 840.0631,-19.0996 850.2459,-22.0255 849.848,-15.0369"/>
<text text-anchor="middle" x="1141.3296" y="-18.3" font-family="Times,serif" font-size="14.00" fill="#000000">{wood}</text>
</g>
<!-- 2&#45;&gt;2 -->
<g id="edge30" class="edge">
<title>2&#45;&gt;2</title>
<path fill="none" stroke="#000000" d="M840.1418,-25.3251C926.282,-31.8388 1163.3296,-30.7305 1163.3296,-22 1163.3296,-13.5935 943.549,-12.2539 850.3352,-17.9812"/>
<polygon fill="#000000" stroke="#000000" points="849.881,-14.504 840.1418,-18.6749 850.3564,-21.4878 849.881,-14.504"/>
<text text-anchor="middle" x="1181.3296" y="-18.3" font-family="Times,serif" font-size="14.00" fill="#000000">{iron}</text>
</g>
<!-- 2&#45;&gt;2 -->
<g id="edge31" class="edge">
<title>2&#45;&gt;2</title>
<path fill="none" stroke="#000000" d="M840.0108,-25.6974C932.9803,-33.8379 1199.3296,-32.6055 1199.3296,-22 1199.3296,-11.757 950.8766,-10.2573 850.1339,-17.5007"/>
<polygon fill="#000000" stroke="#000000" points="849.7031,-14.0238 840.0108,-18.3026 850.2559,-21.0019 849.7031,-14.0238"/>
<text text-anchor="middle" x="1240.3296" y="-18.3" font-family="Times,serif" font-size="14.00" fill="#000000">{factory, iron}</text>
</g>
<!-- 2&#45;&gt;2 -->
<g id="edge32" class="edge">
<title>2&#45;&gt;2</title>
<path fill="none" stroke="#000000" d="M839.7186,-25.865C945.4627,-35.8528 1281.3296,-34.5645 1281.3296,-22 1281.3296,-9.8159 965.4906,-8.2355 849.9393,-17.2589"/>
<polygon fill="#000000" stroke="#000000" points="849.3831,-13.7936 839.7186,-18.135 849.981,-20.768 849.3831,-13.7936"/>
<text text-anchor="middle" x="1317.8296" y="-18.3" font-family="Times,serif" font-size="14.00" fill="#000000">{iron, wood}</text>
</g>
<!-- 2&#45;&gt;2 -->
<g id="edge33" class="edge">
<title>2&#45;&gt;2</title>
<path fill="none" stroke="#000000" d="M839.869,-26.0781C956.8257,-37.8594 1354.3296,-36.5 1354.3296,-22 1354.3296,-7.8965 978.267,-6.2248 850.0785,-16.9849"/>
<polygon fill="#000000" stroke="#000000" points="849.5073,-13.5225 839.869,-17.9219 850.147,-20.4933 849.5073,-13.5225"/>
<text text-anchor="middle" x="1361.3296" y="-18.3" font-family="Times,serif" font-size="14.00" fill="#000000">{}</text>
</g>
<!-- 3&#45;&gt;2 -->
<g id="edge15" class="edge">
<title>3&#45;&gt;2</title>
<path fill="none" stroke="#000000" d="M362.2884,-103.4538C378.0596,-96.6435 399.3184,-86.9605 417.3296,-77 428.0093,-71.0939 428.7284,-65.7883 440.3296,-62 582.9114,-15.4401 634.0799,-88.4624 777.3296,-44 780.3114,-43.0745 783.2983,-41.8473 786.2059,-40.4445"/>
<polygon fill="#000000" stroke="#000000" points="788.0596,-43.419 795.1202,-35.5198 784.6746,-37.2919 788.0596,-43.419"/>
<text text-anchor="middle" x="462.3296" y="-65.8" font-family="Times,serif" font-size="14.00" fill="#000000">{wood}</text>
</g>
<!-- 3&#45;&gt;2 -->
<g id="edge16" class="edge">
<title>3&#45;&gt;2</title>
<path fill="none" stroke="#000000" d="M365.8551,-109.1531C395.6036,-104.2221 444.852,-94.1877 484.3296,-77 495.5191,-72.1283 495.7537,-65.8649 507.3296,-62 621.4058,-23.9132 662.7067,-80.4086 777.3296,-44 780.3052,-43.0548 783.288,-41.8145 786.193,-40.4035"/>
<polygon fill="#000000" stroke="#000000" points="788.0523,-43.3747 795.1038,-35.4673 784.6602,-37.2515 788.0523,-43.3747"/>
<text text-anchor="middle" x="525.3296" y="-65.8" font-family="Times,serif" font-size="14.00" fill="#000000">{iron}</text>
</g>
<!-- 3&#45;&gt;2 -->
<g id="edge17" class="edge">
<title>3&#45;&gt;2</title>
<path fill="none" stroke="#000000" d="M366.3411,-111.6777C406.3033,-108.9671 482.9565,-100.8543 543.3296,-77 554.6798,-72.5154 554.79,-65.972 566.3296,-62 655.3237,-31.3679 687.8956,-73.3228 777.3296,-44 780.2963,-43.0273 783.2732,-41.7686 786.1745,-40.3461"/>
<polygon fill="#000000" stroke="#000000" points="788.0414,-43.3127 795.0801,-35.3939 784.6394,-37.195 788.0414,-43.3127"/>
<text text-anchor="middle" x="602.8296" y="-65.8" font-family="Times,serif" font-size="14.00" fill="#000000">{iron, wood}</text>
</g>
<!-- 3&#45;&gt;3 -->
<g id="edge11" class="edge">
<title>3&#45;&gt;3</title>
<path fill="none" stroke="#000000" d="M363.8621,-120.752C374.8374,-121.4902 384.3296,-118.9063 384.3296,-113 384.3296,-109.0317 380.0447,-106.5632 373.9039,-105.5944"/>
<polygon fill="#000000" stroke="#000000" points="373.9768,-102.0949 363.8621,-105.248 373.7354,-109.0908 373.9768,-102.0949"/>
<text text-anchor="middle" x="391.3296" y="-109.3" font-family="Times,serif" font-size="14.00" fill="#000000">{}</text>
</g>
<!-- 4 -->
<g id="node6" class="node">
<title>4</title>
<ellipse fill="none" stroke="#000000" cx="92.3296" cy="-22" rx="18" ry="18"/>
<ellipse fill="none" stroke="#000000" cx="92.3296" cy="-22" rx="22" ry="22"/>
<text text-anchor="middle" x="92.3296" y="-18.3" font-family="Times,serif" font-size="14.00" fill="#000000">4</text>
</g>
<!-- 3&#45;&gt;4 -->
<g id="edge10" class="edge">
<title>3&#45;&gt;4</title>
<path fill="none" stroke="#000000" d="M312.2937,-112.1178C236.4277,-109.366 25.7388,-99.7273 5.3296,-77 -14.5472,-54.8656 28.2225,-38.2597 60.5643,-29.3527"/>
<polygon fill="#000000" stroke="#000000" points="61.8126,-32.6443 70.6058,-26.7341 60.0462,-25.8708 61.8126,-32.6443"/>
<text text-anchor="middle" x="50.3296" y="-65.8" font-family="Times,serif" font-size="14.00" fill="#000000">{factory, wood}</text>
</g>
<!-- 3&#45;&gt;4 -->
<g id="edge12" class="edge">
<title>3&#45;&gt;4</title>
<path fill="none" stroke="#000000" d="M312.0211,-111.6789C259.8369,-108.6597 148.454,-99.68 118.3296,-77 110.4601,-71.0752 104.8736,-62.1674 100.9513,-53.2365"/>
<polygon fill="#000000" stroke="#000000" points="104.1426,-51.7813 97.3189,-43.6765 97.599,-54.2676 104.1426,-51.7813"/>
<text text-anchor="middle" x="159.3296" y="-65.8" font-family="Times,serif" font-size="14.00" fill="#000000">{factory, iron}</text>
</g>
<!-- 3&#45;&gt;4 -->
<g id="edge13" class="edge">
<title>3&#45;&gt;4</title>
<path fill="none" stroke="#000000" d="M313.6849,-107.2178C289.6625,-101.3007 253.0995,-90.9937 223.3296,-77 212.2849,-71.8083 211.2307,-67.4868 200.3296,-62 175.3521,-49.4282 145.4334,-38.6547 123.4265,-31.4666"/>
<polygon fill="#000000" stroke="#000000" points="124.2081,-28.0419 113.6171,-28.3283 122.075,-34.7091 124.2081,-28.0419"/>
<text text-anchor="middle" x="249.3296" y="-65.8" font-family="Times,serif" font-size="14.00" fill="#000000">{factory}</text>
</g>
<!-- 3&#45;&gt;4 -->
<g id="edge14" class="edge">
<title>3&#45;&gt;4</title>
<path fill="none" stroke="#000000" d="M322.8296,-98.4204C307.4686,-85.1183 285.4652,-66.8214 275.3296,-62 226.0145,-38.5412 162.656,-28.6471 124.8968,-24.6159"/>
<polygon fill="#000000" stroke="#000000" points="124.7977,-21.089 114.5013,-23.5861 124.1075,-28.0549 124.7977,-21.089"/>
<text text-anchor="middle" x="356.8296" y="-65.8" font-family="Times,serif" font-size="14.00" fill="#000000">{factory, iron, wood}</text>
</g>
<!-- 4&#45;&gt;4 -->
<g id="edge2" class="edge">
<title>4&#45;&gt;4</title>
<path fill="none" stroke="#000000" d="M114.5419,-23.4821C124.1248,-23.6034 132.3296,-23.1094 132.3296,-22 132.3296,-21.324 129.2829,-20.8765 124.7341,-20.6574"/>
<polygon fill="#000000" stroke="#000000" points="124.5889,-17.1552 114.5419,-20.5179 124.4931,-24.1546 124.5889,-17.1552"/>
<text text-anchor="middle" x="191.8296" y="-18.3" font-family="Times,serif" font-size="14.00" fill="#000000">{factory, iron, wood}</text>
</g>
<!-- 4&#45;&gt;4 -->
<g id="edge3" class="edge">
<title>4&#45;&gt;4</title>
<path fill="none" stroke="#000000" d="M114.5071,-23.8427C159.5705,-25.8564 251.3296,-25.2422 251.3296,-22 251.3296,-18.9858 172.0205,-18.2429 124.6571,-19.7715"/>
<polygon fill="#000000" stroke="#000000" points="124.3669,-16.2799 114.5071,-20.1573 124.6328,-23.2748 124.3669,-16.2799"/>
<text text-anchor="middle" x="273.3296" y="-18.3" font-family="Times,serif" font-size="14.00" fill="#000000">{wood}</text>
</g>
<!-- 4&#45;&gt;4 -->
<g id="edge4" class="edge">
<title>4&#45;&gt;4</title>
<path fill="none" stroke="#000000" d="M114.4843,-24.3971C169.4311,-27.8498 295.3296,-27.0508 295.3296,-22 295.3296,-17.2452 183.7526,-16.2584 124.8341,-19.0397"/>
<polygon fill="#000000" stroke="#000000" points="124.2793,-15.5646 114.4843,-19.6029 124.6597,-22.5543 124.2793,-15.5646"/>
<text text-anchor="middle" x="331.8296" y="-18.3" font-family="Times,serif" font-size="14.00" fill="#000000">{iron, wood}</text>
</g>
<!-- 4&#45;&gt;4 -->
<g id="edge5" class="edge">
<title>4&#45;&gt;4</title>
<path fill="none" stroke="#000000" d="M114.5635,-24.7296C183.5071,-29.863 368.3296,-28.9531 368.3296,-22 368.3296,-15.3728 200.4281,-14.2356 124.9916,-18.5883"/>
<polygon fill="#000000" stroke="#000000" points="124.3138,-15.1251 114.5635,-19.2704 124.7707,-22.1102 124.3138,-15.1251"/>
<text text-anchor="middle" x="413.3296" y="-18.3" font-family="Times,serif" font-size="14.00" fill="#000000">{factory, wood}</text>
</g>
<!-- 4&#45;&gt;4 -->
<g id="edge6" class="edge">
<title>4&#45;&gt;4</title>
<path fill="none" stroke="#000000" d="M114.2239,-24.9224C197.627,-31.8804 458.3296,-30.9062 458.3296,-22 458.3296,-13.4243 216.617,-12.2029 124.2191,-18.3358"/>
<polygon fill="#000000" stroke="#000000" points="123.9374,-14.847 114.2239,-19.0776 124.4556,-21.8278 123.9374,-14.847"/>
<text text-anchor="middle" x="476.3296" y="-18.3" font-family="Times,serif" font-size="14.00" fill="#000000">{iron}</text>
</g>
<!-- 4&#45;&gt;4 -->
<g id="edge7" class="edge">
<title>4&#45;&gt;4</title>
<path fill="none" stroke="#000000" d="M114.291,-25.2569C204.1877,-33.8786 494.3296,-32.793 494.3296,-22 494.3296,-11.5865 224.2297,-10.2097 124.4935,-17.8698"/>
<polygon fill="#000000" stroke="#000000" points="123.9561,-14.4029 114.291,-18.7431 124.5531,-21.3774 123.9561,-14.4029"/>
<text text-anchor="middle" x="535.3296" y="-18.3" font-family="Times,serif" font-size="14.00" fill="#000000">{factory, iron}</text>
</g>
<!-- 4&#45;&gt;4 -->
<g id="edge8" class="edge">
<title>4&#45;&gt;4</title>
<path fill="none" stroke="#000000" d="M114.3629,-25.4344C216.2585,-35.887 576.3296,-34.7422 576.3296,-22 576.3296,-9.656 238.4113,-8.1959 124.6531,-17.6196"/>
<polygon fill="#000000" stroke="#000000" points="124.0005,-14.1648 114.3629,-18.5656 124.6413,-21.1354 124.0005,-14.1648"/>
<text text-anchor="middle" x="602.3296" y="-18.3" font-family="Times,serif" font-size="14.00" fill="#000000">{factory}</text>
</g>
<!-- 4&#45;&gt;4 -->
<g id="edge9" class="edge">
<title>4&#45;&gt;4</title>
<path fill="none" stroke="#000000" d="M114.033,-25.6145C223.2878,-37.8923 628.3296,-36.6875 628.3296,-22 628.3296,-7.7285 245.9048,-6.1867 124.0112,-17.3748"/>
<polygon fill="#000000" stroke="#000000" points="123.6294,-13.8955 114.033,-18.3855 124.3349,-20.8598 123.6294,-13.8955"/>
<text text-anchor="middle" x="635.3296" y="-18.3" font-family="Times,serif" font-size="14.00" fill="#000000">{}</text>
</g>
</g>
</svg>
