<?xml version="1.0" encoding="UTF-8" standalone="no"?>
<!DOCTYPE svg PUBLIC "-//W3C//DTD SVG 1.1//EN"
 "http://www.w3.org/Graphics/SVG/1.1/DTD/svg11.dtd">
<!-- Generated by graphviz version 2.43.0 (0)
 -->
<!-- Title: %3 Pages: 1 -->
<svg width="3040pt" height="475pt"
 viewBox="0.00 0.00 3039.66 475.42" xmlns="http://www.w3.org/2000/svg" xmlns:xlink="http://www.w3.org/1999/xlink">
<g id="graph0" class="graph" transform="scale(1 1) rotate(0) translate(4 471.42)">
<title>%3</title>
<polygon fill="white" stroke="transparent" points="-4,4 -4,-471.42 3035.66,-471.42 3035.66,4 -4,4"/>
<!-- fake -->
<g id="node1" class="node">
<title>fake</title>
</g>
<!-- 0 -->
<g id="node2" class="node">
<title>0</title>
<ellipse fill="none" stroke="black" cx="2184.66" cy="-376.42" rx="27" ry="18"/>
<text text-anchor="middle" x="2184.66" y="-372.72" font-family="Times,serif" font-size="14.00">0</text>
</g>
<!-- fake&#45;&gt;0 -->
<g id="edge1" class="edge">
<title>fake&#45;&gt;0</title>
<path fill="none" stroke="black" stroke-width="2" d="M2184.66,-431.23C2184.66,-423.21 2184.66,-413.47 2184.66,-404.49"/>
<polygon fill="black" stroke="black" stroke-width="2" points="2188.16,-404.45 2184.66,-394.45 2181.16,-404.45 2188.16,-404.45"/>
</g>
<!-- 0&#45;&gt;0 -->
<g id="edge38" class="edge">
<title>0&#45;&gt;0</title>
<path fill="none" stroke="black" d="M2210.1,-383.11C2220.69,-383.57 2229.66,-381.34 2229.66,-376.42 2229.66,-373.19 2225.79,-371.12 2220.15,-370.21"/>
<polygon fill="black" stroke="black" points="2220.26,-366.71 2210.1,-369.73 2219.92,-373.7 2220.26,-366.71"/>
<text text-anchor="middle" x="2239.16" y="-372.72" font-family="Times,serif" font-size="14.00">{}</text>
</g>
<!-- 1 -->
<g id="node3" class="node">
<title>1</title>
<ellipse fill="none" stroke="black" cx="1759.66" cy="-289.42" rx="27" ry="18"/>
<text text-anchor="middle" x="1759.66" y="-285.72" font-family="Times,serif" font-size="14.00">1</text>
</g>
<!-- 0&#45;&gt;1 -->
<g id="edge34" class="edge">
<title>0&#45;&gt;1</title>
<path fill="none" stroke="black" d="M2157.48,-375.07C2032.81,-373.33 1520.77,-364.74 1497.66,-340.42 1493.07,-335.59 1493.27,-330.44 1497.66,-325.42 1526.36,-292.63 1656.68,-289.23 1722.04,-289.66"/>
<polygon fill="black" stroke="black" points="1722.29,-293.16 1732.33,-289.76 1722.36,-286.16 1722.29,-293.16"/>
<text text-anchor="middle" x="1553.66" y="-329.22" font-family="Times,serif" font-size="14.00">{c0, c1, c2, c3}</text>
</g>
<!-- 0&#45;&gt;1 -->
<g id="edge35" class="edge">
<title>0&#45;&gt;1</title>
<path fill="none" stroke="black" d="M2157.49,-375.82C2051.36,-377.09 1668.84,-378.97 1632.66,-340.42 1603.94,-309.82 1675.74,-297.63 1722.72,-293.02"/>
<polygon fill="black" stroke="black" points="1723.26,-296.49 1732.9,-292.1 1722.63,-289.51 1723.26,-296.49"/>
<text text-anchor="middle" x="1663.16" y="-329.22" font-family="Times,serif" font-size="14.00">{c0, c1}</text>
</g>
<!-- 0&#45;&gt;1 -->
<g id="edge36" class="edge">
<title>0&#45;&gt;1</title>
<path fill="none" stroke="black" d="M2157.48,-375.49C2062.09,-375.44 1746.72,-372.82 1716.66,-340.42 1706.66,-329.65 1717.5,-317.11 1730.79,-307.28"/>
<polygon fill="black" stroke="black" points="1732.92,-310.07 1739.22,-301.55 1728.98,-304.28 1732.92,-310.07"/>
<text text-anchor="middle" x="1759.66" y="-329.22" font-family="Times,serif" font-size="14.00">{c0, c2, c3}</text>
</g>
<!-- 0&#45;&gt;1 -->
<g id="edge37" class="edge">
<title>0&#45;&gt;1</title>
<path fill="none" stroke="black" d="M2157.66,-374.68C2084.92,-372.4 1886.24,-364.11 1825.66,-340.42 1820.88,-338.55 1800.93,-323.24 1784.21,-310.05"/>
<polygon fill="black" stroke="black" points="1786.35,-307.27 1776.33,-303.81 1782,-312.76 1786.35,-307.27"/>
<text text-anchor="middle" x="1856.16" y="-329.22" font-family="Times,serif" font-size="14.00">{c0, c2}</text>
</g>
<!-- 0&#45;&gt;1 -->
<g id="edge39" class="edge">
<title>0&#45;&gt;1</title>
<path fill="none" stroke="black" d="M2157.56,-375.93C2107.13,-376.03 1996.16,-372.22 1909.66,-340.42 1898.2,-336.21 1897.78,-330.43 1886.66,-325.42 1857.21,-312.15 1821.59,-302.86 1795.58,-297.21"/>
<polygon fill="black" stroke="black" points="1796.27,-293.78 1785.77,-295.15 1794.83,-300.63 1796.27,-293.78"/>
<text text-anchor="middle" x="1952.66" y="-329.22" font-family="Times,serif" font-size="14.00">{c0, c1, c2}</text>
</g>
<!-- 0&#45;&gt;1 -->
<g id="edge40" class="edge">
<title>0&#45;&gt;1</title>
<path fill="none" stroke="black" d="M2158.18,-372.88C2124.65,-369 2065.59,-359.87 2018.66,-340.42 2007.38,-335.75 2007.07,-329.75 1995.66,-325.42 1928.69,-300.02 1844.51,-292.96 1796.93,-291.06"/>
<polygon fill="black" stroke="black" points="1796.9,-287.56 1786.79,-290.71 1796.66,-294.55 1796.9,-287.56"/>
<text text-anchor="middle" x="2061.66" y="-329.22" font-family="Times,serif" font-size="14.00">{c0, c1, c3}</text>
</g>
<!-- 0&#45;&gt;1 -->
<g id="edge41" class="edge">
<title>0&#45;&gt;1</title>
<path fill="none" stroke="black" d="M2165.32,-363.72C2154.24,-356.98 2140.12,-348.31 2127.66,-340.42 2117.35,-333.89 2116.17,-329.48 2104.66,-325.42 2048.61,-305.62 1873.76,-295.54 1796.73,-291.97"/>
<polygon fill="black" stroke="black" points="1796.68,-288.46 1786.54,-291.51 1796.37,-295.45 1796.68,-288.46"/>
<text text-anchor="middle" x="2145.16" y="-329.22" font-family="Times,serif" font-size="14.00">{c0}</text>
</g>
<!-- 0&#45;&gt;1 -->
<g id="edge42" class="edge">
<title>0&#45;&gt;1</title>
<path fill="none" stroke="black" d="M2181.73,-358.2C2178.86,-346.97 2173.3,-333.04 2162.66,-325.42 2133.31,-304.4 1891.22,-294.57 1796.99,-291.51"/>
<polygon fill="black" stroke="black" points="1796.88,-288.01 1786.77,-291.19 1796.66,-295 1796.88,-288.01"/>
<text text-anchor="middle" x="2205.16" y="-329.22" font-family="Times,serif" font-size="14.00">{c0, c3}</text>
</g>
<!-- 2 -->
<g id="node4" class="node">
<title>2</title>
<ellipse fill="none" stroke="black" cx="1735.66" cy="-24.42" rx="27" ry="18"/>
<text text-anchor="middle" x="1735.66" y="-20.72" font-family="Times,serif" font-size="14.00">2</text>
</g>
<!-- 0&#45;&gt;2 -->
<g id="edge43" class="edge">
<title>0&#45;&gt;2</title>
<path fill="none" stroke="black" d="M2207.78,-367.05C2219.58,-361.46 2232.85,-352.82 2239.66,-340.42 2242.87,-334.57 2241.04,-331.94 2239.66,-325.42 2214.92,-208.39 2202.21,-153.7 2096.66,-97.42 1989.06,-40.05 1841.33,-28.2 1773.05,-25.89"/>
<polygon fill="black" stroke="black" points="1772.89,-22.38 1762.79,-25.59 1772.69,-29.38 1772.89,-22.38"/>
<text text-anchor="middle" x="2229.16" y="-198.72" font-family="Times,serif" font-size="14.00">{c3}</text>
</g>
<!-- 0&#45;&gt;2 -->
<g id="edge44" class="edge">
<title>0&#45;&gt;2</title>
<path fill="none" stroke="black" d="M2208.94,-368.13C2240.51,-356.97 2291.66,-332.41 2291.66,-290.42 2291.66,-290.42 2291.66,-290.42 2291.66,-114.42 2291.66,-61.7 1896.89,-34.63 1772.63,-27.42"/>
<polygon fill="black" stroke="black" points="1772.66,-23.92 1762.47,-26.84 1772.26,-30.91 1772.66,-23.92"/>
<text text-anchor="middle" x="2334.66" y="-198.72" font-family="Times,serif" font-size="14.00">{c1, c2, c3}</text>
</g>
<!-- 0&#45;&gt;2 -->
<g id="edge45" class="edge">
<title>0&#45;&gt;2</title>
<path fill="none" stroke="black" d="M2210.93,-371.39C2271.08,-361.41 2413.66,-333.25 2413.66,-290.42 2413.66,-290.42 2413.66,-290.42 2413.66,-114.42 2413.66,-49.26 1915.07,-30.41 1773.02,-26.36"/>
<polygon fill="black" stroke="black" points="1772.75,-22.85 1762.65,-26.07 1772.55,-29.84 1772.75,-22.85"/>
<text text-anchor="middle" x="2444.16" y="-198.72" font-family="Times,serif" font-size="14.00">{c2, c3}</text>
</g>
<!-- 0&#45;&gt;2 -->
<g id="edge46" class="edge">
<title>0&#45;&gt;2</title>
<path fill="none" stroke="black" d="M2211.61,-374.17C2289.72,-369.81 2510.66,-352.05 2510.66,-290.42 2510.66,-290.42 2510.66,-290.42 2510.66,-114.42 2510.66,-39.28 1928.25,-27.53 1773.2,-25.74"/>
<polygon fill="black" stroke="black" points="1772.82,-22.23 1762.79,-25.62 1772.75,-29.23 1772.82,-22.23"/>
<text text-anchor="middle" x="2528.16" y="-198.72" font-family="Times,serif" font-size="14.00">{c1}</text>
</g>
<!-- 0&#45;&gt;2 -->
<g id="edge47" class="edge">
<title>0&#45;&gt;2</title>
<path fill="none" stroke="black" d="M2211.63,-375.41C2300.99,-374.66 2581.66,-366.28 2581.66,-290.42 2581.66,-290.42 2581.66,-290.42 2581.66,-114.42 2581.66,-31.87 1936.3,-25.62 1772.9,-25.37"/>
<polygon fill="black" stroke="black" points="1772.85,-21.87 1762.85,-25.36 1772.84,-28.87 1772.85,-21.87"/>
<text text-anchor="middle" x="2612.16" y="-198.72" font-family="Times,serif" font-size="14.00">{c1, c3}</text>
</g>
<!-- 0&#45;&gt;2 -->
<g id="edge48" class="edge">
<title>0&#45;&gt;2</title>
<path fill="none" stroke="black" d="M2211.87,-375.44C2273.45,-374.93 2427.87,-370.47 2552.66,-340.42 2611.23,-326.31 2678.66,-350.67 2678.66,-290.42 2678.66,-290.42 2678.66,-290.42 2678.66,-114.42 2678.66,-21.76 1947.65,-23.27 1772.87,-24.96"/>
<polygon fill="black" stroke="black" points="1772.83,-21.46 1762.86,-25.06 1772.9,-28.46 1772.83,-21.46"/>
<text text-anchor="middle" x="2709.16" y="-198.72" font-family="Times,serif" font-size="14.00">{c1, c2}</text>
</g>
<!-- 0&#45;&gt;2 -->
<g id="edge49" class="edge">
<title>0&#45;&gt;2</title>
<path fill="none" stroke="black" d="M2211.59,-374.43C2327.2,-369.82 2775.66,-348.21 2775.66,-290.42 2775.66,-290.42 2775.66,-290.42 2775.66,-114.42 2775.66,-40.76 2690.18,-77.27 2617.66,-64.42 2451.64,-35.01 1919.61,-27.34 1773.24,-25.77"/>
<polygon fill="black" stroke="black" points="1773.02,-22.27 1762.99,-25.66 1772.95,-29.27 1773.02,-22.27"/>
<text text-anchor="middle" x="2793.16" y="-198.72" font-family="Times,serif" font-size="14.00">{c2}</text>
</g>
<!-- 1&#45;&gt;1 -->
<g id="edge6" class="edge">
<title>1&#45;&gt;1</title>
<path fill="none" stroke="black" d="M1784.19,-297.17C1795.17,-297.91 1804.66,-295.33 1804.66,-289.42 1804.66,-285.45 1800.37,-282.98 1794.23,-282.01"/>
<polygon fill="black" stroke="black" points="1794.3,-278.51 1784.19,-281.67 1794.06,-285.51 1794.3,-278.51"/>
<text text-anchor="middle" x="1814.16" y="-285.72" font-family="Times,serif" font-size="14.00">{}</text>
</g>
<!-- 1&#45;&gt;2 -->
<g id="edge11" class="edge">
<title>1&#45;&gt;2</title>
<path fill="none" stroke="black" d="M1754.91,-271.31C1746.33,-240.26 1729,-176.84 1727.66,-166.42 1726.81,-159.81 1723.61,-156.72 1727.66,-151.42 1746.11,-127.26 1775.2,-157.58 1793.66,-133.42 1803.37,-120.7 1798.98,-112.51 1793.66,-97.42 1786.74,-77.81 1771.97,-59.6 1759.06,-46.4"/>
<polygon fill="black" stroke="black" points="1761.35,-43.74 1751.75,-39.24 1756.45,-48.74 1761.35,-43.74"/>
<text text-anchor="middle" x="1745.16" y="-155.22" font-family="Times,serif" font-size="14.00">{c3}</text>
</g>
<!-- 1&#45;&gt;2 -->
<g id="edge12" class="edge">
<title>1&#45;&gt;2</title>
<path fill="none" stroke="black" d="M1761.36,-271.21C1764.8,-239.04 1773.3,-171.24 1785.66,-151.42 1792.71,-140.1 1803.69,-145.34 1809.66,-133.42 1816.81,-119.11 1813.24,-113.01 1809.66,-97.42 1806.01,-81.53 1804.35,-76.73 1793.66,-64.42 1785.8,-55.37 1775.37,-47.5 1765.53,-41.24"/>
<polygon fill="black" stroke="black" points="1767.11,-38.11 1756.74,-35.96 1763.51,-44.11 1767.11,-38.11"/>
<text text-anchor="middle" x="1816.16" y="-155.22" font-family="Times,serif" font-size="14.00">{c2, c3}</text>
</g>
<!-- 1&#45;&gt;2 -->
<g id="edge13" class="edge">
<title>1&#45;&gt;2</title>
<path fill="none" stroke="black" d="M1777.33,-275.21C1805.47,-252.44 1856.37,-203.2 1846.66,-151.42 1839,-110.62 1840.61,-95.11 1812.66,-64.42 1801.07,-51.69 1784.38,-42.54 1769.5,-36.31"/>
<polygon fill="black" stroke="black" points="1770.65,-33 1760.06,-32.63 1768.11,-39.52 1770.65,-33"/>
<text text-anchor="middle" x="1865.16" y="-155.22" font-family="Times,serif" font-size="14.00">{c0}</text>
</g>
<!-- 1&#45;&gt;2 -->
<g id="edge14" class="edge">
<title>1&#45;&gt;2</title>
<path fill="none" stroke="black" d="M1781.78,-278.69C1822.6,-259.13 1904.06,-211.71 1886.66,-151.42 1873.97,-107.47 1866.79,-93.71 1831.66,-64.42 1814.13,-49.8 1790.39,-40.09 1770.91,-34.02"/>
<polygon fill="black" stroke="black" points="1771.74,-30.62 1761.16,-31.17 1769.78,-37.34 1771.74,-30.62"/>
<text text-anchor="middle" x="1919.16" y="-155.22" font-family="Times,serif" font-size="14.00">{c0, c2}</text>
</g>
<!-- 1&#45;&gt;2 -->
<g id="edge15" class="edge">
<title>1&#45;&gt;2</title>
<path fill="none" stroke="black" d="M1785.18,-283.13C1845.33,-269.31 1988.44,-227.78 1953.66,-151.42 1920.62,-78.88 1824.04,-45.75 1771.21,-32.69"/>
<polygon fill="black" stroke="black" points="1771.79,-29.24 1761.25,-30.34 1770.18,-36.05 1771.79,-29.24"/>
<text text-anchor="middle" x="1988.16" y="-155.22" font-family="Times,serif" font-size="14.00">{c0, c3}</text>
</g>
<!-- 1&#45;&gt;2 -->
<g id="edge16" class="edge">
<title>1&#45;&gt;2</title>
<path fill="none" stroke="black" d="M1786.23,-286.04C1862.61,-278.03 2074.12,-246.94 2022.66,-151.42 1973.51,-60.21 1838.71,-34.97 1772.85,-28.03"/>
<polygon fill="black" stroke="black" points="1772.81,-24.51 1762.52,-27.03 1772.14,-31.48 1772.81,-24.51"/>
<text text-anchor="middle" x="2070.66" y="-155.22" font-family="Times,serif" font-size="14.00">{c0, c2, c3}</text>
</g>
<!-- 1&#45;&gt;2 -->
<g id="edge17" class="edge">
<title>1&#45;&gt;2</title>
<path fill="none" stroke="black" d="M1786.64,-288.43C1881.95,-287.45 2193.18,-274.9 2117.66,-151.42 2073.38,-79.01 2028.02,-91.72 1947.66,-64.42 1888.08,-44.18 1815.31,-33.7 1772.38,-28.9"/>
<polygon fill="black" stroke="black" points="1772.71,-25.41 1762.39,-27.82 1771.96,-32.37 1772.71,-25.41"/>
<text text-anchor="middle" x="2141.16" y="-155.22" font-family="Times,serif" font-size="14.00">{c2}</text>
</g>
<!-- 3 -->
<g id="node5" class="node">
<title>3</title>
<ellipse fill="none" stroke="black" cx="1235.66" cy="-202.42" rx="27" ry="18"/>
<text text-anchor="middle" x="1235.66" y="-198.72" font-family="Times,serif" font-size="14.00">3</text>
</g>
<!-- 1&#45;&gt;3 -->
<g id="edge2" class="edge">
<title>1&#45;&gt;3</title>
<path fill="none" stroke="black" d="M1732.63,-288.21C1599.92,-287.07 1022.59,-280.57 996.66,-253.42 992.05,-248.6 992.3,-243.46 996.66,-238.42 1022.27,-208.79 1137.74,-203.76 1198.31,-203.21"/>
<polygon fill="black" stroke="black" points="1198.61,-206.71 1208.59,-203.16 1198.57,-199.71 1198.61,-206.71"/>
<text text-anchor="middle" x="1039.66" y="-242.22" font-family="Times,serif" font-size="14.00">{c1, c2, c3}</text>
</g>
<!-- 1&#45;&gt;3 -->
<g id="edge3" class="edge">
<title>1&#45;&gt;3</title>
<path fill="none" stroke="black" d="M1732.58,-288C1611.85,-285.99 1127.56,-276.52 1105.66,-253.42 1076.06,-222.19 1150.42,-210.22 1198.51,-205.82"/>
<polygon fill="black" stroke="black" points="1198.95,-209.3 1208.63,-204.97 1198.37,-202.32 1198.95,-209.3"/>
<text text-anchor="middle" x="1123.16" y="-242.22" font-family="Times,serif" font-size="14.00">{c1}</text>
</g>
<!-- 1&#45;&gt;3 -->
<g id="edge4" class="edge">
<title>1&#45;&gt;3</title>
<path fill="none" stroke="black" d="M1732.73,-287.86C1619.06,-285.35 1183.44,-274.39 1163.66,-253.42 1147.92,-236.73 1175.68,-222.36 1201.17,-213.36"/>
<polygon fill="black" stroke="black" points="1202.35,-216.66 1210.73,-210.18 1200.14,-210.02 1202.35,-216.66"/>
<text text-anchor="middle" x="1194.16" y="-242.22" font-family="Times,serif" font-size="14.00">{c0, c1}</text>
</g>
<!-- 1&#45;&gt;3 -->
<g id="edge5" class="edge">
<title>1&#45;&gt;3</title>
<path fill="none" stroke="black" d="M1732.66,-288.41C1632.33,-288.13 1284.87,-284.87 1247.66,-253.42 1240.97,-247.76 1237.64,-239.1 1236.09,-230.56"/>
<polygon fill="black" stroke="black" points="1239.54,-229.98 1234.96,-220.43 1232.59,-230.75 1239.54,-229.98"/>
<text text-anchor="middle" x="1278.16" y="-242.22" font-family="Times,serif" font-size="14.00">{c1, c3}</text>
</g>
<!-- 1&#45;&gt;3 -->
<g id="edge7" class="edge">
<title>1&#45;&gt;3</title>
<path fill="none" stroke="black" d="M1732.7,-287.94C1650.88,-286.22 1406.43,-279.01 1331.66,-253.42 1320.11,-249.47 1319.29,-244.4 1308.66,-238.42 1295.25,-230.88 1279.97,-223.39 1266.86,-217.28"/>
<polygon fill="black" stroke="black" points="1268.31,-214.1 1257.76,-213.1 1265.39,-220.46 1268.31,-214.1"/>
<text text-anchor="middle" x="1374.66" y="-242.22" font-family="Times,serif" font-size="14.00">{c0, c1, c3}</text>
</g>
<!-- 1&#45;&gt;3 -->
<g id="edge8" class="edge">
<title>1&#45;&gt;3</title>
<path fill="none" stroke="black" d="M1732.63,-287.07C1665.8,-283.47 1494.3,-272.61 1440.66,-253.42 1429.17,-249.31 1428.97,-242.99 1417.66,-238.42 1369.66,-219.03 1310.12,-210.19 1272.49,-206.29"/>
<polygon fill="black" stroke="black" points="1272.78,-202.81 1262.49,-205.32 1272.1,-209.77 1272.78,-202.81"/>
<text text-anchor="middle" x="1483.66" y="-242.22" font-family="Times,serif" font-size="14.00">{c0, c1, c2}</text>
</g>
<!-- 1&#45;&gt;3 -->
<g id="edge9" class="edge">
<title>1&#45;&gt;3</title>
<path fill="none" stroke="black" d="M1732.54,-287.44C1691.6,-285.19 1612.17,-277.77 1549.66,-253.42 1538.29,-248.99 1538.13,-242.59 1526.66,-238.42 1439.73,-206.8 1329.52,-202.44 1272.93,-202.57"/>
<polygon fill="black" stroke="black" points="1272.65,-199.07 1262.68,-202.64 1272.7,-206.07 1272.65,-199.07"/>
<text text-anchor="middle" x="1605.66" y="-242.22" font-family="Times,serif" font-size="14.00">{c0, c1, c2, c3}</text>
</g>
<!-- 1&#45;&gt;3 -->
<g id="edge10" class="edge">
<title>1&#45;&gt;3</title>
<path fill="none" stroke="black" d="M1737.26,-278.96C1722.13,-272.33 1701.86,-262.98 1684.66,-253.42 1673.99,-247.49 1673.2,-242.37 1661.66,-238.42 1590.16,-213.93 1362.76,-206.25 1272.8,-204.14"/>
<polygon fill="black" stroke="black" points="1272.86,-200.64 1262.78,-203.91 1272.7,-207.64 1272.86,-200.64"/>
<text text-anchor="middle" x="1715.16" y="-242.22" font-family="Times,serif" font-size="14.00">{c1, c2}</text>
</g>
<!-- 2&#45;&gt;2 -->
<g id="edge82" class="edge">
<title>2&#45;&gt;2</title>
<path fill="none" stroke="black" d="M1762.9,-25.92C1772.68,-25.95 1780.66,-25.45 1780.66,-24.42 1780.66,-23.79 1777.7,-23.36 1773.17,-23.13"/>
<polygon fill="black" stroke="black" points="1772.97,-19.62 1762.9,-22.92 1772.83,-26.62 1772.97,-19.62"/>
<text text-anchor="middle" x="1823.66" y="-20.72" font-family="Times,serif" font-size="14.00">{c0, c1, c2}</text>
</g>
<!-- 2&#45;&gt;2 -->
<g id="edge83" class="edge">
<title>2&#45;&gt;2</title>
<path fill="none" stroke="black" d="M1762.53,-26.57C1802.18,-28.2 1866.66,-27.48 1866.66,-24.42 1866.66,-21.61 1812.32,-20.77 1772.74,-21.91"/>
<polygon fill="black" stroke="black" points="1772.4,-18.42 1762.53,-22.27 1772.64,-25.42 1772.4,-18.42"/>
<text text-anchor="middle" x="1884.16" y="-20.72" font-family="Times,serif" font-size="14.00">{c3}</text>
</g>
<!-- 2&#45;&gt;2 -->
<g id="edge84" class="edge">
<title>2&#45;&gt;2</title>
<path fill="none" stroke="black" d="M1762.43,-27.25C1811.65,-30.19 1901.66,-29.25 1901.66,-24.42 1901.66,-19.9 1822.88,-18.79 1772.42,-21.07"/>
<polygon fill="black" stroke="black" points="1772.23,-17.57 1762.43,-21.59 1772.59,-24.56 1772.23,-17.57"/>
<text text-anchor="middle" x="1944.66" y="-20.72" font-family="Times,serif" font-size="14.00">{c1, c2, c3}</text>
</g>
<!-- 2&#45;&gt;2 -->
<g id="edge85" class="edge">
<title>2&#45;&gt;2</title>
<path fill="none" stroke="black" d="M1762.26,-27.52C1830.3,-32.23 1987.66,-31.2 1987.66,-24.42 1987.66,-17.96 1844.71,-16.71 1772.39,-20.69"/>
<polygon fill="black" stroke="black" points="1772.02,-17.21 1762.26,-21.32 1772.45,-24.2 1772.02,-17.21"/>
<text text-anchor="middle" x="2043.66" y="-20.72" font-family="Times,serif" font-size="14.00">{c0, c1, c2, c3}</text>
</g>
<!-- 2&#45;&gt;2 -->
<g id="edge86" class="edge">
<title>2&#45;&gt;2</title>
<path fill="none" stroke="black" d="M1762.5,-27.7C1850.83,-34.26 2099.66,-33.17 2099.66,-24.42 2099.66,-15.99 1868.49,-14.66 1772.68,-20.46"/>
<polygon fill="black" stroke="black" points="1772.24,-16.98 1762.5,-21.14 1772.71,-23.96 1772.24,-16.98"/>
<text text-anchor="middle" x="2130.16" y="-20.72" font-family="Times,serif" font-size="14.00">{c2, c3}</text>
</g>
<!-- 2&#45;&gt;2 -->
<g id="edge87" class="edge">
<title>2&#45;&gt;2</title>
<path fill="none" stroke="black" d="M1762.16,-27.98C1860.56,-36.27 2160.66,-35.08 2160.66,-24.42 2160.66,-14.1 1879.59,-12.65 1772.28,-20.09"/>
<polygon fill="black" stroke="black" points="1771.86,-16.61 1762.16,-20.86 1772.39,-23.59 1771.86,-16.61"/>
<text text-anchor="middle" x="2178.16" y="-20.72" font-family="Times,serif" font-size="14.00">{c0}</text>
</g>
<!-- 2&#45;&gt;2 -->
<g id="edge88" class="edge">
<title>2&#45;&gt;2</title>
<path fill="none" stroke="black" d="M1762.15,-28.32C1866.95,-38.27 2195.66,-36.97 2195.66,-24.42 2195.66,-12.25 1886.55,-10.66 1772.27,-19.65"/>
<polygon fill="black" stroke="black" points="1771.82,-16.17 1762.15,-20.52 1772.42,-23.15 1771.82,-16.17"/>
<text text-anchor="middle" x="2213.16" y="-20.72" font-family="Times,serif" font-size="14.00">{c1}</text>
</g>
<!-- 2&#45;&gt;2 -->
<g id="edge89" class="edge">
<title>2&#45;&gt;2</title>
<path fill="none" stroke="black" d="M1762.13,-28.61C1873.26,-40.27 2230.66,-38.87 2230.66,-24.42 2230.66,-10.38 1893.21,-8.66 1772.15,-19.27"/>
<polygon fill="black" stroke="black" points="1771.75,-15.79 1762.13,-20.23 1772.42,-22.76 1771.75,-15.79"/>
<text text-anchor="middle" x="2261.16" y="-20.72" font-family="Times,serif" font-size="14.00">{c1, c3}</text>
</g>
<!-- 2&#45;&gt;2 -->
<g id="edge90" class="edge">
<title>2&#45;&gt;2</title>
<path fill="none" stroke="black" d="M1761.99,-28.79C1882.39,-42.28 2291.66,-40.82 2291.66,-24.42 2291.66,-8.45 1903.69,-6.65 1772.11,-19.01"/>
<polygon fill="black" stroke="black" points="1771.58,-15.55 1761.99,-20.05 1772.3,-22.51 1771.58,-15.55"/>
<text text-anchor="middle" x="2322.16" y="-20.72" font-family="Times,serif" font-size="14.00">{c0, c2}</text>
</g>
<!-- 2&#45;&gt;2 -->
<g id="edge91" class="edge">
<title>2&#45;&gt;2</title>
<path fill="none" stroke="black" d="M1762.15,-28.99C1891.86,-44.28 2352.66,-42.76 2352.66,-24.42 2352.66,-6.53 1914.08,-4.64 1772.23,-18.76"/>
<polygon fill="black" stroke="black" points="1771.72,-15.3 1762.15,-19.85 1772.47,-22.26 1771.72,-15.3"/>
<text text-anchor="middle" x="2383.16" y="-20.72" font-family="Times,serif" font-size="14.00">{c1, c2}</text>
</g>
<!-- 2&#45;&gt;2 -->
<g id="edge92" class="edge">
<title>2&#45;&gt;2</title>
<path fill="none" stroke="black" d="M1761.92,-29.12C1900.11,-46.29 2413.66,-44.72 2413.66,-24.42 2413.66,-4.59 1923.9,-2.63 1772.25,-18.54"/>
<polygon fill="black" stroke="black" points="1771.46,-15.11 1761.92,-19.72 1772.26,-22.07 1771.46,-15.11"/>
<text text-anchor="middle" x="2444.16" y="-20.72" font-family="Times,serif" font-size="14.00">{c0, c3}</text>
</g>
<!-- 2&#45;&gt;2 -->
<g id="edge93" class="edge">
<title>2&#45;&gt;2</title>
<path fill="none" stroke="black" d="M1761.79,-29.25C1908.32,-48.29 2474.66,-46.68 2474.66,-24.42 2474.66,-2.63 1932.4,-0.62 1771.81,-18.39"/>
<polygon fill="black" stroke="black" points="1771.31,-14.93 1761.79,-19.59 1772.14,-21.88 1771.31,-14.93"/>
<text text-anchor="middle" x="2484.16" y="-20.72" font-family="Times,serif" font-size="14.00">{}</text>
</g>
<!-- 2&#45;&gt;2 -->
<g id="edge94" class="edge">
<title>2&#45;&gt;2</title>
<path fill="none" stroke="black" d="M1761.76,-29.45C1912.48,-50.29 2493.66,-48.62 2493.66,-24.42 2493.66,-0.74 1937.18,1.37 1772.06,-18.07"/>
<polygon fill="black" stroke="black" points="1771.24,-14.65 1761.76,-19.39 1772.12,-21.59 1771.24,-14.65"/>
<text text-anchor="middle" x="2524.16" y="-20.72" font-family="Times,serif" font-size="14.00">{c0, c1}</text>
</g>
<!-- 2&#45;&gt;2 -->
<g id="edge95" class="edge">
<title>2&#45;&gt;2</title>
<path fill="none" stroke="black" d="M1761.66,-29.56C1920.55,-52.3 2554.66,-50.59 2554.66,-24.42 2554.66,1.23 1945.69,3.38 1771.77,-17.95"/>
<polygon fill="black" stroke="black" points="1771.12,-14.5 1761.66,-19.28 1772.03,-21.44 1771.12,-14.5"/>
<text text-anchor="middle" x="2597.66" y="-20.72" font-family="Times,serif" font-size="14.00">{c0, c2, c3}</text>
</g>
<!-- 2&#45;&gt;2 -->
<g id="edge96" class="edge">
<title>2&#45;&gt;2</title>
<path fill="none" stroke="black" d="M1761.61,-29.62C1930.78,-54.31 2640.66,-52.57 2640.66,-24.42 2640.66,3.21 1956.88,5.39 1771.57,-17.88"/>
<polygon fill="black" stroke="black" points="1771.05,-14.41 1761.61,-19.22 1771.98,-21.35 1771.05,-14.41"/>
<text text-anchor="middle" x="2683.66" y="-20.72" font-family="Times,serif" font-size="14.00">{c0, c1, c3}</text>
</g>
<!-- 2&#45;&gt;2 -->
<g id="edge97" class="edge">
<title>2&#45;&gt;2</title>
<path fill="none" stroke="black" d="M1761.54,-29.67C1940.63,-56.31 2726.66,-54.56 2726.66,-24.42 2726.66,5.19 1968.02,7.4 1771.54,-17.79"/>
<polygon fill="black" stroke="black" points="1770.97,-14.33 1761.54,-19.16 1771.93,-21.27 1770.97,-14.33"/>
<text text-anchor="middle" x="2744.16" y="-20.72" font-family="Times,serif" font-size="14.00">{c2}</text>
</g>
<!-- 3&#45;&gt;2 -->
<g id="edge27" class="edge">
<title>3&#45;&gt;2</title>
<path fill="none" stroke="black" d="M1233.12,-184.36C1231.09,-174.27 1227.57,-161.53 1221.66,-151.42 1215.95,-141.65 1207.99,-143.87 1203.66,-133.42 1197.53,-118.64 1193.57,-109.84 1203.66,-97.42 1228.28,-67.11 1252.96,-92.77 1289.66,-79.42 1302.92,-74.59 1304.06,-68.2 1317.66,-64.42 1471.59,-21.66 1519.96,-77.53 1676.66,-46.42 1685.8,-44.6 1695.44,-41.65 1704.21,-38.52"/>
<polygon fill="black" stroke="black" points="1705.55,-41.76 1713.68,-34.97 1703.09,-35.21 1705.55,-41.76"/>
<text text-anchor="middle" x="1221.16" y="-111.72" font-family="Times,serif" font-size="14.00">{c3}</text>
</g>
<!-- 3&#45;&gt;2 -->
<g id="edge28" class="edge">
<title>3&#45;&gt;2</title>
<path fill="none" stroke="black" d="M1237.97,-184.16C1241.82,-161.59 1251.57,-122.03 1274.66,-97.42 1287.99,-83.2 1297.17,-88.03 1314.66,-79.42 1327.32,-73.19 1329.06,-68.22 1342.66,-64.42 1485.82,-24.36 1530.9,-75.65 1676.66,-46.42 1685.8,-44.59 1695.43,-41.63 1704.21,-38.5"/>
<polygon fill="black" stroke="black" points="1705.54,-41.74 1713.67,-34.95 1703.08,-35.18 1705.54,-41.74"/>
<text text-anchor="middle" x="1292.16" y="-111.72" font-family="Times,serif" font-size="14.00">{c0}</text>
</g>
<!-- 3&#45;&gt;2 -->
<g id="edge29" class="edge">
<title>3&#45;&gt;2</title>
<path fill="none" stroke="black" d="M1251.14,-187.54C1266.23,-173.93 1289.76,-152.5 1309.66,-133.42 1325.99,-117.76 1328.65,-112.34 1345.66,-97.42 1363.77,-81.53 1366.1,-72.87 1388.66,-64.42 1448.71,-41.92 1613.84,-59.3 1676.66,-46.42 1685.79,-44.55 1695.42,-41.57 1704.2,-38.45"/>
<polygon fill="black" stroke="black" points="1705.53,-41.69 1713.66,-34.9 1703.07,-35.13 1705.53,-41.69"/>
<text text-anchor="middle" x="1363.16" y="-111.72" font-family="Times,serif" font-size="14.00">{c1}</text>
</g>
<!-- 3&#45;&gt;2 -->
<g id="edge30" class="edge">
<title>3&#45;&gt;2</title>
<path fill="none" stroke="black" d="M1259.08,-193.32C1288.91,-182.39 1341.29,-161.05 1380.66,-133.42 1399.18,-120.42 1398.19,-110.49 1416.66,-97.42 1444.41,-77.79 1452.9,-73.49 1485.66,-64.42 1567.83,-41.67 1593.41,-64.86 1676.66,-46.42 1685.68,-44.42 1695.22,-41.43 1703.93,-38.34"/>
<polygon fill="black" stroke="black" points="1705.19,-41.6 1713.35,-34.84 1702.76,-35.04 1705.19,-41.6"/>
<text text-anchor="middle" x="1447.16" y="-111.72" font-family="Times,serif" font-size="14.00">{c1, c3}</text>
</g>
<!-- 3&#45;&gt;2 -->
<g id="edge31" class="edge">
<title>3&#45;&gt;2</title>
<path fill="none" stroke="black" d="M1262.08,-198.45C1308.5,-192.3 1406.48,-175.09 1477.66,-133.42 1497.18,-121.99 1495.19,-110.49 1513.66,-97.42 1541.41,-77.79 1550.36,-75.04 1582.66,-64.42 1623.07,-51.13 1635.61,-57.58 1676.66,-46.42 1685.4,-44.04 1694.71,-40.98 1703.29,-37.94"/>
<polygon fill="black" stroke="black" points="1704.75,-41.14 1712.94,-34.42 1702.35,-34.56 1704.75,-41.14"/>
<text text-anchor="middle" x="1544.16" y="-111.72" font-family="Times,serif" font-size="14.00">{c0, c3}</text>
</g>
<!-- 3&#45;&gt;2 -->
<g id="edge32" class="edge">
<title>3&#45;&gt;2</title>
<path fill="none" stroke="black" d="M1262.63,-201.49C1322.65,-200.52 1470.15,-191.89 1574.66,-133.42 1594.41,-122.37 1592.7,-111.18 1610.66,-97.42 1640.75,-74.35 1678.97,-53.38 1705.18,-40.1"/>
<polygon fill="black" stroke="black" points="1706.88,-43.17 1714.26,-35.57 1703.75,-36.91 1706.88,-43.17"/>
<text text-anchor="middle" x="1641.16" y="-111.72" font-family="Times,serif" font-size="14.00">{c0, c1}</text>
</g>
<!-- 3&#45;&gt;2 -->
<g id="edge33" class="edge">
<title>3&#45;&gt;2</title>
<path fill="none" stroke="black" d="M1262.57,-200.41C1347.14,-196.78 1605.87,-181.84 1671.66,-133.42 1699.43,-112.98 1717.32,-76.56 1726.93,-51.71"/>
<polygon fill="black" stroke="black" points="1730.27,-52.77 1730.44,-42.17 1723.7,-50.35 1730.27,-52.77"/>
<text text-anchor="middle" x="1746.66" y="-111.72" font-family="Times,serif" font-size="14.00">{c0, c1, c3}</text>
</g>
<!-- 3&#45;&gt;3 -->
<g id="edge19" class="edge">
<title>3&#45;&gt;3</title>
<path fill="none" stroke="black" d="M1260.19,-210.17C1271.17,-210.91 1280.66,-208.33 1280.66,-202.42 1280.66,-198.45 1276.37,-195.98 1270.23,-195.01"/>
<polygon fill="black" stroke="black" points="1270.3,-191.51 1260.19,-194.67 1270.06,-198.51 1270.3,-191.51"/>
<text text-anchor="middle" x="1290.16" y="-198.72" font-family="Times,serif" font-size="14.00">{}</text>
</g>
<!-- 4 -->
<g id="node6" class="node">
<title>4</title>
<ellipse fill="none" stroke="black" cx="776.66" cy="-115.42" rx="27" ry="18"/>
<text text-anchor="middle" x="776.66" y="-111.72" font-family="Times,serif" font-size="14.00">4</text>
</g>
<!-- 3&#45;&gt;4 -->
<g id="edge18" class="edge">
<title>3&#45;&gt;4</title>
<path fill="none" stroke="black" d="M1208.63,-201.21C1075.92,-200.07 498.59,-193.57 472.66,-166.42 434.98,-126.98 650.31,-118.64 739.41,-116.89"/>
<polygon fill="black" stroke="black" points="739.69,-120.38 749.62,-116.7 739.56,-113.38 739.69,-120.38"/>
<text text-anchor="middle" x="503.16" y="-155.22" font-family="Times,serif" font-size="14.00">{c1, c2}</text>
</g>
<!-- 3&#45;&gt;4 -->
<g id="edge20" class="edge">
<title>3&#45;&gt;4</title>
<path fill="none" stroke="black" d="M1208.38,-201.05C1084.45,-199.25 579.47,-190.44 556.66,-166.42 552.07,-161.59 552.33,-156.49 556.66,-151.42 579.66,-124.47 682.4,-118.17 738.98,-116.76"/>
<polygon fill="black" stroke="black" points="739.38,-120.26 749.31,-116.55 739.24,-113.26 739.38,-120.26"/>
<text text-anchor="middle" x="599.66" y="-155.22" font-family="Times,serif" font-size="14.00">{c0, c1, c2}</text>
</g>
<!-- 3&#45;&gt;4 -->
<g id="edge21" class="edge">
<title>3&#45;&gt;4</title>
<path fill="none" stroke="black" d="M1208.42,-200.77C1097.45,-198.01 684.46,-186.42 665.66,-166.42 640.9,-140.09 698.75,-126.63 739.89,-120.59"/>
<polygon fill="black" stroke="black" points="740.5,-124.04 749.93,-119.21 739.55,-117.1 740.5,-124.04"/>
<text text-anchor="middle" x="721.66" y="-155.22" font-family="Times,serif" font-size="14.00">{c0, c1, c2, c3}</text>
</g>
<!-- 3&#45;&gt;4 -->
<g id="edge22" class="edge">
<title>3&#45;&gt;4</title>
<path fill="none" stroke="black" d="M1208.66,-200.8C1118.89,-198.51 834.27,-189.5 800.66,-166.42 792.7,-160.95 787.29,-152.1 783.66,-143.35"/>
<polygon fill="black" stroke="black" points="786.89,-141.98 780.27,-133.7 780.28,-144.3 786.89,-141.98"/>
<text text-anchor="middle" x="831.16" y="-155.22" font-family="Times,serif" font-size="14.00">{c0, c2}</text>
</g>
<!-- 3&#45;&gt;4 -->
<g id="edge23" class="edge">
<title>3&#45;&gt;4</title>
<path fill="none" stroke="black" d="M1208.57,-200.38C1137.04,-197.36 944.44,-187.48 884.66,-166.42 873.15,-162.36 872.46,-157.1 861.66,-151.42 844.93,-142.62 825.49,-134.47 809.43,-128.26"/>
<polygon fill="black" stroke="black" points="810.51,-124.92 799.92,-124.65 808.02,-131.47 810.51,-124.92"/>
<text text-anchor="middle" x="902.16" y="-155.22" font-family="Times,serif" font-size="14.00">{c2}</text>
</g>
<!-- 3&#45;&gt;4 -->
<g id="edge24" class="edge">
<title>3&#45;&gt;4</title>
<path fill="none" stroke="black" d="M1208.45,-202.23C1155.55,-202.94 1035.83,-200.26 942.66,-166.42 931.19,-162.25 930.86,-156.27 919.66,-151.42 884.83,-136.33 842.3,-126.97 812.71,-121.77"/>
<polygon fill="black" stroke="black" points="813.26,-118.31 802.82,-120.1 812.1,-125.21 813.26,-118.31"/>
<text text-anchor="middle" x="985.66" y="-155.22" font-family="Times,serif" font-size="14.00">{c1, c2, c3}</text>
</g>
<!-- 3&#45;&gt;4 -->
<g id="edge25" class="edge">
<title>3&#45;&gt;4</title>
<path fill="none" stroke="black" d="M1208.85,-199.59C1172.19,-196.38 1104.89,-187.86 1051.66,-166.42 1040.34,-161.86 1040.09,-155.69 1028.66,-151.42 955.85,-124.19 864.06,-117.85 813.79,-116.56"/>
<polygon fill="black" stroke="black" points="813.78,-113.06 803.71,-116.35 813.64,-120.06 813.78,-113.06"/>
<text text-anchor="middle" x="1094.66" y="-155.22" font-family="Times,serif" font-size="14.00">{c0, c2, c3}</text>
</g>
<!-- 3&#45;&gt;4 -->
<g id="edge26" class="edge">
<title>3&#45;&gt;4</title>
<path fill="none" stroke="black" d="M1213.26,-191.96C1198.13,-185.33 1177.86,-175.98 1160.66,-166.42 1149.99,-160.49 1149.17,-155.46 1137.66,-151.42 1078.59,-130.7 893.52,-121.05 813.8,-117.78"/>
<polygon fill="black" stroke="black" points="813.85,-114.28 803.72,-117.37 813.57,-121.27 813.85,-114.28"/>
<text text-anchor="middle" x="1191.16" y="-155.22" font-family="Times,serif" font-size="14.00">{c2, c3}</text>
</g>
<!-- 4&#45;&gt;2 -->
<g id="edge75" class="edge">
<title>4&#45;&gt;2</title>
<path fill="none" stroke="black" d="M771.61,-97.26C769.55,-86.36 769.31,-72.77 777.66,-64.42 795.32,-46.76 1652.09,-50.91 1676.66,-46.42 1685.83,-44.74 1695.47,-41.83 1704.25,-38.7"/>
<polygon fill="black" stroke="black" points="1705.59,-41.94 1713.71,-35.13 1703.12,-35.39 1705.59,-41.94"/>
<text text-anchor="middle" x="820.66" y="-68.22" font-family="Times,serif" font-size="14.00">{c0, c1, c2}</text>
</g>
<!-- 4&#45;&gt;2 -->
<g id="edge76" class="edge">
<title>4&#45;&gt;2</title>
<path fill="none" stroke="black" d="M800.1,-106.4C817.94,-99.97 842.87,-90.25 863.66,-79.42 874.48,-73.78 875,-68.03 886.66,-64.42 970.53,-38.44 1590.31,-62.34 1676.66,-46.42 1685.82,-44.73 1695.47,-41.81 1704.24,-38.69"/>
<polygon fill="black" stroke="black" points="1705.58,-41.92 1713.71,-35.12 1703.11,-35.37 1705.58,-41.92"/>
<text text-anchor="middle" x="904.16" y="-68.22" font-family="Times,serif" font-size="14.00">{c0}</text>
</g>
<!-- 4&#45;&gt;2 -->
<g id="edge77" class="edge">
<title>4&#45;&gt;2</title>
<path fill="none" stroke="black" d="M802.92,-110.84C832.64,-106.17 882.07,-96.5 921.66,-79.42 932.86,-74.58 933,-68.04 944.66,-64.42 1022.35,-40.28 1596.66,-61.25 1676.66,-46.42 1685.82,-44.72 1695.47,-41.8 1704.24,-38.68"/>
<polygon fill="black" stroke="black" points="1705.58,-41.91 1713.7,-35.11 1703.11,-35.36 1705.58,-41.91"/>
<text text-anchor="middle" x="962.16" y="-68.22" font-family="Times,serif" font-size="14.00">{c1}</text>
</g>
<!-- 4&#45;&gt;2 -->
<g id="edge78" class="edge">
<title>4&#45;&gt;2</title>
<path fill="none" stroke="black" d="M803.54,-113.24C843.3,-110.74 919.58,-103.02 979.66,-79.42 991.02,-74.96 991.01,-68.05 1002.66,-64.42 1074.18,-42.12 1603.01,-60.15 1676.66,-46.42 1685.82,-44.71 1695.46,-41.79 1704.24,-38.66"/>
<polygon fill="black" stroke="black" points="1705.58,-41.9 1713.7,-35.1 1703.11,-35.35 1705.58,-41.9"/>
<text text-anchor="middle" x="1033.16" y="-68.22" font-family="Times,serif" font-size="14.00">{c0, c2}</text>
</g>
<!-- 4&#45;&gt;2 -->
<g id="edge79" class="edge">
<title>4&#45;&gt;2</title>
<path fill="none" stroke="black" d="M803.71,-115.13C855.74,-115.65 972.64,-112.6 1063.66,-79.42 1075.12,-75.24 1075.01,-68.07 1086.66,-64.42 1211.81,-25.13 1547.75,-70.71 1676.66,-46.42 1685.82,-44.69 1695.46,-41.77 1704.23,-38.64"/>
<polygon fill="black" stroke="black" points="1705.57,-41.88 1713.7,-35.08 1703.11,-35.32 1705.57,-41.88"/>
<text text-anchor="middle" x="1117.16" y="-68.22" font-family="Times,serif" font-size="14.00">{c1, c2}</text>
</g>
<!-- 4&#45;&gt;2 -->
<g id="edge80" class="edge">
<title>4&#45;&gt;2</title>
<path fill="none" stroke="black" d="M803.66,-113.55C877.93,-110.89 1083.98,-101.66 1147.66,-79.42 1159.18,-75.4 1159.02,-68.1 1170.66,-64.42 1277.92,-30.45 1566.14,-67.53 1676.66,-46.42 1685.81,-44.67 1695.45,-41.74 1704.23,-38.61"/>
<polygon fill="black" stroke="black" points="1705.57,-41.85 1713.69,-35.05 1703.1,-35.29 1705.57,-41.85"/>
<text text-anchor="middle" x="1201.16" y="-68.22" font-family="Times,serif" font-size="14.00">{c0, c1}</text>
</g>
<!-- 4&#45;&gt;2 -->
<g id="edge81" class="edge">
<title>4&#45;&gt;2</title>
<path fill="none" stroke="black" d="M803.79,-114.09C889.22,-112.78 1151.67,-106.58 1231.66,-79.42 1243.21,-75.5 1243.04,-68.14 1254.66,-64.42 1344.04,-35.76 1584.52,-64.36 1676.66,-46.42 1685.81,-44.64 1695.45,-41.69 1704.22,-38.57"/>
<polygon fill="black" stroke="black" points="1705.56,-41.8 1713.69,-35.01 1703.09,-35.25 1705.56,-41.8"/>
<text text-anchor="middle" x="1272.16" y="-68.22" font-family="Times,serif" font-size="14.00">{c2}</text>
</g>
<!-- 4&#45;&gt;4 -->
<g id="edge70" class="edge">
<title>4&#45;&gt;4</title>
<path fill="none" stroke="black" d="M801.19,-123.17C812.17,-123.91 821.66,-121.33 821.66,-115.42 821.66,-111.45 817.37,-108.98 811.23,-108.01"/>
<polygon fill="black" stroke="black" points="811.3,-104.51 801.19,-107.67 811.06,-111.51 811.3,-104.51"/>
<text text-anchor="middle" x="831.16" y="-111.72" font-family="Times,serif" font-size="14.00">{}</text>
</g>
<!-- 5 -->
<g id="node7" class="node">
<title>5</title>
<ellipse fill="none" stroke="black" cx="376.66" cy="-24.42" rx="18" ry="18"/>
<ellipse fill="none" stroke="black" cx="376.66" cy="-24.42" rx="22" ry="22"/>
<text text-anchor="middle" x="376.66" y="-20.72" font-family="Times,serif" font-size="14.00">5</text>
</g>
<!-- 4&#45;&gt;5 -->
<g id="edge66" class="edge">
<title>4&#45;&gt;5</title>
<path fill="none" stroke="black" d="M749.35,-114.22C615.24,-113.14 31.87,-106.85 5.66,-79.42 -42.18,-29.36 245.79,-25.21 344.4,-25.24"/>
<polygon fill="black" stroke="black" points="344.66,-28.74 354.67,-25.25 344.68,-21.74 344.66,-28.74"/>
<text text-anchor="middle" x="48.66" y="-68.22" font-family="Times,serif" font-size="14.00">{c0, c2, c3}</text>
</g>
<!-- 4&#45;&gt;5 -->
<g id="edge67" class="edge">
<title>4&#45;&gt;5</title>
<path fill="none" stroke="black" d="M749.66,-114.02C628.14,-112.08 136.86,-102.83 114.66,-79.42 82.07,-45.06 267.62,-31.18 344.48,-26.95"/>
<polygon fill="black" stroke="black" points="344.77,-30.44 354.57,-26.42 344.4,-23.45 344.77,-30.44"/>
<text text-anchor="middle" x="145.16" y="-68.22" font-family="Times,serif" font-size="14.00">{c1, c3}</text>
</g>
<!-- 4&#45;&gt;5 -->
<g id="edge68" class="edge">
<title>4&#45;&gt;5</title>
<path fill="none" stroke="black" d="M749.41,-113.8C637.45,-111.11 217.76,-99.71 198.66,-79.42 155.35,-33.4 282.25,-26.18 344.45,-25.34"/>
<polygon fill="black" stroke="black" points="344.59,-28.84 354.55,-25.25 344.52,-21.84 344.59,-28.84"/>
<text text-anchor="middle" x="254.66" y="-68.22" font-family="Times,serif" font-size="14.00">{c0, c1, c2, c3}</text>
</g>
<!-- 4&#45;&gt;5 -->
<g id="edge69" class="edge">
<title>4&#45;&gt;5</title>
<path fill="none" stroke="black" d="M749.66,-114.36C657.87,-113.9 361.93,-110.02 333.66,-79.42 322.71,-67.57 335.16,-53.26 349.43,-42.34"/>
<polygon fill="black" stroke="black" points="351.74,-44.99 357.88,-36.35 347.7,-39.28 351.74,-44.99"/>
<text text-anchor="middle" x="376.66" y="-68.22" font-family="Times,serif" font-size="14.00">{c1, c2, c3}</text>
</g>
<!-- 4&#45;&gt;5 -->
<g id="edge71" class="edge">
<title>4&#45;&gt;5</title>
<path fill="none" stroke="black" d="M749.75,-113.58C680.58,-111.11 498.08,-102.53 442.66,-79.42 433.23,-75.49 414.8,-60.11 399.8,-46.77"/>
<polygon fill="black" stroke="black" points="402.11,-44.14 392.34,-40.05 397.43,-49.34 402.11,-44.14"/>
<text text-anchor="middle" x="485.66" y="-68.22" font-family="Times,serif" font-size="14.00">{c0, c1, c3}</text>
</g>
<!-- 4&#45;&gt;5 -->
<g id="edge72" class="edge">
<title>4&#45;&gt;5</title>
<path fill="none" stroke="black" d="M749.74,-113.86C706.57,-112.18 619.76,-105.53 551.66,-79.42 540.26,-75.05 539.83,-69.33 528.66,-64.42 488.89,-46.92 439.68,-36.09 408.23,-30.41"/>
<polygon fill="black" stroke="black" points="408.74,-26.94 398.28,-28.68 407.54,-33.84 408.74,-26.94"/>
<text text-anchor="middle" x="582.16" y="-68.22" font-family="Times,serif" font-size="14.00">{c0, c3}</text>
</g>
<!-- 4&#45;&gt;5 -->
<g id="edge73" class="edge">
<title>4&#45;&gt;5</title>
<path fill="none" stroke="black" d="M750.6,-110.64C721.65,-105.83 673.93,-96.08 635.66,-79.42 624.47,-74.55 624.03,-68.84 612.66,-64.42 543.18,-37.4 455.09,-29.1 408.66,-26.55"/>
<polygon fill="black" stroke="black" points="408.76,-23.05 398.6,-26.05 408.41,-30.04 408.76,-23.05"/>
<text text-anchor="middle" x="666.16" y="-68.22" font-family="Times,serif" font-size="14.00">{c2, c3}</text>
</g>
<!-- 4&#45;&gt;5 -->
<g id="edge74" class="edge">
<title>4&#45;&gt;5</title>
<path fill="none" stroke="black" d="M757.32,-102.72C746.24,-95.98 732.12,-87.31 719.66,-79.42 709.35,-72.89 708.12,-68.6 696.66,-64.42 596.42,-27.88 468.02,-24.13 408.99,-24.6"/>
<polygon fill="black" stroke="black" points="408.75,-21.1 398.79,-24.73 408.84,-28.1 408.75,-21.1"/>
<text text-anchor="middle" x="737.16" y="-68.22" font-family="Times,serif" font-size="14.00">{c3}</text>
</g>
<!-- 5&#45;&gt;5 -->
<g id="edge50" class="edge">
<title>5&#45;&gt;5</title>
<path fill="none" stroke="black" d="M398.87,-25.9C408.45,-26.02 416.66,-25.53 416.66,-24.42 416.66,-23.74 413.61,-23.3 409.06,-23.08"/>
<polygon fill="black" stroke="black" points="408.92,-19.57 398.87,-22.94 408.82,-26.57 408.92,-19.57"/>
<text text-anchor="middle" x="447.16" y="-20.72" font-family="Times,serif" font-size="14.00">{c1, c3}</text>
</g>
<!-- 5&#45;&gt;5 -->
<g id="edge51" class="edge">
<title>5&#45;&gt;5</title>
<path fill="none" stroke="black" d="M398.67,-26.57C429.79,-28.2 477.66,-27.48 477.66,-24.42 477.66,-21.68 439.35,-20.82 409,-21.83"/>
<polygon fill="black" stroke="black" points="408.51,-18.35 398.67,-22.27 408.81,-25.34 408.51,-18.35"/>
<text text-anchor="middle" x="508.16" y="-20.72" font-family="Times,serif" font-size="14.00">{c0, c2}</text>
</g>
<!-- 5&#45;&gt;5 -->
<g id="edge52" class="edge">
<title>5&#45;&gt;5</title>
<path fill="none" stroke="black" d="M398.66,-27C445.37,-30.24 538.66,-29.38 538.66,-24.42 538.66,-19.8 457.69,-18.74 408.85,-21.23"/>
<polygon fill="black" stroke="black" points="408.43,-17.75 398.66,-21.83 408.85,-24.73 408.43,-17.75"/>
<text text-anchor="middle" x="556.16" y="-20.72" font-family="Times,serif" font-size="14.00">{c3}</text>
</g>
<!-- 5&#45;&gt;5 -->
<g id="edge53" class="edge">
<title>5&#45;&gt;5</title>
<path fill="none" stroke="black" d="M398.51,-27.45C453.52,-32.24 573.66,-31.23 573.66,-24.42 573.66,-18.01 467.19,-16.73 408.81,-20.6"/>
<polygon fill="black" stroke="black" points="408.22,-17.14 398.51,-21.39 408.75,-24.12 408.22,-17.14"/>
<text text-anchor="middle" x="629.66" y="-20.72" font-family="Times,serif" font-size="14.00">{c0, c1, c2, c3}</text>
</g>
<!-- 5&#45;&gt;5 -->
<g id="edge54" class="edge">
<title>5&#45;&gt;5</title>
<path fill="none" stroke="black" d="M398.62,-27.52C473.93,-34.28 685.66,-33.25 685.66,-24.42 685.66,-15.96 491.34,-14.66 408.81,-20.51"/>
<polygon fill="black" stroke="black" points="408.31,-17.03 398.62,-21.32 408.87,-24.01 408.31,-17.03"/>
<text text-anchor="middle" x="728.66" y="-20.72" font-family="Times,serif" font-size="14.00">{c0, c2, c3}</text>
</g>
<!-- 5&#45;&gt;5 -->
<g id="edge55" class="edge">
<title>5&#45;&gt;5</title>
<path fill="none" stroke="black" d="M398.42,-27.68C487.18,-36.3 771.66,-35.21 771.66,-24.42 771.66,-14.01 506.83,-12.63 408.49,-20.29"/>
<polygon fill="black" stroke="black" points="408.08,-16.81 398.42,-21.16 408.69,-23.78 408.08,-16.81"/>
<text text-anchor="middle" x="789.16" y="-20.72" font-family="Times,serif" font-size="14.00">{c2}</text>
</g>
<!-- 5&#45;&gt;5 -->
<g id="edge56" class="edge">
<title>5&#45;&gt;5</title>
<path fill="none" stroke="black" d="M398.37,-27.95C493.35,-38.3 806.66,-37.12 806.66,-24.42 806.66,-12.14 513.81,-10.63 408.54,-19.89"/>
<polygon fill="black" stroke="black" points="407.99,-16.43 398.37,-20.88 408.67,-23.4 407.99,-16.43"/>
<text text-anchor="middle" x="837.16" y="-20.72" font-family="Times,serif" font-size="14.00">{c1, c2}</text>
</g>
<!-- 5&#45;&gt;5 -->
<g id="edge57" class="edge">
<title>5&#45;&gt;5</title>
<path fill="none" stroke="black" d="M398.5,-28.15C502.88,-40.3 867.66,-39.06 867.66,-24.42 867.66,-10.22 524.63,-8.62 408.68,-19.62"/>
<polygon fill="black" stroke="black" points="408.08,-16.16 398.5,-20.69 408.81,-23.13 408.08,-16.16"/>
<text text-anchor="middle" x="877.16" y="-20.72" font-family="Times,serif" font-size="14.00">{}</text>
</g>
<!-- 5&#45;&gt;5 -->
<g id="edge58" class="edge">
<title>5&#45;&gt;5</title>
<path fill="none" stroke="black" d="M398.41,-28.4C506.97,-42.3 886.66,-40.98 886.66,-24.42 886.66,-8.35 528.89,-6.63 408.64,-19.26"/>
<polygon fill="black" stroke="black" points="407.95,-15.81 398.41,-20.44 408.75,-22.77 407.95,-15.81"/>
<text text-anchor="middle" x="904.16" y="-20.72" font-family="Times,serif" font-size="14.00">{c1}</text>
</g>
<!-- 5&#45;&gt;5 -->
<g id="edge59" class="edge">
<title>5&#45;&gt;5</title>
<path fill="none" stroke="black" d="M398.43,-28.59C513.13,-44.31 921.66,-42.92 921.66,-24.42 921.66,-6.43 535.16,-4.62 408.48,-19"/>
<polygon fill="black" stroke="black" points="407.92,-15.54 398.43,-20.25 408.79,-22.49 407.92,-15.54"/>
<text text-anchor="middle" x="964.66" y="-20.72" font-family="Times,serif" font-size="14.00">{c1, c2, c3}</text>
</g>
<!-- 5&#45;&gt;5 -->
<g id="edge60" class="edge">
<title>5&#45;&gt;5</title>
<path fill="none" stroke="black" d="M398.55,-28.68C524.64,-46.31 1007.66,-44.89 1007.66,-24.42 1007.66,-4.46 548.86,-2.61 408.83,-18.85"/>
<polygon fill="black" stroke="black" points="408.03,-15.43 398.55,-20.16 408.91,-22.37 408.03,-15.43"/>
<text text-anchor="middle" x="1038.16" y="-20.72" font-family="Times,serif" font-size="14.00">{c2, c3}</text>
</g>
<!-- 5&#45;&gt;5 -->
<g id="edge61" class="edge">
<title>5&#45;&gt;5</title>
<path fill="none" stroke="black" d="M398.34,-28.76C532.42,-48.32 1068.66,-46.87 1068.66,-24.42 1068.66,-2.49 557.26,-0.6 408.42,-18.74"/>
<polygon fill="black" stroke="black" points="407.79,-15.29 398.34,-20.08 408.71,-22.23 407.79,-15.29"/>
<text text-anchor="middle" x="1111.66" y="-20.72" font-family="Times,serif" font-size="14.00">{c0, c1, c3}</text>
</g>
<!-- 5&#45;&gt;5 -->
<g id="edge62" class="edge">
<title>5&#45;&gt;5</title>
<path fill="none" stroke="black" d="M398.55,-28.86C543.33,-50.32 1154.66,-48.84 1154.66,-24.42 1154.66,-0.52 569.32,1.41 408.52,-18.63"/>
<polygon fill="black" stroke="black" points="407.99,-15.17 398.55,-19.98 408.93,-22.11 407.99,-15.17"/>
<text text-anchor="middle" x="1197.66" y="-20.72" font-family="Times,serif" font-size="14.00">{c0, c1, c2}</text>
</g>
<!-- 5&#45;&gt;5 -->
<g id="edge63" class="edge">
<title>5&#45;&gt;5</title>
<path fill="none" stroke="black" d="M398.47,-28.91C553.04,-52.33 1240.66,-50.83 1240.66,-24.42 1240.66,1.47 580.3,3.42 408.38,-18.55"/>
<polygon fill="black" stroke="black" points="407.89,-15.09 398.47,-19.93 408.86,-22.02 407.89,-15.09"/>
<text text-anchor="middle" x="1271.16" y="-20.72" font-family="Times,serif" font-size="14.00">{c0, c3}</text>
</g>
<!-- 5&#45;&gt;5 -->
<g id="edge64" class="edge">
<title>5&#45;&gt;5</title>
<path fill="none" stroke="black" d="M398.42,-28.99C560.51,-54.33 1301.66,-52.81 1301.66,-24.42 1301.66,3.42 589.18,5.42 408.57,-18.39"/>
<polygon fill="black" stroke="black" points="407.82,-14.96 398.42,-19.84 408.82,-21.89 407.82,-14.96"/>
<text text-anchor="middle" x="1332.16" y="-20.72" font-family="Times,serif" font-size="14.00">{c0, c1}</text>
</g>
<!-- 5&#45;&gt;5 -->
<g id="edge65" class="edge">
<title>5&#45;&gt;5</title>
<path fill="none" stroke="black" d="M398.21,-29.05C567.36,-56.34 1362.66,-54.79 1362.66,-24.42 1362.66,5.39 596.6,7.43 408.26,-18.3"/>
<polygon fill="black" stroke="black" points="407.59,-14.86 398.21,-19.79 408.62,-21.79 407.59,-14.86"/>
<text text-anchor="middle" x="1380.16" y="-20.72" font-family="Times,serif" font-size="14.00">{c0}</text>
</g>
</g>
</svg>
