<?xml version="1.0" encoding="UTF-8" standalone="no"?>
<!DOCTYPE svg PUBLIC "-//W3C//DTD SVG 1.1//EN"
 "http://www.w3.org/Graphics/SVG/1.1/DTD/svg11.dtd">
<!-- Generated by graphviz version 2.40.1 (20161225.0304)
 -->
<!-- Title: %3 Pages: 1 -->
<svg width="229pt" height="117pt"
 viewBox="0.00 0.00 229.00 117.00" xmlns="http://www.w3.org/2000/svg" xmlns:xlink="http://www.w3.org/1999/xlink">
<g id="graph0" class="graph" transform="scale(1 1) rotate(0) translate(4 113)">
<title>%3</title>
<polygon fill="#ffffff" stroke="transparent" points="-4,4 -4,-113 225,-113 225,4 -4,4"/>
<!-- fake -->
<g id="node1" class="node">
<title>fake</title>
</g>
<!-- 0 -->
<g id="node2" class="node">
<title>0</title>
<ellipse fill="none" stroke="#000000" cx="27" cy="-18" rx="27" ry="18"/>
<text text-anchor="middle" x="27" y="-14.3" font-family="Times,serif" font-size="14.00" fill="#000000">0</text>
</g>
<!-- fake&#45;&gt;0 -->
<g id="edge1" class="edge">
<title>fake&#45;&gt;0</title>
<path fill="none" stroke="#000000" stroke-width="2" d="M27,-72.9551C27,-64.8828 27,-55.1764 27,-46.1817"/>
<polygon fill="#000000" stroke="#000000" stroke-width="2" points="30.5001,-46.0903 27,-36.0904 23.5001,-46.0904 30.5001,-46.0903"/>
</g>
<!-- 0&#45;&gt;0 -->
<g id="edge2" class="edge">
<title>0&#45;&gt;0</title>
<path fill="none" stroke="#000000" d="M54.2408,-19.6859C64.0239,-19.7221 72,-19.1602 72,-18 72,-17.293 69.0382,-16.8082 64.5105,-16.5455"/>
<polygon fill="#000000" stroke="#000000" points="64.3171,-13.0403 54.2408,-16.3141 64.1594,-20.0386 64.3171,-13.0403"/>
<text text-anchor="middle" x="85.5" y="-14.3" font-family="Times,serif" font-size="14.00" fill="#000000">{c1}</text>
</g>
<!-- 0&#45;&gt;0 -->
<g id="edge3" class="edge">
<title>0&#45;&gt;0</title>
<path fill="none" stroke="#000000" d="M53.7517,-20.9391C75.4393,-22.0383 99,-21.0586 99,-18 99,-15.4193 82.2268,-14.3186 63.9579,-14.6979"/>
<polygon fill="#000000" stroke="#000000" points="63.621,-11.2076 53.7517,-15.0609 63.8698,-18.2032 63.621,-11.2076"/>
<text text-anchor="middle" x="112.5" y="-14.3" font-family="Times,serif" font-size="14.00" fill="#000000">{c0}</text>
</g>
<!-- 0&#45;&gt;0 -->
<g id="edge4" class="edge">
<title>0&#45;&gt;0</title>
<path fill="none" stroke="#000000" d="M53.8594,-21.7969C85.5,-24.3281 126,-23.0625 126,-18 126,-13.4714 93.5925,-11.9811 64.1084,-13.5289"/>
<polygon fill="#000000" stroke="#000000" points="63.608,-10.0542 53.8594,-14.2031 64.0676,-17.0391 63.608,-10.0542"/>
<text text-anchor="middle" x="139.5" y="-14.3" font-family="Times,serif" font-size="14.00" fill="#000000">{c2}</text>
</g>
<!-- 0&#45;&gt;0 -->
<g id="edge5" class="edge">
<title>0&#45;&gt;0</title>
<path fill="none" stroke="#000000" d="M53.2539,-22.3704C93.9441,-26.6287 153,-25.1719 153,-18 153,-11.4024 103.0236,-9.6413 63.3426,-12.7166"/>
<polygon fill="#000000" stroke="#000000" points="62.8977,-9.2425 53.2539,-13.6296 63.5287,-16.214 62.8977,-9.2425"/>
<text text-anchor="middle" x="160" y="-14.3" font-family="Times,serif" font-size="14.00" fill="#000000">{}</text>
</g>
</g>
</svg>
