<?xml version="1.0" encoding="UTF-8" standalone="no"?>
<!DOCTYPE svg PUBLIC "-//W3C//DTD SVG 1.1//EN"
 "http://www.w3.org/Graphics/SVG/1.1/DTD/svg11.dtd">
<!-- Generated by graphviz version 2.43.0 (0)
 -->
<!-- Title: %3 Pages: 1 -->
<svg width="262pt" height="117pt"
 viewBox="0.00 0.00 261.55 117.00" xmlns="http://www.w3.org/2000/svg" xmlns:xlink="http://www.w3.org/1999/xlink">
<g id="graph0" class="graph" transform="scale(1 1) rotate(0) translate(4 113)">
<title>%3</title>
<polygon fill="white" stroke="transparent" points="-4,4 -4,-113 257.55,-113 257.55,4 -4,4"/>
<!-- fake -->
<g id="node1" class="node">
<title>fake</title>
</g>
<!-- 0 -->
<g id="node2" class="node">
<title>0</title>
<ellipse fill="none" stroke="black" cx="30.55" cy="-18" rx="27" ry="18"/>
<text text-anchor="middle" x="30.55" y="-14.3" font-family="Times,serif" font-size="14.00">0</text>
</g>
<!-- fake&#45;&gt;0 -->
<g id="edge1" class="edge">
<title>fake&#45;&gt;0</title>
<path fill="none" stroke="black" stroke-width="2" d="M30.55,-72.81C30.55,-64.79 30.55,-55.05 30.55,-46.07"/>
<polygon fill="black" stroke="black" stroke-width="2" points="34.05,-46.03 30.55,-36.03 27.05,-46.03 34.05,-46.03"/>
</g>
<!-- 0&#45;&gt;0 -->
<g id="edge2" class="edge">
<title>0&#45;&gt;0</title>
<path fill="none" stroke="black" d="M57.79,-19.69C67.57,-19.72 75.55,-19.16 75.55,-18 75.55,-17.29 72.59,-16.81 68.06,-16.55"/>
<polygon fill="black" stroke="black" points="67.86,-13.04 57.79,-16.31 67.71,-20.04 67.86,-13.04"/>
<text text-anchor="middle" x="93.05" y="-14.3" font-family="Times,serif" font-size="14.00">{c0}</text>
</g>
<!-- 0&#45;&gt;0 -->
<g id="edge3" class="edge">
<title>0&#45;&gt;0</title>
<path fill="none" stroke="black" d="M57.58,-20.86C82.02,-22.08 110.55,-21.13 110.55,-18 110.55,-15.3 89.29,-14.22 67.75,-14.76"/>
<polygon fill="black" stroke="black" points="67.44,-11.27 57.58,-15.14 67.71,-18.26 67.44,-11.27"/>
<text text-anchor="middle" x="128.05" y="-14.3" font-family="Times,serif" font-size="14.00">{c2}</text>
</g>
<!-- 0&#45;&gt;0 -->
<g id="edge4" class="edge">
<title>0&#45;&gt;0</title>
<path fill="none" stroke="black" d="M57.11,-21.59C93.44,-24.39 145.55,-23.19 145.55,-18 145.55,-13.27 102.38,-11.86 67.24,-13.75"/>
<polygon fill="black" stroke="black" points="66.86,-10.27 57.11,-14.41 67.32,-17.25 66.86,-10.27"/>
<text text-anchor="middle" x="163.05" y="-14.3" font-family="Times,serif" font-size="14.00">{c1}</text>
</g>
<!-- 0&#45;&gt;0 -->
<g id="edge5" class="edge">
<title>0&#45;&gt;0</title>
<path fill="none" stroke="black" d="M56.98,-22.15C103.68,-26.68 180.55,-25.29 180.55,-18 180.55,-11.2 113.83,-9.54 66.95,-13.01"/>
<polygon fill="black" stroke="black" points="66.65,-9.52 56.98,-13.85 67.24,-16.5 66.65,-9.52"/>
<text text-anchor="middle" x="190.05" y="-14.3" font-family="Times,serif" font-size="14.00">{}</text>
</g>
</g>
</svg>
