<?xml version="1.0" encoding="UTF-8" standalone="no"?>
<!DOCTYPE svg PUBLIC "-//W3C//DTD SVG 1.1//EN"
 "http://www.w3.org/Graphics/SVG/1.1/DTD/svg11.dtd">
<!-- Generated by graphviz version 2.43.0 (0)
 -->
<!-- Title: %3 Pages: 1 -->
<svg width="1264pt" height="386pt"
 viewBox="0.00 0.00 1264.06 386.00" xmlns="http://www.w3.org/2000/svg" xmlns:xlink="http://www.w3.org/1999/xlink">
<g id="graph0" class="graph" transform="scale(1 1) rotate(0) translate(4 382)">
<title>%3</title>
<polygon fill="white" stroke="transparent" points="-4,4 -4,-382 1260.06,-382 1260.06,4 -4,4"/>
<!-- fake -->
<g id="node1" class="node">
<title>fake</title>
</g>
<!-- 0 -->
<g id="node2" class="node">
<title>0</title>
<ellipse fill="none" stroke="black" cx="712.06" cy="-287" rx="27" ry="18"/>
<text text-anchor="middle" x="712.06" y="-283.3" font-family="Times,serif" font-size="14.00">0</text>
</g>
<!-- fake&#45;&gt;0 -->
<g id="edge1" class="edge">
<title>fake&#45;&gt;0</title>
<path fill="none" stroke="black" stroke-width="2" d="M712.06,-341.81C712.06,-333.79 712.06,-324.05 712.06,-315.07"/>
<polygon fill="black" stroke="black" stroke-width="2" points="715.56,-315.03 712.06,-305.03 708.56,-315.03 715.56,-315.03"/>
</g>
<!-- 0&#45;&gt;0 -->
<g id="edge11" class="edge">
<title>0&#45;&gt;0</title>
<path fill="none" stroke="black" d="M737.5,-293.69C748.09,-294.15 757.06,-291.92 757.06,-287 757.06,-283.77 753.19,-281.7 747.55,-280.79"/>
<polygon fill="black" stroke="black" points="747.66,-277.29 737.5,-280.31 747.32,-284.28 747.66,-277.29"/>
<text text-anchor="middle" x="766.56" y="-283.3" font-family="Times,serif" font-size="14.00">{}</text>
</g>
<!-- 1 -->
<g id="node3" class="node">
<title>1</title>
<ellipse fill="none" stroke="black" cx="519.06" cy="-200" rx="27" ry="18"/>
<text text-anchor="middle" x="519.06" y="-196.3" font-family="Times,serif" font-size="14.00">1</text>
</g>
<!-- 0&#45;&gt;1 -->
<g id="edge10" class="edge">
<title>0&#45;&gt;1</title>
<path fill="none" stroke="black" d="M685.03,-284.57C618.75,-280.79 452.38,-269.53 436.06,-251 418.57,-231.16 453.87,-216.83 483.72,-208.72"/>
<polygon fill="black" stroke="black" points="484.72,-212.08 493.54,-206.22 482.99,-205.3 484.72,-212.08"/>
<text text-anchor="middle" x="466.56" y="-239.8" font-family="Times,serif" font-size="14.00">{c0, c2}</text>
</g>
<!-- 0&#45;&gt;1 -->
<g id="edge12" class="edge">
<title>0&#45;&gt;1</title>
<path fill="none" stroke="black" d="M684.89,-285.13C637.08,-282.96 540.98,-275.57 520.06,-251 514.76,-244.77 513.22,-236.35 513.4,-228.2"/>
<polygon fill="black" stroke="black" points="516.89,-228.5 514.38,-218.21 509.92,-227.82 516.89,-228.5"/>
<text text-anchor="middle" x="563.06" y="-239.8" font-family="Times,serif" font-size="14.00">{c0, c1, c2}</text>
</g>
<!-- 0&#45;&gt;1 -->
<g id="edge13" class="edge">
<title>0&#45;&gt;1</title>
<path fill="none" stroke="black" d="M689.01,-277.56C672.06,-271.05 648.67,-261.42 629.06,-251 618.28,-245.27 616.88,-241.64 606.06,-236 588.84,-227.03 568.78,-218.82 552.27,-212.61"/>
<polygon fill="black" stroke="black" points="553.1,-209.19 542.51,-209.02 550.68,-215.76 553.1,-209.19"/>
<text text-anchor="middle" x="659.56" y="-239.8" font-family="Times,serif" font-size="14.00">{c0, c1}</text>
</g>
<!-- 0&#45;&gt;1 -->
<g id="edge14" class="edge">
<title>0&#45;&gt;1</title>
<path fill="none" stroke="black" d="M708.7,-268.68C705.68,-257.71 700.09,-244.1 690.06,-236 669.81,-219.66 599.78,-209.49 555.86,-204.57"/>
<polygon fill="black" stroke="black" points="556.16,-201.08 545.85,-203.48 555.41,-208.04 556.16,-201.08"/>
<text text-anchor="middle" x="718.56" y="-239.8" font-family="Times,serif" font-size="14.00">{c0}</text>
</g>
<!-- 2 -->
<g id="node4" class="node">
<title>2</title>
<ellipse fill="none" stroke="black" cx="692.06" cy="-22" rx="27" ry="18"/>
<text text-anchor="middle" x="692.06" y="-18.3" font-family="Times,serif" font-size="14.00">2</text>
</g>
<!-- 0&#45;&gt;2 -->
<g id="edge15" class="edge">
<title>0&#45;&gt;2</title>
<path fill="none" stroke="black" d="M727.12,-271.71C732.26,-265.84 737.38,-258.64 740.06,-251 750.6,-220.94 817.95,-397.07 731.06,-95 726.21,-78.13 716.96,-60.78 708.69,-47.34"/>
<polygon fill="black" stroke="black" points="711.51,-45.26 703.18,-38.71 705.61,-49.02 711.51,-45.26"/>
<text text-anchor="middle" x="766.56" y="-152.8" font-family="Times,serif" font-size="14.00">{c2}</text>
</g>
<!-- 0&#45;&gt;2 -->
<g id="edge16" class="edge">
<title>0&#45;&gt;2</title>
<path fill="none" stroke="black" d="M735.12,-277.45C747.31,-271.76 761.5,-263.1 770.06,-251 796.65,-213.43 800.68,-193.27 788.06,-149 775.74,-105.81 740.07,-66.44 715.85,-43.6"/>
<polygon fill="black" stroke="black" points="718.17,-40.97 708.44,-36.78 713.43,-46.13 718.17,-40.97"/>
<text text-anchor="middle" x="808.56" y="-152.8" font-family="Times,serif" font-size="14.00">{c1}</text>
</g>
<!-- 0&#45;&gt;2 -->
<g id="edge17" class="edge">
<title>0&#45;&gt;2</title>
<path fill="none" stroke="black" d="M736.63,-279.15C752.77,-273.66 773.52,-264.59 788.06,-251 823.88,-217.53 846.75,-195.1 830.06,-149 811.25,-97.06 756.41,-58.47 721.79,-38.45"/>
<polygon fill="black" stroke="black" points="723.46,-35.38 713.03,-33.53 720.04,-41.48 723.46,-35.38"/>
<text text-anchor="middle" x="864.56" y="-152.8" font-family="Times,serif" font-size="14.00">{c1, c2}</text>
</g>
<!-- 1&#45;&gt;1 -->
<g id="edge6" class="edge">
<title>1&#45;&gt;1</title>
<path fill="none" stroke="black" d="M543.59,-207.75C554.57,-208.49 564.06,-205.91 564.06,-200 564.06,-196.03 559.77,-193.56 553.63,-192.59"/>
<polygon fill="black" stroke="black" points="553.71,-189.09 543.59,-192.25 553.46,-196.09 553.71,-189.09"/>
<text text-anchor="middle" x="573.56" y="-196.3" font-family="Times,serif" font-size="14.00">{}</text>
</g>
<!-- 1&#45;&gt;2 -->
<g id="edge7" class="edge">
<title>1&#45;&gt;2</title>
<path fill="none" stroke="black" d="M519.92,-181.78C521.73,-159.95 527.4,-121.92 545.06,-95 574.84,-49.61 605.91,-64.81 656.06,-44 658.91,-42.82 661.8,-41.45 664.66,-39.98"/>
<polygon fill="black" stroke="black" points="666.43,-43 673.49,-35.11 663.05,-36.87 666.43,-43"/>
<text text-anchor="middle" x="562.56" y="-109.3" font-family="Times,serif" font-size="14.00">{c2}</text>
</g>
<!-- 1&#45;&gt;2 -->
<g id="edge8" class="edge">
<title>1&#45;&gt;2</title>
<path fill="none" stroke="black" d="M532.28,-184.26C550.69,-163.86 585.28,-126.02 616.06,-95 633.5,-77.42 653.9,-58.16 669.18,-43.98"/>
<polygon fill="black" stroke="black" points="671.69,-46.43 676.65,-37.07 666.93,-41.29 671.69,-46.43"/>
<text text-anchor="middle" x="646.56" y="-109.3" font-family="Times,serif" font-size="14.00">{c0, c2}</text>
</g>
<!-- 1&#45;&gt;2 -->
<g id="edge9" class="edge">
<title>1&#45;&gt;2</title>
<path fill="none" stroke="black" d="M545.45,-195.63C581.4,-189.55 644.93,-173.16 677.06,-131 694.57,-108.02 696.53,-74.05 695.26,-50.37"/>
<polygon fill="black" stroke="black" points="698.74,-49.99 694.5,-40.29 691.76,-50.52 698.74,-49.99"/>
<text text-anchor="middle" x="709.56" y="-109.3" font-family="Times,serif" font-size="14.00">{c0}</text>
</g>
<!-- 3 -->
<g id="node5" class="node">
<title>3</title>
<ellipse fill="none" stroke="black" cx="281.06" cy="-113" rx="27" ry="18"/>
<text text-anchor="middle" x="281.06" y="-109.3" font-family="Times,serif" font-size="14.00">3</text>
</g>
<!-- 1&#45;&gt;3 -->
<g id="edge2" class="edge">
<title>1&#45;&gt;3</title>
<path fill="none" stroke="black" d="M492.09,-198.01C419.48,-195.08 224.08,-185.26 205.06,-164 188.93,-145.97 219.31,-131.61 246.32,-122.99"/>
<polygon fill="black" stroke="black" points="247.46,-126.31 256.03,-120.08 245.45,-119.6 247.46,-126.31"/>
<text text-anchor="middle" x="222.56" y="-152.8" font-family="Times,serif" font-size="14.00">{c1}</text>
</g>
<!-- 1&#45;&gt;3 -->
<g id="edge3" class="edge">
<title>1&#45;&gt;3</title>
<path fill="none" stroke="black" d="M491.9,-199.56C432.21,-200.15 292.55,-197.8 263.06,-164 256.6,-156.6 258.63,-146.7 263.2,-137.67"/>
<polygon fill="black" stroke="black" points="266.24,-139.41 268.4,-129.04 260.24,-135.8 266.24,-139.41"/>
<text text-anchor="middle" x="293.56" y="-152.8" font-family="Times,serif" font-size="14.00">{c1, c2}</text>
</g>
<!-- 1&#45;&gt;3 -->
<g id="edge4" class="edge">
<title>1&#45;&gt;3</title>
<path fill="none" stroke="black" d="M492.29,-197.25C457.47,-194.16 395.37,-185.84 347.06,-164 338.16,-159.98 320.12,-146.15 305.15,-134.05"/>
<polygon fill="black" stroke="black" points="307.18,-131.19 297.22,-127.58 302.76,-136.61 307.18,-131.19"/>
<text text-anchor="middle" x="390.06" y="-152.8" font-family="Times,serif" font-size="14.00">{c0, c1, c2}</text>
</g>
<!-- 1&#45;&gt;3 -->
<g id="edge5" class="edge">
<title>1&#45;&gt;3</title>
<path fill="none" stroke="black" d="M498.71,-188.17C486.26,-181.43 470.1,-172.46 456.06,-164 445.61,-157.7 444.29,-153.78 433.06,-149 395.33,-132.96 349.07,-123.65 317.56,-118.72"/>
<polygon fill="black" stroke="black" points="317.88,-115.23 307.48,-117.21 316.85,-122.15 317.88,-115.23"/>
<text text-anchor="middle" x="486.56" y="-152.8" font-family="Times,serif" font-size="14.00">{c0, c1}</text>
</g>
<!-- 2&#45;&gt;2 -->
<g id="edge26" class="edge">
<title>2&#45;&gt;2</title>
<path fill="none" stroke="black" d="M719.3,-23.5C729.08,-23.53 737.06,-23.03 737.06,-22 737.06,-21.37 734.1,-20.94 729.57,-20.71"/>
<polygon fill="black" stroke="black" points="729.37,-17.2 719.3,-20.5 729.23,-24.2 729.37,-17.2"/>
<text text-anchor="middle" x="754.56" y="-18.3" font-family="Times,serif" font-size="14.00">{c2}</text>
</g>
<!-- 2&#45;&gt;2 -->
<g id="edge27" class="edge">
<title>2&#45;&gt;2</title>
<path fill="none" stroke="black" d="M719.09,-24.54C743.53,-25.63 772.06,-24.78 772.06,-22 772.06,-19.6 750.8,-18.64 729.26,-19.12"/>
<polygon fill="black" stroke="black" points="728.97,-15.63 719.09,-19.46 729.2,-22.62 728.97,-15.63"/>
<text text-anchor="middle" x="802.56" y="-18.3" font-family="Times,serif" font-size="14.00">{c0, c2}</text>
</g>
<!-- 2&#45;&gt;2 -->
<g id="edge28" class="edge">
<title>2&#45;&gt;2</title>
<path fill="none" stroke="black" d="M718.87,-25C762.08,-27.73 833.06,-26.73 833.06,-22 833.06,-17.62 772.22,-16.44 728.91,-18.46"/>
<polygon fill="black" stroke="black" points="728.67,-14.96 718.87,-19 729.05,-21.95 728.67,-14.96"/>
<text text-anchor="middle" x="876.06" y="-18.3" font-family="Times,serif" font-size="14.00">{c0, c1, c2}</text>
</g>
<!-- 2&#45;&gt;2 -->
<g id="edge29" class="edge">
<title>2&#45;&gt;2</title>
<path fill="none" stroke="black" d="M718.84,-25.23C782.22,-29.79 919.06,-28.72 919.06,-22 919.06,-15.62 795.77,-14.33 729.04,-18.12"/>
<polygon fill="black" stroke="black" points="728.6,-14.64 718.84,-18.77 729.05,-21.63 728.6,-14.64"/>
<text text-anchor="middle" x="936.56" y="-18.3" font-family="Times,serif" font-size="14.00">{c1}</text>
</g>
<!-- 2&#45;&gt;2 -->
<g id="edge30" class="edge">
<title>2&#45;&gt;2</title>
<path fill="none" stroke="black" d="M718.78,-25.67C790.11,-31.8 954.06,-30.57 954.06,-22 954.06,-13.81 804.51,-12.33 728.93,-17.55"/>
<polygon fill="black" stroke="black" points="728.48,-14.08 718.78,-18.33 729.02,-21.05 728.48,-14.08"/>
<text text-anchor="middle" x="963.56" y="-18.3" font-family="Times,serif" font-size="14.00">{}</text>
</g>
<!-- 2&#45;&gt;2 -->
<g id="edge31" class="edge">
<title>2&#45;&gt;2</title>
<path fill="none" stroke="black" d="M718.58,-26.09C794.78,-33.79 973.06,-32.43 973.06,-22 973.06,-12.02 809.77,-10.34 728.95,-16.96"/>
<polygon fill="black" stroke="black" points="728.22,-13.51 718.58,-17.91 728.86,-20.49 728.22,-13.51"/>
<text text-anchor="middle" x="1003.56" y="-18.3" font-family="Times,serif" font-size="14.00">{c0, c1}</text>
</g>
<!-- 2&#45;&gt;2 -->
<g id="edge32" class="edge">
<title>2&#45;&gt;2</title>
<path fill="none" stroke="black" d="M718.44,-26.28C806.26,-35.81 1034.06,-34.39 1034.06,-22 1034.06,-10.06 822.43,-8.3 728.49,-16.73"/>
<polygon fill="black" stroke="black" points="728.05,-13.25 718.44,-17.72 728.73,-20.22 728.05,-13.25"/>
<text text-anchor="middle" x="1064.56" y="-18.3" font-family="Times,serif" font-size="14.00">{c1, c2}</text>
</g>
<!-- 2&#45;&gt;2 -->
<g id="edge33" class="edge">
<title>2&#45;&gt;2</title>
<path fill="none" stroke="black" d="M718.35,-26.45C816.98,-37.83 1095.06,-36.34 1095.06,-22 1095.06,-8.12 834.62,-6.28 728.43,-16.49"/>
<polygon fill="black" stroke="black" points="727.92,-13.02 718.35,-17.55 728.66,-19.98 727.92,-13.02"/>
<text text-anchor="middle" x="1112.56" y="-18.3" font-family="Times,serif" font-size="14.00">{c0}</text>
</g>
<!-- 3&#45;&gt;2 -->
<g id="edge39" class="edge">
<title>3&#45;&gt;2</title>
<path fill="none" stroke="black" d="M293.85,-96.75C304.77,-84.93 321.6,-69.37 340.06,-62 405.38,-35.91 588.71,-64.28 656.06,-44 659.08,-43.09 662.11,-41.88 665.07,-40.5"/>
<polygon fill="black" stroke="black" points="666.96,-43.46 674.14,-35.67 663.67,-37.28 666.96,-43.46"/>
<text text-anchor="middle" x="357.56" y="-65.8" font-family="Times,serif" font-size="14.00">{c1}</text>
</g>
<!-- 3&#45;&gt;2 -->
<g id="edge40" class="edge">
<title>3&#45;&gt;2</title>
<path fill="none" stroke="black" d="M305.24,-104.64C324.6,-98.36 352.2,-88.53 375.06,-77 385.95,-71.5 386.49,-65.88 398.06,-62 507.03,-25.43 546.21,-77.84 656.06,-44 659.07,-43.07 662.1,-41.85 665.06,-40.46"/>
<polygon fill="black" stroke="black" points="666.96,-43.42 674.13,-35.62 663.66,-37.24 666.96,-43.42"/>
<text text-anchor="middle" x="428.56" y="-65.8" font-family="Times,serif" font-size="14.00">{c0, c1}</text>
</g>
<!-- 3&#45;&gt;2 -->
<g id="edge41" class="edge">
<title>3&#45;&gt;2</title>
<path fill="none" stroke="black" d="M307.91,-109.94C343.57,-106.49 408,-97.75 459.06,-77 470.36,-72.41 470.55,-66.08 482.06,-62 555.34,-36.04 582.15,-68.13 656.06,-44 659.06,-43.02 662.08,-41.77 665.03,-40.36"/>
<polygon fill="black" stroke="black" points="666.94,-43.31 674.09,-35.49 663.62,-37.14 666.94,-43.31"/>
<text text-anchor="middle" x="499.56" y="-65.8" font-family="Times,serif" font-size="14.00">{c0}</text>
</g>
<!-- 3&#45;&gt;3 -->
<g id="edge38" class="edge">
<title>3&#45;&gt;3</title>
<path fill="none" stroke="black" d="M305.59,-120.75C316.57,-121.49 326.06,-118.91 326.06,-113 326.06,-109.03 321.77,-106.56 315.63,-105.59"/>
<polygon fill="black" stroke="black" points="315.71,-102.09 305.59,-105.25 315.46,-109.09 315.71,-102.09"/>
<text text-anchor="middle" x="335.56" y="-109.3" font-family="Times,serif" font-size="14.00">{}</text>
</g>
<!-- 4 -->
<g id="node6" class="node">
<title>4</title>
<ellipse fill="none" stroke="black" cx="88.06" cy="-22" rx="18" ry="18"/>
<ellipse fill="none" stroke="black" cx="88.06" cy="-22" rx="22" ry="22"/>
<text text-anchor="middle" x="88.06" y="-18.3" font-family="Times,serif" font-size="14.00">4</text>
</g>
<!-- 3&#45;&gt;4 -->
<g id="edge34" class="edge">
<title>3&#45;&gt;4</title>
<path fill="none" stroke="black" d="M254.03,-110.57C187.75,-106.79 21.38,-95.53 5.06,-77 -13.68,-55.74 26.14,-39.46 56.87,-30.57"/>
<polygon fill="black" stroke="black" points="58.12,-33.86 66.84,-27.85 56.27,-27.11 58.12,-33.86"/>
<text text-anchor="middle" x="35.56" y="-65.8" font-family="Times,serif" font-size="14.00">{c0, c2}</text>
</g>
<!-- 3&#45;&gt;4 -->
<g id="edge35" class="edge">
<title>3&#45;&gt;4</title>
<path fill="none" stroke="black" d="M253.89,-111.13C206.07,-108.96 109.96,-101.59 89.06,-77 83.58,-70.55 81.84,-61.93 81.88,-53.48"/>
<polygon fill="black" stroke="black" points="85.38,-53.65 82.69,-43.4 78.4,-53.09 85.38,-53.65"/>
<text text-anchor="middle" x="119.56" y="-65.8" font-family="Times,serif" font-size="14.00">{c1, c2}</text>
</g>
<!-- 3&#45;&gt;4 -->
<g id="edge36" class="edge">
<title>3&#45;&gt;4</title>
<path fill="none" stroke="black" d="M255.89,-105.87C233.53,-99.96 200.27,-90 173.06,-77 162.05,-71.74 160.33,-68.58 150.06,-62 138.6,-54.66 125.88,-46.64 114.97,-39.79"/>
<polygon fill="black" stroke="black" points="116.62,-36.7 106.28,-34.36 112.9,-42.63 116.62,-36.7"/>
<text text-anchor="middle" x="216.06" y="-65.8" font-family="Times,serif" font-size="14.00">{c0, c1, c2}</text>
</g>
<!-- 3&#45;&gt;4 -->
<g id="edge37" class="edge">
<title>3&#45;&gt;4</title>
<path fill="none" stroke="black" d="M277.64,-94.75C274.59,-83.81 269,-70.21 259.06,-62 219.52,-29.35 158.02,-22.78 120.55,-22.11"/>
<polygon fill="black" stroke="black" points="120.21,-18.6 110.2,-22.06 120.18,-25.6 120.21,-18.6"/>
<text text-anchor="middle" x="288.56" y="-65.8" font-family="Times,serif" font-size="14.00">{c2}</text>
</g>
<!-- 4&#45;&gt;4 -->
<g id="edge18" class="edge">
<title>4&#45;&gt;4</title>
<path fill="none" stroke="black" d="M110.27,-23.48C119.85,-23.6 128.06,-23.11 128.06,-22 128.06,-21.32 125.01,-20.88 120.46,-20.66"/>
<polygon fill="black" stroke="black" points="120.32,-17.16 110.27,-20.52 120.22,-24.15 120.32,-17.16"/>
<text text-anchor="middle" x="145.56" y="-18.3" font-family="Times,serif" font-size="14.00">{c2}</text>
</g>
<!-- 4&#45;&gt;4 -->
<g id="edge19" class="edge">
<title>4&#45;&gt;4</title>
<path fill="none" stroke="black" d="M110.19,-24.38C133.67,-25.7 163.06,-24.91 163.06,-22 163.06,-19.5 141.36,-18.56 120.35,-19.19"/>
<polygon fill="black" stroke="black" points="120.03,-15.7 110.19,-19.62 120.33,-22.69 120.03,-15.7"/>
<text text-anchor="middle" x="180.56" y="-18.3" font-family="Times,serif" font-size="14.00">{c0}</text>
</g>
<!-- 4&#45;&gt;4 -->
<g id="edge20" class="edge">
<title>4&#45;&gt;4</title>
<path fill="none" stroke="black" d="M109.89,-24.93C144.56,-27.75 198.06,-26.77 198.06,-22 198.06,-17.68 154.12,-16.47 120.08,-18.37"/>
<polygon fill="black" stroke="black" points="119.63,-14.9 109.89,-19.07 120.1,-21.88 119.63,-14.9"/>
<text text-anchor="middle" x="228.56" y="-18.3" font-family="Times,serif" font-size="14.00">{c1, c2}</text>
</g>
<!-- 4&#45;&gt;4 -->
<g id="edge21" class="edge">
<title>4&#45;&gt;4</title>
<path fill="none" stroke="black" d="M110.08,-25.2C160.09,-29.8 259.06,-28.73 259.06,-22 259.06,-15.7 172.43,-14.36 120.32,-17.98"/>
<polygon fill="black" stroke="black" points="119.77,-14.52 110.08,-18.8 120.33,-21.49 119.77,-14.52"/>
<text text-anchor="middle" x="276.56" y="-18.3" font-family="Times,serif" font-size="14.00">{c1}</text>
</g>
<!-- 4&#45;&gt;4 -->
<g id="edge22" class="edge">
<title>4&#45;&gt;4</title>
<path fill="none" stroke="black" d="M109.97,-25.54C168.36,-31.81 294.06,-30.63 294.06,-22 294.06,-13.84 181.73,-12.34 120.12,-17.5"/>
<polygon fill="black" stroke="black" points="119.59,-14.03 109.97,-18.46 120.25,-21 119.59,-14.03"/>
<text text-anchor="middle" x="337.06" y="-18.3" font-family="Times,serif" font-size="14.00">{c0, c1, c2}</text>
</g>
<!-- 4&#45;&gt;4 -->
<g id="edge23" class="edge">
<title>4&#45;&gt;4</title>
<path fill="none" stroke="black" d="M110.03,-25.62C184.54,-33.85 380.06,-32.64 380.06,-22 380.06,-11.82 200.98,-10.27 120.28,-17.38"/>
<polygon fill="black" stroke="black" points="119.64,-13.92 110.03,-18.38 120.32,-20.89 119.64,-13.92"/>
<text text-anchor="middle" x="410.56" y="-18.3" font-family="Times,serif" font-size="14.00">{c0, c1}</text>
</g>
<!-- 4&#45;&gt;4 -->
<g id="edge24" class="edge">
<title>4&#45;&gt;4</title>
<path fill="none" stroke="black" d="M109.82,-25.77C194.87,-35.86 441.06,-34.61 441.06,-22 441.06,-9.86 212.81,-8.25 119.93,-17.16"/>
<polygon fill="black" stroke="black" points="119.39,-13.69 109.82,-18.23 120.13,-20.65 119.39,-13.69"/>
<text text-anchor="middle" x="450.56" y="-18.3" font-family="Times,serif" font-size="14.00">{}</text>
</g>
<!-- 4&#45;&gt;4 -->
<g id="edge25" class="edge">
<title>4&#45;&gt;4</title>
<path fill="none" stroke="black" d="M109.75,-26.04C199.42,-37.86 460.06,-36.52 460.06,-22 460.06,-7.99 217.43,-6.25 119.82,-16.76"/>
<polygon fill="black" stroke="black" points="119.26,-13.3 109.75,-17.96 120.09,-20.25 119.26,-13.3"/>
<text text-anchor="middle" x="490.56" y="-18.3" font-family="Times,serif" font-size="14.00">{c0, c2}</text>
</g>
</g>
</svg>
