<?xml version="1.0" encoding="UTF-8" standalone="no"?>
<!DOCTYPE svg PUBLIC "-//W3C//DTD SVG 1.1//EN"
 "http://www.w3.org/Graphics/SVG/1.1/DTD/svg11.dtd">
<!-- Generated by graphviz version 2.38.0 (20140413.2041)
 -->
<!-- Title: %3 Pages: 1 -->
<svg width="1053pt" height="386pt"
 viewBox="0.00 0.00 1053.24 386.00" xmlns="http://www.w3.org/2000/svg" xmlns:xlink="http://www.w3.org/1999/xlink">
<g id="graph0" class="graph" transform="scale(1 1) rotate(0) translate(4 382)">
<title>%3</title>
<polygon fill="white" stroke="none" points="-4,4 -4,-382 1049.24,-382 1049.24,4 -4,4"/>
<!-- fake -->
<g id="node1" class="node"><title>fake</title>
</g>
<!-- 0 -->
<g id="node2" class="node"><title>0</title>
<ellipse fill="none" stroke="black" cx="584.239" cy="-287" rx="27" ry="18"/>
<text text-anchor="middle" x="584.239" y="-283.3" font-family="Times,serif" font-size="14.00">0</text>
</g>
<!-- fake&#45;&gt;0 -->
<g id="edge1" class="edge"><title>fake&#45;&gt;0</title>
<path fill="none" stroke="black" stroke-width="2" d="M584.239,-341.813C584.239,-333.789 584.239,-324.047 584.239,-315.069"/>
<polygon fill="black" stroke="black" stroke-width="2" points="587.74,-315.029 584.239,-305.029 580.74,-315.029 587.74,-315.029"/>
</g>
<!-- 0&#45;&gt;0 -->
<g id="edge2" class="edge"><title>0&#45;&gt;0</title>
<path fill="none" stroke="black" d="M609.683,-293.691C620.267,-294.152 629.239,-291.922 629.239,-287 629.239,-283.77 625.375,-281.699 619.728,-280.788"/>
<polygon fill="black" stroke="black" points="619.838,-277.289 609.683,-280.309 619.505,-284.281 619.838,-277.289"/>
<text text-anchor="middle" x="636.239" y="-283.3" font-family="Times,serif" font-size="14.00">{}</text>
</g>
<!-- 1 -->
<g id="node3" class="node"><title>1</title>
<ellipse fill="none" stroke="black" cx="424.239" cy="-200" rx="27" ry="18"/>
<text text-anchor="middle" x="424.239" y="-196.3" font-family="Times,serif" font-size="14.00">1</text>
</g>
<!-- 0&#45;&gt;1 -->
<g id="edge3" class="edge"><title>0&#45;&gt;1</title>
<path fill="none" stroke="black" d="M557.062,-285.618C505.875,-284.262 398.236,-278.168 375.239,-251 364.771,-238.633 378.494,-225.587 394.051,-215.923"/>
<polygon fill="black" stroke="black" points="395.815,-218.946 402.74,-210.928 392.326,-212.877 395.815,-218.946"/>
<text text-anchor="middle" x="388.739" y="-239.8" font-family="Times,serif" font-size="14.00">{c2}</text>
</g>
<!-- 0&#45;&gt;1 -->
<g id="edge4" class="edge"><title>0&#45;&gt;1</title>
<path fill="none" stroke="black" d="M557.497,-284.022C516.657,-280.39 441.733,-271.104 425.239,-251 420.051,-244.676 418.546,-236.234 418.716,-228.09"/>
<polygon fill="black" stroke="black" points="422.202,-228.405 419.677,-218.115 415.234,-227.734 422.202,-228.405"/>
<text text-anchor="middle" x="448.739" y="-239.8" font-family="Times,serif" font-size="14.00">{c1, c2}</text>
</g>
<!-- 0&#45;&gt;1 -->
<g id="edge5" class="edge"><title>0&#45;&gt;1</title>
<path fill="none" stroke="black" d="M560.507,-278.405C542.172,-272.13 516.434,-262.418 495.239,-251 490.477,-248.435 468.741,-233.032 450.558,-219.991"/>
<polygon fill="black" stroke="black" points="452.171,-216.84 442.008,-213.845 448.085,-222.524 452.171,-216.84"/>
<text text-anchor="middle" x="528.739" y="-239.8" font-family="Times,serif" font-size="14.00">{c0, c1, c2}</text>
</g>
<!-- 0&#45;&gt;1 -->
<g id="edge6" class="edge"><title>0&#45;&gt;1</title>
<path fill="none" stroke="black" d="M580.759,-268.833C577.678,-257.923 572.085,-244.332 562.239,-236 534.054,-212.147 491.772,-204.214 461.442,-201.744"/>
<polygon fill="black" stroke="black" points="461.462,-198.238 451.255,-201.081 461.007,-205.223 461.462,-198.238"/>
<text text-anchor="middle" x="595.739" y="-239.8" font-family="Times,serif" font-size="14.00">{c0, c2}</text>
</g>
<!-- 2 -->
<g id="node4" class="node"><title>2</title>
<ellipse fill="none" stroke="black" cx="571.239" cy="-22" rx="27" ry="18"/>
<text text-anchor="middle" x="571.239" y="-18.3" font-family="Times,serif" font-size="14.00">2</text>
</g>
<!-- 0&#45;&gt;2 -->
<g id="edge7" class="edge"><title>0&#45;&gt;2</title>
<path fill="none" stroke="black" d="M603.435,-274.068C611.104,-268.167 619.087,-260.305 623.239,-251 635.392,-223.764 716.286,-423.656 614.239,-95 608.821,-77.5485 598.38,-59.9028 589.143,-46.448"/>
<polygon fill="black" stroke="black" points="591.963,-44.3733 583.313,-38.2556 586.26,-48.4323 591.963,-44.3733"/>
<text text-anchor="middle" x="647.739" y="-152.8" font-family="Times,serif" font-size="14.00">{c1}</text>
</g>
<!-- 0&#45;&gt;2 -->
<g id="edge8" class="edge"><title>0&#45;&gt;2</title>
<path fill="none" stroke="black" d="M609.29,-280.189C625.067,-275.172 644.43,-266.247 655.239,-251 681.584,-213.84 676.794,-193.061 665.239,-149 653.982,-106.074 644.31,-96.372 616.239,-62 610.505,-54.9786 603.42,-48.1915 596.581,-42.3021"/>
<polygon fill="black" stroke="black" points="598.701,-39.5131 588.763,-35.8404 594.241,-44.9089 598.701,-39.5131"/>
<text text-anchor="middle" x="681.739" y="-152.8" font-family="Times,serif" font-size="14.00">{c0}</text>
</g>
<!-- 0&#45;&gt;2 -->
<g id="edge9" class="edge"><title>0&#45;&gt;2</title>
<path fill="none" stroke="black" d="M610.198,-281.439C629.73,-276.794 655.992,-267.796 673.239,-251 706.756,-218.361 712.507,-193.862 699.239,-149 685.701,-103.22 672.636,-92.8935 636.239,-62 625.631,-52.9955 612.697,-44.7761 601.169,-38.2295"/>
<polygon fill="black" stroke="black" points="602.746,-35.1023 592.296,-33.3547 599.375,-41.2374 602.746,-35.1023"/>
<text text-anchor="middle" x="725.739" y="-152.8" font-family="Times,serif" font-size="14.00">{c0, c1}</text>
</g>
<!-- 1&#45;&gt;1 -->
<g id="edge28" class="edge"><title>1&#45;&gt;1</title>
<path fill="none" stroke="black" d="M448.772,-207.752C459.747,-208.49 469.239,-205.906 469.239,-200 469.239,-196.032 464.954,-193.563 458.814,-192.594"/>
<polygon fill="black" stroke="black" points="458.887,-189.095 448.772,-192.248 458.645,-196.091 458.887,-189.095"/>
<text text-anchor="middle" x="476.239" y="-196.3" font-family="Times,serif" font-size="14.00">{}</text>
</g>
<!-- 1&#45;&gt;2 -->
<g id="edge31" class="edge"><title>1&#45;&gt;2</title>
<path fill="none" stroke="black" d="M427.285,-182.044C431.728,-160.49 441.462,-122.752 459.239,-95 470.771,-76.9972 476.413,-73.803 494.239,-62 510.833,-51.0133 517.504,-53.0285 535.239,-44 537.839,-42.6767 540.512,-41.2494 543.172,-39.7837"/>
<polygon fill="black" stroke="black" points="545.069,-42.7314 552.034,-34.7478 541.611,-36.6453 545.069,-42.7314"/>
<text text-anchor="middle" x="472.739" y="-109.3" font-family="Times,serif" font-size="14.00">{c0}</text>
</g>
<!-- 1&#45;&gt;2 -->
<g id="edge32" class="edge"><title>1&#45;&gt;2</title>
<path fill="none" stroke="black" d="M438.1,-184.42C450.878,-170.835 470.229,-149.891 486.239,-131 510.345,-102.556 536.691,-68.5986 553.562,-46.4553"/>
<polygon fill="black" stroke="black" points="556.493,-48.3832 559.752,-38.3022 550.918,-44.1502 556.493,-48.3832"/>
<text text-anchor="middle" x="528.739" y="-109.3" font-family="Times,serif" font-size="14.00">{c2}</text>
</g>
<!-- 1&#45;&gt;2 -->
<g id="edge33" class="edge"><title>1&#45;&gt;2</title>
<path fill="none" stroke="black" d="M448.896,-191.96C476.863,-182.667 521.752,-163.556 546.239,-131 563.896,-107.525 569.386,-73.6535 570.94,-50.1258"/>
<polygon fill="black" stroke="black" points="574.437,-50.2704 571.406,-40.1182 567.444,-49.9443 574.437,-50.2704"/>
<text text-anchor="middle" x="586.739" y="-109.3" font-family="Times,serif" font-size="14.00">{c0, c2}</text>
</g>
<!-- 3 -->
<g id="node5" class="node"><title>3</title>
<ellipse fill="none" stroke="black" cx="233.239" cy="-113" rx="27" ry="18"/>
<text text-anchor="middle" x="233.239" y="-109.3" font-family="Times,serif" font-size="14.00">3</text>
</g>
<!-- 1&#45;&gt;3 -->
<g id="edge26" class="edge"><title>1&#45;&gt;3</title>
<path fill="none" stroke="black" d="M396.833,-199.461C338.049,-199.801 202.857,-196.903 174.239,-164 161.841,-149.744 180.898,-136.054 200.577,-126.614"/>
<polygon fill="black" stroke="black" points="202.153,-129.743 209.851,-122.464 199.294,-123.354 202.153,-129.743"/>
<text text-anchor="middle" x="187.739" y="-152.8" font-family="Times,serif" font-size="14.00">{c1}</text>
</g>
<!-- 1&#45;&gt;3 -->
<g id="edge27" class="edge"><title>1&#45;&gt;3</title>
<path fill="none" stroke="black" d="M397.071,-198.389C347.624,-196.642 246.008,-189.909 224.239,-164 218.612,-157.302 218.696,-148.288 220.911,-139.759"/>
<polygon fill="black" stroke="black" points="224.279,-140.731 224.275,-130.136 217.671,-138.421 224.279,-140.731"/>
<text text-anchor="middle" x="257.739" y="-152.8" font-family="Times,serif" font-size="14.00">{c0, c1, c2}</text>
</g>
<!-- 1&#45;&gt;3 -->
<g id="edge29" class="edge"><title>1&#45;&gt;3</title>
<path fill="none" stroke="black" d="M399.047,-193.059C376.266,-187.207 342.123,-177.229 314.239,-164 303.213,-158.769 301.577,-155.487 291.239,-149 281.577,-142.936 270.909,-136.443 261.386,-130.716"/>
<polygon fill="black" stroke="black" points="263.053,-127.635 252.676,-125.499 259.457,-133.64 263.053,-127.635"/>
<text text-anchor="middle" x="337.739" y="-152.8" font-family="Times,serif" font-size="14.00">{c0, c1}</text>
</g>
<!-- 1&#45;&gt;3 -->
<g id="edge30" class="edge"><title>1&#45;&gt;3</title>
<path fill="none" stroke="black" d="M408.51,-185.309C393.323,-172.317 371.205,-154.048 361.239,-149 332.029,-134.203 295.798,-125.048 269.346,-119.831"/>
<polygon fill="black" stroke="black" points="269.842,-116.363 259.368,-117.958 268.55,-123.243 269.842,-116.363"/>
<text text-anchor="middle" x="405.739" y="-152.8" font-family="Times,serif" font-size="14.00">{c1, c2}</text>
</g>
<!-- 2&#45;&gt;2 -->
<g id="edge34" class="edge"><title>2&#45;&gt;2</title>
<path fill="none" stroke="black" d="M598.48,-23.4985C608.263,-23.5308 616.239,-23.0312 616.239,-22 616.239,-21.3716 613.278,-20.9406 608.75,-20.7071"/>
<polygon fill="black" stroke="black" points="608.548,-17.2025 598.48,-20.5015 608.408,-24.2011 608.548,-17.2025"/>
<text text-anchor="middle" x="629.739" y="-18.3" font-family="Times,serif" font-size="14.00">{c1}</text>
</g>
<!-- 2&#45;&gt;2 -->
<g id="edge35" class="edge"><title>2&#45;&gt;2</title>
<path fill="none" stroke="black" d="M597.991,-24.6125C619.679,-25.5896 643.239,-24.7187 643.239,-22 643.239,-19.7061 626.466,-18.7277 608.197,-19.0648"/>
<polygon fill="black" stroke="black" points="607.876,-15.5731 597.991,-19.3875 608.097,-22.5696 607.876,-15.5731"/>
<text text-anchor="middle" x="666.739" y="-18.3" font-family="Times,serif" font-size="14.00">{c1, c2}</text>
</g>
<!-- 2&#45;&gt;2 -->
<g id="edge36" class="edge"><title>2&#45;&gt;2</title>
<path fill="none" stroke="black" d="M598.058,-25.1733C635.482,-27.6867 690.239,-26.6289 690.239,-22 690.239,-17.7689 644.489,-16.5215 608.045,-18.2578"/>
<polygon fill="black" stroke="black" points="607.843,-14.7635 598.058,-18.8267 608.241,-21.7522 607.843,-14.7635"/>
<text text-anchor="middle" x="697.239" y="-18.3" font-family="Times,serif" font-size="14.00">{}</text>
</g>
<!-- 2&#45;&gt;2 -->
<g id="edge37" class="edge"><title>2&#45;&gt;2</title>
<path fill="none" stroke="black" d="M597.714,-25.8004C641.224,-29.6887 708.239,-28.4219 708.239,-22 708.239,-16.0547 650.802,-14.5277 607.753,-17.419"/>
<polygon fill="black" stroke="black" points="607.413,-13.9348 597.714,-18.1996 607.955,-20.9138 607.413,-13.9348"/>
<text text-anchor="middle" x="721.739" y="-18.3" font-family="Times,serif" font-size="14.00">{c0}</text>
</g>
<!-- 2&#45;&gt;2 -->
<g id="edge38" class="edge"><title>2&#45;&gt;2</title>
<path fill="none" stroke="black" d="M597.534,-26.2315C649.111,-31.7113 735.239,-30.3008 735.239,-22 735.239,-14.218 659.54,-12.492 607.58,-16.8218"/>
<polygon fill="black" stroke="black" points="607.162,-13.3457 597.534,-17.7685 607.819,-20.3148 607.162,-13.3457"/>
<text text-anchor="middle" x="758.739" y="-18.3" font-family="Times,serif" font-size="14.00">{c0, c1}</text>
</g>
<!-- 2&#45;&gt;2 -->
<g id="edge39" class="edge"><title>2&#45;&gt;2</title>
<path fill="none" stroke="black" d="M597.467,-26.4511C660.756,-33.7493 782.239,-32.2656 782.239,-22 782.239,-12.2557 672.781,-10.424 607.536,-16.505"/>
<polygon fill="black" stroke="black" points="607.053,-13.0362 597.467,-17.5489 607.775,-19.9989 607.053,-13.0362"/>
<text text-anchor="middle" x="795.739" y="-18.3" font-family="Times,serif" font-size="14.00">{c2}</text>
</g>
<!-- 2&#45;&gt;2 -->
<g id="edge40" class="edge"><title>2&#45;&gt;2</title>
<path fill="none" stroke="black" d="M597.524,-26.7769C667.979,-35.7603 809.239,-34.168 809.239,-22 809.239,-10.4024 680.911,-8.41225 607.876,-16.0295"/>
<polygon fill="black" stroke="black" points="607.057,-12.6007 597.524,-17.2231 607.859,-19.5547 607.057,-12.6007"/>
<text text-anchor="middle" x="832.739" y="-18.3" font-family="Times,serif" font-size="14.00">{c0, c2}</text>
</g>
<!-- 2&#45;&gt;2 -->
<g id="edge41" class="edge"><title>2&#45;&gt;2</title>
<path fill="none" stroke="black" d="M597.413,-26.9299C678.152,-37.7839 856.239,-36.1406 856.239,-22 856.239,-8.42555 692.128,-6.36771 607.562,-15.8265"/>
<polygon fill="black" stroke="black" points="606.913,-12.3797 597.413,-17.0701 607.765,-19.3277 606.913,-12.3797"/>
<text text-anchor="middle" x="889.739" y="-18.3" font-family="Times,serif" font-size="14.00">{c0, c1, c2}</text>
</g>
<!-- 3&#45;&gt;2 -->
<g id="edge23" class="edge"><title>3&#45;&gt;2</title>
<path fill="none" stroke="black" d="M244.255,-96.3598C253.469,-84.6569 267.736,-69.4404 284.239,-62 386.199,-16.0336 428.387,-77.0337 535.239,-44 538.253,-43.0683 541.284,-41.845 544.239,-40.4564"/>
<polygon fill="black" stroke="black" points="546.136,-43.4113 553.307,-35.6122 542.838,-37.2372 546.136,-43.4113"/>
<text text-anchor="middle" x="297.739" y="-65.8" font-family="Times,serif" font-size="14.00">{c1}</text>
</g>
<!-- 3&#45;&gt;2 -->
<g id="edge24" class="edge"><title>3&#45;&gt;2</title>
<path fill="none" stroke="black" d="M255.878,-102.947C271.693,-96.357 293.132,-86.8882 311.239,-77 321.95,-71.1507 322.708,-65.9963 334.239,-62 418.985,-32.6304 449.788,-71.2494 535.239,-44 538.245,-43.0417 541.27,-41.8008 544.222,-40.4013"/>
<polygon fill="black" stroke="black" points="546.126,-43.3522 553.285,-35.5427 542.818,-37.1828 546.126,-43.3522"/>
<text text-anchor="middle" x="357.739" y="-65.8" font-family="Times,serif" font-size="14.00">{c1, c2}</text>
</g>
<!-- 3&#45;&gt;2 -->
<g id="edge25" class="edge"><title>3&#45;&gt;2</title>
<path fill="none" stroke="black" d="M259.5,-108.592C289.777,-104.034 340.593,-94.4281 381.239,-77 392.456,-72.1907 392.806,-66.2675 404.239,-62 459.299,-41.4498 479.685,-63.1723 535.239,-44 538.155,-42.9938 541.098,-41.7406 543.977,-40.3503"/>
<polygon fill="black" stroke="black" points="545.703,-43.3964 552.853,-35.5779 542.388,-37.2311 545.703,-43.3964"/>
<text text-anchor="middle" x="417.739" y="-65.8" font-family="Times,serif" font-size="14.00">{c2}</text>
</g>
<!-- 3&#45;&gt;3 -->
<g id="edge20" class="edge"><title>3&#45;&gt;3</title>
<path fill="none" stroke="black" d="M257.772,-120.752C268.747,-121.49 278.239,-118.906 278.239,-113 278.239,-109.032 273.954,-106.563 267.814,-105.594"/>
<polygon fill="black" stroke="black" points="267.887,-102.095 257.772,-105.248 267.645,-109.091 267.887,-102.095"/>
<text text-anchor="middle" x="285.239" y="-109.3" font-family="Times,serif" font-size="14.00">{}</text>
</g>
<!-- 4 -->
<g id="node6" class="node"><title>4</title>
<ellipse fill="none" stroke="black" cx="57.2394" cy="-22" rx="18" ry="18"/>
<ellipse fill="none" stroke="black" cx="57.2394" cy="-22" rx="22" ry="22"/>
<text text-anchor="middle" x="57.2394" y="-18.3" font-family="Times,serif" font-size="14.00">4</text>
</g>
<!-- 3&#45;&gt;4 -->
<g id="edge18" class="edge"><title>3&#45;&gt;4</title>
<path fill="none" stroke="black" d="M206.05,-112.065C151.128,-111.556 29.9835,-106.978 4.23942,-77 -8.04293,-62.6978 10.1028,-47.4603 28.4203,-36.831"/>
<polygon fill="black" stroke="black" points="30.1794,-39.8585 37.2937,-32.0075 26.8363,-33.7084 30.1794,-39.8585"/>
<text text-anchor="middle" x="27.7394" y="-65.8" font-family="Times,serif" font-size="14.00">{c0, c2}</text>
</g>
<!-- 3&#45;&gt;4 -->
<g id="edge19" class="edge"><title>3&#45;&gt;4</title>
<path fill="none" stroke="black" d="M206.48,-109.345C166.369,-104.844 93.3165,-94.4624 74.2394,-77 67.6737,-70.99 63.6259,-62.4743 61.1362,-53.9779"/>
<polygon fill="black" stroke="black" points="64.5305,-53.121 58.8717,-44.164 57.7097,-54.6949 64.5305,-53.121"/>
<text text-anchor="middle" x="97.7394" y="-65.8" font-family="Times,serif" font-size="14.00">{c0, c1}</text>
</g>
<!-- 3&#45;&gt;4 -->
<g id="edge21" class="edge"><title>3&#45;&gt;4</title>
<path fill="none" stroke="black" d="M209.62,-104.191C191.346,-97.8005 165.635,-88.0379 144.239,-77 133.394,-71.4046 131.563,-68.5094 121.239,-62 109.255,-54.4428 95.8863,-46.2585 84.4795,-39.3478"/>
<polygon fill="black" stroke="black" points="86.1854,-36.2893 75.8161,-34.115 82.5662,-42.2811 86.1854,-36.2893"/>
<text text-anchor="middle" x="177.739" y="-65.8" font-family="Times,serif" font-size="14.00">{c0, c1, c2}</text>
</g>
<!-- 3&#45;&gt;4 -->
<g id="edge22" class="edge"><title>3&#45;&gt;4</title>
<path fill="none" stroke="black" d="M229.76,-94.8319C226.68,-83.921 221.086,-70.3303 211.239,-62 176.85,-32.9068 123.658,-25.0617 89.6533,-23.1944"/>
<polygon fill="black" stroke="black" points="89.4677,-19.6842 79.3349,-22.7788 89.186,-26.6785 89.4677,-19.6842"/>
<text text-anchor="middle" x="235.739" y="-65.8" font-family="Times,serif" font-size="14.00">{c0}</text>
</g>
<!-- 4&#45;&gt;4 -->
<g id="edge10" class="edge"><title>4&#45;&gt;4</title>
<path fill="none" stroke="black" d="M79.4518,-23.4821C89.0347,-23.6034 97.2394,-23.1094 97.2394,-22 97.2394,-21.324 94.1927,-20.8765 89.644,-20.6574"/>
<polygon fill="black" stroke="black" points="89.4988,-17.1552 79.4518,-20.5179 89.4029,-24.1546 89.4988,-17.1552"/>
<text text-anchor="middle" x="110.739" y="-18.3" font-family="Times,serif" font-size="14.00">{c1}</text>
</g>
<!-- 4&#45;&gt;4 -->
<g id="edge11" class="edge"><title>4&#45;&gt;4</title>
<path fill="none" stroke="black" d="M79.2718,-24.4661C100.147,-25.6658 124.239,-24.8437 124.239,-22 124.239,-19.6228 107.404,-18.6584 89.6855,-19.1067"/>
<polygon fill="black" stroke="black" points="89.1199,-15.6269 79.2718,-19.5339 89.4069,-22.621 89.1199,-15.6269"/>
<text text-anchor="middle" x="157.739" y="-18.3" font-family="Times,serif" font-size="14.00">{c0, c1, c2}</text>
</g>
<!-- 4&#45;&gt;4 -->
<g id="edge12" class="edge"><title>4&#45;&gt;4</title>
<path fill="none" stroke="black" d="M79.3054,-24.7641C119.847,-27.7846 191.239,-26.8633 191.239,-22 191.239,-17.5167 130.566,-16.3834 89.3235,-18.6001"/>
<polygon fill="black" stroke="black" points="89.0636,-15.1095 79.3054,-19.2359 89.507,-22.0954 89.0636,-15.1095"/>
<text text-anchor="middle" x="204.739" y="-18.3" font-family="Times,serif" font-size="14.00">{c0}</text>
</g>
<!-- 4&#45;&gt;4 -->
<g id="edge13" class="edge"><title>4&#45;&gt;4</title>
<path fill="none" stroke="black" d="M79.2588,-25.2599C127.206,-29.7898 218.239,-28.7031 218.239,-22 218.239,-15.742 138.895,-14.3793 89.3415,-17.912"/>
<polygon fill="black" stroke="black" points="88.9387,-14.4332 79.2588,-18.7401 89.5118,-21.4097 88.9387,-14.4332"/>
<text text-anchor="middle" x="241.739" y="-18.3" font-family="Times,serif" font-size="14.00">{c0, c2}</text>
</g>
<!-- 4&#45;&gt;4 -->
<g id="edge14" class="edge"><title>4&#45;&gt;4</title>
<path fill="none" stroke="black" d="M79.2518,-25.5408C138.049,-31.8131 265.239,-30.6328 265.239,-22 265.239,-13.8393 151.58,-12.3383 89.4799,-17.497"/>
<polygon fill="black" stroke="black" points="88.8801,-14.0379 79.2518,-18.4592 89.5357,-21.0071 88.8801,-14.0379"/>
<text text-anchor="middle" x="272.239" y="-18.3" font-family="Times,serif" font-size="14.00">{}</text>
</g>
<!-- 4&#45;&gt;4 -->
<g id="edge15" class="edge"><title>4&#45;&gt;4</title>
<path fill="none" stroke="black" d="M78.9644,-25.8846C142.76,-33.8183 283.239,-32.5234 283.239,-22 283.239,-12.011 156.665,-10.337 89.2481,-16.9781"/>
<polygon fill="black" stroke="black" points="88.519,-13.5373 78.9644,-18.1154 89.2885,-20.4949 88.519,-13.5373"/>
<text text-anchor="middle" x="296.739" y="-18.3" font-family="Times,serif" font-size="14.00">{c2}</text>
</g>
<!-- 4&#45;&gt;4 -->
<g id="edge16" class="edge"><title>4&#45;&gt;4</title>
<path fill="none" stroke="black" d="M78.9604,-26.1552C149.396,-35.8265 310.239,-34.4414 310.239,-22 310.239,-10.1175 163.522,-8.32027 88.9773,-16.6083"/>
<polygon fill="black" stroke="black" points="88.4563,-13.146 78.9604,-17.8448 89.3139,-20.0933 88.4563,-13.146"/>
<text text-anchor="middle" x="333.739" y="-18.3" font-family="Times,serif" font-size="14.00">{c1, c2}</text>
</g>
<!-- 4&#45;&gt;4 -->
<g id="edge17" class="edge"><title>4&#45;&gt;4</title>
<path fill="none" stroke="black" d="M78.9814,-26.305C158.887,-37.8412 357.239,-36.4062 357.239,-22 357.239,-8.17056 174.453,-6.29446 89.1288,-16.3717"/>
<polygon fill="black" stroke="black" points="88.4448,-12.9312 78.9814,-17.695 89.35,-19.8724 88.4448,-12.9312"/>
<text text-anchor="middle" x="380.739" y="-18.3" font-family="Times,serif" font-size="14.00">{c0, c1}</text>
</g>
</g>
</svg>
