<?xml version="1.0" encoding="UTF-8" standalone="no"?>
<!DOCTYPE svg PUBLIC "-//W3C//DTD SVG 1.1//EN"
 "http://www.w3.org/Graphics/SVG/1.1/DTD/svg11.dtd">
<!-- Generated by graphviz version 2.40.1 (20161225.0304)
 -->
<!-- Title: %3 Pages: 1 -->
<svg width="300pt" height="386pt"
 viewBox="0.00 0.00 299.71 386.00" xmlns="http://www.w3.org/2000/svg" xmlns:xlink="http://www.w3.org/1999/xlink">
<g id="graph0" class="graph" transform="scale(1 1) rotate(0) translate(4 382)">
<title>%3</title>
<polygon fill="#ffffff" stroke="transparent" points="-4,4 -4,-382 295.7067,-382 295.7067,4 -4,4"/>
<!-- fake -->
<g id="node1" class="node">
<title>fake</title>
</g>
<!-- 0 -->
<g id="node4" class="node">
<title>0</title>
<ellipse fill="none" stroke="#000000" cx="134.7067" cy="-287" rx="27" ry="18"/>
<text text-anchor="middle" x="134.7067" y="-283.3" font-family="Times,serif" font-size="14.00" fill="#000000">0</text>
</g>
<!-- fake&#45;&gt;0 -->
<g id="edge1" class="edge">
<title>fake&#45;&gt;0</title>
<path fill="none" stroke="#000000" stroke-width="2" d="M134.7067,-341.9551C134.7067,-333.8828 134.7067,-324.1764 134.7067,-315.1817"/>
<polygon fill="#000000" stroke="#000000" stroke-width="2" points="138.2068,-315.0903 134.7067,-305.0904 131.2068,-315.0904 138.2068,-315.0903"/>
</g>
<!-- 2 -->
<g id="node2" class="node">
<title>2</title>
<ellipse fill="none" stroke="#000000" cx="50.7067" cy="-113" rx="27" ry="18"/>
<text text-anchor="middle" x="50.7067" y="-109.3" font-family="Times,serif" font-size="14.00" fill="#000000">2</text>
</g>
<!-- 2&#45;&gt;2 -->
<g id="edge9" class="edge">
<title>2&#45;&gt;2</title>
<path fill="none" stroke="#000000" d="M75.2392,-120.752C86.2145,-121.4902 95.7067,-118.9063 95.7067,-113 95.7067,-109.0317 91.4218,-106.5632 85.2811,-105.5944"/>
<polygon fill="#000000" stroke="#000000" points="85.3539,-102.0949 75.2392,-105.248 85.1126,-109.0908 85.3539,-102.0949"/>
<text text-anchor="middle" x="102.7067" y="-109.3" font-family="Times,serif" font-size="14.00" fill="#000000">{}</text>
</g>
<!-- 3 -->
<g id="node3" class="node">
<title>3</title>
<ellipse fill="none" stroke="#000000" cx="226.7067" cy="-22" rx="18" ry="18"/>
<ellipse fill="none" stroke="#000000" cx="226.7067" cy="-22" rx="22" ry="22"/>
<text text-anchor="middle" x="226.7067" y="-18.3" font-family="Times,serif" font-size="14.00" fill="#000000">3</text>
</g>
<!-- 2&#45;&gt;3 -->
<g id="edge6" class="edge">
<title>2&#45;&gt;3</title>
<path fill="none" stroke="#000000" d="M72.2878,-101.8416C103.8353,-85.5301 162.6099,-55.141 197.8433,-36.9237"/>
<polygon fill="#000000" stroke="#000000" points="199.8391,-39.832 207.1145,-32.1301 196.6241,-33.614 199.8391,-39.832"/>
<text text-anchor="middle" x="162.2067" y="-65.8" font-family="Times,serif" font-size="14.00" fill="#000000">{c2}</text>
</g>
<!-- 2&#45;&gt;0 -->
<g id="edge7" class="edge">
<title>2&#45;&gt;0</title>
<path fill="none" stroke="#000000" d="M44.8019,-130.6701C38.6501,-152.0161 31.2503,-188.7071 41.7067,-218 51.2874,-244.8393 78.7716,-263.1113 101.3952,-274.0748"/>
<polygon fill="#000000" stroke="#000000" points="100.1762,-277.3656 110.7271,-278.3296 103.0803,-270.9964 100.1762,-277.3656"/>
<text text-anchor="middle" x="55.2067" y="-196.3" font-family="Times,serif" font-size="14.00" fill="#000000">{c0}</text>
</g>
<!-- 2&#45;&gt;0 -->
<g id="edge8" class="edge">
<title>2&#45;&gt;0</title>
<path fill="none" stroke="#000000" d="M35.4994,-128.1493C16.7671,-148.7365 -10.7842,-186.5846 4.7067,-218 22.2962,-253.6711 66.5562,-271.4733 98.5514,-279.9486"/>
<polygon fill="#000000" stroke="#000000" points="97.9127,-283.3957 108.4591,-282.3835 99.5833,-276.598 97.9127,-283.3957"/>
<text text-anchor="middle" x="18.2067" y="-196.3" font-family="Times,serif" font-size="14.00" fill="#000000">{c1}</text>
</g>
<!-- 3&#45;&gt;3 -->
<g id="edge5" class="edge">
<title>3&#45;&gt;3</title>
<path fill="none" stroke="#000000" d="M247.2875,-30.3702C257.5515,-31.5284 266.7067,-28.7383 266.7067,-22 266.7067,-17.6833 262.9494,-14.9869 257.5503,-13.9109"/>
<polygon fill="#000000" stroke="#000000" points="257.3797,-10.405 247.2875,-13.6298 257.1879,-17.4024 257.3797,-10.405"/>
<text text-anchor="middle" x="273.7067" y="-18.3" font-family="Times,serif" font-size="14.00" fill="#000000">{}</text>
</g>
<!-- 3&#45;&gt;0 -->
<g id="edge2" class="edge">
<title>3&#45;&gt;0</title>
<path fill="none" stroke="#000000" d="M222.9231,-43.8314C214.0122,-93.8246 190.931,-215.0648 170.7067,-251 167.7074,-256.3293 163.6998,-261.4075 159.4479,-265.9811"/>
<polygon fill="#000000" stroke="#000000" points="156.8428,-263.6351 152.1967,-273.1569 161.7666,-268.6106 156.8428,-263.6351"/>
<text text-anchor="middle" x="214.2067" y="-152.8" font-family="Times,serif" font-size="14.00" fill="#000000">{c2}</text>
</g>
<!-- 3&#45;&gt;0 -->
<g id="edge3" class="edge">
<title>3&#45;&gt;0</title>
<path fill="none" stroke="#000000" d="M230.5986,-44.0226C234.8144,-72.259 239.6965,-122.5274 229.7067,-164 219.652,-205.7427 215.7577,-218.4931 187.7067,-251 181.3027,-258.4213 173.0272,-264.9992 164.9276,-270.435"/>
<polygon fill="#000000" stroke="#000000" points="162.8975,-267.5773 156.3045,-275.8709 166.6304,-273.4989 162.8975,-267.5773"/>
<text text-anchor="middle" x="245.2067" y="-152.8" font-family="Times,serif" font-size="14.00" fill="#000000">{c0}</text>
</g>
<!-- 3&#45;&gt;0 -->
<g id="edge4" class="edge">
<title>3&#45;&gt;0</title>
<path fill="none" stroke="#000000" d="M237.9445,-41.3321C252.4093,-68.6935 274.3697,-120.258 262.7067,-164 250.8597,-208.4322 242.0824,-221.621 206.7067,-251 195.3121,-260.4631 181.0116,-268.261 168.1644,-274.1506"/>
<polygon fill="#000000" stroke="#000000" points="166.4637,-271.0738 158.6955,-278.2784 169.261,-277.4906 166.4637,-271.0738"/>
<text text-anchor="middle" x="278.2067" y="-152.8" font-family="Times,serif" font-size="14.00" fill="#000000">{c1}</text>
</g>
<!-- 0&#45;&gt;0 -->
<g id="edge10" class="edge">
<title>0&#45;&gt;0</title>
<path fill="none" stroke="#000000" d="M161.5016,-289.2451C171.4871,-289.3187 179.7067,-288.5703 179.7067,-287 179.7067,-286.0186 176.496,-285.3582 171.65,-285.0189"/>
<polygon fill="#000000" stroke="#000000" points="171.5893,-281.5162 161.5016,-284.7549 171.4072,-288.5139 171.5893,-281.5162"/>
<text text-anchor="middle" x="193.2067" y="-283.3" font-family="Times,serif" font-size="14.00" fill="#000000">{c2}</text>
</g>
<!-- 0&#45;&gt;0 -->
<g id="edge12" class="edge">
<title>0&#45;&gt;0</title>
<path fill="none" stroke="#000000" d="M161.0847,-290.8933C182.8744,-292.3993 206.7067,-291.1016 206.7067,-287 206.7067,-283.5233 189.5827,-282.0612 171.094,-282.6136"/>
<polygon fill="#000000" stroke="#000000" points="170.9003,-279.1188 161.0847,-283.1067 171.2448,-286.1103 170.9003,-279.1188"/>
<text text-anchor="middle" x="220.2067" y="-283.3" font-family="Times,serif" font-size="14.00" fill="#000000">{c1}</text>
</g>
<!-- 0&#45;&gt;0 -->
<g id="edge13" class="edge">
<title>0&#45;&gt;0</title>
<path fill="none" stroke="#000000" d="M161.0725,-292.0094C192.7838,-295.4549 233.7067,-293.7852 233.7067,-287 233.7067,-280.9305 200.9607,-278.9542 171.3547,-281.0711"/>
<polygon fill="#000000" stroke="#000000" points="170.7209,-277.6138 161.0725,-281.9906 171.3445,-284.5859 170.7209,-277.6138"/>
<text text-anchor="middle" x="240.7067" y="-283.3" font-family="Times,serif" font-size="14.00" fill="#000000">{}</text>
</g>
<!-- 1 -->
<g id="node5" class="node">
<title>1</title>
<ellipse fill="none" stroke="#000000" cx="104.7067" cy="-200" rx="27" ry="18"/>
<text text-anchor="middle" x="104.7067" y="-196.3" font-family="Times,serif" font-size="14.00" fill="#000000">1</text>
</g>
<!-- 0&#45;&gt;1 -->
<g id="edge11" class="edge">
<title>0&#45;&gt;1</title>
<path fill="none" stroke="#000000" d="M121.7215,-271.0413C117.5299,-265.0848 113.3005,-258.0496 110.7067,-251 108.1122,-243.9483 106.5757,-236.012 105.6818,-228.5378"/>
<polygon fill="#000000" stroke="#000000" points="109.1553,-228.0793 104.8027,-218.4198 102.1815,-228.6853 109.1553,-228.0793"/>
<text text-anchor="middle" x="124.2067" y="-239.8" font-family="Times,serif" font-size="14.00" fill="#000000">{c0}</text>
</g>
<!-- 1&#45;&gt;2 -->
<g id="edge16" class="edge">
<title>1&#45;&gt;2</title>
<path fill="none" stroke="#000000" d="M94.295,-183.2255C86.3763,-170.4677 75.3496,-152.7024 66.3683,-138.2325"/>
<polygon fill="#000000" stroke="#000000" points="69.3339,-136.3736 61.0865,-129.723 63.3864,-140.0652 69.3339,-136.3736"/>
<text text-anchor="middle" x="94.2067" y="-152.8" font-family="Times,serif" font-size="14.00" fill="#000000">{c1}</text>
</g>
<!-- 1&#45;&gt;0 -->
<g id="edge14" class="edge">
<title>1&#45;&gt;0</title>
<path fill="none" stroke="#000000" d="M122.063,-213.968C128.2309,-220.0124 134.4486,-227.6241 137.7067,-236 140.4921,-243.1605 141.0489,-251.3146 140.5665,-258.97"/>
<polygon fill="#000000" stroke="#000000" points="137.084,-258.616 139.3761,-268.9599 144.0348,-259.4443 137.084,-258.616"/>
<text text-anchor="middle" x="153.2067" y="-239.8" font-family="Times,serif" font-size="14.00" fill="#000000">{c2}</text>
</g>
<!-- 1&#45;&gt;0 -->
<g id="edge15" class="edge">
<title>1&#45;&gt;0</title>
<path fill="none" stroke="#000000" d="M87.9407,-214.2651C78.0546,-224.4782 68.7272,-238.5651 75.7067,-251 81.4174,-261.1743 91.3016,-268.8133 101.3651,-274.3751"/>
<polygon fill="#000000" stroke="#000000" points="100.0274,-277.6181 110.5429,-278.9121 103.1295,-271.343 100.0274,-277.6181"/>
<text text-anchor="middle" x="89.2067" y="-239.8" font-family="Times,serif" font-size="14.00" fill="#000000">{c0}</text>
</g>
<!-- 1&#45;&gt;1 -->
<g id="edge17" class="edge">
<title>1&#45;&gt;1</title>
<path fill="none" stroke="#000000" d="M129.2392,-207.752C140.2145,-208.4902 149.7067,-205.9063 149.7067,-200 149.7067,-196.0317 145.4218,-193.5632 139.2811,-192.5944"/>
<polygon fill="#000000" stroke="#000000" points="139.3539,-189.0949 129.2392,-192.248 139.1126,-196.0908 139.3539,-189.0949"/>
<text text-anchor="middle" x="156.7067" y="-196.3" font-family="Times,serif" font-size="14.00" fill="#000000">{}</text>
</g>
</g>
</svg>
