<?xml version="1.0" encoding="UTF-8" standalone="no"?>
<!DOCTYPE svg PUBLIC "-//W3C//DTD SVG 1.1//EN"
 "http://www.w3.org/Graphics/SVG/1.1/DTD/svg11.dtd">
<!-- Generated by graphviz version 2.38.0 (20140413.2041)
 -->
<!-- Title: %3 Pages: 1 -->
<svg width="1049pt" height="386pt"
 viewBox="0.00 0.00 1049.07 386.00" xmlns="http://www.w3.org/2000/svg" xmlns:xlink="http://www.w3.org/1999/xlink">
<g id="graph0" class="graph" transform="scale(1 1) rotate(0) translate(4 382)">
<title>%3</title>
<polygon fill="white" stroke="none" points="-4,4 -4,-382 1045.07,-382 1045.07,4 -4,4"/>
<!-- fake -->
<g id="node1" class="node"><title>fake</title>
</g>
<!-- 0 -->
<g id="node2" class="node"><title>0</title>
<ellipse fill="none" stroke="black" cx="552.073" cy="-287" rx="27" ry="18"/>
<text text-anchor="middle" x="552.073" y="-283.3" font-family="Times,serif" font-size="14.00">0</text>
</g>
<!-- fake&#45;&gt;0 -->
<g id="edge1" class="edge"><title>fake&#45;&gt;0</title>
<path fill="none" stroke="black" stroke-width="2" d="M552.073,-341.813C552.073,-333.789 552.073,-324.047 552.073,-315.069"/>
<polygon fill="black" stroke="black" stroke-width="2" points="555.573,-315.029 552.073,-305.029 548.573,-315.029 555.573,-315.029"/>
</g>
<!-- 0&#45;&gt;0 -->
<g id="edge11" class="edge"><title>0&#45;&gt;0</title>
<path fill="none" stroke="black" d="M577.516,-293.691C588.101,-294.152 597.073,-291.922 597.073,-287 597.073,-283.77 593.209,-281.699 587.561,-280.788"/>
<polygon fill="black" stroke="black" points="587.671,-277.289 577.516,-280.309 587.338,-284.281 587.671,-277.289"/>
<text text-anchor="middle" x="604.073" y="-283.3" font-family="Times,serif" font-size="14.00">{}</text>
</g>
<!-- 1 -->
<g id="node3" class="node"><title>1</title>
<ellipse fill="none" stroke="black" cx="432.073" cy="-200" rx="27" ry="18"/>
<text text-anchor="middle" x="432.073" y="-196.3" font-family="Times,serif" font-size="14.00">1</text>
</g>
<!-- 0&#45;&gt;1 -->
<g id="edge10" class="edge"><title>0&#45;&gt;1</title>
<path fill="none" stroke="black" d="M524.906,-285.08C477.635,-282.846 383.346,-275.372 363.073,-251 349.104,-234.207 374.204,-220.152 397.951,-211.263"/>
<polygon fill="black" stroke="black" points="399.303,-214.498 407.584,-207.889 396.989,-207.891 399.303,-214.498"/>
<text text-anchor="middle" x="386.573" y="-239.8" font-family="Times,serif" font-size="14.00">{c0, c1}</text>
</g>
<!-- 0&#45;&gt;1 -->
<g id="edge12" class="edge"><title>0&#45;&gt;1</title>
<path fill="none" stroke="black" d="M525.063,-286.552C497.06,-285.496 454.447,-278.979 433.073,-251 428.162,-244.572 426.693,-236.2 426.812,-228.15"/>
<polygon fill="black" stroke="black" points="430.32,-228.217 427.726,-217.944 423.347,-227.592 430.32,-228.217"/>
<text text-anchor="middle" x="446.573" y="-239.8" font-family="Times,serif" font-size="14.00">{c0}</text>
</g>
<!-- 0&#45;&gt;1 -->
<g id="edge13" class="edge"><title>0&#45;&gt;1</title>
<path fill="none" stroke="black" d="M529.645,-276.738C515.644,-270.456 497.587,-261.416 483.073,-251 472.054,-243.093 461.142,-232.815 452.256,-223.636"/>
<polygon fill="black" stroke="black" points="454.714,-221.141 445.31,-216.26 449.617,-225.94 454.714,-221.141"/>
<text text-anchor="middle" x="506.573" y="-239.8" font-family="Times,serif" font-size="14.00">{c0, c2}</text>
</g>
<!-- 0&#45;&gt;1 -->
<g id="edge14" class="edge"><title>0&#45;&gt;1</title>
<path fill="none" stroke="black" d="M548.326,-269.134C545.132,-258.35 539.513,-244.788 530.073,-236 513.105,-220.203 488.524,-211.449 468.226,-206.646"/>
<polygon fill="black" stroke="black" points="468.874,-203.205 458.362,-204.535 467.409,-210.05 468.874,-203.205"/>
<text text-anchor="middle" x="573.573" y="-239.8" font-family="Times,serif" font-size="14.00">{c0, c1, c2}</text>
</g>
<!-- 2 -->
<g id="node4" class="node"><title>2</title>
<ellipse fill="none" stroke="black" cx="567.073" cy="-22" rx="27" ry="18"/>
<text text-anchor="middle" x="567.073" y="-18.3" font-family="Times,serif" font-size="14.00">2</text>
</g>
<!-- 0&#45;&gt;2 -->
<g id="edge15" class="edge"><title>0&#45;&gt;2</title>
<path fill="none" stroke="black" d="M575.915,-278.435C588.779,-272.997 603.529,-264.247 611.073,-251 648.896,-184.585 606.565,-91.4922 582.056,-47.662"/>
<polygon fill="black" stroke="black" points="585.004,-45.767 576.988,-38.8395 578.934,-49.254 585.004,-45.767"/>
<text text-anchor="middle" x="637.573" y="-152.8" font-family="Times,serif" font-size="14.00">{c2}</text>
</g>
<!-- 0&#45;&gt;2 -->
<g id="edge16" class="edge"><title>0&#45;&gt;2</title>
<path fill="none" stroke="black" d="M577.203,-280.152C593.801,-275.063 614.853,-266.07 628.073,-251 654.771,-220.564 649.004,-204.029 655.073,-164 662.505,-114.974 620.307,-68.2327 591.76,-42.7998"/>
<polygon fill="black" stroke="black" points="593.979,-40.0922 584.122,-36.2073 589.405,-45.3911 593.979,-40.0922"/>
<text text-anchor="middle" x="668.573" y="-152.8" font-family="Times,serif" font-size="14.00">{c1}</text>
</g>
<!-- 0&#45;&gt;2 -->
<g id="edge17" class="edge"><title>0&#45;&gt;2</title>
<path fill="none" stroke="black" d="M578.125,-281.769C598.878,-277.237 627.585,-268.232 647.073,-251 658.744,-240.679 685.718,-165.811 686.073,-164 695.974,-113.457 670.224,-95.4637 631.073,-62 620.796,-53.2157 608.318,-45.1373 597.118,-38.6389"/>
<polygon fill="black" stroke="black" points="598.522,-35.413 588.088,-33.571 595.096,-41.5174 598.522,-35.413"/>
<text text-anchor="middle" x="710.573" y="-152.8" font-family="Times,serif" font-size="14.00">{c1, c2}</text>
</g>
<!-- 1&#45;&gt;1 -->
<g id="edge21" class="edge"><title>1&#45;&gt;1</title>
<path fill="none" stroke="black" d="M456.605,-207.752C467.581,-208.49 477.073,-205.906 477.073,-200 477.073,-196.032 472.788,-193.563 466.647,-192.594"/>
<polygon fill="black" stroke="black" points="466.72,-189.095 456.605,-192.248 466.479,-196.091 466.72,-189.095"/>
<text text-anchor="middle" x="484.073" y="-196.3" font-family="Times,serif" font-size="14.00">{}</text>
</g>
<!-- 1&#45;&gt;2 -->
<g id="edge23" class="edge"><title>1&#45;&gt;2</title>
<path fill="none" stroke="black" d="M431.187,-181.75C430.811,-160.221 432.611,-122.845 447.073,-95 467.203,-56.2403 491.558,-62.6055 531.073,-44 533.712,-42.7574 536.412,-41.3855 539.09,-39.9557"/>
<polygon fill="black" stroke="black" points="540.966,-42.9166 547.979,-34.9756 537.544,-36.8096 540.966,-42.9166"/>
<text text-anchor="middle" x="460.573" y="-109.3" font-family="Times,serif" font-size="14.00">{c2}</text>
</g>
<!-- 1&#45;&gt;2 -->
<g id="edge24" class="edge"><title>1&#45;&gt;2</title>
<path fill="none" stroke="black" d="M443.576,-183.399C458.682,-162.973 486.102,-126.106 510.073,-95 522.645,-78.6859 537.044,-60.5017 548.224,-46.4894"/>
<polygon fill="black" stroke="black" points="551.214,-48.3544 554.725,-38.3579 545.747,-43.9834 551.214,-48.3544"/>
<text text-anchor="middle" x="533.573" y="-109.3" font-family="Times,serif" font-size="14.00">{c0, c2}</text>
</g>
<!-- 1&#45;&gt;2 -->
<g id="edge25" class="edge"><title>1&#45;&gt;2</title>
<path fill="none" stroke="black" d="M457.094,-193.008C486.429,-184.551 533.971,-166.073 557.073,-131 572.81,-107.107 573.39,-73.5325 571.26,-50.1847"/>
<polygon fill="black" stroke="black" points="574.703,-49.4804 570.094,-39.9404 567.748,-50.2721 574.703,-49.4804"/>
<text text-anchor="middle" x="582.573" y="-109.3" font-family="Times,serif" font-size="14.00">{c0}</text>
</g>
<!-- 3 -->
<g id="node5" class="node"><title>3</title>
<ellipse fill="none" stroke="black" cx="231.073" cy="-113" rx="27" ry="18"/>
<text text-anchor="middle" x="231.073" y="-109.3" font-family="Times,serif" font-size="14.00">3</text>
</g>
<!-- 1&#45;&gt;3 -->
<g id="edge18" class="edge"><title>1&#45;&gt;3</title>
<path fill="none" stroke="black" d="M405.148,-197.496C339.99,-193.582 177.985,-182.108 162.073,-164 147.654,-147.591 172.823,-133.477 196.709,-124.47"/>
<polygon fill="black" stroke="black" points="198.14,-127.676 206.403,-121.045 195.808,-121.076 198.14,-127.676"/>
<text text-anchor="middle" x="185.573" y="-152.8" font-family="Times,serif" font-size="14.00">{c1, c2}</text>
</g>
<!-- 1&#45;&gt;3 -->
<g id="edge19" class="edge"><title>1&#45;&gt;3</title>
<path fill="none" stroke="black" d="M404.953,-198.348C355.586,-196.532 254.099,-189.69 232.073,-164 226.669,-157.697 225.162,-149.127 225.396,-140.862"/>
<polygon fill="black" stroke="black" points="228.894,-141.062 226.46,-130.75 221.932,-140.329 228.894,-141.062"/>
<text text-anchor="middle" x="245.573" y="-152.8" font-family="Times,serif" font-size="14.00">{c1}</text>
</g>
<!-- 1&#45;&gt;3 -->
<g id="edge20" class="edge"><title>1&#45;&gt;3</title>
<path fill="none" stroke="black" d="M405.322,-197.132C374.054,-193.994 321.565,-185.696 282.073,-164 269.847,-157.283 258.517,-146.814 249.657,-137.187"/>
<polygon fill="black" stroke="black" points="252.054,-134.612 242.83,-129.4 246.791,-139.227 252.054,-134.612"/>
<text text-anchor="middle" x="315.573" y="-152.8" font-family="Times,serif" font-size="14.00">{c0, c1, c2}</text>
</g>
<!-- 1&#45;&gt;3 -->
<g id="edge22" class="edge"><title>1&#45;&gt;3</title>
<path fill="none" stroke="black" d="M412.198,-187.738C400.443,-180.994 385.311,-172.171 372.073,-164 361.688,-157.59 360.15,-154.122 349.073,-149 322.429,-136.68 290.401,-127.503 266.439,-121.645"/>
<polygon fill="black" stroke="black" points="267.241,-118.238 256.703,-119.337 265.627,-125.049 267.241,-118.238"/>
<text text-anchor="middle" x="395.573" y="-152.8" font-family="Times,serif" font-size="14.00">{c0, c1}</text>
</g>
<!-- 2&#45;&gt;2 -->
<g id="edge34" class="edge"><title>2&#45;&gt;2</title>
<path fill="none" stroke="black" d="M594.314,-23.4985C604.097,-23.5308 612.073,-23.0312 612.073,-22 612.073,-21.3716 609.111,-20.9406 604.583,-20.7071"/>
<polygon fill="black" stroke="black" points="604.382,-17.2025 594.314,-20.5015 604.241,-24.2011 604.382,-17.2025"/>
<text text-anchor="middle" x="625.573" y="-18.3" font-family="Times,serif" font-size="14.00">{c2}</text>
</g>
<!-- 2&#45;&gt;2 -->
<g id="edge35" class="edge"><title>2&#45;&gt;2</title>
<path fill="none" stroke="black" d="M593.825,-24.6125C615.512,-25.5896 639.073,-24.7187 639.073,-22 639.073,-19.7061 622.3,-18.7277 604.031,-19.0648"/>
<polygon fill="black" stroke="black" points="603.709,-15.5731 593.825,-19.3875 603.93,-22.5696 603.709,-15.5731"/>
<text text-anchor="middle" x="652.573" y="-18.3" font-family="Times,serif" font-size="14.00">{c1}</text>
</g>
<!-- 2&#45;&gt;2 -->
<g id="edge36" class="edge"><title>2&#45;&gt;2</title>
<path fill="none" stroke="black" d="M593.932,-25.375C625.573,-27.625 666.073,-26.5 666.073,-22 666.073,-17.9746 633.665,-16.6498 604.181,-18.0257"/>
<polygon fill="black" stroke="black" points="603.711,-14.5471 593.932,-18.625 604.119,-21.5352 603.711,-14.5471"/>
<text text-anchor="middle" x="689.573" y="-18.3" font-family="Times,serif" font-size="14.00">{c0, c1}</text>
</g>
<!-- 2&#45;&gt;2 -->
<g id="edge37" class="edge"><title>2&#45;&gt;2</title>
<path fill="none" stroke="black" d="M593.793,-25.7433C639.547,-29.7009 713.073,-28.4531 713.073,-22 713.073,-16.0006 649.523,-14.5003 603.821,-17.4991"/>
<polygon fill="black" stroke="black" points="603.501,-14.0132 593.793,-18.2567 604.029,-20.9933 603.501,-14.0132"/>
<text text-anchor="middle" x="720.073" y="-18.3" font-family="Times,serif" font-size="14.00">{}</text>
</g>
<!-- 2&#45;&gt;2 -->
<g id="edge38" class="edge"><title>2&#45;&gt;2</title>
<path fill="none" stroke="black" d="M593.368,-26.2315C644.944,-31.7113 731.073,-30.3008 731.073,-22 731.073,-14.218 655.374,-12.492 603.414,-16.8218"/>
<polygon fill="black" stroke="black" points="602.995,-13.3457 593.368,-17.7685 603.652,-20.3148 602.995,-13.3457"/>
<text text-anchor="middle" x="754.573" y="-18.3" font-family="Times,serif" font-size="14.00">{c1, c2}</text>
</g>
<!-- 2&#45;&gt;2 -->
<g id="edge39" class="edge"><title>2&#45;&gt;2</title>
<path fill="none" stroke="black" d="M593.301,-26.4511C656.59,-33.7493 778.073,-32.2656 778.073,-22 778.073,-12.2557 668.614,-10.424 603.369,-16.505"/>
<polygon fill="black" stroke="black" points="602.887,-13.0362 593.301,-17.5489 603.609,-19.9989 602.887,-13.0362"/>
<text text-anchor="middle" x="801.573" y="-18.3" font-family="Times,serif" font-size="14.00">{c0, c2}</text>
</g>
<!-- 2&#45;&gt;2 -->
<g id="edge40" class="edge"><title>2&#45;&gt;2</title>
<path fill="none" stroke="black" d="M593.297,-26.6551C667.295,-35.7744 825.073,-34.2227 825.073,-22 825.073,-10.3025 680.563,-8.37869 603.28,-16.2285"/>
<polygon fill="black" stroke="black" points="602.846,-12.7552 593.297,-17.3449 603.624,-19.7118 602.846,-12.7552"/>
<text text-anchor="middle" x="838.573" y="-18.3" font-family="Times,serif" font-size="14.00">{c0}</text>
</g>
<!-- 2&#45;&gt;2 -->
<g id="edge41" class="edge"><title>2&#45;&gt;2</title>
<path fill="none" stroke="black" d="M593.247,-26.9299C673.986,-37.7839 852.073,-36.1406 852.073,-22 852.073,-8.42555 687.961,-6.36771 603.395,-15.8265"/>
<polygon fill="black" stroke="black" points="602.747,-12.3797 593.247,-17.0701 603.598,-19.3277 602.747,-12.3797"/>
<text text-anchor="middle" x="885.573" y="-18.3" font-family="Times,serif" font-size="14.00">{c0, c1, c2}</text>
</g>
<!-- 3&#45;&gt;2 -->
<g id="edge31" class="edge"><title>3&#45;&gt;2</title>
<path fill="none" stroke="black" d="M242.656,-96.3586C252.307,-84.655 267.168,-69.4382 284.073,-62 384.82,-17.6704 425.933,-76.5707 531.073,-44 534.086,-43.0666 537.117,-41.8421 540.072,-40.4528"/>
<polygon fill="black" stroke="black" points="541.969,-43.4075 549.139,-35.6077 538.67,-37.2336 541.969,-43.4075"/>
<text text-anchor="middle" x="297.573" y="-65.8" font-family="Times,serif" font-size="14.00">{c1}</text>
</g>
<!-- 3&#45;&gt;2 -->
<g id="edge32" class="edge"><title>3&#45;&gt;2</title>
<path fill="none" stroke="black" d="M253.961,-103.166C270.223,-96.607 292.398,-87.0849 311.073,-77 321.811,-71.201 322.545,-66.0067 334.073,-62 417.12,-33.1352 447.333,-70.787 531.073,-44 534.077,-43.039 537.102,-41.7963 540.054,-40.3957"/>
<polygon fill="black" stroke="black" points="541.958,-43.3462 549.117,-35.5357 538.65,-37.1773 541.958,-43.3462"/>
<text text-anchor="middle" x="357.573" y="-65.8" font-family="Times,serif" font-size="14.00">{c0, c1}</text>
</g>
<!-- 3&#45;&gt;2 -->
<g id="edge33" class="edge"><title>3&#45;&gt;2</title>
<path fill="none" stroke="black" d="M257.415,-108.69C288.068,-104.202 339.757,-94.6422 381.073,-77 392.296,-72.2075 392.648,-66.2917 404.073,-62 457.44,-41.9521 477.223,-62.7122 531.073,-44 533.986,-42.9877 536.927,-41.7302 539.806,-40.3374"/>
<polygon fill="black" stroke="black" points="541.534,-43.3825 548.681,-35.5614 538.216,-37.2185 541.534,-43.3825"/>
<text text-anchor="middle" x="417.573" y="-65.8" font-family="Times,serif" font-size="14.00">{c0}</text>
</g>
<!-- 3&#45;&gt;3 -->
<g id="edge30" class="edge"><title>3&#45;&gt;3</title>
<path fill="none" stroke="black" d="M255.605,-120.752C266.581,-121.49 276.073,-118.906 276.073,-113 276.073,-109.032 271.788,-106.563 265.647,-105.594"/>
<polygon fill="black" stroke="black" points="265.72,-102.095 255.605,-105.248 265.479,-109.091 265.72,-102.095"/>
<text text-anchor="middle" x="283.073" y="-109.3" font-family="Times,serif" font-size="14.00">{}</text>
</g>
<!-- 4 -->
<g id="node6" class="node"><title>4</title>
<ellipse fill="none" stroke="black" cx="53.0728" cy="-22" rx="18" ry="18"/>
<ellipse fill="none" stroke="black" cx="53.0728" cy="-22" rx="22" ry="22"/>
<text text-anchor="middle" x="53.0728" y="-18.3" font-family="Times,serif" font-size="14.00">4</text>
</g>
<!-- 3&#45;&gt;4 -->
<g id="edge26" class="edge"><title>3&#45;&gt;4</title>
<path fill="none" stroke="black" d="M203.702,-112.022C149.061,-111.421 29.5127,-106.663 4.07282,-77 -7.50684,-63.4981 8.38573,-48.5502 25.0821,-37.811"/>
<polygon fill="black" stroke="black" points="26.9742,-40.7574 33.7453,-32.6086 23.3704,-34.7563 26.9742,-40.7574"/>
<text text-anchor="middle" x="17.5728" y="-65.8" font-family="Times,serif" font-size="14.00">{c2}</text>
</g>
<!-- 3&#45;&gt;4 -->
<g id="edge27" class="edge"><title>3&#45;&gt;4</title>
<path fill="none" stroke="black" d="M204.243,-110.682C159.572,-107.87 72.975,-99.5765 54.0728,-77 48.638,-70.5087 46.9124,-61.8791 46.9557,-53.4271"/>
<polygon fill="black" stroke="black" points="50.4523,-53.6068 47.7553,-43.361 43.4743,-53.0524 50.4523,-53.6068"/>
<text text-anchor="middle" x="77.5728" y="-65.8" font-family="Times,serif" font-size="14.00">{c1, c2}</text>
</g>
<!-- 3&#45;&gt;4 -->
<g id="edge28" class="edge"><title>3&#45;&gt;4</title>
<path fill="none" stroke="black" d="M205.907,-106.309C183.601,-100.681 150.553,-90.8932 124.073,-77 114.497,-71.9759 94.2389,-56.3627 77.8036,-43.209"/>
<polygon fill="black" stroke="black" points="79.6163,-40.1747 69.6342,-36.6238 75.2232,-45.6246 79.6163,-40.1747"/>
<text text-anchor="middle" x="147.573" y="-65.8" font-family="Times,serif" font-size="14.00">{c0, c2}</text>
</g>
<!-- 3&#45;&gt;4 -->
<g id="edge29" class="edge"><title>3&#45;&gt;4</title>
<path fill="none" stroke="black" d="M216.945,-97.5627C205.461,-86.5231 188.38,-71.612 171.073,-62 143.51,-46.6921 108.967,-36.153 84.3929,-29.9262"/>
<polygon fill="black" stroke="black" points="85.0651,-26.4876 74.5207,-27.5202 83.4076,-33.2886 85.0651,-26.4876"/>
<text text-anchor="middle" x="226.573" y="-65.8" font-family="Times,serif" font-size="14.00">{c0, c1, c2}</text>
</g>
<!-- 4&#45;&gt;4 -->
<g id="edge2" class="edge"><title>4&#45;&gt;4</title>
<path fill="none" stroke="black" d="M75.2852,-23.4821C84.8681,-23.6034 93.0728,-23.1094 93.0728,-22 93.0728,-21.324 90.0261,-20.8765 85.4774,-20.6574"/>
<polygon fill="black" stroke="black" points="85.3322,-17.1552 75.2852,-20.5179 85.2363,-24.1546 85.3322,-17.1552"/>
<text text-anchor="middle" x="106.573" y="-18.3" font-family="Times,serif" font-size="14.00">{c2}</text>
</g>
<!-- 4&#45;&gt;4 -->
<g id="edge3" class="edge"><title>4&#45;&gt;4</title>
<path fill="none" stroke="black" d="M75.1052,-24.4661C95.9806,-25.6658 120.073,-24.8437 120.073,-22 120.073,-19.6228 103.237,-18.6584 85.5189,-19.1067"/>
<polygon fill="black" stroke="black" points="84.9532,-15.6269 75.1052,-19.5339 85.2402,-22.621 84.9532,-15.6269"/>
<text text-anchor="middle" x="153.573" y="-18.3" font-family="Times,serif" font-size="14.00">{c0, c1, c2}</text>
</g>
<!-- 4&#45;&gt;4 -->
<g id="edge4" class="edge"><title>4&#45;&gt;4</title>
<path fill="none" stroke="black" d="M75.1388,-24.7641C115.68,-27.7846 187.073,-26.8633 187.073,-22 187.073,-17.5167 126.4,-16.3834 85.1568,-18.6001"/>
<polygon fill="black" stroke="black" points="84.897,-15.1095 75.1388,-19.2359 85.3404,-22.0954 84.897,-15.1095"/>
<text text-anchor="middle" x="200.573" y="-18.3" font-family="Times,serif" font-size="14.00">{c0}</text>
</g>
<!-- 4&#45;&gt;4 -->
<g id="edge5" class="edge"><title>4&#45;&gt;4</title>
<path fill="none" stroke="black" d="M75.0922,-25.2599C123.039,-29.7898 214.073,-28.7031 214.073,-22 214.073,-15.742 134.728,-14.3793 85.1748,-17.912"/>
<polygon fill="black" stroke="black" points="84.7721,-14.4332 75.0922,-18.7401 85.3452,-21.4097 84.7721,-14.4332"/>
<text text-anchor="middle" x="221.073" y="-18.3" font-family="Times,serif" font-size="14.00">{}</text>
</g>
<!-- 4&#45;&gt;4 -->
<g id="edge6" class="edge"><title>4&#45;&gt;4</title>
<path fill="none" stroke="black" d="M75.0559,-25.7093C128.397,-31.7911 232.073,-30.5547 232.073,-22 232.073,-13.9633 140.572,-12.3854 85.2643,-17.2665"/>
<polygon fill="black" stroke="black" points="84.6566,-13.8098 75.0559,-18.2907 85.3554,-20.7749 84.6566,-13.8098"/>
<text text-anchor="middle" x="255.573" y="-18.3" font-family="Times,serif" font-size="14.00">{c0, c1}</text>
</g>
<!-- 4&#45;&gt;4 -->
<g id="edge7" class="edge"><title>4&#45;&gt;4</title>
<path fill="none" stroke="black" d="M74.7978,-25.8846C138.594,-33.8183 279.073,-32.5234 279.073,-22 279.073,-12.011 152.499,-10.337 85.0815,-16.9781"/>
<polygon fill="black" stroke="black" points="84.3524,-13.5373 74.7978,-18.1154 85.1219,-20.4949 84.3524,-13.5373"/>
<text text-anchor="middle" x="302.573" y="-18.3" font-family="Times,serif" font-size="14.00">{c0, c2}</text>
</g>
<!-- 4&#45;&gt;4 -->
<g id="edge8" class="edge"><title>4&#45;&gt;4</title>
<path fill="none" stroke="black" d="M74.9961,-26.0913C148.658,-35.8325 326.073,-34.4688 326.073,-22 326.073,-10.067 163.577,-8.30518 85.0439,-16.7145"/>
<polygon fill="black" stroke="black" points="84.5132,-13.2529 74.9961,-17.9087 85.3394,-20.2039 84.5132,-13.2529"/>
<text text-anchor="middle" x="349.573" y="-18.3" font-family="Times,serif" font-size="14.00">{c1, c2}</text>
</g>
<!-- 4&#45;&gt;4 -->
<g id="edge9" class="edge"><title>4&#45;&gt;4</title>
<path fill="none" stroke="black" d="M74.8314,-26.2297C157.575,-37.8474 373.073,-36.4375 373.073,-22 373.073,-8.11237 173.677,-6.27888 84.8439,-16.4995"/>
<polygon fill="black" stroke="black" points="84.3111,-13.039 74.8314,-17.7703 85.1925,-19.9833 84.3111,-13.039"/>
<text text-anchor="middle" x="386.573" y="-18.3" font-family="Times,serif" font-size="14.00">{c1}</text>
</g>
</g>
</svg>
