<?xml version="1.0" encoding="UTF-8" standalone="no"?>
<!DOCTYPE svg PUBLIC "-//W3C//DTD SVG 1.1//EN"
 "http://www.w3.org/Graphics/SVG/1.1/DTD/svg11.dtd">
<!-- Generated by graphviz version 2.40.1 (20161225.0304)
 -->
<!-- Title: %3 Pages: 1 -->
<svg width="1069pt" height="386pt"
 viewBox="0.00 0.00 1069.48 386.00" xmlns="http://www.w3.org/2000/svg" xmlns:xlink="http://www.w3.org/1999/xlink">
<g id="graph0" class="graph" transform="scale(1 1) rotate(0) translate(4 382)">
<title>%3</title>
<polygon fill="#ffffff" stroke="transparent" points="-4,4 -4,-382 1065.4812,-382 1065.4812,4 -4,4"/>
<!-- fake -->
<g id="node1" class="node">
<title>fake</title>
</g>
<!-- 0 -->
<g id="node2" class="node">
<title>0</title>
<ellipse fill="none" stroke="#000000" cx="576.4812" cy="-287" rx="27" ry="18"/>
<text text-anchor="middle" x="576.4812" y="-283.3" font-family="Times,serif" font-size="14.00" fill="#000000">0</text>
</g>
<!-- fake&#45;&gt;0 -->
<g id="edge1" class="edge">
<title>fake&#45;&gt;0</title>
<path fill="none" stroke="#000000" stroke-width="2" d="M576.4812,-341.9551C576.4812,-333.8828 576.4812,-324.1764 576.4812,-315.1817"/>
<polygon fill="#000000" stroke="#000000" stroke-width="2" points="579.9813,-315.0903 576.4812,-305.0904 572.9813,-315.0904 579.9813,-315.0903"/>
</g>
<!-- 0&#45;&gt;0 -->
<g id="edge13" class="edge">
<title>0&#45;&gt;0</title>
<path fill="none" stroke="#000000" d="M601.9247,-293.6907C612.5091,-294.1521 621.4812,-291.9219 621.4812,-287 621.4812,-283.77 617.6172,-281.6992 611.9693,-280.7876"/>
<polygon fill="#000000" stroke="#000000" points="612.0799,-277.289 601.9247,-280.3093 611.7469,-284.2811 612.0799,-277.289"/>
<text text-anchor="middle" x="628.4812" y="-283.3" font-family="Times,serif" font-size="14.00" fill="#000000">{}</text>
</g>
<!-- 1 -->
<g id="node3" class="node">
<title>1</title>
<ellipse fill="none" stroke="#000000" cx="443.4812" cy="-200" rx="27" ry="18"/>
<text text-anchor="middle" x="443.4812" y="-196.3" font-family="Times,serif" font-size="14.00" fill="#000000">1</text>
</g>
<!-- 0&#45;&gt;1 -->
<g id="edge10" class="edge">
<title>0&#45;&gt;1</title>
<path fill="none" stroke="#000000" d="M549.7475,-284.3116C496.0362,-278.6404 379.135,-264.8327 367.4812,-251 351.8892,-232.4927 381.7466,-217.9559 408.4951,-209.2155"/>
<polygon fill="#000000" stroke="#000000" points="409.5867,-212.5417 418.1192,-206.2611 407.5324,-205.8499 409.5867,-212.5417"/>
<text text-anchor="middle" x="400.9812" y="-239.8" font-family="Times,serif" font-size="14.00" fill="#000000">{c0, c1, c2}</text>
</g>
<!-- 0&#45;&gt;1 -->
<g id="edge11" class="edge">
<title>0&#45;&gt;1</title>
<path fill="none" stroke="#000000" d="M550.3667,-282.1552C519.4153,-275.9075 470.3985,-264.2557 457.4812,-251 451.4677,-244.829 447.9818,-236.3289 445.9783,-228.0367"/>
<polygon fill="#000000" stroke="#000000" points="449.4225,-227.4135 444.1996,-218.1955 442.5341,-228.6586 449.4225,-227.4135"/>
<text text-anchor="middle" x="470.9812" y="-239.8" font-family="Times,serif" font-size="14.00" fill="#000000">{c0}</text>
</g>
<!-- 0&#45;&gt;1 -->
<g id="edge12" class="edge">
<title>0&#45;&gt;1</title>
<path fill="none" stroke="#000000" d="M554.12,-276.6901C540.3082,-269.9946 522.4304,-260.7273 507.4812,-251 493.7781,-242.0836 479.4631,-230.8786 467.8549,-221.244"/>
<polygon fill="#000000" stroke="#000000" points="469.8297,-218.331 459.9282,-214.5613 465.3177,-223.6829 469.8297,-218.331"/>
<text text-anchor="middle" x="530.9812" y="-239.8" font-family="Times,serif" font-size="14.00" fill="#000000">{c0, c1}</text>
</g>
<!-- 0&#45;&gt;1 -->
<g id="edge14" class="edge">
<title>0&#45;&gt;1</title>
<path fill="none" stroke="#000000" d="M572.6212,-268.7265C569.448,-257.8609 563.893,-244.5694 554.4812,-236 534.1248,-217.4657 504.1029,-208.4644 480.4127,-204.0979"/>
<polygon fill="#000000" stroke="#000000" points="480.7983,-200.6145 470.3634,-202.4481 479.6642,-207.522 480.7983,-200.6145"/>
<text text-anchor="middle" x="587.9812" y="-239.8" font-family="Times,serif" font-size="14.00" fill="#000000">{c0, c2}</text>
</g>
<!-- 2 -->
<g id="node4" class="node">
<title>2</title>
<ellipse fill="none" stroke="#000000" cx="587.4812" cy="-22" rx="27" ry="18"/>
<text text-anchor="middle" x="587.4812" y="-18.3" font-family="Times,serif" font-size="14.00" fill="#000000">2</text>
</g>
<!-- 0&#45;&gt;2 -->
<g id="edge15" class="edge">
<title>0&#45;&gt;2</title>
<path fill="none" stroke="#000000" d="M596.1006,-274.2881C603.6437,-268.2374 611.416,-260.285 615.4812,-251 645.3624,-182.7519 617.0373,-92.7811 599.3159,-48.687"/>
<polygon fill="#000000" stroke="#000000" points="602.4655,-47.1451 595.4002,-39.25 595.9999,-49.8278 602.4655,-47.1451"/>
<text text-anchor="middle" x="640.9812" y="-152.8" font-family="Times,serif" font-size="14.00" fill="#000000">{c1}</text>
</g>
<!-- 0&#45;&gt;2 -->
<g id="edge16" class="edge">
<title>0&#45;&gt;2</title>
<path fill="none" stroke="#000000" d="M599.0234,-276.8728C610.2148,-270.8139 623.0988,-262.1168 631.4812,-251 655.8561,-218.6739 652.4127,-204.0285 658.4812,-164 665.4079,-118.3116 632.8097,-71.5622 609.4861,-44.7375"/>
<polygon fill="#000000" stroke="#000000" points="611.8873,-42.1732 602.5995,-37.0755 606.6811,-46.8525 611.8873,-42.1732"/>
<text text-anchor="middle" x="671.9812" y="-152.8" font-family="Times,serif" font-size="14.00" fill="#000000">{c2}</text>
</g>
<!-- 0&#45;&gt;2 -->
<g id="edge17" class="edge">
<title>0&#45;&gt;2</title>
<path fill="none" stroke="#000000" d="M601.2144,-279.307C616.607,-273.5128 635.9749,-264.2714 649.4812,-251 660.3247,-240.3451 689.03,-166.211 689.4812,-164 699.4626,-115.0937 677.0489,-98.0074 642.4812,-62 634.6738,-53.8674 625.0389,-46.2367 616.0261,-39.865"/>
<polygon fill="#000000" stroke="#000000" points="617.8913,-36.9007 607.6554,-34.1664 613.9521,-42.6872 617.8913,-36.9007"/>
<text text-anchor="middle" x="714.9812" y="-152.8" font-family="Times,serif" font-size="14.00" fill="#000000">{c1, c2}</text>
</g>
<!-- 1&#45;&gt;1 -->
<g id="edge27" class="edge">
<title>1&#45;&gt;1</title>
<path fill="none" stroke="#000000" d="M468.0137,-207.752C478.989,-208.4902 488.4812,-205.9063 488.4812,-200 488.4812,-196.0317 484.1963,-193.5632 478.0555,-192.5944"/>
<polygon fill="#000000" stroke="#000000" points="478.1284,-189.0949 468.0137,-192.248 477.8871,-196.0908 478.1284,-189.0949"/>
<text text-anchor="middle" x="495.4812" y="-196.3" font-family="Times,serif" font-size="14.00" fill="#000000">{}</text>
</g>
<!-- 1&#45;&gt;2 -->
<g id="edge31" class="edge">
<title>1&#45;&gt;2</title>
<path fill="none" stroke="#000000" d="M442.3312,-181.8318C441.7257,-159.9954 443.2199,-122.8216 457.4812,-95 467.2337,-75.9744 473.9923,-72.7352 492.4812,-62 516.1899,-48.234 526.4746,-55.2373 551.4812,-44 554.1119,-42.8178 556.785,-41.4789 559.4252,-40.0593"/>
<polygon fill="#000000" stroke="#000000" points="561.2416,-43.0523 568.1657,-35.0332 557.752,-36.9841 561.2416,-43.0523"/>
<text text-anchor="middle" x="470.9812" y="-109.3" font-family="Times,serif" font-size="14.00" fill="#000000">{c0}</text>
</g>
<!-- 1&#45;&gt;2 -->
<g id="edge32" class="edge">
<title>1&#45;&gt;2</title>
<path fill="none" stroke="#000000" d="M454.687,-183.5748C469.2209,-162.547 495.6586,-125.2197 520.4812,-95 534.8532,-77.5032 552.1583,-58.7004 565.581,-44.56"/>
<polygon fill="#000000" stroke="#000000" points="568.2156,-46.8691 572.5954,-37.2219 563.1555,-42.0322 568.2156,-46.8691"/>
<text text-anchor="middle" x="543.9812" y="-109.3" font-family="Times,serif" font-size="14.00" fill="#000000">{c0, c2}</text>
</g>
<!-- 1&#45;&gt;2 -->
<g id="edge33" class="edge">
<title>1&#45;&gt;2</title>
<path fill="none" stroke="#000000" d="M468.5574,-193.1497C497.2205,-183.9517 543.2856,-164.7317 567.4812,-131 584.4019,-107.4104 588.3242,-73.7611 588.6925,-50.1062"/>
<polygon fill="#000000" stroke="#000000" points="592.1922,-49.9966 588.6456,-40.013 585.1922,-50.0292 592.1922,-49.9966"/>
<text text-anchor="middle" x="595.9812" y="-109.3" font-family="Times,serif" font-size="14.00" fill="#000000">{c2}</text>
</g>
<!-- 3 -->
<g id="node5" class="node">
<title>3</title>
<ellipse fill="none" stroke="#000000" cx="221.4812" cy="-113" rx="27" ry="18"/>
<text text-anchor="middle" x="221.4812" y="-109.3" font-family="Times,serif" font-size="14.00" fill="#000000">3</text>
</g>
<!-- 1&#45;&gt;3 -->
<g id="edge26" class="edge">
<title>1&#45;&gt;3</title>
<path fill="none" stroke="#000000" d="M416.4537,-198.4011C351.0482,-194.2574 188.4304,-182.208 172.4812,-164 161.7639,-151.7648 175.2583,-138.5362 190.7772,-128.6183"/>
<polygon fill="#000000" stroke="#000000" points="192.6427,-131.5814 199.4661,-123.4763 189.0776,-125.5572 192.6427,-131.5814"/>
<text text-anchor="middle" x="185.9812" y="-152.8" font-family="Times,serif" font-size="14.00" fill="#000000">{c1}</text>
</g>
<!-- 1&#45;&gt;3 -->
<g id="edge28" class="edge">
<title>1&#45;&gt;3</title>
<path fill="none" stroke="#000000" d="M416.5308,-197.5322C360.3976,-192.1223 235.0891,-178.5367 222.4812,-164 217.0958,-157.7907 215.4839,-149.3803 215.6172,-141.1808"/>
<polygon fill="#000000" stroke="#000000" points="219.1145,-141.3733 216.5668,-131.0893 212.1453,-140.7174 219.1145,-141.3733"/>
<text text-anchor="middle" x="245.9812" y="-152.8" font-family="Times,serif" font-size="14.00" fill="#000000">{c0, c1}</text>
</g>
<!-- 1&#45;&gt;3 -->
<g id="edge29" class="edge">
<title>1&#45;&gt;3</title>
<path fill="none" stroke="#000000" d="M416.8189,-196.8314C385.8249,-192.4368 333.6643,-182.8115 292.4812,-164 287.5578,-161.7511 266.074,-146.1717 248.0153,-132.8169"/>
<polygon fill="#000000" stroke="#000000" points="249.6291,-129.6561 239.5128,-126.5078 245.4578,-135.2775 249.6291,-129.6561"/>
<text text-anchor="middle" x="325.9812" y="-152.8" font-family="Times,serif" font-size="14.00" fill="#000000">{c0, c1, c2}</text>
</g>
<!-- 1&#45;&gt;3 -->
<g id="edge30" class="edge">
<title>1&#45;&gt;3</title>
<path fill="none" stroke="#000000" d="M423.0111,-188.2259C411.1044,-181.3013 395.8544,-172.3013 382.4812,-164 372.1124,-157.5637 370.6417,-153.9378 359.4812,-149 326.4083,-134.3675 286.1515,-124.7131 257.6749,-119.1196"/>
<polygon fill="#000000" stroke="#000000" points="258.2281,-115.6622 247.7516,-117.2409 256.9259,-122.5401 258.2281,-115.6622"/>
<text text-anchor="middle" x="405.9812" y="-152.8" font-family="Times,serif" font-size="14.00" fill="#000000">{c1, c2}</text>
</g>
<!-- 2&#45;&gt;2 -->
<g id="edge34" class="edge">
<title>2&#45;&gt;2</title>
<path fill="none" stroke="#000000" d="M614.722,-23.4985C624.5051,-23.5308 632.4812,-23.0312 632.4812,-22 632.4812,-21.3716 629.5194,-20.9406 624.9917,-20.7071"/>
<polygon fill="#000000" stroke="#000000" points="624.7901,-17.2025 614.722,-20.5015 624.6499,-24.2011 624.7901,-17.2025"/>
<text text-anchor="middle" x="655.9812" y="-18.3" font-family="Times,serif" font-size="14.00" fill="#000000">{c0, c1}</text>
</g>
<!-- 2&#45;&gt;2 -->
<g id="edge35" class="edge">
<title>2&#45;&gt;2</title>
<path fill="none" stroke="#000000" d="M614.3733,-24.4258C642.8025,-25.6836 679.4812,-24.875 679.4812,-22 679.4812,-19.4619 650.8954,-18.5343 624.6355,-19.2172"/>
<polygon fill="#000000" stroke="#000000" points="624.2455,-15.7285 614.3733,-19.5742 624.489,-22.7243 624.2455,-15.7285"/>
<text text-anchor="middle" x="692.9812" y="-18.3" font-family="Times,serif" font-size="14.00" fill="#000000">{c0}</text>
</g>
<!-- 2&#45;&gt;2 -->
<g id="edge36" class="edge">
<title>2&#45;&gt;2</title>
<path fill="none" stroke="#000000" d="M614.3003,-25.1733C651.7239,-27.6867 706.4812,-26.6289 706.4812,-22 706.4812,-17.7689 660.7309,-16.5215 624.2869,-18.2578"/>
<polygon fill="#000000" stroke="#000000" points="624.085,-14.7635 614.3003,-18.8267 624.4832,-21.7522 624.085,-14.7635"/>
<text text-anchor="middle" x="729.9812" y="-18.3" font-family="Times,serif" font-size="14.00" fill="#000000">{c0, c2}</text>
</g>
<!-- 2&#45;&gt;2 -->
<g id="edge37" class="edge">
<title>2&#45;&gt;2</title>
<path fill="none" stroke="#000000" d="M613.9653,-25.5675C664.4095,-29.7361 753.4812,-28.5469 753.4812,-22 753.4812,-15.8751 675.5214,-14.4395 624.1664,-17.6932"/>
<polygon fill="#000000" stroke="#000000" points="623.6861,-14.2187 613.9653,-18.4325 624.1921,-21.2004 623.6861,-14.2187"/>
<text text-anchor="middle" x="766.9812" y="-18.3" font-family="Times,serif" font-size="14.00" fill="#000000">{c1}</text>
</g>
<!-- 2&#45;&gt;2 -->
<g id="edge38" class="edge">
<title>2&#45;&gt;2</title>
<path fill="none" stroke="#000000" d="M613.9637,-26.0352C671.8592,-31.7435 780.4812,-30.3984 780.4812,-22 780.4812,-14.0773 683.8156,-12.4315 624.2607,-17.0627"/>
<polygon fill="#000000" stroke="#000000" points="623.6201,-13.6054 613.9637,-17.9648 624.231,-20.5786 623.6201,-13.6054"/>
<text text-anchor="middle" x="813.9812" y="-18.3" font-family="Times,serif" font-size="14.00" fill="#000000">{c0, c1, c2}</text>
</g>
<!-- 2&#45;&gt;2 -->
<g id="edge39" class="edge">
<title>2&#45;&gt;2</title>
<path fill="none" stroke="#000000" d="M613.9948,-26.1977C686.5257,-33.7821 847.4812,-32.3828 847.4812,-22 847.4812,-12.0836 700.6617,-10.3618 624.2821,-16.8345"/>
<polygon fill="#000000" stroke="#000000" points="623.623,-13.381 613.9948,-17.8023 624.2786,-20.3502 623.623,-13.381"/>
<text text-anchor="middle" x="854.4812" y="-18.3" font-family="Times,serif" font-size="14.00" fill="#000000">{}</text>
</g>
<!-- 2&#45;&gt;2 -->
<g id="edge40" class="edge">
<title>2&#45;&gt;2</title>
<path fill="none" stroke="#000000" d="M613.8096,-26.5629C691.2962,-35.7847 865.4812,-34.2637 865.4812,-22 865.4812,-10.2393 705.2918,-8.3582 623.8134,-16.3566"/>
<polygon fill="#000000" stroke="#000000" points="623.3759,-12.8834 613.8096,-17.4371 624.1276,-19.8429 623.3759,-12.8834"/>
<text text-anchor="middle" x="878.9812" y="-18.3" font-family="Times,serif" font-size="14.00" fill="#000000">{c2}</text>
</g>
<!-- 2&#45;&gt;2 -->
<g id="edge41" class="edge">
<title>2&#45;&gt;2</title>
<path fill="none" stroke="#000000" d="M613.5672,-26.8215C697.4862,-37.7947 892.4812,-36.1875 892.4812,-22 892.4812,-8.3528 712.0565,-6.346 623.6221,-15.9794"/>
<polygon fill="#000000" stroke="#000000" points="623.0824,-12.5189 613.5672,-17.1785 623.9114,-19.4697 623.0824,-12.5189"/>
<text text-anchor="middle" x="915.9812" y="-18.3" font-family="Times,serif" font-size="14.00" fill="#000000">{c1, c2}</text>
</g>
<!-- 3&#45;&gt;2 -->
<g id="edge7" class="edge">
<title>3&#45;&gt;2</title>
<path fill="none" stroke="#000000" d="M235.3067,-97.4897C247.0664,-85.4643 265.0935,-69.6073 284.4812,-62 395.1992,-18.5568 438.1396,-80.0481 551.4812,-44 554.4565,-43.0537 557.439,-41.8126 560.3439,-40.4012"/>
<polygon fill="#000000" stroke="#000000" points="562.2035,-43.3722 569.2545,-35.4643 558.811,-37.2492 562.2035,-43.3722"/>
<text text-anchor="middle" x="307.9812" y="-65.8" font-family="Times,serif" font-size="14.00" fill="#000000">{c0, c1}</text>
</g>
<!-- 3&#45;&gt;2 -->
<g id="edge8" class="edge">
<title>3&#45;&gt;2</title>
<path fill="none" stroke="#000000" d="M247.11,-106.6615C269.8826,-100.5548 303.7594,-90.292 331.4812,-77 342.4857,-71.7236 342.9536,-66.0067 354.4812,-62 437.5282,-33.1352 468.0196,-71.6429 551.4812,-44 554.445,-43.0184 557.4199,-41.7537 560.32,-40.3275"/>
<polygon fill="#000000" stroke="#000000" points="562.1894,-43.2927 569.2239,-35.3701 558.7842,-37.1767 562.1894,-43.2927"/>
<text text-anchor="middle" x="367.9812" y="-65.8" font-family="Times,serif" font-size="14.00" fill="#000000">{c0}</text>
</g>
<!-- 3&#45;&gt;2 -->
<g id="edge9" class="edge">
<title>3&#45;&gt;2</title>
<path fill="none" stroke="#000000" d="M248.1366,-109.9556C280.6371,-105.5846 336.7608,-95.8868 381.4812,-77 392.7237,-72.2519 393.0166,-66.1833 404.4812,-62 466.3148,-39.4379 489.3231,-65.6522 551.4812,-44 554.4296,-42.973 557.3942,-41.678 560.2879,-40.2329"/>
<polygon fill="#000000" stroke="#000000" points="562.1697,-43.1905 569.1827,-35.2489 558.7479,-37.0837 562.1697,-43.1905"/>
<text text-anchor="middle" x="417.9812" y="-65.8" font-family="Times,serif" font-size="14.00" fill="#000000">{c1}</text>
</g>
<!-- 3&#45;&gt;3 -->
<g id="edge6" class="edge">
<title>3&#45;&gt;3</title>
<path fill="none" stroke="#000000" d="M246.0137,-120.752C256.989,-121.4902 266.4812,-118.9063 266.4812,-113 266.4812,-109.0317 262.1963,-106.5632 256.0555,-105.5944"/>
<polygon fill="#000000" stroke="#000000" points="256.1284,-102.0949 246.0137,-105.248 255.8871,-109.0908 256.1284,-102.0949"/>
<text text-anchor="middle" x="273.4812" y="-109.3" font-family="Times,serif" font-size="14.00" fill="#000000">{}</text>
</g>
<!-- 4 -->
<g id="node6" class="node">
<title>4</title>
<ellipse fill="none" stroke="#000000" cx="73.4812" cy="-22" rx="18" ry="18"/>
<ellipse fill="none" stroke="#000000" cx="73.4812" cy="-22" rx="22" ry="22"/>
<text text-anchor="middle" x="73.4812" y="-18.3" font-family="Times,serif" font-size="14.00" fill="#000000">4</text>
</g>
<!-- 3&#45;&gt;4 -->
<g id="edge2" class="edge">
<title>3&#45;&gt;4</title>
<path fill="none" stroke="#000000" d="M194.5755,-110.4726C139.2097,-105.0001 16.6744,-91.3826 4.4812,-77 -10.9107,-58.8442 17.7986,-42.4669 42.7459,-32.3972"/>
<polygon fill="#000000" stroke="#000000" points="44.2708,-35.5617 52.3699,-28.7312 41.779,-29.0203 44.2708,-35.5617"/>
<text text-anchor="middle" x="27.9812" y="-65.8" font-family="Times,serif" font-size="14.00" fill="#000000">{c0, c2}</text>
</g>
<!-- 3&#45;&gt;4 -->
<g id="edge3" class="edge">
<title>3&#45;&gt;4</title>
<path fill="none" stroke="#000000" d="M194.529,-110.2863C156.294,-105.8219 89.2885,-95.5219 74.4812,-77 69.2241,-70.424 67.4691,-61.8549 67.4276,-53.4452"/>
<polygon fill="#000000" stroke="#000000" points="70.9234,-53.6245 68.1066,-43.411 63.9393,-53.1518 70.9234,-53.6245"/>
<text text-anchor="middle" x="107.9812" y="-65.8" font-family="Times,serif" font-size="14.00" fill="#000000">{c0, c1, c2}</text>
</g>
<!-- 3&#45;&gt;4 -->
<g id="edge4" class="edge">
<title>3&#45;&gt;4</title>
<path fill="none" stroke="#000000" d="M201.6517,-100.5753C190.6721,-93.6708 176.7937,-84.9025 164.4812,-77 154.2106,-70.4081 151.8546,-68.4289 141.4812,-62 128.493,-53.9506 113.911,-45.3204 101.5909,-38.1442"/>
<polygon fill="#000000" stroke="#000000" points="103.0809,-34.9624 92.6744,-32.9737 99.5694,-41.018 103.0809,-34.9624"/>
<text text-anchor="middle" x="177.9812" y="-65.8" font-family="Times,serif" font-size="14.00" fill="#000000">{c2}</text>
</g>
<!-- 3&#45;&gt;4 -->
<g id="edge5" class="edge">
<title>3&#45;&gt;4</title>
<path fill="none" stroke="#000000" d="M214.8103,-95.2104C209.8781,-84.253 202.159,-70.6869 191.4812,-62 166.7051,-41.8434 131.2539,-31.6316 105.6844,-26.5983"/>
<polygon fill="#000000" stroke="#000000" points="106.1952,-23.134 95.7322,-24.8003 104.9506,-30.0225 106.1952,-23.134"/>
<text text-anchor="middle" x="227.9812" y="-65.8" font-family="Times,serif" font-size="14.00" fill="#000000">{c1, c2}</text>
</g>
<!-- 4&#45;&gt;4 -->
<g id="edge18" class="edge">
<title>4&#45;&gt;4</title>
<path fill="none" stroke="#000000" d="M95.6936,-23.4821C105.2765,-23.6034 113.4812,-23.1094 113.4812,-22 113.4812,-21.324 110.4345,-20.8765 105.8858,-20.6574"/>
<polygon fill="#000000" stroke="#000000" points="105.7406,-17.1552 95.6936,-20.5179 105.6447,-24.1546 105.7406,-17.1552"/>
<text text-anchor="middle" x="136.9812" y="-18.3" font-family="Times,serif" font-size="14.00" fill="#000000">{c1, c2}</text>
</g>
<!-- 4&#45;&gt;4 -->
<g id="edge19" class="edge">
<title>4&#45;&gt;4</title>
<path fill="none" stroke="#000000" d="M95.6569,-24.2733C122.8142,-25.7421 160.4812,-24.9844 160.4812,-22 160.4812,-19.377 131.3843,-18.474 105.8994,-19.2911"/>
<polygon fill="#000000" stroke="#000000" points="105.4991,-15.8049 95.6569,-19.7267 105.7966,-22.7985 105.4991,-15.8049"/>
<text text-anchor="middle" x="173.9812" y="-18.3" font-family="Times,serif" font-size="14.00" fill="#000000">{c0}</text>
</g>
<!-- 4&#45;&gt;4 -->
<g id="edge20" class="edge">
<title>4&#45;&gt;4</title>
<path fill="none" stroke="#000000" d="M95.4842,-24.9136C131.177,-27.7524 187.4812,-26.7812 187.4812,-22 187.4812,-17.6483 140.8397,-16.4528 105.5479,-18.4135"/>
<polygon fill="#000000" stroke="#000000" points="105.2284,-14.927 95.4842,-19.0864 105.6954,-21.9114 105.2284,-14.927"/>
<text text-anchor="middle" x="200.9812" y="-18.3" font-family="Times,serif" font-size="14.00" fill="#000000">{c1}</text>
</g>
<!-- 4&#45;&gt;4 -->
<g id="edge21" class="edge">
<title>4&#45;&gt;4</title>
<path fill="none" stroke="#000000" d="M95.3168,-25.3852C138.9176,-29.769 214.4812,-28.6406 214.4812,-22 214.4812,-15.8522 149.7179,-14.4288 105.509,-17.7298"/>
<polygon fill="#000000" stroke="#000000" points="104.9765,-14.2628 95.3168,-18.6148 105.5821,-21.2366 104.9765,-14.2628"/>
<text text-anchor="middle" x="227.9812" y="-18.3" font-family="Times,serif" font-size="14.00" fill="#000000">{c2}</text>
</g>
<!-- 4&#45;&gt;4 -->
<g id="edge22" class="edge">
<title>4&#45;&gt;4</title>
<path fill="none" stroke="#000000" d="M95.1915,-25.7508C146.292,-31.7854 241.4812,-30.5352 241.4812,-22 241.4812,-13.9983 157.8188,-12.3993 105.2555,-17.2031"/>
<polygon fill="#000000" stroke="#000000" points="104.7761,-13.734 95.1915,-18.2492 105.4998,-20.6965 104.7761,-13.734"/>
<text text-anchor="middle" x="264.9812" y="-18.3" font-family="Times,serif" font-size="14.00" fill="#000000">{c0, c2}</text>
</g>
<!-- 4&#45;&gt;4 -->
<g id="edge23" class="edge">
<title>4&#45;&gt;4</title>
<path fill="none" stroke="#000000" d="M95.1609,-25.9375C157.0489,-33.8125 288.4812,-32.5 288.4812,-22 288.4812,-12.0332 170.0586,-10.3445 105.1008,-16.9339"/>
<polygon fill="#000000" stroke="#000000" points="104.7022,-13.4566 95.1609,-18.0625 105.492,-20.4119 104.7022,-13.4566"/>
<text text-anchor="middle" x="321.9812" y="-18.3" font-family="Times,serif" font-size="14.00" fill="#000000">{c0, c1, c2}</text>
</g>
<!-- 4&#45;&gt;4 -->
<g id="edge24" class="edge">
<title>4&#45;&gt;4</title>
<path fill="none" stroke="#000000" d="M95.2107,-26.0271C170.1167,-35.8384 355.4812,-34.4961 355.4812,-22 355.4812,-10.0408 185.7042,-8.2975 105.4549,-16.77"/>
<polygon fill="#000000" stroke="#000000" points="104.7342,-13.3305 95.2107,-17.9729 105.5507,-20.2827 104.7342,-13.3305"/>
<text text-anchor="middle" x="378.9812" y="-18.3" font-family="Times,serif" font-size="14.00" fill="#000000">{c0, c1}</text>
</g>
<!-- 4&#45;&gt;4 -->
<g id="edge25" class="edge">
<title>4&#45;&gt;4</title>
<path fill="none" stroke="#000000" d="M95.2077,-26.192C179.1726,-37.8504 402.4812,-36.4531 402.4812,-22 402.4812,-8.0973 195.8585,-6.2749 105.3877,-16.5328"/>
<polygon fill="#000000" stroke="#000000" points="104.6951,-13.0921 95.2077,-17.808 105.5652,-20.0378 104.6951,-13.0921"/>
<text text-anchor="middle" x="409.4812" y="-18.3" font-family="Times,serif" font-size="14.00" fill="#000000">{}</text>
</g>
</g>
</svg>
