<?xml version="1.0" encoding="UTF-8" standalone="no"?>
<!DOCTYPE svg PUBLIC "-//W3C//DTD SVG 1.1//EN"
 "http://www.w3.org/Graphics/SVG/1.1/DTD/svg11.dtd">
<!-- Generated by graphviz version 2.38.0 (20140413.2041)
 -->
<!-- Title: %3 Pages: 1 -->
<svg width="351pt" height="386pt"
 viewBox="0.00 0.00 350.54 386.00" xmlns="http://www.w3.org/2000/svg" xmlns:xlink="http://www.w3.org/1999/xlink">
<g id="graph0" class="graph" transform="scale(1 1) rotate(0) translate(4 382)">
<title>%3</title>
<polygon fill="white" stroke="none" points="-4,4 -4,-382 346.539,-382 346.539,4 -4,4"/>
<!-- fake -->
<g id="node1" class="node"><title>fake</title>
</g>
<!-- 0 -->
<g id="node2" class="node"><title>0</title>
<ellipse fill="none" stroke="black" cx="175.539" cy="-287" rx="27" ry="18"/>
<text text-anchor="middle" x="175.539" y="-283.3" font-family="Times,serif" font-size="14.00">0</text>
</g>
<!-- fake&#45;&gt;0 -->
<g id="edge1" class="edge"><title>fake&#45;&gt;0</title>
<path fill="none" stroke="black" stroke-width="2" d="M175.539,-341.813C175.539,-333.789 175.539,-324.047 175.539,-315.069"/>
<polygon fill="black" stroke="black" stroke-width="2" points="179.039,-315.029 175.539,-305.029 172.039,-315.029 179.039,-315.029"/>
</g>
<!-- 0&#45;&gt;0 -->
<g id="edge3" class="edge"><title>0&#45;&gt;0</title>
<path fill="none" stroke="black" d="M202.334,-289.245C212.32,-289.319 220.539,-288.57 220.539,-287 220.539,-286.019 217.328,-285.358 212.482,-285.019"/>
<polygon fill="black" stroke="black" points="212.422,-281.516 202.334,-284.755 212.24,-288.514 212.422,-281.516"/>
<text text-anchor="middle" x="234.039" y="-283.3" font-family="Times,serif" font-size="14.00">{c1}</text>
</g>
<!-- 0&#45;&gt;0 -->
<g id="edge4" class="edge"><title>0&#45;&gt;0</title>
<path fill="none" stroke="black" d="M201.917,-290.893C223.707,-292.399 247.539,-291.102 247.539,-287 247.539,-283.523 230.415,-282.061 211.926,-282.614"/>
<polygon fill="black" stroke="black" points="211.733,-279.119 201.917,-283.107 212.077,-286.11 211.733,-279.119"/>
<text text-anchor="middle" x="261.039" y="-283.3" font-family="Times,serif" font-size="14.00">{c2}</text>
</g>
<!-- 0&#45;&gt;0 -->
<g id="edge5" class="edge"><title>0&#45;&gt;0</title>
<path fill="none" stroke="black" d="M201.905,-292.009C233.616,-295.455 274.539,-293.785 274.539,-287 274.539,-280.93 241.793,-278.954 212.187,-281.071"/>
<polygon fill="black" stroke="black" points="211.553,-277.614 201.905,-281.991 212.177,-284.586 211.553,-277.614"/>
<text text-anchor="middle" x="281.539" y="-283.3" font-family="Times,serif" font-size="14.00">{}</text>
</g>
<!-- 1 -->
<g id="node3" class="node"><title>1</title>
<ellipse fill="none" stroke="black" cx="49.5392" cy="-200" rx="27" ry="18"/>
<text text-anchor="middle" x="49.5392" y="-196.3" font-family="Times,serif" font-size="14.00">1</text>
</g>
<!-- 0&#45;&gt;1 -->
<g id="edge2" class="edge"><title>0&#45;&gt;1</title>
<path fill="none" stroke="black" d="M148.718,-284.551C105.033,-281.57 21.566,-273.065 3.53916,-251 -6.10187,-239.2 5.70194,-226.576 19.762,-216.965"/>
<polygon fill="black" stroke="black" points="22.0207,-219.68 28.6364,-211.405 18.304,-213.748 22.0207,-219.68"/>
<text text-anchor="middle" x="17.0392" y="-239.8" font-family="Times,serif" font-size="14.00">{c0}</text>
</g>
<!-- 1&#45;&gt;0 -->
<g id="edge10" class="edge"><title>1&#45;&gt;0</title>
<path fill="none" stroke="black" d="M46.3647,-218.09C45.4012,-228.692 46.1508,-241.968 53.5392,-251 73.8277,-275.803 110.434,-283.721 138.272,-285.934"/>
<polygon fill="black" stroke="black" points="138.274,-289.439 148.46,-286.526 138.68,-282.451 138.274,-289.439"/>
<text text-anchor="middle" x="67.0392" y="-239.8" font-family="Times,serif" font-size="14.00">{c0}</text>
</g>
<!-- 1&#45;&gt;0 -->
<g id="edge12" class="edge"><title>1&#45;&gt;0</title>
<path fill="none" stroke="black" d="M63.2173,-215.823C73.5858,-226.496 88.5623,-240.76 103.539,-251 115.882,-259.439 130.566,-266.966 143.443,-272.857"/>
<polygon fill="black" stroke="black" points="142.309,-276.183 152.87,-277.032 145.144,-269.782 142.309,-276.183"/>
<text text-anchor="middle" x="117.039" y="-239.8" font-family="Times,serif" font-size="14.00">{c2}</text>
</g>
<!-- 1&#45;&gt;1 -->
<g id="edge13" class="edge"><title>1&#45;&gt;1</title>
<path fill="none" stroke="black" d="M74.0716,-207.752C85.047,-208.49 94.5392,-205.906 94.5392,-200 94.5392,-196.032 90.2542,-193.563 84.1135,-192.594"/>
<polygon fill="black" stroke="black" points="84.1864,-189.095 74.0716,-192.248 83.945,-196.091 84.1864,-189.095"/>
<text text-anchor="middle" x="101.539" y="-196.3" font-family="Times,serif" font-size="14.00">{}</text>
</g>
<!-- 2 -->
<g id="node4" class="node"><title>2</title>
<ellipse fill="none" stroke="black" cx="160.539" cy="-113" rx="27" ry="18"/>
<text text-anchor="middle" x="160.539" y="-109.3" font-family="Times,serif" font-size="14.00">2</text>
</g>
<!-- 1&#45;&gt;2 -->
<g id="edge11" class="edge"><title>1&#45;&gt;2</title>
<path fill="none" stroke="black" d="M63.9743,-184.163C74.4728,-173.749 89.2866,-159.808 103.539,-149 112.283,-142.369 122.339,-135.864 131.546,-130.296"/>
<polygon fill="black" stroke="black" points="133.562,-133.171 140.391,-125.07 130.001,-127.144 133.562,-133.171"/>
<text text-anchor="middle" x="117.039" y="-152.8" font-family="Times,serif" font-size="14.00">{c1}</text>
</g>
<!-- 2&#45;&gt;0 -->
<g id="edge6" class="edge"><title>2&#45;&gt;0</title>
<path fill="none" stroke="black" d="M158.744,-131.009C156.901,-151.666 154.788,-187.53 158.539,-218 160.247,-231.87 163.843,-246.981 167.291,-259.428"/>
<polygon fill="black" stroke="black" points="163.968,-260.536 170.107,-269.171 170.692,-258.592 163.968,-260.536"/>
<text text-anchor="middle" x="172.039" y="-196.3" font-family="Times,serif" font-size="14.00">{c0}</text>
</g>
<!-- 2&#45;&gt;0 -->
<g id="edge7" class="edge"><title>2&#45;&gt;0</title>
<path fill="none" stroke="black" d="M168.391,-130.31C174.431,-143.809 182.277,-163.672 185.539,-182 190.162,-207.971 186.305,-237.997 182.111,-259.09"/>
<polygon fill="black" stroke="black" points="178.671,-258.442 179.996,-268.954 185.515,-259.91 178.671,-258.442"/>
<text text-anchor="middle" x="201.039" y="-196.3" font-family="Times,serif" font-size="14.00">{c1}</text>
</g>
<!-- 2&#45;&gt;2 -->
<g id="edge9" class="edge"><title>2&#45;&gt;2</title>
<path fill="none" stroke="black" d="M185.072,-120.752C196.047,-121.49 205.539,-118.906 205.539,-113 205.539,-109.032 201.254,-106.563 195.113,-105.594"/>
<polygon fill="black" stroke="black" points="195.186,-102.095 185.072,-105.248 194.945,-109.091 195.186,-102.095"/>
<text text-anchor="middle" x="212.539" y="-109.3" font-family="Times,serif" font-size="14.00">{}</text>
</g>
<!-- 3 -->
<g id="node5" class="node"><title>3</title>
<ellipse fill="none" stroke="black" cx="287.539" cy="-22" rx="18" ry="18"/>
<ellipse fill="none" stroke="black" cx="287.539" cy="-22" rx="22" ry="22"/>
<text text-anchor="middle" x="287.539" y="-18.3" font-family="Times,serif" font-size="14.00">3</text>
</g>
<!-- 2&#45;&gt;3 -->
<g id="edge8" class="edge"><title>2&#45;&gt;3</title>
<path fill="none" stroke="black" d="M176.071,-98.151C188.098,-87.7066 205.379,-73.2987 221.539,-62 233.708,-53.4919 247.805,-44.9927 259.839,-38.1104"/>
<polygon fill="black" stroke="black" points="261.578,-41.1476 268.572,-33.1893 258.142,-35.049 261.578,-41.1476"/>
<text text-anchor="middle" x="235.039" y="-65.8" font-family="Times,serif" font-size="14.00">{c2}</text>
</g>
<!-- 3&#45;&gt;0 -->
<g id="edge14" class="edge"><title>3&#45;&gt;0</title>
<path fill="none" stroke="black" d="M281.806,-43.4753C271.36,-79.6082 247.601,-156.665 218.539,-218 211.32,-233.236 201.349,-249.222 192.826,-261.863"/>
<polygon fill="black" stroke="black" points="189.724,-260.196 186.936,-270.418 195.49,-264.166 189.724,-260.196"/>
<text text-anchor="middle" x="260.039" y="-152.8" font-family="Times,serif" font-size="14.00">{c0}</text>
</g>
<!-- 3&#45;&gt;0 -->
<g id="edge15" class="edge"><title>3&#45;&gt;0</title>
<path fill="none" stroke="black" d="M289.702,-44.3394C291.763,-72.6673 292.632,-123.793 277.539,-164 261.032,-207.974 249.207,-216.311 217.539,-251 212.638,-256.369 206.909,-261.659 201.288,-266.435"/>
<polygon fill="black" stroke="black" points="198.764,-263.978 193.237,-273.017 203.194,-269.397 198.764,-263.978"/>
<text text-anchor="middle" x="295.039" y="-152.8" font-family="Times,serif" font-size="14.00">{c1}</text>
</g>
<!-- 3&#45;&gt;0 -->
<g id="edge16" class="edge"><title>3&#45;&gt;0</title>
<path fill="none" stroke="black" d="M296.749,-42.1254C308.706,-69.6426 326.486,-121.741 312.539,-164 295.588,-215.362 240.838,-252.267 205.898,-271.294"/>
<polygon fill="black" stroke="black" points="204.258,-268.202 197.047,-275.964 207.524,-274.393 204.258,-268.202"/>
<text text-anchor="middle" x="329.039" y="-152.8" font-family="Times,serif" font-size="14.00">{c2}</text>
</g>
<!-- 3&#45;&gt;3 -->
<g id="edge17" class="edge"><title>3&#45;&gt;3</title>
<path fill="none" stroke="black" d="M308.12,-30.3702C318.384,-31.5284 327.539,-28.7383 327.539,-22 327.539,-17.6833 323.782,-14.9869 318.383,-13.9109"/>
<polygon fill="black" stroke="black" points="318.212,-10.405 308.12,-13.6298 318.02,-17.4024 318.212,-10.405"/>
<text text-anchor="middle" x="334.539" y="-18.3" font-family="Times,serif" font-size="14.00">{}</text>
</g>
</g>
</svg>
