<?xml version="1.0" encoding="UTF-8" standalone="no"?>
<!DOCTYPE svg PUBLIC "-//W3C//DTD SVG 1.1//EN"
 "http://www.w3.org/Graphics/SVG/1.1/DTD/svg11.dtd">
<!-- Generated by graphviz version 2.38.0 (20140413.2041)
 -->
<!-- Title: %3 Pages: 1 -->
<svg width="1074pt" height="386pt"
 viewBox="0.00 0.00 1073.61 386.00" xmlns="http://www.w3.org/2000/svg" xmlns:xlink="http://www.w3.org/1999/xlink">
<g id="graph0" class="graph" transform="scale(1 1) rotate(0) translate(4 382)">
<title>%3</title>
<polygon fill="white" stroke="none" points="-4,4 -4,-382 1069.61,-382 1069.61,4 -4,4"/>
<!-- fake -->
<g id="node1" class="node"><title>fake</title>
</g>
<!-- 0 -->
<g id="node2" class="node"><title>0</title>
<ellipse fill="none" stroke="black" cx="584.611" cy="-287" rx="27" ry="18"/>
<text text-anchor="middle" x="584.611" y="-283.3" font-family="Times,serif" font-size="14.00">0</text>
</g>
<!-- fake&#45;&gt;0 -->
<g id="edge1" class="edge"><title>fake&#45;&gt;0</title>
<path fill="none" stroke="black" stroke-width="2" d="M584.611,-341.813C584.611,-333.789 584.611,-324.047 584.611,-315.069"/>
<polygon fill="black" stroke="black" stroke-width="2" points="588.111,-315.029 584.611,-305.029 581.111,-315.029 588.111,-315.029"/>
</g>
<!-- 0&#45;&gt;0 -->
<g id="edge28" class="edge"><title>0&#45;&gt;0</title>
<path fill="none" stroke="black" d="M610.055,-293.691C620.639,-294.152 629.611,-291.922 629.611,-287 629.611,-283.77 625.747,-281.699 620.099,-280.788"/>
<polygon fill="black" stroke="black" points="620.21,-277.289 610.055,-280.309 619.877,-284.281 620.21,-277.289"/>
<text text-anchor="middle" x="636.611" y="-283.3" font-family="Times,serif" font-size="14.00">{}</text>
</g>
<!-- 1 -->
<g id="node3" class="node"><title>1</title>
<ellipse fill="none" stroke="black" cx="424.611" cy="-200" rx="27" ry="18"/>
<text text-anchor="middle" x="424.611" y="-196.3" font-family="Times,serif" font-size="14.00">1</text>
</g>
<!-- 0&#45;&gt;1 -->
<g id="edge26" class="edge"><title>0&#45;&gt;1</title>
<path fill="none" stroke="black" d="M557.434,-285.618C506.247,-284.262 398.608,-278.168 375.611,-251 365.143,-238.633 378.865,-225.587 394.423,-215.923"/>
<polygon fill="black" stroke="black" points="396.187,-218.946 403.112,-210.928 392.698,-212.877 396.187,-218.946"/>
<text text-anchor="middle" x="389.111" y="-239.8" font-family="Times,serif" font-size="14.00">{c0}</text>
</g>
<!-- 0&#45;&gt;1 -->
<g id="edge27" class="edge"><title>0&#45;&gt;1</title>
<path fill="none" stroke="black" d="M557.868,-284.022C517.028,-280.39 442.105,-271.104 425.611,-251 420.423,-244.676 418.918,-236.234 419.088,-228.09"/>
<polygon fill="black" stroke="black" points="422.574,-228.405 420.048,-218.115 415.606,-227.734 422.574,-228.405"/>
<text text-anchor="middle" x="449.111" y="-239.8" font-family="Times,serif" font-size="14.00">{c0, c1}</text>
</g>
<!-- 0&#45;&gt;1 -->
<g id="edge29" class="edge"><title>0&#45;&gt;1</title>
<path fill="none" stroke="black" d="M560.879,-278.405C542.544,-272.13 516.806,-262.418 495.611,-251 490.849,-248.435 469.112,-233.032 450.93,-219.991"/>
<polygon fill="black" stroke="black" points="452.542,-216.84 442.379,-213.845 448.457,-222.524 452.542,-216.84"/>
<text text-anchor="middle" x="529.111" y="-239.8" font-family="Times,serif" font-size="14.00">{c0, c1, c2}</text>
</g>
<!-- 0&#45;&gt;1 -->
<g id="edge30" class="edge"><title>0&#45;&gt;1</title>
<path fill="none" stroke="black" d="M581.131,-268.833C578.05,-257.923 572.457,-244.332 562.611,-236 534.426,-212.147 492.143,-204.214 461.814,-201.744"/>
<polygon fill="black" stroke="black" points="461.833,-198.238 451.627,-201.081 461.379,-205.223 461.833,-198.238"/>
<text text-anchor="middle" x="596.111" y="-239.8" font-family="Times,serif" font-size="14.00">{c0, c2}</text>
</g>
<!-- 2 -->
<g id="node4" class="node"><title>2</title>
<ellipse fill="none" stroke="black" cx="591.611" cy="-22" rx="27" ry="18"/>
<text text-anchor="middle" x="591.611" y="-18.3" font-family="Times,serif" font-size="14.00">2</text>
</g>
<!-- 0&#45;&gt;2 -->
<g id="edge31" class="edge"><title>0&#45;&gt;2</title>
<path fill="none" stroke="black" d="M603.807,-274.068C611.475,-268.167 619.459,-260.305 623.611,-251 626.328,-244.912 623.8,-242.664 623.611,-236 621.833,-173.258 627.417,-156.647 615.611,-95 612.629,-79.4283 607.148,-62.5881 602.176,-49.112"/>
<polygon fill="black" stroke="black" points="605.358,-47.6342 598.523,-39.5393 598.818,-50.13 605.358,-47.6342"/>
<text text-anchor="middle" x="636.111" y="-152.8" font-family="Times,serif" font-size="14.00">{c1}</text>
</g>
<!-- 0&#45;&gt;2 -->
<g id="edge32" class="edge"><title>0&#45;&gt;2</title>
<path fill="none" stroke="black" d="M606.872,-276.492C617.803,-270.694 630.188,-262.219 637.611,-251 662.932,-212.731 661.426,-194.217 653.611,-149 646.62,-108.552 642.541,-97.8853 622.611,-62 619.544,-56.4778 615.704,-50.9324 611.782,-45.8264"/>
<polygon fill="black" stroke="black" points="614.239,-43.2984 605.225,-37.7299 608.799,-47.7039 614.239,-43.2984"/>
<text text-anchor="middle" x="679.111" y="-152.8" font-family="Times,serif" font-size="14.00">{c1, c2}</text>
</g>
<!-- 0&#45;&gt;2 -->
<g id="edge33" class="edge"><title>0&#45;&gt;2</title>
<path fill="none" stroke="black" d="M608.43,-278.276C623.307,-272.545 642.128,-263.543 655.611,-251 688.428,-220.472 694.868,-207.255 706.611,-164 721.361,-109.672 659.844,-62.6531 621.098,-39.0954"/>
<polygon fill="black" stroke="black" points="622.661,-35.954 612.269,-33.8903 619.106,-41.9841 622.661,-35.954"/>
<text text-anchor="middle" x="722.111" y="-152.8" font-family="Times,serif" font-size="14.00">{c2}</text>
</g>
<!-- 1&#45;&gt;1 -->
<g id="edge13" class="edge"><title>1&#45;&gt;1</title>
<path fill="none" stroke="black" d="M449.144,-207.752C460.119,-208.49 469.611,-205.906 469.611,-200 469.611,-196.032 465.326,-193.563 459.186,-192.594"/>
<polygon fill="black" stroke="black" points="459.258,-189.095 449.144,-192.248 459.017,-196.091 459.258,-189.095"/>
<text text-anchor="middle" x="476.611" y="-196.3" font-family="Times,serif" font-size="14.00">{}</text>
</g>
<!-- 1&#45;&gt;2 -->
<g id="edge15" class="edge"><title>1&#45;&gt;2</title>
<path fill="none" stroke="black" d="M428.752,-182.188C435.35,-156.408 448.625,-108.656 459.611,-95 489.897,-57.3568 512.555,-65.9186 555.611,-44 558.211,-42.6767 560.884,-41.2494 563.544,-39.7837"/>
<polygon fill="black" stroke="black" points="565.441,-42.7314 572.406,-34.7478 561.983,-36.6453 565.441,-42.7314"/>
<text text-anchor="middle" x="483.111" y="-109.3" font-family="Times,serif" font-size="14.00">{c0, c2}</text>
</g>
<!-- 1&#45;&gt;2 -->
<g id="edge16" class="edge"><title>1&#45;&gt;2</title>
<path fill="none" stroke="black" d="M442.167,-186.18C459.424,-173.189 486.085,-152.057 506.611,-131 532.636,-104.302 558.559,-69.9584 574.808,-47.25"/>
<polygon fill="black" stroke="black" points="577.822,-49.0504 580.745,-38.8669 572.109,-45.0046 577.822,-49.0504"/>
<text text-anchor="middle" x="550.111" y="-109.3" font-family="Times,serif" font-size="14.00">{c0}</text>
</g>
<!-- 1&#45;&gt;2 -->
<g id="edge17" class="edge"><title>1&#45;&gt;2</title>
<path fill="none" stroke="black" d="M450.332,-193.987C482.771,-186.276 537.888,-168.302 567.611,-131 585.88,-108.073 590.896,-74.0958 591.968,-50.3937"/>
<polygon fill="black" stroke="black" points="595.469,-50.3864 592.217,-40.3032 588.471,-50.214 595.469,-50.3864"/>
<text text-anchor="middle" x="598.111" y="-109.3" font-family="Times,serif" font-size="14.00">{c2}</text>
</g>
<!-- 3 -->
<g id="node5" class="node"><title>3</title>
<ellipse fill="none" stroke="black" cx="243.611" cy="-113" rx="27" ry="18"/>
<text text-anchor="middle" x="243.611" y="-109.3" font-family="Times,serif" font-size="14.00">3</text>
</g>
<!-- 1&#45;&gt;3 -->
<g id="edge10" class="edge"><title>1&#45;&gt;3</title>
<path fill="none" stroke="black" d="M397.205,-199.461C338.421,-199.801 203.229,-196.903 174.611,-164 160.276,-147.518 185.432,-133.415 209.293,-124.43"/>
<polygon fill="black" stroke="black" points="210.709,-127.642 218.975,-121.015 208.38,-121.041 210.709,-127.642"/>
<text text-anchor="middle" x="198.111" y="-152.8" font-family="Times,serif" font-size="14.00">{c0, c1}</text>
</g>
<!-- 1&#45;&gt;3 -->
<g id="edge11" class="edge"><title>1&#45;&gt;3</title>
<path fill="none" stroke="black" d="M397.697,-197.772C352.389,-195.085 263.926,-186.961 244.611,-164 239.345,-157.74 237.82,-149.315 237.995,-141.167"/>
<polygon fill="black" stroke="black" points="241.482,-141.471 238.973,-131.177 234.515,-140.789 241.482,-141.471"/>
<text text-anchor="middle" x="268.111" y="-152.8" font-family="Times,serif" font-size="14.00">{c1, c2}</text>
</g>
<!-- 1&#45;&gt;3 -->
<g id="edge12" class="edge"><title>1&#45;&gt;3</title>
<path fill="none" stroke="black" d="M399.304,-193.295C376.446,-187.602 342.255,-177.724 314.611,-164 309.766,-161.595 288.04,-146.172 269.882,-133.084"/>
<polygon fill="black" stroke="black" points="271.499,-129.934 261.344,-126.913 267.399,-135.607 271.499,-129.934"/>
<text text-anchor="middle" x="348.111" y="-152.8" font-family="Times,serif" font-size="14.00">{c0, c1, c2}</text>
</g>
<!-- 1&#45;&gt;3 -->
<g id="edge14" class="edge"><title>1&#45;&gt;3</title>
<path fill="none" stroke="black" d="M414.847,-183.177C407.152,-172.007 395.433,-157.559 381.611,-149 350.731,-129.877 309.83,-121.176 280.588,-117.232"/>
<polygon fill="black" stroke="black" points="280.734,-113.724 270.383,-115.984 279.884,-120.672 280.734,-113.724"/>
<text text-anchor="middle" x="413.111" y="-152.8" font-family="Times,serif" font-size="14.00">{c1}</text>
</g>
<!-- 2&#45;&gt;2 -->
<g id="edge34" class="edge"><title>2&#45;&gt;2</title>
<path fill="none" stroke="black" d="M618.852,-23.4985C628.635,-23.5308 636.611,-23.0312 636.611,-22 636.611,-21.3716 633.649,-20.9406 629.122,-20.7071"/>
<polygon fill="black" stroke="black" points="628.92,-17.2025 618.852,-20.5015 628.78,-24.2011 628.92,-17.2025"/>
<text text-anchor="middle" x="650.111" y="-18.3" font-family="Times,serif" font-size="14.00">{c1}</text>
</g>
<!-- 2&#45;&gt;2 -->
<g id="edge35" class="edge"><title>2&#45;&gt;2</title>
<path fill="none" stroke="black" d="M618.363,-24.6125C640.05,-25.5896 663.611,-24.7187 663.611,-22 663.611,-19.7061 646.838,-18.7277 628.569,-19.0648"/>
<polygon fill="black" stroke="black" points="628.247,-15.5731 618.363,-19.3875 628.469,-22.5696 628.247,-15.5731"/>
<text text-anchor="middle" x="687.111" y="-18.3" font-family="Times,serif" font-size="14.00">{c0, c2}</text>
</g>
<!-- 2&#45;&gt;2 -->
<g id="edge36" class="edge"><title>2&#45;&gt;2</title>
<path fill="none" stroke="black" d="M618.43,-25.1733C655.854,-27.6867 710.611,-26.6289 710.611,-22 710.611,-17.7689 664.861,-16.5215 628.417,-18.2578"/>
<polygon fill="black" stroke="black" points="628.215,-14.7635 618.43,-18.8267 628.613,-21.7522 628.215,-14.7635"/>
<text text-anchor="middle" x="734.111" y="-18.3" font-family="Times,serif" font-size="14.00">{c0, c1}</text>
</g>
<!-- 2&#45;&gt;2 -->
<g id="edge37" class="edge"><title>2&#45;&gt;2</title>
<path fill="none" stroke="black" d="M618.095,-25.5675C668.539,-29.7361 757.611,-28.5469 757.611,-22 757.611,-15.8751 679.651,-14.4395 628.296,-17.6932"/>
<polygon fill="black" stroke="black" points="627.816,-14.2187 618.095,-18.4325 628.322,-21.2004 627.816,-14.2187"/>
<text text-anchor="middle" x="771.111" y="-18.3" font-family="Times,serif" font-size="14.00">{c0}</text>
</g>
<!-- 2&#45;&gt;2 -->
<g id="edge38" class="edge"><title>2&#45;&gt;2</title>
<path fill="none" stroke="black" d="M618.094,-26.0352C675.989,-31.7435 784.611,-30.3984 784.611,-22 784.611,-14.0773 687.946,-12.4315 628.391,-17.0627"/>
<polygon fill="black" stroke="black" points="627.75,-13.6054 618.094,-17.9648 628.361,-20.5786 627.75,-13.6054"/>
<text text-anchor="middle" x="808.111" y="-18.3" font-family="Times,serif" font-size="14.00">{c1, c2}</text>
</g>
<!-- 2&#45;&gt;2 -->
<g id="edge39" class="edge"><title>2&#45;&gt;2</title>
<path fill="none" stroke="black" d="M618.065,-26.2999C686.943,-33.7692 831.611,-32.3359 831.611,-22 831.611,-12.1486 700.188,-10.3847 628.228,-16.7084"/>
<polygon fill="black" stroke="black" points="627.678,-13.2454 618.065,-17.7001 628.358,-20.2123 627.678,-13.2454"/>
<text text-anchor="middle" x="865.111" y="-18.3" font-family="Times,serif" font-size="14.00">{c0, c1, c2}</text>
</g>
<!-- 2&#45;&gt;2 -->
<g id="edge40" class="edge"><title>2&#45;&gt;2</title>
<path fill="none" stroke="black" d="M617.79,-26.4077C699.977,-35.8013 898.611,-34.332 898.611,-22 898.611,-10.1497 715.193,-8.33008 627.935,-16.5412"/>
<polygon fill="black" stroke="black" points="627.376,-13.0803 617.79,-17.5923 628.097,-20.0431 627.376,-13.0803"/>
<text text-anchor="middle" x="905.611" y="-18.3" font-family="Times,serif" font-size="14.00">{}</text>
</g>
<!-- 2&#45;&gt;2 -->
<g id="edge41" class="edge"><title>2&#45;&gt;2</title>
<path fill="none" stroke="black" d="M617.833,-26.7488C704.961,-37.8017 916.611,-36.2188 916.611,-22 916.611,-8.3089 720.378,-6.33319 628.03,-16.0729"/>
<polygon fill="black" stroke="black" points="627.365,-12.6263 617.833,-17.2512 628.168,-19.5801 627.365,-12.6263"/>
<text text-anchor="middle" x="930.111" y="-18.3" font-family="Times,serif" font-size="14.00">{c2}</text>
</g>
<!-- 3&#45;&gt;2 -->
<g id="edge23" class="edge"><title>3&#45;&gt;2</title>
<path fill="none" stroke="black" d="M252.329,-95.4235C259.372,-83.8787 270.436,-69.2924 284.611,-62 338.28,-34.3893 497.902,-61.6745 555.611,-44 558.627,-43.0763 561.66,-41.8582 564.616,-40.4728"/>
<polygon fill="black" stroke="black" points="566.511,-43.429 573.685,-35.6329 563.215,-37.2534 566.511,-43.429"/>
<text text-anchor="middle" x="298.111" y="-65.8" font-family="Times,serif" font-size="14.00">{c1}</text>
</g>
<!-- 3&#45;&gt;2 -->
<g id="edge24" class="edge"><title>3&#45;&gt;2</title>
<path fill="none" stroke="black" d="M265.047,-101.672C278.587,-94.976 296.345,-85.8758 311.611,-77 322.162,-70.8661 323.064,-65.9498 334.611,-62 427.855,-30.105 461.602,-73.5623 555.611,-44 558.62,-43.0538 561.648,-41.8209 564.602,-40.4263"/>
<polygon fill="black" stroke="black" points="566.502,-43.379 573.667,-35.5743 563.199,-37.2074 566.502,-43.379"/>
<text text-anchor="middle" x="358.111" y="-65.8" font-family="Times,serif" font-size="14.00">{c0, c1}</text>
</g>
<!-- 3&#45;&gt;2 -->
<g id="edge25" class="edge"><title>3&#45;&gt;2</title>
<path fill="none" stroke="black" d="M269.626,-108.039C298.01,-103.121 344.373,-93.3243 381.611,-77 392.788,-72.1002 393.14,-66.1649 404.611,-62 468.14,-38.9345 491.528,-65.4758 555.611,-44 558.602,-42.9977 561.618,-41.7278 564.564,-40.3105"/>
<polygon fill="black" stroke="black" points="566.479,-43.2548 573.62,-35.4282 563.157,-37.0932 566.479,-43.2548"/>
<text text-anchor="middle" x="418.111" y="-65.8" font-family="Times,serif" font-size="14.00">{c0}</text>
</g>
<!-- 3&#45;&gt;3 -->
<g id="edge19" class="edge"><title>3&#45;&gt;3</title>
<path fill="none" stroke="black" d="M268.144,-120.752C279.119,-121.49 288.611,-118.906 288.611,-113 288.611,-109.032 284.326,-106.563 278.186,-105.594"/>
<polygon fill="black" stroke="black" points="278.258,-102.095 268.144,-105.248 278.017,-109.091 278.258,-102.095"/>
<text text-anchor="middle" x="295.611" y="-109.3" font-family="Times,serif" font-size="14.00">{}</text>
</g>
<!-- 4 -->
<g id="node6" class="node"><title>4</title>
<ellipse fill="none" stroke="black" cx="77.6112" cy="-22" rx="18" ry="18"/>
<ellipse fill="none" stroke="black" cx="77.6112" cy="-22" rx="22" ry="22"/>
<text text-anchor="middle" x="77.6112" y="-18.3" font-family="Times,serif" font-size="14.00">4</text>
</g>
<!-- 3&#45;&gt;4 -->
<g id="edge18" class="edge"><title>3&#45;&gt;4</title>
<path fill="none" stroke="black" d="M216.546,-112.261C159.883,-112.17 31.7576,-108.411 4.6112,-77 -11.7299,-58.0915 20.1624,-41.8934 46.8163,-32.3"/>
<polygon fill="black" stroke="black" points="47.9615,-35.6074 56.3002,-29.0716 45.7057,-28.9809 47.9615,-35.6074"/>
<text text-anchor="middle" x="38.1112" y="-65.8" font-family="Times,serif" font-size="14.00">{c0, c1, c2}</text>
</g>
<!-- 3&#45;&gt;4 -->
<g id="edge20" class="edge"><title>3&#45;&gt;4</title>
<path fill="none" stroke="black" d="M217.276,-108.961C179.422,-104.083 112.235,-93.3613 94.6112,-77 88.0879,-70.9441 84.0524,-62.4149 81.561,-53.9203"/>
<polygon fill="black" stroke="black" points="84.956,-53.0664 79.2891,-44.1145 78.1366,-54.6465 84.956,-53.0664"/>
<text text-anchor="middle" x="118.111" y="-65.8" font-family="Times,serif" font-size="14.00">{c1, c2}</text>
</g>
<!-- 3&#45;&gt;4 -->
<g id="edge21" class="edge"><title>3&#45;&gt;4</title>
<path fill="none" stroke="black" d="M221.018,-103.127C204.964,-96.55 183.067,-87.0221 164.611,-77 153.886,-71.1761 151.934,-68.5094 141.611,-62 129.627,-54.4428 116.258,-46.2585 104.851,-39.3478"/>
<polygon fill="black" stroke="black" points="106.557,-36.2893 96.1878,-34.115 102.938,-42.2811 106.557,-36.2893"/>
<text text-anchor="middle" x="188.111" y="-65.8" font-family="Times,serif" font-size="14.00">{c0, c2}</text>
</g>
<!-- 3&#45;&gt;4 -->
<g id="edge22" class="edge"><title>3&#45;&gt;4</title>
<path fill="none" stroke="black" d="M236.741,-95.3545C231.408,-84.3842 222.999,-70.5204 211.611,-62 181.547,-39.5059 138.778,-29.954 109.702,-25.918"/>
<polygon fill="black" stroke="black" points="110.015,-22.4299 99.6587,-24.6669 109.149,-29.3762 110.015,-22.4299"/>
<text text-anchor="middle" x="239.111" y="-65.8" font-family="Times,serif" font-size="14.00">{c2}</text>
</g>
<!-- 4&#45;&gt;4 -->
<g id="edge2" class="edge"><title>4&#45;&gt;4</title>
<path fill="none" stroke="black" d="M99.8236,-23.4821C109.406,-23.6034 117.611,-23.1094 117.611,-22 117.611,-21.324 114.564,-20.8765 110.016,-20.6574"/>
<polygon fill="black" stroke="black" points="109.871,-17.1552 99.8236,-20.5179 109.775,-24.1546 109.871,-17.1552"/>
<text text-anchor="middle" x="141.111" y="-18.3" font-family="Times,serif" font-size="14.00">{c0, c2}</text>
</g>
<!-- 4&#45;&gt;4 -->
<g id="edge3" class="edge"><title>4&#45;&gt;4</title>
<path fill="none" stroke="black" d="M99.7869,-24.2733C126.944,-25.7421 164.611,-24.9844 164.611,-22 164.611,-19.377 135.514,-18.474 110.029,-19.2911"/>
<polygon fill="black" stroke="black" points="109.629,-15.8049 99.7869,-19.7267 109.927,-22.7985 109.629,-15.8049"/>
<text text-anchor="middle" x="178.111" y="-18.3" font-family="Times,serif" font-size="14.00">{c0}</text>
</g>
<!-- 4&#45;&gt;4 -->
<g id="edge4" class="edge"><title>4&#45;&gt;4</title>
<path fill="none" stroke="black" d="M99.6142,-24.9136C135.307,-27.7524 191.611,-26.7812 191.611,-22 191.611,-17.6483 144.97,-16.4528 109.678,-18.4135"/>
<polygon fill="black" stroke="black" points="109.358,-14.927 99.6142,-19.0864 109.825,-21.9114 109.358,-14.927"/>
<text text-anchor="middle" x="198.611" y="-18.3" font-family="Times,serif" font-size="14.00">{}</text>
</g>
<!-- 4&#45;&gt;4 -->
<g id="edge5" class="edge"><title>4&#45;&gt;4</title>
<path fill="none" stroke="black" d="M99.3431,-25.4467C140.9,-29.7583 209.611,-28.6094 209.611,-22 209.611,-15.907 151.217,-14.4546 109.535,-17.6428"/>
<polygon fill="black" stroke="black" points="108.992,-14.1772 99.3431,-18.5533 109.615,-21.1494 108.992,-14.1772"/>
<text text-anchor="middle" x="233.111" y="-18.3" font-family="Times,serif" font-size="14.00">{c0, c1}</text>
</g>
<!-- 4&#45;&gt;4 -->
<g id="edge6" class="edge"><title>4&#45;&gt;4</title>
<path fill="none" stroke="black" d="M99.5943,-25.7093C152.936,-31.7911 256.611,-30.5547 256.611,-22 256.611,-13.9633 165.11,-12.3854 109.803,-17.2665"/>
<polygon fill="black" stroke="black" points="109.195,-13.8098 99.5943,-18.2907 109.894,-20.7749 109.195,-13.8098"/>
<text text-anchor="middle" x="280.111" y="-18.3" font-family="Times,serif" font-size="14.00">{c1, c2}</text>
</g>
<!-- 4&#45;&gt;4 -->
<g id="edge7" class="edge"><title>4&#45;&gt;4</title>
<path fill="none" stroke="black" d="M99.3362,-25.8846C163.132,-33.8183 303.611,-32.5234 303.611,-22 303.611,-12.011 177.037,-10.337 109.62,-16.9781"/>
<polygon fill="black" stroke="black" points="108.891,-13.5373 99.3362,-18.1154 109.66,-20.4949 108.891,-13.5373"/>
<text text-anchor="middle" x="337.111" y="-18.3" font-family="Times,serif" font-size="14.00">{c0, c1, c2}</text>
</g>
<!-- 4&#45;&gt;4 -->
<g id="edge8" class="edge"><title>4&#45;&gt;4</title>
<path fill="none" stroke="black" d="M99.4426,-25.9948C176.058,-35.8414 370.611,-34.5098 370.611,-22 370.611,-10.0033 191.69,-8.28667 109.444,-16.85"/>
<polygon fill="black" stroke="black" points="108.975,-13.3808 99.4426,-18.0052 109.778,-20.3345 108.975,-13.3808"/>
<text text-anchor="middle" x="384.111" y="-18.3" font-family="Times,serif" font-size="14.00">{c1}</text>
</g>
<!-- 4&#45;&gt;4 -->
<g id="edge9" class="edge"><title>4&#45;&gt;4</title>
<path fill="none" stroke="black" d="M99.3698,-26.2297C182.113,-37.8474 397.611,-36.4375 397.611,-22 397.611,-8.11237 198.215,-6.27888 109.382,-16.4995"/>
<polygon fill="black" stroke="black" points="108.849,-13.039 99.3698,-17.7703 109.731,-19.9833 108.849,-13.039"/>
<text text-anchor="middle" x="411.111" y="-18.3" font-family="Times,serif" font-size="14.00">{c2}</text>
</g>
</g>
</svg>
