<?xml version="1.0" encoding="UTF-8" standalone="no"?>
<!DOCTYPE svg PUBLIC "-//W3C//DTD SVG 1.1//EN"
 "http://www.w3.org/Graphics/SVG/1.1/DTD/svg11.dtd">
<!-- Generated by graphviz version 2.43.0 (0)
 -->
<!-- Title: %3 Pages: 1 -->
<svg width="1264pt" height="386pt"
 viewBox="0.00 0.00 1264.06 386.00" xmlns="http://www.w3.org/2000/svg" xmlns:xlink="http://www.w3.org/1999/xlink">
<g id="graph0" class="graph" transform="scale(1 1) rotate(0) translate(4 382)">
<title>%3</title>
<polygon fill="white" stroke="transparent" points="-4,4 -4,-382 1260.06,-382 1260.06,4 -4,4"/>
<!-- fake -->
<g id="node1" class="node">
<title>fake</title>
</g>
<!-- 0 -->
<g id="node2" class="node">
<title>0</title>
<ellipse fill="none" stroke="black" cx="686.06" cy="-287" rx="27" ry="18"/>
<text text-anchor="middle" x="686.06" y="-283.3" font-family="Times,serif" font-size="14.00">0</text>
</g>
<!-- fake&#45;&gt;0 -->
<g id="edge1" class="edge">
<title>fake&#45;&gt;0</title>
<path fill="none" stroke="black" stroke-width="2" d="M686.06,-341.81C686.06,-333.79 686.06,-324.05 686.06,-315.07"/>
<polygon fill="black" stroke="black" stroke-width="2" points="689.56,-315.03 686.06,-305.03 682.56,-315.03 689.56,-315.03"/>
</g>
<!-- 0&#45;&gt;0 -->
<g id="edge11" class="edge">
<title>0&#45;&gt;0</title>
<path fill="none" stroke="black" d="M711.5,-293.69C722.09,-294.15 731.06,-291.92 731.06,-287 731.06,-283.77 727.19,-281.7 721.55,-280.79"/>
<polygon fill="black" stroke="black" points="721.66,-277.29 711.5,-280.31 721.32,-284.28 721.66,-277.29"/>
<text text-anchor="middle" x="740.56" y="-283.3" font-family="Times,serif" font-size="14.00">{}</text>
</g>
<!-- 1 -->
<g id="node3" class="node">
<title>1</title>
<ellipse fill="none" stroke="black" cx="493.06" cy="-200" rx="27" ry="18"/>
<text text-anchor="middle" x="493.06" y="-196.3" font-family="Times,serif" font-size="14.00">1</text>
</g>
<!-- 0&#45;&gt;1 -->
<g id="edge10" class="edge">
<title>0&#45;&gt;1</title>
<path fill="none" stroke="black" d="M658.65,-286.46C599.87,-286.8 464.68,-283.9 436.06,-251 424.03,-237.17 441.94,-223.6 460.79,-214.09"/>
<polygon fill="black" stroke="black" points="462.43,-217.19 469.99,-209.77 459.45,-210.85 462.43,-217.19"/>
<text text-anchor="middle" x="453.56" y="-239.8" font-family="Times,serif" font-size="14.00">{c0}</text>
</g>
<!-- 0&#45;&gt;1 -->
<g id="edge12" class="edge">
<title>0&#45;&gt;1</title>
<path fill="none" stroke="black" d="M658.89,-285.13C611.08,-282.96 514.98,-275.57 494.06,-251 488.76,-244.77 487.22,-236.35 487.4,-228.2"/>
<polygon fill="black" stroke="black" points="490.89,-228.5 488.38,-218.21 483.92,-227.82 490.89,-228.5"/>
<text text-anchor="middle" x="524.56" y="-239.8" font-family="Times,serif" font-size="14.00">{c0, c2}</text>
</g>
<!-- 0&#45;&gt;1 -->
<g id="edge13" class="edge">
<title>0&#45;&gt;1</title>
<path fill="none" stroke="black" d="M660.89,-279.87C638.53,-273.96 605.27,-264 578.06,-251 567.05,-245.74 565.49,-242.34 555.06,-236 544.44,-229.55 532.59,-222.76 522.13,-216.91"/>
<polygon fill="black" stroke="black" points="523.79,-213.83 513.35,-212.03 520.39,-219.94 523.79,-213.83"/>
<text text-anchor="middle" x="621.06" y="-239.8" font-family="Times,serif" font-size="14.00">{c0, c1, c2}</text>
</g>
<!-- 0&#45;&gt;1 -->
<g id="edge14" class="edge">
<title>0&#45;&gt;1</title>
<path fill="none" stroke="black" d="M682.7,-268.68C679.68,-257.71 674.09,-244.1 664.06,-236 643.81,-219.66 573.78,-209.49 529.86,-204.57"/>
<polygon fill="black" stroke="black" points="530.16,-201.08 519.85,-203.48 529.41,-208.04 530.16,-201.08"/>
<text text-anchor="middle" x="705.56" y="-239.8" font-family="Times,serif" font-size="14.00">{c0, c1}</text>
</g>
<!-- 2 -->
<g id="node4" class="node">
<title>2</title>
<ellipse fill="none" stroke="black" cx="692.06" cy="-22" rx="27" ry="18"/>
<text text-anchor="middle" x="692.06" y="-18.3" font-family="Times,serif" font-size="14.00">2</text>
</g>
<!-- 0&#45;&gt;2 -->
<g id="edge15" class="edge">
<title>0&#45;&gt;2</title>
<path fill="none" stroke="black" d="M709.05,-277.39C720.57,-271.76 733.44,-263.17 740.06,-251 776.68,-183.62 732.73,-90.99 707.47,-47.47"/>
<polygon fill="black" stroke="black" points="710.37,-45.51 702.25,-38.71 704.36,-49.09 710.37,-45.51"/>
<text text-anchor="middle" x="768.56" y="-152.8" font-family="Times,serif" font-size="14.00">{c1}</text>
</g>
<!-- 0&#45;&gt;2 -->
<g id="edge16" class="edge">
<title>0&#45;&gt;2</title>
<path fill="none" stroke="black" d="M710.24,-278.89C725.18,-273.41 743.78,-264.45 756.06,-251 784.05,-220.34 782.37,-204.8 790.06,-164 799.64,-113.17 751.22,-66.48 719.02,-41.66"/>
<polygon fill="black" stroke="black" points="720.93,-38.72 710.83,-35.54 716.75,-44.33 720.93,-38.72"/>
<text text-anchor="middle" x="821.56" y="-152.8" font-family="Times,serif" font-size="14.00">{c1, c2}</text>
</g>
<!-- 0&#45;&gt;2 -->
<g id="edge17" class="edge">
<title>0&#45;&gt;2</title>
<path fill="none" stroke="black" d="M710.91,-279.49C729.61,-273.85 755.3,-264.46 775.06,-251 818.72,-221.26 836.72,-213.16 856.06,-164 881.94,-98.21 781.04,-52.92 725.85,-33.57"/>
<polygon fill="black" stroke="black" points="726.71,-30.16 716.12,-30.26 724.45,-36.79 726.71,-30.16"/>
<text text-anchor="middle" x="876.56" y="-152.8" font-family="Times,serif" font-size="14.00">{c2}</text>
</g>
<!-- 1&#45;&gt;1 -->
<g id="edge6" class="edge">
<title>1&#45;&gt;1</title>
<path fill="none" stroke="black" d="M517.59,-207.75C528.57,-208.49 538.06,-205.91 538.06,-200 538.06,-196.03 533.77,-193.56 527.63,-192.59"/>
<polygon fill="black" stroke="black" points="527.71,-189.09 517.59,-192.25 527.46,-196.09 527.71,-189.09"/>
<text text-anchor="middle" x="547.56" y="-196.3" font-family="Times,serif" font-size="14.00">{}</text>
</g>
<!-- 1&#45;&gt;2 -->
<g id="edge7" class="edge">
<title>1&#45;&gt;2</title>
<path fill="none" stroke="black" d="M504.8,-183.43C508.97,-177.52 513.5,-170.62 517.06,-164 532.73,-134.85 525.01,-121.33 545.06,-95 559.65,-75.83 566.44,-72.62 588.06,-62 616.12,-48.21 627.18,-55.98 656.06,-44 658.91,-42.82 661.8,-41.45 664.66,-39.98"/>
<polygon fill="black" stroke="black" points="666.43,-43 673.49,-35.11 663.05,-36.87 666.43,-43"/>
<text text-anchor="middle" x="562.56" y="-109.3" font-family="Times,serif" font-size="14.00">{c0}</text>
</g>
<!-- 1&#45;&gt;2 -->
<g id="edge8" class="edge">
<title>1&#45;&gt;2</title>
<path fill="none" stroke="black" d="M510.89,-186.06C528.85,-172.81 557.09,-151.33 580.06,-131 597,-116 599.84,-110.78 616.06,-95 633.8,-77.73 654.19,-58.45 669.38,-44.19"/>
<polygon fill="black" stroke="black" points="671.9,-46.62 676.8,-37.22 667.11,-41.51 671.9,-46.62"/>
<text text-anchor="middle" x="646.56" y="-109.3" font-family="Times,serif" font-size="14.00">{c0, c2}</text>
</g>
<!-- 1&#45;&gt;2 -->
<g id="edge9" class="edge">
<title>1&#45;&gt;2</title>
<path fill="none" stroke="black" d="M519.88,-197.41C560.76,-193.44 638,-179.56 677.06,-131 695.27,-108.36 697.04,-74.04 695.53,-50.19"/>
<polygon fill="black" stroke="black" points="699,-49.71 694.65,-40.05 692.03,-50.31 699,-49.71"/>
<text text-anchor="middle" x="709.56" y="-109.3" font-family="Times,serif" font-size="14.00">{c2}</text>
</g>
<!-- 3 -->
<g id="node5" class="node">
<title>3</title>
<ellipse fill="none" stroke="black" cx="281.06" cy="-113" rx="27" ry="18"/>
<text text-anchor="middle" x="281.06" y="-109.3" font-family="Times,serif" font-size="14.00">3</text>
</g>
<!-- 1&#45;&gt;3 -->
<g id="edge2" class="edge">
<title>1&#45;&gt;3</title>
<path fill="none" stroke="black" d="M466.11,-197.73C397.84,-194.22 222.24,-183.39 205.06,-164 189.02,-145.89 219.39,-131.55 246.37,-122.95"/>
<polygon fill="black" stroke="black" points="247.49,-126.27 256.06,-120.05 245.48,-119.57 247.49,-126.27"/>
<text text-anchor="middle" x="222.56" y="-152.8" font-family="Times,serif" font-size="14.00">{c1}</text>
</g>
<!-- 1&#45;&gt;3 -->
<g id="edge3" class="edge">
<title>1&#45;&gt;3</title>
<path fill="none" stroke="black" d="M465.75,-199.08C410.59,-198.61 288.92,-194.1 263.06,-164 256.65,-156.55 258.69,-146.64 263.26,-137.62"/>
<polygon fill="black" stroke="black" points="266.29,-139.38 268.45,-129 260.29,-135.76 266.29,-139.38"/>
<text text-anchor="middle" x="293.56" y="-152.8" font-family="Times,serif" font-size="14.00">{c1, c2}</text>
</g>
<!-- 1&#45;&gt;3 -->
<g id="edge4" class="edge">
<title>1&#45;&gt;3</title>
<path fill="none" stroke="black" d="M466.66,-196C436.55,-191.84 386.41,-182.61 347.06,-164 338.23,-159.83 320.19,-146 305.2,-133.95"/>
<polygon fill="black" stroke="black" points="307.23,-131.09 297.26,-127.5 302.82,-136.52 307.23,-131.09"/>
<text text-anchor="middle" x="390.06" y="-152.8" font-family="Times,serif" font-size="14.00">{c0, c1, c2}</text>
</g>
<!-- 1&#45;&gt;3 -->
<g id="edge5" class="edge">
<title>1&#45;&gt;3</title>
<path fill="none" stroke="black" d="M477.9,-184.97C463.52,-171.92 442.72,-153.79 433.06,-149 396.33,-130.78 349.89,-121.87 318.06,-117.63"/>
<polygon fill="black" stroke="black" points="318.22,-114.12 307.87,-116.36 317.36,-121.07 318.22,-114.12"/>
<text text-anchor="middle" x="483.56" y="-152.8" font-family="Times,serif" font-size="14.00">{c0, c1}</text>
</g>
<!-- 2&#45;&gt;2 -->
<g id="edge34" class="edge">
<title>2&#45;&gt;2</title>
<path fill="none" stroke="black" d="M719.3,-23.5C729.08,-23.53 737.06,-23.03 737.06,-22 737.06,-21.37 734.1,-20.94 729.57,-20.71"/>
<polygon fill="black" stroke="black" points="729.37,-17.2 719.3,-20.5 729.23,-24.2 729.37,-17.2"/>
<text text-anchor="middle" x="767.56" y="-18.3" font-family="Times,serif" font-size="14.00">{c0, c1}</text>
</g>
<!-- 2&#45;&gt;2 -->
<g id="edge35" class="edge">
<title>2&#45;&gt;2</title>
<path fill="none" stroke="black" d="M719.03,-24.32C751.73,-25.73 798.06,-24.95 798.06,-22 798.06,-19.35 760.66,-18.45 729.35,-19.32"/>
<polygon fill="black" stroke="black" points="728.9,-15.83 719.03,-19.68 729.14,-22.83 728.9,-15.83"/>
<text text-anchor="middle" x="815.56" y="-18.3" font-family="Times,serif" font-size="14.00">{c1}</text>
</g>
<!-- 2&#45;&gt;2 -->
<g id="edge36" class="edge">
<title>2&#45;&gt;2</title>
<path fill="none" stroke="black" d="M718.87,-25C762.08,-27.73 833.06,-26.73 833.06,-22 833.06,-17.62 772.22,-16.44 728.91,-18.46"/>
<polygon fill="black" stroke="black" points="728.67,-14.96 718.87,-19 729.05,-21.95 728.67,-14.96"/>
<text text-anchor="middle" x="863.56" y="-18.3" font-family="Times,serif" font-size="14.00">{c1, c2}</text>
</g>
<!-- 2&#45;&gt;2 -->
<g id="edge37" class="edge">
<title>2&#45;&gt;2</title>
<path fill="none" stroke="black" d="M718.75,-25.35C777.06,-29.77 894.06,-28.66 894.06,-22 894.06,-15.71 789.51,-14.36 728.82,-17.97"/>
<polygon fill="black" stroke="black" points="728.5,-14.48 718.75,-18.65 728.96,-21.47 728.5,-14.48"/>
<text text-anchor="middle" x="911.56" y="-18.3" font-family="Times,serif" font-size="14.00">{c0}</text>
</g>
<!-- 2&#45;&gt;2 -->
<g id="edge38" class="edge">
<title>2&#45;&gt;2</title>
<path fill="none" stroke="black" d="M718.77,-25.79C785.48,-31.78 929.06,-30.52 929.06,-22 929.06,-13.9 799.16,-12.36 729.06,-17.38"/>
<polygon fill="black" stroke="black" points="728.46,-13.92 718.77,-18.21 729.02,-20.9 728.46,-13.92"/>
<text text-anchor="middle" x="972.06" y="-18.3" font-family="Times,serif" font-size="14.00">{c0, c1, c2}</text>
</g>
<!-- 2&#45;&gt;2 -->
<g id="edge39" class="edge">
<title>2&#45;&gt;2</title>
<path fill="none" stroke="black" d="M718.58,-25.91C801.74,-33.82 1015.06,-32.51 1015.06,-22 1015.06,-11.89 817.68,-10.3 728.63,-17.23"/>
<polygon fill="black" stroke="black" points="728.24,-13.75 718.58,-18.09 728.84,-20.72 728.24,-13.75"/>
<text text-anchor="middle" x="1024.56" y="-18.3" font-family="Times,serif" font-size="14.00">{}</text>
</g>
<!-- 2&#45;&gt;2 -->
<g id="edge40" class="edge">
<title>2&#45;&gt;2</title>
<path fill="none" stroke="black" d="M718.44,-26.28C806.26,-35.81 1034.06,-34.39 1034.06,-22 1034.06,-10.06 822.43,-8.3 728.49,-16.73"/>
<polygon fill="black" stroke="black" points="728.05,-13.25 718.44,-17.72 728.73,-20.22 728.05,-13.25"/>
<text text-anchor="middle" x="1064.56" y="-18.3" font-family="Times,serif" font-size="14.00">{c0, c2}</text>
</g>
<!-- 2&#45;&gt;2 -->
<g id="edge41" class="edge">
<title>2&#45;&gt;2</title>
<path fill="none" stroke="black" d="M718.35,-26.45C816.98,-37.83 1095.06,-36.34 1095.06,-22 1095.06,-8.12 834.62,-6.28 728.43,-16.49"/>
<polygon fill="black" stroke="black" points="727.92,-13.02 718.35,-17.55 728.66,-19.98 727.92,-13.02"/>
<text text-anchor="middle" x="1112.56" y="-18.3" font-family="Times,serif" font-size="14.00">{c2}</text>
</g>
<!-- 3&#45;&gt;2 -->
<g id="edge23" class="edge">
<title>3&#45;&gt;2</title>
<path fill="none" stroke="black" d="M293.85,-96.75C304.77,-84.93 321.6,-69.37 340.06,-62 405.38,-35.91 588.71,-64.28 656.06,-44 659.08,-43.09 662.11,-41.88 665.07,-40.5"/>
<polygon fill="black" stroke="black" points="666.96,-43.46 674.14,-35.67 663.67,-37.28 666.96,-43.46"/>
<text text-anchor="middle" x="370.56" y="-65.8" font-family="Times,serif" font-size="14.00">{c0, c1}</text>
</g>
<!-- 3&#45;&gt;2 -->
<g id="edge24" class="edge">
<title>3&#45;&gt;2</title>
<path fill="none" stroke="black" d="M306.65,-106.84C331.5,-101.3 369.9,-91.32 401.06,-77 412.15,-71.9 412.5,-65.93 424.06,-62 521.98,-28.72 557.34,-74.83 656.06,-44 659.07,-43.06 662.1,-41.83 665.05,-40.44"/>
<polygon fill="black" stroke="black" points="666.95,-43.39 674.12,-35.59 663.65,-37.22 666.95,-43.39"/>
<text text-anchor="middle" x="441.56" y="-65.8" font-family="Times,serif" font-size="14.00">{c1}</text>
</g>
<!-- 3&#45;&gt;2 -->
<g id="edge25" class="edge">
<title>3&#45;&gt;2</title>
<path fill="none" stroke="black" d="M307.91,-109.94C343.57,-106.49 408,-97.75 459.06,-77 470.36,-72.41 470.55,-66.08 482.06,-62 555.34,-36.04 582.15,-68.13 656.06,-44 659.06,-43.02 662.08,-41.77 665.03,-40.36"/>
<polygon fill="black" stroke="black" points="666.94,-43.31 674.09,-35.49 663.62,-37.14 666.94,-43.31"/>
<text text-anchor="middle" x="499.56" y="-65.8" font-family="Times,serif" font-size="14.00">{c0}</text>
</g>
<!-- 3&#45;&gt;3 -->
<g id="edge22" class="edge">
<title>3&#45;&gt;3</title>
<path fill="none" stroke="black" d="M305.59,-120.75C316.57,-121.49 326.06,-118.91 326.06,-113 326.06,-109.03 321.77,-106.56 315.63,-105.59"/>
<polygon fill="black" stroke="black" points="315.71,-102.09 305.59,-105.25 315.46,-109.09 315.71,-102.09"/>
<text text-anchor="middle" x="335.56" y="-109.3" font-family="Times,serif" font-size="14.00">{}</text>
</g>
<!-- 4 -->
<g id="node6" class="node">
<title>4</title>
<ellipse fill="none" stroke="black" cx="88.06" cy="-22" rx="18" ry="18"/>
<ellipse fill="none" stroke="black" cx="88.06" cy="-22" rx="22" ry="22"/>
<text text-anchor="middle" x="88.06" y="-18.3" font-family="Times,serif" font-size="14.00">4</text>
</g>
<!-- 3&#45;&gt;4 -->
<g id="edge18" class="edge">
<title>3&#45;&gt;4</title>
<path fill="none" stroke="black" d="M254.03,-110.57C187.75,-106.79 21.38,-95.53 5.06,-77 -13.68,-55.74 26.14,-39.46 56.87,-30.57"/>
<polygon fill="black" stroke="black" points="58.12,-33.86 66.84,-27.85 56.27,-27.11 58.12,-33.86"/>
<text text-anchor="middle" x="35.56" y="-65.8" font-family="Times,serif" font-size="14.00">{c1, c2}</text>
</g>
<!-- 3&#45;&gt;4 -->
<g id="edge19" class="edge">
<title>3&#45;&gt;4</title>
<path fill="none" stroke="black" d="M253.89,-111.13C206.07,-108.96 109.96,-101.59 89.06,-77 83.58,-70.55 81.84,-61.93 81.88,-53.48"/>
<polygon fill="black" stroke="black" points="85.38,-53.65 82.69,-43.4 78.4,-53.09 85.38,-53.65"/>
<text text-anchor="middle" x="132.06" y="-65.8" font-family="Times,serif" font-size="14.00">{c0, c1, c2}</text>
</g>
<!-- 3&#45;&gt;4 -->
<g id="edge20" class="edge">
<title>3&#45;&gt;4</title>
<path fill="none" stroke="black" d="M258.01,-103.56C241.06,-97.05 217.67,-87.42 198.06,-77 187.28,-71.27 185.77,-67.85 175.06,-62 156.48,-51.86 134.75,-42.11 117.65,-34.9"/>
<polygon fill="black" stroke="black" points="118.76,-31.57 108.18,-30.97 116.07,-38.04 118.76,-31.57"/>
<text text-anchor="middle" x="228.56" y="-65.8" font-family="Times,serif" font-size="14.00">{c0, c2}</text>
</g>
<!-- 3&#45;&gt;4 -->
<g id="edge21" class="edge">
<title>3&#45;&gt;4</title>
<path fill="none" stroke="black" d="M277.64,-94.75C274.59,-83.81 269,-70.21 259.06,-62 219.52,-29.35 158.02,-22.78 120.55,-22.11"/>
<polygon fill="black" stroke="black" points="120.21,-18.6 110.2,-22.06 120.18,-25.6 120.21,-18.6"/>
<text text-anchor="middle" x="288.56" y="-65.8" font-family="Times,serif" font-size="14.00">{c2}</text>
</g>
<!-- 4&#45;&gt;4 -->
<g id="edge26" class="edge">
<title>4&#45;&gt;4</title>
<path fill="none" stroke="black" d="M110.27,-23.48C119.85,-23.6 128.06,-23.11 128.06,-22 128.06,-21.32 125.01,-20.88 120.46,-20.66"/>
<polygon fill="black" stroke="black" points="120.32,-17.16 110.27,-20.52 120.22,-24.15 120.32,-17.16"/>
<text text-anchor="middle" x="158.56" y="-18.3" font-family="Times,serif" font-size="14.00">{c0, c1}</text>
</g>
<!-- 4&#45;&gt;4 -->
<g id="edge27" class="edge">
<title>4&#45;&gt;4</title>
<path fill="none" stroke="black" d="M110.07,-24.15C141.19,-25.78 189.06,-25.06 189.06,-22 189.06,-19.26 150.75,-18.4 120.4,-19.41"/>
<polygon fill="black" stroke="black" points="119.91,-15.93 110.07,-19.85 120.21,-22.92 119.91,-15.93"/>
<text text-anchor="middle" x="206.56" y="-18.3" font-family="Times,serif" font-size="14.00">{c2}</text>
</g>
<!-- 4&#45;&gt;4 -->
<g id="edge28" class="edge">
<title>4&#45;&gt;4</title>
<path fill="none" stroke="black" d="M110.02,-24.74C151,-27.79 224.06,-26.87 224.06,-22 224.06,-17.51 161.97,-16.38 120.16,-18.62"/>
<polygon fill="black" stroke="black" points="119.78,-15.13 110.02,-19.26 120.22,-22.12 119.78,-15.13"/>
<text text-anchor="middle" x="254.56" y="-18.3" font-family="Times,serif" font-size="14.00">{c0, c2}</text>
</g>
<!-- 4&#45;&gt;4 -->
<g id="edge29" class="edge">
<title>4&#45;&gt;4</title>
<path fill="none" stroke="black" d="M109.91,-25.03C164.92,-29.82 285.06,-28.81 285.06,-22 285.06,-15.59 178.59,-14.31 120.21,-18.18"/>
<polygon fill="black" stroke="black" points="119.62,-14.72 109.91,-18.97 120.15,-21.7 119.62,-14.72"/>
<text text-anchor="middle" x="302.56" y="-18.3" font-family="Times,serif" font-size="14.00">{c0}</text>
</g>
<!-- 4&#45;&gt;4 -->
<g id="edge30" class="edge">
<title>4&#45;&gt;4</title>
<path fill="none" stroke="black" d="M110.01,-25.41C173.01,-31.83 320.06,-30.69 320.06,-22 320.06,-13.75 187.56,-12.31 120.23,-17.67"/>
<polygon fill="black" stroke="black" points="119.65,-14.21 110.01,-18.59 120.28,-21.18 119.65,-14.21"/>
<text text-anchor="middle" x="350.56" y="-18.3" font-family="Times,serif" font-size="14.00">{c1, c2}</text>
</g>
<!-- 4&#45;&gt;4 -->
<g id="edge31" class="edge">
<title>4&#45;&gt;4</title>
<path fill="none" stroke="black" d="M110.07,-25.62C184.75,-33.85 381.06,-32.64 381.06,-22 381.06,-11.82 201.26,-10.27 120.34,-17.38"/>
<polygon fill="black" stroke="black" points="119.68,-13.92 110.07,-18.38 120.36,-20.89 119.68,-13.92"/>
<text text-anchor="middle" x="390.56" y="-18.3" font-family="Times,serif" font-size="14.00">{}</text>
</g>
<!-- 4&#45;&gt;4 -->
<g id="edge32" class="edge">
<title>4&#45;&gt;4</title>
<path fill="none" stroke="black" d="M109.97,-25.93C189.42,-35.85 400.06,-34.54 400.06,-22 400.06,-9.96 205.95,-8.28 120.12,-16.93"/>
<polygon fill="black" stroke="black" points="119.52,-13.48 109.97,-18.07 120.3,-20.43 119.52,-13.48"/>
<text text-anchor="middle" x="443.06" y="-18.3" font-family="Times,serif" font-size="14.00">{c0, c1, c2}</text>
</g>
<!-- 4&#45;&gt;4 -->
<g id="edge33" class="edge">
<title>4&#45;&gt;4</title>
<path fill="none" stroke="black" d="M109.77,-25.96C202.81,-37.87 486.06,-36.55 486.06,-22 486.06,-7.95 221.84,-6.24 119.96,-16.86"/>
<polygon fill="black" stroke="black" points="119.31,-13.41 109.77,-18.04 120.11,-20.37 119.31,-13.41"/>
<text text-anchor="middle" x="503.56" y="-18.3" font-family="Times,serif" font-size="14.00">{c1}</text>
</g>
</g>
</svg>
