<?xml version="1.0" encoding="UTF-8" standalone="no"?>
<!DOCTYPE svg PUBLIC "-//W3C//DTD SVG 1.1//EN"
 "http://www.w3.org/Graphics/SVG/1.1/DTD/svg11.dtd">
<!-- Generated by graphviz version 2.43.0 (0)
 -->
<!-- Title: %3 Pages: 1 -->
<svg width="379pt" height="386pt"
 viewBox="0.00 0.00 379.07 386.00" xmlns="http://www.w3.org/2000/svg" xmlns:xlink="http://www.w3.org/1999/xlink">
<g id="graph0" class="graph" transform="scale(1 1) rotate(0) translate(4 382)">
<title>%3</title>
<polygon fill="white" stroke="transparent" points="-4,4 -4,-382 375.07,-382 375.07,4 -4,4"/>
<!-- fake -->
<g id="node1" class="node">
<title>fake</title>
</g>
<!-- 0 -->
<g id="node4" class="node">
<title>0</title>
<ellipse fill="none" stroke="black" cx="179.07" cy="-287" rx="27" ry="18"/>
<text text-anchor="middle" x="179.07" y="-283.3" font-family="Times,serif" font-size="14.00">0</text>
</g>
<!-- fake&#45;&gt;0 -->
<g id="edge1" class="edge">
<title>fake&#45;&gt;0</title>
<path fill="none" stroke="black" stroke-width="2" d="M179.07,-341.81C179.07,-333.79 179.07,-324.05 179.07,-315.07"/>
<polygon fill="black" stroke="black" stroke-width="2" points="182.57,-315.03 179.07,-305.03 175.57,-315.03 182.57,-315.03"/>
</g>
<!-- 3 -->
<g id="node2" class="node">
<title>3</title>
<ellipse fill="none" stroke="black" cx="88.07" cy="-22" rx="18" ry="18"/>
<ellipse fill="none" stroke="black" cx="88.07" cy="-22" rx="22" ry="22"/>
<text text-anchor="middle" x="88.07" y="-18.3" font-family="Times,serif" font-size="14.00">3</text>
</g>
<!-- 3&#45;&gt;3 -->
<g id="edge9" class="edge">
<title>3&#45;&gt;3</title>
<path fill="none" stroke="black" d="M108.65,-30.37C118.91,-31.53 128.07,-28.74 128.07,-22 128.07,-17.68 124.31,-14.99 118.91,-13.91"/>
<polygon fill="black" stroke="black" points="118.74,-10.41 108.65,-13.63 118.55,-17.4 118.74,-10.41"/>
<text text-anchor="middle" x="137.57" y="-18.3" font-family="Times,serif" font-size="14.00">{}</text>
</g>
<!-- 3&#45;&gt;0 -->
<g id="edge6" class="edge">
<title>3&#45;&gt;0</title>
<path fill="none" stroke="black" d="M70.94,-36.07C42.49,-59.52 -10.26,-111.23 2.07,-164 11.88,-206 11.63,-223.76 45.07,-251 72.46,-273.32 112.56,-281.55 141.75,-284.51"/>
<polygon fill="black" stroke="black" points="141.71,-288.02 151.97,-285.38 142.3,-281.04 141.71,-288.02"/>
<text text-anchor="middle" x="19.57" y="-152.8" font-family="Times,serif" font-size="14.00">{c1}</text>
</g>
<!-- 3&#45;&gt;0 -->
<g id="edge7" class="edge">
<title>3&#45;&gt;0</title>
<path fill="none" stroke="black" d="M79.04,-42.24C67.44,-69.47 49.96,-120.74 60.07,-164 69.88,-206 72.15,-220.92 103.07,-251 114.66,-262.28 130.53,-270.36 144.78,-275.9"/>
<polygon fill="black" stroke="black" points="143.72,-279.24 154.31,-279.34 146.09,-272.65 143.72,-279.24"/>
<text text-anchor="middle" x="77.57" y="-152.8" font-family="Times,serif" font-size="14.00">{c0}</text>
</g>
<!-- 3&#45;&gt;0 -->
<g id="edge8" class="edge">
<title>3&#45;&gt;0</title>
<path fill="none" stroke="black" d="M89.47,-44.19C93.04,-86.2 105.15,-181.93 144.07,-251 146.91,-256.05 150.69,-260.88 154.71,-265.24"/>
<polygon fill="black" stroke="black" points="152.5,-267.97 162.07,-272.54 157.44,-263.01 152.5,-267.97"/>
<text text-anchor="middle" x="127.57" y="-152.8" font-family="Times,serif" font-size="14.00">{c2}</text>
</g>
<!-- 1 -->
<g id="node3" class="node">
<title>1</title>
<ellipse fill="none" stroke="black" cx="212.07" cy="-200" rx="27" ry="18"/>
<text text-anchor="middle" x="212.07" y="-196.3" font-family="Times,serif" font-size="14.00">1</text>
</g>
<!-- 1&#45;&gt;1 -->
<g id="edge13" class="edge">
<title>1&#45;&gt;1</title>
<path fill="none" stroke="black" d="M236.6,-207.75C247.57,-208.49 257.07,-205.91 257.07,-200 257.07,-196.03 252.78,-193.56 246.64,-192.59"/>
<polygon fill="black" stroke="black" points="246.71,-189.09 236.6,-192.25 246.47,-196.09 246.71,-189.09"/>
<text text-anchor="middle" x="266.57" y="-196.3" font-family="Times,serif" font-size="14.00">{}</text>
</g>
<!-- 1&#45;&gt;0 -->
<g id="edge11" class="edge">
<title>1&#45;&gt;0</title>
<path fill="none" stroke="black" d="M205.56,-217.76C200.91,-229.74 194.55,-246.1 189.24,-259.8"/>
<polygon fill="black" stroke="black" points="185.94,-258.62 185.59,-269.21 192.47,-261.15 185.94,-258.62"/>
<text text-anchor="middle" x="214.57" y="-239.8" font-family="Times,serif" font-size="14.00">{c0}</text>
</g>
<!-- 1&#45;&gt;0 -->
<g id="edge12" class="edge">
<title>1&#45;&gt;0</title>
<path fill="none" stroke="black" d="M226.44,-215.25C234.85,-225.38 242.65,-239.24 236.07,-251 230.65,-260.68 221.35,-268 211.81,-273.39"/>
<polygon fill="black" stroke="black" points="210.07,-270.35 202.71,-277.97 213.21,-276.6 210.07,-270.35"/>
<text text-anchor="middle" x="255.57" y="-239.8" font-family="Times,serif" font-size="14.00">{c2}</text>
</g>
<!-- 2 -->
<g id="node5" class="node">
<title>2</title>
<ellipse fill="none" stroke="black" cx="274.07" cy="-113" rx="27" ry="18"/>
<text text-anchor="middle" x="274.07" y="-109.3" font-family="Times,serif" font-size="14.00">2</text>
</g>
<!-- 1&#45;&gt;2 -->
<g id="edge10" class="edge">
<title>1&#45;&gt;2</title>
<path fill="none" stroke="black" d="M223.44,-183.41C232.79,-170.59 246.19,-152.22 256.85,-137.6"/>
<polygon fill="black" stroke="black" points="259.7,-139.63 262.77,-129.49 254.05,-135.51 259.7,-139.63"/>
<text text-anchor="middle" x="263.57" y="-152.8" font-family="Times,serif" font-size="14.00">{c1}</text>
</g>
<!-- 0&#45;&gt;1 -->
<g id="edge3" class="edge">
<title>0&#45;&gt;1</title>
<path fill="none" stroke="black" d="M163.14,-272.36C153.37,-262.27 143.99,-248.23 151.07,-236 157.17,-225.46 167.78,-217.82 178.46,-212.42"/>
<polygon fill="black" stroke="black" points="180.07,-215.53 187.75,-208.23 177.2,-209.15 180.07,-215.53"/>
<text text-anchor="middle" x="168.57" y="-239.8" font-family="Times,serif" font-size="14.00">{c0}</text>
</g>
<!-- 0&#45;&gt;0 -->
<g id="edge2" class="edge">
<title>0&#45;&gt;0</title>
<path fill="none" stroke="black" d="M205.86,-289.25C215.85,-289.32 224.07,-288.57 224.07,-287 224.07,-286.02 220.85,-285.36 216.01,-285.02"/>
<polygon fill="black" stroke="black" points="215.95,-281.52 205.86,-284.75 215.77,-288.51 215.95,-281.52"/>
<text text-anchor="middle" x="241.57" y="-283.3" font-family="Times,serif" font-size="14.00">{c1}</text>
</g>
<!-- 0&#45;&gt;0 -->
<g id="edge4" class="edge">
<title>0&#45;&gt;0</title>
<path fill="none" stroke="black" d="M205.69,-290.79C230.22,-292.46 259.07,-291.2 259.07,-287 259.07,-283.38 237.57,-281.94 215.91,-282.69"/>
<polygon fill="black" stroke="black" points="215.5,-279.21 205.69,-283.21 215.85,-286.2 215.5,-279.21"/>
<text text-anchor="middle" x="276.57" y="-283.3" font-family="Times,serif" font-size="14.00">{c2}</text>
</g>
<!-- 0&#45;&gt;0 -->
<g id="edge5" class="edge">
<title>0&#45;&gt;0</title>
<path fill="none" stroke="black" d="M205.35,-291.76C241.69,-295.53 294.07,-293.94 294.07,-287 294.07,-280.68 250.68,-278.8 215.49,-281.35"/>
<polygon fill="black" stroke="black" points="215.01,-277.88 205.35,-282.24 215.62,-284.86 215.01,-277.88"/>
<text text-anchor="middle" x="303.57" y="-283.3" font-family="Times,serif" font-size="14.00">{}</text>
</g>
<!-- 2&#45;&gt;3 -->
<g id="edge16" class="edge">
<title>2&#45;&gt;3</title>
<path fill="none" stroke="black" d="M252.73,-101.79C219.36,-85.82 154.74,-54.9 117.14,-36.91"/>
<polygon fill="black" stroke="black" points="118.28,-33.58 107.75,-32.42 115.26,-39.89 118.28,-33.58"/>
<text text-anchor="middle" x="214.57" y="-65.8" font-family="Times,serif" font-size="14.00">{c2}</text>
</g>
<!-- 2&#45;&gt;0 -->
<g id="edge14" class="edge">
<title>2&#45;&gt;0</title>
<path fill="none" stroke="black" d="M280.92,-130.83C291.34,-159.45 306.99,-217.76 277.07,-251 261.45,-268.35 236.64,-277.1 215.9,-281.51"/>
<polygon fill="black" stroke="black" points="214.98,-278.12 205.79,-283.4 216.26,-285.01 214.98,-278.12"/>
<text text-anchor="middle" x="311.57" y="-196.3" font-family="Times,serif" font-size="14.00">{c1}</text>
</g>
<!-- 2&#45;&gt;0 -->
<g id="edge15" class="edge">
<title>2&#45;&gt;0</title>
<path fill="none" stroke="black" d="M291.05,-127.39C313.49,-146.82 348.48,-184.19 333.07,-218 313.11,-261.75 255.2,-277.35 216.36,-282.92"/>
<polygon fill="black" stroke="black" points="215.43,-279.51 205.95,-284.23 216.31,-286.45 215.43,-279.51"/>
<text text-anchor="middle" x="353.57" y="-196.3" font-family="Times,serif" font-size="14.00">{c0}</text>
</g>
<!-- 2&#45;&gt;2 -->
<g id="edge17" class="edge">
<title>2&#45;&gt;2</title>
<path fill="none" stroke="black" d="M298.6,-120.75C309.57,-121.49 319.07,-118.91 319.07,-113 319.07,-109.03 314.78,-106.56 308.64,-105.59"/>
<polygon fill="black" stroke="black" points="308.71,-102.09 298.6,-105.25 308.47,-109.09 308.71,-102.09"/>
<text text-anchor="middle" x="328.57" y="-109.3" font-family="Times,serif" font-size="14.00">{}</text>
</g>
</g>
</svg>
