<?xml version="1.0" encoding="UTF-8" standalone="no"?>
<!DOCTYPE svg PUBLIC "-//W3C//DTD SVG 1.1//EN"
 "http://www.w3.org/Graphics/SVG/1.1/DTD/svg11.dtd">
<!-- Generated by graphviz version 2.43.0 (0)
 -->
<!-- Title: %3 Pages: 1 -->
<svg width="315pt" height="117pt"
 viewBox="0.00 0.00 314.55 117.00" xmlns="http://www.w3.org/2000/svg" xmlns:xlink="http://www.w3.org/1999/xlink">
<g id="graph0" class="graph" transform="scale(1 1) rotate(0) translate(4 113)">
<title>%3</title>
<polygon fill="white" stroke="transparent" points="-4,4 -4,-113 310.55,-113 310.55,4 -4,4"/>
<!-- fake -->
<g id="node1" class="node">
<title>fake</title>
</g>
<!-- 0 -->
<g id="node2" class="node">
<title>0</title>
<ellipse fill="none" stroke="black" cx="30.55" cy="-18" rx="27" ry="18"/>
<text text-anchor="middle" x="30.55" y="-14.3" font-family="Times,serif" font-size="14.00">0</text>
</g>
<!-- fake&#45;&gt;0 -->
<g id="edge1" class="edge">
<title>fake&#45;&gt;0</title>
<path fill="none" stroke="black" stroke-width="2" d="M30.55,-72.81C30.55,-64.79 30.55,-55.05 30.55,-46.07"/>
<polygon fill="black" stroke="black" stroke-width="2" points="34.05,-46.03 30.55,-36.03 27.05,-46.03 34.05,-46.03"/>
</g>
<!-- 0&#45;&gt;0 -->
<g id="edge2" class="edge">
<title>0&#45;&gt;0</title>
<path fill="none" stroke="black" d="M57.79,-19.5C67.57,-19.53 75.55,-19.03 75.55,-18 75.55,-17.37 72.59,-16.94 68.06,-16.71"/>
<polygon fill="black" stroke="black" points="67.86,-13.2 57.79,-16.5 67.72,-20.2 67.86,-13.2"/>
<text text-anchor="middle" x="93.05" y="-14.3" font-family="Times,serif" font-size="14.00">{c1}</text>
</g>
<!-- 0&#45;&gt;0 -->
<g id="edge3" class="edge">
<title>0&#45;&gt;0</title>
<path fill="none" stroke="black" d="M57.58,-20.54C82.02,-21.63 110.55,-20.78 110.55,-18 110.55,-15.6 89.29,-14.64 67.75,-15.12"/>
<polygon fill="black" stroke="black" points="67.46,-11.63 57.58,-15.46 67.69,-18.62 67.46,-11.63"/>
<text text-anchor="middle" x="128.05" y="-14.3" font-family="Times,serif" font-size="14.00">{c2}</text>
</g>
<!-- 0&#45;&gt;0 -->
<g id="edge4" class="edge">
<title>0&#45;&gt;0</title>
<path fill="none" stroke="black" d="M57.39,-21.21C93.7,-23.68 145.55,-22.61 145.55,-18 145.55,-13.81 102.6,-12.54 67.5,-14.21"/>
<polygon fill="black" stroke="black" points="67.17,-10.72 57.39,-14.79 67.57,-17.71 67.17,-10.72"/>
<text text-anchor="middle" x="163.05" y="-14.3" font-family="Times,serif" font-size="14.00">{c3}</text>
</g>
<!-- 0&#45;&gt;0 -->
<g id="edge5" class="edge">
<title>0&#45;&gt;0</title>
<path fill="none" stroke="black" d="M56.98,-21.69C103.68,-25.71 180.55,-24.48 180.55,-18 180.55,-11.97 114.11,-10.49 67.24,-13.54"/>
<polygon fill="black" stroke="black" points="66.69,-10.07 56.98,-14.31 67.22,-17.05 66.69,-10.07"/>
<text text-anchor="middle" x="198.05" y="-14.3" font-family="Times,serif" font-size="14.00">{c0}</text>
</g>
<!-- 0&#45;&gt;0 -->
<g id="edge6" class="edge">
<title>0&#45;&gt;0</title>
<path fill="none" stroke="black" d="M56.87,-22.07C113.05,-27.74 215.55,-26.38 215.55,-18 215.55,-10.1 124.33,-8.44 66.84,-13.03"/>
<polygon fill="black" stroke="black" points="66.52,-9.54 56.87,-13.93 67.14,-16.52 66.52,-9.54"/>
<text text-anchor="middle" x="225.05" y="-14.3" font-family="Times,serif" font-size="14.00">{}</text>
</g>
</g>
</svg>
