<?xml version="1.0" encoding="UTF-8" standalone="no"?>
<!DOCTYPE svg PUBLIC "-//W3C//DTD SVG 1.1//EN"
 "http://www.w3.org/Graphics/SVG/1.1/DTD/svg11.dtd">
<!-- Generated by graphviz version 2.40.1 (20161225.0304)
 -->
<!-- Title: %3 Pages: 1 -->
<svg width="319pt" height="117pt"
 viewBox="0.00 0.00 319.00 117.00" xmlns="http://www.w3.org/2000/svg" xmlns:xlink="http://www.w3.org/1999/xlink">
<g id="graph0" class="graph" transform="scale(1 1) rotate(0) translate(4 113)">
<title>%3</title>
<polygon fill="#ffffff" stroke="transparent" points="-4,4 -4,-113 315,-113 315,4 -4,4"/>
<!-- fake -->
<g id="node1" class="node">
<title>fake</title>
</g>
<!-- 0 -->
<g id="node2" class="node">
<title>0</title>
<ellipse fill="none" stroke="#000000" cx="27" cy="-18" rx="27" ry="18"/>
<text text-anchor="middle" x="27" y="-14.3" font-family="Times,serif" font-size="14.00" fill="#000000">0</text>
</g>
<!-- fake&#45;&gt;0 -->
<g id="edge1" class="edge">
<title>fake&#45;&gt;0</title>
<path fill="none" stroke="#000000" stroke-width="2" d="M27,-72.9551C27,-64.8828 27,-55.1764 27,-46.1817"/>
<polygon fill="#000000" stroke="#000000" stroke-width="2" points="30.5001,-46.0903 27,-36.0904 23.5001,-46.0904 30.5001,-46.0903"/>
</g>
<!-- 0&#45;&gt;0 -->
<g id="edge2" class="edge">
<title>0&#45;&gt;0</title>
<path fill="none" stroke="#000000" d="M54.2408,-19.4985C64.0239,-19.5308 72,-19.0313 72,-18 72,-17.3716 69.0382,-16.9406 64.5105,-16.7071"/>
<polygon fill="#000000" stroke="#000000" points="64.3089,-13.2025 54.2408,-16.5015 64.1687,-20.2011 64.3089,-13.2025"/>
<text text-anchor="middle" x="85.5" y="-14.3" font-family="Times,serif" font-size="14.00" fill="#000000">{c3}</text>
</g>
<!-- 0&#45;&gt;0 -->
<g id="edge3" class="edge">
<title>0&#45;&gt;0</title>
<path fill="none" stroke="#000000" d="M53.7517,-20.6125C75.4393,-21.5896 99,-20.7188 99,-18 99,-15.7061 82.2268,-14.7277 63.9579,-15.0648"/>
<polygon fill="#000000" stroke="#000000" points="63.6361,-11.5731 53.7517,-15.3875 63.8573,-18.5696 63.6361,-11.5731"/>
<text text-anchor="middle" x="112.5" y="-14.3" font-family="Times,serif" font-size="14.00" fill="#000000">{c0}</text>
</g>
<!-- 0&#45;&gt;0 -->
<g id="edge4" class="edge">
<title>0&#45;&gt;0</title>
<path fill="none" stroke="#000000" d="M53.8594,-21.375C85.5,-23.625 126,-22.5 126,-18 126,-13.9746 93.5925,-12.6498 64.1084,-14.0257"/>
<polygon fill="#000000" stroke="#000000" points="63.638,-10.5471 53.8594,-14.625 64.0467,-17.5352 63.638,-10.5471"/>
<text text-anchor="middle" x="139.5" y="-14.3" font-family="Times,serif" font-size="14.00" fill="#000000">{c4}</text>
</g>
<!-- 0&#45;&gt;0 -->
<g id="edge5" class="edge">
<title>0&#45;&gt;0</title>
<path fill="none" stroke="#000000" d="M53.5534,-21.9125C94.2332,-25.6635 153,-24.3594 153,-18 153,-12.1499 103.2683,-10.5777 63.6346,-13.2836"/>
<polygon fill="#000000" stroke="#000000" points="63.2435,-9.8036 53.5534,-14.0875 63.8,-16.7814 63.2435,-9.8036"/>
<text text-anchor="middle" x="166.5" y="-14.3" font-family="Times,serif" font-size="14.00" fill="#000000">{c2}</text>
</g>
<!-- 0&#45;&gt;0 -->
<g id="edge6" class="edge">
<title>0&#45;&gt;0</title>
<path fill="none" stroke="#000000" d="M53.4921,-22.3465C102.5556,-27.691 180,-26.2422 180,-18 180,-10.3051 112.4997,-8.5314 63.611,-12.6787"/>
<polygon fill="#000000" stroke="#000000" points="63.1104,-9.2106 53.4921,-13.6535 63.7817,-16.1783 63.1104,-9.2106"/>
<text text-anchor="middle" x="193.5" y="-14.3" font-family="Times,serif" font-size="14.00" fill="#000000">{c1}</text>
</g>
<!-- 0&#45;&gt;0 -->
<g id="edge7" class="edge">
<title>0&#45;&gt;0</title>
<path fill="none" stroke="#000000" d="M53.4316,-22.6976C110.4461,-29.7143 207,-28.1484 207,-18 207,-8.4264 121.0741,-6.4906 63.4754,-12.1927"/>
<polygon fill="#000000" stroke="#000000" points="62.9867,-8.7253 53.4316,-13.3024 63.7555,-15.683 62.9867,-8.7253"/>
<text text-anchor="middle" x="214" y="-14.3" font-family="Times,serif" font-size="14.00" fill="#000000">{}</text>
</g>
</g>
</svg>
