<?xml version="1.0" encoding="UTF-8" standalone="no"?>
<!DOCTYPE svg PUBLIC "-//W3C//DTD SVG 1.1//EN"
 "http://www.w3.org/Graphics/SVG/1.1/DTD/svg11.dtd">
<!-- Generated by graphviz version 2.40.1 (20161225.0304)
 -->
<!-- Title: %3 Pages: 1 -->
<svg width="1005pt" height="560pt"
 viewBox="0.00 0.00 1005.00 560.00" xmlns="http://www.w3.org/2000/svg" xmlns:xlink="http://www.w3.org/1999/xlink">
<g id="graph0" class="graph" transform="scale(1 1) rotate(0) translate(4 556)">
<title>%3</title>
<polygon fill="#ffffff" stroke="transparent" points="-4,4 -4,-556 1001,-556 1001,4 -4,4"/>
<!-- fake -->
<g id="node1" class="node">
<title>fake</title>
</g>
<!-- 0 -->
<g id="node6" class="node">
<title>0</title>
<ellipse fill="none" stroke="#000000" cx="462" cy="-461" rx="27" ry="18"/>
<text text-anchor="middle" x="462" y="-457.3" font-family="Times,serif" font-size="14.00" fill="#000000">0</text>
</g>
<!-- fake&#45;&gt;0 -->
<g id="edge1" class="edge">
<title>fake&#45;&gt;0</title>
<path fill="none" stroke="#000000" stroke-width="2" d="M462,-515.9551C462,-507.8828 462,-498.1764 462,-489.1817"/>
<polygon fill="#000000" stroke="#000000" stroke-width="2" points="465.5001,-489.0903 462,-479.0904 458.5001,-489.0904 465.5001,-489.0903"/>
</g>
<!-- 3 -->
<g id="node2" class="node">
<title>3</title>
<ellipse fill="none" stroke="#000000" cx="664" cy="-200" rx="27" ry="18"/>
<text text-anchor="middle" x="664" y="-196.3" font-family="Times,serif" font-size="14.00" fill="#000000">3</text>
</g>
<!-- 3&#45;&gt;3 -->
<g id="edge7" class="edge">
<title>3&#45;&gt;3</title>
<path fill="none" stroke="#000000" d="M688.5325,-207.752C699.5078,-208.4902 709,-205.9063 709,-200 709,-196.0317 704.7151,-193.5632 698.5743,-192.5944"/>
<polygon fill="#000000" stroke="#000000" points="698.6472,-189.0949 688.5325,-192.248 698.4059,-196.0908 698.6472,-189.0949"/>
<text text-anchor="middle" x="716" y="-196.3" font-family="Times,serif" font-size="14.00" fill="#000000">{}</text>
</g>
<!-- 4 -->
<g id="node5" class="node">
<title>4</title>
<ellipse fill="none" stroke="#000000" cx="813" cy="-113" rx="27" ry="18"/>
<text text-anchor="middle" x="813" y="-109.3" font-family="Times,serif" font-size="14.00" fill="#000000">4</text>
</g>
<!-- 3&#45;&gt;4 -->
<g id="edge5" class="edge">
<title>3&#45;&gt;4</title>
<path fill="none" stroke="#000000" d="M682.2981,-186.717C697.4244,-175.984 719.6453,-160.7788 740,-149 753.2866,-141.3114 768.442,-133.6655 781.4878,-127.4106"/>
<polygon fill="#000000" stroke="#000000" points="783.0138,-130.5606 790.5573,-123.1212 780.0209,-124.2327 783.0138,-130.5606"/>
<text text-anchor="middle" x="753.5" y="-152.8" font-family="Times,serif" font-size="14.00" fill="#000000">{c3}</text>
</g>
<!-- 3&#45;&gt;0 -->
<g id="edge2" class="edge">
<title>3&#45;&gt;0</title>
<path fill="none" stroke="#000000" d="M646.0304,-213.631C638.7661,-219.8371 630.756,-227.657 625,-236 601.3316,-270.3058 600.4981,-282.6655 590,-323 578.4889,-367.2265 606.339,-389.9612 577,-425 566.7578,-437.232 527.901,-447.667 498.1607,-454.1046"/>
<polygon fill="#000000" stroke="#000000" points="497.1553,-450.739 488.0832,-456.2113 498.5878,-457.5909 497.1553,-450.739"/>
<text text-anchor="middle" x="603.5" y="-326.8" font-family="Times,serif" font-size="14.00" fill="#000000">{c4}</text>
</g>
<!-- 3&#45;&gt;0 -->
<g id="edge3" class="edge">
<title>3&#45;&gt;0</title>
<path fill="none" stroke="#000000" d="M660.7894,-217.9939C651.8766,-266.0108 625.4681,-395.5276 595,-425 581.2882,-438.2637 533.0337,-448.9743 498.6026,-455.1644"/>
<polygon fill="#000000" stroke="#000000" points="497.6659,-451.7748 488.4145,-456.9382 498.8666,-458.6711 497.6659,-451.7748"/>
<text text-anchor="middle" x="649.5" y="-326.8" font-family="Times,serif" font-size="14.00" fill="#000000">{c0}</text>
</g>
<!-- 3&#45;&gt;0 -->
<g id="edge4" class="edge">
<title>3&#45;&gt;0</title>
<path fill="none" stroke="#000000" d="M666.9814,-217.8944C667.8083,-223.6572 668.591,-230.0827 669,-236 669.4597,-242.6508 669.0766,-244.3338 669,-251 668.0679,-332.0994 680.0888,-377.9868 614,-425 595.6925,-438.0233 537.4079,-449.2693 498.5652,-455.583"/>
<polygon fill="#000000" stroke="#000000" points="497.9878,-452.1307 488.6602,-457.1552 499.0853,-459.0442 497.9878,-452.1307"/>
<text text-anchor="middle" x="681.5" y="-326.8" font-family="Times,serif" font-size="14.00" fill="#000000">{c1}</text>
</g>
<!-- 3&#45;&gt;0 -->
<g id="edge6" class="edge">
<title>3&#45;&gt;0</title>
<path fill="none" stroke="#000000" d="M674.186,-216.7345C677.4151,-222.6472 680.7312,-229.4564 683,-236 695.8791,-273.1458 695.4297,-283.8473 699,-323 702.0209,-356.1277 690.0409,-365.4495 670,-392 657.3132,-408.8078 654.6078,-415.1406 636,-425 612.5944,-437.4016 542.289,-449.3649 498.5401,-455.8971"/>
<polygon fill="#000000" stroke="#000000" points="497.9538,-452.4456 488.5681,-457.3609 498.9704,-459.3714 497.9538,-452.4456"/>
<text text-anchor="middle" x="712.5" y="-326.8" font-family="Times,serif" font-size="14.00" fill="#000000">{c2}</text>
</g>
<!-- 5 -->
<g id="node3" class="node">
<title>5</title>
<ellipse fill="none" stroke="#000000" cx="125" cy="-22" rx="18" ry="18"/>
<ellipse fill="none" stroke="#000000" cx="125" cy="-22" rx="22" ry="22"/>
<text text-anchor="middle" x="125" y="-18.3" font-family="Times,serif" font-size="14.00" fill="#000000">5</text>
</g>
<!-- 5&#45;&gt;5 -->
<g id="edge19" class="edge">
<title>5&#45;&gt;5</title>
<path fill="none" stroke="#000000" d="M145.5808,-30.3702C155.8447,-31.5284 165,-28.7383 165,-22 165,-17.6833 161.2427,-14.9869 155.8436,-13.9109"/>
<polygon fill="#000000" stroke="#000000" points="155.6729,-10.405 145.5808,-13.6298 155.4812,-17.4024 155.6729,-10.405"/>
<text text-anchor="middle" x="172" y="-18.3" font-family="Times,serif" font-size="14.00" fill="#000000">{}</text>
</g>
<!-- 5&#45;&gt;0 -->
<g id="edge14" class="edge">
<title>5&#45;&gt;0</title>
<path fill="none" stroke="#000000" d="M103.5117,-27.0901C67.7724,-36.9786 0,-62.401 0,-113 0,-374 0,-374 0,-374 0,-401.7449 11.9255,-411.2088 36,-425 69.322,-444.0886 327.1854,-455.8418 424.7585,-459.6443"/>
<polygon fill="#000000" stroke="#000000" points="424.6404,-463.1423 434.7673,-460.0283 424.9088,-456.1474 424.6404,-463.1423"/>
<text text-anchor="middle" x="13.5" y="-239.8" font-family="Times,serif" font-size="14.00" fill="#000000">{c4}</text>
</g>
<!-- 5&#45;&gt;0 -->
<g id="edge15" class="edge">
<title>5&#45;&gt;0</title>
<path fill="none" stroke="#000000" d="M106.0743,-33.5893C83.8562,-48.8124 50,-77.7867 50,-113 50,-374 50,-374 50,-374 50,-401.7449 62.0027,-411.0749 86,-425 114.8526,-441.7426 335.3834,-454.6135 424.6581,-459.19"/>
<polygon fill="#000000" stroke="#000000" points="424.7088,-462.697 434.8729,-459.7067 425.0625,-455.7059 424.7088,-462.697"/>
<text text-anchor="middle" x="63.5" y="-239.8" font-family="Times,serif" font-size="14.00" fill="#000000">{c0}</text>
</g>
<!-- 5&#45;&gt;0 -->
<g id="edge16" class="edge">
<title>5&#45;&gt;0</title>
<path fill="none" stroke="#000000" d="M116.1155,-42.1656C108.9298,-60.324 100,-87.9325 100,-113 100,-374 100,-374 100,-374 100,-401.7449 112.1045,-410.9009 136,-425 160.4349,-439.4174 344.4113,-453.2058 424.7059,-458.6062"/>
<polygon fill="#000000" stroke="#000000" points="424.6601,-462.1108 434.8703,-459.2822 425.1246,-455.1262 424.6601,-462.1108"/>
<text text-anchor="middle" x="113.5" y="-239.8" font-family="Times,serif" font-size="14.00" fill="#000000">{c1}</text>
</g>
<!-- 5&#45;&gt;0 -->
<g id="edge17" class="edge">
<title>5&#45;&gt;0</title>
<path fill="none" stroke="#000000" d="M133.8845,-42.1656C141.0702,-60.324 150,-87.9325 150,-113 150,-374 150,-374 150,-374 150,-399.0511 153.7235,-410.2888 174,-425 193.9227,-439.4545 351.2058,-452.8159 424.5643,-458.3324"/>
<polygon fill="#000000" stroke="#000000" points="424.5208,-461.8387 434.7524,-459.0886 425.039,-454.8579 424.5208,-461.8387"/>
<text text-anchor="middle" x="163.5" y="-239.8" font-family="Times,serif" font-size="14.00" fill="#000000">{c3}</text>
</g>
<!-- 5&#45;&gt;0 -->
<g id="edge18" class="edge">
<title>5&#45;&gt;0</title>
<path fill="none" stroke="#000000" d="M140.4514,-38.0163C146.383,-44.9256 152.7434,-53.3901 157,-62 223.9769,-197.4748 187.5337,-249.9066 239,-392 244.5509,-407.3254 241.9825,-415.1907 255,-425 281.1641,-444.7158 372.5233,-454.4878 424.7066,-458.5637"/>
<polygon fill="#000000" stroke="#000000" points="424.6667,-462.0704 434.9,-459.3264 425.189,-455.0899 424.6667,-462.0704"/>
<text text-anchor="middle" x="219.5" y="-239.8" font-family="Times,serif" font-size="14.00" fill="#000000">{c2}</text>
</g>
<!-- 2 -->
<g id="node4" class="node">
<title>2</title>
<ellipse fill="none" stroke="#000000" cx="391" cy="-287" rx="27" ry="18"/>
<text text-anchor="middle" x="391" y="-283.3" font-family="Times,serif" font-size="14.00" fill="#000000">2</text>
</g>
<!-- 2&#45;&gt;3 -->
<g id="edge12" class="edge">
<title>2&#45;&gt;3</title>
<path fill="none" stroke="#000000" d="M415.4429,-278.9497C446.2963,-268.8136 501.0188,-250.9202 548,-236 575.3104,-227.3268 606.3124,-217.7177 629.3916,-210.6101"/>
<polygon fill="#000000" stroke="#000000" points="630.5504,-213.9156 639.0794,-207.6302 628.4923,-207.2249 630.5504,-213.9156"/>
<text text-anchor="middle" x="561.5" y="-239.8" font-family="Times,serif" font-size="14.00" fill="#000000">{c2}</text>
</g>
<!-- 2&#45;&gt;2 -->
<g id="edge13" class="edge">
<title>2&#45;&gt;2</title>
<path fill="none" stroke="#000000" d="M415.5325,-294.752C426.5078,-295.4902 436,-292.9063 436,-287 436,-283.0317 431.7151,-280.5632 425.5743,-279.5944"/>
<polygon fill="#000000" stroke="#000000" points="425.6472,-276.0949 415.5325,-279.248 425.4059,-283.0908 425.6472,-276.0949"/>
<text text-anchor="middle" x="443" y="-283.3" font-family="Times,serif" font-size="14.00" fill="#000000">{}</text>
</g>
<!-- 2&#45;&gt;0 -->
<g id="edge8" class="edge">
<title>2&#45;&gt;0</title>
<path fill="none" stroke="#000000" d="M364.7758,-292.3639C342.024,-297.7827 308.7844,-307.5836 283,-323 253.4866,-340.646 234.3753,-360.4281 248,-392 256.4711,-411.6297 264.0092,-415.1799 283,-425 307.3589,-437.596 380.558,-449.6102 425.451,-456.0753"/>
<polygon fill="#000000" stroke="#000000" points="424.9981,-459.546 435.39,-457.4827 425.9796,-452.6151 424.9981,-459.546"/>
<text text-anchor="middle" x="261.5" y="-370.3" font-family="Times,serif" font-size="14.00" fill="#000000">{c4}</text>
</g>
<!-- 2&#45;&gt;0 -->
<g id="edge9" class="edge">
<title>2&#45;&gt;0</title>
<path fill="none" stroke="#000000" d="M369.4801,-298.1141C349.9137,-309.5993 322.4096,-329.5611 311,-356 298.8287,-384.204 294.6153,-402.0202 315,-425 329.3838,-441.215 386.2855,-451.4823 424.9262,-456.7333"/>
<polygon fill="#000000" stroke="#000000" points="424.922,-460.2622 435.2901,-458.0821 425.8255,-453.3207 424.922,-460.2622"/>
<text text-anchor="middle" x="324.5" y="-370.3" font-family="Times,serif" font-size="14.00" fill="#000000">{c0}</text>
</g>
<!-- 2&#45;&gt;0 -->
<g id="edge10" class="edge">
<title>2&#45;&gt;0</title>
<path fill="none" stroke="#000000" d="M381.337,-303.8857C363.4622,-336.1793 328.3352,-405.2424 343,-425 352.9397,-438.3916 394.2405,-448.7335 425.4191,-454.8279"/>
<polygon fill="#000000" stroke="#000000" points="425.0704,-458.3235 435.5447,-456.7301 426.3629,-451.4439 425.0704,-458.3235"/>
<text text-anchor="middle" x="368.5" y="-370.3" font-family="Times,serif" font-size="14.00" fill="#000000">{c1}</text>
</g>
<!-- 2&#45;&gt;0 -->
<g id="edge11" class="edge">
<title>2&#45;&gt;0</title>
<path fill="none" stroke="#000000" d="M389.493,-305.1484C387.1183,-337.9407 383.9267,-405.4763 396,-425 403.1501,-436.5623 415.4073,-444.6754 427.4323,-450.232"/>
<polygon fill="#000000" stroke="#000000" points="426.3458,-453.5701 436.9243,-454.1573 429.0208,-447.1014 426.3458,-453.5701"/>
<text text-anchor="middle" x="401.5" y="-370.3" font-family="Times,serif" font-size="14.00" fill="#000000">{c3}</text>
</g>
<!-- 4&#45;&gt;5 -->
<g id="edge20" class="edge">
<title>4&#45;&gt;5</title>
<path fill="none" stroke="#000000" d="M786.4511,-109.4885C678.6877,-95.2349 274.1308,-41.7251 156.9745,-26.2292"/>
<polygon fill="#000000" stroke="#000000" points="157.2329,-22.733 146.8603,-24.8914 156.315,-29.6725 157.2329,-22.733"/>
<text text-anchor="middle" x="543.5" y="-65.8" font-family="Times,serif" font-size="14.00" fill="#000000">{c4}</text>
</g>
<!-- 4&#45;&gt;4 -->
<g id="edge25" class="edge">
<title>4&#45;&gt;4</title>
<path fill="none" stroke="#000000" d="M837.5325,-120.752C848.5078,-121.4902 858,-118.9063 858,-113 858,-109.0317 853.7151,-106.5632 847.5743,-105.5944"/>
<polygon fill="#000000" stroke="#000000" points="847.6472,-102.0949 837.5325,-105.248 847.4059,-109.0908 847.6472,-102.0949"/>
<text text-anchor="middle" x="865" y="-109.3" font-family="Times,serif" font-size="14.00" fill="#000000">{}</text>
</g>
<!-- 4&#45;&gt;0 -->
<g id="edge21" class="edge">
<title>4&#45;&gt;0</title>
<path fill="none" stroke="#000000" d="M802.6989,-129.985C793.3442,-147.0477 781,-174.4114 781,-200 781,-374 781,-374 781,-374 781,-431.8715 583.1182,-452.5512 499.0594,-458.7251"/>
<polygon fill="#000000" stroke="#000000" points="498.652,-455.245 488.9228,-459.4394 499.1442,-462.2277 498.652,-455.245"/>
<text text-anchor="middle" x="794.5" y="-283.3" font-family="Times,serif" font-size="14.00" fill="#000000">{c0}</text>
</g>
<!-- 4&#45;&gt;0 -->
<g id="edge22" class="edge">
<title>4&#45;&gt;0</title>
<path fill="none" stroke="#000000" d="M822.9792,-130.0254C832.0415,-147.1189 844,-174.5053 844,-200 844,-374 844,-374 844,-374 844,-422.7067 793.4609,-410.3806 747,-425 701.6172,-439.2802 565.5775,-452.2709 499.2192,-457.9623"/>
<polygon fill="#000000" stroke="#000000" points="498.8606,-454.4801 489.1919,-458.8122 499.4518,-461.4551 498.8606,-454.4801"/>
<text text-anchor="middle" x="857.5" y="-283.3" font-family="Times,serif" font-size="14.00" fill="#000000">{c1}</text>
</g>
<!-- 4&#45;&gt;0 -->
<g id="edge23" class="edge">
<title>4&#45;&gt;0</title>
<path fill="none" stroke="#000000" d="M836.236,-122.3743C864.0721,-135.324 907,-161.5309 907,-200 907,-374 907,-374 907,-374 907,-427.8879 848.927,-410.5956 797,-425 741.7315,-440.3313 574.5562,-453.2992 499.3558,-458.528"/>
<polygon fill="#000000" stroke="#000000" points="498.6889,-455.0654 488.9523,-459.2426 499.1687,-462.049 498.6889,-455.0654"/>
<text text-anchor="middle" x="920.5" y="-283.3" font-family="Times,serif" font-size="14.00" fill="#000000">{c3}</text>
</g>
<!-- 4&#45;&gt;0 -->
<g id="edge24" class="edge">
<title>4&#45;&gt;0</title>
<path fill="none" stroke="#000000" d="M839.9893,-115.7044C884.8779,-121.8539 970,-141.2594 970,-200 970,-374 970,-374 970,-374 970,-429.9117 909.1124,-410.9299 855,-425 788.3098,-442.3405 583.7933,-454.6565 499.2119,-459.1382"/>
<polygon fill="#000000" stroke="#000000" points="498.8412,-455.6527 489.0376,-459.6701 499.2067,-462.6432 498.8412,-455.6527"/>
<text text-anchor="middle" x="983.5" y="-283.3" font-family="Times,serif" font-size="14.00" fill="#000000">{c2}</text>
</g>
<!-- 0&#45;&gt;0 -->
<g id="edge26" class="edge">
<title>0&#45;&gt;0</title>
<path fill="none" stroke="#000000" d="M489.2408,-462.4985C499.0239,-462.5308 507,-462.0313 507,-461 507,-460.3716 504.0382,-459.9406 499.5105,-459.7071"/>
<polygon fill="#000000" stroke="#000000" points="499.3089,-456.2025 489.2408,-459.5015 499.1687,-463.2011 499.3089,-456.2025"/>
<text text-anchor="middle" x="520.5" y="-457.3" font-family="Times,serif" font-size="14.00" fill="#000000">{c4}</text>
</g>
<!-- 0&#45;&gt;0 -->
<g id="edge28" class="edge">
<title>0&#45;&gt;0</title>
<path fill="none" stroke="#000000" d="M488.7517,-463.6125C510.4393,-464.5896 534,-463.7188 534,-461 534,-458.7061 517.2268,-457.7277 498.9579,-458.0648"/>
<polygon fill="#000000" stroke="#000000" points="498.6361,-454.5731 488.7517,-458.3875 498.8573,-461.5696 498.6361,-454.5731"/>
<text text-anchor="middle" x="547.5" y="-457.3" font-family="Times,serif" font-size="14.00" fill="#000000">{c1}</text>
</g>
<!-- 0&#45;&gt;0 -->
<g id="edge29" class="edge">
<title>0&#45;&gt;0</title>
<path fill="none" stroke="#000000" d="M488.8594,-464.375C520.5,-466.625 561,-465.5 561,-461 561,-456.9746 528.5925,-455.6498 499.1084,-457.0257"/>
<polygon fill="#000000" stroke="#000000" points="498.638,-453.5471 488.8594,-457.625 499.0467,-460.5352 498.638,-453.5471"/>
<text text-anchor="middle" x="574.5" y="-457.3" font-family="Times,serif" font-size="14.00" fill="#000000">{c3}</text>
</g>
<!-- 0&#45;&gt;0 -->
<g id="edge30" class="edge">
<title>0&#45;&gt;0</title>
<path fill="none" stroke="#000000" d="M488.5534,-464.9125C529.2332,-468.6635 588,-467.3594 588,-461 588,-455.1499 538.2683,-453.5777 498.6346,-456.2836"/>
<polygon fill="#000000" stroke="#000000" points="498.2435,-452.8036 488.5534,-457.0875 498.8,-459.7814 498.2435,-452.8036"/>
<text text-anchor="middle" x="601.5" y="-457.3" font-family="Times,serif" font-size="14.00" fill="#000000">{c2}</text>
</g>
<!-- 0&#45;&gt;0 -->
<g id="edge31" class="edge">
<title>0&#45;&gt;0</title>
<path fill="none" stroke="#000000" d="M488.4921,-465.3465C537.5556,-470.691 615,-469.2422 615,-461 615,-453.3051 547.4997,-451.5314 498.611,-455.6787"/>
<polygon fill="#000000" stroke="#000000" points="498.1104,-452.2106 488.4921,-456.6535 498.7817,-459.1783 498.1104,-452.2106"/>
<text text-anchor="middle" x="622" y="-457.3" font-family="Times,serif" font-size="14.00" fill="#000000">{}</text>
</g>
<!-- 1 -->
<g id="node7" class="node">
<title>1</title>
<ellipse fill="none" stroke="#000000" cx="495" cy="-374" rx="27" ry="18"/>
<text text-anchor="middle" x="495" y="-370.3" font-family="Times,serif" font-size="14.00" fill="#000000">1</text>
</g>
<!-- 0&#45;&gt;1 -->
<g id="edge27" class="edge">
<title>0&#45;&gt;1</title>
<path fill="none" stroke="#000000" d="M446.889,-445.5704C438.7509,-435.3204 431.576,-421.6553 438,-410 443.3518,-400.2901 452.5473,-392.837 462.0093,-387.2999"/>
<polygon fill="#000000" stroke="#000000" points="463.8112,-390.3073 471.046,-382.5672 460.5635,-384.1062 463.8112,-390.3073"/>
<text text-anchor="middle" x="451.5" y="-413.8" font-family="Times,serif" font-size="14.00" fill="#000000">{c0}</text>
</g>
<!-- 1&#45;&gt;2 -->
<g id="edge34" class="edge">
<title>1&#45;&gt;2</title>
<path fill="none" stroke="#000000" d="M478.9645,-359.4593C467.4379,-349.1164 451.446,-334.9875 437,-323 430.6348,-317.7181 423.6562,-312.1476 417.1011,-307.0085"/>
<polygon fill="#000000" stroke="#000000" points="419.1441,-304.1634 409.1027,-300.7839 414.845,-309.6877 419.1441,-304.1634"/>
<text text-anchor="middle" x="466.5" y="-326.8" font-family="Times,serif" font-size="14.00" fill="#000000">{c1}</text>
</g>
<!-- 1&#45;&gt;0 -->
<g id="edge32" class="edge">
<title>1&#45;&gt;0</title>
<path fill="none" stroke="#000000" d="M488.3319,-391.5796C483.7271,-403.7195 477.5141,-420.0991 472.2796,-433.8991"/>
<polygon fill="#000000" stroke="#000000" points="468.9522,-432.803 468.678,-443.3943 475.4971,-435.2856 468.9522,-432.803"/>
<text text-anchor="middle" x="493.5" y="-413.8" font-family="Times,serif" font-size="14.00" fill="#000000">{c4}</text>
</g>
<!-- 1&#45;&gt;0 -->
<g id="edge33" class="edge">
<title>1&#45;&gt;0</title>
<path fill="none" stroke="#000000" d="M506.5189,-390.6127C512.1052,-400.8534 516.532,-414.0712 511,-425 506.9224,-433.0555 500.0998,-439.7468 492.8216,-445.0863"/>
<polygon fill="#000000" stroke="#000000" points="490.6501,-442.3247 484.2055,-450.7341 494.4877,-448.1791 490.6501,-442.3247"/>
<text text-anchor="middle" x="526.5" y="-413.8" font-family="Times,serif" font-size="14.00" fill="#000000">{c0}</text>
</g>
<!-- 1&#45;&gt;0 -->
<g id="edge35" class="edge">
<title>1&#45;&gt;0</title>
<path fill="none" stroke="#000000" d="M517.4023,-384.4857C534.7638,-394.1263 554.2726,-409.2711 544,-425 533.8372,-440.5608 515.286,-449.4389 498.3962,-454.4823"/>
<polygon fill="#000000" stroke="#000000" points="497.4989,-451.0992 488.7197,-457.0303 499.2814,-457.8685 497.4989,-451.0992"/>
<text text-anchor="middle" x="559.5" y="-413.8" font-family="Times,serif" font-size="14.00" fill="#000000">{c3}</text>
</g>
<!-- 1&#45;&gt;0 -->
<g id="edge36" class="edge">
<title>1&#45;&gt;0</title>
<path fill="none" stroke="#000000" d="M472.5597,-384.1808C466.5643,-386.8104 460.0651,-389.5802 454,-392 432.0632,-400.7523 417.5809,-390.6768 404,-410 393.5127,-424.9215 410.5436,-438.3844 428.8111,-447.7261"/>
<polygon fill="#000000" stroke="#000000" points="427.5127,-450.9837 438.0491,-452.0952 430.5056,-444.6557 427.5127,-450.9837"/>
<text text-anchor="middle" x="417.5" y="-413.8" font-family="Times,serif" font-size="14.00" fill="#000000">{c2}</text>
</g>
<!-- 1&#45;&gt;1 -->
<g id="edge37" class="edge">
<title>1&#45;&gt;1</title>
<path fill="none" stroke="#000000" d="M519.5325,-381.752C530.5078,-382.4902 540,-379.9063 540,-374 540,-370.0317 535.7151,-367.5632 529.5743,-366.5944"/>
<polygon fill="#000000" stroke="#000000" points="529.6472,-363.0949 519.5325,-366.248 529.4059,-370.0908 529.6472,-363.0949"/>
<text text-anchor="middle" x="547" y="-370.3" font-family="Times,serif" font-size="14.00" fill="#000000">{}</text>
</g>
</g>
</svg>
