<?xml version="1.0" encoding="UTF-8" standalone="no"?>
<!DOCTYPE svg PUBLIC "-//W3C//DTD SVG 1.1//EN"
 "http://www.w3.org/Graphics/SVG/1.1/DTD/svg11.dtd">
<!-- Generated by graphviz version 2.43.0 (0)
 -->
<!-- Title: %3 Pages: 1 -->
<svg width="411pt" height="386pt"
 viewBox="0.00 0.00 411.03 386.00" xmlns="http://www.w3.org/2000/svg" xmlns:xlink="http://www.w3.org/1999/xlink">
<g id="graph0" class="graph" transform="scale(1 1) rotate(0) translate(4 382)">
<title>%3</title>
<polygon fill="white" stroke="transparent" points="-4,4 -4,-382 407.03,-382 407.03,4 -4,4"/>
<!-- fake -->
<g id="node1" class="node">
<title>fake</title>
</g>
<!-- 0 -->
<g id="node2" class="node">
<title>0</title>
<ellipse fill="none" stroke="black" cx="200.03" cy="-287" rx="27" ry="18"/>
<text text-anchor="middle" x="200.03" y="-283.3" font-family="Times,serif" font-size="14.00">0</text>
</g>
<!-- fake&#45;&gt;0 -->
<g id="edge1" class="edge">
<title>fake&#45;&gt;0</title>
<path fill="none" stroke="black" stroke-width="2" d="M200.03,-341.81C200.03,-333.79 200.03,-324.05 200.03,-315.07"/>
<polygon fill="black" stroke="black" stroke-width="2" points="203.53,-315.03 200.03,-305.03 196.53,-315.03 203.53,-315.03"/>
</g>
<!-- 0&#45;&gt;0 -->
<g id="edge3" class="edge">
<title>0&#45;&gt;0</title>
<path fill="none" stroke="black" d="M226.82,-289.25C236.81,-289.32 245.03,-288.57 245.03,-287 245.03,-286.02 241.82,-285.36 236.97,-285.02"/>
<polygon fill="black" stroke="black" points="236.91,-281.52 226.82,-284.75 236.73,-288.51 236.91,-281.52"/>
<text text-anchor="middle" x="262.53" y="-283.3" font-family="Times,serif" font-size="14.00">{c1}</text>
</g>
<!-- 0&#45;&gt;0 -->
<g id="edge4" class="edge">
<title>0&#45;&gt;0</title>
<path fill="none" stroke="black" d="M226.65,-290.79C251.18,-292.46 280.03,-291.2 280.03,-287 280.03,-283.38 258.53,-281.94 236.87,-282.69"/>
<polygon fill="black" stroke="black" points="236.46,-279.21 226.65,-283.21 236.82,-286.2 236.46,-279.21"/>
<text text-anchor="middle" x="297.53" y="-283.3" font-family="Times,serif" font-size="14.00">{c2}</text>
</g>
<!-- 0&#45;&gt;0 -->
<g id="edge5" class="edge">
<title>0&#45;&gt;0</title>
<path fill="none" stroke="black" d="M226.32,-291.76C262.65,-295.53 315.03,-293.94 315.03,-287 315.03,-280.68 271.64,-278.8 236.45,-281.35"/>
<polygon fill="black" stroke="black" points="235.97,-277.88 226.32,-282.24 236.58,-284.86 235.97,-277.88"/>
<text text-anchor="middle" x="324.53" y="-283.3" font-family="Times,serif" font-size="14.00">{}</text>
</g>
<!-- 1 -->
<g id="node3" class="node">
<title>1</title>
<ellipse fill="none" stroke="black" cx="61.03" cy="-200" rx="27" ry="18"/>
<text text-anchor="middle" x="61.03" y="-196.3" font-family="Times,serif" font-size="14.00">1</text>
</g>
<!-- 0&#45;&gt;1 -->
<g id="edge2" class="edge">
<title>0&#45;&gt;1</title>
<path fill="none" stroke="black" d="M173.02,-285.29C124.41,-283.37 25.28,-276.38 4.03,-251 -7.74,-236.95 10.15,-223.39 28.92,-213.95"/>
<polygon fill="black" stroke="black" points="30.51,-217.07 38.08,-209.66 27.54,-210.73 30.51,-217.07"/>
<text text-anchor="middle" x="21.53" y="-239.8" font-family="Times,serif" font-size="14.00">{c0}</text>
</g>
<!-- 1&#45;&gt;0 -->
<g id="edge14" class="edge">
<title>1&#45;&gt;0</title>
<path fill="none" stroke="black" d="M56.56,-218.04C54.86,-228.62 54.79,-241.89 62.03,-251 74.52,-266.72 126.73,-276.59 163.22,-281.69"/>
<polygon fill="black" stroke="black" points="163.14,-285.21 173.52,-283.07 164.07,-278.28 163.14,-285.21"/>
<text text-anchor="middle" x="79.53" y="-239.8" font-family="Times,serif" font-size="14.00">{c0}</text>
</g>
<!-- 1&#45;&gt;0 -->
<g id="edge16" class="edge">
<title>1&#45;&gt;0</title>
<path fill="none" stroke="black" d="M75.61,-215.46C87.01,-226.23 103.62,-240.77 120.03,-251 134.8,-260.21 152.42,-268.21 167.36,-274.22"/>
<polygon fill="black" stroke="black" points="166.14,-277.5 176.73,-277.87 168.69,-270.98 166.14,-277.5"/>
<text text-anchor="middle" x="137.53" y="-239.8" font-family="Times,serif" font-size="14.00">{c2}</text>
</g>
<!-- 1&#45;&gt;1 -->
<g id="edge17" class="edge">
<title>1&#45;&gt;1</title>
<path fill="none" stroke="black" d="M85.56,-207.75C96.54,-208.49 106.03,-205.91 106.03,-200 106.03,-196.03 101.74,-193.56 95.6,-192.59"/>
<polygon fill="black" stroke="black" points="95.68,-189.09 85.56,-192.25 95.43,-196.09 95.68,-189.09"/>
<text text-anchor="middle" x="115.53" y="-196.3" font-family="Times,serif" font-size="14.00">{}</text>
</g>
<!-- 2 -->
<g id="node4" class="node">
<title>2</title>
<ellipse fill="none" stroke="black" cx="182.03" cy="-113" rx="27" ry="18"/>
<text text-anchor="middle" x="182.03" y="-109.3" font-family="Times,serif" font-size="14.00">2</text>
</g>
<!-- 1&#45;&gt;2 -->
<g id="edge15" class="edge">
<title>1&#45;&gt;2</title>
<path fill="none" stroke="black" d="M74.25,-183.71C83.97,-173.09 97.9,-159.08 112.03,-149 123.84,-140.58 137.98,-133.09 150.45,-127.22"/>
<polygon fill="black" stroke="black" points="151.93,-130.39 159.59,-123.07 149.04,-124.02 151.93,-130.39"/>
<text text-anchor="middle" x="129.53" y="-152.8" font-family="Times,serif" font-size="14.00">{c1}</text>
</g>
<!-- 2&#45;&gt;0 -->
<g id="edge6" class="edge">
<title>2&#45;&gt;0</title>
<path fill="none" stroke="black" d="M178.36,-131.07C174.49,-151.79 169.64,-187.71 175.03,-218 177.6,-232.46 183.03,-247.88 188.17,-260.37"/>
<polygon fill="black" stroke="black" points="185.01,-261.88 192.18,-269.69 191.44,-259.12 185.01,-261.88"/>
<text text-anchor="middle" x="192.53" y="-196.3" font-family="Times,serif" font-size="14.00">{c0}</text>
</g>
<!-- 2&#45;&gt;0 -->
<g id="edge7" class="edge">
<title>2&#45;&gt;0</title>
<path fill="none" stroke="black" d="M190.82,-130.2C197.58,-143.63 206.36,-163.46 210.03,-182 215.15,-207.88 211.22,-237.92 206.88,-259.04"/>
<polygon fill="black" stroke="black" points="203.44,-258.4 204.68,-268.92 210.27,-259.91 203.44,-258.4"/>
<text text-anchor="middle" x="229.53" y="-196.3" font-family="Times,serif" font-size="14.00">{c1}</text>
</g>
<!-- 2&#45;&gt;2 -->
<g id="edge9" class="edge">
<title>2&#45;&gt;2</title>
<path fill="none" stroke="black" d="M206.56,-120.75C217.54,-121.49 227.03,-118.91 227.03,-113 227.03,-109.03 222.74,-106.56 216.6,-105.59"/>
<polygon fill="black" stroke="black" points="216.68,-102.09 206.56,-105.25 216.43,-109.09 216.68,-102.09"/>
<text text-anchor="middle" x="236.53" y="-109.3" font-family="Times,serif" font-size="14.00">{}</text>
</g>
<!-- 3 -->
<g id="node5" class="node">
<title>3</title>
<ellipse fill="none" stroke="black" cx="324.03" cy="-22" rx="18" ry="18"/>
<ellipse fill="none" stroke="black" cx="324.03" cy="-22" rx="22" ry="22"/>
<text text-anchor="middle" x="324.03" y="-18.3" font-family="Times,serif" font-size="14.00">3</text>
</g>
<!-- 2&#45;&gt;3 -->
<g id="edge8" class="edge">
<title>2&#45;&gt;3</title>
<path fill="none" stroke="black" d="M197.68,-98.33C210.26,-87.71 228.62,-72.99 246.03,-62 261.57,-52.18 279.91,-42.91 294.9,-35.86"/>
<polygon fill="black" stroke="black" points="296.59,-38.94 304.21,-31.58 293.66,-32.58 296.59,-38.94"/>
<text text-anchor="middle" x="263.53" y="-65.8" font-family="Times,serif" font-size="14.00">{c2}</text>
</g>
<!-- 3&#45;&gt;0 -->
<g id="edge10" class="edge">
<title>3&#45;&gt;0</title>
<path fill="none" stroke="black" d="M318.47,-43.47C308.12,-79.93 283.92,-157.91 251.03,-218 242.19,-234.14 229.87,-250.69 219.54,-263.42"/>
<polygon fill="black" stroke="black" points="216.79,-261.26 213.11,-271.19 222.18,-265.72 216.79,-261.26"/>
<text text-anchor="middle" x="299.53" y="-152.8" font-family="Times,serif" font-size="14.00">{c0}</text>
</g>
<!-- 3&#45;&gt;0 -->
<g id="edge11" class="edge">
<title>3&#45;&gt;0</title>
<path fill="none" stroke="black" d="M327.85,-43.92C332.09,-72.21 336.46,-123.77 321.03,-164 303.33,-210.14 257.87,-247.65 227.99,-268.38"/>
<polygon fill="black" stroke="black" points="225.97,-265.52 219.64,-274.02 229.89,-271.32 225.97,-265.52"/>
<text text-anchor="middle" x="342.53" y="-152.8" font-family="Times,serif" font-size="14.00">{c1}</text>
</g>
<!-- 3&#45;&gt;0 -->
<g id="edge12" class="edge">
<title>3&#45;&gt;0</title>
<path fill="none" stroke="black" d="M336.41,-40.75C353.7,-67.86 381.14,-120.97 364.03,-164 341.21,-221.39 273.61,-257.14 232.67,-274.14"/>
<polygon fill="black" stroke="black" points="231.36,-270.9 223.38,-277.87 233.96,-277.4 231.36,-270.9"/>
<text text-anchor="middle" x="385.53" y="-152.8" font-family="Times,serif" font-size="14.00">{c2}</text>
</g>
<!-- 3&#45;&gt;3 -->
<g id="edge13" class="edge">
<title>3&#45;&gt;3</title>
<path fill="none" stroke="black" d="M344.61,-30.37C354.87,-31.53 364.03,-28.74 364.03,-22 364.03,-17.68 360.27,-14.99 354.87,-13.91"/>
<polygon fill="black" stroke="black" points="354.7,-10.41 344.61,-13.63 354.51,-17.4 354.7,-10.41"/>
<text text-anchor="middle" x="373.53" y="-18.3" font-family="Times,serif" font-size="14.00">{}</text>
</g>
</g>
</svg>
