<?xml version="1.0" encoding="UTF-8" standalone="no"?>
<!DOCTYPE svg PUBLIC "-//W3C//DTD SVG 1.1//EN"
 "http://www.w3.org/Graphics/SVG/1.1/DTD/svg11.dtd">
<!-- Generated by graphviz version 2.43.0 (0)
 -->
<!-- Title: %3 Pages: 1 -->
<svg width="1244pt" height="386pt"
 viewBox="0.00 0.00 1244.49 386.00" xmlns="http://www.w3.org/2000/svg" xmlns:xlink="http://www.w3.org/1999/xlink">
<g id="graph0" class="graph" transform="scale(1 1) rotate(0) translate(4 382)">
<title>%3</title>
<polygon fill="white" stroke="transparent" points="-4,4 -4,-382 1240.49,-382 1240.49,4 -4,4"/>
<!-- fake -->
<g id="node1" class="node">
<title>fake</title>
</g>
<!-- 0 -->
<g id="node2" class="node">
<title>0</title>
<ellipse fill="none" stroke="black" cx="660.49" cy="-287" rx="27" ry="18"/>
<text text-anchor="middle" x="660.49" y="-283.3" font-family="Times,serif" font-size="14.00">0</text>
</g>
<!-- fake&#45;&gt;0 -->
<g id="edge1" class="edge">
<title>fake&#45;&gt;0</title>
<path fill="none" stroke="black" stroke-width="2" d="M660.49,-341.81C660.49,-333.79 660.49,-324.05 660.49,-315.07"/>
<polygon fill="black" stroke="black" stroke-width="2" points="663.99,-315.03 660.49,-305.03 656.99,-315.03 663.99,-315.03"/>
</g>
<!-- 0&#45;&gt;0 -->
<g id="edge3" class="edge">
<title>0&#45;&gt;0</title>
<path fill="none" stroke="black" d="M685.93,-293.69C696.51,-294.15 705.49,-291.92 705.49,-287 705.49,-283.77 701.62,-281.7 695.97,-280.79"/>
<polygon fill="black" stroke="black" points="696.08,-277.29 685.93,-280.31 695.75,-284.28 696.08,-277.29"/>
<text text-anchor="middle" x="714.99" y="-283.3" font-family="Times,serif" font-size="14.00">{}</text>
</g>
<!-- 1 -->
<g id="node3" class="node">
<title>1</title>
<ellipse fill="none" stroke="black" cx="518.49" cy="-200" rx="27" ry="18"/>
<text text-anchor="middle" x="518.49" y="-196.3" font-family="Times,serif" font-size="14.00">1</text>
</g>
<!-- 0&#45;&gt;1 -->
<g id="edge2" class="edge">
<title>0&#45;&gt;1</title>
<path fill="none" stroke="black" d="M633.35,-285.98C579.19,-285.31 460.69,-280.42 435.49,-251 418.28,-230.91 453.52,-216.64 483.27,-208.61"/>
<polygon fill="black" stroke="black" points="484.23,-211.98 493.06,-206.13 482.51,-205.2 484.23,-211.98"/>
<text text-anchor="middle" x="465.99" y="-239.8" font-family="Times,serif" font-size="14.00">{c0, c1}</text>
</g>
<!-- 0&#45;&gt;1 -->
<g id="edge4" class="edge">
<title>0&#45;&gt;1</title>
<path fill="none" stroke="black" d="M634.02,-283.23C597.25,-278.78 533.61,-268.69 519.49,-251 514.38,-244.61 512.9,-236.15 513.06,-228.01"/>
<polygon fill="black" stroke="black" points="516.55,-228.33 514,-218.05 509.58,-227.68 516.55,-228.33"/>
<text text-anchor="middle" x="549.99" y="-239.8" font-family="Times,serif" font-size="14.00">{c0, c2}</text>
</g>
<!-- 0&#45;&gt;1 -->
<g id="edge5" class="edge">
<title>0&#45;&gt;1</title>
<path fill="none" stroke="black" d="M641.14,-274.3C630.07,-267.56 615.95,-258.89 603.49,-251 593.17,-244.47 590.92,-242.34 580.49,-236 569.86,-229.55 558.02,-222.76 547.56,-216.91"/>
<polygon fill="black" stroke="black" points="549.22,-213.83 538.78,-212.03 545.82,-219.94 549.22,-213.83"/>
<text text-anchor="middle" x="620.99" y="-239.8" font-family="Times,serif" font-size="14.00">{c0}</text>
</g>
<!-- 0&#45;&gt;1 -->
<g id="edge6" class="edge">
<title>0&#45;&gt;1</title>
<path fill="none" stroke="black" d="M656.91,-268.95C653.78,-258.08 648.18,-244.51 638.49,-236 615.54,-215.88 581.6,-207.3 555.66,-203.66"/>
<polygon fill="black" stroke="black" points="555.79,-200.15 545.44,-202.41 554.95,-207.1 555.79,-200.15"/>
<text text-anchor="middle" x="691.49" y="-239.8" font-family="Times,serif" font-size="14.00">{c0, c1, c2}</text>
</g>
<!-- 2 -->
<g id="node4" class="node">
<title>2</title>
<ellipse fill="none" stroke="black" cx="672.49" cy="-22" rx="27" ry="18"/>
<text text-anchor="middle" x="672.49" y="-18.3" font-family="Times,serif" font-size="14.00">2</text>
</g>
<!-- 0&#45;&gt;2 -->
<g id="edge7" class="edge">
<title>0&#45;&gt;2</title>
<path fill="none" stroke="black" d="M686.68,-281.79C704.61,-277.4 727.11,-268.57 738.49,-251 746.35,-238.86 798.98,-272.97 730.49,-95 723.01,-75.59 708.25,-57.38 695.49,-44.14"/>
<polygon fill="black" stroke="black" points="697.82,-41.52 688.27,-36.94 692.88,-46.48 697.82,-41.52"/>
<text text-anchor="middle" x="783.99" y="-152.8" font-family="Times,serif" font-size="14.00">{c1, c2}</text>
</g>
<!-- 0&#45;&gt;2 -->
<g id="edge8" class="edge">
<title>0&#45;&gt;2</title>
<path fill="none" stroke="black" d="M686.79,-282.27C709.38,-277.95 741.79,-268.98 764.49,-251 800.16,-222.74 806.01,-207.77 818.49,-164 836.25,-101.7 753.21,-56.17 704.98,-35.45"/>
<polygon fill="black" stroke="black" points="706.13,-32.13 695.56,-31.52 703.44,-38.59 706.13,-32.13"/>
<text text-anchor="middle" x="837.99" y="-152.8" font-family="Times,serif" font-size="14.00">{c1}</text>
</g>
<!-- 0&#45;&gt;2 -->
<g id="edge9" class="edge">
<title>0&#45;&gt;2</title>
<path fill="none" stroke="black" d="M687.18,-282.75C713.84,-278.58 755.25,-269.55 786.49,-251 829.89,-225.23 843.38,-211.84 859.49,-164 884.19,-90.6 768.6,-48.37 707.82,-31.56"/>
<polygon fill="black" stroke="black" points="708.42,-28.09 697.86,-28.89 706.61,-34.86 708.42,-28.09"/>
<text text-anchor="middle" x="879.99" y="-152.8" font-family="Times,serif" font-size="14.00">{c2}</text>
</g>
<!-- 1&#45;&gt;1 -->
<g id="edge30" class="edge">
<title>1&#45;&gt;1</title>
<path fill="none" stroke="black" d="M543.02,-207.75C553.99,-208.49 563.49,-205.91 563.49,-200 563.49,-196.03 559.2,-193.56 553.06,-192.59"/>
<polygon fill="black" stroke="black" points="553.13,-189.09 543.02,-192.25 552.89,-196.09 553.13,-189.09"/>
<text text-anchor="middle" x="572.99" y="-196.3" font-family="Times,serif" font-size="14.00">{}</text>
</g>
<!-- 1&#45;&gt;2 -->
<g id="edge31" class="edge">
<title>1&#45;&gt;2</title>
<path fill="none" stroke="black" d="M519.34,-181.78C521.16,-159.95 526.82,-121.92 544.49,-95 570.13,-55.91 594.19,-63.92 636.49,-44 639.12,-42.76 641.82,-41.39 644.5,-39.96"/>
<polygon fill="black" stroke="black" points="646.38,-42.92 653.39,-34.98 642.96,-36.81 646.38,-42.92"/>
<text text-anchor="middle" x="561.99" y="-109.3" font-family="Times,serif" font-size="14.00">{c0}</text>
</g>
<!-- 1&#45;&gt;2 -->
<g id="edge32" class="edge">
<title>1&#45;&gt;2</title>
<path fill="none" stroke="black" d="M531.9,-184.22C544.32,-170.5 563.26,-149.46 579.49,-131 605.12,-101.83 634.28,-67.83 653.01,-45.89"/>
<polygon fill="black" stroke="black" points="655.82,-47.99 659.64,-38.11 650.49,-43.45 655.82,-47.99"/>
<text text-anchor="middle" x="626.99" y="-109.3" font-family="Times,serif" font-size="14.00">{c2}</text>
</g>
<!-- 1&#45;&gt;2 -->
<g id="edge33" class="edge">
<title>1&#45;&gt;2</title>
<path fill="none" stroke="black" d="M543.46,-192.85C573.18,-184.19 622.07,-165.47 648.49,-131 666.31,-107.73 671.41,-73.82 672.63,-50.23"/>
<polygon fill="black" stroke="black" points="676.13,-50.29 672.94,-40.19 669.13,-50.07 676.13,-50.29"/>
<text text-anchor="middle" x="695.99" y="-109.3" font-family="Times,serif" font-size="14.00">{c0, c2}</text>
</g>
<!-- 3 -->
<g id="node5" class="node">
<title>3</title>
<ellipse fill="none" stroke="black" cx="287.49" cy="-113" rx="27" ry="18"/>
<text text-anchor="middle" x="287.49" y="-109.3" font-family="Times,serif" font-size="14.00">3</text>
</g>
<!-- 1&#45;&gt;3 -->
<g id="edge26" class="edge">
<title>1&#45;&gt;3</title>
<path fill="none" stroke="black" d="M491.51,-198.01C418.91,-195.08 223.5,-185.26 204.49,-164 186.85,-144.29 222.18,-129.93 252.08,-121.78"/>
<polygon fill="black" stroke="black" points="253.1,-125.13 261.92,-119.26 251.36,-118.35 253.1,-125.13"/>
<text text-anchor="middle" x="234.99" y="-152.8" font-family="Times,serif" font-size="14.00">{c0, c1}</text>
</g>
<!-- 1&#45;&gt;3 -->
<g id="edge27" class="edge">
<title>1&#45;&gt;3</title>
<path fill="none" stroke="black" d="M491.23,-199.04C436.16,-198.49 314.65,-193.84 288.49,-164 283.01,-157.76 281.49,-149.2 281.73,-140.93"/>
<polygon fill="black" stroke="black" points="285.23,-141.12 282.81,-130.81 278.27,-140.38 285.23,-141.12"/>
<text text-anchor="middle" x="318.99" y="-152.8" font-family="Times,serif" font-size="14.00">{c1, c2}</text>
</g>
<!-- 1&#45;&gt;3 -->
<g id="edge28" class="edge">
<title>1&#45;&gt;3</title>
<path fill="none" stroke="black" d="M492.31,-195.49C462.41,-190.86 412.47,-181.22 372.49,-164 361.28,-159.17 359.92,-155.34 349.49,-149 338.86,-142.55 327.02,-135.76 316.56,-129.91"/>
<polygon fill="black" stroke="black" points="318.22,-126.83 307.78,-125.03 314.82,-132.94 318.22,-126.83"/>
<text text-anchor="middle" x="415.49" y="-152.8" font-family="Times,serif" font-size="14.00">{c0, c1, c2}</text>
</g>
<!-- 1&#45;&gt;3 -->
<g id="edge29" class="edge">
<title>1&#45;&gt;3</title>
<path fill="none" stroke="black" d="M503.35,-184.92C488.99,-171.83 468.2,-153.67 458.49,-149 415.24,-128.2 360.06,-119.74 324.26,-116.31"/>
<polygon fill="black" stroke="black" points="324.52,-112.82 314.25,-115.44 323.91,-119.8 324.52,-112.82"/>
<text text-anchor="middle" x="495.99" y="-152.8" font-family="Times,serif" font-size="14.00">{c1}</text>
</g>
<!-- 2&#45;&gt;2 -->
<g id="edge34" class="edge">
<title>2&#45;&gt;2</title>
<path fill="none" stroke="black" d="M699.73,-23.5C709.51,-23.53 717.49,-23.03 717.49,-22 717.49,-21.37 714.52,-20.94 710,-20.71"/>
<polygon fill="black" stroke="black" points="709.79,-17.2 699.73,-20.5 709.65,-24.2 709.79,-17.2"/>
<text text-anchor="middle" x="747.99" y="-18.3" font-family="Times,serif" font-size="14.00">{c1, c2}</text>
</g>
<!-- 2&#45;&gt;2 -->
<g id="edge35" class="edge">
<title>2&#45;&gt;2</title>
<path fill="none" stroke="black" d="M699.45,-24.32C732.16,-25.73 778.49,-24.95 778.49,-22 778.49,-19.35 741.09,-18.45 709.78,-19.32"/>
<polygon fill="black" stroke="black" points="709.33,-15.83 699.45,-19.68 709.57,-22.83 709.33,-15.83"/>
<text text-anchor="middle" x="821.49" y="-18.3" font-family="Times,serif" font-size="14.00">{c0, c1, c2}</text>
</g>
<!-- 2&#45;&gt;2 -->
<g id="edge36" class="edge">
<title>2&#45;&gt;2</title>
<path fill="none" stroke="black" d="M699.44,-24.7C754.51,-27.8 864.49,-26.9 864.49,-22 864.49,-17.39 767.02,-16.32 709.65,-18.8"/>
<polygon fill="black" stroke="black" points="709.25,-15.31 699.44,-19.3 709.6,-22.31 709.25,-15.31"/>
<text text-anchor="middle" x="881.99" y="-18.3" font-family="Times,serif" font-size="14.00">{c0}</text>
</g>
<!-- 2&#45;&gt;2 -->
<g id="edge37" class="edge">
<title>2&#45;&gt;2</title>
<path fill="none" stroke="black" d="M699.27,-25.23C762.65,-29.79 899.49,-28.72 899.49,-22 899.49,-15.62 776.19,-14.33 709.47,-18.12"/>
<polygon fill="black" stroke="black" points="709.03,-14.64 699.27,-18.77 709.47,-21.63 709.03,-14.64"/>
<text text-anchor="middle" x="916.99" y="-18.3" font-family="Times,serif" font-size="14.00">{c1}</text>
</g>
<!-- 2&#45;&gt;2 -->
<g id="edge38" class="edge">
<title>2&#45;&gt;2</title>
<path fill="none" stroke="black" d="M699.21,-25.67C770.54,-31.8 934.49,-30.57 934.49,-22 934.49,-13.81 784.94,-12.33 709.36,-17.55"/>
<polygon fill="black" stroke="black" points="708.91,-14.08 699.21,-18.33 709.45,-21.05 708.91,-14.08"/>
<text text-anchor="middle" x="943.99" y="-18.3" font-family="Times,serif" font-size="14.00">{}</text>
</g>
<!-- 2&#45;&gt;2 -->
<g id="edge39" class="edge">
<title>2&#45;&gt;2</title>
<path fill="none" stroke="black" d="M699.01,-26.09C775.21,-33.79 953.49,-32.43 953.49,-22 953.49,-12.02 790.2,-10.34 709.37,-16.96"/>
<polygon fill="black" stroke="black" points="708.65,-13.51 699.01,-17.91 709.28,-20.49 708.65,-13.51"/>
<text text-anchor="middle" x="970.99" y="-18.3" font-family="Times,serif" font-size="14.00">{c2}</text>
</g>
<!-- 2&#45;&gt;2 -->
<g id="edge40" class="edge">
<title>2&#45;&gt;2</title>
<path fill="none" stroke="black" d="M698.74,-26.38C782.41,-35.8 988.49,-34.35 988.49,-22 988.49,-10.12 797.81,-8.32 708.81,-16.59"/>
<polygon fill="black" stroke="black" points="708.33,-13.12 698.74,-17.62 709.04,-20.09 708.33,-13.12"/>
<text text-anchor="middle" x="1018.99" y="-18.3" font-family="Times,serif" font-size="14.00">{c0, c2}</text>
</g>
<!-- 2&#45;&gt;2 -->
<g id="edge41" class="edge">
<title>2&#45;&gt;2</title>
<path fill="none" stroke="black" d="M698.92,-26.57C793.98,-37.82 1049.49,-36.3 1049.49,-22 1049.49,-8.18 810.67,-6.3 708.91,-16.36"/>
<polygon fill="black" stroke="black" points="708.49,-12.88 698.92,-17.43 709.24,-19.84 708.49,-12.88"/>
<text text-anchor="middle" x="1079.99" y="-18.3" font-family="Times,serif" font-size="14.00">{c0, c1}</text>
</g>
<!-- 3&#45;&gt;2 -->
<g id="edge15" class="edge">
<title>3&#45;&gt;2</title>
<path fill="none" stroke="black" d="M298.76,-96.31C308.18,-84.57 322.74,-69.34 339.49,-62 400.04,-35.45 573.21,-63.18 636.49,-44 639.5,-43.09 642.54,-41.87 645.5,-40.49"/>
<polygon fill="black" stroke="black" points="647.39,-43.45 654.57,-35.66 644.1,-37.27 647.39,-43.45"/>
<text text-anchor="middle" x="356.99" y="-65.8" font-family="Times,serif" font-size="14.00">{c0}</text>
</g>
<!-- 3&#45;&gt;2 -->
<g id="edge16" class="edge">
<title>3&#45;&gt;2</title>
<path fill="none" stroke="black" d="M310.93,-103.98C328.76,-97.55 353.69,-87.83 374.49,-77 385.31,-71.36 385.93,-65.91 397.49,-62 498.38,-27.83 534.77,-75.64 636.49,-44 639.5,-43.06 642.53,-41.84 645.48,-40.45"/>
<polygon fill="black" stroke="black" points="647.38,-43.4 654.55,-35.6 644.08,-37.23 647.38,-43.4"/>
<text text-anchor="middle" x="414.99" y="-65.8" font-family="Times,serif" font-size="14.00">{c1}</text>
</g>
<!-- 3&#45;&gt;2 -->
<g id="edge17" class="edge">
<title>3&#45;&gt;2</title>
<path fill="none" stroke="black" d="M313.75,-108.42C343.47,-103.75 392.9,-94.08 432.49,-77 443.69,-72.16 443.97,-66.05 455.49,-62 531.74,-35.15 559.59,-68.94 636.49,-44 639.49,-43.03 642.51,-41.78 645.46,-40.37"/>
<polygon fill="black" stroke="black" points="647.37,-43.32 654.52,-35.5 644.05,-37.15 647.37,-43.32"/>
<text text-anchor="middle" x="485.99" y="-65.8" font-family="Times,serif" font-size="14.00">{c0, c1}</text>
</g>
<!-- 3&#45;&gt;3 -->
<g id="edge11" class="edge">
<title>3&#45;&gt;3</title>
<path fill="none" stroke="black" d="M312.02,-120.75C322.99,-121.49 332.49,-118.91 332.49,-113 332.49,-109.03 328.2,-106.56 322.06,-105.59"/>
<polygon fill="black" stroke="black" points="322.13,-102.09 312.02,-105.25 321.89,-109.09 322.13,-102.09"/>
<text text-anchor="middle" x="341.99" y="-109.3" font-family="Times,serif" font-size="14.00">{}</text>
</g>
<!-- 4 -->
<g id="node6" class="node">
<title>4</title>
<ellipse fill="none" stroke="black" cx="68.49" cy="-22" rx="18" ry="18"/>
<ellipse fill="none" stroke="black" cx="68.49" cy="-22" rx="22" ry="22"/>
<text text-anchor="middle" x="68.49" y="-18.3" font-family="Times,serif" font-size="14.00">4</text>
</g>
<!-- 3&#45;&gt;4 -->
<g id="edge10" class="edge">
<title>3&#45;&gt;4</title>
<path fill="none" stroke="black" d="M260.27,-110.65C192.65,-107.02 21.29,-96.01 4.49,-77 -10.24,-60.34 15.47,-44.32 38.56,-34.11"/>
<polygon fill="black" stroke="black" points="39.96,-37.32 47.84,-30.24 37.26,-30.86 39.96,-37.32"/>
<text text-anchor="middle" x="47.49" y="-65.8" font-family="Times,serif" font-size="14.00">{c0, c1, c2}</text>
</g>
<!-- 3&#45;&gt;4 -->
<g id="edge12" class="edge">
<title>3&#45;&gt;4</title>
<path fill="none" stroke="black" d="M260.47,-112C224.48,-110.86 159.94,-104.68 113.49,-77 102.18,-70.27 92.42,-59.63 84.9,-49.57"/>
<polygon fill="black" stroke="black" points="87.74,-47.52 79.13,-41.35 82.01,-51.54 87.74,-47.52"/>
<text text-anchor="middle" x="143.99" y="-65.8" font-family="Times,serif" font-size="14.00">{c0, c2}</text>
</g>
<!-- 3&#45;&gt;4 -->
<g id="edge13" class="edge">
<title>3&#45;&gt;4</title>
<path fill="none" stroke="black" d="M263.59,-104.23C245.11,-97.86 219.11,-88.1 197.49,-77 186.63,-71.43 185.39,-67.48 174.49,-62 149.98,-49.7 120.61,-39.2 99.01,-32.2"/>
<polygon fill="black" stroke="black" points="99.97,-28.84 89.38,-29.15 97.86,-35.51 99.97,-28.84"/>
<text text-anchor="middle" x="227.99" y="-65.8" font-family="Times,serif" font-size="14.00">{c1, c2}</text>
</g>
<!-- 3&#45;&gt;4 -->
<g id="edge14" class="edge">
<title>3&#45;&gt;4</title>
<path fill="none" stroke="black" d="M281.85,-95.08C277.27,-83.99 269.73,-70.09 258.49,-62 233.58,-44.08 147.87,-31.91 100.53,-26.39"/>
<polygon fill="black" stroke="black" points="100.82,-22.9 90.49,-25.25 100.03,-29.85 100.82,-22.9"/>
<text text-anchor="middle" x="289.99" y="-65.8" font-family="Times,serif" font-size="14.00">{c2}</text>
</g>
<!-- 4&#45;&gt;4 -->
<g id="edge18" class="edge">
<title>4&#45;&gt;4</title>
<path fill="none" stroke="black" d="M90.7,-23.48C100.28,-23.6 108.49,-23.11 108.49,-22 108.49,-21.32 105.44,-20.88 100.89,-20.66"/>
<polygon fill="black" stroke="black" points="100.74,-17.16 90.7,-20.52 100.65,-24.15 100.74,-17.16"/>
<text text-anchor="middle" x="138.99" y="-18.3" font-family="Times,serif" font-size="14.00">{c1, c2}</text>
</g>
<!-- 4&#45;&gt;4 -->
<g id="edge19" class="edge">
<title>4&#45;&gt;4</title>
<path fill="none" stroke="black" d="M90.5,-24.15C121.61,-25.78 169.49,-25.06 169.49,-22 169.49,-19.26 131.18,-18.4 100.83,-19.41"/>
<polygon fill="black" stroke="black" points="100.34,-15.93 90.5,-19.85 100.64,-22.92 100.34,-15.93"/>
<text text-anchor="middle" x="199.99" y="-18.3" font-family="Times,serif" font-size="14.00">{c0, c1}</text>
</g>
<!-- 4&#45;&gt;4 -->
<g id="edge20" class="edge">
<title>4&#45;&gt;4</title>
<path fill="none" stroke="black" d="M90.49,-24.59C137.2,-27.82 230.49,-26.96 230.49,-22 230.49,-17.38 149.52,-16.32 100.67,-18.81"/>
<polygon fill="black" stroke="black" points="100.26,-15.33 90.49,-19.41 100.68,-22.32 100.26,-15.33"/>
<text text-anchor="middle" x="260.99" y="-18.3" font-family="Times,serif" font-size="14.00">{c0, c2}</text>
</g>
<!-- 4&#45;&gt;4 -->
<g id="edge21" class="edge">
<title>4&#45;&gt;4</title>
<path fill="none" stroke="black" d="M90.65,-24.93C150.58,-29.84 291.49,-28.86 291.49,-22 291.49,-15.5 165.05,-14.28 100.77,-18.34"/>
<polygon fill="black" stroke="black" points="100.37,-14.86 90.65,-19.07 100.87,-21.84 100.37,-14.86"/>
<text text-anchor="middle" x="308.99" y="-18.3" font-family="Times,serif" font-size="14.00">{c1}</text>
</g>
<!-- 4&#45;&gt;4 -->
<g id="edge22" class="edge">
<title>4&#45;&gt;4</title>
<path fill="none" stroke="black" d="M90.29,-25.28C157.54,-31.84 326.49,-30.75 326.49,-22 326.49,-13.66 173,-12.28 100.39,-17.85"/>
<polygon fill="black" stroke="black" points="99.95,-14.37 90.29,-18.72 100.55,-21.35 99.95,-14.37"/>
<text text-anchor="middle" x="343.99" y="-18.3" font-family="Times,serif" font-size="14.00">{c0}</text>
</g>
<!-- 4&#45;&gt;4 -->
<g id="edge23" class="edge">
<title>4&#45;&gt;4</title>
<path fill="none" stroke="black" d="M90.49,-25.62C165.18,-33.85 361.49,-32.64 361.49,-22 361.49,-11.82 181.69,-10.27 100.77,-17.38"/>
<polygon fill="black" stroke="black" points="100.1,-13.92 90.49,-18.38 100.79,-20.89 100.1,-13.92"/>
<text text-anchor="middle" x="378.99" y="-18.3" font-family="Times,serif" font-size="14.00">{c2}</text>
</g>
<!-- 4&#45;&gt;4 -->
<g id="edge24" class="edge">
<title>4&#45;&gt;4</title>
<path fill="none" stroke="black" d="M90.35,-25.87C172.04,-35.85 396.49,-34.56 396.49,-22 396.49,-9.93 189.23,-8.27 100.55,-17.02"/>
<polygon fill="black" stroke="black" points="99.91,-13.57 90.35,-18.13 100.67,-20.52 99.91,-13.57"/>
<text text-anchor="middle" x="405.99" y="-18.3" font-family="Times,serif" font-size="14.00">{}</text>
</g>
<!-- 4&#45;&gt;4 -->
<g id="edge25" class="edge">
<title>4&#45;&gt;4</title>
<path fill="none" stroke="black" d="M90.12,-26.12C176.46,-37.86 415.49,-36.48 415.49,-22 415.49,-8.04 193.42,-6.26 100.06,-16.66"/>
<polygon fill="black" stroke="black" points="99.62,-13.19 90.12,-17.88 100.48,-20.14 99.62,-13.19"/>
<text text-anchor="middle" x="458.49" y="-18.3" font-family="Times,serif" font-size="14.00">{c0, c1, c2}</text>
</g>
</g>
</svg>
