<?xml version="1.0" encoding="UTF-8" standalone="no"?>
<!DOCTYPE svg PUBLIC "-//W3C//DTD SVG 1.1//EN"
 "http://www.w3.org/Graphics/SVG/1.1/DTD/svg11.dtd">
<!-- Generated by graphviz version 2.40.1 (20161225.0304)
 -->
<!-- Title: %3 Pages: 1 -->
<svg width="678pt" height="473pt"
 viewBox="0.00 0.00 677.96 473.00" xmlns="http://www.w3.org/2000/svg" xmlns:xlink="http://www.w3.org/1999/xlink">
<g id="graph0" class="graph" transform="scale(1 1) rotate(0) translate(4 469)">
<title>%3</title>
<polygon fill="#ffffff" stroke="transparent" points="-4,4 -4,-469 673.9607,-469 673.9607,4 -4,4"/>
<!-- fake -->
<g id="node1" class="node">
<title>fake</title>
</g>
<!-- 0 -->
<g id="node6" class="node">
<title>0</title>
<ellipse fill="none" stroke="#000000" cx="295.9607" cy="-374" rx="27" ry="18"/>
<text text-anchor="middle" x="295.9607" y="-370.3" font-family="Times,serif" font-size="14.00" fill="#000000">0</text>
</g>
<!-- fake&#45;&gt;0 -->
<g id="edge1" class="edge">
<title>fake&#45;&gt;0</title>
<path fill="none" stroke="#000000" stroke-width="2" d="M295.9607,-428.9551C295.9607,-420.8828 295.9607,-411.1764 295.9607,-402.1817"/>
<polygon fill="#000000" stroke="#000000" stroke-width="2" points="299.4608,-402.0903 295.9607,-392.0904 292.4608,-402.0904 299.4608,-402.0903"/>
</g>
<!-- 1 -->
<g id="node2" class="node">
<title>1</title>
<ellipse fill="none" stroke="#000000" cx="47.9607" cy="-287" rx="27" ry="18"/>
<text text-anchor="middle" x="47.9607" y="-283.3" font-family="Times,serif" font-size="14.00" fill="#000000">1</text>
</g>
<!-- 1&#45;&gt;1 -->
<g id="edge6" class="edge">
<title>1&#45;&gt;1</title>
<path fill="none" stroke="#000000" d="M72.4932,-294.752C83.4685,-295.4902 92.9607,-292.9063 92.9607,-287 92.9607,-283.0317 88.6758,-280.5632 82.535,-279.5944"/>
<polygon fill="#000000" stroke="#000000" points="82.6079,-276.0949 72.4932,-279.248 82.3666,-283.0908 82.6079,-276.0949"/>
<text text-anchor="middle" x="99.9607" y="-283.3" font-family="Times,serif" font-size="14.00" fill="#000000">{}</text>
</g>
<!-- 2 -->
<g id="node3" class="node">
<title>2</title>
<ellipse fill="none" stroke="#000000" cx="205.9607" cy="-200" rx="27" ry="18"/>
<text text-anchor="middle" x="205.9607" y="-196.3" font-family="Times,serif" font-size="14.00" fill="#000000">2</text>
</g>
<!-- 1&#45;&gt;2 -->
<g id="edge3" class="edge">
<title>1&#45;&gt;2</title>
<path fill="none" stroke="#000000" d="M61.2336,-271.3147C71.4006,-260.1467 86.3027,-245.4935 101.9607,-236 123.1622,-223.1456 149.5919,-214.0729 170.502,-208.2509"/>
<polygon fill="#000000" stroke="#000000" points="171.5118,-211.6041 180.2765,-205.6516 169.7128,-204.8392 171.5118,-211.6041"/>
<text text-anchor="middle" x="115.4607" y="-239.8" font-family="Times,serif" font-size="14.00" fill="#000000">{c1}</text>
</g>
<!-- 1&#45;&gt;0 -->
<g id="edge2" class="edge">
<title>1&#45;&gt;0</title>
<path fill="none" stroke="#000000" d="M39.0643,-304.0484C34.722,-314.982 31.9645,-328.8006 39.9607,-338 54.1096,-354.2778 191.3366,-366.4071 258.8393,-371.4407"/>
<polygon fill="#000000" stroke="#000000" points="258.8162,-374.9483 269.0449,-372.1872 259.3269,-367.9669 258.8162,-374.9483"/>
<text text-anchor="middle" x="53.4607" y="-326.8" font-family="Times,serif" font-size="14.00" fill="#000000">{c0}</text>
</g>
<!-- 1&#45;&gt;0 -->
<g id="edge4" class="edge">
<title>1&#45;&gt;0</title>
<path fill="none" stroke="#000000" d="M57.4692,-303.946C64.8247,-315.4226 76.0848,-329.9175 89.9607,-338 118.0632,-354.3693 207.7234,-365.4586 259.0175,-370.641"/>
<polygon fill="#000000" stroke="#000000" points="258.7451,-374.1311 269.04,-371.6278 259.4311,-367.1648 258.7451,-374.1311"/>
<text text-anchor="middle" x="103.4607" y="-326.8" font-family="Times,serif" font-size="14.00" fill="#000000">{c2}</text>
</g>
<!-- 1&#45;&gt;0 -->
<g id="edge5" class="edge">
<title>1&#45;&gt;0</title>
<path fill="none" stroke="#000000" d="M70.009,-297.8169C83.7029,-304.7032 101.5668,-313.993 116.9607,-323 127.4942,-329.1632 128.7313,-333.2211 139.9607,-338 178.9624,-354.5978 226.8541,-364.1958 259.2049,-369.2437"/>
<polygon fill="#000000" stroke="#000000" points="258.7241,-372.7106 269.1314,-370.7259 259.7579,-365.7874 258.7241,-372.7106"/>
<text text-anchor="middle" x="153.4607" y="-326.8" font-family="Times,serif" font-size="14.00" fill="#000000">{c3}</text>
</g>
<!-- 2&#45;&gt;2 -->
<g id="edge11" class="edge">
<title>2&#45;&gt;2</title>
<path fill="none" stroke="#000000" d="M230.4932,-207.752C241.4685,-208.4902 250.9607,-205.9063 250.9607,-200 250.9607,-196.0317 246.6758,-193.5632 240.535,-192.5944"/>
<polygon fill="#000000" stroke="#000000" points="240.6079,-189.0949 230.4932,-192.248 240.3666,-196.0908 240.6079,-189.0949"/>
<text text-anchor="middle" x="257.9607" y="-196.3" font-family="Times,serif" font-size="14.00" fill="#000000">{}</text>
</g>
<!-- 3 -->
<g id="node4" class="node">
<title>3</title>
<ellipse fill="none" stroke="#000000" cx="361.9607" cy="-113" rx="27" ry="18"/>
<text text-anchor="middle" x="361.9607" y="-109.3" font-family="Times,serif" font-size="14.00" fill="#000000">3</text>
</g>
<!-- 2&#45;&gt;3 -->
<g id="edge9" class="edge">
<title>2&#45;&gt;3</title>
<path fill="none" stroke="#000000" d="M221.8501,-185.389C234.4646,-174.339 252.9219,-159.3523 270.9607,-149 288.6989,-138.8202 309.8758,-130.2541 327.3357,-124.035"/>
<polygon fill="#000000" stroke="#000000" points="328.8236,-127.224 337.1322,-120.6499 326.5374,-120.6078 328.8236,-127.224"/>
<text text-anchor="middle" x="284.4607" y="-152.8" font-family="Times,serif" font-size="14.00" fill="#000000">{c2}</text>
</g>
<!-- 2&#45;&gt;0 -->
<g id="edge7" class="edge">
<title>2&#45;&gt;0</title>
<path fill="none" stroke="#000000" d="M190.2922,-214.9155C170.9395,-235.2377 142.2706,-272.7865 156.9607,-305 174.8165,-344.1553 224.5053,-361.3114 259.3508,-368.6774"/>
<polygon fill="#000000" stroke="#000000" points="258.7078,-372.1178 269.191,-370.5843 260.0396,-365.2456 258.7078,-372.1178"/>
<text text-anchor="middle" x="170.4607" y="-283.3" font-family="Times,serif" font-size="14.00" fill="#000000">{c0}</text>
</g>
<!-- 2&#45;&gt;0 -->
<g id="edge8" class="edge">
<title>2&#45;&gt;0</title>
<path fill="none" stroke="#000000" d="M204.8107,-218.1682C204.2052,-240.0046 205.6994,-277.1784 219.9607,-305 230.6908,-325.9326 250.5598,-343.6226 267.2913,-355.849"/>
<polygon fill="#000000" stroke="#000000" points="265.4914,-358.8615 275.6898,-361.7328 269.5079,-353.1284 265.4914,-358.8615"/>
<text text-anchor="middle" x="233.4607" y="-283.3" font-family="Times,serif" font-size="14.00" fill="#000000">{c1}</text>
</g>
<!-- 2&#45;&gt;0 -->
<g id="edge10" class="edge">
<title>2&#45;&gt;0</title>
<path fill="none" stroke="#000000" d="M216.5481,-216.7456C225.1237,-230.5557 237.3209,-250.7688 246.9607,-269 260.7605,-295.0986 274.8417,-325.7814 284.3464,-347.2152"/>
<polygon fill="#000000" stroke="#000000" points="281.2663,-348.9055 288.4986,-356.6479 287.673,-346.0852 281.2663,-348.9055"/>
<text text-anchor="middle" x="277.4607" y="-283.3" font-family="Times,serif" font-size="14.00" fill="#000000">{c3}</text>
</g>
<!-- 3&#45;&gt;3 -->
<g id="edge16" class="edge">
<title>3&#45;&gt;3</title>
<path fill="none" stroke="#000000" d="M386.4932,-120.752C397.4685,-121.4902 406.9607,-118.9063 406.9607,-113 406.9607,-109.0317 402.6758,-106.5632 396.535,-105.5944"/>
<polygon fill="#000000" stroke="#000000" points="396.6079,-102.0949 386.4932,-105.248 396.3666,-109.0908 396.6079,-102.0949"/>
<text text-anchor="middle" x="413.9607" y="-109.3" font-family="Times,serif" font-size="14.00" fill="#000000">{}</text>
</g>
<!-- 4 -->
<g id="node5" class="node">
<title>4</title>
<ellipse fill="none" stroke="#000000" cx="516.9607" cy="-22" rx="18" ry="18"/>
<ellipse fill="none" stroke="#000000" cx="516.9607" cy="-22" rx="22" ry="22"/>
<text text-anchor="middle" x="516.9607" y="-18.3" font-family="Times,serif" font-size="14.00" fill="#000000">4</text>
</g>
<!-- 3&#45;&gt;4 -->
<g id="edge15" class="edge">
<title>3&#45;&gt;4</title>
<path fill="none" stroke="#000000" d="M374.8312,-96.9595C384.387,-85.9097 398.2617,-71.5525 412.9607,-62 435.5055,-47.3488 464.2257,-36.8159 485.7704,-30.2482"/>
<polygon fill="#000000" stroke="#000000" points="486.7995,-33.5939 495.4136,-27.4255 484.833,-26.8757 486.7995,-33.5939"/>
<text text-anchor="middle" x="426.4607" y="-65.8" font-family="Times,serif" font-size="14.00" fill="#000000">{c3}</text>
</g>
<!-- 3&#45;&gt;0 -->
<g id="edge12" class="edge">
<title>3&#45;&gt;0</title>
<path fill="none" stroke="#000000" d="M353.3472,-130.446C342.1769,-153.8632 322.9454,-197.0329 312.9607,-236 303.4394,-273.1586 299.1882,-317.3583 297.3331,-345.5405"/>
<polygon fill="#000000" stroke="#000000" points="293.8191,-345.6713 296.7143,-355.8628 300.8066,-346.0902 293.8191,-345.6713"/>
<text text-anchor="middle" x="326.4607" y="-239.8" font-family="Times,serif" font-size="14.00" fill="#000000">{c0}</text>
</g>
<!-- 3&#45;&gt;0 -->
<g id="edge13" class="edge">
<title>3&#45;&gt;0</title>
<path fill="none" stroke="#000000" d="M359.9806,-131.0365C356.8677,-157.5571 350.1174,-208.528 339.9607,-251 330.5133,-290.506 326.4523,-300.0531 311.9607,-338 310.7895,-341.0669 309.495,-344.2494 308.1646,-347.3962"/>
<polygon fill="#000000" stroke="#000000" points="304.9491,-346.0138 304.1532,-356.5787 311.3638,-348.8161 304.9491,-346.0138"/>
<text text-anchor="middle" x="356.4607" y="-239.8" font-family="Times,serif" font-size="14.00" fill="#000000">{c1}</text>
</g>
<!-- 3&#45;&gt;0 -->
<g id="edge14" class="edge">
<title>3&#45;&gt;0</title>
<path fill="none" stroke="#000000" d="M367.146,-130.7153C374.1034,-157.2604 384.4421,-208.7526 373.9607,-251 363.4286,-293.4519 352.8919,-302.0622 327.9607,-338 324.8819,-342.4381 321.3195,-346.9285 317.7135,-351.1622"/>
<polygon fill="#000000" stroke="#000000" points="314.8609,-349.1036 310.8412,-358.9063 320.0966,-353.7499 314.8609,-349.1036"/>
<text text-anchor="middle" x="389.4607" y="-239.8" font-family="Times,serif" font-size="14.00" fill="#000000">{c2}</text>
</g>
<!-- 4&#45;&gt;4 -->
<g id="edge21" class="edge">
<title>4&#45;&gt;4</title>
<path fill="none" stroke="#000000" d="M537.5415,-30.3702C547.8054,-31.5284 556.9607,-28.7383 556.9607,-22 556.9607,-17.6833 553.2034,-14.9869 547.8043,-13.9109"/>
<polygon fill="#000000" stroke="#000000" points="547.6336,-10.405 537.5415,-13.6298 547.4419,-17.4024 547.6336,-10.405"/>
<text text-anchor="middle" x="563.9607" y="-18.3" font-family="Times,serif" font-size="14.00" fill="#000000">{}</text>
</g>
<!-- 4&#45;&gt;0 -->
<g id="edge17" class="edge">
<title>4&#45;&gt;0</title>
<path fill="none" stroke="#000000" d="M499.4117,-35.7131C480.7705,-51.9626 453.9607,-80.9106 453.9607,-113 453.9607,-287 453.9607,-287 453.9607,-287 453.9607,-342.0223 379.5261,-362.4993 332.8364,-369.9315"/>
<polygon fill="#000000" stroke="#000000" points="332.1522,-366.4942 322.7633,-371.4033 333.1642,-373.4207 332.1522,-366.4942"/>
<text text-anchor="middle" x="467.4607" y="-196.3" font-family="Times,serif" font-size="14.00" fill="#000000">{c0}</text>
</g>
<!-- 4&#45;&gt;0 -->
<g id="edge18" class="edge">
<title>4&#45;&gt;0</title>
<path fill="none" stroke="#000000" d="M516.9607,-44.0661C516.9607,-62.4949 516.9607,-89.4601 516.9607,-113 516.9607,-287 516.9607,-287 516.9607,-287 516.9607,-325.4926 481.9195,-321.8891 446.9607,-338 410.0174,-355.0255 364.1459,-364.4891 332.7167,-369.3893"/>
<polygon fill="#000000" stroke="#000000" points="332.0251,-365.9535 322.6456,-370.8805 333.0504,-372.878 332.0251,-365.9535"/>
<text text-anchor="middle" x="530.4607" y="-196.3" font-family="Times,serif" font-size="14.00" fill="#000000">{c1}</text>
</g>
<!-- 4&#45;&gt;0 -->
<g id="edge19" class="edge">
<title>4&#45;&gt;0</title>
<path fill="none" stroke="#000000" d="M534.5097,-35.7131C553.1509,-51.9626 579.9607,-80.9106 579.9607,-113 579.9607,-287 579.9607,-287 579.9607,-287 579.9607,-338.036 410.1734,-362.162 333.1588,-370.4802"/>
<polygon fill="#000000" stroke="#000000" points="332.5161,-367.0283 322.9348,-371.5502 333.2448,-373.9902 332.5161,-367.0283"/>
<text text-anchor="middle" x="593.4607" y="-196.3" font-family="Times,serif" font-size="14.00" fill="#000000">{c2}</text>
</g>
<!-- 4&#45;&gt;0 -->
<g id="edge20" class="edge">
<title>4&#45;&gt;0</title>
<path fill="none" stroke="#000000" d="M538.6209,-27.0348C574.6462,-36.8389 642.9607,-62.136 642.9607,-113 642.9607,-287 642.9607,-287 642.9607,-287 642.9607,-350.3268 422.7726,-367.9689 333.1936,-372.5259"/>
<polygon fill="#000000" stroke="#000000" points="333.0093,-369.0306 323.1892,-373.0077 333.346,-376.0225 333.0093,-369.0306"/>
<text text-anchor="middle" x="656.4607" y="-196.3" font-family="Times,serif" font-size="14.00" fill="#000000">{c3}</text>
</g>
<!-- 0&#45;&gt;1 -->
<g id="edge22" class="edge">
<title>0&#45;&gt;1</title>
<path fill="none" stroke="#000000" d="M268.8893,-372.6717C199.844,-369.0084 21.3863,-357.7058 3.9607,-338 -5.9185,-326.828 4.9649,-314.1303 18.3761,-304.1996"/>
<polygon fill="#000000" stroke="#000000" points="20.5874,-306.9286 26.8901,-298.4123 16.6522,-301.1394 20.5874,-306.9286"/>
<text text-anchor="middle" x="17.4607" y="-326.8" font-family="Times,serif" font-size="14.00" fill="#000000">{c0}</text>
</g>
<!-- 0&#45;&gt;0 -->
<g id="edge23" class="edge">
<title>0&#45;&gt;0</title>
<path fill="none" stroke="#000000" d="M323.2015,-375.6859C332.9846,-375.7221 340.9607,-375.1602 340.9607,-374 340.9607,-373.293 337.9989,-372.8082 333.4712,-372.5455"/>
<polygon fill="#000000" stroke="#000000" points="333.2778,-369.0403 323.2015,-372.3141 333.1201,-376.0386 333.2778,-369.0403"/>
<text text-anchor="middle" x="354.4607" y="-370.3" font-family="Times,serif" font-size="14.00" fill="#000000">{c1}</text>
</g>
<!-- 0&#45;&gt;0 -->
<g id="edge24" class="edge">
<title>0&#45;&gt;0</title>
<path fill="none" stroke="#000000" d="M322.7124,-376.9391C344.4,-378.0383 367.9607,-377.0586 367.9607,-374 367.9607,-371.4193 351.1875,-370.3186 332.9186,-370.6979"/>
<polygon fill="#000000" stroke="#000000" points="332.5817,-367.2076 322.7124,-371.0609 332.8305,-374.2032 332.5817,-367.2076"/>
<text text-anchor="middle" x="381.4607" y="-370.3" font-family="Times,serif" font-size="14.00" fill="#000000">{c2}</text>
</g>
<!-- 0&#45;&gt;0 -->
<g id="edge25" class="edge">
<title>0&#45;&gt;0</title>
<path fill="none" stroke="#000000" d="M322.8201,-377.7969C354.4607,-380.3281 394.9607,-379.0625 394.9607,-374 394.9607,-369.4714 362.5532,-367.9811 333.0691,-369.5289"/>
<polygon fill="#000000" stroke="#000000" points="332.5688,-366.0542 322.8201,-370.2031 333.0283,-373.0391 332.5688,-366.0542"/>
<text text-anchor="middle" x="408.4607" y="-370.3" font-family="Times,serif" font-size="14.00" fill="#000000">{c3}</text>
</g>
<!-- 0&#45;&gt;0 -->
<g id="edge26" class="edge">
<title>0&#45;&gt;0</title>
<path fill="none" stroke="#000000" d="M322.2146,-378.3704C362.9048,-382.6287 421.9607,-381.1719 421.9607,-374 421.9607,-367.4024 371.9843,-365.6413 332.3033,-368.7166"/>
<polygon fill="#000000" stroke="#000000" points="331.8584,-365.2425 322.2146,-369.6296 332.4894,-372.214 331.8584,-365.2425"/>
<text text-anchor="middle" x="428.9607" y="-370.3" font-family="Times,serif" font-size="14.00" fill="#000000">{}</text>
</g>
</g>
</svg>
