<?xml version="1.0" encoding="UTF-8" standalone="no"?>
<!DOCTYPE svg PUBLIC "-//W3C//DTD SVG 1.1//EN"
 "http://www.w3.org/Graphics/SVG/1.1/DTD/svg11.dtd">
<!-- Generated by graphviz version 2.38.0 (20140413.2041)
 -->
<!-- Title: %3 Pages: 1 -->
<svg width="327pt" height="386pt"
 viewBox="0.00 0.00 326.75 386.00" xmlns="http://www.w3.org/2000/svg" xmlns:xlink="http://www.w3.org/1999/xlink">
<g id="graph0" class="graph" transform="scale(1 1) rotate(0) translate(4 382)">
<title>%3</title>
<polygon fill="white" stroke="none" points="-4,4 -4,-382 322.755,-382 322.755,4 -4,4"/>
<!-- fake -->
<g id="node1" class="node"><title>fake</title>
</g>
<!-- 0 -->
<g id="node3" class="node"><title>0</title>
<ellipse fill="none" stroke="black" cx="161.755" cy="-287" rx="27" ry="18"/>
<text text-anchor="middle" x="161.755" y="-283.3" font-family="Times,serif" font-size="14.00">0</text>
</g>
<!-- fake&#45;&gt;0 -->
<g id="edge1" class="edge"><title>fake&#45;&gt;0</title>
<path fill="none" stroke="black" stroke-width="2" d="M161.755,-341.813C161.755,-333.789 161.755,-324.047 161.755,-315.069"/>
<polygon fill="black" stroke="black" stroke-width="2" points="165.255,-315.029 161.755,-305.029 158.255,-315.029 165.255,-315.029"/>
</g>
<!-- 2 -->
<g id="node2" class="node"><title>2</title>
<ellipse fill="none" stroke="black" cx="81.7547" cy="-113" rx="27" ry="18"/>
<text text-anchor="middle" x="81.7547" y="-109.3" font-family="Times,serif" font-size="14.00">2</text>
</g>
<!-- 2&#45;&gt;2 -->
<g id="edge17" class="edge"><title>2&#45;&gt;2</title>
<path fill="none" stroke="black" d="M106.287,-120.752C117.263,-121.49 126.755,-118.906 126.755,-113 126.755,-109.032 122.47,-106.563 116.329,-105.594"/>
<polygon fill="black" stroke="black" points="116.402,-102.095 106.287,-105.248 116.161,-109.091 116.402,-102.095"/>
<text text-anchor="middle" x="133.755" y="-109.3" font-family="Times,serif" font-size="14.00">{}</text>
</g>
<!-- 2&#45;&gt;0 -->
<g id="edge14" class="edge"><title>2&#45;&gt;0</title>
<path fill="none" stroke="black" d="M61.4506,-124.891C42.6339,-136.289 15.9198,-156.128 4.75469,-182 -1.5849,-196.69 -1.5849,-203.31 4.75469,-218 24.3097,-263.314 84.6162,-278.452 124.539,-283.496"/>
<polygon fill="black" stroke="black" points="124.385,-287.001 134.709,-284.621 125.155,-280.043 124.385,-287.001"/>
<text text-anchor="middle" x="18.2547" y="-196.3" font-family="Times,serif" font-size="14.00">{c1}</text>
</g>
<!-- 2&#45;&gt;0 -->
<g id="edge15" class="edge"><title>2&#45;&gt;0</title>
<path fill="none" stroke="black" d="M75.2489,-130.518C65.1598,-159.204 49.9202,-218.287 80.7547,-251 92.9081,-263.894 110.614,-272.281 126.375,-277.602"/>
<polygon fill="black" stroke="black" points="125.786,-281.082 136.373,-280.672 127.841,-274.391 125.786,-281.082"/>
<text text-anchor="middle" x="77.2547" y="-196.3" font-family="Times,serif" font-size="14.00">{c0}</text>
</g>
<!-- 3 -->
<g id="node4" class="node"><title>3</title>
<ellipse fill="none" stroke="black" cx="253.755" cy="-22" rx="18" ry="18"/>
<ellipse fill="none" stroke="black" cx="253.755" cy="-22" rx="22" ry="22"/>
<text text-anchor="middle" x="253.755" y="-18.3" font-family="Times,serif" font-size="14.00">3</text>
</g>
<!-- 2&#45;&gt;3 -->
<g id="edge16" class="edge"><title>2&#45;&gt;3</title>
<path fill="none" stroke="black" d="M102.502,-101.265C133.21,-85.3748 190.846,-55.5518 225.421,-37.6612"/>
<polygon fill="black" stroke="black" points="227.247,-40.6573 234.52,-32.9531 224.03,-34.4402 227.247,-40.6573"/>
<text text-anchor="middle" x="191.255" y="-65.8" font-family="Times,serif" font-size="14.00">{c2}</text>
</g>
<!-- 0&#45;&gt;0 -->
<g id="edge2" class="edge"><title>0&#45;&gt;0</title>
<path fill="none" stroke="black" d="M188.55,-289.245C198.535,-289.319 206.755,-288.57 206.755,-287 206.755,-286.019 203.544,-285.358 198.698,-285.019"/>
<polygon fill="black" stroke="black" points="198.637,-281.516 188.55,-284.755 198.455,-288.514 198.637,-281.516"/>
<text text-anchor="middle" x="220.255" y="-283.3" font-family="Times,serif" font-size="14.00">{c1}</text>
</g>
<!-- 0&#45;&gt;0 -->
<g id="edge4" class="edge"><title>0&#45;&gt;0</title>
<path fill="none" stroke="black" d="M188.133,-290.893C209.922,-292.399 233.755,-291.102 233.755,-287 233.755,-283.523 216.631,-282.061 198.142,-282.614"/>
<polygon fill="black" stroke="black" points="197.948,-279.119 188.133,-283.107 198.293,-286.11 197.948,-279.119"/>
<text text-anchor="middle" x="247.255" y="-283.3" font-family="Times,serif" font-size="14.00">{c2}</text>
</g>
<!-- 0&#45;&gt;0 -->
<g id="edge5" class="edge"><title>0&#45;&gt;0</title>
<path fill="none" stroke="black" d="M188.12,-292.009C219.832,-295.455 260.755,-293.785 260.755,-287 260.755,-280.93 228.009,-278.954 198.403,-281.071"/>
<polygon fill="black" stroke="black" points="197.769,-277.614 188.12,-281.991 198.392,-284.586 197.769,-277.614"/>
<text text-anchor="middle" x="267.755" y="-283.3" font-family="Times,serif" font-size="14.00">{}</text>
</g>
<!-- 1 -->
<g id="node5" class="node"><title>1</title>
<ellipse fill="none" stroke="black" cx="131.755" cy="-200" rx="27" ry="18"/>
<text text-anchor="middle" x="131.755" y="-196.3" font-family="Times,serif" font-size="14.00">1</text>
</g>
<!-- 0&#45;&gt;1 -->
<g id="edge3" class="edge"><title>0&#45;&gt;1</title>
<path fill="none" stroke="black" d="M136.135,-281.209C119.231,-276.574 98.3231,-267.69 87.7547,-251 80.0413,-238.819 90.2797,-226.642 102.813,-217.356"/>
<polygon fill="black" stroke="black" points="104.874,-220.187 111.214,-211.699 100.964,-214.381 104.874,-220.187"/>
<text text-anchor="middle" x="101.255" y="-239.8" font-family="Times,serif" font-size="14.00">{c0}</text>
</g>
<!-- 3&#45;&gt;0 -->
<g id="edge10" class="edge"><title>3&#45;&gt;0</title>
<path fill="none" stroke="black" d="M250.127,-44.0192C241.367,-93.3712 218.266,-215.189 197.755,-251 194.702,-256.33 190.602,-261.378 186.262,-265.895"/>
<polygon fill="black" stroke="black" points="183.689,-263.513 178.876,-272.952 188.525,-268.574 183.689,-263.513"/>
<text text-anchor="middle" x="241.255" y="-152.8" font-family="Times,serif" font-size="14.00">{c1}</text>
</g>
<!-- 3&#45;&gt;0 -->
<g id="edge11" class="edge"><title>3&#45;&gt;0</title>
<path fill="none" stroke="black" d="M257.479,-43.9039C261.702,-71.7497 266.789,-122.343 256.755,-164 246.7,-205.743 243.017,-218.676 214.755,-251 208.252,-258.437 199.809,-264.956 191.581,-270.288"/>
<polygon fill="black" stroke="black" points="189.57,-267.414 182.838,-275.595 193.203,-273.397 189.57,-267.414"/>
<text text-anchor="middle" x="272.255" y="-152.8" font-family="Times,serif" font-size="14.00">{c0}</text>
</g>
<!-- 3&#45;&gt;0 -->
<g id="edge12" class="edge"><title>3&#45;&gt;0</title>
<path fill="none" stroke="black" d="M264.487,-41.2843C278.913,-68.2018 301.471,-120.059 289.755,-164 277.969,-208.201 269.903,-221.722 234.755,-251 223.023,-260.772 208.103,-268.553 194.813,-274.273"/>
<polygon fill="black" stroke="black" points="193.431,-271.057 185.493,-278.073 196.074,-277.539 193.431,-271.057"/>
<text text-anchor="middle" x="305.255" y="-152.8" font-family="Times,serif" font-size="14.00">{c2}</text>
</g>
<!-- 3&#45;&gt;3 -->
<g id="edge13" class="edge"><title>3&#45;&gt;3</title>
<path fill="none" stroke="black" d="M274.335,-30.3702C284.599,-31.5284 293.755,-28.7383 293.755,-22 293.755,-17.6833 289.997,-14.9869 284.598,-13.9109"/>
<polygon fill="black" stroke="black" points="284.428,-10.405 274.335,-13.6298 284.236,-17.4024 284.428,-10.405"/>
<text text-anchor="middle" x="300.755" y="-18.3" font-family="Times,serif" font-size="14.00">{}</text>
</g>
<!-- 1&#45;&gt;2 -->
<g id="edge6" class="edge"><title>1&#45;&gt;2</title>
<path fill="none" stroke="black" d="M122.35,-183.012C115.017,-170.546 104.704,-153.013 96.3073,-138.739"/>
<polygon fill="black" stroke="black" points="99.2042,-136.761 91.1171,-129.916 93.1706,-140.31 99.2042,-136.761"/>
<text text-anchor="middle" x="122.255" y="-152.8" font-family="Times,serif" font-size="14.00">{c1}</text>
</g>
<!-- 1&#45;&gt;0 -->
<g id="edge7" class="edge"><title>1&#45;&gt;0</title>
<path fill="none" stroke="black" d="M131.796,-218.146C132.31,-228.028 133.81,-240.528 137.755,-251 139.203,-254.846 141.16,-258.678 143.335,-262.319"/>
<polygon fill="black" stroke="black" points="140.573,-264.487 149.025,-270.876 146.403,-260.611 140.573,-264.487"/>
<text text-anchor="middle" x="151.255" y="-239.8" font-family="Times,serif" font-size="14.00">{c0}</text>
</g>
<!-- 1&#45;&gt;0 -->
<g id="edge8" class="edge"><title>1&#45;&gt;0</title>
<path fill="none" stroke="black" d="M148.753,-214.163C155.033,-220.078 161.426,-227.617 164.755,-236 167.623,-243.224 168.123,-251.498 167.559,-259.208"/>
<polygon fill="black" stroke="black" points="164.075,-258.853 166.252,-269.222 171.016,-259.759 164.075,-258.853"/>
<text text-anchor="middle" x="180.255" y="-239.8" font-family="Times,serif" font-size="14.00">{c2}</text>
</g>
<!-- 1&#45;&gt;1 -->
<g id="edge9" class="edge"><title>1&#45;&gt;1</title>
<path fill="none" stroke="black" d="M156.287,-207.752C167.263,-208.49 176.755,-205.906 176.755,-200 176.755,-196.032 172.47,-193.563 166.329,-192.594"/>
<polygon fill="black" stroke="black" points="166.402,-189.095 156.287,-192.248 166.161,-196.091 166.402,-189.095"/>
<text text-anchor="middle" x="183.755" y="-196.3" font-family="Times,serif" font-size="14.00">{}</text>
</g>
</g>
</svg>
