<?xml version="1.0" encoding="UTF-8" standalone="no"?>
<!DOCTYPE svg PUBLIC "-//W3C//DTD SVG 1.1//EN"
 "http://www.w3.org/Graphics/SVG/1.1/DTD/svg11.dtd">
<!-- Generated by graphviz version 2.38.0 (20140413.2041)
 -->
<!-- Title: %3 Pages: 1 -->
<svg width="1053pt" height="386pt"
 viewBox="0.00 0.00 1053.22 386.00" xmlns="http://www.w3.org/2000/svg" xmlns:xlink="http://www.w3.org/1999/xlink">
<g id="graph0" class="graph" transform="scale(1 1) rotate(0) translate(4 382)">
<title>%3</title>
<polygon fill="white" stroke="none" points="-4,4 -4,-382 1049.22,-382 1049.22,4 -4,4"/>
<!-- fake -->
<g id="node1" class="node"><title>fake</title>
</g>
<!-- 0 -->
<g id="node2" class="node"><title>0</title>
<ellipse fill="none" stroke="black" cx="584.218" cy="-287" rx="27" ry="18"/>
<text text-anchor="middle" x="584.218" y="-283.3" font-family="Times,serif" font-size="14.00">0</text>
</g>
<!-- fake&#45;&gt;0 -->
<g id="edge1" class="edge"><title>fake&#45;&gt;0</title>
<path fill="none" stroke="black" stroke-width="2" d="M584.218,-341.813C584.218,-333.789 584.218,-324.047 584.218,-315.069"/>
<polygon fill="black" stroke="black" stroke-width="2" points="587.719,-315.029 584.218,-305.029 580.719,-315.029 587.719,-315.029"/>
</g>
<!-- 0&#45;&gt;0 -->
<g id="edge5" class="edge"><title>0&#45;&gt;0</title>
<path fill="none" stroke="black" d="M609.662,-293.691C620.246,-294.152 629.218,-291.922 629.218,-287 629.218,-283.77 625.354,-281.699 619.707,-280.788"/>
<polygon fill="black" stroke="black" points="619.817,-277.289 609.662,-280.309 619.484,-284.281 619.817,-277.289"/>
<text text-anchor="middle" x="636.218" y="-283.3" font-family="Times,serif" font-size="14.00">{}</text>
</g>
<!-- 1 -->
<g id="node3" class="node"><title>1</title>
<ellipse fill="none" stroke="black" cx="444.218" cy="-200" rx="27" ry="18"/>
<text text-anchor="middle" x="444.218" y="-196.3" font-family="Times,serif" font-size="14.00">1</text>
</g>
<!-- 0&#45;&gt;1 -->
<g id="edge2" class="edge"><title>0&#45;&gt;1</title>
<path fill="none" stroke="black" d="M557.041,-285.618C505.854,-284.262 398.215,-278.168 375.218,-251 361.106,-234.327 386.228,-220.254 410.02,-211.328"/>
<polygon fill="black" stroke="black" points="411.396,-214.554 419.672,-207.938 409.077,-207.949 411.396,-214.554"/>
<text text-anchor="middle" x="398.718" y="-239.8" font-family="Times,serif" font-size="14.00">{c0, c2}</text>
</g>
<!-- 0&#45;&gt;1 -->
<g id="edge3" class="edge"><title>0&#45;&gt;1</title>
<path fill="none" stroke="black" d="M557.821,-283.136C521.518,-278.596 459.085,-268.429 445.218,-251 440.125,-244.599 438.646,-236.136 438.81,-227.997"/>
<polygon fill="black" stroke="black" points="442.294,-228.325 439.748,-218.04 435.325,-227.668 442.294,-228.325"/>
<text text-anchor="middle" x="458.718" y="-239.8" font-family="Times,serif" font-size="14.00">{c0}</text>
</g>
<!-- 0&#45;&gt;1 -->
<g id="edge4" class="edge"><title>0&#45;&gt;1</title>
<path fill="none" stroke="black" d="M559.539,-279.231C540.934,-273.453 515.281,-264.004 495.218,-251 483.675,-243.518 472.559,-233.131 463.668,-223.762"/>
<polygon fill="black" stroke="black" points="466.096,-221.231 456.762,-216.217 460.932,-225.957 466.096,-221.231"/>
<text text-anchor="middle" x="528.718" y="-239.8" font-family="Times,serif" font-size="14.00">{c0, c1, c2}</text>
</g>
<!-- 0&#45;&gt;1 -->
<g id="edge6" class="edge"><title>0&#45;&gt;1</title>
<path fill="none" stroke="black" d="M580.627,-268.962C577.5,-258.105 571.895,-244.527 562.218,-236 539.814,-216.258 506.708,-207.64 481.259,-203.884"/>
<polygon fill="black" stroke="black" points="481.59,-200.398 471.225,-202.592 480.696,-207.341 481.59,-200.398"/>
<text text-anchor="middle" x="595.718" y="-239.8" font-family="Times,serif" font-size="14.00">{c0, c1}</text>
</g>
<!-- 2 -->
<g id="node4" class="node"><title>2</title>
<ellipse fill="none" stroke="black" cx="571.218" cy="-22" rx="27" ry="18"/>
<text text-anchor="middle" x="571.218" y="-18.3" font-family="Times,serif" font-size="14.00">2</text>
</g>
<!-- 0&#45;&gt;2 -->
<g id="edge7" class="edge"><title>0&#45;&gt;2</title>
<path fill="none" stroke="black" d="M603.414,-274.068C611.083,-268.167 619.066,-260.305 623.218,-251 635.314,-223.893 718.055,-424.392 615.218,-95 609.739,-77.4494 599.057,-59.8018 589.59,-46.3707"/>
<polygon fill="black" stroke="black" points="592.34,-44.202 583.611,-38.1969 586.69,-48.3346 592.34,-44.202"/>
<text text-anchor="middle" x="648.718" y="-152.8" font-family="Times,serif" font-size="14.00">{c2}</text>
</g>
<!-- 0&#45;&gt;2 -->
<g id="edge8" class="edge"><title>0&#45;&gt;2</title>
<path fill="none" stroke="black" d="M609.468,-279.97C625.119,-274.888 644.264,-265.974 655.218,-251 682.14,-214.2 677.785,-193.105 666.218,-149 654.961,-106.074 645.475,-96.2191 617.218,-62 611.373,-54.9207 604.135,-48.1154 597.144,-42.227"/>
<polygon fill="black" stroke="black" points="599.129,-39.3315 589.149,-35.7742 594.732,-44.7786 599.129,-39.3315"/>
<text text-anchor="middle" x="692.718" y="-152.8" font-family="Times,serif" font-size="14.00">{c1, c2}</text>
</g>
<!-- 0&#45;&gt;2 -->
<g id="edge9" class="edge"><title>0&#45;&gt;2</title>
<path fill="none" stroke="black" d="M609.743,-280.971C629.04,-276.074 655.2,-266.966 673.218,-251 710.577,-217.897 738.776,-195.336 720.218,-149 698.655,-95.1592 639.295,-56.9796 602.336,-37.5936"/>
<polygon fill="black" stroke="black" points="603.507,-34.2628 593.007,-32.849 600.334,-40.5021 603.507,-34.2628"/>
<text text-anchor="middle" x="737.718" y="-152.8" font-family="Times,serif" font-size="14.00">{c1}</text>
</g>
<!-- 1&#45;&gt;1 -->
<g id="edge30" class="edge"><title>1&#45;&gt;1</title>
<path fill="none" stroke="black" d="M468.751,-207.752C479.726,-208.49 489.218,-205.906 489.218,-200 489.218,-196.032 484.934,-193.563 478.793,-192.594"/>
<polygon fill="black" stroke="black" points="478.866,-189.095 468.751,-192.248 478.624,-196.091 478.866,-189.095"/>
<text text-anchor="middle" x="496.218" y="-196.3" font-family="Times,serif" font-size="14.00">{}</text>
</g>
<!-- 1&#45;&gt;2 -->
<g id="edge31" class="edge"><title>1&#45;&gt;2</title>
<path fill="none" stroke="black" d="M443.332,-181.75C442.957,-160.221 444.756,-122.845 459.218,-95 477.968,-58.9003 498.967,-62.4546 535.218,-44 537.818,-42.6767 540.491,-41.2494 543.151,-39.7837"/>
<polygon fill="black" stroke="black" points="545.048,-42.7314 552.013,-34.7478 541.59,-36.6453 545.048,-42.7314"/>
<text text-anchor="middle" x="472.718" y="-109.3" font-family="Times,serif" font-size="14.00">{c2}</text>
</g>
<!-- 1&#45;&gt;2 -->
<g id="edge32" class="edge"><title>1&#45;&gt;2</title>
<path fill="none" stroke="black" d="M455.489,-183.381C477.801,-152.461 527.715,-83.2884 554.106,-46.7149"/>
<polygon fill="black" stroke="black" points="556.96,-48.7411 559.973,-38.5838 551.283,-44.645 556.96,-48.7411"/>
<text text-anchor="middle" x="531.718" y="-109.3" font-family="Times,serif" font-size="14.00">{c0}</text>
</g>
<!-- 1&#45;&gt;2 -->
<g id="edge33" class="edge"><title>1&#45;&gt;2</title>
<path fill="none" stroke="black" d="M467.379,-190.367C491.703,-180.057 529.151,-160.426 549.218,-131 565.506,-107.117 570.232,-73.8105 571.369,-50.5202"/>
<polygon fill="black" stroke="black" points="574.875,-50.3845 571.671,-40.2855 567.878,-50.1778 574.875,-50.3845"/>
<text text-anchor="middle" x="587.718" y="-109.3" font-family="Times,serif" font-size="14.00">{c0, c2}</text>
</g>
<!-- 3 -->
<g id="node5" class="node"><title>3</title>
<ellipse fill="none" stroke="black" cx="223.218" cy="-113" rx="27" ry="18"/>
<text text-anchor="middle" x="223.218" y="-109.3" font-family="Times,serif" font-size="14.00">3</text>
</g>
<!-- 1&#45;&gt;3 -->
<g id="edge26" class="edge"><title>1&#45;&gt;3</title>
<path fill="none" stroke="black" d="M417.293,-197.496C352.135,-193.582 190.131,-182.108 174.218,-164 163.523,-151.829 177.255,-138.775 192.873,-129.058"/>
<polygon fill="black" stroke="black" points="194.683,-132.055 201.601,-124.03 191.189,-125.989 194.683,-132.055"/>
<text text-anchor="middle" x="187.718" y="-152.8" font-family="Times,serif" font-size="14.00">{c1}</text>
</g>
<!-- 1&#45;&gt;3 -->
<g id="edge27" class="edge"><title>1&#45;&gt;3</title>
<path fill="none" stroke="black" d="M416.916,-198.829C363.668,-197.859 248.983,-192.436 224.218,-164 218.766,-157.739 217.247,-149.179 217.484,-140.911"/>
<polygon fill="black" stroke="black" points="220.983,-141.104 218.56,-130.79 214.023,-140.364 220.983,-141.104"/>
<text text-anchor="middle" x="257.718" y="-152.8" font-family="Times,serif" font-size="14.00">{c0, c1, c2}</text>
</g>
<!-- 1&#45;&gt;3 -->
<g id="edge28" class="edge"><title>1&#45;&gt;3</title>
<path fill="none" stroke="black" d="M417.991,-194.463C391.133,-189.243 348.572,-179.36 314.218,-164 303.077,-159.019 301.769,-155.134 291.218,-149 279.172,-141.996 265.575,-134.853 253.723,-128.862"/>
<polygon fill="black" stroke="black" points="255.164,-125.669 244.654,-124.328 252.034,-131.93 255.164,-125.669"/>
<text text-anchor="middle" x="337.718" y="-152.8" font-family="Times,serif" font-size="14.00">{c0, c1}</text>
</g>
<!-- 1&#45;&gt;3 -->
<g id="edge29" class="edge"><title>1&#45;&gt;3</title>
<path fill="none" stroke="black" d="M424.344,-187.738C412.588,-180.994 397.457,-172.171 384.218,-164 373.833,-157.59 372.396,-153.9 361.218,-149 328.053,-134.461 287.65,-125.1 259.157,-119.752"/>
<polygon fill="black" stroke="black" points="259.696,-116.293 249.233,-117.961 258.453,-123.182 259.696,-116.293"/>
<text text-anchor="middle" x="407.718" y="-152.8" font-family="Times,serif" font-size="14.00">{c1, c2}</text>
</g>
<!-- 2&#45;&gt;2 -->
<g id="edge34" class="edge"><title>2&#45;&gt;2</title>
<path fill="none" stroke="black" d="M598.459,-23.4985C608.242,-23.5308 616.218,-23.0312 616.218,-22 616.218,-21.3716 613.257,-20.9406 608.729,-20.7071"/>
<polygon fill="black" stroke="black" points="608.527,-17.2025 598.459,-20.5015 608.387,-24.2011 608.527,-17.2025"/>
<text text-anchor="middle" x="629.718" y="-18.3" font-family="Times,serif" font-size="14.00">{c2}</text>
</g>
<!-- 2&#45;&gt;2 -->
<g id="edge35" class="edge"><title>2&#45;&gt;2</title>
<path fill="none" stroke="black" d="M597.97,-24.6125C619.658,-25.5896 643.218,-24.7187 643.218,-22 643.218,-19.7061 626.445,-18.7277 608.176,-19.0648"/>
<polygon fill="black" stroke="black" points="607.855,-15.5731 597.97,-19.3875 608.076,-22.5696 607.855,-15.5731"/>
<text text-anchor="middle" x="676.718" y="-18.3" font-family="Times,serif" font-size="14.00">{c0, c1, c2}</text>
</g>
<!-- 2&#45;&gt;2 -->
<g id="edge36" class="edge"><title>2&#45;&gt;2</title>
<path fill="none" stroke="black" d="M598.119,-25.0162C640.83,-27.7281 710.218,-26.7227 710.218,-22 710.218,-17.6371 650.998,-16.4467 608.301,-18.4288"/>
<polygon fill="black" stroke="black" points="607.914,-14.9446 598.119,-18.9838 608.295,-21.9342 607.914,-14.9446"/>
<text text-anchor="middle" x="733.718" y="-18.3" font-family="Times,serif" font-size="14.00">{c1, c2}</text>
</g>
<!-- 2&#45;&gt;2 -->
<g id="edge37" class="edge"><title>2&#45;&gt;2</title>
<path fill="none" stroke="black" d="M597.871,-25.4467C652.787,-29.7583 757.218,-28.6094 757.218,-22 757.218,-15.7779 664.666,-14.3951 608.003,-17.8517"/>
<polygon fill="black" stroke="black" points="607.606,-14.3707 597.871,-18.5533 608.089,-21.354 607.606,-14.3707"/>
<text text-anchor="middle" x="764.218" y="-18.3" font-family="Times,serif" font-size="14.00">{}</text>
</g>
<!-- 2&#45;&gt;2 -->
<g id="edge38" class="edge"><title>2&#45;&gt;2</title>
<path fill="none" stroke="black" d="M597.618,-25.9551C657.753,-31.7559 775.218,-30.4375 775.218,-22 775.218,-14.0074 669.815,-12.403 607.584,-17.1866"/>
<polygon fill="black" stroke="black" points="607.281,-13.6997 597.618,-18.0449 607.882,-20.6739 607.281,-13.6997"/>
<text text-anchor="middle" x="788.718" y="-18.3" font-family="Times,serif" font-size="14.00">{c0}</text>
</g>
<!-- 2&#45;&gt;2 -->
<g id="edge39" class="edge"><title>2&#45;&gt;2</title>
<path fill="none" stroke="black" d="M597.658,-26.3506C664.853,-33.7627 802.218,-32.3125 802.218,-22 802.218,-12.191 677.94,-10.4001 607.979,-16.627"/>
<polygon fill="black" stroke="black" points="607.265,-13.1806 597.658,-17.6494 607.955,-20.1465 607.265,-13.1806"/>
<text text-anchor="middle" x="825.718" y="-18.3" font-family="Times,serif" font-size="14.00">{c0, c2}</text>
</g>
<!-- 2&#45;&gt;2 -->
<g id="edge40" class="edge"><title>2&#45;&gt;2</title>
<path fill="none" stroke="black" d="M597.547,-26.5629C675.033,-35.7847 849.218,-34.2637 849.218,-22 849.218,-10.2393 689.029,-8.35819 607.551,-16.3566"/>
<polygon fill="black" stroke="black" points="607.113,-12.8834 597.547,-17.4371 607.865,-19.8429 607.113,-12.8834"/>
<text text-anchor="middle" x="872.718" y="-18.3" font-family="Times,serif" font-size="14.00">{c0, c1}</text>
</g>
<!-- 2&#45;&gt;2 -->
<g id="edge41" class="edge"><title>2&#45;&gt;2</title>
<path fill="none" stroke="black" d="M597.44,-26.7488C684.569,-37.8017 896.218,-36.2188 896.218,-22 896.218,-8.3089 699.986,-6.33319 607.637,-16.0729"/>
<polygon fill="black" stroke="black" points="606.972,-12.6263 597.44,-17.2512 607.776,-19.5801 606.972,-12.6263"/>
<text text-anchor="middle" x="909.718" y="-18.3" font-family="Times,serif" font-size="14.00">{c1}</text>
</g>
<!-- 3&#45;&gt;2 -->
<g id="edge23" class="edge"><title>3&#45;&gt;2</title>
<path fill="none" stroke="black" d="M236.576,-96.8164C247.945,-85.0398 265.391,-69.5003 284.218,-62 388.119,-20.6084 428.366,-77.0337 535.218,-44 538.232,-43.0683 541.263,-41.845 544.219,-40.4564"/>
<polygon fill="black" stroke="black" points="546.115,-43.4113 553.286,-35.6122 542.817,-37.2372 546.115,-43.4113"/>
<text text-anchor="middle" x="297.718" y="-65.8" font-family="Times,serif" font-size="14.00">{c0}</text>
</g>
<!-- 3&#45;&gt;2 -->
<g id="edge24" class="edge"><title>3&#45;&gt;2</title>
<path fill="none" stroke="black" d="M246.941,-104.021C264.982,-97.6081 290.198,-87.8959 311.218,-77 322.053,-71.3837 322.687,-65.9963 334.218,-62 418.964,-32.6304 449.767,-71.2494 535.218,-44 538.224,-43.0417 541.249,-41.8008 544.201,-40.4013"/>
<polygon fill="black" stroke="black" points="546.105,-43.3522 553.264,-35.5427 542.797,-37.1828 546.105,-43.3522"/>
<text text-anchor="middle" x="357.718" y="-65.8" font-family="Times,serif" font-size="14.00">{c0, c1}</text>
</g>
<!-- 3&#45;&gt;2 -->
<g id="edge25" class="edge"><title>3&#45;&gt;2</title>
<path fill="none" stroke="black" d="M249.824,-109.071C281.961,-104.87 337.188,-95.5093 381.218,-77 392.469,-72.2706 392.785,-66.2675 404.218,-62 459.278,-41.4498 479.664,-63.1723 535.218,-44 538.134,-42.9938 541.077,-41.7406 543.956,-40.3503"/>
<polygon fill="black" stroke="black" points="545.682,-43.3964 552.832,-35.5779 542.367,-37.2311 545.682,-43.3964"/>
<text text-anchor="middle" x="417.718" y="-65.8" font-family="Times,serif" font-size="14.00">{c1}</text>
</g>
<!-- 3&#45;&gt;3 -->
<g id="edge19" class="edge"><title>3&#45;&gt;3</title>
<path fill="none" stroke="black" d="M247.751,-120.752C258.726,-121.49 268.218,-118.906 268.218,-113 268.218,-109.032 263.934,-106.563 257.793,-105.594"/>
<polygon fill="black" stroke="black" points="257.866,-102.095 247.751,-105.248 257.624,-109.091 257.866,-102.095"/>
<text text-anchor="middle" x="275.218" y="-109.3" font-family="Times,serif" font-size="14.00">{}</text>
</g>
<!-- 4 -->
<g id="node6" class="node"><title>4</title>
<ellipse fill="none" stroke="black" cx="57.2184" cy="-22" rx="18" ry="18"/>
<ellipse fill="none" stroke="black" cx="57.2184" cy="-22" rx="22" ry="22"/>
<text text-anchor="middle" x="57.2184" y="-18.3" font-family="Times,serif" font-size="14.00">4</text>
</g>
<!-- 3&#45;&gt;4 -->
<g id="edge18" class="edge"><title>3&#45;&gt;4</title>
<path fill="none" stroke="black" d="M195.991,-111.851C142.895,-110.92 28.5793,-105.563 4.21845,-77 -8.01512,-62.656 10.1247,-47.4236 28.4275,-36.8068"/>
<polygon fill="black" stroke="black" points="30.1774,-39.8394 37.2933,-31.9899 26.8355,-33.6886 30.1774,-39.8394"/>
<text text-anchor="middle" x="27.7184" y="-65.8" font-family="Times,serif" font-size="14.00">{c0, c2}</text>
</g>
<!-- 3&#45;&gt;4 -->
<g id="edge20" class="edge"><title>3&#45;&gt;4</title>
<path fill="none" stroke="black" d="M196.884,-108.961C159.029,-104.083 91.8424,-93.3613 74.2184,-77 67.6951,-70.9441 63.6597,-62.4149 61.1683,-53.9203"/>
<polygon fill="black" stroke="black" points="64.5632,-53.0664 58.8963,-44.1145 57.7439,-54.6465 64.5632,-53.0664"/>
<text text-anchor="middle" x="107.718" y="-65.8" font-family="Times,serif" font-size="14.00">{c0, c1, c2}</text>
</g>
<!-- 3&#45;&gt;4 -->
<g id="edge21" class="edge"><title>3&#45;&gt;4</title>
<path fill="none" stroke="black" d="M203.426,-100.541C191.911,-93.8045 177.161,-85.0545 164.218,-77 153.857,-70.552 151.892,-67.9181 141.218,-62 123.635,-52.2501 103.187,-42.7199 86.8686,-35.521"/>
<polygon fill="black" stroke="black" points="87.8701,-32.1398 77.3041,-31.3588 85.0769,-38.5584 87.8701,-32.1398"/>
<text text-anchor="middle" x="177.718" y="-65.8" font-family="Times,serif" font-size="14.00">{c2}</text>
</g>
<!-- 3&#45;&gt;4 -->
<g id="edge22" class="edge"><title>3&#45;&gt;4</title>
<path fill="none" stroke="black" d="M216.348,-95.3545C211.015,-84.3842 202.606,-70.5204 191.218,-62 161.154,-39.5059 118.385,-29.954 89.3096,-25.918"/>
<polygon fill="black" stroke="black" points="89.622,-22.4299 79.266,-24.6669 88.7566,-29.3762 89.622,-22.4299"/>
<text text-anchor="middle" x="228.718" y="-65.8" font-family="Times,serif" font-size="14.00">{c1, c2}</text>
</g>
<!-- 4&#45;&gt;4 -->
<g id="edge10" class="edge"><title>4&#45;&gt;4</title>
<path fill="none" stroke="black" d="M79.4308,-23.4821C89.0137,-23.6034 97.2184,-23.1094 97.2184,-22 97.2184,-21.324 94.1717,-20.8765 89.623,-20.6574"/>
<polygon fill="black" stroke="black" points="89.4778,-17.1552 79.4308,-20.5179 89.3819,-24.1546 89.4778,-17.1552"/>
<text text-anchor="middle" x="110.718" y="-18.3" font-family="Times,serif" font-size="14.00">{c2}</text>
</g>
<!-- 4&#45;&gt;4 -->
<g id="edge11" class="edge"><title>4&#45;&gt;4</title>
<path fill="none" stroke="black" d="M79.2508,-24.4661C100.126,-25.6658 124.218,-24.8437 124.218,-22 124.218,-19.6228 107.383,-18.6584 89.6646,-19.1067"/>
<polygon fill="black" stroke="black" points="89.0989,-15.6269 79.2508,-19.5339 89.3859,-22.621 89.0989,-15.6269"/>
<text text-anchor="middle" x="137.718" y="-18.3" font-family="Times,serif" font-size="14.00">{c1}</text>
</g>
<!-- 4&#45;&gt;4 -->
<g id="edge12" class="edge"><title>4&#45;&gt;4</title>
<path fill="none" stroke="black" d="M79.3489,-25.1154C109.726,-27.7025 151.218,-26.6641 151.218,-22 151.218,-17.8461 118.306,-16.568 89.6464,-18.1658"/>
<polygon fill="black" stroke="black" points="89.0809,-14.6966 79.3489,-18.8846 89.5684,-21.6797 89.0809,-14.6966"/>
<text text-anchor="middle" x="158.218" y="-18.3" font-family="Times,serif" font-size="14.00">{}</text>
</g>
<!-- 4&#45;&gt;4 -->
<g id="edge13" class="edge"><title>4&#45;&gt;4</title>
<path fill="none" stroke="black" d="M78.9247,-25.6269C115.71,-29.7246 169.218,-28.5156 169.218,-22 169.218,-16.0698 124.892,-14.5355 89.1934,-17.3972"/>
<polygon fill="black" stroke="black" points="88.5487,-13.9426 78.9247,-18.3731 89.211,-20.9112 88.5487,-13.9426"/>
<text text-anchor="middle" x="192.718" y="-18.3" font-family="Times,serif" font-size="14.00">{c0, c1}</text>
</g>
<!-- 4&#45;&gt;4 -->
<g id="edge14" class="edge"><title>4&#45;&gt;4</title>
<path fill="none" stroke="black" d="M79.0837,-25.8332C128.395,-31.7738 216.218,-30.4961 216.218,-22 216.218,-14.0515 139.351,-12.4209 89.0646,-17.1081"/>
<polygon fill="black" stroke="black" points="88.6587,-13.6314 79.0837,-18.1668 89.3971,-20.5924 88.6587,-13.6314"/>
<text text-anchor="middle" x="239.718" y="-18.3" font-family="Times,serif" font-size="14.00">{c1, c2}</text>
</g>
<!-- 4&#45;&gt;4 -->
<g id="edge15" class="edge"><title>4&#45;&gt;4</title>
<path fill="none" stroke="black" d="M78.9153,-25.9901C139.232,-33.8066 263.218,-32.4766 263.218,-22 263.218,-12.0759 151.964,-10.3591 88.9612,-16.8496"/>
<polygon fill="black" stroke="black" points="88.4476,-13.3856 78.9153,-18.0099 89.2508,-20.3394 88.4476,-13.3856"/>
<text text-anchor="middle" x="286.718" y="-18.3" font-family="Times,serif" font-size="14.00">{c0, c2}</text>
</g>
<!-- 4&#45;&gt;4 -->
<g id="edge16" class="edge"><title>4&#45;&gt;4</title>
<path fill="none" stroke="black" d="M78.9394,-26.1552C149.375,-35.8265 310.218,-34.4414 310.218,-22 310.218,-10.1175 163.501,-8.32027 88.9563,-16.6083"/>
<polygon fill="black" stroke="black" points="88.4353,-13.146 78.9394,-17.8448 89.2929,-20.0933 88.4353,-13.146"/>
<text text-anchor="middle" x="343.718" y="-18.3" font-family="Times,serif" font-size="14.00">{c0, c1, c2}</text>
</g>
<!-- 4&#45;&gt;4 -->
<g id="edge17" class="edge"><title>4&#45;&gt;4</title>
<path fill="none" stroke="black" d="M78.977,-26.2297C161.72,-37.8474 377.218,-36.4375 377.218,-22 377.218,-8.11237 177.823,-6.27888 88.9896,-16.4995"/>
<polygon fill="black" stroke="black" points="88.4568,-13.039 78.977,-17.7703 89.3381,-19.9833 88.4568,-13.039"/>
<text text-anchor="middle" x="390.718" y="-18.3" font-family="Times,serif" font-size="14.00">{c0}</text>
</g>
</g>
</svg>
