<?xml version="1.0" encoding="UTF-8" standalone="no"?>
<!DOCTYPE svg PUBLIC "-//W3C//DTD SVG 1.1//EN"
 "http://www.w3.org/Graphics/SVG/1.1/DTD/svg11.dtd">
<!-- Generated by graphviz version 2.43.0 (0)
 -->
<!-- Title: %3 Pages: 1 -->
<svg width="387pt" height="386pt"
 viewBox="0.00 0.00 387.07 386.00" xmlns="http://www.w3.org/2000/svg" xmlns:xlink="http://www.w3.org/1999/xlink">
<g id="graph0" class="graph" transform="scale(1 1) rotate(0) translate(4 382)">
<title>%3</title>
<polygon fill="white" stroke="transparent" points="-4,4 -4,-382 383.07,-382 383.07,4 -4,4"/>
<!-- fake -->
<g id="node1" class="node">
<title>fake</title>
</g>
<!-- 0 -->
<g id="node5" class="node">
<title>0</title>
<ellipse fill="none" stroke="black" cx="193.07" cy="-287" rx="27" ry="18"/>
<text text-anchor="middle" x="193.07" y="-283.3" font-family="Times,serif" font-size="14.00">0</text>
</g>
<!-- fake&#45;&gt;0 -->
<g id="edge1" class="edge">
<title>fake&#45;&gt;0</title>
<path fill="none" stroke="black" stroke-width="2" d="M193.07,-341.81C193.07,-333.79 193.07,-324.05 193.07,-315.07"/>
<polygon fill="black" stroke="black" stroke-width="2" points="196.57,-315.03 193.07,-305.03 189.57,-315.03 196.57,-315.03"/>
</g>
<!-- 3 -->
<g id="node2" class="node">
<title>3</title>
<ellipse fill="none" stroke="black" cx="88.07" cy="-22" rx="18" ry="18"/>
<ellipse fill="none" stroke="black" cx="88.07" cy="-22" rx="22" ry="22"/>
<text text-anchor="middle" x="88.07" y="-18.3" font-family="Times,serif" font-size="14.00">3</text>
</g>
<!-- 3&#45;&gt;3 -->
<g id="edge13" class="edge">
<title>3&#45;&gt;3</title>
<path fill="none" stroke="black" d="M108.65,-30.37C118.91,-31.53 128.07,-28.74 128.07,-22 128.07,-17.68 124.31,-14.99 118.91,-13.91"/>
<polygon fill="black" stroke="black" points="118.74,-10.41 108.65,-13.63 118.55,-17.4 118.74,-10.41"/>
<text text-anchor="middle" x="137.57" y="-18.3" font-family="Times,serif" font-size="14.00">{}</text>
</g>
<!-- 3&#45;&gt;0 -->
<g id="edge10" class="edge">
<title>3&#45;&gt;0</title>
<path fill="none" stroke="black" d="M70.94,-36.07C42.49,-59.52 -10.26,-111.23 2.07,-164 11.88,-206 11.31,-224.15 45.07,-251 76.76,-276.21 123.61,-283.78 156.08,-285.79"/>
<polygon fill="black" stroke="black" points="155.92,-289.29 166.07,-286.26 156.25,-282.3 155.92,-289.29"/>
<text text-anchor="middle" x="19.57" y="-152.8" font-family="Times,serif" font-size="14.00">{c2}</text>
</g>
<!-- 3&#45;&gt;0 -->
<g id="edge11" class="edge">
<title>3&#45;&gt;0</title>
<path fill="none" stroke="black" d="M79.04,-42.24C67.44,-69.47 49.96,-120.74 60.07,-164 69.88,-206 71.25,-221.87 103.07,-251 118.12,-264.79 139.22,-273.38 157.21,-278.59"/>
<polygon fill="black" stroke="black" points="156.53,-282.04 167.09,-281.22 158.33,-275.27 156.53,-282.04"/>
<text text-anchor="middle" x="77.57" y="-152.8" font-family="Times,serif" font-size="14.00">{c1}</text>
</g>
<!-- 3&#45;&gt;0 -->
<g id="edge12" class="edge">
<title>3&#45;&gt;0</title>
<path fill="none" stroke="black" d="M94.64,-43.2C107.98,-83.44 139.84,-176.17 174.07,-251 175.55,-254.24 177.2,-257.6 178.9,-260.89"/>
<polygon fill="black" stroke="black" points="175.9,-262.69 183.7,-269.85 182.07,-259.39 175.9,-262.69"/>
<text text-anchor="middle" x="154.57" y="-152.8" font-family="Times,serif" font-size="14.00">{c0}</text>
</g>
<!-- 2 -->
<g id="node3" class="node">
<title>2</title>
<ellipse fill="none" stroke="black" cx="203.07" cy="-113" rx="27" ry="18"/>
<text text-anchor="middle" x="203.07" y="-109.3" font-family="Times,serif" font-size="14.00">2</text>
</g>
<!-- 2&#45;&gt;3 -->
<g id="edge14" class="edge">
<title>2&#45;&gt;3</title>
<path fill="none" stroke="black" d="M186.1,-98.87C166.82,-83.95 135.17,-59.45 113.06,-42.35"/>
<polygon fill="black" stroke="black" points="115.15,-39.54 105.1,-36.19 110.87,-45.07 115.15,-39.54"/>
<text text-anchor="middle" x="172.57" y="-65.8" font-family="Times,serif" font-size="14.00">{c2}</text>
</g>
<!-- 2&#45;&gt;2 -->
<g id="edge17" class="edge">
<title>2&#45;&gt;2</title>
<path fill="none" stroke="black" d="M227.6,-120.75C238.57,-121.49 248.07,-118.91 248.07,-113 248.07,-109.03 243.78,-106.56 237.64,-105.59"/>
<polygon fill="black" stroke="black" points="237.71,-102.09 227.6,-105.25 237.47,-109.09 237.71,-102.09"/>
<text text-anchor="middle" x="257.57" y="-109.3" font-family="Times,serif" font-size="14.00">{}</text>
</g>
<!-- 2&#45;&gt;0 -->
<g id="edge15" class="edge">
<title>2&#45;&gt;0</title>
<path fill="none" stroke="black" d="M194.9,-130.27C188.62,-143.75 180.46,-163.61 177.07,-182 172.21,-208.28 178.13,-238.48 184.09,-259.55"/>
<polygon fill="black" stroke="black" points="180.82,-260.82 187.07,-269.38 187.52,-258.79 180.82,-260.82"/>
<text text-anchor="middle" x="194.57" y="-196.3" font-family="Times,serif" font-size="14.00">{c1}</text>
</g>
<!-- 2&#45;&gt;0 -->
<g id="edge16" class="edge">
<title>2&#45;&gt;0</title>
<path fill="none" stroke="black" d="M206.85,-130.99C210.91,-151.63 216.25,-187.48 212.07,-218 210.15,-231.95 206.13,-247.07 202.28,-259.5"/>
<polygon fill="black" stroke="black" points="198.88,-258.63 199.13,-269.22 205.54,-260.79 198.88,-258.63"/>
<text text-anchor="middle" x="230.57" y="-196.3" font-family="Times,serif" font-size="14.00">{c0}</text>
</g>
<!-- 1 -->
<g id="node4" class="node">
<title>1</title>
<ellipse fill="none" stroke="black" cx="314.07" cy="-200" rx="27" ry="18"/>
<text text-anchor="middle" x="314.07" y="-196.3" font-family="Times,serif" font-size="14.00">1</text>
</g>
<!-- 1&#45;&gt;2 -->
<g id="edge3" class="edge">
<title>1&#45;&gt;2</title>
<path fill="none" stroke="black" d="M296.72,-185.72C278.39,-171.68 249.31,-149.41 228.41,-133.41"/>
<polygon fill="black" stroke="black" points="230.35,-130.49 220.29,-127.19 226.1,-136.05 230.35,-130.49"/>
<text text-anchor="middle" x="282.57" y="-152.8" font-family="Times,serif" font-size="14.00">{c1}</text>
</g>
<!-- 1&#45;&gt;1 -->
<g id="edge5" class="edge">
<title>1&#45;&gt;1</title>
<path fill="none" stroke="black" d="M338.6,-207.75C349.57,-208.49 359.07,-205.91 359.07,-200 359.07,-196.03 354.78,-193.56 348.64,-192.59"/>
<polygon fill="black" stroke="black" points="348.71,-189.09 338.6,-192.25 348.47,-196.09 348.71,-189.09"/>
<text text-anchor="middle" x="368.57" y="-196.3" font-family="Times,serif" font-size="14.00">{}</text>
</g>
<!-- 1&#45;&gt;0 -->
<g id="edge2" class="edge">
<title>1&#45;&gt;0</title>
<path fill="none" stroke="black" d="M310.33,-217.88C307.14,-228.66 301.52,-242.23 292.07,-251 274.92,-266.91 250.09,-275.67 229.58,-280.44"/>
<polygon fill="black" stroke="black" points="228.69,-277.05 219.62,-282.53 230.13,-283.9 228.69,-277.05"/>
<text text-anchor="middle" x="319.57" y="-239.8" font-family="Times,serif" font-size="14.00">{c2}</text>
</g>
<!-- 1&#45;&gt;0 -->
<g id="edge4" class="edge">
<title>1&#45;&gt;0</title>
<path fill="none" stroke="black" d="M330.11,-214.94C340.23,-225.43 349.88,-239.86 341.07,-251 327.42,-268.25 268.85,-277.87 229.61,-282.49"/>
<polygon fill="black" stroke="black" points="229.14,-279.02 219.6,-283.61 229.92,-285.97 229.14,-279.02"/>
<text text-anchor="middle" x="361.57" y="-239.8" font-family="Times,serif" font-size="14.00">{c0}</text>
</g>
<!-- 0&#45;&gt;1 -->
<g id="edge8" class="edge">
<title>0&#45;&gt;1</title>
<path fill="none" stroke="black" d="M209.27,-272.25C225.45,-258.56 248.53,-239.16 253.07,-236 262.96,-229.11 274.3,-222.33 284.5,-216.6"/>
<polygon fill="black" stroke="black" points="286.4,-219.55 293.47,-211.65 283.02,-213.42 286.4,-219.55"/>
<text text-anchor="middle" x="270.57" y="-239.8" font-family="Times,serif" font-size="14.00">{c0}</text>
</g>
<!-- 0&#45;&gt;0 -->
<g id="edge6" class="edge">
<title>0&#45;&gt;0</title>
<path fill="none" stroke="black" d="M219.86,-289.25C229.85,-289.32 238.07,-288.57 238.07,-287 238.07,-286.02 234.85,-285.36 230.01,-285.02"/>
<polygon fill="black" stroke="black" points="229.95,-281.52 219.86,-284.75 229.77,-288.51 229.95,-281.52"/>
<text text-anchor="middle" x="255.57" y="-283.3" font-family="Times,serif" font-size="14.00">{c2}</text>
</g>
<!-- 0&#45;&gt;0 -->
<g id="edge7" class="edge">
<title>0&#45;&gt;0</title>
<path fill="none" stroke="black" d="M219.69,-290.79C244.22,-292.46 273.07,-291.2 273.07,-287 273.07,-283.38 251.57,-281.94 229.91,-282.69"/>
<polygon fill="black" stroke="black" points="229.5,-279.21 219.69,-283.21 229.85,-286.2 229.5,-279.21"/>
<text text-anchor="middle" x="290.57" y="-283.3" font-family="Times,serif" font-size="14.00">{c1}</text>
</g>
<!-- 0&#45;&gt;0 -->
<g id="edge9" class="edge">
<title>0&#45;&gt;0</title>
<path fill="none" stroke="black" d="M219.35,-291.76C255.69,-295.53 308.07,-293.94 308.07,-287 308.07,-280.68 264.68,-278.8 229.49,-281.35"/>
<polygon fill="black" stroke="black" points="229.01,-277.88 219.35,-282.24 229.62,-284.86 229.01,-277.88"/>
<text text-anchor="middle" x="317.57" y="-283.3" font-family="Times,serif" font-size="14.00">{}</text>
</g>
</g>
</svg>
