<?xml version="1.0" encoding="UTF-8" standalone="no"?>
<!DOCTYPE svg PUBLIC "-//W3C//DTD SVG 1.1//EN"
 "http://www.w3.org/Graphics/SVG/1.1/DTD/svg11.dtd">
<!-- Generated by graphviz version 2.43.0 (0)
 -->
<!-- Title: %3 Pages: 1 -->
<svg width="1271pt" height="386pt"
 viewBox="0.00 0.00 1271.28 386.00" xmlns="http://www.w3.org/2000/svg" xmlns:xlink="http://www.w3.org/1999/xlink">
<g id="graph0" class="graph" transform="scale(1 1) rotate(0) translate(4 382)">
<title>%3</title>
<polygon fill="white" stroke="transparent" points="-4,4 -4,-382 1267.28,-382 1267.28,4 -4,4"/>
<!-- fake -->
<g id="node1" class="node">
<title>fake</title>
</g>
<!-- 0 -->
<g id="node2" class="node">
<title>0</title>
<ellipse fill="none" stroke="black" cx="661.28" cy="-287" rx="27" ry="18"/>
<text text-anchor="middle" x="661.28" y="-283.3" font-family="Times,serif" font-size="14.00">0</text>
</g>
<!-- fake&#45;&gt;0 -->
<g id="edge1" class="edge">
<title>fake&#45;&gt;0</title>
<path fill="none" stroke="black" stroke-width="2" d="M661.28,-341.81C661.28,-333.79 661.28,-324.05 661.28,-315.07"/>
<polygon fill="black" stroke="black" stroke-width="2" points="664.78,-315.03 661.28,-305.03 657.78,-315.03 664.78,-315.03"/>
</g>
<!-- 0&#45;&gt;0 -->
<g id="edge13" class="edge">
<title>0&#45;&gt;0</title>
<path fill="none" stroke="black" d="M686.72,-293.69C697.3,-294.15 706.28,-291.92 706.28,-287 706.28,-283.77 702.41,-281.7 696.76,-280.79"/>
<polygon fill="black" stroke="black" points="696.88,-277.29 686.72,-280.31 696.54,-284.28 696.88,-277.29"/>
<text text-anchor="middle" x="715.78" y="-283.3" font-family="Times,serif" font-size="14.00">{}</text>
</g>
<!-- 1 -->
<g id="node3" class="node">
<title>1</title>
<ellipse fill="none" stroke="black" cx="519.28" cy="-200" rx="27" ry="18"/>
<text text-anchor="middle" x="519.28" y="-196.3" font-family="Times,serif" font-size="14.00">1</text>
</g>
<!-- 0&#45;&gt;1 -->
<g id="edge10" class="edge">
<title>0&#45;&gt;1</title>
<path fill="none" stroke="black" d="M634.14,-285.98C579.98,-285.31 461.48,-280.42 436.28,-251 419.07,-230.91 454.31,-216.64 484.06,-208.61"/>
<polygon fill="black" stroke="black" points="485.02,-211.98 493.86,-206.13 483.3,-205.2 485.02,-211.98"/>
<text text-anchor="middle" x="466.78" y="-239.8" font-family="Times,serif" font-size="14.00">{c0, c2}</text>
</g>
<!-- 0&#45;&gt;1 -->
<g id="edge11" class="edge">
<title>0&#45;&gt;1</title>
<path fill="none" stroke="black" d="M634.81,-283.23C598.04,-278.78 534.4,-268.69 520.28,-251 515.17,-244.61 513.69,-236.15 513.86,-228.01"/>
<polygon fill="black" stroke="black" points="517.34,-228.33 514.8,-218.05 510.37,-227.68 517.34,-228.33"/>
<text text-anchor="middle" x="550.78" y="-239.8" font-family="Times,serif" font-size="14.00">{c0, c1}</text>
</g>
<!-- 0&#45;&gt;1 -->
<g id="edge12" class="edge">
<title>0&#45;&gt;1</title>
<path fill="none" stroke="black" d="M641.94,-274.3C630.86,-267.56 616.74,-258.89 604.28,-251 593.96,-244.47 591.71,-242.34 581.28,-236 570.66,-229.55 558.81,-222.76 548.35,-216.91"/>
<polygon fill="black" stroke="black" points="550.01,-213.83 539.57,-212.03 546.61,-219.94 550.01,-213.83"/>
<text text-anchor="middle" x="621.78" y="-239.8" font-family="Times,serif" font-size="14.00">{c0}</text>
</g>
<!-- 0&#45;&gt;1 -->
<g id="edge14" class="edge">
<title>0&#45;&gt;1</title>
<path fill="none" stroke="black" d="M657.7,-268.95C654.58,-258.08 648.97,-244.51 639.28,-236 616.33,-215.88 582.39,-207.3 556.45,-203.66"/>
<polygon fill="black" stroke="black" points="556.58,-200.15 546.23,-202.41 555.74,-207.1 556.58,-200.15"/>
<text text-anchor="middle" x="692.28" y="-239.8" font-family="Times,serif" font-size="14.00">{c0, c1, c2}</text>
</g>
<!-- 2 -->
<g id="node4" class="node">
<title>2</title>
<ellipse fill="none" stroke="black" cx="699.28" cy="-22" rx="27" ry="18"/>
<text text-anchor="middle" x="699.28" y="-18.3" font-family="Times,serif" font-size="14.00">2</text>
</g>
<!-- 0&#45;&gt;2 -->
<g id="edge15" class="edge">
<title>0&#45;&gt;2</title>
<path fill="none" stroke="black" d="M687.47,-281.79C705.4,-277.4 727.9,-268.57 739.28,-251 780.78,-186.88 738.61,-92.3 714.13,-47.83"/>
<polygon fill="black" stroke="black" points="717.04,-45.86 709.07,-38.88 710.95,-49.31 717.04,-45.86"/>
<text text-anchor="middle" x="772.78" y="-152.8" font-family="Times,serif" font-size="14.00">{c2}</text>
</g>
<!-- 0&#45;&gt;2 -->
<g id="edge16" class="edge">
<title>0&#45;&gt;2</title>
<path fill="none" stroke="black" d="M687.63,-282.1C708.56,-277.76 737.35,-268.85 756.28,-251 786.98,-222.05 785.65,-205.3 794.28,-164 804.75,-113.87 757.39,-66.93 725.78,-41.88"/>
<polygon fill="black" stroke="black" points="727.8,-39.01 717.74,-35.7 723.54,-44.56 727.8,-39.01"/>
<text text-anchor="middle" x="825.78" y="-152.8" font-family="Times,serif" font-size="14.00">{c1, c2}</text>
</g>
<!-- 0&#45;&gt;2 -->
<g id="edge17" class="edge">
<title>0&#45;&gt;2</title>
<path fill="none" stroke="black" d="M687.5,-281.93C711.88,-277.27 748.51,-267.99 776.28,-251 822.12,-222.94 840.14,-213.84 860.28,-164 886.41,-99.3 787.55,-53.64 733.02,-33.91"/>
<polygon fill="black" stroke="black" points="733.99,-30.54 723.4,-30.53 731.67,-37.15 733.99,-30.54"/>
<text text-anchor="middle" x="880.78" y="-152.8" font-family="Times,serif" font-size="14.00">{c1}</text>
</g>
<!-- 1&#45;&gt;1 -->
<g id="edge27" class="edge">
<title>1&#45;&gt;1</title>
<path fill="none" stroke="black" d="M543.81,-207.75C554.78,-208.49 564.28,-205.91 564.28,-200 564.28,-196.03 559.99,-193.56 553.85,-192.59"/>
<polygon fill="black" stroke="black" points="553.92,-189.09 543.81,-192.25 553.68,-196.09 553.92,-189.09"/>
<text text-anchor="middle" x="573.78" y="-196.3" font-family="Times,serif" font-size="14.00">{}</text>
</g>
<!-- 1&#45;&gt;2 -->
<g id="edge31" class="edge">
<title>1&#45;&gt;2</title>
<path fill="none" stroke="black" d="M520.13,-181.78C521.95,-159.95 527.62,-121.92 545.28,-95 576.62,-47.23 610.26,-65.29 663.28,-44 666.14,-42.85 669.05,-41.5 671.9,-40.05"/>
<polygon fill="black" stroke="black" points="673.67,-43.08 680.75,-35.2 670.3,-36.94 673.67,-43.08"/>
<text text-anchor="middle" x="562.78" y="-109.3" font-family="Times,serif" font-size="14.00">{c2}</text>
</g>
<!-- 1&#45;&gt;2 -->
<g id="edge32" class="edge">
<title>1&#45;&gt;2</title>
<path fill="none" stroke="black" d="M532.3,-184.07C550.49,-163.44 584.82,-125.34 616.28,-95 635.27,-76.68 657.98,-57.13 674.84,-43.03"/>
<polygon fill="black" stroke="black" points="677.15,-45.66 682.6,-36.58 672.67,-40.28 677.15,-45.66"/>
<text text-anchor="middle" x="646.78" y="-109.3" font-family="Times,serif" font-size="14.00">{c0, c2}</text>
</g>
<!-- 1&#45;&gt;2 -->
<g id="edge33" class="edge">
<title>1&#45;&gt;2</title>
<path fill="none" stroke="black" d="M545.6,-195.29C581.17,-188.82 643.93,-172.01 677.28,-131 695.81,-108.21 700.02,-73.92 700.43,-50.12"/>
<polygon fill="black" stroke="black" points="703.93,-49.98 700.39,-40 696.93,-50.01 703.93,-49.98"/>
<text text-anchor="middle" x="711.78" y="-109.3" font-family="Times,serif" font-size="14.00">{c0}</text>
</g>
<!-- 3 -->
<g id="node5" class="node">
<title>3</title>
<ellipse fill="none" stroke="black" cx="262.28" cy="-113" rx="27" ry="18"/>
<text text-anchor="middle" x="262.28" y="-109.3" font-family="Times,serif" font-size="14.00">3</text>
</g>
<!-- 1&#45;&gt;3 -->
<g id="edge26" class="edge">
<title>1&#45;&gt;3</title>
<path fill="none" stroke="black" d="M492.31,-198.01C419.7,-195.08 224.3,-185.26 205.28,-164 193.06,-150.34 210.99,-136.75 229.89,-127.2"/>
<polygon fill="black" stroke="black" points="231.56,-130.28 239.11,-122.85 228.58,-123.94 231.56,-130.28"/>
<text text-anchor="middle" x="222.78" y="-152.8" font-family="Times,serif" font-size="14.00">{c1}</text>
</g>
<!-- 1&#45;&gt;3 -->
<g id="edge28" class="edge">
<title>1&#45;&gt;3</title>
<path fill="none" stroke="black" d="M492.17,-199.52C432.58,-200.02 293.11,-197.5 263.28,-164 257.76,-157.8 256.22,-149.25 256.46,-140.98"/>
<polygon fill="black" stroke="black" points="259.96,-141.16 257.55,-130.85 253,-140.41 259.96,-141.16"/>
<text text-anchor="middle" x="293.78" y="-152.8" font-family="Times,serif" font-size="14.00">{c0, c1}</text>
</g>
<!-- 1&#45;&gt;3 -->
<g id="edge29" class="edge">
<title>1&#45;&gt;3</title>
<path fill="none" stroke="black" d="M492.44,-196.69C457.81,-193.01 396.19,-184.07 347.28,-164 335.99,-159.37 334.71,-155.34 324.28,-149 313.66,-142.55 301.81,-135.76 291.35,-129.91"/>
<polygon fill="black" stroke="black" points="293.01,-126.83 282.57,-125.03 289.61,-132.94 293.01,-126.83"/>
<text text-anchor="middle" x="377.78" y="-152.8" font-family="Times,serif" font-size="14.00">{c1, c2}</text>
</g>
<!-- 1&#45;&gt;3 -->
<g id="edge30" class="edge">
<title>1&#45;&gt;3</title>
<path fill="none" stroke="black" d="M495.55,-191.02C477.51,-184.61 452.3,-174.9 431.28,-164 420.44,-158.38 419.49,-153.83 408.28,-149 372.51,-133.6 328.77,-124.26 298.54,-119.14"/>
<polygon fill="black" stroke="black" points="298.88,-115.65 288.45,-117.51 297.76,-122.56 298.88,-115.65"/>
<text text-anchor="middle" x="474.28" y="-152.8" font-family="Times,serif" font-size="14.00">{c0, c1, c2}</text>
</g>
<!-- 2&#45;&gt;2 -->
<g id="edge34" class="edge">
<title>2&#45;&gt;2</title>
<path fill="none" stroke="black" d="M726.52,-23.5C736.3,-23.53 744.28,-23.03 744.28,-22 744.28,-21.37 741.32,-20.94 736.79,-20.71"/>
<polygon fill="black" stroke="black" points="736.59,-17.2 726.52,-20.5 736.45,-24.2 736.59,-17.2"/>
<text text-anchor="middle" x="761.78" y="-18.3" font-family="Times,serif" font-size="14.00">{c2}</text>
</g>
<!-- 2&#45;&gt;2 -->
<g id="edge35" class="edge">
<title>2&#45;&gt;2</title>
<path fill="none" stroke="black" d="M726.31,-24.54C750.75,-25.63 779.28,-24.78 779.28,-22 779.28,-19.6 758.02,-18.64 736.48,-19.12"/>
<polygon fill="black" stroke="black" points="736.19,-15.63 726.31,-19.46 736.42,-22.62 736.19,-15.63"/>
<text text-anchor="middle" x="809.78" y="-18.3" font-family="Times,serif" font-size="14.00">{c1, c2}</text>
</g>
<!-- 2&#45;&gt;2 -->
<g id="edge36" class="edge">
<title>2&#45;&gt;2</title>
<path fill="none" stroke="black" d="M726.09,-25C769.3,-27.73 840.28,-26.73 840.28,-22 840.28,-17.62 779.44,-16.44 736.13,-18.46"/>
<polygon fill="black" stroke="black" points="735.88,-14.96 726.09,-19 736.27,-21.95 735.88,-14.96"/>
<text text-anchor="middle" x="883.28" y="-18.3" font-family="Times,serif" font-size="14.00">{c0, c1, c2}</text>
</g>
<!-- 2&#45;&gt;2 -->
<g id="edge37" class="edge">
<title>2&#45;&gt;2</title>
<path fill="none" stroke="black" d="M726.06,-25.23C789.44,-29.79 926.28,-28.72 926.28,-22 926.28,-15.62 802.99,-14.33 736.26,-18.12"/>
<polygon fill="black" stroke="black" points="735.82,-14.64 726.06,-18.77 736.27,-21.63 735.82,-14.64"/>
<text text-anchor="middle" x="943.78" y="-18.3" font-family="Times,serif" font-size="14.00">{c1}</text>
</g>
<!-- 2&#45;&gt;2 -->
<g id="edge38" class="edge">
<title>2&#45;&gt;2</title>
<path fill="none" stroke="black" d="M726,-25.67C797.33,-31.8 961.28,-30.57 961.28,-22 961.28,-13.81 811.73,-12.33 736.15,-17.55"/>
<polygon fill="black" stroke="black" points="735.7,-14.08 726,-18.33 736.24,-21.05 735.7,-14.08"/>
<text text-anchor="middle" x="991.78" y="-18.3" font-family="Times,serif" font-size="14.00">{c0, c1}</text>
</g>
<!-- 2&#45;&gt;2 -->
<g id="edge39" class="edge">
<title>2&#45;&gt;2</title>
<path fill="none" stroke="black" d="M725.8,-25.91C808.96,-33.82 1022.28,-32.51 1022.28,-22 1022.28,-11.89 824.9,-10.3 735.85,-17.23"/>
<polygon fill="black" stroke="black" points="735.46,-13.75 725.8,-18.09 736.06,-20.72 735.46,-13.75"/>
<text text-anchor="middle" x="1052.78" y="-18.3" font-family="Times,serif" font-size="14.00">{c0, c2}</text>
</g>
<!-- 2&#45;&gt;2 -->
<g id="edge40" class="edge">
<title>2&#45;&gt;2</title>
<path fill="none" stroke="black" d="M725.64,-26.12C819.72,-35.83 1083.28,-34.46 1083.28,-22 1083.28,-9.97 837.42,-8.28 735.86,-16.92"/>
<polygon fill="black" stroke="black" points="735.27,-13.46 725.64,-17.88 735.92,-20.43 735.27,-13.46"/>
<text text-anchor="middle" x="1092.78" y="-18.3" font-family="Times,serif" font-size="14.00">{}</text>
</g>
<!-- 2&#45;&gt;2 -->
<g id="edge41" class="edge">
<title>2&#45;&gt;2</title>
<path fill="none" stroke="black" d="M725.56,-26.45C824.2,-37.83 1102.28,-36.34 1102.28,-22 1102.28,-8.12 841.84,-6.28 735.64,-16.49"/>
<polygon fill="black" stroke="black" points="735.14,-13.02 725.56,-17.55 735.88,-19.98 735.14,-13.02"/>
<text text-anchor="middle" x="1119.78" y="-18.3" font-family="Times,serif" font-size="14.00">{c0}</text>
</g>
<!-- 3&#45;&gt;2 -->
<g id="edge23" class="edge">
<title>3&#45;&gt;2</title>
<path fill="none" stroke="black" d="M280.05,-99.09C298.9,-85.67 327.65,-66.08 340.28,-62 477.08,-17.75 525.58,-85.37 663.28,-44 666.3,-43.09 669.33,-41.88 672.29,-40.51"/>
<polygon fill="black" stroke="black" points="674.18,-43.46 681.36,-35.67 670.89,-37.29 674.18,-43.46"/>
<text text-anchor="middle" x="357.78" y="-65.8" font-family="Times,serif" font-size="14.00">{c1}</text>
</g>
<!-- 3&#45;&gt;2 -->
<g id="edge24" class="edge">
<title>3&#45;&gt;2</title>
<path fill="none" stroke="black" d="M287.71,-106.27C311.12,-100.51 346.46,-90.53 375.28,-77 386.32,-71.81 386.7,-65.87 398.28,-62 510.23,-24.55 550.43,-78.65 663.28,-44 666.29,-43.07 669.32,-41.85 672.28,-40.47"/>
<polygon fill="black" stroke="black" points="674.18,-43.42 681.35,-35.63 670.88,-37.25 674.18,-43.42"/>
<text text-anchor="middle" x="428.78" y="-65.8" font-family="Times,serif" font-size="14.00">{c0, c1}</text>
</g>
<!-- 3&#45;&gt;2 -->
<g id="edge25" class="edge">
<title>3&#45;&gt;2</title>
<path fill="none" stroke="black" d="M289.33,-110.62C328.18,-107.88 401.46,-99.88 459.28,-77 470.62,-72.51 470.77,-66.05 482.28,-62 558.53,-35.15 586.38,-68.94 663.28,-44 666.28,-43.03 669.3,-41.78 672.25,-40.37"/>
<polygon fill="black" stroke="black" points="674.16,-43.32 681.31,-35.5 670.84,-37.15 674.16,-43.32"/>
<text text-anchor="middle" x="499.78" y="-65.8" font-family="Times,serif" font-size="14.00">{c0}</text>
</g>
<!-- 3&#45;&gt;3 -->
<g id="edge22" class="edge">
<title>3&#45;&gt;3</title>
<path fill="none" stroke="black" d="M286.81,-120.75C297.78,-121.49 307.28,-118.91 307.28,-113 307.28,-109.03 302.99,-106.56 296.85,-105.59"/>
<polygon fill="black" stroke="black" points="296.92,-102.09 286.81,-105.25 296.68,-109.09 296.92,-102.09"/>
<text text-anchor="middle" x="316.78" y="-109.3" font-family="Times,serif" font-size="14.00">{}</text>
</g>
<!-- 4 -->
<g id="node6" class="node">
<title>4</title>
<ellipse fill="none" stroke="black" cx="95.28" cy="-22" rx="18" ry="18"/>
<ellipse fill="none" stroke="black" cx="95.28" cy="-22" rx="22" ry="22"/>
<text text-anchor="middle" x="95.28" y="-18.3" font-family="Times,serif" font-size="14.00">4</text>
</g>
<!-- 3&#45;&gt;4 -->
<g id="edge18" class="edge">
<title>3&#45;&gt;4</title>
<path fill="none" stroke="black" d="M235.01,-112.58C175.09,-113.2 34.89,-110.92 5.28,-77 -14.92,-53.86 30.5,-37.78 63.88,-29.5"/>
<polygon fill="black" stroke="black" points="64.83,-32.87 73.77,-27.18 63.23,-26.05 64.83,-32.87"/>
<text text-anchor="middle" x="48.28" y="-65.8" font-family="Times,serif" font-size="14.00">{c0, c1, c2}</text>
</g>
<!-- 3&#45;&gt;4 -->
<g id="edge19" class="edge">
<title>3&#45;&gt;4</title>
<path fill="none" stroke="black" d="M235.27,-112.97C202.61,-112.66 147.85,-107.19 114.28,-77 107.53,-70.93 103.18,-62.33 100.37,-53.77"/>
<polygon fill="black" stroke="black" points="103.7,-52.65 97.74,-43.89 96.93,-54.45 103.7,-52.65"/>
<text text-anchor="middle" x="144.78" y="-65.8" font-family="Times,serif" font-size="14.00">{c0, c2}</text>
</g>
<!-- 3&#45;&gt;4 -->
<g id="edge20" class="edge">
<title>3&#45;&gt;4</title>
<path fill="none" stroke="black" d="M241.58,-101.21C228.94,-94.48 212.51,-85.52 198.28,-77 187.8,-70.73 185.89,-68.02 175.28,-62 158.85,-52.69 139.87,-43.38 124.52,-36.19"/>
<polygon fill="black" stroke="black" points="125.57,-32.82 115.02,-31.79 122.63,-39.17 125.57,-32.82"/>
<text text-anchor="middle" x="215.78" y="-65.8" font-family="Times,serif" font-size="14.00">{c2}</text>
</g>
<!-- 3&#45;&gt;4 -->
<g id="edge21" class="edge">
<title>3&#45;&gt;4</title>
<path fill="none" stroke="black" d="M256.44,-95.34C251.79,-84.36 244.21,-70.49 233.28,-62 202.41,-38.03 157.5,-28.79 127.38,-25.23"/>
<polygon fill="black" stroke="black" points="127.7,-21.74 117.39,-24.19 126.98,-28.71 127.7,-21.74"/>
<text text-anchor="middle" x="276.78" y="-65.8" font-family="Times,serif" font-size="14.00">{c1, c2}</text>
</g>
<!-- 4&#45;&gt;4 -->
<g id="edge2" class="edge">
<title>4&#45;&gt;4</title>
<path fill="none" stroke="black" d="M117.49,-23.48C127.07,-23.6 135.28,-23.11 135.28,-22 135.28,-21.32 132.23,-20.88 127.68,-20.66"/>
<polygon fill="black" stroke="black" points="127.54,-17.16 117.49,-20.52 127.44,-24.15 127.54,-17.16"/>
<text text-anchor="middle" x="152.78" y="-18.3" font-family="Times,serif" font-size="14.00">{c2}</text>
</g>
<!-- 4&#45;&gt;4 -->
<g id="edge3" class="edge">
<title>4&#45;&gt;4</title>
<path fill="none" stroke="black" d="M117.41,-24.38C140.89,-25.7 170.28,-24.91 170.28,-22 170.28,-19.5 148.57,-18.56 127.57,-19.19"/>
<polygon fill="black" stroke="black" points="127.25,-15.7 117.41,-19.62 127.54,-22.69 127.25,-15.7"/>
<text text-anchor="middle" x="187.78" y="-18.3" font-family="Times,serif" font-size="14.00">{c0}</text>
</g>
<!-- 4&#45;&gt;4 -->
<g id="edge4" class="edge">
<title>4&#45;&gt;4</title>
<path fill="none" stroke="black" d="M117.11,-24.93C151.78,-27.75 205.28,-26.77 205.28,-22 205.28,-17.68 161.34,-16.47 127.29,-18.37"/>
<polygon fill="black" stroke="black" points="126.85,-14.9 117.11,-19.07 127.32,-21.88 126.85,-14.9"/>
<text text-anchor="middle" x="222.78" y="-18.3" font-family="Times,serif" font-size="14.00">{c1}</text>
</g>
<!-- 4&#45;&gt;4 -->
<g id="edge5" class="edge">
<title>4&#45;&gt;4</title>
<path fill="none" stroke="black" d="M117.11,-25.35C161.59,-29.77 240.28,-28.66 240.28,-22 240.28,-15.82 172.55,-14.42 127.24,-17.77"/>
<polygon fill="black" stroke="black" points="126.77,-14.3 117.11,-18.65 127.37,-21.28 126.77,-14.3"/>
<text text-anchor="middle" x="249.78" y="-18.3" font-family="Times,serif" font-size="14.00">{}</text>
</g>
<!-- 4&#45;&gt;4 -->
<g id="edge6" class="edge">
<title>4&#45;&gt;4</title>
<path fill="none" stroke="black" d="M117.1,-25.79C167.42,-31.78 259.28,-30.52 259.28,-22 259.28,-14.03 178.88,-12.41 127.31,-17.14"/>
<polygon fill="black" stroke="black" points="126.68,-13.69 117.1,-18.21 127.41,-20.65 126.68,-13.69"/>
<text text-anchor="middle" x="302.28" y="-18.3" font-family="Times,serif" font-size="14.00">{c0, c1, c2}</text>
</g>
<!-- 4&#45;&gt;4 -->
<g id="edge7" class="edge">
<title>4&#45;&gt;4</title>
<path fill="none" stroke="black" d="M117.09,-25.78C184.92,-33.83 345.28,-32.57 345.28,-22 345.28,-11.93 199.6,-10.31 127.22,-17.15"/>
<polygon fill="black" stroke="black" points="126.67,-13.69 117.09,-18.22 127.41,-20.65 126.67,-13.69"/>
<text text-anchor="middle" x="375.78" y="-18.3" font-family="Times,serif" font-size="14.00">{c0, c2}</text>
</g>
<!-- 4&#45;&gt;4 -->
<g id="edge8" class="edge">
<title>4&#45;&gt;4</title>
<path fill="none" stroke="black" d="M117.16,-25.93C196.44,-35.85 406.28,-34.54 406.28,-22 406.28,-9.96 212.9,-8.28 127.29,-16.93"/>
<polygon fill="black" stroke="black" points="126.7,-13.48 117.16,-18.07 127.48,-20.43 126.7,-13.48"/>
<text text-anchor="middle" x="436.78" y="-18.3" font-family="Times,serif" font-size="14.00">{c1, c2}</text>
</g>
<!-- 4&#45;&gt;4 -->
<g id="edge9" class="edge">
<title>4&#45;&gt;4</title>
<path fill="none" stroke="black" d="M116.96,-26.04C206.64,-37.86 467.28,-36.52 467.28,-22 467.28,-7.99 224.64,-6.25 127.04,-16.76"/>
<polygon fill="black" stroke="black" points="126.48,-13.3 116.96,-17.96 127.31,-20.25 126.48,-13.3"/>
<text text-anchor="middle" x="497.78" y="-18.3" font-family="Times,serif" font-size="14.00">{c0, c1}</text>
</g>
</g>
</svg>
